<?xml version="1.0" encoding="utf-8"?>
<!-- Generator: Adobe Illustrator 24.0.2, SVG Export Plug-In . SVG Version: 6.00 Build 0)  -->
<svg version="1.1" id="Layer_1" focusable="false" xmlns="http://www.w3.org/2000/svg" xmlns:xlink="http://www.w3.org/1999/xlink"
	 x="0px" y="0px" viewBox="0 0 320 512" style="enable-background:new 0 0 320 512;" xml:space="preserve">
<style type="text/css">
	.st0{fill:#DADEE2;}
	.st1{fill:#495057;}
</style>
<path class="st0" d="M144,256.3L15.9,128.2C7,119.3,7,105,15.9,96.2l21.3-21.3c8.9-8.9,23.2-8.9,31.9,0l90.8,90.8l90.8-90.8
	c8.9-8.9,23.2-8.9,31.9,0l21.5,21.2c8.9,8.9,8.9,23.2,0,31.9L176,256.2C167.2,265.1,152.8,265.1,144,256.3L144,256.3z"/>
<path class="st1" d="M176,437.2L304.1,309c8.9-8.9,8.9-23.2,0-31.9l-21.3-21.3c-8.9-8.9-23.2-8.9-31.9,0L160,346.5l-90.8-90.8
	c-8.9-8.9-23.2-8.9-31.9,0L15.9,277c-8.9,8.9-8.9,23.2,0,31.9L144,437.1C152.8,446,167.2,446,176,437.2z"/>
</svg>
