<?xml version="1.0" encoding="utf-8"?>
<!-- Generator: Adobe Illustrator 24.1.0, SVG Export Plug-In . SVG Version: 6.00 Build 0)  -->
<svg version="1.1" id="Layer_1" xmlns="http://www.w3.org/2000/svg" xmlns:xlink="http://www.w3.org/1999/xlink" x="0px" y="0px"
	 viewBox="0 0 100 125" style="enable-background:new 0 0 100 125;" xml:space="preserve" fill='#fff'>
<path d="M90.7,105.1c-1.9,0-3.4-1.5-3.4-3.4V20.3c0-1.9,1.5-3.4,3.4-3.4s3.4,1.5,3.4,3.4v81.4C94.1,103.6,92.6,105.1,90.7,105.1z"/>
<path d="M36.4,105.1c-1.9,0-3.4-1.5-3.4-3.4V47.4c0-1.9,1.5-3.4,3.4-3.4s3.4,1.5,3.4,3.4v54.2C39.8,103.6,38.3,105.1,36.4,105.1z"/>
<path d="M63.6,105.1c-1.9,0-3.4-1.5-3.4-3.4V61c0-1.9,1.5-3.4,3.4-3.4c1.9,0,3.4,1.5,3.4,3.4v40.7C66.9,103.6,65.4,105.1,63.6,105.1
	z"/>
<path d="M9.3,105.1c-1.9,0-3.4-1.5-3.4-3.4V74.6c0-1.9,1.5-3.4,3.4-3.4s3.4,1.5,3.4,3.4v27.1C12.7,103.6,11.2,105.1,9.3,105.1z"/>
</svg>
