<?xml version="1.0" encoding="utf-8"?>
<!-- Generator: Adobe Illustrator 24.1.0, SVG Export Plug-In . SVG Version: 6.00 Build 0)  -->
<svg version="1.1" id="Layer_1" xmlns="http://www.w3.org/2000/svg" xmlns:xlink="http://www.w3.org/1999/xlink" x="0px" y="0px"
	 viewBox="0 0 100 100" style="enable-background:new 0 0 100 100;" xml:space="preserve">
<style type="text/css">
	.st0{fill:#324784;}
	.st1{fill:none;stroke:#324784;stroke-width:32.2254;stroke-linecap:round;stroke-miterlimit:10;}
	.st2{fill:none;stroke:#324784;stroke-width:32.2254;stroke-linecap:round;stroke-linejoin:round;}
</style>
<g>
	<path class="st0" d="M85.8,3.2L71.1,20.5c-2.2,2.7-1.9,6.6,0.7,8.9l0,0c2.7,2.2,6.6,1.9,8.9-0.7l14.7-17.3c2.2-2.7,1.9-6.6-0.7-8.9
		l0,0C92,0.2,88,0.6,85.8,3.2z"/>
	<path class="st0" d="M77.4,90.6l-3.2-3.9c-0.6-0.7-1.7-0.9-2.5-0.2l0,0c-0.7,0.6-0.9,1.7-0.2,2.5l3.2,3.9c0.6,0.7,1.7,0.9,2.5,0.2
		l0,0C78,92.5,78.1,91.4,77.4,90.6z"/>
	<path class="st0" d="M4.2,64.1l5-0.9c1-0.2,1.9,0.5,2,1.4l0,0c0.2,1-0.5,1.9-1.4,2l-5,0.9c-1,0.2-1.9-0.5-2-1.4l0,0
		C2.6,65.1,3.2,64.2,4.2,64.1z"/>
	<path class="st0" d="M5.9,71.7l4.7-1.7c0.9-0.3,1.9,0.1,2.3,1.1l0,0c0.3,0.9-0.1,1.9-1.1,2.3L7.1,75c-0.9,0.3-1.9-0.1-2.3-1.1l0,0
		C4.5,73,5,72,5.9,71.7z"/>
	<path class="st0" d="M20.8,23.2l3.3,3.8c0.6,0.7,0.5,1.9-0.2,2.5l0,0c-0.7,0.6-1.9,0.5-2.5-0.2l-3.3-3.8c-0.6-0.7-0.5-1.9,0.2-2.5
		l0,0C19.1,22.3,20.2,22.4,20.8,23.2z"/>
	<g>
		<g>
			<path id="SVGID_1_" class="st0" d="M70.3,32.8L65.1,39C76,49,76.3,66,65.9,76.3c-0.2,0.2-0.3,0.3-0.5,0.5l5.2,6.3
				c0.4-0.3,0.7-0.7,1.1-1C85.3,68.4,84.9,45.9,70.3,32.8z"/>
		</g>
	</g>
	<g>
		<g>
			<path id="SVGID_3_" class="st0" d="M14.1,62.7l8-1.4c0-0.4-0.1-0.7-0.1-1.1c-0.6-7.6,2.1-15,7.5-20.4c0.3-0.3,0.6-0.6,0.9-0.9
				l-5.2-6.2c-0.5,0.4-1,0.9-1.4,1.3c-7.1,7.1-10.6,16.8-9.8,26.8C14,61.5,14,62.1,14.1,62.7z"/>
		</g>
	</g>
	<g>
		<g>
			<path id="SVGID_5_" class="st0" d="M63.3,37.5l5.2-6.2c-5.2-4.1-11.6-6.6-18.2-7.1c-0.6,0-1.2-0.1-1.8-0.1v8.1
				c0.4,0,0.8,0,1.1,0.1C54.7,32.7,59.4,34.5,63.3,37.5z"/>
		</g>
	</g>
	<g>
		<g>
			<path id="SVGID_7_" class="st0" d="M46.8,24.2c-7.3,0.2-14.2,2.7-19.9,7.1l5.2,6.2c4.2-3.2,9.3-5,14.6-5.2L46.8,24.2z"/>
		</g>
	</g>
	<g>
		<g>
			<path id="SVGID_9_" class="st0" d="M15.5,68.5l7.6-2.8c-0.2-0.7-0.4-1.4-0.6-2.1l-8,1.4C14.8,66.2,15.1,67.4,15.5,68.5z"/>
		</g>
	</g>
	<g>
		<g>
			<path id="SVGID_11_" class="st0" d="M63.7,78.3c-10.1,8-24.9,7.3-34.2-2c-2.4-2.4-4.3-5.3-5.6-8.4l-7.6,2.8
				c1.7,4.2,4.2,8.1,7.5,11.3c6.6,6.6,15.3,9.9,24,9.9c7.5,0,15-2.5,21.1-7.4L63.7,78.3z"/>
		</g>
	</g>
</g>
<path class="st1" d="M422-153.6c5.3-0.4,10.7-0.7,16.1-0.7c106.7,0,193.4,86.6,193.4,193.4s-86.6,193.4-193.4,193.4
	c-84,0-158.5-54.3-184.2-134.3"/>
<path class="st2" d="M422-186.5c-115.7,0-209.5,93.8-209.5,209.5c0,29.5,6.2,58.7,18.2,85.6L422,23V-186.5z"/>
</svg>
