<?xml version="1.0" encoding="utf-8"?>
<!-- Generator: Adobe Illustrator 24.3.0, SVG Export Plug-In . SVG Version: 6.00 Build 0)  -->
<svg version="1.1" id="Layer_1" xmlns="http://www.w3.org/2000/svg" xmlns:xlink="http://www.w3.org/1999/xlink" x="0px" y="0px"
	 viewBox="0 0 43 43" style="enable-background:new 0 0 43 43;" xml:space="preserve">
<style type="text/css">
	.st0{fill:none;stroke:#FFFFFF;stroke-width:2.2463;stroke-miterlimit:10;}
	.st1{fill:#FFFFFF;}
</style>
<g>
	<g>
		<path class="st0" d="M1.5,21.5L1.5,21.5c0-11,9-20,20-20h0c11,0,20,9,20,20v0c0,11-9,20-20,20h0C10.5,41.5,1.5,32.5,1.5,21.5z"/>
	</g>
	<g>
		<path class="st1" d="M13.6,21.5c0-0.3,0.1-0.7,0.4-0.9l8.7-8.7c0.5-0.5,1.4-0.5,1.9,0c0.5,0.5,0.5,1.4,0,1.9l-7.7,7.7l7.7,7.7
			c0.5,0.5,0.5,1.4,0,1.9c-0.5,0.5-1.4,0.5-1.9,0L14,22.4C13.7,22.2,13.6,21.8,13.6,21.5z"/>
	</g>
</g>
</svg>
