<?xml version="1.0" encoding="utf-8"?>
<!-- Generator: Adobe Illustrator 24.3.0, SVG Export Plug-In . SVG Version: 6.00 Build 0)  -->
<svg version="1.1" id="Layer_1" xmlns="http://www.w3.org/2000/svg" xmlns:xlink="http://www.w3.org/1999/xlink" x="0px" y="0px"
	 viewBox="0 0 119 35" style="enable-background:new 0 0 119 35;" xml:space="preserve">
<style type="text/css">
	.st0{fill:#FFFFFF;}
</style>
<g>
	<path class="st0" d="M3.6,1.5l8.2,7V2c0-0.7,0.5-1.1,1.4-1.1s1.3,0.4,1.3,1.1V11c0,0.7-0.5,1.1-1.4,1.1c-0.7,0-1-0.2-1.5-0.6
		l-8.1-7V11c0,0.7-0.4,1.1-1.4,1.1c-0.9,0-1.3-0.4-1.3-1.1V2c0-0.8,0.5-1.1,1.4-1.1C2.8,0.9,3.1,1.1,3.6,1.5"/>
	<path class="st0" d="M42.1,1.8l3,6.6l2.8-6.7c0.2-0.5,0.6-0.8,1.4-0.8c0.9,0,1.4,0.4,1.4,1.1c0,0.2,0,0.4-0.2,0.8L46.6,11
		c-0.4,0.8-0.6,1.1-1.5,1.1c-0.9,0-1.3-0.4-1.6-1.1l-2.9-6.3L37.7,11c-0.4,0.8-0.7,1.1-1.6,1.1c-0.9,0-1.1-0.3-1.5-1.1l-3.7-8.3
		c-0.2-0.3-0.2-0.5-0.2-0.8c0-0.7,0.5-1.1,1.4-1.1c0.8,0,1.2,0.3,1.4,0.8l2.8,6.8l3-6.7c0.3-0.6,0.5-0.9,1.5-0.9
		C41.5,0.9,41.8,1.3,42.1,1.8"/>
	<path class="st0" d="M67.4,9.4H60l-1.3,2c-0.3,0.5-0.8,0.8-1.3,0.8c-0.9,0-1.4-0.4-1.4-1.1c0-0.3,0.1-0.5,0.4-0.9l5.9-8.5
		c0.3-0.5,0.8-0.7,1.4-0.7c0.6,0,1.1,0.2,1.4,0.7l6,8.5c0.3,0.4,0.4,0.6,0.4,0.9c0,0.7-0.5,1.1-1.4,1.1c-0.5,0-0.9-0.3-1.3-0.8
		L67.4,9.4z M61.3,7.5h4.8l-2.4-3.6L61.3,7.5z"/>
	<path class="st0" d="M78.2,12.1c-3.3,0-4.9-1-4.9-3.1V4c0-2,1.6-3,4.8-3H80c0.8,0,1.2,0.4,1.2,1c0,0.7-0.4,1.1-1.2,1.1h-1.9
		C76.7,3.1,76,3.4,76,4v4.8c0,0.7,0.8,1.1,2.4,1.1h3.4c1.6,0,2.4-0.4,2.4-1.1V6.3c0-0.7,0.4-1.1,1.3-1.1c0.9,0,1.4,0.4,1.4,1.1v2.6
		c0,2.1-1.7,3.1-4.9,3.1H78.2z"/>
	<path class="st0" d="M94.7,12.1c-3.3,0-4.9-1-4.9-3.1V4c0-2,1.6-3,4.8-3h2c0.8,0,1.2,0.4,1.2,1c0,0.7-0.4,1.1-1.2,1.1h-2
		c-1.4,0-2.2,0.3-2.2,1v1.4h7.2c0.8,0,1.1,0.3,1.1,1c0,0.7-0.4,1-1.1,1h-7.2v1.4c0,0.7,0.8,1.1,2.4,1.1h7.7c0.8,0,1.2,0.3,1.2,1
		c0,0.7-0.4,1.1-1.2,1.1H94.7z"/>
	<path class="st0" d="M21.8,34.1c-0.6,0-1.1-0.3-1.4-0.8l-2.5-3.8h-12l-2.4,3.8c-0.3,0.5-0.8,0.8-1.4,0.8c-0.9,0-1.5-0.5-1.5-1.2
		c0-0.3,0-0.5,0.3-0.9l9.6-14.6c0.3-0.4,0.8-0.7,1.5-0.7h0c0.6,0,1.1,0.3,1.4,0.7L23,32.1c0.2,0.3,0.3,0.6,0.3,0.9
		C23.3,33.6,22.7,34.1,21.8,34.1 M16.5,27.3l-4.6-7.1l-4.5,7.1H16.5z"/>
	<path class="st0" d="M33.1,34c-4.8,0-7.3-1.7-7.3-4.9V18c0-0.4,0.2-1.2,1.5-1.2c1.3,0,1.5,0.8,1.5,1.2v11c0,1.8,1.4,2.6,4.4,2.6h10
		c1.2,0,1.4,0.7,1.4,1.2c0,0.4-0.2,1.2-1.4,1.2H33.1z"/>
	<path class="st0" d="M49.4,34.1c-1.3,0-1.5-0.8-1.5-1.2v-15c0-0.4,0.2-1,1.3-1h11.4c5.1,0,7.7,1.6,7.7,4.9v2c0,3.2-2.6,4.9-7.7,4.9
		h-9.7v4.3C50.9,33.4,50.7,34.1,49.4,34.1 M60.7,26.2c3.1,0,4.6-0.8,4.6-2.6v-1.9c0-1.7-1.5-2.6-4.6-2.6h-9.8c0,0,0,0,0,0l0,7H60.7z
		"/>
	<path class="st0" d="M90.8,34.1c-1.3,0-1.5-0.8-1.5-1.2v-6.2H75v6.2c0,0.5-0.3,1.2-1.5,1.2c-1.3,0-1.5-0.8-1.5-1.2V18
		c0-0.5,0.3-1.2,1.5-1.2c1.2,0,1.4,0.7,1.4,1.2v6.4h14.3v-6.4c0-0.4,0.2-1.2,1.5-1.2c1.3,0,1.5,0.7,1.5,1.2v15
		C92.3,33.4,92.1,34.1,90.8,34.1"/>
	<path class="st0" d="M116.9,34.1c-0.6,0-1.1-0.3-1.4-0.8l-2.5-3.8h-12l-2.4,3.8c-0.3,0.5-0.8,0.8-1.4,0.8c-0.9,0-1.5-0.5-1.5-1.2
		c0-0.3,0-0.5,0.3-0.9l9.6-14.6c0.3-0.4,0.8-0.7,1.5-0.7h0c0.6,0,1.1,0.3,1.4,0.7l9.6,14.6c0.2,0.3,0.3,0.6,0.3,0.9
		C118.4,33.6,117.8,34.1,116.9,34.1 M111.6,27.3l-4.6-7.1l-4.5,7.1H111.6z"/>
	<path class="st0" d="M22.4,12.1c-3.3,0-4.9-1-4.9-3.1V4c0-2,1.6-3,4.8-3h2c0.8,0,1.2,0.4,1.2,1c0,0.7-0.4,1.1-1.2,1.1h-2
		c-1.4,0-2.2,0.3-2.2,1v1.4h7.1c0.8,0,1.1,0.3,1.1,1c0,0.7-0.4,1-1.1,1h-7.1v1.4c0,0.7,0.8,1.1,2.4,1.1h7.7c0.8,0,1.2,0.3,1.2,1
		c0,0.7-0.4,1.1-1.2,1.1H22.4z"/>
	<g>
		<path class="st0" d="M114.5,17.8c0-1.1,0.8-1.9,1.9-1.9c1.1,0,1.9,0.8,1.9,1.9c0,1.1-0.8,1.9-1.9,1.9
			C115.3,19.7,114.5,18.9,114.5,17.8z M118,17.8c0-1-0.7-1.7-1.7-1.7c-1,0-1.6,0.7-1.6,1.7c0,1,0.7,1.7,1.7,1.7
			C117.3,19.5,118,18.8,118,17.8z M116.8,18.7l-0.6-0.7H116v0.7c0,0.1,0,0.1-0.1,0.1h0c-0.1,0-0.1-0.1-0.1-0.1v-1.7
			c0-0.1,0.1-0.2,0.2-0.2h0.6c0.5,0,0.7,0.2,0.7,0.6c0,0.3-0.2,0.5-0.5,0.6c-0.1,0-0.1,0-0.2,0l0.7,0.7c0,0-0.1,0.1-0.1,0.1
			C117,18.8,116.9,18.7,116.8,18.7z M116.4,17.8c0.3,0,0.5-0.1,0.5-0.4c0-0.3-0.2-0.4-0.5-0.4h-0.5v0.8H116.4z"/>
	</g>
</g>
</svg>
