<?xml version="1.0" encoding="utf-8"?>
<!-- Generator: Adobe Illustrator 24.1.0, SVG Export Plug-In . SVG Version: 6.00 Build 0)  -->
<svg version="1.1" id="Layer_1" xmlns="http://www.w3.org/2000/svg" xmlns:xlink="http://www.w3.org/1999/xlink" x="0px" y="0px"
	 viewBox="0 0 100 125" style="enable-background:new 0 0 100 125;" xml:space="preserve" fill='#fff'>
<path d="M50.2,10.6c-0.5,0-0.9,0-1.4,0c-18.2,0.6-32.1,16.1-32.1,34.2v10.8H16c-5,0-8.9,3.9-8.9,8.9v41c0,5,3.9,8.9,8.9,8.9h68
	c5,0,8.9-3.9,8.9-8.9v-41c0-5-3.9-8.9-8.9-8.9h-0.3V44C83.7,25.6,68.7,10.6,50.2,10.6z M56.5,95.3c0.2,1.1-0.6,2-1.7,2h-5h-5
	c-1.1,0-1.8-0.9-1.7-2l2-9.3c-1.8-1.7-3-4.1-2.6-6.8c0.5-3.2,3.2-5.7,6.3-6.2c0.3,0,0.6,0,0.9,0c4.1,0,7.4,3.3,7.4,7.4
	c0,2.3-1.1,4.4-2.7,5.7L56.5,95.3z M69,55.7H31.3V44.6c0-9.8,7.2-18.5,17-19.4c0.6,0,1.2-0.2,1.8-0.2C60.4,25,69,33.4,69,44L69,55.7
	L69,55.7z"/>
</svg>
