<svg height="50" style=" fill:#000000;" viewBox="0 0 172 172" width="50" x="0px" xmlns="http://www.w3.org/2000/svg" y="0px"><g fill="#00b9ff" fill-rule="nonzero" font-family="none" font-size="none" font-weight="none" stroke="none" stroke-dasharray="" stroke-dashoffset="0" stroke-linecap="butt" stroke-linejoin="miter" stroke-miterlimit="10" stroke-width="1" style="mix-blend-mode: normal" text-anchor="none"><path d="M0,172v-172h172v172z" fill="none"></path><g fill="#00b9ff"><path d="M112.875,10.75c-26.66504,0 -48.375,21.70996 -48.375,48.375c0,11.37989 4.11524,21.75196 10.75,30.02442l-53.49804,53.49804l7.55859,7.64258l53.54003,-53.54004c8.27247,6.63477 18.64453,10.75 30.02442,10.75c26.66504,0 48.375,-21.70996 48.375,-48.375c0,-26.66504 -21.70996,-48.375 -48.375,-48.375zM112.875,21.5c20.82813,0 37.625,16.79688 37.625,37.625c0,20.82813 -16.79687,37.625 -37.625,37.625c-20.82812,0 -37.625,-16.79687 -37.625,-37.625c0,-20.82812 16.79688,-37.625 37.625,-37.625z"></path></g></g></svg>