<?xml version="1.0" encoding="utf-8"?>
<!-- Generator: Adobe Illustrator 24.2.1, SVG Export Plug-In . SVG Version: 6.00 Build 0)  -->
<svg version="1.1" id="Layer_1" xmlns="http://www.w3.org/2000/svg" xmlns:xlink="http://www.w3.org/1999/xlink" x="0px" y="0px"
	 viewBox="0 0 905 530" style="enable-background:new 0 0 905 530;" xml:space="preserve">
<style type="text/css">
	.st0{fill:#054BA4;}
	.st1{fill:url(#SVGID_1_);}
	.st2{fill:#FFFFFF;}
	.st3{fill:none;stroke:#00B9EE;stroke-width:1.4429;stroke-linecap:round;stroke-linejoin:round;stroke-miterlimit:10;}
	.st4{fill:#284D95;}
	.st5{fill:#D1D8DD;}
	.st6{enable-background:new    ;}
	.st7{fill:#314D91;}
</style>
<g>
	<g>
		<path class="st0" d="M434.3,230.1c0,0.6-0.2,1.1-0.7,1.5s-1.1,0.5-1.9,0.5s-1.5-0.1-2-0.4v-1.1c0.3,0.2,0.7,0.3,1,0.4
			c0.4,0.1,0.7,0.1,1,0.1c0.5,0,0.8-0.1,1-0.3s0.3-0.4,0.3-0.7s-0.1-0.5-0.3-0.7c-0.2-0.2-0.6-0.4-1.2-0.7c-0.7-0.3-1.1-0.6-1.4-0.9
			c-0.3-0.3-0.4-0.8-0.4-1.2c0-0.6,0.2-1.1,0.6-1.4c0.4-0.3,1-0.5,1.7-0.5s1.4,0.2,2,0.5l-0.4,1c-0.6-0.3-1.2-0.4-1.7-0.4
			c-0.4,0-0.7,0.1-0.9,0.2c-0.2,0.2-0.3,0.4-0.3,0.7c0,0.2,0,0.3,0.1,0.5c0.1,0.1,0.2,0.3,0.4,0.4c0.2,0.1,0.5,0.3,1,0.5
			s0.9,0.4,1.2,0.6c0.2,0.2,0.4,0.4,0.5,0.6C434.3,229.5,434.3,229.8,434.3,230.1z"/>
		<path class="st0" d="M437.9,232.2c-0.8,0-1.5-0.2-2-0.7s-0.7-1.2-0.7-2c0-0.9,0.2-1.6,0.7-2.1c0.4-0.5,1-0.8,1.8-0.8
			c0.7,0,1.3,0.2,1.7,0.7c0.4,0.4,0.6,1,0.6,1.8v0.6h-3.6c0,0.5,0.2,0.9,0.4,1.2c0.3,0.3,0.6,0.4,1.1,0.4c0.3,0,0.6,0,0.9-0.1
			s0.6-0.2,0.9-0.3v0.9c-0.3,0.1-0.6,0.2-0.8,0.3C438.6,232.2,438.3,232.2,437.9,232.2z M437.7,227.4c-0.4,0-0.7,0.1-0.9,0.4
			c-0.2,0.2-0.4,0.6-0.4,1h2.5c0-0.5-0.1-0.8-0.3-1C438.4,227.5,438.1,227.4,437.7,227.4z"/>
		<path class="st0" d="M442.5,232.1h-1.1v-7.7h1.1V232.1z"/>
		<path class="st0" d="M446.5,232.2c-0.8,0-1.5-0.2-2-0.7s-0.7-1.2-0.7-2c0-0.9,0.2-1.6,0.7-2.1c0.4-0.5,1-0.8,1.8-0.8
			c0.7,0,1.3,0.2,1.7,0.7c0.4,0.4,0.6,1,0.6,1.8v0.6H445c0,0.5,0.2,0.9,0.4,1.2c0.3,0.3,0.6,0.4,1.1,0.4c0.3,0,0.6,0,0.9-0.1
			s0.6-0.2,0.9-0.3v0.9c-0.3,0.1-0.6,0.2-0.8,0.3C447.2,232.2,446.8,232.2,446.5,232.2z M446.3,227.4c-0.4,0-0.7,0.1-0.9,0.4
			c-0.2,0.2-0.4,0.6-0.4,1h2.5c0-0.5-0.1-0.8-0.3-1C446.9,227.5,446.6,227.4,446.3,227.4z"/>
		<path class="st0" d="M452.1,232.2c-0.8,0-1.4-0.2-1.9-0.7c-0.4-0.5-0.6-1.2-0.6-2.1c0-0.9,0.2-1.6,0.7-2.1
			c0.4-0.5,1.1-0.7,1.9-0.7c0.6,0,1.1,0.1,1.5,0.3l-0.3,0.9c-0.5-0.2-0.9-0.3-1.2-0.3c-0.9,0-1.4,0.6-1.4,1.9c0,0.6,0.1,1.1,0.3,1.4
			c0.2,0.3,0.6,0.5,1,0.5c0.5,0,1-0.1,1.4-0.4v1c-0.2,0.1-0.4,0.2-0.7,0.3C452.7,232.2,452.4,232.2,452.1,232.2z"/>
		<path class="st0" d="M456.8,231.3c0.3,0,0.6,0,0.8-0.1v0.9c-0.1,0.1-0.3,0.1-0.5,0.1s-0.4,0.1-0.6,0.1c-1.1,0-1.6-0.6-1.6-1.7
			v-2.9h-0.7V227l0.8-0.4l0.4-1.2h0.7v1.2h1.5v0.9h-1.5v2.9c0,0.3,0.1,0.5,0.2,0.6C456.4,231.2,456.6,231.3,456.8,231.3z"/>
		<path class="st0" d="M463.4,227.6c0.7,0,1.3,0.2,1.7,0.6c0.4,0.4,0.6,0.9,0.6,1.6c0,0.8-0.2,1.4-0.7,1.8c-0.5,0.4-1.2,0.6-2,0.6
			s-1.4-0.1-1.9-0.4v-1.1c0.3,0.2,0.6,0.3,0.9,0.4c0.3,0.1,0.7,0.1,1,0.1c0.5,0,0.9-0.1,1.2-0.4c0.3-0.2,0.4-0.6,0.4-1
			c0-0.9-0.5-1.3-1.6-1.3c-0.2,0-0.3,0-0.6,0c-0.2,0-0.4,0.1-0.6,0.1l-0.5-0.3l0.3-3.5h3.7v1h-2.7l-0.2,1.8c0.1,0,0.3,0,0.4-0.1
			C463,227.6,463.2,227.6,463.4,227.6z"/>
		<path class="st0" d="M471.5,228.5c0,1.3-0.2,2.2-0.6,2.8s-1,0.9-1.8,0.9s-1.4-0.3-1.8-0.9c-0.4-0.6-0.6-1.5-0.6-2.8
			s0.2-2.2,0.6-2.8s1-0.9,1.8-0.9s1.4,0.3,1.8,0.9C471.3,226.4,471.5,227.3,471.5,228.5z M467.8,228.5c0,1,0.1,1.7,0.3,2.1
			c0.2,0.4,0.5,0.6,1,0.6c0.4,0,0.8-0.2,1-0.6c0.2-0.4,0.3-1.1,0.3-2.1s-0.1-1.7-0.3-2.1c-0.2-0.4-0.5-0.6-1-0.6
			c-0.4,0-0.8,0.2-1,0.6C467.9,226.8,467.8,227.5,467.8,228.5z"/>
		<path class="st0" d="M479,230.5c0,0.5-0.2,0.9-0.6,1.2s-0.9,0.4-1.6,0.4s-1.3-0.1-1.7-0.3v-1c0.6,0.3,1.2,0.4,1.8,0.4
			c0.7,0,1.1-0.2,1.1-0.6c0-0.1,0-0.3-0.1-0.3c-0.1-0.1-0.2-0.2-0.4-0.3c-0.2-0.1-0.4-0.2-0.7-0.3c-0.6-0.2-1-0.5-1.3-0.7
			c-0.2-0.2-0.3-0.6-0.3-0.9c0-0.5,0.2-0.8,0.6-1.1s0.9-0.4,1.5-0.4s1.2,0.1,1.8,0.4l-0.4,0.9c-0.6-0.2-1.1-0.4-1.5-0.4
			c-0.6,0-0.9,0.2-0.9,0.5c0,0.2,0.1,0.3,0.2,0.4c0.2,0.1,0.5,0.3,1,0.5c0.4,0.2,0.8,0.3,1,0.5c0.2,0.1,0.4,0.3,0.4,0.5
			C478.9,230.1,479,230.3,479,230.5z"/>
		<path class="st0" d="M482.2,231.3c0.3,0,0.6,0,0.8-0.1v0.9c-0.1,0.1-0.3,0.1-0.5,0.1s-0.4,0.1-0.6,0.1c-1.1,0-1.6-0.6-1.6-1.7
			v-2.9h-0.7V227l0.8-0.4l0.4-1.2h0.7v1.2h1.5v0.9h-1.5v2.9c0,0.3,0.1,0.5,0.2,0.6C481.8,231.2,482,231.3,482.2,231.3z"/>
		<path class="st0" d="M489,229.4c0,0.9-0.2,1.6-0.7,2.1s-1.1,0.7-1.9,0.7c-0.5,0-1-0.1-1.3-0.3c-0.4-0.2-0.7-0.6-0.9-1
			c-0.2-0.4-0.3-0.9-0.3-1.5c0-0.9,0.2-1.6,0.7-2.1c0.4-0.5,1.1-0.7,1.9-0.7s1.4,0.3,1.9,0.8C488.7,227.8,489,228.5,489,229.4z
			 M485,229.4c0,1.3,0.5,1.9,1.4,1.9s1.4-0.6,1.4-1.9c0-1.2-0.5-1.9-1.4-1.9c-0.5,0-0.8,0.2-1,0.5C485.1,228.3,485,228.8,485,229.4z
			"/>
		<path class="st0" d="M492.5,232.2c-0.8,0-1.4-0.2-1.9-0.7c-0.4-0.5-0.6-1.2-0.6-2.1c0-0.9,0.2-1.6,0.7-2.1
			c0.4-0.5,1.1-0.7,1.9-0.7c0.6,0,1.1,0.1,1.5,0.3l-0.3,0.9c-0.5-0.2-0.9-0.3-1.2-0.3c-0.9,0-1.4,0.6-1.4,1.9c0,0.6,0.1,1.1,0.3,1.4
			c0.2,0.3,0.6,0.5,1,0.5c0.5,0,1-0.1,1.4-0.4v1c-0.2,0.1-0.4,0.2-0.7,0.3C493.1,232.2,492.8,232.2,492.5,232.2z"/>
		<path class="st0" d="M496.3,229.2l0.6-0.8l1.6-1.8h1.3l-2.2,2.3l2.3,3.1h-1.3l-1.7-2.4l-0.6,0.5v1.9h-1.1v-7.7h1.1v3.7
			L496.3,229.2L496.3,229.2z"/>
		<path class="st0" d="M504.6,230.5c0,0.5-0.2,0.9-0.6,1.2s-0.9,0.4-1.6,0.4s-1.3-0.1-1.7-0.3v-1c0.6,0.3,1.2,0.4,1.8,0.4
			c0.7,0,1.1-0.2,1.1-0.6c0-0.1,0-0.3-0.1-0.3c-0.1-0.1-0.2-0.2-0.4-0.3c-0.2-0.1-0.4-0.2-0.7-0.3c-0.6-0.2-1-0.5-1.3-0.7
			c-0.2-0.2-0.3-0.6-0.3-0.9c0-0.5,0.2-0.8,0.6-1.1s0.9-0.4,1.5-0.4s1.2,0.1,1.8,0.4l-0.4,0.9c-0.6-0.2-1.1-0.4-1.5-0.4
			c-0.6,0-0.9,0.2-0.9,0.5c0,0.2,0.1,0.3,0.2,0.4c0.2,0.1,0.5,0.3,1,0.5c0.4,0.2,0.8,0.3,1,0.5c0.2,0.1,0.4,0.3,0.4,0.5
			C504.5,230.1,504.6,230.3,504.6,230.5z"/>
		<path class="st0" d="M512.8,232.1l-0.7-2.5c-0.1-0.3-0.2-0.9-0.5-1.9l0,0c-0.2,0.9-0.3,1.5-0.4,1.9l-0.7,2.5h-1.3l-1.5-5.5h1.2
			l0.7,2.7c0.2,0.7,0.3,1.2,0.3,1.7l0,0c0-0.2,0.1-0.5,0.1-0.8s0.1-0.5,0.2-0.7l0.8-2.9h1.3l0.8,2.9c0,0.2,0.1,0.4,0.2,0.7
			c0.1,0.3,0.1,0.6,0.1,0.8l0,0c0-0.4,0.2-1,0.3-1.7l0.7-2.7h1.2l-1.5,5.5H512.8z"/>
		<path class="st0" d="M516.5,225.2c0-0.2,0.1-0.4,0.2-0.5c0.1-0.1,0.3-0.2,0.5-0.2s0.4,0.1,0.5,0.2c0.1,0.1,0.2,0.3,0.2,0.5
			s-0.1,0.4-0.2,0.5c-0.1,0.1-0.3,0.2-0.5,0.2s-0.4-0.1-0.5-0.2C516.6,225.6,516.5,225.4,516.5,225.2z M517.7,232.1h-1.1v-5.5h1.1
			V232.1z"/>
		<path class="st0" d="M521.4,231.3c0.3,0,0.6,0,0.8-0.1v0.9c-0.1,0.1-0.3,0.1-0.5,0.1s-0.4,0.1-0.6,0.1c-1.1,0-1.6-0.6-1.6-1.7
			v-2.9h-0.7V227l0.8-0.4l0.4-1.2h0.7v1.2h1.5v0.9h-1.5v2.9c0,0.3,0.1,0.5,0.2,0.6C521,231.2,521.1,231.3,521.4,231.3z"/>
		<path class="st0" d="M528,232.1h-1.2v-3.4c0-0.4-0.1-0.7-0.3-0.9s-0.4-0.3-0.8-0.3c-0.5,0-0.8,0.1-1.1,0.4
			c-0.2,0.3-0.3,0.8-0.3,1.5v2.7h-1.1v-7.7h1.1v1.9c0,0.3,0,0.6-0.1,1h0.1c0.2-0.3,0.4-0.5,0.7-0.6s0.6-0.2,1-0.2c1.3,0,2,0.7,2,2
			L528,232.1L528,232.1z"/>
		<path class="st0" d="M533.4,232.1h-1.1v-7.7h1.1V232.1z"/>
		<path class="st0" d="M539.8,229.4c0,0.9-0.2,1.6-0.7,2.1s-1.1,0.7-1.9,0.7c-0.5,0-1-0.1-1.3-0.3c-0.4-0.2-0.7-0.6-0.9-1
			s-0.3-0.9-0.3-1.5c0-0.9,0.2-1.6,0.7-2.1c0.4-0.5,1.1-0.7,1.9-0.7c0.8,0,1.4,0.3,1.9,0.8C539.6,227.8,539.8,228.5,539.8,229.4z
			 M535.9,229.4c0,1.3,0.5,1.9,1.4,1.9s1.4-0.6,1.4-1.9c0-1.2-0.5-1.9-1.4-1.9c-0.5,0-0.8,0.2-1,0.5
			C536,228.3,535.9,228.8,535.9,229.4z"/>
		<path class="st0" d="M545.6,232.1l-0.7-2.5c-0.1-0.3-0.2-0.9-0.5-1.9l0,0c-0.2,0.9-0.3,1.5-0.4,1.9l-0.7,2.5H542l-1.5-5.5h1.2
			l0.7,2.7c0.2,0.7,0.3,1.2,0.3,1.7l0,0c0-0.2,0.1-0.5,0.1-0.8s0.1-0.5,0.2-0.7l0.8-2.9h1.3l0.8,2.9c0,0.2,0.1,0.4,0.2,0.7
			c0.1,0.3,0.1,0.6,0.1,0.8l0,0c0-0.4,0.2-1,0.3-1.7l0.7-2.7h1.2l-1.5,5.5H545.6z"/>
		<path class="st0" d="M551.7,232.2c-0.8,0-1.5-0.2-2-0.7s-0.7-1.2-0.7-2c0-0.9,0.2-1.6,0.7-2.1c0.4-0.5,1-0.8,1.8-0.8
			c0.7,0,1.3,0.2,1.7,0.7c0.4,0.4,0.6,1,0.6,1.8v0.6h-3.6c0,0.5,0.2,0.9,0.4,1.2c0.3,0.3,0.6,0.4,1.1,0.4c0.3,0,0.6,0,0.9-0.1
			c0.3-0.1,0.6-0.2,0.9-0.3v0.9c-0.3,0.1-0.6,0.2-0.8,0.3C552.4,232.2,552,232.2,551.7,232.2z M551.4,227.4c-0.4,0-0.7,0.1-0.9,0.4
			c-0.2,0.2-0.4,0.6-0.4,1h2.5c0-0.5-0.1-0.8-0.3-1C552.1,227.5,551.8,227.4,551.4,227.4z"/>
		<path class="st0" d="M558.7,230.5c0,0.5-0.2,0.9-0.6,1.2c-0.4,0.3-0.9,0.4-1.6,0.4c-0.7,0-1.3-0.1-1.7-0.3v-1
			c0.6,0.3,1.2,0.4,1.8,0.4c0.7,0,1.1-0.2,1.1-0.6c0-0.1,0-0.3-0.1-0.3c-0.1-0.1-0.2-0.2-0.4-0.3s-0.4-0.2-0.7-0.3
			c-0.6-0.2-1-0.5-1.3-0.7c-0.2-0.2-0.3-0.6-0.3-0.9c0-0.5,0.2-0.8,0.6-1.1c0.4-0.3,0.9-0.4,1.5-0.4s1.2,0.1,1.8,0.4l-0.4,0.9
			c-0.6-0.2-1.1-0.4-1.5-0.4c-0.6,0-0.9,0.2-0.9,0.5c0,0.2,0.1,0.3,0.2,0.4c0.2,0.1,0.5,0.3,1,0.5c0.4,0.2,0.8,0.3,1,0.5
			c0.2,0.1,0.4,0.3,0.4,0.5C558.6,230.1,558.7,230.3,558.7,230.5z"/>
		<path class="st0" d="M561.9,231.3c0.3,0,0.6,0,0.8-0.1v0.9c-0.1,0.1-0.3,0.1-0.5,0.1s-0.4,0.1-0.6,0.1c-1.1,0-1.6-0.6-1.6-1.7
			v-2.9h-0.7V227l0.8-0.4l0.4-1.2h0.7v1.2h1.5v0.9h-1.5v2.9c0,0.3,0.1,0.5,0.2,0.6C561.5,231.2,561.7,231.3,561.9,231.3z"/>
		<path class="st0" d="M572.2,224.9v4.7c0,0.5-0.1,1-0.3,1.4s-0.6,0.7-1,0.9s-0.9,0.3-1.5,0.3c-0.9,0-1.6-0.2-2.1-0.7
			s-0.7-1.1-0.7-2v-4.6h1.2v4.6c0,0.6,0.1,1,0.4,1.3c0.3,0.3,0.7,0.4,1.3,0.4c1.1,0,1.7-0.6,1.7-1.8v-4.6h1V224.9z"/>
		<path class="st0" d="M575.2,229.2v2.9H574v-7.2h2c0.9,0,1.6,0.2,2,0.5s0.7,0.9,0.7,1.6c0,0.9-0.5,1.5-1.4,1.9l2,3.2H578l-1.7-2.9
			H575.2z M575.2,228.2h0.8c0.5,0,0.9-0.1,1.2-0.3c0.2-0.2,0.4-0.5,0.4-0.9s-0.1-0.7-0.4-0.9c-0.3-0.2-0.7-0.3-1.2-0.3h-0.8V228.2z"
			/>
		<path class="st0" d="M429.8,246.5c0,0.6-0.2,1.1-0.7,1.5s-1.1,0.5-1.9,0.5s-1.5-0.1-2-0.4V247c0.3,0.2,0.7,0.3,1,0.4
			c0.4,0.1,0.7,0.1,1,0.1c0.5,0,0.8-0.1,1-0.3s0.3-0.4,0.3-0.7s-0.1-0.5-0.3-0.7c-0.2-0.2-0.6-0.4-1.2-0.7c-0.7-0.3-1.1-0.6-1.4-0.9
			s-0.4-0.8-0.4-1.2c0-0.6,0.2-1.1,0.6-1.4s1-0.5,1.7-0.5s1.4,0.2,2,0.5l-0.4,1c-0.6-0.3-1.2-0.4-1.7-0.4c-0.4,0-0.7,0.1-0.9,0.2
			c-0.2,0.2-0.3,0.4-0.3,0.7c0,0.2,0,0.3,0.1,0.5c0.1,0.1,0.2,0.3,0.4,0.4c0.2,0.1,0.5,0.3,1,0.5s0.9,0.4,1.2,0.6
			c0.2,0.2,0.4,0.4,0.5,0.6C429.7,245.9,429.8,246.2,429.8,246.5z"/>
		<path class="st0" d="M433.2,248.5c-0.8,0-1.4-0.2-1.9-0.7c-0.4-0.5-0.6-1.2-0.6-2.1c0-0.9,0.2-1.6,0.7-2.1
			c0.4-0.5,1.1-0.7,1.9-0.7c0.6,0,1.1,0.1,1.5,0.3l-0.3,0.9c-0.5-0.2-0.9-0.3-1.2-0.3c-0.9,0-1.4,0.6-1.4,1.9c0,0.6,0.1,1.1,0.3,1.4
			c0.2,0.3,0.6,0.5,1,0.5c0.5,0,1-0.1,1.4-0.4v1c-0.2,0.1-0.4,0.2-0.7,0.3C433.8,248.5,433.5,248.5,433.2,248.5z"/>
		<path class="st0" d="M440.8,245.7c0,0.9-0.2,1.6-0.7,2.1s-1.1,0.7-1.9,0.7c-0.5,0-1-0.1-1.3-0.3c-0.4-0.2-0.7-0.6-0.9-1
			c-0.2-0.4-0.3-0.9-0.3-1.5c0-0.9,0.2-1.6,0.7-2.1c0.4-0.5,1.1-0.7,1.9-0.7s1.4,0.3,1.9,0.8S440.8,244.8,440.8,245.7z M436.8,245.7
			c0,1.3,0.5,1.9,1.4,1.9s1.4-0.6,1.4-1.9c0-1.2-0.5-1.9-1.4-1.9c-0.5,0-0.8,0.2-1,0.5C436.9,244.6,436.8,245.1,436.8,245.7z"/>
		<path class="st0" d="M444.8,242.9c0.2,0,0.4,0,0.6,0l-0.1,1.1c-0.2,0-0.3-0.1-0.5-0.1c-0.5,0-0.8,0.2-1.1,0.5
			c-0.3,0.3-0.4,0.7-0.4,1.2v2.9h-1.1V243h0.9l0.2,1h0.1c0.2-0.3,0.4-0.6,0.7-0.8C444.2,243,444.5,242.9,444.8,242.9z"/>
		<path class="st0" d="M448.7,248.5c-0.8,0-1.5-0.2-2-0.7s-0.7-1.2-0.7-2c0-0.9,0.2-1.6,0.7-2.1c0.4-0.5,1-0.8,1.8-0.8
			c0.7,0,1.3,0.2,1.7,0.7c0.4,0.4,0.6,1,0.6,1.8v0.6h-3.6c0,0.5,0.2,0.9,0.4,1.2c0.3,0.3,0.6,0.4,1.1,0.4c0.3,0,0.6,0,0.9-0.1
			s0.6-0.2,0.9-0.3v0.9c-0.3,0.1-0.6,0.2-0.8,0.3C449.4,248.5,449.1,248.5,448.7,248.5z M448.5,243.8c-0.4,0-0.7,0.1-0.9,0.4
			c-0.2,0.2-0.4,0.6-0.4,1h2.5c0-0.5-0.1-0.8-0.3-1C449.2,243.9,448.9,243.8,448.5,243.8z"/>
		<path class="st0" d="M455.8,246.9c0,0.5-0.2,0.9-0.6,1.2s-0.9,0.4-1.6,0.4s-1.3-0.1-1.7-0.3v-1c0.6,0.3,1.2,0.4,1.8,0.4
			c0.7,0,1.1-0.2,1.1-0.6c0-0.1,0-0.3-0.1-0.3c-0.1-0.1-0.2-0.2-0.4-0.3c-0.2-0.1-0.4-0.2-0.7-0.3c-0.6-0.2-1-0.5-1.3-0.7
			c-0.2-0.2-0.3-0.6-0.3-0.9c0-0.5,0.2-0.8,0.6-1.1s0.9-0.4,1.5-0.4s1.2,0.1,1.8,0.4l-0.4,0.9c-0.6-0.2-1.1-0.4-1.5-0.4
			c-0.6,0-0.9,0.2-0.9,0.5c0,0.2,0.1,0.3,0.2,0.4c0.2,0.1,0.5,0.3,1,0.5c0.4,0.2,0.8,0.3,1,0.5c0.2,0.1,0.4,0.3,0.4,0.5
			C455.7,246.4,455.8,246.6,455.8,246.9z"/>
		<path class="st0" d="M458.2,247.4c-0.2,0.6-0.4,1.4-0.9,2.4h-0.8c0.2-0.9,0.4-1.7,0.5-2.5h1.1L458.2,247.4z"/>
		<path class="st0" d="M466.7,248.4l-0.7-2.5c-0.1-0.3-0.2-0.9-0.5-1.9l0,0c-0.2,0.9-0.3,1.5-0.4,1.9l-0.7,2.5h-1.3l-1.5-5.5h1.2
			l0.7,2.7c0.2,0.7,0.3,1.2,0.3,1.7l0,0c0-0.2,0.1-0.5,0.1-0.8c0.1-0.3,0.1-0.5,0.2-0.7l0.8-2.9h1.3l0.8,2.9c0,0.2,0.1,0.4,0.2,0.7
			s0.1,0.6,0.1,0.8l0,0c0-0.4,0.2-1,0.3-1.7l0.7-2.7h1.2l-1.5,5.5H466.7z"/>
		<path class="st0" d="M472.8,248.5c-0.8,0-1.5-0.2-2-0.7s-0.7-1.2-0.7-2c0-0.9,0.2-1.6,0.7-2.1c0.4-0.5,1-0.8,1.8-0.8
			c0.7,0,1.3,0.2,1.7,0.7c0.4,0.4,0.6,1,0.6,1.8v0.6h-3.6c0,0.5,0.2,0.9,0.4,1.2c0.3,0.3,0.6,0.4,1.1,0.4c0.3,0,0.6,0,0.9-0.1
			s0.6-0.2,0.9-0.3v0.9c-0.3,0.1-0.6,0.2-0.8,0.3C473.5,248.5,473.2,248.5,472.8,248.5z M472.6,243.8c-0.4,0-0.7,0.1-0.9,0.4
			c-0.2,0.2-0.4,0.6-0.4,1h2.5c0-0.5-0.1-0.8-0.3-1C473.2,243.9,473,243.8,472.6,243.8z"/>
		<path class="st0" d="M476.1,241.5c0-0.2,0.1-0.4,0.2-0.5s0.3-0.2,0.5-0.2s0.4,0.1,0.5,0.2c0.1,0.1,0.2,0.3,0.2,0.5
			s-0.1,0.4-0.2,0.5s-0.3,0.2-0.5,0.2s-0.4-0.1-0.5-0.2C476.2,241.9,476.1,241.7,476.1,241.5z M477.4,248.4h-1.1V243h1.1V248.4z"/>
		<path class="st0" d="M483.6,243v0.6l-0.9,0.2c0.1,0.1,0.2,0.3,0.2,0.4c0.1,0.2,0.1,0.3,0.1,0.5c0,0.6-0.2,1-0.6,1.3
			s-0.9,0.5-1.6,0.5c-0.2,0-0.3,0-0.5,0c-0.2,0.2-0.4,0.3-0.4,0.5c0,0.1,0.1,0.2,0.2,0.3s0.3,0.1,0.6,0.1h0.9c0.6,0,1,0.1,1.4,0.4
			c0.3,0.3,0.5,0.6,0.5,1.1c0,0.6-0.3,1.1-0.8,1.4c-0.5,0.3-1.2,0.5-2.2,0.5c-0.7,0-1.3-0.1-1.7-0.4c-0.4-0.3-0.6-0.6-0.6-1.1
			c0-0.3,0.1-0.6,0.3-0.8c0.2-0.2,0.5-0.4,0.9-0.5c-0.2-0.1-0.3-0.2-0.4-0.3s-0.1-0.3-0.1-0.5s0.1-0.4,0.2-0.5s0.3-0.3,0.5-0.4
			c-0.3-0.1-0.5-0.3-0.7-0.6s-0.3-0.6-0.3-1c0-0.6,0.2-1.1,0.6-1.4c0.4-0.3,0.9-0.5,1.6-0.5c0.2,0,0.3,0,0.5,0s0.3,0,0.4,0.1
			L483.6,243L483.6,243z M479.3,249.3c0,0.3,0.1,0.4,0.3,0.6c0.2,0.1,0.5,0.2,0.9,0.2c0.6,0,1.1-0.1,1.4-0.3s0.5-0.4,0.5-0.7
			c0-0.2-0.1-0.4-0.3-0.5c-0.2-0.1-0.5-0.2-0.9-0.2h-0.9c-0.3,0-0.6,0.1-0.8,0.2C479.4,248.8,479.3,249,479.3,249.3z M479.8,244.7
			c0,0.3,0.1,0.6,0.3,0.8c0.2,0.2,0.4,0.3,0.7,0.3c0.7,0,1-0.4,1-1.1c0-0.4-0.1-0.6-0.2-0.8c-0.2-0.2-0.4-0.3-0.7-0.3
			c-0.3,0-0.6,0.1-0.8,0.3C479.9,244.1,479.8,244.4,479.8,244.7z"/>
		<path class="st0" d="M489.3,248.4h-1.2V245c0-0.4-0.1-0.7-0.3-0.9c-0.2-0.2-0.4-0.3-0.8-0.3c-0.5,0-0.8,0.1-1.1,0.4
			s-0.3,0.8-0.3,1.5v2.7h-1.1v-7.7h1.1v1.9c0,0.3,0,0.6-0.1,1h0.1c0.2-0.3,0.4-0.5,0.7-0.6c0.3-0.1,0.6-0.2,1-0.2c1.3,0,2,0.7,2,2
			L489.3,248.4L489.3,248.4z"/>
		<path class="st0" d="M492.9,247.6c0.3,0,0.6,0,0.8-0.1v0.9c-0.1,0.1-0.3,0.1-0.5,0.1s-0.4,0.1-0.6,0.1c-1.1,0-1.6-0.6-1.6-1.7V244
			h-0.7v-0.5l0.8-0.4l0.4-1.2h0.7v1.2h1.5v0.9h-1.5v2.9c0,0.3,0.1,0.5,0.2,0.6C492.5,247.5,492.7,247.6,492.9,247.6z"/>
		<path class="st0" d="M497.2,248.5c-0.8,0-1.5-0.2-2-0.7s-0.7-1.2-0.7-2c0-0.9,0.2-1.6,0.7-2.1c0.4-0.5,1-0.8,1.8-0.8
			c0.7,0,1.3,0.2,1.7,0.7c0.4,0.4,0.6,1,0.6,1.8v0.6h-3.6c0,0.5,0.2,0.9,0.4,1.2c0.3,0.3,0.6,0.4,1.1,0.4c0.3,0,0.6,0,0.9-0.1
			s0.6-0.2,0.9-0.3v0.9c-0.3,0.1-0.6,0.2-0.8,0.3C497.9,248.5,497.6,248.5,497.2,248.5z M497,243.8c-0.4,0-0.7,0.1-0.9,0.4
			c-0.2,0.2-0.4,0.6-0.4,1h2.5c0-0.5-0.1-0.8-0.3-1C497.6,243.9,497.3,243.8,497,243.8z"/>
		<path class="st0" d="M502.4,248.5c-0.7,0-1.2-0.2-1.6-0.7s-0.6-1.2-0.6-2.1c0-0.9,0.2-1.6,0.6-2.1s0.9-0.7,1.6-0.7
			s1.3,0.3,1.6,0.8h0.1c-0.1-0.4-0.1-0.7-0.1-0.9v-2h1.2v7.7h-0.9l-0.2-0.7H504C503.7,248.3,503.1,248.5,502.4,248.5z M502.7,247.6
			c0.5,0,0.8-0.1,1-0.4c0.2-0.3,0.3-0.7,0.3-1.3v-0.2c0-0.7-0.1-1.2-0.3-1.5c-0.2-0.3-0.6-0.4-1-0.4s-0.7,0.2-0.9,0.5
			c-0.2,0.3-0.3,0.8-0.3,1.4c0,0.6,0.1,1.1,0.3,1.4S502.3,247.6,502.7,247.6z"/>
		<path class="st0" d="M512.2,242.9c0.7,0,1.2,0.2,1.6,0.7s0.6,1.2,0.6,2.1c0,0.9-0.2,1.6-0.6,2.1c-0.4,0.5-0.9,0.7-1.6,0.7
			c-0.7,0-1.2-0.2-1.6-0.7h-0.1l-0.2,0.6h-0.9v-7.7h1.1v1.8c0,0.1,0,0.3,0,0.6s0,0.4,0,0.5l0,0C510.9,243.2,511.5,242.9,512.2,242.9
			z M511.9,243.8c-0.5,0-0.8,0.1-1,0.4c-0.2,0.3-0.3,0.7-0.3,1.4v0.1c0,0.7,0.1,1.1,0.3,1.4c0.2,0.3,0.5,0.4,1,0.4
			c0.4,0,0.7-0.2,0.9-0.5s0.3-0.8,0.3-1.4C513.1,244.5,512.7,243.8,511.9,243.8z"/>
		<path class="st0" d="M514.8,243h1.2l1.1,3.1c0.2,0.4,0.3,0.9,0.3,1.2l0,0c0-0.2,0.1-0.4,0.2-0.7c0.1-0.3,0.5-1.5,1.2-3.7h1.2
			l-2.3,6.2c-0.4,1.1-1.1,1.7-2.1,1.7c-0.3,0-0.5,0-0.7-0.1v-0.9c0.2,0,0.4,0.1,0.6,0.1c0.6,0,0.9-0.3,1.2-1l0.2-0.5L514.8,243z"/>
		<path class="st0" d="M526.6,248.4h-1.1v-4.7c0-0.6,0-1,0-1.3c-0.1,0.1-0.2,0.2-0.3,0.3s-0.5,0.4-1.1,0.9l-0.6-0.7l2.1-1.7h1
			L526.6,248.4L526.6,248.4z"/>
		<path class="st0" d="M528.9,246.2v-0.9h4.2v0.9H528.9z"/>
		<path class="st0" d="M542.6,241.2v4.7c0,0.5-0.1,1-0.3,1.4s-0.6,0.7-1,0.9s-0.9,0.3-1.5,0.3c-0.9,0-1.6-0.2-2.1-0.7
			s-0.7-1.1-0.7-2v-4.6h1.2v4.6c0,0.6,0.1,1,0.4,1.3c0.3,0.3,0.7,0.4,1.3,0.4c1.1,0,1.7-0.6,1.7-1.8v-4.6h1V241.2z"/>
		<path class="st0" d="M545.6,245.6v2.9h-1.2v-7.2h2c0.9,0,1.6,0.2,2,0.5s0.7,0.9,0.7,1.6c0,0.9-0.5,1.5-1.4,1.9l2,3.2h-1.3
			l-1.7-2.9H545.6z M545.6,244.6h0.8c0.5,0,0.9-0.1,1.2-0.3c0.2-0.2,0.4-0.5,0.4-0.9s-0.1-0.7-0.4-0.9c-0.3-0.2-0.7-0.3-1.2-0.3
			h-0.8V244.6z"/>
		<path class="st0" d="M557.6,246.5c0,0.6-0.2,1.1-0.7,1.5s-1.1,0.5-1.9,0.5s-1.5-0.1-2-0.4V247c0.3,0.2,0.7,0.3,1,0.4
			c0.4,0.1,0.7,0.1,1,0.1c0.5,0,0.8-0.1,1-0.3s0.3-0.4,0.3-0.7s-0.1-0.5-0.3-0.7s-0.6-0.4-1.2-0.7c-0.7-0.3-1.1-0.6-1.4-0.9
			c-0.3-0.3-0.4-0.8-0.4-1.2c0-0.6,0.2-1.1,0.6-1.4s1-0.5,1.7-0.5s1.4,0.2,2,0.5l-0.4,1c-0.6-0.3-1.2-0.4-1.7-0.4
			c-0.4,0-0.7,0.1-0.9,0.2c-0.2,0.2-0.3,0.4-0.3,0.7c0,0.2,0,0.3,0.1,0.5c0.1,0.1,0.2,0.3,0.4,0.4c0.2,0.1,0.5,0.3,1,0.5
			s0.9,0.4,1.2,0.6c0.2,0.2,0.4,0.4,0.5,0.6C557.5,245.9,557.6,246.2,557.6,246.5z"/>
		<path class="st0" d="M561,248.5c-0.8,0-1.4-0.2-1.9-0.7c-0.4-0.5-0.6-1.2-0.6-2.1c0-0.9,0.2-1.6,0.7-2.1c0.4-0.5,1.1-0.7,1.9-0.7
			c0.6,0,1.1,0.1,1.5,0.3l-0.3,0.9c-0.5-0.2-0.9-0.3-1.2-0.3c-0.9,0-1.4,0.6-1.4,1.9c0,0.6,0.1,1.1,0.3,1.4c0.2,0.3,0.6,0.5,1,0.5
			c0.5,0,1-0.1,1.4-0.4v1c-0.2,0.1-0.4,0.2-0.7,0.3C561.6,248.5,561.3,248.5,561,248.5z"/>
		<path class="st0" d="M568.6,245.7c0,0.9-0.2,1.6-0.7,2.1s-1.1,0.7-1.9,0.7c-0.5,0-1-0.1-1.3-0.3c-0.4-0.2-0.7-0.6-0.9-1
			s-0.3-0.9-0.3-1.5c0-0.9,0.2-1.6,0.7-2.1c0.4-0.5,1.1-0.7,1.9-0.7c0.8,0,1.4,0.3,1.9,0.8C568.3,244.2,568.6,244.8,568.6,245.7z
			 M564.6,245.7c0,1.3,0.5,1.9,1.4,1.9s1.4-0.6,1.4-1.9c0-1.2-0.5-1.9-1.4-1.9c-0.5,0-0.8,0.2-1,0.5
			C564.7,244.6,564.6,245.1,564.6,245.7z"/>
		<path class="st0" d="M572.6,242.9c0.2,0,0.4,0,0.6,0l-0.1,1.1c-0.2,0-0.3-0.1-0.5-0.1c-0.5,0-0.8,0.2-1.1,0.5s-0.4,0.7-0.4,1.2
			v2.9H570V243h0.9l0.2,1h0.1c0.2-0.3,0.4-0.6,0.7-0.8C572,243,572.3,242.9,572.6,242.9z"/>
		<path class="st0" d="M576.5,248.5c-0.8,0-1.5-0.2-2-0.7s-0.7-1.2-0.7-2c0-0.9,0.2-1.6,0.7-2.1c0.4-0.5,1-0.8,1.8-0.8
			c0.7,0,1.3,0.2,1.7,0.7c0.4,0.4,0.6,1,0.6,1.8v0.6H575c0,0.5,0.2,0.9,0.4,1.2c0.3,0.3,0.6,0.4,1.1,0.4c0.3,0,0.6,0,0.9-0.1
			c0.3-0.1,0.6-0.2,0.9-0.3v0.9c-0.3,0.1-0.6,0.2-0.8,0.3C577.2,248.5,576.9,248.5,576.5,248.5z M576.3,243.8
			c-0.4,0-0.7,0.1-0.9,0.4c-0.2,0.2-0.4,0.6-0.4,1h2.5c0-0.5-0.1-0.8-0.3-1C577,243.9,576.7,243.8,576.3,243.8z"/>
		<path class="st0" d="M583.6,246.9c0,0.5-0.2,0.9-0.6,1.2c-0.4,0.3-0.9,0.4-1.6,0.4c-0.7,0-1.3-0.1-1.7-0.3v-1
			c0.6,0.3,1.2,0.4,1.8,0.4c0.7,0,1.1-0.2,1.1-0.6c0-0.1,0-0.3-0.1-0.3c-0.1-0.1-0.2-0.2-0.4-0.3s-0.4-0.2-0.7-0.3
			c-0.6-0.2-1-0.5-1.3-0.7c-0.2-0.2-0.3-0.6-0.3-0.9c0-0.5,0.2-0.8,0.6-1.1c0.4-0.3,0.9-0.4,1.5-0.4s1.2,0.1,1.8,0.4l-0.4,0.9
			c-0.6-0.2-1.1-0.4-1.5-0.4c-0.6,0-0.9,0.2-0.9,0.5c0,0.2,0.1,0.3,0.2,0.4c0.2,0.1,0.5,0.3,1,0.5c0.4,0.2,0.8,0.3,1,0.5
			c0.2,0.1,0.4,0.3,0.4,0.5C583.5,246.4,583.6,246.6,583.6,246.9z"/>
	</g>
</g>
<g>
	
		<linearGradient id="SVGID_1_" gradientUnits="userSpaceOnUse" x1="376.8" y1="267" x2="212.2" y2="267" gradientTransform="matrix(1 0 0 -1 0 532)">
		<stop  offset="0" style="stop-color:#00BEFF"/>
		<stop  offset="1" style="stop-color:#054BA4"/>
	</linearGradient>
	<path class="st1" d="M238.5,291.3h112c14.6,0,26.3-11.8,26.3-26.3l0,0c0-14.6-11.8-26.3-26.3-26.3h-112
		c-14.6,0-26.3,11.8-26.3,26.3l0,0C212.2,279.6,224,291.3,238.5,291.3z"/>
	<g>
		<path class="st2" d="M242.6,269.7v-9.3h1.5v8h3.9v1.3H242.6z"/>
		<path class="st2" d="M249.3,260.8c0-0.3,0.1-0.5,0.2-0.6c0.1-0.1,0.4-0.2,0.6-0.2c0.3,0,0.5,0.1,0.6,0.2s0.2,0.3,0.2,0.6
			c0,0.3-0.1,0.5-0.2,0.6c-0.1,0.1-0.3,0.2-0.6,0.2s-0.5-0.1-0.6-0.2S249.3,261.1,249.3,260.8z M250.9,269.7h-1.5v-7h1.5V269.7z"/>
		<path class="st2" d="M255.4,269.8c-0.9,0-1.5-0.3-2-1c-0.5-0.6-0.7-1.5-0.7-2.7c0-1.1,0.2-2,0.7-2.7c0.5-0.6,1.2-1,2.1-1
			c0.4,0,0.8,0.1,1.2,0.2c0.3,0.2,0.7,0.4,0.9,0.8h0.1l0.2-0.9h1.2v10.1h-1.5v-3c0-0.2,0-0.4,0-0.6s0-0.4,0-0.5h-0.1
			C257.1,269.5,256.4,269.8,255.4,269.8z M255.8,268.6c0.6,0,1.1-0.2,1.3-0.5c0.3-0.4,0.4-0.9,0.4-1.6v-0.2c0-0.9-0.1-1.5-0.4-1.9
			s-0.7-0.6-1.4-0.6c-0.5,0-0.9,0.2-1.2,0.6s-0.4,1-0.4,1.8C254.2,267.8,254.7,268.6,255.8,268.6z"/>
		<path class="st2" d="M266.1,269.7l-0.2-0.9h-0.1c-0.2,0.3-0.5,0.6-0.9,0.8c-0.4,0.2-0.8,0.3-1.3,0.3c-0.8,0-1.5-0.2-1.9-0.6
			s-0.6-1.1-0.6-1.9v-4.6h1.5v4.3c0,0.5,0.1,0.9,0.3,1.2c0.2,0.3,0.6,0.4,1,0.4c0.6,0,1.1-0.2,1.4-0.6s0.4-1,0.4-1.9v-3.5h1.5v7
			L266.1,269.7L266.1,269.7z"/>
		<path class="st2" d="M269.3,260.8c0-0.3,0.1-0.5,0.2-0.6s0.4-0.2,0.6-0.2c0.3,0,0.5,0.1,0.6,0.2s0.2,0.3,0.2,0.6
			c0,0.3-0.1,0.5-0.2,0.6s-0.3,0.2-0.6,0.2c-0.3,0-0.5-0.1-0.6-0.2S269.3,261.1,269.3,260.8z M270.9,269.7h-1.5v-7h1.5V269.7z"/>
		<path class="st2" d="M275.4,269.8c-0.9,0-1.6-0.3-2-1c-0.5-0.6-0.7-1.5-0.7-2.7c0-1.1,0.2-2,0.7-2.7c0.5-0.6,1.2-1,2.1-1
			s1.6,0.3,2.1,1h0.1c-0.1-0.5-0.1-0.9-0.1-1.2v-2.6h1.5v9.9h-1.2l-0.3-0.9h-0.1C277,269.5,276.3,269.8,275.4,269.8z M275.8,268.6
			c0.6,0,1.1-0.2,1.3-0.5c0.3-0.3,0.4-0.9,0.4-1.7v-0.2c0-0.9-0.1-1.5-0.4-1.9s-0.7-0.6-1.4-0.6c-0.5,0-0.9,0.2-1.2,0.6
			c-0.3,0.4-0.4,1-0.4,1.8s0.1,1.4,0.4,1.8S275.2,268.6,275.8,268.6z"/>
		<path class="st2" d="M281,260.8c0-0.3,0.1-0.5,0.2-0.6s0.4-0.2,0.6-0.2c0.3,0,0.5,0.1,0.6,0.2s0.2,0.3,0.2,0.6
			c0,0.3-0.1,0.5-0.2,0.6s-0.3,0.2-0.6,0.2c-0.3,0-0.5-0.1-0.6-0.2S281,261.1,281,260.8z M282.6,269.7h-1.5v-7h1.5V269.7z"/>
		<path class="st2" d="M287.3,268.6c0.4,0,0.7-0.1,1.1-0.2v1.1c-0.2,0.1-0.4,0.1-0.6,0.2c-0.3,0-0.5,0.1-0.8,0.1
			c-1.4,0-2.1-0.7-2.1-2.2v-3.8h-1v-0.7l1-0.5l0.5-1.5h0.9v1.6h2v1.1h-2v3.8c0,0.4,0.1,0.6,0.3,0.8S287,268.6,287.3,268.6z"/>
		<path class="st2" d="M288.8,262.7h1.6l1.4,4c0.2,0.6,0.4,1.1,0.4,1.6h0.1c0-0.2,0.1-0.5,0.2-0.8s0.6-1.9,1.6-4.7h1.6l-3,7.9
			c-0.5,1.5-1.5,2.2-2.7,2.2c-0.3,0-0.7,0-1-0.1v-1.2c0.2,0.1,0.5,0.1,0.8,0.1c0.7,0,1.2-0.4,1.5-1.2l0.3-0.7L288.8,262.7z"/>
		<path class="st2" d="M305.7,267.2c0,0.8-0.3,1.5-0.9,1.9c-0.6,0.5-1.4,0.7-2.5,0.7c-1,0-1.9-0.2-2.6-0.5v-1.4
			c0.4,0.2,0.9,0.4,1.3,0.5c0.5,0.1,0.9,0.2,1.3,0.2c0.6,0,1-0.1,1.3-0.3c0.3-0.2,0.4-0.5,0.4-0.9c0-0.3-0.1-0.6-0.4-0.9
			c-0.3-0.2-0.8-0.5-1.6-0.9c-0.8-0.3-1.4-0.7-1.8-1.2c-0.3-0.4-0.5-1-0.5-1.6c0-0.8,0.3-1.4,0.8-1.8s1.3-0.7,2.2-0.7
			c0.9,0,1.8,0.2,2.7,0.6l-0.5,1.2c-0.8-0.3-1.6-0.5-2.2-0.5c-0.5,0-0.9,0.1-1.1,0.3c-0.3,0.2-0.4,0.5-0.4,0.8
			c0,0.2,0.1,0.4,0.2,0.6s0.3,0.3,0.5,0.5s0.7,0.4,1.3,0.6c0.7,0.3,1.2,0.5,1.5,0.8c0.3,0.2,0.5,0.5,0.7,0.8
			C305.6,266.4,305.7,266.8,305.7,267.2z"/>
		<path class="st2" d="M310.1,269.8c-1.1,0-1.9-0.3-2.4-0.9c-0.6-0.6-0.8-1.5-0.8-2.7s0.3-2.1,0.9-2.7s1.4-1,2.5-1
			c0.7,0,1.4,0.1,2,0.4l-0.5,1.2c-0.6-0.2-1.1-0.4-1.6-0.4c-1.2,0-1.8,0.8-1.8,2.4c0,0.8,0.2,1.4,0.5,1.8s0.7,0.6,1.3,0.6
			c0.7,0,1.3-0.2,1.9-0.5v1.3c-0.3,0.2-0.6,0.3-0.9,0.3C310.9,269.8,310.6,269.8,310.1,269.8z"/>
		<path class="st2" d="M317.3,262.6c0.3,0,0.5,0,0.7,0.1l-0.1,1.4c-0.2-0.1-0.4-0.1-0.7-0.1c-0.6,0-1.1,0.2-1.4,0.6
			c-0.4,0.4-0.6,0.9-0.6,1.5v3.7h-1.5v-7h1.2l0.2,1.2h0.1c0.2-0.4,0.5-0.8,0.9-1C316.4,262.7,316.8,262.6,317.3,262.6z"/>
		<path class="st2" d="M322.4,269.8c-1.1,0-1.9-0.3-2.6-1c-0.6-0.6-0.9-1.5-0.9-2.6s0.3-2,0.9-2.7s1.4-1,2.4-1
			c0.9,0,1.7,0.3,2.2,0.8c0.5,0.6,0.8,1.3,0.8,2.3v0.8h-4.7c0,0.7,0.2,1.2,0.6,1.6c0.3,0.4,0.8,0.5,1.5,0.5c0.4,0,0.8,0,1.2-0.1
			c0.4-0.1,0.7-0.2,1.2-0.4v1.2c-0.4,0.2-0.7,0.3-1.1,0.4C323.3,269.8,322.9,269.8,322.4,269.8z M322.1,263.7
			c-0.5,0-0.9,0.2-1.1,0.5c-0.3,0.3-0.5,0.7-0.5,1.3h3.2c0-0.6-0.1-1-0.4-1.3C323,263.8,322.6,263.7,322.1,263.7z"/>
		<path class="st2" d="M329.9,269.8c-1.1,0-1.9-0.3-2.6-1c-0.6-0.6-0.9-1.5-0.9-2.6s0.3-2,0.9-2.7s1.4-1,2.4-1
			c0.9,0,1.7,0.3,2.2,0.8c0.5,0.6,0.8,1.3,0.8,2.3v0.8H328c0,0.7,0.2,1.2,0.6,1.6c0.3,0.4,0.8,0.5,1.5,0.5c0.4,0,0.8,0,1.2-0.1
			c0.4-0.1,0.7-0.2,1.2-0.4v1.2c-0.4,0.2-0.7,0.3-1.1,0.4C330.8,269.8,330.3,269.8,329.9,269.8z M329.6,263.7
			c-0.5,0-0.9,0.2-1.1,0.5c-0.3,0.3-0.5,0.7-0.5,1.3h3.2c0-0.6-0.1-1-0.4-1.3C330.4,263.8,330.1,263.7,329.6,263.7z"/>
		<path class="st2" d="M340.5,269.7H339v-4.3c0-0.5-0.1-0.9-0.3-1.2c-0.2-0.3-0.6-0.4-1-0.4c-0.6,0-1.1,0.2-1.4,0.6s-0.4,1-0.4,1.9
			v3.5h-1.5v-7h1.2l0.2,0.9h0.1c0.2-0.3,0.5-0.6,0.9-0.8c0.4-0.2,0.8-0.3,1.3-0.3c1.7,0,2.5,0.9,2.5,2.6v4.5H340.5z"/>
		<path class="st2" d="M347.2,267.7c0,0.7-0.2,1.2-0.7,1.6s-1.2,0.5-2.1,0.5s-1.7-0.1-2.3-0.4v-1.3c0.8,0.4,1.6,0.6,2.3,0.6
			c0.9,0,1.4-0.3,1.4-0.8c0-0.2-0.1-0.3-0.2-0.4s-0.3-0.2-0.5-0.4c-0.2-0.1-0.6-0.3-1-0.4c-0.8-0.3-1.4-0.6-1.6-0.9
			c-0.3-0.3-0.4-0.7-0.4-1.2c0-0.6,0.2-1.1,0.7-1.4s1.1-0.5,2-0.5c0.8,0,1.6,0.2,2.3,0.5l-0.5,1.1c-0.8-0.3-1.4-0.5-1.9-0.5
			c-0.8,0-1.2,0.2-1.2,0.7c0,0.2,0.1,0.4,0.3,0.6c0.2,0.2,0.7,0.4,1.3,0.6c0.6,0.2,1,0.4,1.3,0.6s0.5,0.4,0.6,0.6
			S347.2,267.4,347.2,267.7z"/>
	</g>
</g>
<g>
	<line class="st3" x1="373.7" y1="265" x2="646.8" y2="265"/>
</g>
<g>
	<circle class="st4" cx="108.2" cy="265" r="58.3"/>
	<polygon class="st4" points="204.1,265 185.5,258.2 185.5,271.8 	"/>
	<g>
		<path class="st4" d="M191.7,266.5h-16.1c-0.8,0-1.5-0.7-1.5-1.5s0.7-1.5,1.5-1.5h16.1c0.8,0,1.5,0.7,1.5,1.5
			S192.5,266.5,191.7,266.5z"/>
	</g>
	<g>
		<path class="st2" d="M97.8,257.4c0,1.1-0.4,2-1.2,2.6c-0.8,0.6-1.9,0.9-3.3,0.9s-2.5-0.2-3.4-0.7v-1.9c0.6,0.3,1.2,0.5,1.8,0.6
			c0.6,0.2,1.2,0.2,1.8,0.2c0.8,0,1.4-0.2,1.8-0.5s0.6-0.7,0.6-1.2s-0.2-0.9-0.5-1.2c-0.3-0.3-1.1-0.7-2.2-1.1
			c-1.1-0.5-1.9-1-2.4-1.6s-0.7-1.3-0.7-2.1c0-1,0.4-1.8,1.1-2.4c0.7-0.6,1.7-0.9,3-0.9c1.2,0,2.4,0.3,3.5,0.8l-0.6,1.6
			c-1.1-0.5-2.1-0.7-2.9-0.7c-0.7,0-1.1,0.1-1.5,0.4c-0.3,0.3-0.5,0.7-0.5,1.1c0,0.3,0.1,0.6,0.2,0.8s0.4,0.4,0.7,0.6
			c0.3,0.2,0.9,0.5,1.7,0.8c0.9,0.4,1.6,0.7,2,1.1c0.4,0.3,0.7,0.7,0.9,1.1C97.7,256.4,97.8,256.9,97.8,257.4z"/>
		<path class="st2" d="M99.4,257.5c0-0.7,0.2-1.4,0.5-1.9c0.4-0.5,1-1.1,2-1.6c-0.5-0.6-0.9-1.2-1.1-1.6c-0.2-0.4-0.3-0.9-0.3-1.3
			c0-0.9,0.3-1.5,0.9-2s1.4-0.7,2.5-0.7c1,0,1.8,0.2,2.4,0.7s0.9,1.1,0.9,1.9c0,0.6-0.2,1.2-0.6,1.7s-1,1-1.9,1.6l2.9,2.8
			c0.5-0.6,0.8-1.5,1.1-2.7h2c-0.4,1.6-1,2.9-1.9,3.9l2.5,2.5h-2.6l-1.3-1.2c-0.6,0.5-1.2,0.8-1.8,1c-0.7,0.2-1.4,0.4-2.2,0.4
			c-1.3,0-2.3-0.3-3.1-0.9C99.7,259.4,99.4,258.6,99.4,257.5z M103.6,259.3c1,0,1.9-0.3,2.6-0.9l-3.2-3.2c-0.6,0.4-1,0.7-1.2,1.1
			c-0.2,0.3-0.3,0.7-0.3,1.1c0,0.6,0.2,1,0.6,1.3C102.4,259.1,103,259.3,103.6,259.3z M102.4,251.1c0,0.4,0.1,0.7,0.3,1
			c0.2,0.3,0.5,0.7,0.8,1c0.6-0.4,1.1-0.7,1.3-1c0.3-0.3,0.4-0.7,0.4-1.1c0-0.4-0.1-0.7-0.4-0.9c-0.2-0.2-0.6-0.3-1-0.3
			s-0.8,0.1-1.1,0.3C102.5,250.4,102.4,250.7,102.4,251.1z"/>
		<path class="st2" d="M121.2,252.2c0,1.3-0.4,2.3-1.3,3c-0.8,0.7-2,1-3.6,1H115v4.6h-2v-12.4h3.6c1.5,0,2.7,0.3,3.5,0.9
			C120.8,250,121.2,250.9,121.2,252.2z M115,254.5h1.1c1,0,1.8-0.2,2.3-0.5c0.5-0.4,0.7-0.9,0.7-1.7c0-0.7-0.2-1.2-0.7-1.6
			c-0.4-0.3-1.1-0.5-2-0.5H115V254.5z"/>
		<path class="st2" d="M93.7,273.9c1.2,0,2.2,0.3,3,1c0.7,0.7,1.1,1.6,1.1,2.7c0,1.3-0.4,2.3-1.2,3.1c-0.8,0.7-2,1.1-3.5,1.1
			c-1.4,0-2.5-0.2-3.3-0.7v-1.8c0.5,0.3,1,0.5,1.6,0.6s1.1,0.2,1.6,0.2c0.9,0,1.6-0.2,2-0.6c0.5-0.4,0.7-1,0.7-1.8
			c0-1.5-0.9-2.2-2.8-2.2c-0.3,0-0.6,0-1,0.1s-0.7,0.1-1,0.2l-0.9-0.5l0.5-6h6.4v1.8h-4.7l-0.3,3.1c0.2,0,0.4-0.1,0.7-0.1
			C92.9,273.9,93.3,273.9,93.7,273.9z"/>
		<path class="st2" d="M107.8,275.4c0,2.1-0.3,3.7-1,4.8c-0.7,1-1.7,1.6-3.2,1.6c-1.4,0-2.4-0.5-3.1-1.6s-1.1-2.7-1.1-4.7
			c0-2.2,0.3-3.8,1-4.8s1.7-1.6,3.2-1.6c1.4,0,2.4,0.5,3.1,1.6S107.8,273.3,107.8,275.4z M101.4,275.4c0,1.7,0.2,2.9,0.5,3.6
			s0.9,1.1,1.7,1.1c0.8,0,1.3-0.4,1.7-1.1s0.5-1.9,0.5-3.6s-0.2-2.9-0.5-3.6c-0.4-0.7-0.9-1.1-1.7-1.1c-0.8,0-1.3,0.4-1.7,1.1
			C101.6,272.5,101.4,273.7,101.4,275.4z"/>
		<path class="st2" d="M117.7,275.4c0,2.1-0.3,3.7-1,4.8c-0.7,1-1.7,1.6-3.2,1.6c-1.4,0-2.4-0.5-3.1-1.6s-1.1-2.7-1.1-4.7
			c0-2.2,0.3-3.8,1-4.8s1.7-1.6,3.2-1.6c1.4,0,2.4,0.5,3.1,1.6C117.3,271.7,117.7,273.3,117.7,275.4z M111.3,275.4
			c0,1.7,0.2,2.9,0.5,3.6s0.9,1.1,1.7,1.1c0.8,0,1.3-0.4,1.7-1.1s0.5-1.9,0.5-3.6s-0.2-2.9-0.5-3.6c-0.4-0.7-0.9-1.1-1.7-1.1
			c-0.8,0-1.3,0.4-1.7,1.1C111.4,272.5,111.3,273.7,111.3,275.4z"/>
		<path class="st2" d="M118.9,272.2c0-0.7,0.2-1.3,0.5-1.8c0.3-0.6,0.8-1,1.4-1.4c0.6-0.3,1.2-0.5,1.9-0.5c0.7,0,1.3,0.2,1.8,0.5
			c0.6,0.3,1,0.8,1.4,1.4c0.3,0.6,0.5,1.2,0.5,1.9c0,0.6-0.2,1.3-0.5,1.8c-0.3,0.6-0.8,1-1.3,1.4s-1.2,0.5-1.9,0.5
			c-0.7,0-1.3-0.2-1.9-0.5s-1-0.8-1.3-1.4C119.1,273.5,118.9,272.9,118.9,272.2z M119.5,272.2c0,0.6,0.1,1.1,0.4,1.6
			s0.7,0.9,1.1,1.1c0.5,0.3,1,0.4,1.5,0.4c0.6,0,1.1-0.1,1.6-0.4s0.9-0.7,1.1-1.1c0.3-0.5,0.4-1,0.4-1.5c0-0.6-0.1-1.1-0.4-1.6
			s-0.7-0.9-1.1-1.1c-0.5-0.3-1-0.4-1.5-0.4c-0.6,0-1.1,0.1-1.5,0.4c-0.5,0.3-0.9,0.6-1.1,1.1C119.6,271.1,119.5,271.6,119.5,272.2z
			 M124.1,271.3c0,0.6-0.3,0.9-0.8,1.1l1.2,2h-1l-0.9-1.7h-0.4v1.7h-0.9V270h1.3c0.6,0,1,0.1,1.3,0.3
			C124,270.5,124.1,270.9,124.1,271.3z M122.1,272h0.3c0.2,0,0.4-0.1,0.6-0.2c0.1-0.1,0.2-0.3,0.2-0.5s-0.1-0.4-0.2-0.5
			s-0.3-0.1-0.6-0.1h-0.3V272z"/>
	</g>
</g>
<path class="st5" d="M828.6,238.7H658.8c-14.6,0-26.3,11.8-26.3,26.3l0,0c0,14.6,11.8,26.3,26.3,26.3h169.7
	c14.6,0,26.3-11.8,26.3-26.3l0,0C854.9,250.5,843.1,238.7,828.6,238.7z"/>
<rect x="-5" y="-308.9" class="st0" width="50" height="52.8"/>
<rect x="850" y="-308.9" class="st0" width="50" height="52.8"/>
<g class="st6">
	<path class="st7" d="M658.6,257.3h-1.9l-4.6-7.4h-0.1l0,0.4c0.1,0.8,0.1,1.5,0.1,2.2v4.8h-1.4V248h1.8l4.6,7.4h0
		c0-0.1,0-0.5-0.1-1.1s0-1.1,0-1.4V248h1.4V257.3z"/>
	<path class="st7" d="M664,257.4c-1.1,0-1.9-0.3-2.6-1c-0.6-0.6-0.9-1.5-0.9-2.6c0-1.1,0.3-2,0.9-2.7c0.6-0.7,1.4-1,2.4-1
		c0.9,0,1.7,0.3,2.2,0.8c0.5,0.6,0.8,1.3,0.8,2.3v0.8h-4.7c0,0.7,0.2,1.2,0.6,1.6c0.3,0.4,0.8,0.5,1.5,0.5c0.4,0,0.8,0,1.2-0.1
		s0.7-0.2,1.2-0.4v1.2c-0.4,0.2-0.7,0.3-1.1,0.4C664.9,257.4,664.5,257.4,664,257.4z M663.7,251.3c-0.5,0-0.9,0.2-1.1,0.5
		c-0.3,0.3-0.5,0.7-0.5,1.3h3.2c0-0.6-0.1-1-0.4-1.3C664.6,251.4,664.2,251.3,663.7,251.3z"/>
	<path class="st7" d="M674.2,257.3l-0.9-3.3c-0.1-0.3-0.3-1.2-0.6-2.4h-0.1c-0.2,1.1-0.4,2-0.6,2.4l-0.9,3.3h-1.7l-2-7h1.5l0.9,3.5
		c0.2,0.9,0.3,1.6,0.4,2.2h0c0-0.3,0.1-0.7,0.2-1.1c0.1-0.4,0.2-0.7,0.2-0.9l1.1-3.7h1.6l1,3.7c0.1,0.2,0.1,0.5,0.2,1
		c0.1,0.4,0.2,0.8,0.2,1h0.1c0.1-0.5,0.2-1.2,0.4-2.2l0.9-3.5h1.5l-2,7H674.2z"/>
	<path class="st7" d="M688.3,257.3l-0.9-2.6h-3.5l-0.9,2.6h-1.6l3.5-9.3h1.7l3.5,9.3H688.3z M687,253.4l-0.9-2.5
		c-0.1-0.2-0.2-0.4-0.3-0.8c-0.1-0.4-0.2-0.6-0.2-0.8c-0.1,0.5-0.3,1.1-0.5,1.7l-0.8,2.4H687z"/>
	<path class="st7" d="M696.9,250.3v0.8l-1.2,0.2c0.1,0.1,0.2,0.3,0.3,0.5c0.1,0.2,0.1,0.4,0.1,0.7c0,0.7-0.3,1.3-0.7,1.7
		c-0.5,0.4-1.2,0.6-2.1,0.6c-0.2,0-0.4,0-0.6-0.1c-0.3,0.2-0.5,0.4-0.5,0.7c0,0.2,0.1,0.3,0.2,0.4s0.4,0.1,0.8,0.1h1.2
		c0.8,0,1.4,0.2,1.8,0.5c0.4,0.3,0.6,0.8,0.6,1.4c0,0.8-0.3,1.4-1,1.8c-0.7,0.4-1.6,0.6-2.8,0.6c-1,0-1.7-0.2-2.2-0.5
		c-0.5-0.3-0.8-0.8-0.8-1.4c0-0.4,0.1-0.8,0.4-1.1c0.3-0.3,0.7-0.5,1.1-0.6c-0.2-0.1-0.4-0.2-0.5-0.4c-0.1-0.2-0.2-0.4-0.2-0.6
		c0-0.3,0.1-0.5,0.2-0.7c0.1-0.2,0.4-0.4,0.7-0.5c-0.4-0.2-0.7-0.4-0.9-0.8s-0.3-0.8-0.3-1.2c0-0.8,0.2-1.4,0.7-1.8
		c0.5-0.4,1.2-0.6,2.1-0.6c0.2,0,0.4,0,0.6,0s0.4,0.1,0.5,0.1H696.9z M691.4,258.4c0,0.3,0.1,0.6,0.4,0.7c0.3,0.2,0.7,0.3,1.2,0.3
		c0.8,0,1.4-0.1,1.8-0.3c0.4-0.2,0.6-0.5,0.6-0.9c0-0.3-0.1-0.5-0.3-0.7c-0.2-0.1-0.6-0.2-1.2-0.2h-1.1c-0.4,0-0.8,0.1-1,0.3
		C691.6,257.8,691.4,258,691.4,258.4z M692.1,252.5c0,0.4,0.1,0.8,0.3,1s0.6,0.4,1,0.4c0.9,0,1.3-0.5,1.3-1.4c0-0.5-0.1-0.8-0.3-1.1
		c-0.2-0.2-0.5-0.4-1-0.4c-0.4,0-0.8,0.1-1,0.4C692.2,251.7,692.1,252.1,692.1,252.5z"/>
	<path class="st7" d="M701.3,257.4c-1.1,0-1.9-0.3-2.6-1c-0.6-0.6-0.9-1.5-0.9-2.6c0-1.1,0.3-2,0.9-2.7c0.6-0.7,1.4-1,2.4-1
		c0.9,0,1.7,0.3,2.2,0.8c0.5,0.6,0.8,1.3,0.8,2.3v0.8h-4.7c0,0.7,0.2,1.2,0.6,1.6c0.3,0.4,0.8,0.5,1.5,0.5c0.4,0,0.8,0,1.2-0.1
		s0.7-0.2,1.2-0.4v1.2c-0.4,0.2-0.7,0.3-1.1,0.4C702.2,257.4,701.8,257.4,701.3,257.4z M701,251.3c-0.5,0-0.9,0.2-1.1,0.5
		c-0.3,0.3-0.5,0.7-0.5,1.3h3.2c0-0.6-0.1-1-0.4-1.3C701.9,251.4,701.5,251.3,701,251.3z"/>
	<path class="st7" d="M715,257.3l-0.9-2.6h-3.5l-0.9,2.6H708l3.5-9.3h1.7l3.5,9.3H715z M713.7,253.4l-0.9-2.5
		c-0.1-0.2-0.2-0.4-0.3-0.8s-0.2-0.6-0.2-0.8c-0.1,0.5-0.3,1.1-0.5,1.7l-0.8,2.4H713.7z"/>
	<path class="st7" d="M719.2,257.3h-1.5v-9.9h1.5V257.3z"/>
	<path class="st7" d="M724.9,257.4c-0.9,0-1.6-0.3-2.1-1h-0.1c0.1,0.6,0.1,1,0.1,1.1v2.9h-1.5v-10.1h1.2c0,0.1,0.1,0.4,0.2,0.9h0.1
		c0.5-0.7,1.2-1.1,2.1-1.1c0.9,0,1.6,0.3,2,1c0.5,0.6,0.7,1.5,0.7,2.7c0,1.1-0.2,2-0.7,2.7S725.8,257.4,724.9,257.4z M724.5,251.4
		c-0.6,0-1,0.2-1.3,0.5c-0.3,0.3-0.4,0.9-0.4,1.7v0.2c0,0.9,0.1,1.5,0.4,1.9c0.3,0.4,0.7,0.6,1.3,0.6c0.5,0,0.9-0.2,1.2-0.6
		s0.4-1,0.4-1.8c0-0.8-0.1-1.4-0.4-1.8C725.5,251.6,725.1,251.4,724.5,251.4z"/>
	<path class="st7" d="M735.6,257.3h-1.5V253c0-0.5-0.1-0.9-0.3-1.2c-0.2-0.3-0.6-0.4-1-0.4c-0.6,0-1.1,0.2-1.4,0.6
		c-0.3,0.4-0.4,1-0.4,1.9v3.5h-1.5v-9.9h1.5v2.5c0,0.4,0,0.8-0.1,1.3h0.1c0.2-0.3,0.5-0.6,0.8-0.8c0.4-0.2,0.8-0.3,1.3-0.3
		c1.7,0,2.6,0.9,2.6,2.6V257.3z"/>
	<path class="st7" d="M742.1,257.3l-0.3-1h-0.1c-0.3,0.4-0.7,0.7-1,0.9s-0.8,0.2-1.3,0.2c-0.7,0-1.2-0.2-1.6-0.6
		c-0.4-0.4-0.6-0.9-0.6-1.6c0-0.7,0.3-1.3,0.8-1.6c0.5-0.4,1.4-0.6,2.5-0.6l1.2,0v-0.4c0-0.4-0.1-0.8-0.3-1c-0.2-0.2-0.5-0.3-1-0.3
		c-0.4,0-0.7,0.1-1,0.2c-0.3,0.1-0.6,0.2-1,0.4l-0.5-1.1c0.4-0.2,0.8-0.4,1.3-0.5c0.5-0.1,0.9-0.2,1.3-0.2c0.9,0,1.6,0.2,2,0.6
		c0.5,0.4,0.7,1,0.7,1.8v4.7H742.1z M739.9,256.3c0.5,0,1-0.2,1.3-0.5s0.5-0.7,0.5-1.3v-0.6l-0.9,0c-0.7,0-1.2,0.1-1.5,0.4
		c-0.3,0.2-0.5,0.5-0.5,1c0,0.3,0.1,0.6,0.3,0.7C739.2,256.2,739.5,256.3,739.9,256.3z"/>
	<path class="st7" d="M756,248v6c0,0.7-0.1,1.3-0.4,1.8c-0.3,0.5-0.7,0.9-1.3,1.2c-0.6,0.3-1.2,0.4-2,0.4c-1.2,0-2-0.3-2.7-0.9
		c-0.6-0.6-1-1.4-1-2.5v-6h1.5v5.9c0,0.8,0.2,1.3,0.5,1.7s0.9,0.5,1.6,0.5c1.4,0,2.1-0.8,2.1-2.3V248H756z"/>
	<path class="st7" d="M758,256.5c0-0.3,0.1-0.5,0.2-0.7c0.2-0.2,0.4-0.2,0.7-0.2c0.3,0,0.5,0.1,0.7,0.3c0.2,0.2,0.2,0.4,0.2,0.7
		c0,0.3-0.1,0.5-0.2,0.7s-0.4,0.3-0.7,0.3s-0.5-0.1-0.7-0.3C758.1,257,758,256.8,758,256.5z"/>
	<path class="st7" d="M767.3,254.8c0,0.8-0.3,1.5-0.9,1.9c-0.6,0.5-1.4,0.7-2.5,0.7c-1,0-1.9-0.2-2.6-0.5v-1.4
		c0.4,0.2,0.9,0.4,1.3,0.5c0.5,0.1,0.9,0.2,1.3,0.2c0.6,0,1-0.1,1.3-0.3c0.3-0.2,0.4-0.5,0.4-0.9c0-0.3-0.1-0.6-0.4-0.9
		c-0.3-0.2-0.8-0.5-1.6-0.9c-0.8-0.3-1.4-0.7-1.8-1.2c-0.3-0.4-0.5-1-0.5-1.6c0-0.8,0.3-1.4,0.8-1.8c0.6-0.4,1.3-0.7,2.2-0.7
		c0.9,0,1.8,0.2,2.7,0.6l-0.5,1.2c-0.8-0.3-1.6-0.5-2.2-0.5c-0.5,0-0.9,0.1-1.1,0.3s-0.4,0.5-0.4,0.8c0,0.2,0.1,0.4,0.2,0.6
		c0.1,0.2,0.3,0.3,0.5,0.5c0.2,0.2,0.7,0.4,1.3,0.6c0.7,0.3,1.2,0.5,1.5,0.8s0.6,0.5,0.7,0.8C767.3,254,767.3,254.4,767.3,254.8z"/>
	<path class="st7" d="M768.8,256.5c0-0.3,0.1-0.5,0.2-0.7c0.2-0.2,0.4-0.2,0.7-0.2c0.3,0,0.5,0.1,0.7,0.3c0.2,0.2,0.2,0.4,0.2,0.7
		c0,0.3-0.1,0.5-0.2,0.7c-0.2,0.2-0.4,0.3-0.7,0.3s-0.5-0.1-0.7-0.3C768.8,257,768.8,256.8,768.8,256.5z"/>
	<path class="st7" d="M776.1,257.3V248h1.5v8h3.9v1.3H776.1z"/>
	<path class="st7" d="M787.4,257.3l-0.3-1H787c-0.3,0.4-0.7,0.7-1,0.9s-0.8,0.2-1.3,0.2c-0.7,0-1.2-0.2-1.6-0.6
		c-0.4-0.4-0.6-0.9-0.6-1.6c0-0.7,0.3-1.3,0.8-1.6c0.5-0.4,1.4-0.6,2.5-0.6l1.2,0v-0.4c0-0.4-0.1-0.8-0.3-1c-0.2-0.2-0.5-0.3-1-0.3
		c-0.4,0-0.7,0.1-1,0.2c-0.3,0.1-0.6,0.2-1,0.4l-0.5-1.1c0.4-0.2,0.8-0.4,1.3-0.5c0.5-0.1,0.9-0.2,1.3-0.2c0.9,0,1.6,0.2,2,0.6
		c0.5,0.4,0.7,1,0.7,1.8v4.7H787.4z M785.1,256.3c0.5,0,1-0.2,1.3-0.5s0.5-0.7,0.5-1.3v-0.6l-0.9,0c-0.7,0-1.2,0.1-1.5,0.4
		c-0.3,0.2-0.5,0.5-0.5,1c0,0.3,0.1,0.6,0.3,0.7C784.5,256.2,784.8,256.3,785.1,256.3z"/>
	<path class="st7" d="M794.1,250.1c0.3,0,0.5,0,0.7,0.1l-0.1,1.4c-0.2-0.1-0.4-0.1-0.7-0.1c-0.6,0-1.1,0.2-1.5,0.6
		c-0.4,0.4-0.6,0.9-0.6,1.5v3.7h-1.5v-7h1.2l0.2,1.2h0.1c0.2-0.4,0.5-0.8,0.9-1C793.2,250.3,793.6,250.1,794.1,250.1z"/>
	<path class="st7" d="M802,250.3v0.8l-1.2,0.2c0.1,0.1,0.2,0.3,0.3,0.5c0.1,0.2,0.1,0.4,0.1,0.7c0,0.7-0.2,1.3-0.7,1.7
		c-0.5,0.4-1.2,0.6-2.1,0.6c-0.2,0-0.4,0-0.6-0.1c-0.3,0.2-0.5,0.4-0.5,0.7c0,0.2,0.1,0.3,0.2,0.4c0.1,0.1,0.4,0.1,0.8,0.1h1.2
		c0.8,0,1.4,0.2,1.8,0.5c0.4,0.3,0.6,0.8,0.6,1.4c0,0.8-0.3,1.4-1,1.8c-0.7,0.4-1.6,0.6-2.8,0.6c-1,0-1.7-0.2-2.2-0.5
		c-0.5-0.3-0.8-0.8-0.8-1.4c0-0.4,0.1-0.8,0.4-1.1c0.3-0.3,0.7-0.5,1.1-0.6c-0.2-0.1-0.4-0.2-0.5-0.4s-0.2-0.4-0.2-0.6
		c0-0.3,0.1-0.5,0.2-0.7c0.1-0.2,0.4-0.4,0.7-0.5c-0.4-0.2-0.7-0.4-0.9-0.8c-0.2-0.4-0.3-0.8-0.3-1.2c0-0.8,0.2-1.4,0.7-1.8
		c0.5-0.4,1.2-0.6,2.1-0.6c0.2,0,0.4,0,0.6,0c0.2,0,0.4,0.1,0.5,0.1H802z M796.5,258.4c0,0.3,0.1,0.6,0.4,0.7
		c0.3,0.2,0.7,0.3,1.2,0.3c0.8,0,1.4-0.1,1.8-0.3c0.4-0.2,0.6-0.5,0.6-0.9c0-0.3-0.1-0.5-0.3-0.7s-0.6-0.2-1.2-0.2h-1.1
		c-0.4,0-0.8,0.1-1,0.3S796.5,258,796.5,258.4z M797.2,252.5c0,0.4,0.1,0.8,0.3,1c0.2,0.2,0.6,0.4,1,0.4c0.9,0,1.3-0.5,1.3-1.4
		c0-0.5-0.1-0.8-0.3-1.1c-0.2-0.2-0.5-0.4-1-0.4c-0.4,0-0.8,0.1-1,0.4C797.3,251.7,797.2,252.1,797.2,252.5z"/>
	<path class="st7" d="M806.4,257.4c-1.1,0-1.9-0.3-2.6-1c-0.6-0.6-0.9-1.5-0.9-2.6c0-1.1,0.3-2,0.9-2.7c0.6-0.7,1.4-1,2.4-1
		c0.9,0,1.7,0.3,2.2,0.8c0.5,0.6,0.8,1.3,0.8,2.3v0.8h-4.7c0,0.7,0.2,1.2,0.6,1.6c0.3,0.4,0.8,0.5,1.5,0.5c0.4,0,0.8,0,1.2-0.1
		c0.4-0.1,0.7-0.2,1.2-0.4v1.2c-0.4,0.2-0.7,0.3-1.1,0.4C807.3,257.4,806.9,257.4,806.4,257.4z M806.1,251.3c-0.5,0-0.9,0.2-1.1,0.5
		c-0.3,0.3-0.5,0.7-0.5,1.3h3.2c0-0.6-0.1-1-0.4-1.3C807,251.4,806.6,251.3,806.1,251.3z"/>
	<path class="st7" d="M810.2,254.4v-1.3h3.3v1.3H810.2z"/>
	<path class="st7" d="M819.1,249.2c-0.9,0-1.6,0.3-2.1,0.9c-0.5,0.6-0.7,1.5-0.7,2.6c0,1.1,0.2,2,0.7,2.6s1.2,0.9,2.1,0.9
		c0.4,0,0.8,0,1.1-0.1s0.8-0.2,1.1-0.3v1.3c-0.7,0.3-1.6,0.4-2.5,0.4c-1.4,0-2.4-0.4-3.1-1.2c-0.7-0.8-1.1-2-1.1-3.5
		c0-1,0.2-1.8,0.5-2.5s0.9-1.3,1.5-1.7c0.7-0.4,1.5-0.6,2.4-0.6c0.9,0,1.8,0.2,2.6,0.6l-0.5,1.3c-0.3-0.1-0.6-0.3-1-0.4
		C819.9,249.2,819.5,249.2,819.1,249.2z"/>
	<path class="st7" d="M827.7,257.3l-0.3-1h-0.1c-0.3,0.4-0.7,0.7-1,0.9s-0.8,0.2-1.3,0.2c-0.7,0-1.2-0.2-1.6-0.6
		c-0.4-0.4-0.6-0.9-0.6-1.6c0-0.7,0.3-1.3,0.8-1.6c0.5-0.4,1.4-0.6,2.5-0.6l1.2,0v-0.4c0-0.4-0.1-0.8-0.3-1c-0.2-0.2-0.5-0.3-1-0.3
		c-0.4,0-0.7,0.1-1,0.2c-0.3,0.1-0.6,0.2-1,0.4l-0.5-1.1c0.4-0.2,0.8-0.4,1.3-0.5c0.5-0.1,0.9-0.2,1.3-0.2c0.9,0,1.6,0.2,2,0.6
		s0.7,1,0.7,1.8v4.7H827.7z M825.4,256.3c0.5,0,1-0.2,1.3-0.5c0.3-0.3,0.5-0.7,0.5-1.3v-0.6l-0.9,0c-0.7,0-1.2,0.1-1.5,0.4
		c-0.3,0.2-0.5,0.5-0.5,1c0,0.3,0.1,0.6,0.3,0.7C824.8,256.2,825.1,256.3,825.4,256.3z"/>
	<path class="st7" d="M834.4,257.4c-0.9,0-1.6-0.3-2.1-1h-0.1c0.1,0.6,0.1,1,0.1,1.1v2.9h-1.5v-10.1h1.2c0,0.1,0.1,0.4,0.2,0.9h0.1
		c0.5-0.7,1.2-1.1,2.1-1.1c0.9,0,1.6,0.3,2,1c0.5,0.6,0.7,1.5,0.7,2.7c0,1.1-0.2,2-0.7,2.7C835.9,257.1,835.2,257.4,834.4,257.4z
		 M834,251.4c-0.6,0-1,0.2-1.3,0.5c-0.3,0.3-0.4,0.9-0.4,1.7v0.2c0,0.9,0.1,1.5,0.4,1.9c0.3,0.4,0.7,0.6,1.3,0.6
		c0.5,0,0.9-0.2,1.2-0.6s0.4-1,0.4-1.8c0-0.8-0.1-1.4-0.4-1.8S834.5,251.4,834,251.4z"/>
	<path class="st7" d="M690.4,278.9v-9.3h1.5v8h3.9v1.3H690.4z"/>
	<path class="st7" d="M700.3,279c-1.1,0-1.9-0.3-2.6-1c-0.6-0.6-0.9-1.5-0.9-2.6c0-1.1,0.3-2,0.9-2.7c0.6-0.7,1.4-1,2.4-1
		c0.9,0,1.7,0.3,2.2,0.8c0.5,0.6,0.8,1.3,0.8,2.3v0.8h-4.7c0,0.7,0.2,1.2,0.6,1.6c0.3,0.4,0.8,0.5,1.5,0.5c0.4,0,0.8,0,1.2-0.1
		s0.7-0.2,1.2-0.4v1.2c-0.4,0.2-0.7,0.3-1.1,0.4C701.2,279,700.8,279,700.3,279z M700.1,272.9c-0.5,0-0.9,0.2-1.1,0.5
		c-0.3,0.3-0.5,0.7-0.5,1.3h3.2c0-0.6-0.1-1-0.4-1.3C700.9,273,700.5,272.9,700.1,272.9z"/>
	<path class="st7" d="M709.1,278.9l-0.3-1h-0.1c-0.3,0.4-0.7,0.7-1,0.9s-0.8,0.2-1.3,0.2c-0.7,0-1.2-0.2-1.6-0.6
		c-0.4-0.4-0.6-0.9-0.6-1.6c0-0.7,0.3-1.3,0.8-1.6c0.5-0.4,1.4-0.6,2.5-0.6l1.2,0v-0.4c0-0.4-0.1-0.8-0.3-1c-0.2-0.2-0.5-0.3-1-0.3
		c-0.4,0-0.7,0.1-1,0.2c-0.3,0.1-0.6,0.2-1,0.4l-0.5-1.1c0.4-0.2,0.8-0.4,1.3-0.5c0.5-0.1,0.9-0.2,1.3-0.2c0.9,0,1.6,0.2,2,0.6
		s0.7,1,0.7,1.8v4.7H709.1z M706.9,277.9c0.5,0,1-0.2,1.3-0.5c0.3-0.3,0.5-0.7,0.5-1.3v-0.6l-0.9,0c-0.7,0-1.2,0.1-1.5,0.4
		c-0.3,0.2-0.5,0.5-0.5,1c0,0.3,0.1,0.6,0.3,0.7C706.3,277.8,706.5,277.9,706.9,277.9z"/>
	<path class="st7" d="M714.7,279c-0.9,0-1.6-0.3-2-1c-0.5-0.6-0.7-1.5-0.7-2.7c0-1.2,0.2-2,0.7-2.7c0.5-0.6,1.2-1,2.1-1
		c0.9,0,1.6,0.3,2.1,1h0.1c-0.1-0.5-0.1-0.9-0.1-1.2V269h1.5v9.9h-1.2l-0.3-0.9h-0.1C716.3,278.7,715.6,279,714.7,279z M715.1,277.8
		c0.6,0,1.1-0.2,1.3-0.5s0.4-0.9,0.4-1.7v-0.2c0-0.9-0.1-1.5-0.4-1.9c-0.3-0.4-0.7-0.6-1.4-0.6c-0.5,0-0.9,0.2-1.2,0.6
		c-0.3,0.4-0.4,1-0.4,1.8c0,0.8,0.1,1.4,0.4,1.8C714.1,277.6,714.5,277.8,715.1,277.8z"/>
	<path class="st7" d="M720.3,270c0-0.3,0.1-0.5,0.2-0.6c0.1-0.1,0.4-0.2,0.6-0.2c0.3,0,0.5,0.1,0.6,0.2c0.1,0.1,0.2,0.3,0.2,0.6
		c0,0.3-0.1,0.5-0.2,0.6c-0.1,0.1-0.4,0.2-0.6,0.2c-0.3,0-0.5-0.1-0.6-0.2C720.4,270.5,720.3,270.3,720.3,270z M721.9,278.9h-1.5v-7
		h1.5V278.9z"/>
	<path class="st7" d="M730.2,278.9h-1.5v-4.3c0-0.5-0.1-0.9-0.3-1.2c-0.2-0.3-0.6-0.4-1-0.4c-0.6,0-1.1,0.2-1.4,0.6s-0.4,1-0.4,1.9
		v3.5H724v-7h1.2l0.2,0.9h0.1c0.2-0.3,0.5-0.6,0.9-0.8c0.4-0.2,0.8-0.3,1.3-0.3c1.7,0,2.5,0.9,2.5,2.6V278.9z"/>
	<path class="st7" d="M738.2,271.9v0.8l-1.2,0.2c0.1,0.1,0.2,0.3,0.3,0.5c0.1,0.2,0.1,0.4,0.1,0.7c0,0.7-0.3,1.3-0.7,1.7
		c-0.5,0.4-1.2,0.6-2.1,0.6c-0.2,0-0.4,0-0.6-0.1c-0.3,0.2-0.5,0.4-0.5,0.7c0,0.2,0.1,0.3,0.2,0.4s0.4,0.1,0.8,0.1h1.2
		c0.8,0,1.4,0.2,1.8,0.5c0.4,0.3,0.6,0.8,0.6,1.4c0,0.8-0.3,1.4-1,1.8c-0.7,0.4-1.6,0.6-2.8,0.6c-1,0-1.7-0.2-2.2-0.5
		c-0.5-0.3-0.8-0.8-0.8-1.4c0-0.4,0.1-0.8,0.4-1.1c0.3-0.3,0.7-0.5,1.1-0.6c-0.2-0.1-0.4-0.2-0.5-0.4c-0.1-0.2-0.2-0.4-0.2-0.6
		c0-0.3,0.1-0.5,0.2-0.7c0.1-0.2,0.4-0.4,0.7-0.5c-0.4-0.2-0.7-0.4-0.9-0.8s-0.3-0.8-0.3-1.2c0-0.8,0.2-1.4,0.7-1.8
		c0.5-0.4,1.2-0.6,2.1-0.6c0.2,0,0.4,0,0.6,0s0.4,0.1,0.5,0.1H738.2z M732.7,280c0,0.3,0.1,0.6,0.4,0.7c0.3,0.2,0.7,0.3,1.2,0.3
		c0.8,0,1.4-0.1,1.8-0.3c0.4-0.2,0.6-0.5,0.6-0.9c0-0.3-0.1-0.5-0.3-0.7c-0.2-0.1-0.6-0.2-1.2-0.2h-1.1c-0.4,0-0.8,0.1-1,0.3
		C732.8,279.4,732.7,279.6,732.7,280z M733.3,274.1c0,0.4,0.1,0.8,0.3,1s0.6,0.4,1,0.4c0.9,0,1.3-0.5,1.3-1.4c0-0.5-0.1-0.8-0.3-1.1
		c-0.2-0.2-0.5-0.4-1-0.4c-0.4,0-0.8,0.1-1,0.4C733.4,273.3,733.3,273.7,733.3,274.1z"/>
	<path class="st7" d="M745.5,273.1c0.9,0,1.7,0.2,2.2,0.7s0.8,1.2,0.8,2c0,1-0.3,1.8-0.9,2.3s-1.5,0.8-2.6,0.8c-1,0-1.9-0.2-2.4-0.5
		v-1.4c0.3,0.2,0.7,0.3,1.2,0.5c0.4,0.1,0.9,0.2,1.2,0.2c0.7,0,1.2-0.2,1.5-0.5c0.4-0.3,0.5-0.7,0.5-1.3c0-1.1-0.7-1.7-2.1-1.7
		c-0.2,0-0.4,0-0.7,0.1s-0.5,0.1-0.8,0.1l-0.7-0.4l0.4-4.5h4.8v1.3h-3.5l-0.2,2.3c0.1,0,0.3-0.1,0.5-0.1
		C745,273.1,745.2,273.1,745.5,273.1z"/>
	<path class="st7" d="M756.1,274.3c0,1.6-0.3,2.8-0.8,3.6c-0.5,0.8-1.3,1.2-2.4,1.2c-1,0-1.8-0.4-2.3-1.2c-0.5-0.8-0.8-2-0.8-3.6
		c0-1.6,0.3-2.8,0.8-3.6c0.5-0.8,1.3-1.2,2.4-1.2c1,0,1.8,0.4,2.4,1.2S756.1,272.7,756.1,274.3z M751.3,274.3c0,1.3,0.1,2.2,0.4,2.7
		c0.3,0.5,0.7,0.8,1.2,0.8s1-0.3,1.3-0.8s0.4-1.4,0.4-2.7c0-1.2-0.1-2.1-0.4-2.7s-0.7-0.8-1.3-0.8s-1,0.3-1.2,0.8
		C751.4,272.1,751.3,273,751.3,274.3z"/>
	<path class="st7" d="M761.3,278.9v-9.3h1.5v9.3H761.3z"/>
	<path class="st7" d="M771.2,278.9h-1.5v-4.3c0-0.5-0.1-0.9-0.3-1.2c-0.2-0.3-0.6-0.4-1-0.4c-0.6,0-1.1,0.2-1.4,0.6s-0.4,1-0.4,1.9
		v3.5h-1.5v-7h1.2l0.2,0.9h0.1c0.2-0.3,0.5-0.6,0.9-0.8c0.4-0.2,0.8-0.3,1.3-0.3c1.7,0,2.5,0.9,2.5,2.6V278.9z"/>
	<path class="st7" d="M775.7,279c-0.9,0-1.6-0.3-2.1-1c-0.5-0.6-0.7-1.5-0.7-2.7c0-1.2,0.2-2,0.7-2.7c0.5-0.6,1.2-1,2.1-1
		c0.9,0,1.6,0.3,2.1,1h0.1c-0.1-0.5-0.1-0.9-0.1-1.2V269h1.5v9.9h-1.2l-0.3-0.9h-0.1C777.3,278.7,776.6,279,775.7,279z M776.1,277.8
		c0.6,0,1.1-0.2,1.3-0.5s0.4-0.9,0.4-1.7v-0.2c0-0.9-0.1-1.5-0.4-1.9c-0.3-0.4-0.7-0.6-1.4-0.6c-0.5,0-0.9,0.2-1.2,0.6
		c-0.3,0.4-0.4,1-0.4,1.8c0,0.8,0.1,1.4,0.4,1.8C775.1,277.6,775.5,277.8,776.1,277.8z"/>
	<path class="st7" d="M784.5,279c-1.1,0-1.9-0.3-2.6-1c-0.6-0.6-0.9-1.5-0.9-2.6c0-1.1,0.3-2,0.9-2.7c0.6-0.7,1.4-1,2.4-1
		c0.9,0,1.7,0.3,2.2,0.8c0.5,0.6,0.8,1.3,0.8,2.3v0.8h-4.7c0,0.7,0.2,1.2,0.6,1.6c0.3,0.4,0.8,0.5,1.5,0.5c0.4,0,0.8,0,1.2-0.1
		c0.4-0.1,0.7-0.2,1.2-0.4v1.2c-0.4,0.2-0.7,0.3-1.1,0.4C785.4,279,785,279,784.5,279z M784.2,272.9c-0.5,0-0.9,0.2-1.1,0.5
		c-0.3,0.3-0.5,0.7-0.5,1.3h3.2c0-0.6-0.1-1-0.4-1.3C785.1,273,784.7,272.9,784.2,272.9z"/>
	<path class="st7" d="M790.5,275.3l-2.4-3.4h1.7l1.6,2.5l1.6-2.5h1.7l-2.4,3.4l2.5,3.6h-1.7l-1.7-2.6l-1.7,2.6H788L790.5,275.3z"/>
</g>
</svg>
