<?xml version="1.0" encoding="utf-8"?>
<!-- Generator: Adobe Illustrator 24.2.0, SVG Export Plug-In . SVG Version: 6.00 Build 0)  -->
<svg version="1.1" id="Layer_1" xmlns="http://www.w3.org/2000/svg" xmlns:xlink="http://www.w3.org/1999/xlink" x="0px" y="0px"
	 viewBox="0 0 905 530" style="enable-background:new 0 0 905 530;" xml:space="preserve">
<style type="text/css">
	.st0{fill:none;}
	.st1{enable-background:new    ;}
	.st2{fill:#054BA4;}
	.st3{fill:url(#SVGID_1_);}
	.st4{fill:#FFFFFF;}
	.st5{fill:none;stroke:#00B9EE;stroke-width:1.443;stroke-linecap:round;stroke-linejoin:round;stroke-miterlimit:10;}
	.st6{fill:#284D95;}
	.st7{fill:#D1D8DD;}
</style>
<g>
	<rect x="374.9" y="224.4" class="st0" width="246.8" height="33.4"/>
	<g class="st1">
		<path class="st2" d="M407,230c0,0.7-0.2,1.2-0.7,1.6c-0.5,0.4-1.1,0.6-2,0.6c-0.8,0-1.5-0.1-2.1-0.4v-1.2c0.3,0.2,0.7,0.3,1.1,0.4
			c0.4,0.1,0.7,0.1,1.1,0.1c0.5,0,0.8-0.1,1.1-0.3c0.2-0.2,0.3-0.4,0.3-0.7s-0.1-0.5-0.3-0.7c-0.2-0.2-0.6-0.4-1.3-0.7
			c-0.7-0.3-1.2-0.6-1.4-1c-0.3-0.4-0.4-0.8-0.4-1.3c0-0.6,0.2-1.1,0.7-1.5c0.4-0.4,1-0.5,1.8-0.5c0.7,0,1.4,0.2,2.1,0.5l-0.4,1
			c-0.7-0.3-1.3-0.4-1.8-0.4c-0.4,0-0.7,0.1-0.9,0.3c-0.2,0.2-0.3,0.4-0.3,0.7c0,0.2,0,0.4,0.1,0.5s0.2,0.3,0.4,0.4
			c0.2,0.1,0.5,0.3,1,0.5s1,0.4,1.2,0.6c0.3,0.2,0.4,0.4,0.6,0.7C407,229.4,407,229.7,407,230z"/>
		<path class="st2" d="M410.8,232.2c-0.9,0-1.6-0.3-2.1-0.8s-0.7-1.2-0.7-2.1c0-0.9,0.2-1.7,0.7-2.2s1.1-0.8,1.9-0.8
			c0.7,0,1.3,0.2,1.8,0.7c0.4,0.5,0.6,1.1,0.6,1.9v0.7h-3.8c0,0.6,0.2,1,0.4,1.3c0.3,0.3,0.7,0.4,1.2,0.4c0.3,0,0.6,0,0.9-0.1
			s0.6-0.2,0.9-0.3v1c-0.3,0.1-0.6,0.2-0.9,0.3C411.6,232.2,411.2,232.2,410.8,232.2z M410.6,227.2c-0.4,0-0.7,0.1-0.9,0.4
			c-0.2,0.2-0.4,0.6-0.4,1.1h2.6c0-0.5-0.1-0.8-0.3-1.1C411.3,227.3,411,227.2,410.6,227.2z"/>
		<path class="st2" d="M415.6,232.1h-1.2v-8h1.2V232.1z"/>
		<path class="st2" d="M419.8,232.2c-0.9,0-1.6-0.3-2.1-0.8s-0.7-1.2-0.7-2.1c0-0.9,0.2-1.7,0.7-2.2s1.1-0.8,1.9-0.8
			c0.7,0,1.3,0.2,1.8,0.7c0.4,0.5,0.6,1.1,0.6,1.9v0.7h-3.8c0,0.6,0.2,1,0.4,1.3c0.3,0.3,0.7,0.4,1.2,0.4c0.3,0,0.6,0,0.9-0.1
			s0.6-0.2,0.9-0.3v1c-0.3,0.1-0.6,0.2-0.9,0.3C420.5,232.2,420.2,232.2,419.8,232.2z M419.6,227.2c-0.4,0-0.7,0.1-0.9,0.4
			c-0.2,0.2-0.4,0.6-0.4,1.1h2.6c0-0.5-0.1-0.8-0.3-1.1C420.2,227.3,419.9,227.2,419.6,227.2z"/>
		<path class="st2" d="M425.6,232.2c-0.9,0-1.5-0.3-1.9-0.8s-0.7-1.2-0.7-2.2s0.2-1.7,0.7-2.2s1.1-0.8,2-0.8c0.6,0,1.1,0.1,1.6,0.3
			l-0.4,1c-0.5-0.2-0.9-0.3-1.3-0.3c-1,0-1.5,0.7-1.5,2c0,0.6,0.1,1.1,0.4,1.4c0.2,0.3,0.6,0.5,1.1,0.5s1-0.1,1.5-0.4v1.1
			c-0.2,0.1-0.4,0.2-0.7,0.3C426.3,232.2,426,232.2,425.6,232.2z"/>
		<path class="st2" d="M430.6,231.2c0.3,0,0.6,0,0.9-0.1v0.9c-0.1,0.1-0.3,0.1-0.5,0.1s-0.4,0.1-0.7,0.1c-1.1,0-1.7-0.6-1.7-1.8
			v-3.1h-0.8v-0.5l0.8-0.4l0.4-1.2h0.7v1.3h1.6v0.9h-1.6v3.1c0,0.3,0.1,0.5,0.2,0.6C430.2,231.2,430.4,231.2,430.6,231.2z"/>
		<path class="st2" d="M438.5,232.1h-1.2v-4.9c0-0.6,0-1,0-1.4c-0.1,0.1-0.2,0.2-0.3,0.3c-0.1,0.1-0.5,0.4-1.1,0.9l-0.6-0.8l2.2-1.7
			h1V232.1z"/>
		<path class="st2" d="M446,228.3c0,1.3-0.2,2.3-0.6,2.9c-0.4,0.6-1.1,1-1.9,1s-1.5-0.3-1.9-1s-0.6-1.6-0.6-2.9
			c0-1.3,0.2-2.3,0.6-2.9c0.4-0.6,1.1-0.9,1.9-0.9s1.5,0.3,1.9,1C445.8,226.1,446,227.1,446,228.3z M442.1,228.3
			c0,1,0.1,1.8,0.3,2.2c0.2,0.4,0.5,0.7,1,0.7s0.8-0.2,1-0.7s0.3-1.2,0.3-2.2s-0.1-1.7-0.3-2.2c-0.2-0.5-0.5-0.7-1-0.7
			s-0.8,0.2-1,0.7C442.2,226.6,442.1,227.3,442.1,228.3z"/>
		<path class="st2" d="M452,228.3c0,1.3-0.2,2.3-0.6,2.9c-0.4,0.6-1.1,1-1.9,1s-1.5-0.3-1.9-1s-0.6-1.6-0.6-2.9
			c0-1.3,0.2-2.3,0.6-2.9c0.4-0.6,1.1-0.9,1.9-0.9s1.5,0.3,1.9,1C451.8,226.1,452,227.1,452,228.3z M448.1,228.3
			c0,1,0.1,1.8,0.3,2.2c0.2,0.4,0.5,0.7,1,0.7s0.8-0.2,1-0.7s0.3-1.2,0.3-2.2s-0.1-1.7-0.3-2.2c-0.2-0.5-0.5-0.7-1-0.7
			s-0.8,0.2-1,0.7C448.2,226.6,448.1,227.3,448.1,228.3z"/>
		<path class="st2" d="M455.6,229.2c0-0.9,0.1-1.8,0.4-2.6s0.6-1.5,1.1-2.1h1c-0.5,0.6-0.8,1.4-1.1,2.2c-0.3,0.8-0.4,1.6-0.4,2.5
			c0,0.8,0.1,1.7,0.4,2.4c0.3,0.8,0.6,1.5,1.1,2.1h-1c-0.5-0.6-0.9-1.3-1.1-2C455.7,230.9,455.6,230.1,455.6,229.2z"/>
		<path class="st2" d="M464.3,229.2c0,0.9-0.2,1.7-0.7,2.2s-1.1,0.8-2,0.8c-0.5,0-1-0.1-1.4-0.4c-0.4-0.2-0.7-0.6-0.9-1
			c-0.2-0.5-0.3-1-0.3-1.6c0-0.9,0.2-1.6,0.7-2.2c0.5-0.5,1.1-0.8,2-0.8c0.8,0,1.5,0.3,1.9,0.8C464.1,227.6,464.3,228.3,464.3,229.2
			z M460.2,229.2c0,1.3,0.5,2,1.4,2c1,0,1.4-0.7,1.4-2s-0.5-2-1.4-2c-0.5,0-0.9,0.2-1.1,0.5S460.2,228.6,460.2,229.2z"/>
		<path class="st2" d="M468.6,226.3c0.2,0,0.4,0,0.6,0.1l-0.1,1.1c-0.2,0-0.3-0.1-0.5-0.1c-0.5,0-0.9,0.2-1.2,0.5
			c-0.3,0.3-0.4,0.7-0.4,1.2v3h-1.2v-5.7h0.9l0.2,1h0.1c0.2-0.3,0.4-0.6,0.7-0.8C467.9,226.4,468.2,226.3,468.6,226.3z"/>
		<path class="st2" d="M477.6,232.1h-5.1v-0.9l1.9-2c0.6-0.6,0.9-1,1.1-1.3c0.2-0.2,0.3-0.5,0.4-0.7s0.1-0.4,0.1-0.7
			s-0.1-0.6-0.3-0.8c-0.2-0.2-0.5-0.3-0.8-0.3s-0.6,0.1-0.8,0.2c-0.3,0.1-0.6,0.3-0.9,0.6l-0.6-0.8c0.4-0.4,0.8-0.6,1.2-0.8
			c0.4-0.1,0.8-0.2,1.3-0.2c0.7,0,1.3,0.2,1.7,0.6c0.4,0.4,0.6,0.9,0.6,1.5c0,0.3-0.1,0.7-0.2,1s-0.3,0.6-0.6,0.9
			c-0.3,0.3-0.7,0.8-1.2,1.3l-1.3,1.3v0.1h3.5L477.6,232.1L477.6,232.1z"/>
		<path class="st2" d="M483.6,228.3c0,1.3-0.2,2.3-0.6,2.9c-0.4,0.6-1.1,1-1.9,1s-1.5-0.3-1.9-1s-0.6-1.6-0.6-2.9
			c0-1.3,0.2-2.3,0.6-2.9c0.4-0.6,1.1-0.9,1.9-0.9s1.5,0.3,1.9,1S483.6,227.1,483.6,228.3z M479.7,228.3c0,1,0.1,1.8,0.3,2.2
			c0.2,0.4,0.5,0.7,1,0.7s0.8-0.2,1-0.7s0.3-1.2,0.3-2.2s-0.1-1.7-0.3-2.2c-0.2-0.5-0.5-0.7-1-0.7s-0.8,0.2-1,0.7
			S479.7,227.3,479.7,228.3z"/>
		<path class="st2" d="M487.8,226.8c0,0.8-0.1,1.4-0.4,1.8c-0.3,0.4-0.7,0.6-1.2,0.6s-0.9-0.2-1.2-0.6c-0.3-0.4-0.4-1-0.4-1.8
			c0-1.6,0.5-2.4,1.6-2.4c0.5,0,0.9,0.2,1.2,0.6C487.6,225.5,487.8,226,487.8,226.8z M485.5,226.8c0,0.5,0,0.9,0.1,1.1
			c0.1,0.3,0.3,0.4,0.5,0.4c0.4,0,0.7-0.5,0.7-1.5s-0.2-1.5-0.7-1.5c-0.2,0-0.4,0.1-0.5,0.4C485.5,225.9,485.5,226.3,485.5,226.8z
			 M491.1,224.6l-4.1,7.5h-1l4.1-7.5H491.1z M492.6,229.8c0,0.8-0.1,1.4-0.4,1.8c-0.3,0.4-0.7,0.6-1.2,0.6s-0.9-0.2-1.2-0.6
			c-0.3-0.4-0.4-1-0.4-1.8c0-1.6,0.5-2.4,1.6-2.4c0.5,0,0.9,0.2,1.2,0.6C492.5,228.5,492.6,229.1,492.6,229.8z M490.3,229.8
			c0,0.5,0.1,0.9,0.2,1.2s0.3,0.4,0.5,0.4c0.4,0,0.7-0.5,0.7-1.5s-0.2-1.5-0.7-1.5c-0.2,0-0.4,0.1-0.5,0.4
			C490.4,228.9,490.3,229.3,490.3,229.8z"/>
		<path class="st2" d="M496,229.2c0,0.9-0.1,1.7-0.4,2.5s-0.6,1.5-1.1,2h-1c0.5-0.6,0.8-1.4,1.1-2.1c0.3-0.8,0.4-1.6,0.4-2.4
			c0-0.8-0.1-1.7-0.4-2.5s-0.6-1.5-1.1-2.2h1c0.5,0.6,0.9,1.3,1.1,2.1C495.8,227.4,496,228.3,496,229.2z"/>
		<path class="st2" d="M503.7,230.5c0,0.6-0.2,1-0.6,1.3s-1,0.4-1.7,0.4c-0.8,0-1.4-0.1-1.8-0.3v-1c0.7,0.3,1.3,0.5,1.9,0.5
			c0.7,0,1.1-0.2,1.1-0.7c0-0.1,0-0.3-0.1-0.4c-0.1-0.1-0.2-0.2-0.4-0.3c-0.2-0.1-0.4-0.2-0.8-0.4c-0.7-0.3-1.1-0.5-1.3-0.8
			c-0.2-0.3-0.3-0.6-0.3-1c0-0.5,0.2-0.9,0.6-1.1c0.4-0.3,0.9-0.4,1.6-0.4s1.3,0.1,1.9,0.4l-0.4,0.9c-0.6-0.3-1.1-0.4-1.5-0.4
			c-0.6,0-1,0.2-1,0.5c0,0.2,0.1,0.3,0.2,0.5c0.2,0.1,0.5,0.3,1.1,0.5c0.5,0.2,0.8,0.3,1,0.5s0.4,0.3,0.5,0.5
			C503.7,230,503.7,230.2,503.7,230.5z"/>
		<path class="st2" d="M507.1,231.2c0.3,0,0.6,0,0.9-0.1v0.9c-0.1,0.1-0.3,0.1-0.5,0.1s-0.4,0.1-0.7,0.1c-1.1,0-1.7-0.6-1.7-1.8
			v-3.1h-0.8v-0.5l0.8-0.4l0.4-1.2h0.7v1.3h1.6v0.9h-1.6v3.1c0,0.3,0.1,0.5,0.2,0.6C506.7,231.2,506.9,231.2,507.1,231.2z"/>
		<path class="st2" d="M514.2,229.2c0,0.9-0.2,1.7-0.7,2.2s-1.1,0.8-2,0.8c-0.5,0-1-0.1-1.4-0.4c-0.4-0.2-0.7-0.6-0.9-1
			c-0.2-0.5-0.3-1-0.3-1.6c0-0.9,0.2-1.6,0.7-2.2c0.5-0.5,1.1-0.8,2-0.8c0.8,0,1.5,0.3,1.9,0.8C513.9,227.6,514.2,228.3,514.2,229.2
			z M510.1,229.2c0,1.3,0.5,2,1.4,2c1,0,1.4-0.7,1.4-2s-0.5-2-1.4-2c-0.5,0-0.9,0.2-1.1,0.5S510.1,228.6,510.1,229.2z"/>
		<path class="st2" d="M517.8,232.2c-0.9,0-1.5-0.3-1.9-0.8s-0.7-1.2-0.7-2.2s0.2-1.7,0.7-2.2s1.1-0.8,2-0.8c0.6,0,1.1,0.1,1.6,0.3
			l-0.4,1c-0.5-0.2-0.9-0.3-1.3-0.3c-1,0-1.5,0.7-1.5,2c0,0.6,0.1,1.1,0.4,1.4c0.2,0.3,0.6,0.5,1.1,0.5s1-0.1,1.5-0.4v1.1
			c-0.2,0.1-0.4,0.2-0.7,0.3C518.5,232.2,518.2,232.2,517.8,232.2z"/>
		<path class="st2" d="M521.9,229.1l0.7-0.9l1.7-1.8h1.4l-2.3,2.5l2.4,3.3h-1.4l-1.8-2.5l-0.7,0.5v2h-1.2v-8h1.2v3.9L521.9,229.1
			L521.9,229.1z"/>
		<path class="st2" d="M530.5,230.5c0,0.6-0.2,1-0.6,1.3c-0.4,0.3-1,0.4-1.7,0.4c-0.8,0-1.4-0.1-1.8-0.3v-1c0.7,0.3,1.3,0.5,1.9,0.5
			c0.7,0,1.1-0.2,1.1-0.7c0-0.1,0-0.3-0.1-0.4c-0.1-0.1-0.2-0.2-0.4-0.3s-0.4-0.2-0.8-0.4c-0.7-0.3-1.1-0.5-1.3-0.8s-0.3-0.6-0.3-1
			c0-0.5,0.2-0.9,0.6-1.1c0.4-0.3,0.9-0.4,1.6-0.4c0.7,0,1.3,0.1,1.9,0.4l-0.4,0.9c-0.6-0.3-1.1-0.4-1.5-0.4c-0.6,0-1,0.2-1,0.5
			c0,0.2,0.1,0.3,0.2,0.5c0.2,0.1,0.5,0.3,1.1,0.5c0.5,0.2,0.8,0.3,1,0.5s0.4,0.3,0.5,0.5C530.5,230,530.5,230.2,530.5,230.5z"/>
		<path class="st2" d="M539.2,232.1l-0.7-2.7c-0.1-0.3-0.2-0.9-0.5-2l0,0c-0.2,0.9-0.4,1.6-0.5,2l-0.8,2.7h-1.3l-1.6-5.7h1.2
			l0.7,2.8c0.2,0.7,0.3,1.3,0.3,1.8l0,0c0-0.3,0.1-0.5,0.2-0.9c0.1-0.3,0.1-0.6,0.2-0.7l0.9-3h1.3l0.8,3c0.1,0.2,0.1,0.4,0.2,0.8
			c0.1,0.3,0.1,0.6,0.1,0.8l0,0c0.1-0.4,0.2-1,0.4-1.8l0.7-2.8h1.2l-1.6,5.7L539.2,232.1L539.2,232.1z"/>
		<path class="st2" d="M543,224.9c0-0.2,0.1-0.4,0.2-0.5c0.1-0.1,0.3-0.2,0.5-0.2s0.4,0.1,0.5,0.2c0.1,0.1,0.2,0.3,0.2,0.5
			s-0.1,0.4-0.2,0.5c-0.1,0.1-0.3,0.2-0.5,0.2s-0.4-0.1-0.5-0.2C543.1,225.2,543,225.1,543,224.9z M544.3,232.1h-1.2v-5.7h1.2V232.1
			z"/>
		<path class="st2" d="M548.1,231.2c0.3,0,0.6,0,0.9-0.1v0.9c-0.1,0.1-0.3,0.1-0.5,0.1s-0.4,0.1-0.7,0.1c-1.1,0-1.7-0.6-1.7-1.8
			v-3.1h-0.8v-0.5l0.8-0.4l0.4-1.2h0.7v1.3h1.6v0.9h-1.6v3.1c0,0.3,0.1,0.5,0.2,0.6C547.7,231.2,547.9,231.2,548.1,231.2z"/>
		<path class="st2" d="M555.1,232.1h-1.2v-3.5c0-0.4-0.1-0.8-0.3-1s-0.5-0.3-0.8-0.3c-0.5,0-0.9,0.2-1.1,0.5
			c-0.2,0.3-0.4,0.8-0.4,1.5v2.8h-1.2v-8h1.2v2c0,0.3,0,0.7-0.1,1h0.1c0.2-0.3,0.4-0.5,0.7-0.6c0.3-0.2,0.6-0.2,1-0.2
			c1.4,0,2.1,0.7,2.1,2.1V232.1z"/>
		<path class="st2" d="M561.6,231.2c0.3,0,0.6,0,0.9-0.1v0.9c-0.1,0.1-0.3,0.1-0.5,0.1s-0.4,0.1-0.7,0.1c-1.1,0-1.7-0.6-1.7-1.8
			v-3.1h-0.8v-0.5l0.8-0.4l0.4-1.2h0.7v1.3h1.6v0.9h-1.6v3.1c0,0.3,0.1,0.5,0.2,0.6C561.2,231.2,561.3,231.2,561.6,231.2z"/>
		<path class="st2" d="M568.6,232.1h-1.2v-3.5c0-0.4-0.1-0.8-0.3-1s-0.5-0.3-0.8-0.3c-0.5,0-0.9,0.2-1.1,0.5
			c-0.2,0.3-0.4,0.8-0.4,1.5v2.8h-1.2v-8h1.2v2c0,0.3,0,0.7-0.1,1h0.1c0.2-0.3,0.4-0.5,0.7-0.6c0.3-0.2,0.6-0.2,1-0.2
			c1.4,0,2.1,0.7,2.1,2.1V232.1z"/>
		<path class="st2" d="M572.7,232.2c-0.9,0-1.6-0.3-2.1-0.8s-0.7-1.2-0.7-2.1c0-0.9,0.2-1.7,0.7-2.2s1.1-0.8,1.9-0.8
			c0.7,0,1.3,0.2,1.8,0.7c0.4,0.5,0.6,1.1,0.6,1.9v0.7h-3.8c0,0.6,0.2,1,0.4,1.3c0.3,0.3,0.7,0.4,1.2,0.4c0.3,0,0.6,0,0.9-0.1
			c0.3-0.1,0.6-0.2,0.9-0.3v1c-0.3,0.1-0.6,0.2-0.9,0.3C573.4,232.2,573.1,232.2,572.7,232.2z M572.5,227.2c-0.4,0-0.7,0.1-0.9,0.4
			c-0.2,0.2-0.4,0.6-0.4,1.1h2.6c0-0.5-0.1-0.8-0.3-1.1C573.2,227.3,572.9,227.2,572.5,227.2z"/>
		<path class="st2" d="M580.2,232.1H579v-8h1.2V232.1z"/>
		<path class="st2" d="M586.9,229.2c0,0.9-0.2,1.7-0.7,2.2s-1.1,0.8-2,0.8c-0.5,0-1-0.1-1.4-0.4c-0.4-0.2-0.7-0.6-0.9-1
			c-0.2-0.5-0.3-1-0.3-1.6c0-0.9,0.2-1.6,0.7-2.2c0.5-0.5,1.1-0.8,2-0.8c0.8,0,1.5,0.3,1.9,0.8C586.7,227.6,586.9,228.3,586.9,229.2
			z M582.8,229.2c0,1.3,0.5,2,1.4,2c1,0,1.4-0.7,1.4-2s-0.5-2-1.4-2c-0.5,0-0.9,0.2-1.1,0.5C582.9,228.1,582.8,228.6,582.8,229.2z"
			/>
		<path class="st2" d="M592.9,232.1l-0.7-2.7c-0.1-0.3-0.2-0.9-0.5-2l0,0c-0.2,0.9-0.4,1.6-0.5,2l-0.8,2.7h-1.3l-1.6-5.7h1.2
			l0.7,2.8c0.2,0.7,0.3,1.3,0.3,1.8l0,0c0-0.3,0.1-0.5,0.2-0.9c0.1-0.3,0.1-0.6,0.2-0.7l0.9-3h1.3l0.8,3c0.1,0.2,0.1,0.4,0.2,0.8
			c0.1,0.3,0.1,0.6,0.1,0.8l0,0c0.1-0.4,0.2-1,0.4-1.8l0.7-2.8h1.2l-1.6,5.7L592.9,232.1L592.9,232.1z"/>
		<path class="st2" d="M599.3,232.2c-0.9,0-1.6-0.3-2.1-0.8s-0.7-1.2-0.7-2.1c0-0.9,0.2-1.7,0.7-2.2s1.1-0.8,1.9-0.8
			c0.7,0,1.3,0.2,1.8,0.7c0.4,0.5,0.6,1.1,0.6,1.9v0.7h-3.8c0,0.6,0.2,1,0.4,1.3c0.3,0.3,0.7,0.4,1.2,0.4c0.3,0,0.6,0,0.9-0.1
			c0.3-0.1,0.6-0.2,0.9-0.3v1c-0.3,0.1-0.6,0.2-0.9,0.3C600,232.2,599.7,232.2,599.3,232.2z M599.1,227.2c-0.4,0-0.7,0.1-0.9,0.4
			c-0.2,0.2-0.4,0.6-0.4,1.1h2.6c0-0.5-0.1-0.8-0.3-1.1C599.8,227.3,599.5,227.2,599.1,227.2z"/>
		<path class="st2" d="M606.7,230.5c0,0.6-0.2,1-0.6,1.3c-0.4,0.3-1,0.4-1.7,0.4c-0.8,0-1.4-0.1-1.8-0.3v-1c0.7,0.3,1.3,0.5,1.9,0.5
			c0.7,0,1.1-0.2,1.1-0.7c0-0.1,0-0.3-0.1-0.4c-0.1-0.1-0.2-0.2-0.4-0.3s-0.4-0.2-0.8-0.4c-0.7-0.3-1.1-0.5-1.3-0.8s-0.3-0.6-0.3-1
			c0-0.5,0.2-0.9,0.6-1.1c0.4-0.3,0.9-0.4,1.6-0.4c0.7,0,1.3,0.1,1.9,0.4l-0.4,0.9c-0.6-0.3-1.1-0.4-1.5-0.4c-0.6,0-1,0.2-1,0.5
			c0,0.2,0.1,0.3,0.2,0.5c0.2,0.1,0.5,0.3,1.1,0.5c0.5,0.2,0.8,0.3,1,0.5s0.4,0.3,0.5,0.5C606.6,230,606.7,230.2,606.7,230.5z"/>
		<path class="st2" d="M610.1,231.2c0.3,0,0.6,0,0.9-0.1v0.9c-0.1,0.1-0.3,0.1-0.5,0.1s-0.4,0.1-0.7,0.1c-1.1,0-1.7-0.6-1.7-1.8
			v-3.1h-0.8v-0.5l0.8-0.4l0.4-1.2h0.7v1.3h1.6v0.9h-1.6v3.1c0,0.3,0.1,0.5,0.2,0.6C609.7,231.2,609.8,231.2,610.1,231.2z"/>
	</g>
	<g class="st1">
		<path class="st2" d="M398.2,248.4H397V245h-3.4v3.4h-1.2v-7.5h1.2v3.1h3.4v-3.1h1.2V248.4z"/>
		<path class="st2" d="M399.5,246.1v-1h2.6v1H399.5z"/>
		<path class="st2" d="M404.7,248.4h-1.2v-7.5h4.2v1h-3v2.4h2.8v1h-2.8V248.4z"/>
		<path class="st2" d="M412.5,248.4l-0.2-0.8l0,0c-0.3,0.3-0.5,0.6-0.8,0.7c-0.3,0.1-0.6,0.2-1.1,0.2c-0.6,0-1-0.2-1.3-0.5
			s-0.5-0.7-0.5-1.3s0.2-1,0.6-1.3s1.1-0.5,2-0.5h1v-0.3c0-0.4-0.1-0.6-0.3-0.8c-0.2-0.2-0.4-0.3-0.8-0.3c-0.3,0-0.6,0-0.8,0.1
			c-0.3,0.1-0.5,0.2-0.8,0.3l-0.4-0.9c0.3-0.2,0.6-0.3,1-0.4c0.4-0.1,0.7-0.1,1-0.1c0.7,0,1.3,0.2,1.6,0.5c0.4,0.3,0.5,0.8,0.5,1.5
			v3.8h-0.7V248.4z M410.7,247.6c0.4,0,0.8-0.1,1.1-0.4c0.3-0.2,0.4-0.6,0.4-1v-0.5h-0.7c-0.6,0-1,0.1-1.2,0.3
			c-0.3,0.2-0.4,0.4-0.4,0.8c0,0.3,0.1,0.5,0.2,0.6C410.2,247.5,410.4,247.6,410.7,247.6z"/>
		<path class="st2" d="M417.3,248.5c-0.9,0-1.5-0.3-1.9-0.8s-0.7-1.2-0.7-2.2s0.2-1.7,0.7-2.2s1.1-0.8,2-0.8c0.6,0,1.1,0.1,1.6,0.3
			l-0.4,1c-0.5-0.2-0.9-0.3-1.3-0.3c-1,0-1.5,0.7-1.5,2c0,0.6,0.1,1.1,0.4,1.4c0.2,0.3,0.6,0.5,1.1,0.5s1-0.1,1.5-0.4v1.1
			c-0.2,0.1-0.4,0.2-0.7,0.3S417.6,248.5,417.3,248.5z"/>
		<path class="st2" d="M422.3,247.5c0.3,0,0.6,0,0.9-0.1v0.9c-0.1,0.1-0.3,0.1-0.5,0.1s-0.4,0.1-0.7,0.1c-1.1,0-1.7-0.6-1.7-1.8
			v-3.1h-0.8v-0.5l0.8-0.4l0.4-1.2h0.7v1.3h1.6v0.9h-1.6v3.1c0,0.3,0.1,0.5,0.2,0.6C421.9,247.5,422.1,247.5,422.3,247.5z"/>
		<path class="st2" d="M429.3,245.5c0,0.9-0.2,1.7-0.7,2.2s-1.1,0.8-2,0.8c-0.5,0-1-0.1-1.4-0.4c-0.4-0.2-0.7-0.6-0.9-1
			c-0.2-0.5-0.3-1-0.3-1.6c0-0.9,0.2-1.6,0.7-2.2c0.5-0.5,1.1-0.8,2-0.8c0.8,0,1.5,0.3,1.9,0.8C429.1,243.9,429.3,244.6,429.3,245.5
			z M425.2,245.5c0,1.3,0.5,2,1.4,2c1,0,1.4-0.7,1.4-2s-0.5-2-1.4-2c-0.5,0-0.9,0.2-1.1,0.5C425.3,244.4,425.2,244.9,425.2,245.5z"
			/>
		<path class="st2" d="M433.6,242.6c0.2,0,0.4,0,0.6,0.1l-0.1,1.1c-0.2,0-0.3-0.1-0.5-0.1c-0.5,0-0.9,0.2-1.2,0.5
			c-0.3,0.3-0.4,0.7-0.4,1.2v3h-1.2v-5.7h0.9l0.2,1h0.1c0.2-0.3,0.4-0.6,0.7-0.8C432.9,242.7,433.2,242.6,433.6,242.6z"/>
		<path class="st2" d="M442.4,246.4c0,0.7-0.2,1.2-0.7,1.6c-0.5,0.4-1.1,0.6-2,0.6c-0.8,0-1.5-0.1-2.1-0.4V247
			c0.3,0.2,0.7,0.3,1.1,0.4c0.4,0.1,0.7,0.1,1.1,0.1c0.5,0,0.8-0.1,1.1-0.3c0.2-0.2,0.3-0.4,0.3-0.7s-0.1-0.5-0.3-0.7
			c-0.2-0.2-0.6-0.4-1.3-0.7c-0.7-0.3-1.2-0.6-1.4-1c-0.3-0.4-0.4-0.8-0.4-1.3c0-0.6,0.2-1.1,0.7-1.5c0.4-0.4,1-0.5,1.8-0.5
			c0.7,0,1.4,0.2,2.1,0.5l-0.4,1c-0.7-0.3-1.3-0.4-1.8-0.4c-0.4,0-0.7,0.1-0.9,0.3c-0.2,0.2-0.3,0.4-0.3,0.7c0,0.2,0,0.4,0.1,0.5
			s0.2,0.3,0.4,0.4c0.2,0.1,0.5,0.3,1,0.5s1,0.4,1.2,0.6c0.3,0.2,0.4,0.4,0.6,0.7C442.3,245.7,442.4,246,442.4,246.4z"/>
		<path class="st2" d="M446,248.5c-0.9,0-1.5-0.3-1.9-0.8s-0.7-1.2-0.7-2.2s0.2-1.7,0.7-2.2s1.1-0.8,2-0.8c0.6,0,1.1,0.1,1.6,0.3
			l-0.4,1c-0.5-0.2-0.9-0.3-1.3-0.3c-1,0-1.5,0.7-1.5,2c0,0.6,0.1,1.1,0.4,1.4c0.2,0.3,0.6,0.5,1.1,0.5s1-0.1,1.5-0.4v1.1
			c-0.2,0.1-0.4,0.2-0.7,0.3S446.3,248.5,446,248.5z"/>
		<path class="st2" d="M453.9,245.5c0,0.9-0.2,1.7-0.7,2.2s-1.1,0.8-2,0.8c-0.5,0-1-0.1-1.4-0.4c-0.4-0.2-0.7-0.6-0.9-1
			c-0.2-0.5-0.3-1-0.3-1.6c0-0.9,0.2-1.6,0.7-2.2c0.5-0.5,1.1-0.8,2-0.8c0.8,0,1.5,0.3,1.9,0.8C453.6,243.9,453.9,244.6,453.9,245.5
			z M449.8,245.5c0,1.3,0.5,2,1.4,2c1,0,1.4-0.7,1.4-2s-0.5-2-1.4-2c-0.5,0-0.9,0.2-1.1,0.5S449.8,244.9,449.8,245.5z"/>
		<path class="st2" d="M458.1,242.6c0.2,0,0.4,0,0.6,0.1l-0.1,1.1c-0.2,0-0.3-0.1-0.5-0.1c-0.5,0-0.9,0.2-1.2,0.5
			c-0.3,0.3-0.4,0.7-0.4,1.2v3h-1.2v-5.7h0.9l0.2,1h0.1c0.2-0.3,0.4-0.6,0.7-0.8C457.5,242.7,457.8,242.6,458.1,242.6z"/>
		<path class="st2" d="M462.2,248.5c-0.9,0-1.6-0.3-2.1-0.8s-0.7-1.2-0.7-2.1c0-0.9,0.2-1.7,0.7-2.2s1.1-0.8,1.9-0.8
			c0.7,0,1.3,0.2,1.8,0.7c0.4,0.5,0.6,1.1,0.6,1.9v0.7h-3.8c0,0.6,0.2,1,0.4,1.3c0.3,0.3,0.7,0.4,1.2,0.4c0.3,0,0.6,0,0.9-0.1
			s0.6-0.2,0.9-0.3v1c-0.3,0.1-0.6,0.2-0.9,0.3C463,248.5,462.6,248.5,462.2,248.5z M462,243.5c-0.4,0-0.7,0.1-0.9,0.4
			c-0.2,0.2-0.4,0.6-0.4,1.1h2.6c0-0.5-0.1-0.8-0.3-1.1C462.7,243.6,462.4,243.5,462,243.5z"/>
		<path class="st2" d="M467.1,247.3c-0.2,0.6-0.5,1.5-0.9,2.5h-0.9c0.2-0.9,0.4-1.8,0.5-2.6h1.2L467.1,247.3z"/>
		<path class="st2" d="M476,248.4l-0.7-2.7c-0.1-0.3-0.2-0.9-0.5-2l0,0c-0.2,0.9-0.4,1.6-0.5,2l-0.8,2.7h-1.3l-1.6-5.7h1.2l0.7,2.8
			c0.2,0.7,0.3,1.3,0.3,1.8l0,0c0-0.3,0.1-0.5,0.2-0.9c0.1-0.3,0.1-0.6,0.2-0.7l0.9-3h1.3l0.8,3c0.1,0.2,0.1,0.4,0.2,0.8
			c0.1,0.3,0.1,0.6,0.1,0.8l0,0c0.1-0.4,0.2-1,0.4-1.8l0.7-2.8h1.2l-1.6,5.7L476,248.4L476,248.4z"/>
		<path class="st2" d="M482.3,248.5c-0.9,0-1.6-0.3-2.1-0.8s-0.7-1.2-0.7-2.1c0-0.9,0.2-1.7,0.7-2.2s1.1-0.8,1.9-0.8
			c0.7,0,1.3,0.2,1.8,0.7c0.4,0.5,0.6,1.1,0.6,1.9v0.7h-3.8c0,0.6,0.2,1,0.4,1.3c0.3,0.3,0.7,0.4,1.2,0.4c0.3,0,0.6,0,0.9-0.1
			s0.6-0.2,0.9-0.3v1c-0.3,0.1-0.6,0.2-0.9,0.3C483.1,248.5,482.7,248.5,482.3,248.5z M482.1,243.5c-0.4,0-0.7,0.1-0.9,0.4
			c-0.2,0.2-0.4,0.6-0.4,1.1h2.6c0-0.5-0.1-0.8-0.3-1.1C482.8,243.6,482.5,243.5,482.1,243.5z"/>
		<path class="st2" d="M485.8,241.2c0-0.2,0.1-0.4,0.2-0.5s0.3-0.2,0.5-0.2s0.4,0.1,0.5,0.2c0.1,0.1,0.2,0.3,0.2,0.5
			s-0.1,0.4-0.2,0.5s-0.3,0.2-0.5,0.2s-0.4-0.1-0.5-0.2S485.8,241.4,485.8,241.2z M487.1,248.4h-1.2v-5.7h1.2V248.4z"/>
		<path class="st2" d="M493.6,242.7v0.7l-1,0.2c0.1,0.1,0.2,0.3,0.2,0.4c0.1,0.2,0.1,0.4,0.1,0.6c0,0.6-0.2,1.1-0.6,1.4
			c-0.4,0.3-1,0.5-1.7,0.5c-0.2,0-0.3,0-0.5,0c-0.3,0.2-0.4,0.4-0.4,0.6c0,0.1,0.1,0.2,0.2,0.3s0.3,0.1,0.7,0.1h1
			c0.6,0,1.1,0.1,1.4,0.4s0.5,0.7,0.5,1.2c0,0.6-0.3,1.1-0.8,1.5s-1.3,0.5-2.3,0.5c-0.8,0-1.4-0.1-1.8-0.4c-0.4-0.3-0.6-0.7-0.6-1.2
			c0-0.4,0.1-0.6,0.3-0.9c0.2-0.2,0.5-0.4,0.9-0.5c-0.2-0.1-0.3-0.2-0.4-0.3c-0.1-0.2-0.2-0.3-0.2-0.5s0.1-0.4,0.2-0.5
			s0.3-0.3,0.5-0.4c-0.3-0.1-0.5-0.3-0.7-0.6s-0.3-0.6-0.3-1c0-0.6,0.2-1.1,0.6-1.4c0.4-0.3,0.9-0.5,1.7-0.5c0.2,0,0.3,0,0.5,0
			s0.3,0,0.4,0.1h2.1V242.7z M489.2,249.3c0,0.3,0.1,0.5,0.4,0.6c0.2,0.1,0.6,0.2,1,0.2c0.7,0,1.1-0.1,1.5-0.3
			c0.3-0.2,0.5-0.4,0.5-0.8c0-0.2-0.1-0.4-0.3-0.5c-0.2-0.1-0.5-0.2-1-0.2h-0.9c-0.3,0-0.6,0.1-0.8,0.2
			C489.3,248.8,489.2,249,489.2,249.3z M489.7,244.5c0,0.4,0.1,0.6,0.3,0.8s0.4,0.3,0.8,0.3c0.7,0,1-0.4,1-1.1
			c0-0.4-0.1-0.7-0.3-0.9c-0.2-0.2-0.4-0.3-0.8-0.3c-0.3,0-0.6,0.1-0.8,0.3C489.8,243.9,489.7,244.2,489.7,244.5z"/>
		<path class="st2" d="M499.6,248.4h-1.2v-3.5c0-0.4-0.1-0.8-0.3-1c-0.2-0.2-0.5-0.3-0.8-0.3c-0.5,0-0.9,0.2-1.1,0.5
			s-0.4,0.8-0.4,1.5v2.8h-1.2v-8h1.2v2c0,0.3,0,0.7-0.1,1h0.1c0.2-0.3,0.4-0.5,0.7-0.6c0.3-0.2,0.6-0.2,1-0.2c1.4,0,2.1,0.7,2.1,2.1
			L499.6,248.4L499.6,248.4z"/>
		<path class="st2" d="M503.4,247.5c0.3,0,0.6,0,0.9-0.1v0.9c-0.1,0.1-0.3,0.1-0.5,0.1s-0.4,0.1-0.7,0.1c-1.1,0-1.7-0.6-1.7-1.8
			v-3.1h-0.8v-0.5l0.8-0.4l0.4-1.2h0.7v1.3h1.6v0.9h-1.6v3.1c0,0.3,0.1,0.5,0.2,0.6C503,247.5,503.2,247.5,503.4,247.5z"/>
		<path class="st2" d="M507.9,248.5c-0.9,0-1.6-0.3-2.1-0.8s-0.7-1.2-0.7-2.1c0-0.9,0.2-1.7,0.7-2.2s1.1-0.8,1.9-0.8
			c0.7,0,1.3,0.2,1.8,0.7c0.4,0.5,0.6,1.1,0.6,1.9v0.7h-3.8c0,0.6,0.2,1,0.4,1.3c0.3,0.3,0.7,0.4,1.2,0.4c0.3,0,0.6,0,0.9-0.1
			s0.6-0.2,0.9-0.3v1c-0.3,0.1-0.6,0.2-0.9,0.3C508.6,248.5,508.3,248.5,507.9,248.5z M507.6,243.5c-0.4,0-0.7,0.1-0.9,0.4
			c-0.2,0.2-0.4,0.6-0.4,1.1h2.6c0-0.5-0.1-0.8-0.3-1.1C508.3,243.6,508,243.5,507.6,243.5z"/>
		<path class="st2" d="M513.3,248.5c-0.7,0-1.3-0.3-1.7-0.8c-0.4-0.5-0.6-1.2-0.6-2.2c0-0.9,0.2-1.7,0.6-2.2s1-0.8,1.7-0.8
			s1.3,0.3,1.7,0.8h0.1c-0.1-0.4-0.1-0.7-0.1-1v-2.1h1.2v8h-0.9l-0.2-0.7H515C514.6,248.2,514.1,248.5,513.3,248.5z M513.7,247.5
			c0.5,0,0.9-0.1,1.1-0.4c0.2-0.3,0.3-0.7,0.3-1.4v-0.2c0-0.7-0.1-1.2-0.3-1.5s-0.6-0.5-1.1-0.5c-0.4,0-0.7,0.2-1,0.5
			c-0.2,0.3-0.3,0.8-0.3,1.5c0,0.6,0.1,1.1,0.3,1.4C512.9,247.4,513.2,247.5,513.7,247.5z"/>
		<path class="st2" d="M523.6,242.6c0.7,0,1.3,0.3,1.6,0.8c0.4,0.5,0.6,1.2,0.6,2.2c0,0.9-0.2,1.7-0.6,2.2c-0.4,0.5-1,0.8-1.7,0.8
			s-1.3-0.3-1.7-0.8h-0.1l-0.2,0.7h-0.9v-8h1.2v1.9c0,0.1,0,0.4,0,0.6c0,0.3,0,0.5,0,0.5h0.1C522.3,242.9,522.8,242.6,523.6,242.6z
			 M523.2,243.6c-0.5,0-0.8,0.1-1,0.4c-0.2,0.3-0.3,0.8-0.3,1.4v0.1c0,0.7,0.1,1.2,0.3,1.5s0.6,0.5,1.1,0.5c0.4,0,0.7-0.2,1-0.5
			c0.2-0.3,0.3-0.8,0.3-1.5C524.6,244.2,524.1,243.6,523.2,243.6z"/>
		<path class="st2" d="M526.3,242.7h1.3l1.1,3.2c0.2,0.5,0.3,0.9,0.3,1.3l0,0c0-0.2,0.1-0.4,0.2-0.7c0.1-0.3,0.5-1.6,1.3-3.8h1.3
			l-2.4,6.5c-0.4,1.2-1.2,1.8-2.2,1.8c-0.3,0-0.5,0-0.8-0.1v-1c0.2,0,0.4,0.1,0.6,0.1c0.6,0,1-0.3,1.2-1l0.2-0.5L526.3,242.7z"/>
		<path class="st2" d="M538.7,248.4h-1.2v-4.9c0-0.6,0-1,0-1.4c-0.1,0.1-0.2,0.2-0.3,0.3s-0.5,0.4-1.1,0.9l-0.6-0.8l2.2-1.7h1
			L538.7,248.4L538.7,248.4z"/>
		<path class="st2" d="M541.1,246.1v-1h4.4v1H541.1z"/>
		<path class="st2" d="M555.5,248.4h-1.2V245h-3.4v3.4h-1.2v-7.5h1.2v3.1h3.4v-3.1h1.2V248.4z"/>
		<path class="st2" d="M556.8,246.1v-1h2.6v1H556.8z"/>
		<path class="st2" d="M562,248.4h-1.2v-7.5h4.2v1h-3v2.4h2.8v1H562V248.4z"/>
		<path class="st2" d="M569.8,248.4l-0.2-0.8l0,0c-0.3,0.3-0.5,0.6-0.8,0.7c-0.3,0.1-0.6,0.2-1.1,0.2c-0.6,0-1-0.2-1.3-0.5
			s-0.5-0.7-0.5-1.3s0.2-1,0.6-1.3c0.4-0.3,1.1-0.5,2-0.5h1v-0.3c0-0.4-0.1-0.6-0.3-0.8s-0.4-0.3-0.8-0.3c-0.3,0-0.6,0-0.8,0.1
			c-0.3,0.1-0.5,0.2-0.8,0.3l-0.4-0.9c0.3-0.2,0.6-0.3,1-0.4c0.4-0.1,0.7-0.1,1-0.1c0.7,0,1.3,0.2,1.6,0.5c0.4,0.3,0.5,0.8,0.5,1.5
			v3.8h-0.7V248.4z M568,247.6c0.4,0,0.8-0.1,1.1-0.4c0.3-0.2,0.4-0.6,0.4-1v-0.5h-0.7c-0.6,0-1,0.1-1.2,0.3
			c-0.3,0.2-0.4,0.4-0.4,0.8c0,0.3,0.1,0.5,0.2,0.6C567.5,247.5,567.7,247.6,568,247.6z"/>
		<path class="st2" d="M574.6,248.5c-0.9,0-1.5-0.3-1.9-0.8s-0.7-1.2-0.7-2.2s0.2-1.7,0.7-2.2s1.1-0.8,2-0.8c0.6,0,1.1,0.1,1.6,0.3
			l-0.4,1c-0.5-0.2-0.9-0.3-1.3-0.3c-1,0-1.5,0.7-1.5,2c0,0.6,0.1,1.1,0.4,1.4c0.2,0.3,0.6,0.5,1.1,0.5s1-0.1,1.5-0.4v1.1
			c-0.2,0.1-0.4,0.2-0.7,0.3C575.2,248.5,574.9,248.5,574.6,248.5z"/>
		<path class="st2" d="M579.6,247.5c0.3,0,0.6,0,0.9-0.1v0.9c-0.1,0.1-0.3,0.1-0.5,0.1s-0.4,0.1-0.7,0.1c-1.1,0-1.7-0.6-1.7-1.8
			v-3.1h-0.8v-0.5l0.8-0.4l0.4-1.2h0.7v1.3h1.6v0.9h-1.6v3.1c0,0.3,0.1,0.5,0.2,0.6C579.2,247.5,579.4,247.5,579.6,247.5z"/>
		<path class="st2" d="M586.6,245.5c0,0.9-0.2,1.7-0.7,2.2s-1.1,0.8-2,0.8c-0.5,0-1-0.1-1.4-0.4c-0.4-0.2-0.7-0.6-0.9-1
			c-0.2-0.5-0.3-1-0.3-1.6c0-0.9,0.2-1.6,0.7-2.2c0.5-0.5,1.1-0.8,2-0.8c0.8,0,1.5,0.3,1.9,0.8C586.4,243.9,586.6,244.6,586.6,245.5
			z M582.5,245.5c0,1.3,0.5,2,1.4,2c1,0,1.4-0.7,1.4-2s-0.5-2-1.4-2c-0.5,0-0.9,0.2-1.1,0.5C582.6,244.4,582.5,244.9,582.5,245.5z"
			/>
		<path class="st2" d="M590.9,242.6c0.2,0,0.4,0,0.6,0.1l-0.1,1.1c-0.2,0-0.3-0.1-0.5-0.1c-0.5,0-0.9,0.2-1.2,0.5s-0.4,0.7-0.4,1.2
			v3H588v-5.7h0.9l0.2,1h0.1c0.2-0.3,0.4-0.6,0.7-0.8C590.2,242.7,590.5,242.6,590.9,242.6z"/>
		<path class="st2" d="M599.7,246.4c0,0.7-0.2,1.2-0.7,1.6c-0.5,0.4-1.1,0.6-2,0.6c-0.8,0-1.5-0.1-2.1-0.4V247
			c0.3,0.2,0.7,0.3,1.1,0.4c0.4,0.1,0.7,0.1,1.1,0.1c0.5,0,0.8-0.1,1.1-0.3c0.2-0.2,0.3-0.4,0.3-0.7s-0.1-0.5-0.3-0.7
			s-0.6-0.4-1.3-0.7s-1.2-0.6-1.4-1c-0.3-0.4-0.4-0.8-0.4-1.3c0-0.6,0.2-1.1,0.7-1.5c0.4-0.4,1-0.5,1.8-0.5c0.7,0,1.4,0.2,2.1,0.5
			l-0.4,1c-0.7-0.3-1.3-0.4-1.8-0.4c-0.4,0-0.7,0.1-0.9,0.3s-0.3,0.4-0.3,0.7c0,0.2,0,0.4,0.1,0.5s0.2,0.3,0.4,0.4
			c0.2,0.1,0.5,0.3,1,0.5s1,0.4,1.2,0.6c0.3,0.2,0.4,0.4,0.6,0.7C599.6,245.7,599.7,246,599.7,246.4z"/>
		<path class="st2" d="M603.3,248.5c-0.9,0-1.5-0.3-1.9-0.8s-0.7-1.2-0.7-2.2s0.2-1.7,0.7-2.2s1.1-0.8,2-0.8c0.6,0,1.1,0.1,1.6,0.3
			l-0.4,1c-0.5-0.2-0.9-0.3-1.3-0.3c-1,0-1.5,0.7-1.5,2c0,0.6,0.1,1.1,0.4,1.4c0.2,0.3,0.6,0.5,1.1,0.5s1-0.1,1.5-0.4v1.1
			c-0.2,0.1-0.4,0.2-0.7,0.3C603.9,248.5,603.6,248.5,603.3,248.5z"/>
		<path class="st2" d="M611.2,245.5c0,0.9-0.2,1.7-0.7,2.2s-1.1,0.8-2,0.8c-0.5,0-1-0.1-1.4-0.4c-0.4-0.2-0.7-0.6-0.9-1
			c-0.2-0.5-0.3-1-0.3-1.6c0-0.9,0.2-1.6,0.7-2.2c0.5-0.5,1.1-0.8,2-0.8c0.8,0,1.5,0.3,1.9,0.8C611,243.9,611.2,244.6,611.2,245.5z
			 M607.1,245.5c0,1.3,0.5,2,1.4,2c1,0,1.4-0.7,1.4-2s-0.5-2-1.4-2c-0.5,0-0.9,0.2-1.1,0.5C607.2,244.4,607.1,244.9,607.1,245.5z"/>
		<path class="st2" d="M615.4,242.6c0.2,0,0.4,0,0.6,0.1l-0.1,1.1c-0.2,0-0.3-0.1-0.5-0.1c-0.5,0-0.9,0.2-1.2,0.5s-0.4,0.7-0.4,1.2
			v3h-1.2v-5.7h0.9l0.2,1h0.1c0.2-0.3,0.4-0.6,0.7-0.8C614.8,242.7,615.1,242.6,615.4,242.6z"/>
		<path class="st2" d="M619.6,248.5c-0.9,0-1.6-0.3-2.1-0.8s-0.7-1.2-0.7-2.1c0-0.9,0.2-1.7,0.7-2.2s1.1-0.8,1.9-0.8
			c0.7,0,1.3,0.2,1.8,0.7c0.4,0.5,0.6,1.1,0.6,1.9v0.7H618c0,0.6,0.2,1,0.4,1.3c0.3,0.3,0.7,0.4,1.2,0.4c0.3,0,0.6,0,0.9-0.1
			c0.3-0.1,0.6-0.2,0.9-0.3v1c-0.3,0.1-0.6,0.2-0.9,0.3C620.3,248.5,619.9,248.5,619.6,248.5z M619.3,243.5c-0.4,0-0.7,0.1-0.9,0.4
			c-0.2,0.2-0.4,0.6-0.4,1.1h2.6c0-0.5-0.1-0.8-0.3-1.1C620,243.6,619.7,243.5,619.3,243.5z"/>
	</g>
</g>
<g>
	
		<linearGradient id="SVGID_1_" gradientUnits="userSpaceOnUse" x1="376.9" y1="1068" x2="212.2" y2="1068" gradientTransform="matrix(1 0 0 1 0 -803)">
		<stop  offset="0" style="stop-color:#00BEFF"/>
		<stop  offset="1" style="stop-color:#054BA4"/>
	</linearGradient>
	<path class="st3" d="M238.5,291.3h112.1c14.6,0,26.3-11.8,26.3-26.3l0,0c0-14.6-11.8-26.3-26.3-26.3H238.5
		c-14.6,0-26.3,11.8-26.3,26.3l0,0C212.2,279.6,224,291.3,238.5,291.3z"/>
	<g class="st1">
		<path class="st4" d="M242.6,269.7v-9.3h1.5v8h3.9v1.3H242.6z"/>
		<path class="st4" d="M249.4,260.8c0-0.3,0.1-0.5,0.2-0.6c0.1-0.1,0.4-0.2,0.6-0.2c0.3,0,0.5,0.1,0.6,0.2s0.2,0.3,0.2,0.6
			c0,0.3-0.1,0.5-0.2,0.6c-0.1,0.1-0.3,0.2-0.6,0.2s-0.5-0.1-0.6-0.2C249.4,261.3,249.4,261.1,249.4,260.8z M250.9,269.7h-1.5v-7
			h1.5V269.7z"/>
		<path class="st4" d="M255.4,269.8c-0.9,0-1.5-0.3-2-1c-0.5-0.6-0.7-1.5-0.7-2.7c0-1.1,0.2-2,0.7-2.7c0.5-0.6,1.2-1,2.1-1
			c0.4,0,0.8,0.1,1.2,0.2c0.3,0.2,0.7,0.4,0.9,0.8h0.1l0.2-0.9h1.2v10.1h-1.5v-3c0-0.2,0-0.4,0-0.6s0-0.4,0-0.5h-0.1
			C257.1,269.5,256.4,269.8,255.4,269.8z M255.8,268.6c0.6,0,1.1-0.2,1.3-0.5c0.3-0.4,0.4-0.9,0.4-1.6v-0.2c0-0.9-0.1-1.5-0.4-1.9
			s-0.7-0.6-1.4-0.6c-0.5,0-0.9,0.2-1.2,0.6s-0.4,1-0.4,1.8C254.2,267.8,254.7,268.6,255.8,268.6z"/>
		<path class="st4" d="M266.1,269.7l-0.2-0.9h-0.1c-0.2,0.3-0.5,0.6-0.9,0.8c-0.4,0.2-0.8,0.3-1.3,0.3c-0.8,0-1.5-0.2-1.9-0.6
			s-0.6-1.1-0.6-1.9v-4.6h1.5v4.3c0,0.5,0.1,0.9,0.3,1.2c0.2,0.3,0.6,0.4,1,0.4c0.6,0,1.1-0.2,1.4-0.6s0.4-1,0.4-1.9v-3.5h1.5v7
			L266.1,269.7L266.1,269.7z"/>
		<path class="st4" d="M269.3,260.8c0-0.3,0.1-0.5,0.2-0.6s0.4-0.2,0.6-0.2c0.3,0,0.5,0.1,0.6,0.2s0.2,0.3,0.2,0.6
			c0,0.3-0.1,0.5-0.2,0.6s-0.3,0.2-0.6,0.2c-0.3,0-0.5-0.1-0.6-0.2S269.3,261.1,269.3,260.8z M270.9,269.7h-1.5v-7h1.5V269.7z"/>
		<path class="st4" d="M275.4,269.8c-0.9,0-1.6-0.3-2-1c-0.5-0.6-0.7-1.5-0.7-2.7c0-1.1,0.2-2,0.7-2.7c0.5-0.6,1.2-1,2.1-1
			s1.6,0.3,2.1,1h0.1c-0.1-0.5-0.1-0.9-0.1-1.2v-2.6h1.5v9.9h-1.2l-0.3-0.9h-0.1C277,269.5,276.3,269.8,275.4,269.8z M275.8,268.6
			c0.6,0,1.1-0.2,1.3-0.5c0.3-0.3,0.4-0.9,0.4-1.7v-0.2c0-0.9-0.1-1.5-0.4-1.9s-0.7-0.6-1.4-0.6c-0.5,0-0.9,0.2-1.2,0.6
			c-0.3,0.4-0.4,1-0.4,1.8s0.1,1.4,0.4,1.8S275.2,268.6,275.8,268.6z"/>
		<path class="st4" d="M281,260.8c0-0.3,0.1-0.5,0.2-0.6s0.4-0.2,0.6-0.2c0.3,0,0.5,0.1,0.6,0.2s0.2,0.3,0.2,0.6
			c0,0.3-0.1,0.5-0.2,0.6s-0.3,0.2-0.6,0.2c-0.3,0-0.5-0.1-0.6-0.2S281,261.1,281,260.8z M282.6,269.7h-1.5v-7h1.5V269.7z"/>
		<path class="st4" d="M287.3,268.6c0.4,0,0.7-0.1,1.1-0.2v1.1c-0.2,0.1-0.4,0.1-0.6,0.2c-0.3,0-0.5,0.1-0.8,0.1
			c-1.4,0-2.1-0.7-2.1-2.2v-3.8h-1v-0.7l1-0.5l0.5-1.5h0.9v1.6h2v1.1h-2v3.8c0,0.4,0.1,0.6,0.3,0.8
			C286.8,268.5,287.1,268.6,287.3,268.6z"/>
		<path class="st4" d="M288.8,262.7h1.6l1.4,4c0.2,0.6,0.4,1.1,0.4,1.6h0.1c0-0.2,0.1-0.5,0.2-0.8s0.6-1.9,1.6-4.7h1.6l-3,7.9
			c-0.5,1.5-1.5,2.2-2.7,2.2c-0.3,0-0.7,0-1-0.1v-1.2c0.2,0.1,0.5,0.1,0.8,0.1c0.7,0,1.2-0.4,1.5-1.2l0.3-0.7L288.8,262.7z"/>
		<path class="st4" d="M305.7,267.2c0,0.8-0.3,1.5-0.9,1.9c-0.6,0.5-1.4,0.7-2.5,0.7c-1,0-1.9-0.2-2.6-0.5v-1.4
			c0.4,0.2,0.9,0.4,1.3,0.5c0.5,0.1,0.9,0.2,1.3,0.2c0.6,0,1-0.1,1.3-0.3c0.3-0.2,0.4-0.5,0.4-0.9c0-0.3-0.1-0.6-0.4-0.9
			c-0.3-0.2-0.8-0.5-1.6-0.9c-0.8-0.3-1.4-0.7-1.8-1.2c-0.3-0.4-0.5-1-0.5-1.6c0-0.8,0.3-1.4,0.8-1.8s1.3-0.7,2.2-0.7
			c0.9,0,1.8,0.2,2.7,0.6l-0.5,1.2c-0.8-0.3-1.6-0.5-2.2-0.5c-0.5,0-0.9,0.1-1.1,0.3c-0.3,0.2-0.4,0.5-0.4,0.8
			c0,0.2,0.1,0.4,0.2,0.6s0.3,0.3,0.5,0.5s0.7,0.4,1.3,0.6c0.7,0.3,1.2,0.5,1.5,0.8c0.3,0.2,0.5,0.5,0.7,0.8
			C305.6,266.4,305.7,266.8,305.7,267.2z"/>
		<path class="st4" d="M310.1,269.8c-1.1,0-1.9-0.3-2.4-0.9c-0.6-0.6-0.8-1.5-0.8-2.7s0.3-2.1,0.9-2.7s1.4-1,2.5-1
			c0.7,0,1.4,0.1,2,0.4l-0.5,1.2c-0.6-0.2-1.1-0.4-1.6-0.4c-1.2,0-1.8,0.8-1.8,2.4c0,0.8,0.2,1.4,0.5,1.8s0.7,0.6,1.3,0.6
			c0.7,0,1.3-0.2,1.9-0.5v1.3c-0.3,0.2-0.6,0.3-0.9,0.3C310.9,269.8,310.6,269.8,310.1,269.8z"/>
		<path class="st4" d="M317.3,262.6c0.3,0,0.5,0,0.7,0.1l-0.1,1.4c-0.2-0.1-0.4-0.1-0.7-0.1c-0.6,0-1.1,0.2-1.4,0.6
			c-0.4,0.4-0.6,0.9-0.6,1.5v3.7h-1.5v-7h1.2l0.2,1.2h0.1c0.2-0.4,0.5-0.8,0.9-1C316.5,262.7,316.9,262.6,317.3,262.6z"/>
		<path class="st4" d="M322.4,269.8c-1.1,0-1.9-0.3-2.6-1c-0.6-0.6-0.9-1.5-0.9-2.6s0.3-2,0.9-2.7s1.4-1,2.4-1
			c0.9,0,1.7,0.3,2.2,0.8s0.8,1.3,0.8,2.3v0.8h-4.7c0,0.7,0.2,1.2,0.6,1.6c0.3,0.4,0.8,0.5,1.5,0.5c0.4,0,0.8,0,1.2-0.1
			c0.4-0.1,0.7-0.2,1.2-0.4v1.2c-0.4,0.2-0.7,0.3-1.1,0.4S322.9,269.8,322.4,269.8z M322.1,263.7c-0.5,0-0.9,0.2-1.1,0.5
			c-0.3,0.3-0.5,0.7-0.5,1.3h3.2c0-0.6-0.1-1-0.4-1.3C323,263.8,322.6,263.7,322.1,263.7z"/>
		<path class="st4" d="M329.9,269.8c-1.1,0-1.9-0.3-2.6-1c-0.6-0.6-0.9-1.5-0.9-2.6s0.3-2,0.9-2.7s1.4-1,2.4-1
			c0.9,0,1.7,0.3,2.2,0.8s0.8,1.3,0.8,2.3v0.8H328c0,0.7,0.2,1.2,0.6,1.6c0.3,0.4,0.8,0.5,1.5,0.5c0.4,0,0.8,0,1.2-0.1
			c0.4-0.1,0.7-0.2,1.2-0.4v1.2c-0.4,0.2-0.7,0.3-1.1,0.4S330.4,269.8,329.9,269.8z M329.6,263.7c-0.5,0-0.9,0.2-1.1,0.5
			c-0.3,0.3-0.5,0.7-0.5,1.3h3.2c0-0.6-0.1-1-0.4-1.3C330.5,263.8,330.1,263.7,329.6,263.7z"/>
		<path class="st4" d="M340.5,269.7H339v-4.3c0-0.5-0.1-0.9-0.3-1.2c-0.2-0.3-0.6-0.4-1-0.4c-0.6,0-1.1,0.2-1.4,0.6s-0.4,1-0.4,1.9
			v3.5h-1.5v-7h1.2l0.2,0.9h0.1c0.2-0.3,0.5-0.6,0.9-0.8c0.4-0.2,0.8-0.3,1.3-0.3c1.7,0,2.5,0.9,2.5,2.6v4.5H340.5z"/>
		<path class="st4" d="M347.3,267.7c0,0.7-0.2,1.2-0.7,1.6s-1.2,0.5-2.1,0.5s-1.7-0.1-2.3-0.4v-1.3c0.8,0.4,1.6,0.6,2.3,0.6
			c0.9,0,1.4-0.3,1.4-0.8c0-0.2-0.1-0.3-0.2-0.4s-0.3-0.2-0.5-0.4c-0.2-0.1-0.6-0.3-1-0.4c-0.8-0.3-1.4-0.6-1.6-0.9
			c-0.3-0.3-0.4-0.7-0.4-1.2c0-0.6,0.2-1.1,0.7-1.4s1.1-0.5,2-0.5c0.8,0,1.6,0.2,2.3,0.5l-0.5,1.1c-0.8-0.3-1.4-0.5-1.9-0.5
			c-0.8,0-1.2,0.2-1.2,0.7c0,0.2,0.1,0.4,0.3,0.6c0.2,0.2,0.7,0.4,1.3,0.6c0.6,0.2,1,0.4,1.3,0.6s0.5,0.4,0.6,0.6
			C347.2,267.1,347.3,267.4,347.3,267.7z"/>
	</g>
</g>
<g>
	<line class="st5" x1="373.8" y1="265" x2="646.8" y2="265"/>
</g>
<g>
	<circle class="st6" cx="108.2" cy="265" r="58.3"/>
	<polygon class="st6" points="204.1,265 185.5,258.2 185.5,271.8 	"/>
	<g>
		<path class="st6" d="M191.7,266.5h-16.1c-0.8,0-1.5-0.7-1.5-1.5s0.7-1.5,1.5-1.5h16.1c0.8,0,1.5,0.7,1.5,1.5
			S192.5,266.5,191.7,266.5z"/>
	</g>
	<g class="st1">
		<path class="st4" d="M97.8,257.4c0,1.1-0.4,2-1.2,2.6c-0.8,0.6-1.9,0.9-3.3,0.9s-2.5-0.2-3.4-0.7v-1.9c0.6,0.3,1.2,0.5,1.8,0.6
			c0.6,0.2,1.2,0.2,1.8,0.2c0.8,0,1.4-0.2,1.8-0.5s0.6-0.7,0.6-1.2s-0.2-0.9-0.5-1.2c-0.3-0.3-1.1-0.7-2.2-1.1
			c-1.1-0.5-1.9-1-2.4-1.6s-0.7-1.3-0.7-2.1c0-1,0.4-1.8,1.1-2.4c0.7-0.6,1.7-0.9,3-0.9c1.2,0,2.4,0.3,3.5,0.8l-0.6,1.6
			c-1.1-0.5-2.1-0.7-2.9-0.7c-0.7,0-1.2,0.1-1.5,0.4c-0.3,0.3-0.5,0.7-0.5,1.1c0,0.3,0.1,0.6,0.2,0.8s0.4,0.4,0.7,0.6
			c0.3,0.2,0.9,0.5,1.7,0.8c0.9,0.4,1.6,0.7,2,1.1c0.4,0.3,0.7,0.7,0.9,1.1C97.7,256.4,97.8,256.9,97.8,257.4z"/>
		<path class="st4" d="M99.4,257.5c0-0.7,0.2-1.4,0.5-1.9c0.4-0.5,1-1.1,2-1.6c-0.5-0.6-0.9-1.2-1.1-1.6c-0.2-0.4-0.3-0.9-0.3-1.3
			c0-0.9,0.3-1.5,0.9-2s1.4-0.7,2.5-0.7c1,0,1.8,0.2,2.4,0.7s0.9,1.1,0.9,1.9c0,0.6-0.2,1.2-0.6,1.7s-1,1-1.9,1.6l2.9,2.8
			c0.5-0.6,0.8-1.5,1.1-2.7h2c-0.4,1.6-1,2.9-1.9,3.9l2.5,2.5h-2.6l-1.3-1.2c-0.6,0.5-1.2,0.8-1.8,1c-0.7,0.2-1.4,0.4-2.2,0.4
			c-1.3,0-2.3-0.3-3.1-0.9C99.7,259.4,99.4,258.6,99.4,257.5z M103.6,259.3c1,0,1.9-0.3,2.6-0.9l-3.2-3.2c-0.6,0.4-1,0.7-1.2,1.1
			c-0.2,0.3-0.3,0.7-0.3,1.1c0,0.6,0.2,1,0.6,1.3C102.4,259.1,103,259.3,103.6,259.3z M102.4,251.1c0,0.4,0.1,0.7,0.3,1
			c0.2,0.3,0.5,0.7,0.8,1c0.6-0.4,1.1-0.7,1.3-1c0.3-0.3,0.4-0.7,0.4-1.1c0-0.4-0.1-0.7-0.4-0.9c-0.2-0.2-0.6-0.3-1-0.3
			s-0.8,0.1-1.1,0.3C102.5,250.4,102.4,250.7,102.4,251.1z"/>
		<path class="st4" d="M121.2,252.2c0,1.3-0.4,2.3-1.3,3c-0.8,0.7-2,1-3.6,1H115v4.6h-2v-12.4h3.6c1.5,0,2.7,0.3,3.5,0.9
			C120.8,250,121.2,250.9,121.2,252.2z M115,254.5h1.1c1,0,1.8-0.2,2.3-0.5c0.5-0.4,0.7-0.9,0.7-1.7c0-0.7-0.2-1.2-0.7-1.6
			c-0.4-0.3-1.1-0.5-2-0.5H115V254.5z"/>
	</g>
	<g class="st1">
		<path class="st4" d="M102.9,269.2v8c0,0.9-0.2,1.7-0.6,2.4c-0.4,0.7-1,1.2-1.7,1.6s-1.6,0.6-2.7,0.6c-1.5,0-2.7-0.4-3.6-1.2
			c-0.9-0.8-1.3-1.9-1.3-3.3v-8h2v7.8c0,1,0.2,1.8,0.7,2.3s1.2,0.7,2.2,0.7c1.9,0,2.9-1,2.9-3v-7.8h2.1V269.2z"/>
		<path class="st4" d="M115.5,281.6h-2.3l-3.9-5.6l-1.2,1v4.6h-2v-12.4h2v5.9c0.6-0.7,1.1-1.3,1.6-2l3.3-3.9h2.3
			c-2.2,2.5-3.7,4.3-4.6,5.4L115.5,281.6z"/>
	</g>
	<g class="st1">
		<path class="st4" d="M116,272.2c0-0.7,0.2-1.3,0.5-1.8c0.3-0.6,0.8-1,1.4-1.4c0.6-0.3,1.2-0.5,1.9-0.5c0.7,0,1.3,0.2,1.8,0.5
			c0.6,0.3,1,0.8,1.4,1.4c0.3,0.6,0.5,1.2,0.5,1.9c0,0.6-0.2,1.3-0.5,1.8c-0.3,0.6-0.8,1-1.3,1.4c-0.6,0.3-1.2,0.5-1.9,0.5
			c-0.7,0-1.3-0.2-1.9-0.5s-1-0.8-1.3-1.4C116.2,273.5,116,272.9,116,272.2z M116.6,272.2c0,0.6,0.1,1.1,0.4,1.6s0.7,0.9,1.1,1.1
			c0.5,0.3,1,0.4,1.5,0.4c0.6,0,1.1-0.1,1.6-0.4s0.9-0.7,1.1-1.1c0.3-0.5,0.4-1,0.4-1.5c0-0.6-0.1-1.1-0.4-1.6s-0.7-0.9-1.1-1.1
			c-0.5-0.3-1-0.4-1.5-0.4c-0.6,0-1.1,0.1-1.5,0.4c-0.5,0.3-0.9,0.6-1.1,1.1C116.8,271.1,116.6,271.6,116.6,272.2z M121.2,271.3
			c0,0.6-0.3,0.9-0.8,1.1l1.2,2h-1l-0.9-1.7h-0.4v1.7h-0.9V270h1.3c0.6,0,1,0.1,1.3,0.3C121.1,270.5,121.2,270.9,121.2,271.3z
			 M119.2,272h0.3c0.2,0,0.4-0.1,0.6-0.2c0.1-0.1,0.2-0.3,0.2-0.5s-0.1-0.4-0.2-0.5s-0.3-0.1-0.6-0.1h-0.3V272z"/>
	</g>
</g>
<path class="st7" d="M828.6,238.7H658.8c-14.6,0-26.3,11.8-26.3,26.3l0,0c0,14.6,11.8,26.3,26.3,26.3h169.8
	c14.6,0,26.3-11.8,26.3-26.3l0,0C855,250.4,843.2,238.7,828.6,238.7z"/>
<g class="st1">
	<path class="st6" d="M693.7,259.7h-1.9l-4.6-7.4h-0.1v0.4c0.1,0.8,0.1,1.5,0.1,2.2v4.8H686v-9.3h1.8l4.5,7.3l0,0
		c0-0.1,0-0.5-0.1-1.1c0-0.6,0-1.1,0-1.4v-4.9h1.4L693.7,259.7L693.7,259.7z"/>
	<path class="st6" d="M699.1,259.8c-1.1,0-1.9-0.3-2.6-1c-0.6-0.6-0.9-1.5-0.9-2.6s0.3-2,0.9-2.7c0.6-0.7,1.4-1,2.4-1
		c0.9,0,1.7,0.3,2.2,0.8c0.5,0.6,0.8,1.3,0.8,2.3v0.8h-4.7c0,0.7,0.2,1.2,0.6,1.6c0.3,0.4,0.8,0.5,1.5,0.5c0.4,0,0.8,0,1.2-0.1
		s0.7-0.2,1.2-0.4v1.2c-0.4,0.2-0.7,0.3-1.1,0.4C700,259.8,699.6,259.8,699.1,259.8z M698.8,253.7c-0.5,0-0.9,0.2-1.1,0.5
		c-0.3,0.3-0.5,0.7-0.5,1.3h3.2c0-0.6-0.1-1-0.4-1.3C699.6,253.8,699.3,253.7,698.8,253.7z"/>
	<path class="st6" d="M709.2,259.7l-0.9-3.3c-0.1-0.3-0.3-1.2-0.6-2.4h-0.1c-0.2,1.1-0.4,2-0.6,2.4l-0.9,3.3h-1.6l-2-7h1.5l0.9,3.5
		c0.2,0.9,0.3,1.6,0.4,2.2l0,0c0-0.3,0.1-0.7,0.2-1.1c0.1-0.4,0.2-0.7,0.2-0.9l1.1-3.7h1.6l1,3.7c0.1,0.2,0.1,0.5,0.2,1
		c0.1,0.4,0.2,0.8,0.2,1h0.1c0.1-0.5,0.2-1.2,0.4-2.2l0.9-3.5h1.5l-2,7H709.2z"/>
	<path class="st6" d="M723.4,259.7l-0.9-2.6H719l-0.9,2.6h-1.6l3.5-9.3h1.6l3.5,9.3H723.4z M722.1,255.8l-0.9-2.5
		c-0.1-0.2-0.2-0.4-0.3-0.8c-0.1-0.4-0.2-0.6-0.2-0.8c-0.1,0.5-0.3,1.1-0.5,1.7l-0.8,2.4L722.1,255.8L722.1,255.8z"/>
	<path class="st6" d="M732,252.7v0.8l-1.2,0.2c0.1,0.1,0.2,0.3,0.3,0.5s0.1,0.4,0.1,0.7c0,0.7-0.2,1.3-0.7,1.7
		c-0.5,0.4-1.2,0.6-2.1,0.6c-0.2,0-0.4,0-0.6-0.1c-0.3,0.2-0.5,0.4-0.5,0.7c0,0.2,0.1,0.3,0.2,0.4s0.4,0.1,0.8,0.1h1.2
		c0.8,0,1.4,0.2,1.8,0.5c0.4,0.3,0.6,0.8,0.6,1.4c0,0.8-0.3,1.4-1,1.8s-1.6,0.6-2.8,0.6c-1,0-1.7-0.2-2.2-0.5s-0.8-0.8-0.8-1.4
		c0-0.4,0.1-0.8,0.4-1.1c0.3-0.3,0.7-0.5,1.1-0.6c-0.2-0.1-0.4-0.2-0.5-0.4c-0.1-0.2-0.2-0.4-0.2-0.6c0-0.3,0.1-0.5,0.2-0.7
		c0.1-0.2,0.4-0.4,0.7-0.5c-0.4-0.2-0.7-0.4-0.9-0.8c-0.2-0.4-0.3-0.8-0.3-1.2c0-0.8,0.2-1.4,0.7-1.8c0.5-0.4,1.2-0.6,2.1-0.6
		c0.2,0,0.4,0,0.6,0c0.2,0,0.4,0.1,0.5,0.1h2.5V252.7z M726.5,260.8c0,0.3,0.1,0.6,0.4,0.7c0.3,0.2,0.7,0.3,1.2,0.3
		c0.8,0,1.4-0.1,1.8-0.3c0.4-0.2,0.6-0.5,0.6-0.9c0-0.3-0.1-0.5-0.3-0.6s-0.6-0.2-1.2-0.2h-1.1c-0.4,0-0.8,0.1-1,0.3
		C726.6,260.2,726.5,260.5,726.5,260.8z M727.1,255c0,0.4,0.1,0.8,0.3,1c0.2,0.2,0.6,0.4,1,0.4c0.9,0,1.3-0.5,1.3-1.4
		c0-0.5-0.1-0.8-0.3-1.1c-0.2-0.2-0.5-0.4-1-0.4c-0.4,0-0.8,0.1-1,0.4C727.2,254.1,727.1,254.5,727.1,255z"/>
	<path class="st6" d="M736.3,259.8c-1.1,0-1.9-0.3-2.6-1c-0.6-0.6-0.9-1.5-0.9-2.6s0.3-2,0.9-2.7c0.6-0.7,1.4-1,2.4-1
		c0.9,0,1.7,0.3,2.2,0.8c0.5,0.6,0.8,1.3,0.8,2.3v0.8h-4.7c0,0.7,0.2,1.2,0.6,1.6c0.3,0.4,0.8,0.5,1.5,0.5c0.4,0,0.8,0,1.2-0.1
		s0.7-0.2,1.2-0.4v1.2c-0.4,0.2-0.7,0.3-1.1,0.4C737.3,259.8,736.8,259.8,736.3,259.8z M736.1,253.7c-0.5,0-0.9,0.2-1.1,0.5
		c-0.3,0.3-0.5,0.7-0.5,1.3h3.2c0-0.6-0.1-1-0.4-1.3C736.9,253.8,736.6,253.7,736.1,253.7z"/>
	<path class="st6" d="M750.1,259.7l-0.9-2.6h-3.5l-0.9,2.6h-1.6l3.5-9.3h1.6l3.5,9.3H750.1z M748.7,255.8l-0.9-2.5
		c-0.1-0.2-0.2-0.4-0.3-0.8c-0.1-0.4-0.2-0.6-0.2-0.8c-0.1,0.5-0.3,1.1-0.5,1.7l-0.8,2.4L748.7,255.8L748.7,255.8z"/>
	<path class="st6" d="M754.2,259.7h-1.5v-9.9h1.5V259.7z"/>
	<path class="st6" d="M759.9,259.8c-0.9,0-1.6-0.3-2.1-1h-0.1c0.1,0.6,0.1,1,0.1,1.1v2.9h-1.5v-10.1h1.2c0,0.1,0.1,0.4,0.2,0.9h0.1
		c0.5-0.7,1.2-1.1,2.1-1.1c0.9,0,1.6,0.3,2,1s0.7,1.5,0.7,2.7c0,1.1-0.2,2-0.7,2.7S760.8,259.8,759.9,259.8z M759.5,253.8
		c-0.6,0-1,0.2-1.3,0.5s-0.4,0.9-0.4,1.7v0.2c0,0.9,0.1,1.5,0.4,1.9c0.3,0.4,0.7,0.6,1.3,0.6c0.5,0,0.9-0.2,1.2-0.6s0.4-1,0.4-1.8
		c0-0.8-0.1-1.4-0.4-1.8C760.5,254,760.1,253.8,759.5,253.8z"/>
	<path class="st6" d="M770.6,259.7h-1.5v-4.3c0-0.5-0.1-0.9-0.3-1.2s-0.6-0.4-1-0.4c-0.6,0-1.1,0.2-1.4,0.6c-0.3,0.4-0.4,1-0.4,1.9
		v3.5h-1.5v-9.9h1.5v2.5c0,0.4,0,0.8-0.1,1.3h0.1c0.2-0.3,0.5-0.6,0.8-0.8c0.4-0.2,0.8-0.3,1.3-0.3c1.7,0,2.5,0.9,2.5,2.6
		L770.6,259.7L770.6,259.7z"/>
	<path class="st6" d="M777.1,259.7l-0.3-1h-0.1c-0.3,0.4-0.7,0.7-1,0.9c-0.3,0.2-0.8,0.2-1.3,0.2c-0.7,0-1.2-0.2-1.6-0.6
		c-0.4-0.4-0.6-0.9-0.6-1.6s0.3-1.3,0.8-1.6c0.5-0.4,1.4-0.6,2.5-0.6h1.2V255c0-0.4-0.1-0.8-0.3-1s-0.5-0.3-1-0.3
		c-0.4,0-0.7,0.1-1,0.2c-0.3,0.1-0.6,0.2-1,0.4l-0.5-1.1c0.4-0.2,0.8-0.4,1.2-0.5c0.5-0.1,0.9-0.2,1.3-0.2c0.9,0,1.6,0.2,2,0.6
		c0.5,0.4,0.7,1,0.7,1.8v4.7h-1V259.7z M774.9,258.7c0.5,0,1-0.2,1.3-0.5s0.5-0.7,0.5-1.3v-0.6h-0.9c-0.7,0-1.2,0.1-1.5,0.4
		c-0.3,0.2-0.5,0.5-0.5,1c0,0.3,0.1,0.6,0.3,0.7S774.5,258.7,774.9,258.7z"/>
	<path class="st6" d="M791,250.4v6c0,0.7-0.1,1.3-0.4,1.8c-0.3,0.5-0.7,0.9-1.3,1.2c-0.6,0.3-1.2,0.4-2,0.4c-1.1,0-2-0.3-2.7-0.9
		c-0.6-0.6-1-1.4-1-2.5v-6h1.5v5.9c0,0.8,0.2,1.3,0.5,1.7c0.4,0.4,0.9,0.5,1.6,0.5c1.4,0,2.1-0.8,2.1-2.3v-5.9L791,250.4L791,250.4z
		"/>
	<path class="st6" d="M800.5,259.7h-1.8l-2.9-4.2l-0.9,0.7v3.5h-1.5v-9.3h1.5v4.4c0.4-0.5,0.8-1,1.2-1.5l2.5-3h1.7
		c-1.6,1.9-2.8,3.3-3.5,4.1L800.5,259.7z"/>
</g>
<g class="st1">
	<path class="st6" d="M701.8,281.1v-9.3h1.5v8h3.9v1.3H701.8z"/>
	<path class="st6" d="M711.7,281.2c-1.1,0-1.9-0.3-2.6-1c-0.6-0.6-0.9-1.5-0.9-2.6s0.3-2,0.9-2.7c0.6-0.7,1.4-1,2.4-1
		c0.9,0,1.7,0.3,2.2,0.8c0.5,0.6,0.8,1.3,0.8,2.3v0.8h-4.7c0,0.7,0.2,1.2,0.6,1.6c0.3,0.4,0.8,0.5,1.5,0.5c0.4,0,0.8,0,1.2-0.1
		s0.7-0.2,1.2-0.4v1.2c-0.4,0.2-0.7,0.3-1.1,0.4C712.6,281.2,712.2,281.2,711.7,281.2z M711.4,275c-0.5,0-0.9,0.2-1.1,0.5
		c-0.3,0.3-0.5,0.7-0.5,1.3h3.2c0-0.6-0.1-1-0.4-1.3S711.9,275,711.4,275z"/>
	<path class="st6" d="M720.5,281.1l-0.3-1h-0.1c-0.3,0.4-0.7,0.7-1,0.9c-0.3,0.2-0.8,0.2-1.3,0.2c-0.7,0-1.2-0.2-1.6-0.6
		c-0.4-0.4-0.6-0.9-0.6-1.6s0.3-1.3,0.8-1.6c0.5-0.4,1.4-0.6,2.5-0.6h1.2v-0.4c0-0.4-0.1-0.8-0.3-1s-0.5-0.3-1-0.3
		c-0.4,0-0.7,0.1-1,0.2s-0.6,0.2-1,0.4l-0.5-1.1c0.4-0.2,0.8-0.4,1.2-0.5c0.5-0.1,0.9-0.2,1.3-0.2c0.9,0,1.6,0.2,2,0.6
		c0.5,0.4,0.7,1,0.7,1.8v4.7h-1V281.1z M718.3,280c0.5,0,1-0.2,1.3-0.5s0.5-0.7,0.5-1.3v-0.6h-0.9c-0.7,0-1.2,0.1-1.5,0.4
		c-0.3,0.2-0.5,0.5-0.5,1c0,0.3,0.1,0.6,0.3,0.7C717.6,280,717.9,280,718.3,280z"/>
	<path class="st6" d="M726,281.2c-0.9,0-1.6-0.3-2-1c-0.5-0.6-0.7-1.5-0.7-2.7c0-1.1,0.2-2,0.7-2.7c0.5-0.6,1.2-1,2.1-1
		c0.9,0,1.6,0.3,2.1,1h0.1c-0.1-0.5-0.1-0.9-0.1-1.2V271h1.5v9.9h-1.2l-0.3-0.9h-0.1C727.6,280.8,726.9,281.2,726,281.2z M726.4,280
		c0.6,0,1.1-0.2,1.3-0.5c0.3-0.3,0.4-0.9,0.4-1.7v-0.2c0-0.9-0.1-1.5-0.4-1.9c-0.3-0.4-0.7-0.6-1.4-0.6c-0.5,0-0.9,0.2-1.2,0.6
		s-0.4,1-0.4,1.8s0.1,1.4,0.4,1.8S725.9,280,726.4,280z"/>
	<path class="st6" d="M731.7,272.2c0-0.3,0.1-0.5,0.2-0.6c0.1-0.1,0.4-0.2,0.6-0.2c0.3,0,0.5,0.1,0.6,0.2s0.2,0.3,0.2,0.6
		c0,0.3-0.1,0.5-0.2,0.6c-0.1,0.1-0.3,0.2-0.6,0.2s-0.5-0.1-0.6-0.2C731.7,272.6,731.7,272.4,731.7,272.2z M733.2,281.1h-1.5v-7h1.5
		V281.1z"/>
	<path class="st6" d="M741.5,281.1H740v-4.3c0-0.5-0.1-0.9-0.3-1.2c-0.2-0.3-0.6-0.4-1-0.4c-0.6,0-1.1,0.2-1.4,0.6s-0.4,1-0.4,1.9
		v3.5h-1.5v-7h1.2l0.2,0.9h0.1c0.2-0.3,0.5-0.6,0.9-0.8c0.4-0.2,0.8-0.3,1.3-0.3c1.7,0,2.5,0.9,2.5,2.6L741.5,281.1L741.5,281.1z"/>
	<path class="st6" d="M749.5,274v0.8l-1.2,0.2c0.1,0.1,0.2,0.3,0.3,0.5s0.1,0.4,0.1,0.7c0,0.7-0.2,1.3-0.7,1.7
		c-0.5,0.4-1.2,0.6-2.1,0.6c-0.2,0-0.4,0-0.6-0.1c-0.3,0.2-0.5,0.4-0.5,0.7c0,0.2,0.1,0.3,0.2,0.4c0.1,0.1,0.4,0.1,0.8,0.1h1.2
		c0.8,0,1.4,0.2,1.8,0.5c0.4,0.3,0.6,0.8,0.6,1.4c0,0.8-0.3,1.4-1,1.8s-1.6,0.6-2.8,0.6c-1,0-1.7-0.2-2.2-0.5s-0.8-0.8-0.8-1.4
		c0-0.4,0.1-0.8,0.4-1.1c0.3-0.3,0.7-0.5,1.1-0.6c-0.2-0.1-0.4-0.2-0.5-0.4c-0.1-0.2-0.2-0.4-0.2-0.6c0-0.3,0.1-0.5,0.2-0.7
		c0.1-0.2,0.4-0.4,0.7-0.5c-0.4-0.2-0.7-0.4-0.9-0.8s-0.3-0.8-0.3-1.2c0-0.8,0.2-1.4,0.7-1.8s1.2-0.6,2.1-0.6c0.2,0,0.4,0,0.6,0
		c0.2,0,0.4,0.1,0.5,0.1h2.5V274z M744,282.1c0,0.3,0.1,0.6,0.4,0.7c0.3,0.2,0.7,0.3,1.2,0.3c0.8,0,1.4-0.1,1.8-0.3
		c0.4-0.2,0.6-0.5,0.6-0.9c0-0.3-0.1-0.5-0.3-0.6s-0.6-0.2-1.2-0.2h-1.1c-0.4,0-0.8,0.1-1,0.3C744.1,281.5,744,281.8,744,282.1z
		 M744.7,276.3c0,0.4,0.1,0.8,0.3,1s0.6,0.4,1,0.4c0.9,0,1.3-0.5,1.3-1.4c0-0.5-0.1-0.8-0.3-1.1c-0.2-0.2-0.5-0.4-1-0.4
		c-0.4,0-0.8,0.1-1,0.4C744.8,275.5,744.7,275.8,744.7,276.3z"/>
	<path class="st6" d="M754.4,281.1v-9.3h1.5v9.3H754.4z"/>
	<path class="st6" d="M764.3,281.1h-1.5v-4.3c0-0.5-0.1-0.9-0.3-1.2c-0.2-0.3-0.6-0.4-1-0.4c-0.6,0-1.1,0.2-1.4,0.6
		c-0.3,0.4-0.4,1-0.4,1.9v3.5h-1.5v-7h1.2l0.2,0.9h0.1c0.2-0.3,0.5-0.6,0.9-0.8c0.4-0.2,0.8-0.3,1.3-0.3c1.7,0,2.5,0.9,2.5,2.6
		L764.3,281.1L764.3,281.1z"/>
	<path class="st6" d="M768.8,281.2c-0.9,0-1.6-0.3-2-1c-0.5-0.6-0.7-1.5-0.7-2.7c0-1.1,0.2-2,0.7-2.7c0.5-0.6,1.2-1,2.1-1
		c0.9,0,1.6,0.3,2.1,1h0.1c-0.1-0.5-0.1-0.9-0.1-1.2V271h1.5v9.9h-1.2L771,280h-0.1C770.4,280.8,769.7,281.2,768.8,281.2z
		 M769.2,280c0.6,0,1.1-0.2,1.3-0.5c0.3-0.3,0.4-0.9,0.4-1.7v-0.2c0-0.9-0.1-1.5-0.4-1.9c-0.3-0.4-0.7-0.6-1.4-0.6
		c-0.5,0-0.9,0.2-1.2,0.6s-0.4,1-0.4,1.8s0.1,1.4,0.4,1.8S768.6,280,769.2,280z"/>
	<path class="st6" d="M777.6,281.2c-1.1,0-1.9-0.3-2.6-1c-0.6-0.6-0.9-1.5-0.9-2.6s0.3-2,0.9-2.7c0.6-0.7,1.4-1,2.4-1
		c0.9,0,1.7,0.3,2.2,0.8c0.5,0.6,0.8,1.3,0.8,2.3v0.8h-4.7c0,0.7,0.2,1.2,0.6,1.6c0.3,0.4,0.8,0.5,1.5,0.5c0.4,0,0.8,0,1.2-0.1
		s0.7-0.2,1.2-0.4v1.2c-0.4,0.2-0.7,0.3-1.1,0.4S778,281.2,777.6,281.2z M777.3,275c-0.5,0-0.9,0.2-1.1,0.5
		c-0.3,0.3-0.5,0.7-0.5,1.3h3.2c0-0.6-0.1-1-0.4-1.3C778.1,275.2,777.8,275,777.3,275z"/>
	<path class="st6" d="M783.5,277.5l-2.4-3.4h1.7l1.6,2.5l1.6-2.5h1.7l-2.4,3.4l2.5,3.6h-1.7l-1.7-2.6l-1.7,2.6H781L783.5,277.5z"/>
</g>
<rect x="-7.5" y="-213.5" class="st2" width="50" height="52.8"/>
<rect x="847.5" y="-213.5" class="st2" width="50" height="52.8"/>
<g>
	<path class="st2" d="M190.4,309.7c0-0.5,0.1-0.9,0.4-1.1s0.6-0.4,1-0.4c0.4,0,0.8,0.1,1,0.4c0.2,0.3,0.4,0.6,0.4,1.1
		c0,0.5-0.1,0.9-0.4,1.1c-0.2,0.3-0.6,0.4-1,0.4c-0.4,0-0.8-0.1-1-0.4C190.5,310.6,190.4,310.2,190.4,309.7z"/>
	<path class="st2" d="M197.4,313.8v-7.9h1.3v7.9H197.4z"/>
	<path class="st2" d="M205.6,313.8h-1.3v-3.7c0-0.5-0.1-0.8-0.3-1c-0.2-0.2-0.5-0.3-0.9-0.3c-0.5,0-0.9,0.2-1.2,0.5
		s-0.4,0.8-0.4,1.6v3h-1.2v-5.9h1l0.2,0.8h0.1c0.2-0.3,0.4-0.5,0.8-0.7c0.3-0.2,0.7-0.2,1.1-0.2c1.4,0,2.1,0.7,2.1,2.2V313.8z"/>
	<path class="st2" d="M209.1,313.9c-0.7,0-1.3-0.3-1.7-0.8s-0.6-1.3-0.6-2.3c0-1,0.2-1.7,0.6-2.3c0.4-0.5,1-0.8,1.7-0.8
		c0.8,0,1.4,0.3,1.8,0.9h0.1c-0.1-0.4-0.1-0.8-0.1-1v-2.2h1.3v8.4h-1L211,313h-0.1C210.5,313.6,209.9,313.9,209.1,313.9z
		 M209.5,312.8c0.5,0,0.9-0.1,1.1-0.4c0.2-0.3,0.4-0.8,0.4-1.4v-0.2c0-0.7-0.1-1.3-0.4-1.6c-0.2-0.3-0.6-0.5-1.1-0.5
		c-0.4,0-0.8,0.2-1,0.5c-0.2,0.4-0.4,0.9-0.4,1.5c0,0.7,0.1,1.2,0.3,1.5S209,312.8,209.5,312.8z"/>
	<path class="st2" d="M213.7,306.2c0-0.2,0.1-0.4,0.2-0.5c0.1-0.1,0.3-0.2,0.5-0.2c0.2,0,0.4,0.1,0.5,0.2c0.1,0.1,0.2,0.3,0.2,0.5
		c0,0.2-0.1,0.4-0.2,0.5c-0.1,0.1-0.3,0.2-0.5,0.2c-0.2,0-0.4-0.1-0.5-0.2C213.8,306.6,213.7,306.5,213.7,306.2z M215,313.8h-1.2
		v-5.9h1.2V313.8z"/>
	<path class="st2" d="M218,313.8l-2.2-5.9h1.3l1.2,3.5c0.2,0.6,0.3,1,0.4,1.4h0c0-0.3,0.2-0.7,0.4-1.4l1.2-3.5h1.3l-2.2,5.9H218z"/>
	<path class="st2" d="M222.3,306.2c0-0.2,0.1-0.4,0.2-0.5c0.1-0.1,0.3-0.2,0.5-0.2c0.2,0,0.4,0.1,0.5,0.2c0.1,0.1,0.2,0.3,0.2,0.5
		c0,0.2-0.1,0.4-0.2,0.5c-0.1,0.1-0.3,0.2-0.5,0.2c-0.2,0-0.4-0.1-0.5-0.2C222.3,306.6,222.3,306.5,222.3,306.2z M223.6,313.8h-1.2
		v-5.9h1.2V313.8z"/>
	<path class="st2" d="M227.2,313.9c-0.7,0-1.3-0.3-1.7-0.8s-0.6-1.3-0.6-2.3c0-1,0.2-1.7,0.6-2.3c0.4-0.5,1-0.8,1.7-0.8
		c0.8,0,1.4,0.3,1.8,0.9h0.1c-0.1-0.4-0.1-0.8-0.1-1v-2.2h1.3v8.4h-1L229,313H229C228.6,313.6,228,313.9,227.2,313.9z M227.6,312.8
		c0.5,0,0.9-0.1,1.1-0.4c0.2-0.3,0.4-0.8,0.4-1.4v-0.2c0-0.7-0.1-1.3-0.4-1.6c-0.2-0.3-0.6-0.5-1.1-0.5c-0.4,0-0.8,0.2-1,0.5
		c-0.2,0.4-0.4,0.9-0.4,1.5c0,0.7,0.1,1.2,0.3,1.5S227.1,312.8,227.6,312.8z"/>
	<path class="st2" d="M236,313.8l-0.2-0.8h-0.1c-0.2,0.3-0.4,0.5-0.7,0.7c-0.3,0.2-0.7,0.2-1.1,0.2c-0.7,0-1.2-0.2-1.6-0.5
		c-0.4-0.4-0.5-0.9-0.5-1.6v-3.9h1.3v3.7c0,0.5,0.1,0.8,0.3,1c0.2,0.2,0.5,0.3,0.9,0.3c0.5,0,0.9-0.2,1.2-0.5
		c0.2-0.3,0.4-0.8,0.4-1.6v-3h1.3v5.9H236z"/>
	<path class="st2" d="M242.3,313.8l-0.2-0.8h0c-0.3,0.4-0.6,0.6-0.9,0.7s-0.7,0.2-1.1,0.2c-0.6,0-1-0.2-1.4-0.5
		c-0.3-0.3-0.5-0.8-0.5-1.3c0-0.6,0.2-1.1,0.7-1.4c0.5-0.3,1.1-0.5,2.1-0.5l1,0v-0.3c0-0.4-0.1-0.7-0.3-0.9
		c-0.2-0.2-0.4-0.3-0.8-0.3c-0.3,0-0.6,0-0.9,0.1c-0.3,0.1-0.5,0.2-0.8,0.3l-0.4-0.9c0.3-0.2,0.7-0.3,1-0.4s0.7-0.1,1.1-0.1
		c0.7,0,1.3,0.2,1.7,0.5c0.4,0.3,0.6,0.8,0.6,1.6v4H242.3z M240.4,312.9c0.5,0,0.8-0.1,1.1-0.4c0.3-0.3,0.4-0.6,0.4-1.1v-0.5l-0.8,0
		c-0.6,0-1,0.1-1.3,0.3c-0.3,0.2-0.4,0.4-0.4,0.8c0,0.3,0.1,0.5,0.2,0.6C239.9,312.8,240.1,312.9,240.4,312.9z"/>
	<path class="st2" d="M246,313.8h-1.2v-8.4h1.2V313.8z"/>
	<path class="st2" d="M254.3,312.1c0,0.6-0.2,1-0.6,1.3c-0.4,0.3-1,0.5-1.8,0.5c-0.8,0-1.4-0.1-1.9-0.4v-1.1
		c0.7,0.3,1.3,0.5,1.9,0.5c0.8,0,1.2-0.2,1.2-0.7c0-0.2,0-0.3-0.1-0.4c-0.1-0.1-0.2-0.2-0.4-0.3c-0.2-0.1-0.5-0.2-0.8-0.4
		c-0.7-0.3-1.1-0.5-1.4-0.8c-0.2-0.3-0.4-0.6-0.4-1c0-0.5,0.2-0.9,0.6-1.2s1-0.4,1.7-0.4c0.7,0,1.3,0.1,2,0.4l-0.4,1
		c-0.6-0.3-1.2-0.4-1.6-0.4c-0.7,0-1,0.2-1,0.6c0,0.2,0.1,0.3,0.3,0.5s0.5,0.3,1.1,0.5c0.5,0.2,0.8,0.4,1.1,0.5s0.4,0.3,0.5,0.5
		S254.3,311.8,254.3,312.1z"/>
	<path class="st2" d="M257.7,312.8c0.3,0,0.6,0,0.9-0.1v1c-0.1,0.1-0.3,0.1-0.5,0.2c-0.2,0-0.4,0.1-0.7,0.1c-1.2,0-1.8-0.6-1.8-1.9
		v-3.2h-0.8v-0.6l0.9-0.5l0.4-1.3h0.8v1.3h1.7v1h-1.7v3.2c0,0.3,0.1,0.5,0.2,0.7C257.2,312.8,257.4,312.8,257.7,312.8z"/>
	<path class="st2" d="M264.8,310.8c0,1-0.2,1.7-0.7,2.3s-1.2,0.8-2.1,0.8c-0.5,0-1-0.1-1.5-0.4c-0.4-0.3-0.7-0.6-1-1.1
		c-0.2-0.5-0.3-1-0.3-1.6c0-1,0.2-1.7,0.7-2.3c0.5-0.5,1.2-0.8,2.1-0.8c0.9,0,1.5,0.3,2,0.8C264.6,309.1,264.8,309.8,264.8,310.8z
		 M260.6,310.8c0,1.4,0.5,2.1,1.5,2.1c1,0,1.5-0.7,1.5-2.1c0-1.4-0.5-2-1.5-2c-0.5,0-0.9,0.2-1.1,0.5S260.6,310.1,260.6,310.8z"/>
	<path class="st2" d="M268.5,313.9c-0.9,0-1.6-0.3-2-0.8c-0.5-0.5-0.7-1.3-0.7-2.3c0-1,0.2-1.8,0.7-2.3s1.2-0.8,2.1-0.8
		c0.6,0,1.2,0.1,1.7,0.3l-0.4,1c-0.5-0.2-1-0.3-1.3-0.3c-1,0-1.5,0.7-1.5,2c0,0.7,0.1,1.2,0.4,1.5s0.6,0.5,1.1,0.5
		c0.6,0,1.1-0.1,1.6-0.4v1.1c-0.2,0.1-0.5,0.2-0.7,0.3S268.9,313.9,268.5,313.9z"/>
	<path class="st2" d="M272.6,310.6l0.7-0.9l1.8-1.9h1.4l-2.4,2.6l2.5,3.4h-1.5l-1.9-2.6l-0.7,0.6v2h-1.2v-8.4h1.2v4.1L272.6,310.6
		L272.6,310.6z"/>
	<path class="st2" d="M281.4,312.1c0,0.6-0.2,1-0.6,1.3c-0.4,0.3-1,0.5-1.8,0.5c-0.8,0-1.4-0.1-1.9-0.4v-1.1
		c0.7,0.3,1.3,0.5,1.9,0.5c0.8,0,1.2-0.2,1.2-0.7c0-0.2,0-0.3-0.1-0.4c-0.1-0.1-0.2-0.2-0.4-0.3c-0.2-0.1-0.5-0.2-0.8-0.4
		c-0.7-0.3-1.1-0.5-1.4-0.8c-0.2-0.3-0.4-0.6-0.4-1c0-0.5,0.2-0.9,0.6-1.2s1-0.4,1.7-0.4c0.7,0,1.3,0.1,2,0.4l-0.4,1
		c-0.6-0.3-1.2-0.4-1.6-0.4c-0.7,0-1,0.2-1,0.6c0,0.2,0.1,0.3,0.3,0.5s0.5,0.3,1.1,0.5c0.5,0.2,0.8,0.4,1.1,0.5s0.4,0.3,0.5,0.5
		S281.4,311.8,281.4,312.1z"/>
	<path class="st2" d="M290.2,313.8H289v-3.7c0-0.5-0.1-0.8-0.3-1c-0.2-0.2-0.4-0.3-0.8-0.3c-0.5,0-0.8,0.2-1.1,0.5
		c-0.2,0.3-0.3,0.8-0.3,1.6v3h-1.2v-5.9h1l0.2,0.8h0.1c0.2-0.3,0.4-0.5,0.7-0.7c0.3-0.2,0.7-0.2,1-0.2c0.9,0,1.5,0.3,1.8,0.9h0.1
		c0.2-0.3,0.4-0.5,0.7-0.7s0.7-0.2,1.1-0.2c0.7,0,1.2,0.2,1.5,0.5s0.5,0.9,0.5,1.6v3.9h-1.2v-3.7c0-0.5-0.1-0.8-0.3-1
		s-0.4-0.3-0.8-0.3c-0.5,0-0.8,0.2-1.1,0.5c-0.2,0.3-0.3,0.8-0.3,1.4V313.8z"/>
	<path class="st2" d="M299.7,313.8l-0.2-0.8h-0.1c-0.2,0.3-0.4,0.5-0.7,0.7c-0.3,0.2-0.7,0.2-1.1,0.2c-0.7,0-1.2-0.2-1.6-0.5
		c-0.4-0.4-0.5-0.9-0.5-1.6v-3.9h1.3v3.7c0,0.5,0.1,0.8,0.3,1c0.2,0.2,0.5,0.3,0.9,0.3c0.5,0,0.9-0.2,1.2-0.5
		c0.2-0.3,0.4-0.8,0.4-1.6v-3h1.3v5.9H299.7z"/>
	<path class="st2" d="M306.2,312.1c0,0.6-0.2,1-0.6,1.3c-0.4,0.3-1,0.5-1.8,0.5c-0.8,0-1.4-0.1-1.9-0.4v-1.1
		c0.7,0.3,1.3,0.5,1.9,0.5c0.8,0,1.2-0.2,1.2-0.7c0-0.2,0-0.3-0.1-0.4c-0.1-0.1-0.2-0.2-0.4-0.3c-0.2-0.1-0.5-0.2-0.8-0.4
		c-0.7-0.3-1.1-0.5-1.4-0.8c-0.2-0.3-0.4-0.6-0.4-1c0-0.5,0.2-0.9,0.6-1.2s1-0.4,1.7-0.4c0.7,0,1.3,0.1,2,0.4l-0.4,1
		c-0.6-0.3-1.2-0.4-1.6-0.4c-0.7,0-1,0.2-1,0.6c0,0.2,0.1,0.3,0.3,0.5s0.5,0.3,1.1,0.5c0.5,0.2,0.8,0.4,1.1,0.5s0.4,0.3,0.5,0.5
		S306.2,311.8,306.2,312.1z"/>
	<path class="st2" d="M309.6,312.8c0.3,0,0.6,0,0.9-0.1v1c-0.1,0.1-0.3,0.1-0.5,0.2c-0.2,0-0.4,0.1-0.7,0.1c-1.2,0-1.8-0.6-1.8-1.9
		v-3.2h-0.8v-0.6l0.9-0.5l0.4-1.3h0.8v1.3h1.7v1h-1.7v3.2c0,0.3,0.1,0.5,0.2,0.7C309.2,312.8,309.4,312.8,309.6,312.8z"/>
	<path class="st2" d="M319.4,313.8h-1.3v-3.7c0-0.5-0.1-0.8-0.3-1c-0.2-0.2-0.5-0.3-0.9-0.3c-0.5,0-0.9,0.2-1.2,0.5
		c-0.2,0.3-0.4,0.8-0.4,1.6v2.9h-1.2v-8.4h1.2v2.1c0,0.3,0,0.7-0.1,1.1h0.1c0.2-0.3,0.4-0.5,0.7-0.7s0.7-0.2,1.1-0.2
		c1.4,0,2.1,0.7,2.1,2.2V313.8z"/>
	<path class="st2" d="M324.7,313.8l-0.2-0.8h0c-0.3,0.4-0.6,0.6-0.9,0.7s-0.7,0.2-1.1,0.2c-0.6,0-1-0.2-1.4-0.5
		c-0.3-0.3-0.5-0.8-0.5-1.3c0-0.6,0.2-1.1,0.7-1.4c0.5-0.3,1.1-0.5,2.1-0.5l1,0v-0.3c0-0.4-0.1-0.7-0.3-0.9
		c-0.2-0.2-0.4-0.3-0.8-0.3c-0.3,0-0.6,0-0.9,0.1c-0.3,0.1-0.5,0.2-0.8,0.3l-0.4-0.9c0.3-0.2,0.7-0.3,1-0.4s0.7-0.1,1.1-0.1
		c0.7,0,1.3,0.2,1.7,0.5c0.4,0.3,0.6,0.8,0.6,1.6v4H324.7z M322.8,312.9c0.5,0,0.8-0.1,1.1-0.4c0.3-0.3,0.4-0.6,0.4-1.1v-0.5l-0.8,0
		c-0.6,0-1,0.1-1.3,0.3c-0.3,0.2-0.4,0.4-0.4,0.8c0,0.3,0.1,0.5,0.2,0.6C322.3,312.8,322.5,312.9,322.8,312.9z"/>
	<path class="st2" d="M328.5,313.8l-2.2-5.9h1.3l1.2,3.5c0.2,0.6,0.3,1,0.4,1.4h0c0-0.3,0.2-0.7,0.4-1.4l1.2-3.5h1.3l-2.2,5.9H328.5
		z"/>
	<path class="st2" d="M335.4,313.9c-0.9,0-1.6-0.3-2.1-0.8c-0.5-0.5-0.8-1.3-0.8-2.2c0-1,0.2-1.7,0.7-2.3c0.5-0.6,1.1-0.8,2-0.8
		c0.8,0,1.4,0.2,1.8,0.7c0.5,0.5,0.7,1.1,0.7,2v0.7h-3.9c0,0.6,0.2,1,0.5,1.3c0.3,0.3,0.7,0.5,1.2,0.5c0.3,0,0.7,0,1-0.1
		c0.3-0.1,0.6-0.2,1-0.3v1c-0.3,0.1-0.6,0.3-0.9,0.3C336.2,313.8,335.8,313.9,335.4,313.9z M335.2,308.7c-0.4,0-0.7,0.1-1,0.4
		c-0.2,0.3-0.4,0.6-0.4,1.1h2.7c0-0.5-0.1-0.9-0.4-1.1C335.9,308.8,335.6,308.7,335.2,308.7z"/>
	<path class="st2" d="M345.3,313.8l-0.2-0.8h0c-0.3,0.4-0.6,0.6-0.9,0.7s-0.7,0.2-1.1,0.2c-0.6,0-1-0.2-1.4-0.5
		c-0.3-0.3-0.5-0.8-0.5-1.3c0-0.6,0.2-1.1,0.7-1.4c0.5-0.3,1.1-0.5,2.1-0.5l1,0v-0.3c0-0.4-0.1-0.7-0.3-0.9
		c-0.2-0.2-0.4-0.3-0.8-0.3c-0.3,0-0.6,0-0.9,0.1c-0.3,0.1-0.5,0.2-0.8,0.3l-0.4-0.9c0.3-0.2,0.7-0.3,1-0.4s0.7-0.1,1.1-0.1
		c0.7,0,1.3,0.2,1.7,0.5c0.4,0.3,0.6,0.8,0.6,1.6v4H345.3z M343.5,312.9c0.5,0,0.8-0.1,1.1-0.4c0.3-0.3,0.4-0.6,0.4-1.1v-0.5l-0.8,0
		c-0.6,0-1,0.1-1.3,0.3c-0.3,0.2-0.4,0.4-0.4,0.8c0,0.3,0.1,0.5,0.2,0.6C342.9,312.8,343.1,312.9,343.5,312.9z"/>
	<path class="st2" d="M355.4,313.8h-1.3v-3.7c0-0.5-0.1-0.8-0.3-1c-0.2-0.2-0.4-0.3-0.8-0.3c-0.5,0-0.8,0.2-1.1,0.5
		c-0.2,0.3-0.3,0.8-0.3,1.6v3h-1.2v-5.9h1l0.2,0.8h0.1c0.2-0.3,0.4-0.5,0.7-0.7c0.3-0.2,0.7-0.2,1-0.2c0.9,0,1.5,0.3,1.8,0.9h0.1
		c0.2-0.3,0.4-0.5,0.7-0.7s0.7-0.2,1.1-0.2c0.7,0,1.2,0.2,1.5,0.5s0.5,0.9,0.5,1.6v3.9h-1.2v-3.7c0-0.5-0.1-0.8-0.3-1
		s-0.4-0.3-0.8-0.3c-0.5,0-0.8,0.2-1.1,0.5c-0.2,0.3-0.3,0.8-0.3,1.4V313.8z"/>
	<path class="st2" d="M360.7,306.2c0-0.2,0.1-0.4,0.2-0.5c0.1-0.1,0.3-0.2,0.5-0.2c0.2,0,0.4,0.1,0.5,0.2c0.1,0.1,0.2,0.3,0.2,0.5
		c0,0.2-0.1,0.4-0.2,0.5c-0.1,0.1-0.3,0.2-0.5,0.2c-0.2,0-0.4-0.1-0.5-0.2C360.7,306.6,360.7,306.5,360.7,306.2z M362,313.8h-1.2
		v-5.9h1.2V313.8z"/>
	<path class="st2" d="M368.8,313.8h-1.3v-3.7c0-0.5-0.1-0.8-0.3-1c-0.2-0.2-0.5-0.3-0.9-0.3c-0.5,0-0.9,0.2-1.2,0.5
		s-0.4,0.8-0.4,1.6v3h-1.2v-5.9h1l0.2,0.8h0.1c0.2-0.3,0.4-0.5,0.8-0.7c0.3-0.2,0.7-0.2,1.1-0.2c1.4,0,2.1,0.7,2.1,2.2V313.8z"/>
	<path class="st2" d="M370.3,306.2c0-0.2,0.1-0.4,0.2-0.5c0.1-0.1,0.3-0.2,0.5-0.2c0.2,0,0.4,0.1,0.5,0.2c0.1,0.1,0.2,0.3,0.2,0.5
		c0,0.2-0.1,0.4-0.2,0.5c-0.1,0.1-0.3,0.2-0.5,0.2c-0.2,0-0.4-0.1-0.5-0.2C370.4,306.6,370.3,306.5,370.3,306.2z M371.6,313.8h-1.2
		v-5.9h1.2V313.8z"/>
	<path class="st2" d="M378.2,313.8H377v-3.7c0-0.5-0.1-0.8-0.3-1c-0.2-0.2-0.4-0.3-0.8-0.3c-0.5,0-0.8,0.2-1.1,0.5
		c-0.2,0.3-0.3,0.8-0.3,1.6v3h-1.2v-5.9h1l0.2,0.8h0.1c0.2-0.3,0.4-0.5,0.7-0.7c0.3-0.2,0.7-0.2,1-0.2c0.9,0,1.5,0.3,1.8,0.9h0.1
		c0.2-0.3,0.4-0.5,0.7-0.7s0.7-0.2,1.1-0.2c0.7,0,1.2,0.2,1.5,0.5s0.5,0.9,0.5,1.6v3.9h-1.2v-3.7c0-0.5-0.1-0.8-0.3-1
		s-0.4-0.3-0.8-0.3c-0.5,0-0.8,0.2-1.1,0.5c-0.2,0.3-0.3,0.8-0.3,1.4V313.8z"/>
	<path class="st2" d="M387.7,313.8l-0.2-0.8h-0.1c-0.2,0.3-0.4,0.5-0.7,0.7c-0.3,0.2-0.7,0.2-1.1,0.2c-0.7,0-1.2-0.2-1.6-0.5
		c-0.4-0.4-0.5-0.9-0.5-1.6v-3.9h1.3v3.7c0,0.5,0.1,0.8,0.3,1c0.2,0.2,0.5,0.3,0.9,0.3c0.5,0,0.9-0.2,1.2-0.5
		c0.2-0.3,0.4-0.8,0.4-1.6v-3h1.3v5.9H387.7z"/>
	<path class="st2" d="M395.2,313.8H394v-3.7c0-0.5-0.1-0.8-0.3-1c-0.2-0.2-0.4-0.3-0.8-0.3c-0.5,0-0.8,0.2-1.1,0.5
		c-0.2,0.3-0.3,0.8-0.3,1.6v3h-1.2v-5.9h1l0.2,0.8h0.1c0.2-0.3,0.4-0.5,0.7-0.7c0.3-0.2,0.7-0.2,1-0.2c0.9,0,1.5,0.3,1.8,0.9h0.1
		c0.2-0.3,0.4-0.5,0.7-0.7s0.7-0.2,1.1-0.2c0.7,0,1.2,0.2,1.5,0.5s0.5,0.9,0.5,1.6v3.9h-1.2v-3.7c0-0.5-0.1-0.8-0.3-1
		s-0.4-0.3-0.8-0.3c-0.5,0-0.8,0.2-1.1,0.5c-0.2,0.3-0.3,0.8-0.3,1.4V313.8z"/>
	<path class="st2" d="M211,326.8c0,1-0.2,1.7-0.7,2.3s-1.2,0.8-2.1,0.8c-0.5,0-1-0.1-1.5-0.4c-0.4-0.3-0.7-0.6-1-1.1
		c-0.2-0.5-0.3-1-0.3-1.6c0-1,0.2-1.7,0.7-2.3c0.5-0.5,1.2-0.8,2.1-0.8c0.9,0,1.5,0.3,2,0.8C210.7,325.1,211,325.8,211,326.8z
		 M206.7,326.8c0,1.4,0.5,2.1,1.5,2.1c1,0,1.5-0.7,1.5-2.1c0-1.4-0.5-2-1.5-2c-0.5,0-0.9,0.2-1.1,0.5S206.7,326.1,206.7,326.8z"/>
	<path class="st2" d="M215.2,324.8h-1.4v5h-1.3v-5h-1v-0.6l1-0.4v-0.4c0-0.7,0.2-1.2,0.5-1.6c0.3-0.3,0.8-0.5,1.5-0.5
		c0.4,0,0.9,0.1,1.3,0.2l-0.3,1c-0.3-0.1-0.6-0.2-0.9-0.2c-0.3,0-0.5,0.1-0.6,0.3c-0.1,0.2-0.2,0.4-0.2,0.8v0.4h1.4V324.8z"/>
	<path class="st2" d="M223.5,327.3c0,0.5-0.2,0.9-0.6,1.3c-0.4,0.3-0.9,0.5-1.6,0.6v1.2h-0.7v-1.1c-0.9,0-1.6-0.2-2.2-0.4v-1.1
		c0.3,0.2,0.7,0.3,1.1,0.4c0.4,0.1,0.8,0.2,1.1,0.2v-2l-0.4-0.2c-0.6-0.2-1-0.5-1.3-0.8s-0.4-0.7-0.4-1.2c0-0.5,0.2-0.9,0.6-1.2
		c0.4-0.3,0.9-0.5,1.5-0.6v-0.9h0.7v0.9c0.7,0,1.4,0.2,2,0.4l-0.4,1c-0.6-0.2-1.1-0.4-1.7-0.4v2l0.4,0.2c0.7,0.3,1.1,0.5,1.4,0.8
		C223.4,326.6,223.5,326.9,223.5,327.3z M219.7,324.1c0,0.2,0.1,0.4,0.2,0.5c0.1,0.1,0.4,0.3,0.7,0.4v-1.7c-0.3,0-0.5,0.1-0.6,0.3
		C219.8,323.7,219.7,323.9,219.7,324.1z M222.2,327.4c0-0.2-0.1-0.4-0.2-0.5c-0.1-0.1-0.4-0.3-0.7-0.4v1.7
		C221.9,328.1,222.2,327.9,222.2,327.4z"/>
	<path class="st2" d="M228.1,329.8h-1.2v-5.1c0-0.6,0-1.1,0-1.4c-0.1,0.1-0.2,0.2-0.3,0.3c-0.1,0.1-0.5,0.4-1.2,1l-0.6-0.8l2.3-1.8
		h1V329.8z"/>
	<path class="st2" d="M238.5,329.8h-1.3v-3.7c0-0.5-0.1-0.8-0.3-1c-0.2-0.2-0.4-0.3-0.8-0.3c-0.5,0-0.8,0.2-1.1,0.5
		c-0.2,0.3-0.3,0.8-0.3,1.6v3h-1.2v-5.9h1l0.2,0.8h0.1c0.2-0.3,0.4-0.5,0.7-0.7c0.3-0.2,0.7-0.2,1-0.2c0.9,0,1.5,0.3,1.8,0.9h0.1
		c0.2-0.3,0.4-0.5,0.7-0.7s0.7-0.2,1.1-0.2c0.7,0,1.2,0.2,1.5,0.5s0.5,0.9,0.5,1.6v3.9H241v-3.7c0-0.5-0.1-0.8-0.3-1
		s-0.4-0.3-0.8-0.3c-0.5,0-0.8,0.2-1.1,0.5c-0.2,0.3-0.3,0.8-0.3,1.4V329.8z"/>
	<path class="st2" d="M243.7,322.2c0-0.2,0.1-0.4,0.2-0.5c0.1-0.1,0.3-0.2,0.5-0.2c0.2,0,0.4,0.1,0.5,0.2c0.1,0.1,0.2,0.3,0.2,0.5
		c0,0.2-0.1,0.4-0.2,0.5c-0.1,0.1-0.3,0.2-0.5,0.2c-0.2,0-0.4-0.1-0.5-0.2C243.8,322.6,243.7,322.5,243.7,322.2z M245,329.8h-1.2
		v-5.9h1.2V329.8z"/>
	<path class="st2" d="M247.9,329.8h-1.2v-8.4h1.2V329.8z"/>
	<path class="st2" d="M250.8,329.8h-1.2v-8.4h1.2V329.8z"/>
	<path class="st2" d="M252.4,322.2c0-0.2,0.1-0.4,0.2-0.5c0.1-0.1,0.3-0.2,0.5-0.2c0.2,0,0.4,0.1,0.5,0.2c0.1,0.1,0.2,0.3,0.2,0.5
		c0,0.2-0.1,0.4-0.2,0.5c-0.1,0.1-0.3,0.2-0.5,0.2c-0.2,0-0.4-0.1-0.5-0.2C252.4,322.6,252.4,322.5,252.4,322.2z M253.7,329.8h-1.2
		v-5.9h1.2V329.8z"/>
	<path class="st2" d="M260.5,326.8c0,1-0.2,1.7-0.7,2.3s-1.2,0.8-2.1,0.8c-0.5,0-1-0.1-1.5-0.4c-0.4-0.3-0.7-0.6-1-1.1
		c-0.2-0.5-0.3-1-0.3-1.6c0-1,0.2-1.7,0.7-2.3c0.5-0.5,1.2-0.8,2.1-0.8c0.9,0,1.5,0.3,2,0.8C260.3,325.1,260.5,325.8,260.5,326.8z
		 M256.3,326.8c0,1.4,0.5,2.1,1.5,2.1c1,0,1.5-0.7,1.5-2.1c0-1.4-0.5-2-1.5-2c-0.5,0-0.9,0.2-1.1,0.5S256.3,326.1,256.3,326.8z"/>
	<path class="st2" d="M267,329.8h-1.3v-3.7c0-0.5-0.1-0.8-0.3-1c-0.2-0.2-0.5-0.3-0.9-0.3c-0.5,0-0.9,0.2-1.2,0.5s-0.4,0.8-0.4,1.6
		v3h-1.2v-5.9h1l0.2,0.8h0.1c0.2-0.3,0.4-0.5,0.8-0.7c0.3-0.2,0.7-0.2,1.1-0.2c1.4,0,2.1,0.7,2.1,2.2V329.8z"/>
	<path class="st2" d="M270.9,326.4c0-3.1,1.2-4.6,3.7-4.6c0.4,0,0.7,0,1,0.1v1.1c-0.3-0.1-0.6-0.1-0.9-0.1c-0.8,0-1.5,0.2-1.9,0.7
		c-0.4,0.5-0.6,1.2-0.7,2.2h0.1c0.2-0.3,0.4-0.5,0.7-0.7s0.7-0.2,1.1-0.2c0.7,0,1.3,0.2,1.6,0.7c0.4,0.4,0.6,1,0.6,1.8
		c0,0.8-0.2,1.5-0.7,2c-0.5,0.5-1.1,0.7-1.9,0.7c-0.6,0-1-0.1-1.5-0.4s-0.7-0.7-0.9-1.2S270.9,327.1,270.9,326.4z M273.6,328.8
		c0.4,0,0.8-0.1,1-0.4c0.2-0.3,0.3-0.7,0.3-1.2c0-0.5-0.1-0.8-0.3-1.1c-0.2-0.3-0.5-0.4-1-0.4c-0.3,0-0.5,0.1-0.7,0.2
		c-0.2,0.1-0.4,0.3-0.5,0.5c-0.1,0.2-0.2,0.4-0.2,0.6c0,0.5,0.1,0.9,0.4,1.3C272.8,328.7,273.2,328.8,273.6,328.8z"/>
	<path class="st2" d="M276.8,327.3v-1.1h2.7v1.1H276.8z"/>
	<path class="st2" d="M285.6,329.8h-1.3v-3.7c0-0.5-0.1-0.8-0.3-1c-0.2-0.2-0.4-0.3-0.8-0.3c-0.5,0-0.8,0.2-1.1,0.5
		c-0.2,0.3-0.3,0.8-0.3,1.6v3h-1.2v-5.9h1l0.2,0.8h0.1c0.2-0.3,0.4-0.5,0.7-0.7c0.3-0.2,0.7-0.2,1-0.2c0.9,0,1.5,0.3,1.8,0.9h0.1
		c0.2-0.3,0.4-0.5,0.7-0.7s0.7-0.2,1.1-0.2c0.7,0,1.2,0.2,1.5,0.5s0.5,0.9,0.5,1.6v3.9h-1.2v-3.7c0-0.5-0.1-0.8-0.3-1
		s-0.4-0.3-0.8-0.3c-0.5,0-0.8,0.2-1.1,0.5c-0.2,0.3-0.3,0.8-0.3,1.4V329.8z"/>
	<path class="st2" d="M296.2,326.8c0,1-0.2,1.7-0.7,2.3s-1.2,0.8-2.1,0.8c-0.5,0-1-0.1-1.5-0.4c-0.4-0.3-0.7-0.6-1-1.1
		c-0.2-0.5-0.3-1-0.3-1.6c0-1,0.2-1.7,0.7-2.3c0.5-0.5,1.2-0.8,2.1-0.8c0.9,0,1.5,0.3,2,0.8C295.9,325.1,296.2,325.8,296.2,326.8z
		 M291.9,326.8c0,1.4,0.5,2.1,1.5,2.1c1,0,1.5-0.7,1.5-2.1c0-1.4-0.5-2-1.5-2c-0.5,0-0.9,0.2-1.1,0.5S291.9,326.1,291.9,326.8z"/>
	<path class="st2" d="M302.6,329.8h-1.3v-3.7c0-0.5-0.1-0.8-0.3-1c-0.2-0.2-0.5-0.3-0.9-0.3c-0.5,0-0.9,0.2-1.2,0.5
		s-0.4,0.8-0.4,1.6v3h-1.2v-5.9h1l0.2,0.8h0.1c0.2-0.3,0.4-0.5,0.8-0.7c0.3-0.2,0.7-0.2,1.1-0.2c1.4,0,2.1,0.7,2.1,2.2V329.8z"/>
	<path class="st2" d="M306.4,328.8c0.3,0,0.6,0,0.9-0.1v1c-0.1,0.1-0.3,0.1-0.5,0.2c-0.2,0-0.4,0.1-0.7,0.1c-1.2,0-1.8-0.6-1.8-1.9
		v-3.2h-0.8v-0.6l0.9-0.5l0.4-1.3h0.8v1.3h1.7v1h-1.7v3.2c0,0.3,0.1,0.5,0.2,0.7C306,328.8,306.1,328.8,306.4,328.8z"/>
	<path class="st2" d="M313.5,329.8h-1.3v-3.7c0-0.5-0.1-0.8-0.3-1c-0.2-0.2-0.5-0.3-0.9-0.3c-0.5,0-0.9,0.2-1.2,0.5
		c-0.2,0.3-0.4,0.8-0.4,1.6v2.9h-1.2v-8.4h1.2v2.1c0,0.3,0,0.7-0.1,1.1h0.1c0.2-0.3,0.4-0.5,0.7-0.7s0.7-0.2,1.1-0.2
		c1.4,0,2.1,0.7,2.1,2.2V329.8z"/>
	<path class="st2" d="M321.4,329.8l-0.2-0.8h0c-0.3,0.4-0.6,0.6-0.9,0.7s-0.7,0.2-1.1,0.2c-0.6,0-1-0.2-1.4-0.5
		c-0.3-0.3-0.5-0.8-0.5-1.3c0-0.6,0.2-1.1,0.7-1.4c0.5-0.3,1.1-0.5,2.1-0.5l1,0v-0.3c0-0.4-0.1-0.7-0.3-0.9
		c-0.2-0.2-0.4-0.3-0.8-0.3c-0.3,0-0.6,0-0.9,0.1c-0.3,0.1-0.5,0.2-0.8,0.3l-0.4-0.9c0.3-0.2,0.7-0.3,1-0.4s0.7-0.1,1.1-0.1
		c0.7,0,1.3,0.2,1.7,0.5c0.4,0.3,0.6,0.8,0.6,1.6v4H321.4z M319.6,328.9c0.5,0,0.8-0.1,1.1-0.4c0.3-0.3,0.4-0.6,0.4-1.1v-0.5l-0.8,0
		c-0.6,0-1,0.1-1.3,0.3c-0.3,0.2-0.4,0.4-0.4,0.8c0,0.3,0.1,0.5,0.2,0.6C319,328.8,319.3,328.9,319.6,328.9z"/>
	<path class="st2" d="M325.3,329.8l-2.2-5.9h1.3l1.2,3.5c0.2,0.6,0.3,1,0.4,1.4h0c0-0.3,0.2-0.7,0.4-1.4l1.2-3.5h1.3l-2.2,5.9H325.3
		z"/>
	<path class="st2" d="M332.2,329.9c-0.9,0-1.6-0.3-2.1-0.8c-0.5-0.5-0.8-1.3-0.8-2.2c0-1,0.2-1.7,0.7-2.3c0.5-0.6,1.1-0.8,2-0.8
		c0.8,0,1.4,0.2,1.8,0.7c0.5,0.5,0.7,1.1,0.7,2v0.7h-3.9c0,0.6,0.2,1,0.5,1.3c0.3,0.3,0.7,0.5,1.2,0.5c0.3,0,0.7,0,1-0.1
		c0.3-0.1,0.6-0.2,1-0.3v1c-0.3,0.1-0.6,0.3-0.9,0.3C332.9,329.8,332.6,329.9,332.2,329.9z M331.9,324.7c-0.4,0-0.7,0.1-1,0.4
		c-0.2,0.3-0.4,0.6-0.4,1.1h2.7c0-0.5-0.1-0.9-0.4-1.1C332.7,324.8,332.3,324.7,331.9,324.7z"/>
	<path class="st2" d="M338.7,323.7c0.3,0,0.5,0,0.6,0.1l-0.1,1.2c-0.2,0-0.4-0.1-0.6-0.1c-0.5,0-0.9,0.2-1.2,0.5
		c-0.3,0.3-0.5,0.8-0.5,1.3v3.1h-1.2v-5.9h1l0.2,1h0.1c0.2-0.4,0.4-0.6,0.8-0.8C338,323.8,338.3,323.7,338.7,323.7z"/>
	<path class="st2" d="M344,329.8l-0.2-0.8h0c-0.3,0.4-0.6,0.6-0.9,0.7s-0.7,0.2-1.1,0.2c-0.6,0-1-0.2-1.4-0.5
		c-0.3-0.3-0.5-0.8-0.5-1.3c0-0.6,0.2-1.1,0.7-1.4c0.5-0.3,1.1-0.5,2.1-0.5l1,0v-0.3c0-0.4-0.1-0.7-0.3-0.9
		c-0.2-0.2-0.4-0.3-0.8-0.3c-0.3,0-0.6,0-0.9,0.1c-0.3,0.1-0.5,0.2-0.8,0.3l-0.4-0.9c0.3-0.2,0.7-0.3,1-0.4s0.7-0.1,1.1-0.1
		c0.7,0,1.3,0.2,1.7,0.5c0.4,0.3,0.6,0.8,0.6,1.6v4H344z M342.1,328.9c0.5,0,0.8-0.1,1.1-0.4c0.3-0.3,0.4-0.6,0.4-1.1v-0.5l-0.8,0
		c-0.6,0-1,0.1-1.3,0.3c-0.3,0.2-0.4,0.4-0.4,0.8c0,0.3,0.1,0.5,0.2,0.6C341.5,328.8,341.8,328.9,342.1,328.9z"/>
	<path class="st2" d="M351.4,323.8v0.7l-1,0.2c0.1,0.1,0.2,0.3,0.2,0.5c0.1,0.2,0.1,0.4,0.1,0.6c0,0.6-0.2,1.1-0.6,1.4
		c-0.4,0.4-1,0.5-1.7,0.5c-0.2,0-0.4,0-0.5,0c-0.3,0.2-0.4,0.4-0.4,0.6c0,0.1,0.1,0.2,0.2,0.3s0.4,0.1,0.7,0.1h1
		c0.6,0,1.1,0.1,1.5,0.4c0.3,0.3,0.5,0.7,0.5,1.2c0,0.7-0.3,1.2-0.8,1.6s-1.3,0.5-2.4,0.5c-0.8,0-1.4-0.1-1.8-0.4s-0.6-0.7-0.6-1.2
		c0-0.4,0.1-0.7,0.3-0.9s0.5-0.4,1-0.5c-0.2-0.1-0.3-0.2-0.4-0.3c-0.1-0.2-0.2-0.3-0.2-0.5c0-0.2,0.1-0.4,0.2-0.6
		c0.1-0.2,0.3-0.3,0.6-0.5c-0.3-0.1-0.6-0.3-0.7-0.6c-0.2-0.3-0.3-0.6-0.3-1c0-0.6,0.2-1.1,0.6-1.5c0.4-0.4,1-0.5,1.7-0.5
		c0.2,0,0.3,0,0.5,0s0.3,0,0.4,0.1H351.4z M346.8,330.7c0,0.3,0.1,0.5,0.4,0.6c0.2,0.1,0.6,0.2,1,0.2c0.7,0,1.2-0.1,1.5-0.3
		c0.3-0.2,0.5-0.5,0.5-0.8c0-0.3-0.1-0.4-0.3-0.6s-0.5-0.2-1-0.2H348c-0.4,0-0.6,0.1-0.9,0.3S346.8,330.4,346.8,330.7z M347.3,325.7
		c0,0.4,0.1,0.7,0.3,0.9c0.2,0.2,0.5,0.3,0.8,0.3c0.7,0,1.1-0.4,1.1-1.2c0-0.4-0.1-0.7-0.3-0.9c-0.2-0.2-0.5-0.3-0.8-0.3
		c-0.4,0-0.6,0.1-0.8,0.3C347.4,325,347.3,325.3,347.3,325.7z"/>
	<path class="st2" d="M354.9,329.9c-0.9,0-1.6-0.3-2.1-0.8c-0.5-0.5-0.8-1.3-0.8-2.2c0-1,0.2-1.7,0.7-2.3c0.5-0.6,1.1-0.8,2-0.8
		c0.8,0,1.4,0.2,1.8,0.7c0.5,0.5,0.7,1.1,0.7,2v0.7h-3.9c0,0.6,0.2,1,0.5,1.3c0.3,0.3,0.7,0.5,1.2,0.5c0.3,0,0.7,0,1-0.1
		c0.3-0.1,0.6-0.2,1-0.3v1c-0.3,0.1-0.6,0.3-0.9,0.3C355.7,329.8,355.3,329.9,354.9,329.9z M354.7,324.7c-0.4,0-0.7,0.1-1,0.4
		c-0.2,0.3-0.4,0.6-0.4,1.1h2.7c0-0.5-0.1-0.9-0.4-1.1C355.4,324.8,355.1,324.7,354.7,324.7z"/>
	<path class="st2" d="M363.1,329.9c-0.7,0-1.3-0.3-1.7-0.8s-0.6-1.3-0.6-2.3c0-1,0.2-1.7,0.6-2.3c0.4-0.5,1-0.8,1.7-0.8
		c0.8,0,1.4,0.3,1.8,0.9h0.1c-0.1-0.4-0.1-0.8-0.1-1v-2.2h1.3v8.4h-1l-0.2-0.8h-0.1C364.5,329.6,363.9,329.9,363.1,329.9z
		 M363.5,328.8c0.5,0,0.9-0.1,1.1-0.4c0.2-0.3,0.4-0.8,0.4-1.4v-0.2c0-0.7-0.1-1.3-0.4-1.6c-0.2-0.3-0.6-0.5-1.1-0.5
		c-0.4,0-0.8,0.2-1,0.5c-0.2,0.4-0.4,0.9-0.4,1.5c0,0.7,0.1,1.2,0.3,1.5S363,328.8,363.5,328.8z"/>
	<path class="st2" d="M371.5,329.8l-0.2-0.8h0c-0.3,0.4-0.6,0.6-0.9,0.7s-0.7,0.2-1.1,0.2c-0.6,0-1-0.2-1.4-0.5
		c-0.3-0.3-0.5-0.8-0.5-1.3c0-0.6,0.2-1.1,0.7-1.4c0.5-0.3,1.1-0.5,2.1-0.5l1,0v-0.3c0-0.4-0.1-0.7-0.3-0.9
		c-0.2-0.2-0.4-0.3-0.8-0.3c-0.3,0-0.6,0-0.9,0.1c-0.3,0.1-0.5,0.2-0.8,0.3l-0.4-0.9c0.3-0.2,0.7-0.3,1-0.4s0.7-0.1,1.1-0.1
		c0.7,0,1.3,0.2,1.7,0.5c0.4,0.3,0.6,0.8,0.6,1.6v4H371.5z M369.6,328.9c0.5,0,0.8-0.1,1.1-0.4c0.3-0.3,0.4-0.6,0.4-1.1v-0.5l-0.8,0
		c-0.6,0-1,0.1-1.3,0.3c-0.3,0.2-0.4,0.4-0.4,0.8c0,0.3,0.1,0.5,0.2,0.6C369,328.8,369.3,328.9,369.6,328.9z"/>
	<path class="st2" d="M373.9,322.2c0-0.2,0.1-0.4,0.2-0.5c0.1-0.1,0.3-0.2,0.5-0.2c0.2,0,0.4,0.1,0.5,0.2c0.1,0.1,0.2,0.3,0.2,0.5
		c0,0.2-0.1,0.4-0.2,0.5c-0.1,0.1-0.3,0.2-0.5,0.2c-0.2,0-0.4-0.1-0.5-0.2C373.9,322.6,373.9,322.5,373.9,322.2z M375.2,329.8h-1.2
		v-5.9h1.2V329.8z"/>
	<path class="st2" d="M378.1,329.8h-1.2v-8.4h1.2V329.8z"/>
	<path class="st2" d="M378.8,323.8h1.4l1.2,3.4c0.2,0.5,0.3,0.9,0.4,1.4h0c0-0.2,0.1-0.4,0.2-0.7s0.5-1.6,1.4-4h1.4l-2.5,6.7
		c-0.5,1.2-1.2,1.9-2.3,1.9c-0.3,0-0.5,0-0.8-0.1v-1c0.2,0,0.4,0.1,0.6,0.1c0.6,0,1-0.4,1.3-1.1l0.2-0.6L378.8,323.8z"/>
	<path class="st2" d="M226.3,344.8c0.3,0,0.6,0,0.9-0.1v1c-0.1,0.1-0.3,0.1-0.5,0.2c-0.2,0-0.4,0.1-0.7,0.1c-1.2,0-1.8-0.6-1.8-1.9
		v-3.2h-0.8v-0.6l0.9-0.5l0.4-1.3h0.8v1.3h1.7v1h-1.7v3.2c0,0.3,0.1,0.5,0.2,0.7C225.8,344.8,226,344.8,226.3,344.8z"/>
	<path class="st2" d="M231.2,339.7c0.3,0,0.5,0,0.6,0.1l-0.1,1.2c-0.2,0-0.4-0.1-0.6-0.1c-0.5,0-0.9,0.2-1.2,0.5
		c-0.3,0.3-0.5,0.8-0.5,1.3v3.1h-1.2v-5.9h1l0.2,1h0.1c0.2-0.4,0.4-0.6,0.8-0.8C230.5,339.8,230.8,339.7,231.2,339.7z"/>
	<path class="st2" d="M236.4,345.8l-0.2-0.8h0c-0.3,0.4-0.6,0.6-0.9,0.7s-0.7,0.2-1.1,0.2c-0.6,0-1-0.2-1.4-0.5
		c-0.3-0.3-0.5-0.8-0.5-1.3c0-0.6,0.2-1.1,0.7-1.4c0.5-0.3,1.1-0.5,2.1-0.5l1,0v-0.3c0-0.4-0.1-0.7-0.3-0.9
		c-0.2-0.2-0.4-0.3-0.8-0.3c-0.3,0-0.6,0-0.9,0.1c-0.3,0.1-0.5,0.2-0.8,0.3l-0.4-0.9c0.3-0.2,0.7-0.3,1-0.4s0.7-0.1,1.1-0.1
		c0.7,0,1.3,0.2,1.7,0.5c0.4,0.3,0.6,0.8,0.6,1.6v4H236.4z M234.6,344.9c0.5,0,0.8-0.1,1.1-0.4c0.3-0.3,0.4-0.6,0.4-1.1v-0.5l-0.8,0
		c-0.6,0-1,0.1-1.3,0.3c-0.3,0.2-0.4,0.4-0.4,0.8c0,0.3,0.1,0.5,0.2,0.6C234,344.8,234.2,344.9,234.6,344.9z"/>
	<path class="st2" d="M240.9,345.9c-0.7,0-1.3-0.3-1.7-0.8s-0.6-1.3-0.6-2.3c0-1,0.2-1.7,0.6-2.3c0.4-0.5,1-0.8,1.7-0.8
		c0.8,0,1.4,0.3,1.8,0.9h0.1c-0.1-0.4-0.1-0.8-0.1-1v-2.2h1.3v8.4h-1l-0.2-0.8h-0.1C242.2,345.6,241.7,345.9,240.9,345.9z
		 M241.2,344.8c0.5,0,0.9-0.1,1.1-0.4c0.2-0.3,0.4-0.8,0.4-1.4v-0.2c0-0.7-0.1-1.3-0.4-1.6c-0.2-0.3-0.6-0.5-1.1-0.5
		c-0.4,0-0.8,0.2-1,0.5c-0.2,0.4-0.4,0.9-0.4,1.5c0,0.7,0.1,1.2,0.3,1.5S240.8,344.8,241.2,344.8z"/>
	<path class="st2" d="M245.5,338.2c0-0.2,0.1-0.4,0.2-0.5c0.1-0.1,0.3-0.2,0.5-0.2c0.2,0,0.4,0.1,0.5,0.2c0.1,0.1,0.2,0.3,0.2,0.5
		c0,0.2-0.1,0.4-0.2,0.5c-0.1,0.1-0.3,0.2-0.5,0.2c-0.2,0-0.4-0.1-0.5-0.2C245.5,338.6,245.5,338.5,245.5,338.2z M246.8,345.8h-1.2
		v-5.9h1.2V345.8z"/>
	<path class="st2" d="M253.6,345.8h-1.3v-3.7c0-0.5-0.1-0.8-0.3-1c-0.2-0.2-0.5-0.3-0.9-0.3c-0.5,0-0.9,0.2-1.2,0.5
		s-0.4,0.8-0.4,1.6v3h-1.2v-5.9h1l0.2,0.8h0.1c0.2-0.3,0.4-0.5,0.8-0.7c0.3-0.2,0.7-0.2,1.1-0.2c1.4,0,2.1,0.7,2.1,2.2V345.8z"/>
	<path class="st2" d="M260.1,339.8v0.7l-1,0.2c0.1,0.1,0.2,0.3,0.2,0.5c0.1,0.2,0.1,0.4,0.1,0.6c0,0.6-0.2,1.1-0.6,1.4
		c-0.4,0.4-1,0.5-1.7,0.5c-0.2,0-0.4,0-0.5,0c-0.3,0.2-0.4,0.4-0.4,0.6c0,0.1,0.1,0.2,0.2,0.3s0.4,0.1,0.7,0.1h1
		c0.6,0,1.1,0.1,1.5,0.4c0.3,0.3,0.5,0.7,0.5,1.2c0,0.7-0.3,1.2-0.8,1.6s-1.3,0.5-2.4,0.5c-0.8,0-1.4-0.1-1.8-0.4s-0.6-0.7-0.6-1.2
		c0-0.4,0.1-0.7,0.3-0.9s0.5-0.4,1-0.5c-0.2-0.1-0.3-0.2-0.4-0.3c-0.1-0.2-0.2-0.3-0.2-0.5c0-0.2,0.1-0.4,0.2-0.6
		c0.1-0.2,0.3-0.3,0.6-0.5c-0.3-0.1-0.6-0.3-0.7-0.6c-0.2-0.3-0.3-0.6-0.3-1c0-0.6,0.2-1.1,0.6-1.5c0.4-0.4,1-0.5,1.7-0.5
		c0.2,0,0.3,0,0.5,0s0.3,0,0.4,0.1H260.1z M255.5,346.7c0,0.3,0.1,0.5,0.4,0.6c0.2,0.1,0.6,0.2,1,0.2c0.7,0,1.2-0.1,1.5-0.3
		c0.3-0.2,0.5-0.5,0.5-0.8c0-0.3-0.1-0.4-0.3-0.6s-0.5-0.2-1-0.2h-0.9c-0.4,0-0.6,0.1-0.9,0.3S255.5,346.4,255.5,346.7z
		 M256.1,341.7c0,0.4,0.1,0.7,0.3,0.9c0.2,0.2,0.5,0.3,0.8,0.3c0.7,0,1.1-0.4,1.1-1.2c0-0.4-0.1-0.7-0.3-0.9
		c-0.2-0.2-0.5-0.3-0.8-0.3c-0.4,0-0.6,0.1-0.8,0.3C256.2,341,256.1,341.3,256.1,341.7z"/>
	<path class="st2" d="M265.1,345.8l-2.2-5.9h1.3l1.2,3.5c0.2,0.6,0.3,1,0.4,1.4h0c0-0.3,0.2-0.7,0.4-1.4l1.2-3.5h1.3l-2.2,5.9H265.1
		z"/>
	<path class="st2" d="M273.1,345.8l-0.2-0.8h0c-0.3,0.4-0.6,0.6-0.9,0.7s-0.7,0.2-1.1,0.2c-0.6,0-1-0.2-1.4-0.5
		c-0.3-0.3-0.5-0.8-0.5-1.3c0-0.6,0.2-1.1,0.7-1.4c0.5-0.3,1.1-0.5,2.1-0.5l1,0v-0.3c0-0.4-0.1-0.7-0.3-0.9
		c-0.2-0.2-0.4-0.3-0.8-0.3c-0.3,0-0.6,0-0.9,0.1c-0.3,0.1-0.5,0.2-0.8,0.3l-0.4-0.9c0.3-0.2,0.7-0.3,1-0.4s0.7-0.1,1.1-0.1
		c0.7,0,1.3,0.2,1.7,0.5c0.4,0.3,0.6,0.8,0.6,1.6v4H273.1z M271.3,344.9c0.5,0,0.8-0.1,1.1-0.4c0.3-0.3,0.4-0.6,0.4-1.1v-0.5l-0.8,0
		c-0.6,0-1,0.1-1.3,0.3c-0.3,0.2-0.4,0.4-0.4,0.8c0,0.3,0.1,0.5,0.2,0.6C270.7,344.8,270.9,344.9,271.3,344.9z"/>
	<path class="st2" d="M276.9,345.8h-1.2v-8.4h1.2V345.8z"/>
	<path class="st2" d="M282.6,345.8l-0.2-0.8h-0.1c-0.2,0.3-0.4,0.5-0.7,0.7c-0.3,0.2-0.7,0.2-1.1,0.2c-0.7,0-1.2-0.2-1.6-0.5
		c-0.4-0.4-0.5-0.9-0.5-1.6v-3.9h1.3v3.7c0,0.5,0.1,0.8,0.3,1c0.2,0.2,0.5,0.3,0.9,0.3c0.5,0,0.9-0.2,1.2-0.5
		c0.2-0.3,0.4-0.8,0.4-1.6v-3h1.3v5.9H282.6z"/>
	<path class="st2" d="M287.8,345.9c-0.9,0-1.6-0.3-2.1-0.8c-0.5-0.5-0.8-1.3-0.8-2.2c0-1,0.2-1.7,0.7-2.3c0.5-0.6,1.1-0.8,2-0.8
		c0.8,0,1.4,0.2,1.8,0.7c0.5,0.5,0.7,1.1,0.7,2v0.7h-3.9c0,0.6,0.2,1,0.5,1.3c0.3,0.3,0.7,0.5,1.2,0.5c0.3,0,0.7,0,1-0.1
		c0.3-0.1,0.6-0.2,1-0.3v1c-0.3,0.1-0.6,0.3-0.9,0.3C288.6,345.8,288.2,345.9,287.8,345.9z M287.6,340.7c-0.4,0-0.7,0.1-1,0.4
		c-0.2,0.3-0.4,0.6-0.4,1.1h2.7c0-0.5-0.1-0.9-0.4-1.1C288.3,340.8,288,340.7,287.6,340.7z"/>
	<path class="st2" d="M295.3,344.1c0,0.6-0.2,1-0.6,1.3c-0.4,0.3-1,0.5-1.8,0.5c-0.8,0-1.4-0.1-1.9-0.4v-1.1
		c0.7,0.3,1.3,0.5,1.9,0.5c0.8,0,1.2-0.2,1.2-0.7c0-0.2,0-0.3-0.1-0.4c-0.1-0.1-0.2-0.2-0.4-0.3c-0.2-0.1-0.5-0.2-0.8-0.4
		c-0.7-0.3-1.1-0.5-1.4-0.8c-0.2-0.3-0.4-0.6-0.4-1c0-0.5,0.2-0.9,0.6-1.2s1-0.4,1.7-0.4c0.7,0,1.3,0.1,2,0.4l-0.4,1
		c-0.6-0.3-1.2-0.4-1.6-0.4c-0.7,0-1,0.2-1,0.6c0,0.2,0.1,0.3,0.3,0.5s0.5,0.3,1.1,0.5c0.5,0.2,0.8,0.4,1.1,0.5s0.4,0.3,0.5,0.5
		S295.3,343.8,295.3,344.1z"/>
	<path class="st2" d="M301.4,344.8c0.3,0,0.6,0,0.9-0.1v1c-0.1,0.1-0.3,0.1-0.5,0.2c-0.2,0-0.4,0.1-0.7,0.1c-1.2,0-1.8-0.6-1.8-1.9
		v-3.2h-0.8v-0.6l0.9-0.5l0.4-1.3h0.8v1.3h1.7v1h-1.7v3.2c0,0.3,0.1,0.5,0.2,0.7C300.9,344.8,301.1,344.8,301.4,344.8z"/>
	<path class="st2" d="M308.5,342.8c0,1-0.2,1.7-0.7,2.3s-1.2,0.8-2.1,0.8c-0.5,0-1-0.1-1.5-0.4c-0.4-0.3-0.7-0.6-1-1.1
		c-0.2-0.5-0.3-1-0.3-1.6c0-1,0.2-1.7,0.7-2.3c0.5-0.5,1.2-0.8,2.1-0.8c0.9,0,1.5,0.3,2,0.8C308.3,341.1,308.5,341.8,308.5,342.8z
		 M304.3,342.8c0,1.4,0.5,2.1,1.5,2.1c1,0,1.5-0.7,1.5-2.1c0-1.4-0.5-2-1.5-2c-0.5,0-0.9,0.2-1.1,0.5S304.3,342.1,304.3,342.8z"/>
	<path class="st2" d="M315.5,339.7c0.7,0,1.3,0.3,1.7,0.8c0.4,0.5,0.6,1.3,0.6,2.3c0,1-0.2,1.7-0.6,2.3c-0.4,0.5-1,0.8-1.7,0.8
		c-0.7,0-1.3-0.3-1.7-0.8h-0.1l-0.2,0.7h-0.9v-8.4h1.2v2c0,0.1,0,0.4,0,0.7s0,0.5,0,0.6h0.1C314.1,340,314.7,339.7,315.5,339.7z
		 M315.2,340.7c-0.5,0-0.9,0.1-1.1,0.4s-0.3,0.8-0.3,1.5v0.1c0,0.7,0.1,1.2,0.3,1.6c0.2,0.3,0.6,0.5,1.1,0.5c0.4,0,0.8-0.2,1-0.5
		c0.2-0.4,0.3-0.9,0.3-1.5C316.5,341.4,316.1,340.7,315.2,340.7z"/>
	<path class="st2" d="M321.7,345.9c-0.9,0-1.6-0.3-2.1-0.8c-0.5-0.5-0.8-1.3-0.8-2.2c0-1,0.2-1.7,0.7-2.3c0.5-0.6,1.1-0.8,2-0.8
		c0.8,0,1.4,0.2,1.8,0.7c0.5,0.5,0.7,1.1,0.7,2v0.7h-3.9c0,0.6,0.2,1,0.5,1.3c0.3,0.3,0.7,0.5,1.2,0.5c0.3,0,0.7,0,1-0.1
		c0.3-0.1,0.6-0.2,1-0.3v1c-0.3,0.1-0.6,0.3-0.9,0.3C322.5,345.8,322.1,345.9,321.7,345.9z M321.5,340.7c-0.4,0-0.7,0.1-1,0.4
		c-0.2,0.3-0.4,0.6-0.4,1.1h2.7c0-0.5-0.1-0.9-0.4-1.1C322.2,340.8,321.9,340.7,321.5,340.7z"/>
	<path class="st2" d="M330.5,345.9c-0.9,0-1.6-0.3-2.1-0.8c-0.5-0.5-0.8-1.3-0.8-2.2c0-1,0.2-1.7,0.7-2.3c0.5-0.6,1.1-0.8,2-0.8
		c0.8,0,1.4,0.2,1.8,0.7c0.5,0.5,0.7,1.1,0.7,2v0.7h-3.9c0,0.6,0.2,1,0.5,1.3c0.3,0.3,0.7,0.5,1.2,0.5c0.3,0,0.7,0,1-0.1
		c0.3-0.1,0.6-0.2,1-0.3v1c-0.3,0.1-0.6,0.3-0.9,0.3C331.3,345.8,330.9,345.9,330.5,345.9z M330.3,340.7c-0.4,0-0.7,0.1-1,0.4
		c-0.2,0.3-0.4,0.6-0.4,1.1h2.7c0-0.5-0.1-0.9-0.4-1.1C331,340.8,330.7,340.7,330.3,340.7z"/>
	<path class="st2" d="M335.3,345.8H334v-8.4h1.2V345.8z"/>
	<path class="st2" d="M336.9,338.2c0-0.2,0.1-0.4,0.2-0.5c0.1-0.1,0.3-0.2,0.5-0.2c0.2,0,0.4,0.1,0.5,0.2c0.1,0.1,0.2,0.3,0.2,0.5
		c0,0.2-0.1,0.4-0.2,0.5c-0.1,0.1-0.3,0.2-0.5,0.2c-0.2,0-0.4-0.1-0.5-0.2C336.9,338.6,336.9,338.5,336.9,338.2z M338.2,345.8h-1.2
		v-5.9h1.2V345.8z"/>
	<path class="st2" d="M344.8,339.8v0.7l-1,0.2c0.1,0.1,0.2,0.3,0.2,0.5c0.1,0.2,0.1,0.4,0.1,0.6c0,0.6-0.2,1.1-0.6,1.4
		c-0.4,0.4-1,0.5-1.7,0.5c-0.2,0-0.4,0-0.5,0c-0.3,0.2-0.4,0.4-0.4,0.6c0,0.1,0.1,0.2,0.2,0.3s0.4,0.1,0.7,0.1h1
		c0.6,0,1.1,0.1,1.5,0.4c0.3,0.3,0.5,0.7,0.5,1.2c0,0.7-0.3,1.2-0.8,1.6s-1.3,0.5-2.4,0.5c-0.8,0-1.4-0.1-1.8-0.4s-0.6-0.7-0.6-1.2
		c0-0.4,0.1-0.7,0.3-0.9s0.5-0.4,1-0.5c-0.2-0.1-0.3-0.2-0.4-0.3c-0.1-0.2-0.2-0.3-0.2-0.5c0-0.2,0.1-0.4,0.2-0.6
		c0.1-0.2,0.3-0.3,0.6-0.5c-0.3-0.1-0.6-0.3-0.7-0.6c-0.2-0.3-0.3-0.6-0.3-1c0-0.6,0.2-1.1,0.6-1.5c0.4-0.4,1-0.5,1.7-0.5
		c0.2,0,0.3,0,0.5,0s0.3,0,0.4,0.1H344.8z M340.2,346.7c0,0.3,0.1,0.5,0.4,0.6c0.2,0.1,0.6,0.2,1,0.2c0.7,0,1.2-0.1,1.5-0.3
		c0.3-0.2,0.5-0.5,0.5-0.8c0-0.3-0.1-0.4-0.3-0.6s-0.5-0.2-1-0.2h-0.9c-0.4,0-0.6,0.1-0.9,0.3S340.2,346.4,340.2,346.7z
		 M340.7,341.7c0,0.4,0.1,0.7,0.3,0.9c0.2,0.2,0.5,0.3,0.8,0.3c0.7,0,1.1-0.4,1.1-1.2c0-0.4-0.1-0.7-0.3-0.9
		c-0.2-0.2-0.5-0.3-0.8-0.3c-0.4,0-0.6,0.1-0.8,0.3C340.8,341,340.7,341.3,340.7,341.7z"/>
	<path class="st2" d="M345.6,338.2c0-0.2,0.1-0.4,0.2-0.5c0.1-0.1,0.3-0.2,0.5-0.2c0.2,0,0.4,0.1,0.5,0.2c0.1,0.1,0.2,0.3,0.2,0.5
		c0,0.2-0.1,0.4-0.2,0.5c-0.1,0.1-0.3,0.2-0.5,0.2c-0.2,0-0.4-0.1-0.5-0.2C345.7,338.6,345.6,338.5,345.6,338.2z M347,345.8h-1.2
		v-5.9h1.2V345.8z"/>
	<path class="st2" d="M351.6,339.7c0.7,0,1.3,0.3,1.7,0.8c0.4,0.5,0.6,1.3,0.6,2.3c0,1-0.2,1.7-0.6,2.3c-0.4,0.5-1,0.8-1.7,0.8
		c-0.7,0-1.3-0.3-1.7-0.8h-0.1l-0.2,0.7h-0.9v-8.4h1.2v2c0,0.1,0,0.4,0,0.7s0,0.5,0,0.6h0.1C350.3,340,350.8,339.7,351.6,339.7z
		 M351.3,340.7c-0.5,0-0.9,0.1-1.1,0.4s-0.3,0.8-0.3,1.5v0.1c0,0.7,0.1,1.2,0.3,1.6c0.2,0.3,0.6,0.5,1.1,0.5c0.4,0,0.8-0.2,1-0.5
		c0.2-0.4,0.3-0.9,0.3-1.5C352.7,341.4,352.2,340.7,351.3,340.7z"/>
	<path class="st2" d="M356.5,345.8h-1.2v-8.4h1.2V345.8z"/>
	<path class="st2" d="M360.7,345.9c-0.9,0-1.6-0.3-2.1-0.8c-0.5-0.5-0.8-1.3-0.8-2.2c0-1,0.2-1.7,0.7-2.3c0.5-0.6,1.1-0.8,2-0.8
		c0.8,0,1.4,0.2,1.8,0.7c0.5,0.5,0.7,1.1,0.7,2v0.7h-3.9c0,0.6,0.2,1,0.5,1.3c0.3,0.3,0.7,0.5,1.2,0.5c0.3,0,0.7,0,1-0.1
		c0.3-0.1,0.6-0.2,1-0.3v1c-0.3,0.1-0.6,0.3-0.9,0.3C361.4,345.8,361.1,345.9,360.7,345.9z M360.5,340.7c-0.4,0-0.7,0.1-1,0.4
		c-0.2,0.3-0.4,0.6-0.4,1.1h2.7c0-0.5-0.1-0.9-0.4-1.1C361.2,340.8,360.9,340.7,360.5,340.7z"/>
	<path class="st2" d="M364.1,345.1c0-0.3,0.1-0.5,0.2-0.6c0.1-0.1,0.3-0.2,0.6-0.2c0.3,0,0.5,0.1,0.6,0.2c0.1,0.1,0.2,0.3,0.2,0.6
		c0,0.3-0.1,0.5-0.2,0.6c-0.1,0.1-0.3,0.2-0.6,0.2s-0.5-0.1-0.6-0.2S364.1,345.3,364.1,345.1z"/>
	<path class="st2" d="M190.4,373.7c0-0.5,0.1-0.9,0.4-1.1s0.6-0.4,1-0.4c0.4,0,0.8,0.1,1,0.4c0.2,0.3,0.4,0.6,0.4,1.1
		c0,0.5-0.1,0.9-0.4,1.1c-0.2,0.3-0.6,0.4-1,0.4c-0.4,0-0.8-0.1-1-0.4C190.5,374.6,190.4,374.2,190.4,373.7z"/>
	<path class="st2" d="M197.4,377.8v-7.9h1.3v7.9H197.4z"/>
	<path class="st2" d="M205.6,377.8h-1.3v-3.7c0-0.5-0.1-0.8-0.3-1c-0.2-0.2-0.5-0.3-0.9-0.3c-0.5,0-0.9,0.2-1.2,0.5
		s-0.4,0.8-0.4,1.6v3h-1.2v-5.9h1l0.2,0.8h0.1c0.2-0.3,0.4-0.5,0.8-0.7c0.3-0.2,0.7-0.2,1.1-0.2c1.4,0,2.1,0.7,2.1,2.2V377.8z"/>
	<path class="st2" d="M209.1,377.9c-0.7,0-1.3-0.3-1.7-0.8s-0.6-1.3-0.6-2.3c0-1,0.2-1.7,0.6-2.3c0.4-0.5,1-0.8,1.7-0.8
		c0.8,0,1.4,0.3,1.8,0.9h0.1c-0.1-0.4-0.1-0.8-0.1-1v-2.2h1.3v8.4h-1L211,377h-0.1C210.5,377.6,209.9,377.9,209.1,377.9z
		 M209.5,376.8c0.5,0,0.9-0.1,1.1-0.4c0.2-0.3,0.4-0.8,0.4-1.4v-0.2c0-0.7-0.1-1.3-0.4-1.6c-0.2-0.3-0.6-0.5-1.1-0.5
		c-0.4,0-0.8,0.2-1,0.5c-0.2,0.4-0.4,0.9-0.4,1.5c0,0.7,0.1,1.2,0.3,1.5S209,376.8,209.5,376.8z"/>
	<path class="st2" d="M213.7,370.2c0-0.2,0.1-0.4,0.2-0.5c0.1-0.1,0.3-0.2,0.5-0.2c0.2,0,0.4,0.1,0.5,0.2c0.1,0.1,0.2,0.3,0.2,0.5
		c0,0.2-0.1,0.4-0.2,0.5c-0.1,0.1-0.3,0.2-0.5,0.2c-0.2,0-0.4-0.1-0.5-0.2C213.8,370.6,213.7,370.5,213.7,370.2z M215,377.8h-1.2
		v-5.9h1.2V377.8z"/>
	<path class="st2" d="M218,377.8l-2.2-5.9h1.3l1.2,3.5c0.2,0.6,0.3,1,0.4,1.4h0c0-0.3,0.2-0.7,0.4-1.4l1.2-3.5h1.3l-2.2,5.9H218z"/>
	<path class="st2" d="M222.3,370.2c0-0.2,0.1-0.4,0.2-0.5c0.1-0.1,0.3-0.2,0.5-0.2c0.2,0,0.4,0.1,0.5,0.2c0.1,0.1,0.2,0.3,0.2,0.5
		c0,0.2-0.1,0.4-0.2,0.5c-0.1,0.1-0.3,0.2-0.5,0.2c-0.2,0-0.4-0.1-0.5-0.2C222.3,370.6,222.3,370.5,222.3,370.2z M223.6,377.8h-1.2
		v-5.9h1.2V377.8z"/>
	<path class="st2" d="M227.2,377.9c-0.7,0-1.3-0.3-1.7-0.8s-0.6-1.3-0.6-2.3c0-1,0.2-1.7,0.6-2.3c0.4-0.5,1-0.8,1.7-0.8
		c0.8,0,1.4,0.3,1.8,0.9h0.1c-0.1-0.4-0.1-0.8-0.1-1v-2.2h1.3v8.4h-1L229,377H229C228.6,377.6,228,377.9,227.2,377.9z M227.6,376.8
		c0.5,0,0.9-0.1,1.1-0.4c0.2-0.3,0.4-0.8,0.4-1.4v-0.2c0-0.7-0.1-1.3-0.4-1.6c-0.2-0.3-0.6-0.5-1.1-0.5c-0.4,0-0.8,0.2-1,0.5
		c-0.2,0.4-0.4,0.9-0.4,1.5c0,0.7,0.1,1.2,0.3,1.5S227.1,376.8,227.6,376.8z"/>
	<path class="st2" d="M236,377.8l-0.2-0.8h-0.1c-0.2,0.3-0.4,0.5-0.7,0.7c-0.3,0.2-0.7,0.2-1.1,0.2c-0.7,0-1.2-0.2-1.6-0.5
		c-0.4-0.4-0.5-0.9-0.5-1.6v-3.9h1.3v3.7c0,0.5,0.1,0.8,0.3,1c0.2,0.2,0.5,0.3,0.9,0.3c0.5,0,0.9-0.2,1.2-0.5
		c0.2-0.3,0.4-0.8,0.4-1.6v-3h1.3v5.9H236z"/>
	<path class="st2" d="M242.3,377.8l-0.2-0.8h0c-0.3,0.4-0.6,0.6-0.9,0.7s-0.7,0.2-1.1,0.2c-0.6,0-1-0.2-1.4-0.5
		c-0.3-0.3-0.5-0.8-0.5-1.3c0-0.6,0.2-1.1,0.7-1.4c0.5-0.3,1.1-0.5,2.1-0.5l1,0v-0.3c0-0.4-0.1-0.7-0.3-0.9
		c-0.2-0.2-0.4-0.3-0.8-0.3c-0.3,0-0.6,0-0.9,0.1c-0.3,0.1-0.5,0.2-0.8,0.3l-0.4-0.9c0.3-0.2,0.7-0.3,1-0.4s0.7-0.1,1.1-0.1
		c0.7,0,1.3,0.2,1.7,0.5c0.4,0.3,0.6,0.8,0.6,1.6v4H242.3z M240.4,376.9c0.5,0,0.8-0.1,1.1-0.4c0.3-0.3,0.4-0.6,0.4-1.1v-0.5l-0.8,0
		c-0.6,0-1,0.1-1.3,0.3c-0.3,0.2-0.4,0.4-0.4,0.8c0,0.3,0.1,0.5,0.2,0.6C239.9,376.8,240.1,376.9,240.4,376.9z"/>
	<path class="st2" d="M246,377.8h-1.2v-8.4h1.2V377.8z"/>
	<path class="st2" d="M254.3,376.1c0,0.6-0.2,1-0.6,1.3c-0.4,0.3-1,0.5-1.8,0.5c-0.8,0-1.4-0.1-1.9-0.4v-1.1
		c0.7,0.3,1.3,0.5,1.9,0.5c0.8,0,1.2-0.2,1.2-0.7c0-0.2,0-0.3-0.1-0.4c-0.1-0.1-0.2-0.2-0.4-0.3c-0.2-0.1-0.5-0.2-0.8-0.4
		c-0.7-0.3-1.1-0.5-1.4-0.8c-0.2-0.3-0.4-0.6-0.4-1c0-0.5,0.2-0.9,0.6-1.2s1-0.4,1.7-0.4c0.7,0,1.3,0.1,2,0.4l-0.4,1
		c-0.6-0.3-1.2-0.4-1.6-0.4c-0.7,0-1,0.2-1,0.6c0,0.2,0.1,0.3,0.3,0.5s0.5,0.3,1.1,0.5c0.5,0.2,0.8,0.4,1.1,0.5s0.4,0.3,0.5,0.5
		S254.3,375.8,254.3,376.1z"/>
	<path class="st2" d="M257.7,376.8c0.3,0,0.6,0,0.9-0.1v1c-0.1,0.1-0.3,0.1-0.5,0.2c-0.2,0-0.4,0.1-0.7,0.1c-1.2,0-1.8-0.6-1.8-1.9
		v-3.2h-0.8v-0.6l0.9-0.5l0.4-1.3h0.8v1.3h1.7v1h-1.7v3.2c0,0.3,0.1,0.5,0.2,0.7C257.2,376.8,257.4,376.8,257.7,376.8z"/>
	<path class="st2" d="M264.8,374.8c0,1-0.2,1.7-0.7,2.3s-1.2,0.8-2.1,0.8c-0.5,0-1-0.1-1.5-0.4c-0.4-0.3-0.7-0.6-1-1.1
		c-0.2-0.5-0.3-1-0.3-1.6c0-1,0.2-1.7,0.7-2.3c0.5-0.5,1.2-0.8,2.1-0.8c0.9,0,1.5,0.3,2,0.8C264.6,373.1,264.8,373.8,264.8,374.8z
		 M260.6,374.8c0,1.4,0.5,2.1,1.5,2.1c1,0,1.5-0.7,1.5-2.1c0-1.4-0.5-2-1.5-2c-0.5,0-0.9,0.2-1.1,0.5S260.6,374.1,260.6,374.8z"/>
	<path class="st2" d="M268.5,377.9c-0.9,0-1.6-0.3-2-0.8c-0.5-0.5-0.7-1.3-0.7-2.3c0-1,0.2-1.8,0.7-2.3s1.2-0.8,2.1-0.8
		c0.6,0,1.2,0.1,1.7,0.3l-0.4,1c-0.5-0.2-1-0.3-1.3-0.3c-1,0-1.5,0.7-1.5,2c0,0.7,0.1,1.2,0.4,1.5s0.6,0.5,1.1,0.5
		c0.6,0,1.1-0.1,1.6-0.4v1.1c-0.2,0.1-0.5,0.2-0.7,0.3S268.9,377.9,268.5,377.9z"/>
	<path class="st2" d="M272.6,374.6l0.7-0.9l1.8-1.9h1.4l-2.4,2.6l2.5,3.4h-1.5l-1.9-2.6l-0.7,0.6v2h-1.2v-8.4h1.2v4.1L272.6,374.6
		L272.6,374.6z"/>
	<path class="st2" d="M281.4,376.1c0,0.6-0.2,1-0.6,1.3c-0.4,0.3-1,0.5-1.8,0.5c-0.8,0-1.4-0.1-1.9-0.4v-1.1
		c0.7,0.3,1.3,0.5,1.9,0.5c0.8,0,1.2-0.2,1.2-0.7c0-0.2,0-0.3-0.1-0.4c-0.1-0.1-0.2-0.2-0.4-0.3c-0.2-0.1-0.5-0.2-0.8-0.4
		c-0.7-0.3-1.1-0.5-1.4-0.8c-0.2-0.3-0.4-0.6-0.4-1c0-0.5,0.2-0.9,0.6-1.2s1-0.4,1.7-0.4c0.7,0,1.3,0.1,2,0.4l-0.4,1
		c-0.6-0.3-1.2-0.4-1.6-0.4c-0.7,0-1,0.2-1,0.6c0,0.2,0.1,0.3,0.3,0.5s0.5,0.3,1.1,0.5c0.5,0.2,0.8,0.4,1.1,0.5s0.4,0.3,0.5,0.5
		S281.4,375.8,281.4,376.1z"/>
	<path class="st2" d="M290.2,377.8H289v-3.7c0-0.5-0.1-0.8-0.3-1c-0.2-0.2-0.4-0.3-0.8-0.3c-0.5,0-0.8,0.2-1.1,0.5
		c-0.2,0.3-0.3,0.8-0.3,1.6v3h-1.2v-5.9h1l0.2,0.8h0.1c0.2-0.3,0.4-0.5,0.7-0.7c0.3-0.2,0.7-0.2,1-0.2c0.9,0,1.5,0.3,1.8,0.9h0.1
		c0.2-0.3,0.4-0.5,0.7-0.7s0.7-0.2,1.1-0.2c0.7,0,1.2,0.2,1.5,0.5s0.5,0.9,0.5,1.6v3.9h-1.2v-3.7c0-0.5-0.1-0.8-0.3-1
		s-0.4-0.3-0.8-0.3c-0.5,0-0.8,0.2-1.1,0.5c-0.2,0.3-0.3,0.8-0.3,1.4V377.8z"/>
	<path class="st2" d="M299.7,377.8l-0.2-0.8h-0.1c-0.2,0.3-0.4,0.5-0.7,0.7c-0.3,0.2-0.7,0.2-1.1,0.2c-0.7,0-1.2-0.2-1.6-0.5
		c-0.4-0.4-0.5-0.9-0.5-1.6v-3.9h1.3v3.7c0,0.5,0.1,0.8,0.3,1c0.2,0.2,0.5,0.3,0.9,0.3c0.5,0,0.9-0.2,1.2-0.5
		c0.2-0.3,0.4-0.8,0.4-1.6v-3h1.3v5.9H299.7z"/>
	<path class="st2" d="M306.2,376.1c0,0.6-0.2,1-0.6,1.3c-0.4,0.3-1,0.5-1.8,0.5c-0.8,0-1.4-0.1-1.9-0.4v-1.1
		c0.7,0.3,1.3,0.5,1.9,0.5c0.8,0,1.2-0.2,1.2-0.7c0-0.2,0-0.3-0.1-0.4c-0.1-0.1-0.2-0.2-0.4-0.3c-0.2-0.1-0.5-0.2-0.8-0.4
		c-0.7-0.3-1.1-0.5-1.4-0.8c-0.2-0.3-0.4-0.6-0.4-1c0-0.5,0.2-0.9,0.6-1.2s1-0.4,1.7-0.4c0.7,0,1.3,0.1,2,0.4l-0.4,1
		c-0.6-0.3-1.2-0.4-1.6-0.4c-0.7,0-1,0.2-1,0.6c0,0.2,0.1,0.3,0.3,0.5s0.5,0.3,1.1,0.5c0.5,0.2,0.8,0.4,1.1,0.5s0.4,0.3,0.5,0.5
		S306.2,375.8,306.2,376.1z"/>
	<path class="st2" d="M309.6,376.8c0.3,0,0.6,0,0.9-0.1v1c-0.1,0.1-0.3,0.1-0.5,0.2c-0.2,0-0.4,0.1-0.7,0.1c-1.2,0-1.8-0.6-1.8-1.9
		v-3.2h-0.8v-0.6l0.9-0.5l0.4-1.3h0.8v1.3h1.7v1h-1.7v3.2c0,0.3,0.1,0.5,0.2,0.7C309.2,376.8,309.4,376.8,309.6,376.8z"/>
	<path class="st2" d="M319.4,377.8h-1.3v-3.7c0-0.5-0.1-0.8-0.3-1c-0.2-0.2-0.5-0.3-0.9-0.3c-0.5,0-0.9,0.2-1.2,0.5
		c-0.2,0.3-0.4,0.8-0.4,1.6v2.9h-1.2v-8.4h1.2v2.1c0,0.3,0,0.7-0.1,1.1h0.1c0.2-0.3,0.4-0.5,0.7-0.7s0.7-0.2,1.1-0.2
		c1.4,0,2.1,0.7,2.1,2.2V377.8z"/>
	<path class="st2" d="M324.7,377.8l-0.2-0.8h0c-0.3,0.4-0.6,0.6-0.9,0.7s-0.7,0.2-1.1,0.2c-0.6,0-1-0.2-1.4-0.5
		c-0.3-0.3-0.5-0.8-0.5-1.3c0-0.6,0.2-1.1,0.7-1.4c0.5-0.3,1.1-0.5,2.1-0.5l1,0v-0.3c0-0.4-0.1-0.7-0.3-0.9
		c-0.2-0.2-0.4-0.3-0.8-0.3c-0.3,0-0.6,0-0.9,0.1c-0.3,0.1-0.5,0.2-0.8,0.3l-0.4-0.9c0.3-0.2,0.7-0.3,1-0.4s0.7-0.1,1.1-0.1
		c0.7,0,1.3,0.2,1.7,0.5c0.4,0.3,0.6,0.8,0.6,1.6v4H324.7z M322.8,376.9c0.5,0,0.8-0.1,1.1-0.4c0.3-0.3,0.4-0.6,0.4-1.1v-0.5l-0.8,0
		c-0.6,0-1,0.1-1.3,0.3c-0.3,0.2-0.4,0.4-0.4,0.8c0,0.3,0.1,0.5,0.2,0.6C322.3,376.8,322.5,376.9,322.8,376.9z"/>
	<path class="st2" d="M328.5,377.8l-2.2-5.9h1.3l1.2,3.5c0.2,0.6,0.3,1,0.4,1.4h0c0-0.3,0.2-0.7,0.4-1.4l1.2-3.5h1.3l-2.2,5.9H328.5
		z"/>
	<path class="st2" d="M335.4,377.9c-0.9,0-1.6-0.3-2.1-0.8c-0.5-0.5-0.8-1.3-0.8-2.2c0-1,0.2-1.7,0.7-2.3c0.5-0.6,1.1-0.8,2-0.8
		c0.8,0,1.4,0.2,1.8,0.7c0.5,0.5,0.7,1.1,0.7,2v0.7h-3.9c0,0.6,0.2,1,0.5,1.3c0.3,0.3,0.7,0.5,1.2,0.5c0.3,0,0.7,0,1-0.1
		c0.3-0.1,0.6-0.2,1-0.3v1c-0.3,0.1-0.6,0.3-0.9,0.3C336.2,377.8,335.8,377.9,335.4,377.9z M335.2,372.7c-0.4,0-0.7,0.1-1,0.4
		c-0.2,0.3-0.4,0.6-0.4,1.1h2.7c0-0.5-0.1-0.9-0.4-1.1C335.9,372.8,335.6,372.7,335.2,372.7z"/>
	<path class="st2" d="M345.3,377.8l-0.2-0.8h0c-0.3,0.4-0.6,0.6-0.9,0.7s-0.7,0.2-1.1,0.2c-0.6,0-1-0.2-1.4-0.5
		c-0.3-0.3-0.5-0.8-0.5-1.3c0-0.6,0.2-1.1,0.7-1.4c0.5-0.3,1.1-0.5,2.1-0.5l1,0v-0.3c0-0.4-0.1-0.7-0.3-0.9
		c-0.2-0.2-0.4-0.3-0.8-0.3c-0.3,0-0.6,0-0.9,0.1c-0.3,0.1-0.5,0.2-0.8,0.3l-0.4-0.9c0.3-0.2,0.7-0.3,1-0.4s0.7-0.1,1.1-0.1
		c0.7,0,1.3,0.2,1.7,0.5c0.4,0.3,0.6,0.8,0.6,1.6v4H345.3z M343.5,376.9c0.5,0,0.8-0.1,1.1-0.4c0.3-0.3,0.4-0.6,0.4-1.1v-0.5l-0.8,0
		c-0.6,0-1,0.1-1.3,0.3c-0.3,0.2-0.4,0.4-0.4,0.8c0,0.3,0.1,0.5,0.2,0.6C342.9,376.8,343.1,376.9,343.5,376.9z"/>
	<path class="st2" d="M355.4,377.8h-1.3v-3.7c0-0.5-0.1-0.8-0.3-1c-0.2-0.2-0.4-0.3-0.8-0.3c-0.5,0-0.8,0.2-1.1,0.5
		c-0.2,0.3-0.3,0.8-0.3,1.6v3h-1.2v-5.9h1l0.2,0.8h0.1c0.2-0.3,0.4-0.5,0.7-0.7c0.3-0.2,0.7-0.2,1-0.2c0.9,0,1.5,0.3,1.8,0.9h0.1
		c0.2-0.3,0.4-0.5,0.7-0.7s0.7-0.2,1.1-0.2c0.7,0,1.2,0.2,1.5,0.5s0.5,0.9,0.5,1.6v3.9h-1.2v-3.7c0-0.5-0.1-0.8-0.3-1
		s-0.4-0.3-0.8-0.3c-0.5,0-0.8,0.2-1.1,0.5c-0.2,0.3-0.3,0.8-0.3,1.4V377.8z"/>
	<path class="st2" d="M360.7,370.2c0-0.2,0.1-0.4,0.2-0.5c0.1-0.1,0.3-0.2,0.5-0.2c0.2,0,0.4,0.1,0.5,0.2c0.1,0.1,0.2,0.3,0.2,0.5
		c0,0.2-0.1,0.4-0.2,0.5c-0.1,0.1-0.3,0.2-0.5,0.2c-0.2,0-0.4-0.1-0.5-0.2C360.7,370.6,360.7,370.5,360.7,370.2z M362,377.8h-1.2
		v-5.9h1.2V377.8z"/>
	<path class="st2" d="M368.8,377.8h-1.3v-3.7c0-0.5-0.1-0.8-0.3-1c-0.2-0.2-0.5-0.3-0.9-0.3c-0.5,0-0.9,0.2-1.2,0.5
		s-0.4,0.8-0.4,1.6v3h-1.2v-5.9h1l0.2,0.8h0.1c0.2-0.3,0.4-0.5,0.8-0.7c0.3-0.2,0.7-0.2,1.1-0.2c1.4,0,2.1,0.7,2.1,2.2V377.8z"/>
	<path class="st2" d="M370.3,370.2c0-0.2,0.1-0.4,0.2-0.5c0.1-0.1,0.3-0.2,0.5-0.2c0.2,0,0.4,0.1,0.5,0.2c0.1,0.1,0.2,0.3,0.2,0.5
		c0,0.2-0.1,0.4-0.2,0.5c-0.1,0.1-0.3,0.2-0.5,0.2c-0.2,0-0.4-0.1-0.5-0.2C370.4,370.6,370.3,370.5,370.3,370.2z M371.6,377.8h-1.2
		v-5.9h1.2V377.8z"/>
	<path class="st2" d="M378.2,377.8H377v-3.7c0-0.5-0.1-0.8-0.3-1c-0.2-0.2-0.4-0.3-0.8-0.3c-0.5,0-0.8,0.2-1.1,0.5
		c-0.2,0.3-0.3,0.8-0.3,1.6v3h-1.2v-5.9h1l0.2,0.8h0.1c0.2-0.3,0.4-0.5,0.7-0.7c0.3-0.2,0.7-0.2,1-0.2c0.9,0,1.5,0.3,1.8,0.9h0.1
		c0.2-0.3,0.4-0.5,0.7-0.7s0.7-0.2,1.1-0.2c0.7,0,1.2,0.2,1.5,0.5s0.5,0.9,0.5,1.6v3.9h-1.2v-3.7c0-0.5-0.1-0.8-0.3-1
		s-0.4-0.3-0.8-0.3c-0.5,0-0.8,0.2-1.1,0.5c-0.2,0.3-0.3,0.8-0.3,1.4V377.8z"/>
	<path class="st2" d="M387.7,377.8l-0.2-0.8h-0.1c-0.2,0.3-0.4,0.5-0.7,0.7c-0.3,0.2-0.7,0.2-1.1,0.2c-0.7,0-1.2-0.2-1.6-0.5
		c-0.4-0.4-0.5-0.9-0.5-1.6v-3.9h1.3v3.7c0,0.5,0.1,0.8,0.3,1c0.2,0.2,0.5,0.3,0.9,0.3c0.5,0,0.9-0.2,1.2-0.5
		c0.2-0.3,0.4-0.8,0.4-1.6v-3h1.3v5.9H387.7z"/>
	<path class="st2" d="M395.2,377.8H394v-3.7c0-0.5-0.1-0.8-0.3-1c-0.2-0.2-0.4-0.3-0.8-0.3c-0.5,0-0.8,0.2-1.1,0.5
		c-0.2,0.3-0.3,0.8-0.3,1.6v3h-1.2v-5.9h1l0.2,0.8h0.1c0.2-0.3,0.4-0.5,0.7-0.7c0.3-0.2,0.7-0.2,1-0.2c0.9,0,1.5,0.3,1.8,0.9h0.1
		c0.2-0.3,0.4-0.5,0.7-0.7s0.7-0.2,1.1-0.2c0.7,0,1.2,0.2,1.5,0.5s0.5,0.9,0.5,1.6v3.9h-1.2v-3.7c0-0.5-0.1-0.8-0.3-1
		s-0.4-0.3-0.8-0.3c-0.5,0-0.8,0.2-1.1,0.5c-0.2,0.3-0.3,0.8-0.3,1.4V377.8z"/>
	<path class="st2" d="M197.7,390.8c0,1-0.2,1.7-0.7,2.3s-1.2,0.8-2.1,0.8c-0.5,0-1-0.1-1.5-0.4c-0.4-0.3-0.7-0.6-1-1.1
		c-0.2-0.5-0.3-1-0.3-1.6c0-1,0.2-1.7,0.7-2.3c0.5-0.5,1.2-0.8,2.1-0.8c0.9,0,1.5,0.3,2,0.8C197.4,389.1,197.7,389.8,197.7,390.8z
		 M193.4,390.8c0,1.4,0.5,2.1,1.5,2.1c1,0,1.5-0.7,1.5-2.1c0-1.4-0.5-2-1.5-2c-0.5,0-0.9,0.2-1.1,0.5S193.4,390.1,193.4,390.8z"/>
	<path class="st2" d="M201.9,388.8h-1.4v5h-1.3v-5h-1v-0.6l1-0.4v-0.4c0-0.7,0.2-1.2,0.5-1.6c0.3-0.3,0.8-0.5,1.5-0.5
		c0.4,0,0.9,0.1,1.3,0.2l-0.3,1c-0.3-0.1-0.6-0.2-0.9-0.2c-0.3,0-0.5,0.1-0.6,0.3c-0.1,0.2-0.2,0.4-0.2,0.8v0.4h1.4V388.8z"/>
	<path class="st2" d="M210.2,391.3c0,0.5-0.2,0.9-0.6,1.3c-0.4,0.3-0.9,0.5-1.6,0.6v1.2h-0.7v-1.1c-0.9,0-1.6-0.2-2.2-0.4v-1.1
		c0.3,0.2,0.7,0.3,1.1,0.4c0.4,0.1,0.8,0.2,1.1,0.2v-2l-0.4-0.2c-0.6-0.2-1-0.5-1.3-0.8s-0.4-0.7-0.4-1.2c0-0.5,0.2-0.9,0.6-1.2
		c0.4-0.3,0.9-0.5,1.5-0.6v-0.9h0.7v0.9c0.7,0,1.4,0.2,2,0.4l-0.4,1c-0.6-0.2-1.1-0.4-1.7-0.4v2l0.4,0.2c0.7,0.3,1.1,0.5,1.4,0.8
		C210.1,390.6,210.2,390.9,210.2,391.3z M206.4,388.1c0,0.2,0.1,0.4,0.2,0.5c0.1,0.1,0.4,0.3,0.7,0.4v-1.7c-0.3,0-0.5,0.1-0.6,0.3
		C206.5,387.7,206.4,387.9,206.4,388.1z M209,391.4c0-0.2-0.1-0.4-0.2-0.5c-0.1-0.1-0.4-0.3-0.7-0.4v1.7
		C208.6,392.1,209,391.9,209,391.4z"/>
	<path class="st2" d="M214.8,393.8h-1.2v-5.1c0-0.6,0-1.1,0-1.4c-0.1,0.1-0.2,0.2-0.3,0.3c-0.1,0.1-0.5,0.4-1.2,1l-0.6-0.8l2.3-1.8
		h1V393.8z"/>
	<path class="st2" d="M222.4,389.8c0,1.4-0.2,2.4-0.7,3c-0.4,0.7-1.1,1-2,1c-0.9,0-1.5-0.3-2-1c-0.4-0.7-0.7-1.7-0.7-3
		c0-1.4,0.2-2.4,0.7-3.1c0.4-0.7,1.1-1,2-1c0.9,0,1.5,0.3,2,1S222.4,388.5,222.4,389.8z M218.4,389.8c0,1.1,0.1,1.8,0.3,2.3
		c0.2,0.5,0.6,0.7,1,0.7s0.8-0.2,1.1-0.7c0.2-0.5,0.3-1.2,0.3-2.3c0-1.1-0.1-1.8-0.3-2.3c-0.2-0.5-0.6-0.7-1.1-0.7s-0.8,0.2-1,0.7
		C218.5,388,218.4,388.8,218.4,389.8z"/>
	<path class="st2" d="M228.5,389.8c0,1.4-0.2,2.4-0.7,3c-0.4,0.7-1.1,1-2,1c-0.9,0-1.5-0.3-2-1c-0.4-0.7-0.7-1.7-0.7-3
		c0-1.4,0.2-2.4,0.7-3.1c0.4-0.7,1.1-1,2-1c0.9,0,1.5,0.3,2,1S228.5,388.5,228.5,389.8z M224.5,389.8c0,1.1,0.1,1.8,0.3,2.3
		c0.2,0.5,0.6,0.7,1,0.7s0.8-0.2,1.1-0.7c0.2-0.5,0.3-1.2,0.3-2.3c0-1.1-0.1-1.8-0.3-2.3c-0.2-0.5-0.6-0.7-1.1-0.7s-0.8,0.2-1,0.7
		C224.6,388,224.5,388.8,224.5,389.8z"/>
	<path class="st2" d="M237.3,393.8h-1.3v-3.7c0-0.5-0.1-0.8-0.3-1c-0.2-0.2-0.4-0.3-0.8-0.3c-0.5,0-0.8,0.2-1.1,0.5
		c-0.2,0.3-0.3,0.8-0.3,1.6v3h-1.2v-5.9h1l0.2,0.8h0.1c0.2-0.3,0.4-0.5,0.7-0.7c0.3-0.2,0.7-0.2,1-0.2c0.9,0,1.5,0.3,1.8,0.9h0.1
		c0.2-0.3,0.4-0.5,0.7-0.7s0.7-0.2,1.1-0.2c0.7,0,1.2,0.2,1.5,0.5s0.5,0.9,0.5,1.6v3.9h-1.2v-3.7c0-0.5-0.1-0.8-0.3-1
		s-0.4-0.3-0.8-0.3c-0.5,0-0.8,0.2-1.1,0.5c-0.2,0.3-0.3,0.8-0.3,1.4V393.8z"/>
	<path class="st2" d="M242.6,386.2c0-0.2,0.1-0.4,0.2-0.5c0.1-0.1,0.3-0.2,0.5-0.2c0.2,0,0.4,0.1,0.5,0.2c0.1,0.1,0.2,0.3,0.2,0.5
		c0,0.2-0.1,0.4-0.2,0.5c-0.1,0.1-0.3,0.2-0.5,0.2c-0.2,0-0.4-0.1-0.5-0.2C242.6,386.6,242.6,386.5,242.6,386.2z M243.9,393.8h-1.2
		v-5.9h1.2V393.8z"/>
	<path class="st2" d="M246.8,393.8h-1.2v-8.4h1.2V393.8z"/>
	<path class="st2" d="M249.7,393.8h-1.2v-8.4h1.2V393.8z"/>
	<path class="st2" d="M251.2,386.2c0-0.2,0.1-0.4,0.2-0.5c0.1-0.1,0.3-0.2,0.5-0.2c0.2,0,0.4,0.1,0.5,0.2c0.1,0.1,0.2,0.3,0.2,0.5
		c0,0.2-0.1,0.4-0.2,0.5c-0.1,0.1-0.3,0.2-0.5,0.2c-0.2,0-0.4-0.1-0.5-0.2C251.3,386.6,251.2,386.5,251.2,386.2z M252.5,393.8h-1.2
		v-5.9h1.2V393.8z"/>
	<path class="st2" d="M259.4,390.8c0,1-0.2,1.7-0.7,2.3s-1.2,0.8-2.1,0.8c-0.5,0-1-0.1-1.5-0.4c-0.4-0.3-0.7-0.6-1-1.1
		c-0.2-0.5-0.3-1-0.3-1.6c0-1,0.2-1.7,0.7-2.3c0.5-0.5,1.2-0.8,2.1-0.8c0.9,0,1.5,0.3,2,0.8C259.1,389.1,259.4,389.8,259.4,390.8z
		 M255.1,390.8c0,1.4,0.5,2.1,1.5,2.1c1,0,1.5-0.7,1.5-2.1c0-1.4-0.5-2-1.5-2c-0.5,0-0.9,0.2-1.1,0.5S255.1,390.1,255.1,390.8z"/>
	<path class="st2" d="M265.8,393.8h-1.3v-3.7c0-0.5-0.1-0.8-0.3-1c-0.2-0.2-0.5-0.3-0.9-0.3c-0.5,0-0.9,0.2-1.2,0.5
		s-0.4,0.8-0.4,1.6v3h-1.2v-5.9h1l0.2,0.8h0.1c0.2-0.3,0.4-0.5,0.8-0.7c0.3-0.2,0.7-0.2,1.1-0.2c1.4,0,2.1,0.7,2.1,2.2V393.8z"/>
	<path class="st2" d="M275.1,393.8h-1.3v-3.7c0-0.5-0.1-0.8-0.3-1c-0.2-0.2-0.4-0.3-0.8-0.3c-0.5,0-0.8,0.2-1.1,0.5
		c-0.2,0.3-0.3,0.8-0.3,1.6v3h-1.2v-5.9h1l0.2,0.8h0.1c0.2-0.3,0.4-0.5,0.7-0.7c0.3-0.2,0.7-0.2,1-0.2c0.9,0,1.5,0.3,1.8,0.9h0.1
		c0.2-0.3,0.4-0.5,0.7-0.7s0.7-0.2,1.1-0.2c0.7,0,1.2,0.2,1.5,0.5s0.5,0.9,0.5,1.6v3.9h-1.2v-3.7c0-0.5-0.1-0.8-0.3-1
		s-0.4-0.3-0.8-0.3c-0.5,0-0.8,0.2-1.1,0.5c-0.2,0.3-0.3,0.8-0.3,1.4V393.8z"/>
	<path class="st2" d="M284,393.8l-0.2-0.8h0c-0.3,0.4-0.6,0.6-0.9,0.7s-0.7,0.2-1.1,0.2c-0.6,0-1-0.2-1.4-0.5
		c-0.3-0.3-0.5-0.8-0.5-1.3c0-0.6,0.2-1.1,0.7-1.4c0.5-0.3,1.1-0.5,2.1-0.5l1,0v-0.3c0-0.4-0.1-0.7-0.3-0.9
		c-0.2-0.2-0.4-0.3-0.8-0.3c-0.3,0-0.6,0-0.9,0.1c-0.3,0.1-0.5,0.2-0.8,0.3l-0.4-0.9c0.3-0.2,0.7-0.3,1-0.4s0.7-0.1,1.1-0.1
		c0.7,0,1.3,0.2,1.7,0.5c0.4,0.3,0.6,0.8,0.6,1.6v4H284z M282.2,392.9c0.5,0,0.8-0.1,1.1-0.4c0.3-0.3,0.4-0.6,0.4-1.1v-0.5l-0.8,0
		c-0.6,0-1,0.1-1.3,0.3c-0.3,0.2-0.4,0.4-0.4,0.8c0,0.3,0.1,0.5,0.2,0.6C281.6,392.8,281.9,392.9,282.2,392.9z"/>
	<path class="st2" d="M289.5,387.7c0.3,0,0.5,0,0.6,0.1l-0.1,1.2c-0.2,0-0.4-0.1-0.6-0.1c-0.5,0-0.9,0.2-1.2,0.5
		c-0.3,0.3-0.5,0.8-0.5,1.3v3.1h-1.2v-5.9h1l0.2,1h0.1c0.2-0.4,0.4-0.6,0.8-0.8C288.8,387.8,289.2,387.7,289.5,387.7z"/>
	<path class="st2" d="M292.3,390.6l0.7-0.9l1.8-1.9h1.4l-2.4,2.6l2.5,3.4h-1.5l-1.9-2.6l-0.7,0.6v2h-1.2v-8.4h1.2v4.1L292.3,390.6
		L292.3,390.6z"/>
	<path class="st2" d="M299.7,393.9c-0.9,0-1.6-0.3-2.1-0.8c-0.5-0.5-0.8-1.3-0.8-2.2c0-1,0.2-1.7,0.7-2.3c0.5-0.6,1.1-0.8,2-0.8
		c0.8,0,1.4,0.2,1.8,0.7c0.5,0.5,0.7,1.1,0.7,2v0.7h-3.9c0,0.6,0.2,1,0.5,1.3c0.3,0.3,0.7,0.5,1.2,0.5c0.3,0,0.7,0,1-0.1
		c0.3-0.1,0.6-0.2,1-0.3v1c-0.3,0.1-0.6,0.3-0.9,0.3C300.5,393.8,300.1,393.9,299.7,393.9z M299.5,388.7c-0.4,0-0.7,0.1-1,0.4
		c-0.2,0.3-0.4,0.6-0.4,1.1h2.7c0-0.5-0.1-0.9-0.4-1.1C300.2,388.8,299.9,388.7,299.5,388.7z"/>
	<path class="st2" d="M305.5,392.8c0.3,0,0.6,0,0.9-0.1v1c-0.1,0.1-0.3,0.1-0.5,0.2c-0.2,0-0.4,0.1-0.7,0.1c-1.2,0-1.8-0.6-1.8-1.9
		v-3.2h-0.8v-0.6l0.9-0.5l0.4-1.3h0.8v1.3h1.7v1h-1.7v3.2c0,0.3,0.1,0.5,0.2,0.7C305,392.8,305.2,392.8,305.5,392.8z"/>
	<path class="st2" d="M312.4,393.9c-0.9,0-1.6-0.3-2-0.8c-0.5-0.5-0.7-1.3-0.7-2.3c0-1,0.2-1.8,0.7-2.3s1.2-0.8,2.1-0.8
		c0.6,0,1.2,0.1,1.7,0.3l-0.4,1c-0.5-0.2-1-0.3-1.3-0.3c-1,0-1.5,0.7-1.5,2c0,0.7,0.1,1.2,0.4,1.5s0.6,0.5,1.1,0.5
		c0.6,0,1.1-0.1,1.6-0.4v1.1c-0.2,0.1-0.5,0.2-0.7,0.3S312.8,393.9,312.4,393.9z"/>
	<path class="st2" d="M319,393.8l-0.2-0.8h0c-0.3,0.4-0.6,0.6-0.9,0.7s-0.7,0.2-1.1,0.2c-0.6,0-1-0.2-1.4-0.5
		c-0.3-0.3-0.5-0.8-0.5-1.3c0-0.6,0.2-1.1,0.7-1.4c0.5-0.3,1.1-0.5,2.1-0.5l1,0v-0.3c0-0.4-0.1-0.7-0.3-0.9
		c-0.2-0.2-0.4-0.3-0.8-0.3c-0.3,0-0.6,0-0.9,0.1c-0.3,0.1-0.5,0.2-0.8,0.3l-0.4-0.9c0.3-0.2,0.7-0.3,1-0.4s0.7-0.1,1.1-0.1
		c0.7,0,1.3,0.2,1.7,0.5c0.4,0.3,0.6,0.8,0.6,1.6v4H319z M317.1,392.9c0.5,0,0.8-0.1,1.1-0.4c0.3-0.3,0.4-0.6,0.4-1.1v-0.5l-0.8,0
		c-0.6,0-1,0.1-1.3,0.3c-0.3,0.2-0.4,0.4-0.4,0.8c0,0.3,0.1,0.5,0.2,0.6C316.6,392.8,316.8,392.9,317.1,392.9z"/>
	<path class="st2" d="M324.5,393.9c-0.7,0-1.3-0.3-1.7-0.8h-0.1c0,0.5,0.1,0.8,0.1,0.9v2.4h-1.2v-8.6h1c0,0.1,0.1,0.4,0.2,0.8h0.1
		c0.4-0.6,1-0.9,1.8-0.9c0.7,0,1.3,0.3,1.7,0.8c0.4,0.5,0.6,1.3,0.6,2.3c0,1-0.2,1.7-0.6,2.3C325.8,393.6,325.2,393.9,324.5,393.9z
		 M324.2,388.7c-0.5,0-0.9,0.1-1.1,0.4s-0.3,0.8-0.3,1.4v0.2c0,0.7,0.1,1.2,0.3,1.6c0.2,0.3,0.6,0.5,1.1,0.5c0.4,0,0.8-0.2,1-0.5
		s0.4-0.9,0.4-1.5c0-0.7-0.1-1.2-0.3-1.5C324.9,388.9,324.6,388.7,324.2,388.7z"/>
	<path class="st2" d="M333,392.8c0.3,0,0.6,0,0.9-0.1v1c-0.1,0.1-0.3,0.1-0.5,0.2c-0.2,0-0.4,0.1-0.7,0.1c-1.2,0-1.8-0.6-1.8-1.9
		v-3.2h-0.8v-0.6l0.9-0.5l0.4-1.3h0.8v1.3h1.7v1h-1.7v3.2c0,0.3,0.1,0.5,0.2,0.7C332.5,392.8,332.7,392.8,333,392.8z"/>
	<path class="st2" d="M340.1,390.8c0,1-0.2,1.7-0.7,2.3s-1.2,0.8-2.1,0.8c-0.5,0-1-0.1-1.5-0.4c-0.4-0.3-0.7-0.6-1-1.1
		c-0.2-0.5-0.3-1-0.3-1.6c0-1,0.2-1.7,0.7-2.3c0.5-0.5,1.2-0.8,2.1-0.8c0.9,0,1.5,0.3,2,0.8C339.9,389.1,340.1,389.8,340.1,390.8z
		 M335.8,390.8c0,1.4,0.5,2.1,1.5,2.1c1,0,1.5-0.7,1.5-2.1c0-1.4-0.5-2-1.5-2c-0.5,0-0.9,0.2-1.1,0.5S335.8,390.1,335.8,390.8z"/>
	<path class="st2" d="M347.1,387.7c0.7,0,1.3,0.3,1.7,0.8c0.4,0.5,0.6,1.3,0.6,2.3c0,1-0.2,1.7-0.6,2.3c-0.4,0.5-1,0.8-1.7,0.8
		c-0.7,0-1.3-0.3-1.7-0.8h-0.1l-0.2,0.7h-0.9v-8.4h1.2v2c0,0.1,0,0.4,0,0.7s0,0.5,0,0.6h0.1C345.7,388,346.3,387.7,347.1,387.7z
		 M346.8,388.7c-0.5,0-0.9,0.1-1.1,0.4s-0.3,0.8-0.3,1.5v0.1c0,0.7,0.1,1.2,0.3,1.6c0.2,0.3,0.6,0.5,1.1,0.5c0.4,0,0.8-0.2,1-0.5
		c0.2-0.4,0.3-0.9,0.3-1.5C348.1,389.4,347.7,388.7,346.8,388.7z"/>
	<path class="st2" d="M353.3,393.9c-0.9,0-1.6-0.3-2.1-0.8c-0.5-0.5-0.8-1.3-0.8-2.2c0-1,0.2-1.7,0.7-2.3c0.5-0.6,1.1-0.8,2-0.8
		c0.8,0,1.4,0.2,1.8,0.7c0.5,0.5,0.7,1.1,0.7,2v0.7h-3.9c0,0.6,0.2,1,0.5,1.3c0.3,0.3,0.7,0.5,1.2,0.5c0.3,0,0.7,0,1-0.1
		c0.3-0.1,0.6-0.2,1-0.3v1c-0.3,0.1-0.6,0.3-0.9,0.3C354,393.8,353.7,393.9,353.3,393.9z M353.1,388.7c-0.4,0-0.7,0.1-1,0.4
		c-0.2,0.3-0.4,0.6-0.4,1.1h2.7c0-0.5-0.1-0.9-0.4-1.1C353.8,388.8,353.5,388.7,353.1,388.7z"/>
	<path class="st2" d="M362.1,393.9c-0.9,0-1.6-0.3-2.1-0.8c-0.5-0.5-0.8-1.3-0.8-2.2c0-1,0.2-1.7,0.7-2.3c0.5-0.6,1.1-0.8,2-0.8
		c0.8,0,1.4,0.2,1.8,0.7c0.5,0.5,0.7,1.1,0.7,2v0.7h-3.9c0,0.6,0.2,1,0.5,1.3c0.3,0.3,0.7,0.5,1.2,0.5c0.3,0,0.7,0,1-0.1
		c0.3-0.1,0.6-0.2,1-0.3v1c-0.3,0.1-0.6,0.3-0.9,0.3C362.8,393.8,362.5,393.9,362.1,393.9z M361.9,388.7c-0.4,0-0.7,0.1-1,0.4
		c-0.2,0.3-0.4,0.6-0.4,1.1h2.7c0-0.5-0.1-0.9-0.4-1.1C362.6,388.8,362.3,388.7,361.9,388.7z"/>
	<path class="st2" d="M366.9,393.8h-1.2v-8.4h1.2V393.8z"/>
	<path class="st2" d="M368.5,386.2c0-0.2,0.1-0.4,0.2-0.5c0.1-0.1,0.3-0.2,0.5-0.2c0.2,0,0.4,0.1,0.5,0.2c0.1,0.1,0.2,0.3,0.2,0.5
		c0,0.2-0.1,0.4-0.2,0.5c-0.1,0.1-0.3,0.2-0.5,0.2c-0.2,0-0.4-0.1-0.5-0.2C368.5,386.6,368.5,386.5,368.5,386.2z M369.8,393.8h-1.2
		v-5.9h1.2V393.8z"/>
	<path class="st2" d="M376.4,387.8v0.7l-1,0.2c0.1,0.1,0.2,0.3,0.2,0.5c0.1,0.2,0.1,0.4,0.1,0.6c0,0.6-0.2,1.1-0.6,1.4
		c-0.4,0.4-1,0.5-1.7,0.5c-0.2,0-0.4,0-0.5,0c-0.3,0.2-0.4,0.4-0.4,0.6c0,0.1,0.1,0.2,0.2,0.3s0.4,0.1,0.7,0.1h1
		c0.6,0,1.1,0.1,1.5,0.4c0.3,0.3,0.5,0.7,0.5,1.2c0,0.7-0.3,1.2-0.8,1.6s-1.3,0.5-2.4,0.5c-0.8,0-1.4-0.1-1.8-0.4s-0.6-0.7-0.6-1.2
		c0-0.4,0.1-0.7,0.3-0.9s0.5-0.4,1-0.5c-0.2-0.1-0.3-0.2-0.4-0.3c-0.1-0.2-0.2-0.3-0.2-0.5c0-0.2,0.1-0.4,0.2-0.6
		c0.1-0.2,0.3-0.3,0.6-0.5c-0.3-0.1-0.6-0.3-0.7-0.6c-0.2-0.3-0.3-0.6-0.3-1c0-0.6,0.2-1.1,0.6-1.5c0.4-0.4,1-0.5,1.7-0.5
		c0.2,0,0.3,0,0.5,0s0.3,0,0.4,0.1H376.4z M371.8,394.7c0,0.3,0.1,0.5,0.4,0.6c0.2,0.1,0.6,0.2,1,0.2c0.7,0,1.2-0.1,1.5-0.3
		c0.3-0.2,0.5-0.5,0.5-0.8c0-0.3-0.1-0.4-0.3-0.6s-0.5-0.2-1-0.2h-0.9c-0.4,0-0.6,0.1-0.9,0.3S371.8,394.4,371.8,394.7z
		 M372.3,389.7c0,0.4,0.1,0.7,0.3,0.9c0.2,0.2,0.5,0.3,0.8,0.3c0.7,0,1.1-0.4,1.1-1.2c0-0.4-0.1-0.7-0.3-0.9
		c-0.2-0.2-0.5-0.3-0.8-0.3c-0.4,0-0.6,0.1-0.8,0.3C372.4,389,372.3,389.3,372.3,389.7z"/>
	<path class="st2" d="M377.2,386.2c0-0.2,0.1-0.4,0.2-0.5c0.1-0.1,0.3-0.2,0.5-0.2c0.2,0,0.4,0.1,0.5,0.2c0.1,0.1,0.2,0.3,0.2,0.5
		c0,0.2-0.1,0.4-0.2,0.5c-0.1,0.1-0.3,0.2-0.5,0.2c-0.2,0-0.4-0.1-0.5-0.2C377.3,386.6,377.2,386.5,377.2,386.2z M378.6,393.8h-1.2
		v-5.9h1.2V393.8z"/>
	<path class="st2" d="M383.2,387.7c0.7,0,1.3,0.3,1.7,0.8c0.4,0.5,0.6,1.3,0.6,2.3c0,1-0.2,1.7-0.6,2.3c-0.4,0.5-1,0.8-1.7,0.8
		c-0.7,0-1.3-0.3-1.7-0.8h-0.1l-0.2,0.7h-0.9v-8.4h1.2v2c0,0.1,0,0.4,0,0.7s0,0.5,0,0.6h0.1C381.8,388,382.4,387.7,383.2,387.7z
		 M382.9,388.7c-0.5,0-0.9,0.1-1.1,0.4s-0.3,0.8-0.3,1.5v0.1c0,0.7,0.1,1.2,0.3,1.6c0.2,0.3,0.6,0.5,1.1,0.5c0.4,0,0.8-0.2,1-0.5
		c0.2-0.4,0.3-0.9,0.3-1.5C384.2,389.4,383.8,388.7,382.9,388.7z"/>
	<path class="st2" d="M388.1,393.8h-1.2v-8.4h1.2V393.8z"/>
	<path class="st2" d="M392.3,393.9c-0.9,0-1.6-0.3-2.1-0.8c-0.5-0.5-0.8-1.3-0.8-2.2c0-1,0.2-1.7,0.7-2.3c0.5-0.6,1.1-0.8,2-0.8
		c0.8,0,1.4,0.2,1.8,0.7c0.5,0.5,0.7,1.1,0.7,2v0.7h-3.9c0,0.6,0.2,1,0.5,1.3c0.3,0.3,0.7,0.5,1.2,0.5c0.3,0,0.7,0,1-0.1
		c0.3-0.1,0.6-0.2,1-0.3v1c-0.3,0.1-0.6,0.3-0.9,0.3C393,393.8,392.7,393.9,392.3,393.9z M392.1,388.7c-0.4,0-0.7,0.1-1,0.4
		c-0.2,0.3-0.4,0.6-0.4,1.1h2.7c0-0.5-0.1-0.9-0.4-1.1C392.8,388.8,392.4,388.7,392.1,388.7z"/>
	<path class="st2" d="M395.6,393.1c0-0.3,0.1-0.5,0.2-0.6c0.1-0.1,0.3-0.2,0.6-0.2c0.3,0,0.5,0.1,0.6,0.2c0.1,0.1,0.2,0.3,0.2,0.6
		c0,0.3-0.1,0.5-0.2,0.6c-0.1,0.1-0.3,0.2-0.6,0.2s-0.5-0.1-0.6-0.2S395.6,393.3,395.6,393.1z"/>
</g>
</svg>
