<?xml version="1.0" encoding="utf-8"?>
<!-- Generator: Adobe Illustrator 24.2.1, SVG Export Plug-In . SVG Version: 6.00 Build 0)  -->
<svg version="1.1" id="Layer_1" xmlns="http://www.w3.org/2000/svg" xmlns:xlink="http://www.w3.org/1999/xlink" x="0px" y="0px"
	 viewBox="0 0 905 530" style="enable-background:new 0 0 905 530;" xml:space="preserve">
<style type="text/css">
	.st0{fill:url(#SVGID_1_);}
	.st1{fill:#FFFFFF;}
	.st2{fill:none;stroke:#00B9EE;stroke-width:1.4415;stroke-linecap:round;stroke-linejoin:round;stroke-miterlimit:10;}
	.st3{fill:#284D95;}
	.st4{fill:#054BA4;}
	.st5{fill:url(#SVGID_2_);}
	.st6{fill:#D1D8DD;}
	.st7{enable-background:new    ;}
	.st8{fill:#314D91;}
</style>
<g>
	
		<linearGradient id="SVGID_1_" gradientUnits="userSpaceOnUse" x1="376.8" y1="251.5" x2="212.3" y2="251.5" gradientTransform="matrix(1 0 0 -1 0 532)">
		<stop  offset="0" style="stop-color:#00BEFF"/>
		<stop  offset="1" style="stop-color:#054BA4"/>
	</linearGradient>
	<path class="st0" d="M238.6,306.8h111.9c14.5,0,26.3-11.8,26.3-26.3l0,0c0-14.5-11.8-26.3-26.3-26.3H238.6
		c-14.5,0-26.3,11.8-26.3,26.3l0,0C212.3,295,224.1,306.8,238.6,306.8z"/>
	<g>
		<path class="st1" d="M242.6,285.1v-9.3h1.5v8h3.9v1.3H242.6z"/>
		<path class="st1" d="M249.4,276.3c0-0.3,0.1-0.5,0.2-0.6c0.1-0.1,0.4-0.2,0.6-0.2c0.3,0,0.5,0.1,0.6,0.2s0.2,0.3,0.2,0.6
			c0,0.3-0.1,0.5-0.2,0.6c-0.1,0.1-0.3,0.2-0.6,0.2s-0.5-0.1-0.6-0.2C249.5,276.7,249.4,276.5,249.4,276.3z M251,285.1h-1.5v-7h1.5
			V285.1z"/>
		<path class="st1" d="M255.5,285.3c-0.9,0-1.5-0.3-2-1s-0.7-1.5-0.7-2.7c0-1.1,0.2-2,0.7-2.7c0.5-0.6,1.2-1,2.1-1
			c0.4,0,0.8,0.1,1.2,0.2c0.3,0.2,0.7,0.4,0.9,0.8h0.1l0.2-0.9h1.2v10.1h-1.5v-3c0-0.2,0-0.4,0-0.6s0-0.4,0-0.5h-0.1
			C257.1,284.9,256.4,285.3,255.5,285.3z M255.9,284.1c0.6,0,1.1-0.2,1.3-0.5c0.3-0.4,0.4-0.9,0.4-1.6v-0.2c0-0.9-0.1-1.5-0.4-1.9
			s-0.7-0.6-1.4-0.6c-0.5,0-0.9,0.2-1.2,0.6s-0.4,1-0.4,1.8C254.2,283.3,254.8,284.1,255.9,284.1z"/>
		<path class="st1" d="M266.1,285.1l-0.2-0.9h-0.1c-0.2,0.3-0.5,0.6-0.9,0.8c-0.4,0.2-0.8,0.3-1.3,0.3c-0.8,0-1.5-0.2-1.9-0.6
			s-0.6-1.1-0.6-1.9v-4.6h1.5v4.3c0,0.5,0.1,0.9,0.3,1.2c0.2,0.3,0.6,0.4,1,0.4c0.6,0,1.1-0.2,1.4-0.6s0.4-1,0.4-1.9v-3.5h1.5v7
			L266.1,285.1L266.1,285.1z"/>
		<path class="st1" d="M269.3,276.3c0-0.3,0.1-0.5,0.2-0.6s0.4-0.2,0.6-0.2c0.3,0,0.5,0.1,0.6,0.2s0.2,0.3,0.2,0.6
			c0,0.3-0.1,0.5-0.2,0.6s-0.3,0.2-0.6,0.2c-0.3,0-0.5-0.1-0.6-0.2C269.4,276.7,269.3,276.5,269.3,276.3z M270.9,285.1h-1.5v-7h1.5
			V285.1z"/>
		<path class="st1" d="M275.4,285.3c-0.9,0-1.6-0.3-2-0.9c-0.5-0.6-0.7-1.5-0.7-2.7c0-1.1,0.2-2,0.7-2.7c0.5-0.6,1.2-1,2.1-1
			s1.6,0.3,2.1,1h0.1c-0.1-0.5-0.1-0.9-0.1-1.2v-2.6h1.5v9.9h-1.2l-0.3-0.9h-0.1C277,284.9,276.3,285.3,275.4,285.3z M275.8,284.1
			c0.6,0,1.1-0.2,1.3-0.5c0.3-0.3,0.4-0.9,0.4-1.7v-0.2c0-0.9-0.1-1.5-0.4-1.9s-0.7-0.6-1.3-0.6c-0.5,0-0.9,0.2-1.2,0.6
			c-0.3,0.4-0.4,1-0.4,1.8s0.1,1.4,0.4,1.8C274.9,283.9,275.3,284.1,275.8,284.1z"/>
		<path class="st1" d="M281,276.3c0-0.3,0.1-0.5,0.2-0.6s0.4-0.2,0.6-0.2c0.3,0,0.5,0.1,0.6,0.2s0.2,0.3,0.2,0.6
			c0,0.3-0.1,0.5-0.2,0.6s-0.3,0.2-0.6,0.2c-0.3,0-0.5-0.1-0.6-0.2C281.1,276.7,281,276.5,281,276.3z M282.6,285.1h-1.5v-7h1.5
			V285.1z"/>
		<path class="st1" d="M287.4,284.1c0.4,0,0.7-0.1,1.1-0.2v1.1c-0.2,0.1-0.4,0.1-0.6,0.2c-0.3,0-0.5,0.1-0.8,0.1
			c-1.4,0-2.1-0.7-2.1-2.2v-3.8h-1v-0.7l1-0.5l0.5-1.5h0.9v1.6h2v1.1h-2v3.7c0,0.4,0.1,0.6,0.3,0.8
			C286.8,284,287.1,284.1,287.4,284.1z"/>
		<path class="st1" d="M288.8,278.1h1.6l1.4,4c0.2,0.6,0.4,1.1,0.4,1.6h0.1c0-0.2,0.1-0.5,0.2-0.8s0.6-1.9,1.6-4.7h1.6l-3,7.9
			c-0.5,1.5-1.5,2.2-2.7,2.2c-0.3,0-0.7,0-1-0.1V287c0.2,0.1,0.5,0.1,0.8,0.1c0.7,0,1.2-0.4,1.5-1.2l0.3-0.7L288.8,278.1z"/>
		<path class="st1" d="M305.7,282.6c0,0.8-0.3,1.5-0.9,1.9c-0.6,0.5-1.4,0.7-2.5,0.7c-1,0-1.9-0.2-2.6-0.5v-1.4
			c0.4,0.2,0.9,0.4,1.3,0.5c0.5,0.1,0.9,0.2,1.3,0.2c0.6,0,1-0.1,1.3-0.3c0.3-0.2,0.4-0.5,0.4-0.9c0-0.3-0.1-0.6-0.4-0.9
			s-0.8-0.5-1.6-0.9c-0.8-0.3-1.4-0.7-1.8-1.2c-0.3-0.4-0.5-1-0.5-1.6c0-0.8,0.3-1.4,0.8-1.8s1.3-0.7,2.2-0.7c0.9,0,1.8,0.2,2.6,0.6
			l-0.5,1.2c-0.8-0.3-1.6-0.5-2.2-0.5c-0.5,0-0.9,0.1-1.1,0.3c-0.3,0.2-0.4,0.5-0.4,0.8c0,0.2,0.1,0.4,0.2,0.6s0.3,0.3,0.5,0.5
			s0.7,0.4,1.3,0.6c0.7,0.3,1.2,0.5,1.5,0.8c0.3,0.2,0.5,0.5,0.7,0.8C305.6,281.8,305.7,282.2,305.7,282.6z"/>
		<path class="st1" d="M310.1,285.3c-1.1,0-1.9-0.3-2.4-0.9c-0.6-0.6-0.8-1.5-0.8-2.7s0.3-2.1,0.9-2.7s1.4-0.9,2.5-0.9
			c0.7,0,1.4,0.1,2,0.4l-0.4,1.2c-0.6-0.2-1.1-0.4-1.6-0.4c-1.2,0-1.8,0.8-1.8,2.4c0,0.8,0.2,1.4,0.5,1.8s0.7,0.6,1.3,0.6
			c0.7,0,1.3-0.2,1.9-0.5v1.3c-0.3,0.2-0.6,0.3-0.9,0.3C310.9,285.2,310.6,285.3,310.1,285.3z"/>
		<path class="st1" d="M317.3,278c0.3,0,0.5,0,0.7,0.1l-0.1,1.4c-0.2-0.1-0.4-0.1-0.7-0.1c-0.6,0-1.1,0.2-1.4,0.6
			c-0.4,0.4-0.6,0.9-0.6,1.5v3.7h-1.5v-7h1.2l0.2,1.2h0.1c0.2-0.4,0.5-0.7,0.9-1C316.4,278.1,316.8,278,317.3,278z"/>
		<path class="st1" d="M322.4,285.3c-1.1,0-1.9-0.3-2.6-1c-0.6-0.6-0.9-1.5-0.9-2.6s0.3-2,0.9-2.7s1.4-1,2.3-1s1.7,0.3,2.2,0.8
			c0.5,0.6,0.8,1.3,0.8,2.3v0.8h-4.7c0,0.7,0.2,1.2,0.6,1.6c0.3,0.4,0.8,0.5,1.5,0.5c0.4,0,0.8,0,1.2-0.1c0.4-0.1,0.7-0.2,1.1-0.4
			v1.2c-0.4,0.2-0.7,0.3-1.1,0.4C323.3,285.2,322.9,285.3,322.4,285.3z M322.1,279.1c-0.5,0-0.9,0.1-1.1,0.4
			c-0.3,0.3-0.5,0.7-0.5,1.3h3.2c0-0.6-0.1-1-0.4-1.3C323,279.3,322.6,279.1,322.1,279.1z"/>
		<path class="st1" d="M329.9,285.3c-1.1,0-1.9-0.3-2.6-1c-0.6-0.6-0.9-1.5-0.9-2.6s0.3-2,0.9-2.7s1.4-1,2.3-1s1.7,0.3,2.2,0.8
			c0.5,0.6,0.8,1.3,0.8,2.3v0.8h-4.7c0,0.7,0.2,1.2,0.6,1.6c0.3,0.4,0.8,0.5,1.5,0.5c0.4,0,0.8,0,1.2-0.1c0.4-0.1,0.7-0.2,1.1-0.4
			v1.2c-0.4,0.2-0.7,0.3-1.1,0.4C330.8,285.2,330.3,285.3,329.9,285.3z M329.6,279.1c-0.5,0-0.9,0.1-1.1,0.4
			c-0.3,0.3-0.5,0.7-0.5,1.3h3.2c0-0.6-0.1-1-0.4-1.3C330.4,279.3,330.1,279.1,329.6,279.1z"/>
		<path class="st1" d="M340.4,285.1h-1.5v-4.3c0-0.5-0.1-0.9-0.3-1.2c-0.2-0.3-0.6-0.4-1-0.4c-0.6,0-1.1,0.2-1.4,0.6s-0.4,1-0.4,1.9
			v3.5h-1.5v-7h1.2l0.2,0.9h0.1c0.2-0.3,0.5-0.6,0.9-0.8c0.4-0.2,0.8-0.3,1.3-0.3c1.7,0,2.5,0.9,2.5,2.6v4.5H340.4z"/>
		<path class="st1" d="M347.2,283.1c0,0.7-0.2,1.2-0.7,1.6s-1.2,0.5-2.1,0.5s-1.7-0.1-2.2-0.4v-1.3c0.8,0.4,1.6,0.6,2.3,0.6
			c0.9,0,1.4-0.3,1.4-0.8c0-0.2-0.1-0.3-0.2-0.4s-0.3-0.2-0.5-0.4c-0.2-0.1-0.6-0.3-1-0.4c-0.8-0.3-1.4-0.6-1.6-0.9
			c-0.3-0.3-0.4-0.7-0.4-1.2c0-0.6,0.2-1.1,0.7-1.4s1.1-0.5,2-0.5c0.8,0,1.6,0.2,2.3,0.5l-0.5,1.1c-0.8-0.3-1.4-0.5-1.9-0.5
			c-0.8,0-1.2,0.2-1.2,0.7c0,0.2,0.1,0.4,0.3,0.6c0.2,0.2,0.7,0.4,1.3,0.6c0.6,0.2,1,0.4,1.3,0.6s0.5,0.4,0.6,0.6
			S347.2,282.8,347.2,283.1z"/>
	</g>
</g>
<g>
	<line class="st2" x1="373.7" y1="280.5" x2="646.4" y2="280.5"/>
</g>
<g>
	<circle class="st3" cx="108.4" cy="280.5" r="58.2"/>
	<polygon class="st3" points="204.2,280.5 185.7,273.7 185.7,287.2 	"/>
	<g>
		<path class="st3" d="M191.9,281.9h-16.1c-0.8,0-1.5-0.7-1.5-1.5s0.7-1.5,1.5-1.5h16.1c0.8,0,1.5,0.7,1.5,1.5
			C193.3,281.3,192.7,281.9,191.9,281.9z"/>
	</g>
	<g>
		<path class="st1" d="M98,272.9c0,1.1-0.4,2-1.2,2.6c-0.8,0.6-1.9,0.9-3.3,0.9s-2.5-0.2-3.4-0.7v-1.9c0.6,0.3,1.2,0.5,1.8,0.6
			c0.6,0.2,1.2,0.2,1.8,0.2c0.8,0,1.4-0.2,1.8-0.5s0.6-0.7,0.6-1.2s-0.2-0.9-0.5-1.2c-0.3-0.3-1.1-0.7-2.2-1.1
			c-1.1-0.5-1.9-1-2.4-1.6s-0.7-1.3-0.7-2.1c0-1,0.4-1.8,1.1-2.4s1.7-0.9,2.9-0.9c1.2,0,2.4,0.3,3.5,0.8l-0.6,1.6
			c-1.1-0.5-2.1-0.7-2.9-0.7c-0.7,0-1.1,0.1-1.5,0.4c-0.3,0.3-0.5,0.7-0.5,1.1c0,0.3,0.1,0.6,0.2,0.8c0.1,0.2,0.4,0.4,0.7,0.6
			c0.3,0.2,0.9,0.5,1.7,0.8c0.9,0.4,1.6,0.7,2,1.1c0.4,0.3,0.7,0.7,0.9,1.1C97.9,271.9,98,272.3,98,272.9z"/>
		<path class="st1" d="M99.6,273c0-0.7,0.2-1.4,0.5-1.9c0.4-0.5,1-1.1,2-1.6c-0.5-0.6-0.9-1.2-1.1-1.6s-0.3-0.9-0.3-1.3
			c0-0.9,0.3-1.5,0.9-2s1.4-0.7,2.5-0.7c1,0,1.8,0.2,2.3,0.7c0.6,0.5,0.9,1.1,0.9,1.9c0,0.6-0.2,1.2-0.6,1.7s-1,1-1.9,1.6l2.9,2.8
			c0.5-0.6,0.8-1.5,1.1-2.7h2c-0.4,1.6-1,2.9-1.9,3.9l2.5,2.5H109l-1.3-1.2c-0.6,0.5-1.2,0.8-1.8,1c-0.7,0.2-1.4,0.4-2.2,0.4
			c-1.3,0-2.3-0.3-3-0.9C100,274.9,99.6,274,99.6,273z M103.9,274.7c1,0,1.9-0.3,2.6-0.9l-3.2-3.2c-0.6,0.4-1,0.7-1.2,1.1
			c-0.2,0.3-0.3,0.7-0.3,1.1c0,0.6,0.2,1,0.6,1.3C102.7,274.5,103.2,274.7,103.9,274.7z M102.6,266.6c0,0.4,0.1,0.7,0.3,1
			c0.2,0.3,0.5,0.6,0.8,1c0.6-0.4,1.1-0.7,1.3-1c0.3-0.3,0.4-0.7,0.4-1.1s-0.1-0.7-0.4-0.9c-0.2-0.2-0.6-0.3-1-0.3s-0.8,0.1-1.1,0.3
			C102.7,265.9,102.6,266.2,102.6,266.6z"/>
		<path class="st1" d="M121.4,267.6c0,1.3-0.4,2.3-1.3,3c-0.8,0.7-2,1-3.6,1h-1.3v4.6h-2v-12.3h3.6c1.5,0,2.7,0.3,3.5,0.9
			C121,265.5,121.4,266.4,121.4,267.6z M115.2,269.9h1.1c1,0,1.8-0.2,2.3-0.5c0.5-0.4,0.7-0.9,0.7-1.7c0-0.7-0.2-1.2-0.7-1.6
			c-0.4-0.3-1.1-0.5-2-0.5h-1.4V269.9z"/>
		<path class="st1" d="M94,289.3c1.2,0,2.2,0.3,3,1c0.7,0.7,1.1,1.6,1.1,2.7c0,1.3-0.4,2.3-1.2,3.1c-0.8,0.7-2,1.1-3.5,1.1
			c-1.4,0-2.5-0.2-3.3-0.7v-1.8c0.5,0.3,1,0.5,1.6,0.6s1.1,0.2,1.6,0.2c0.9,0,1.6-0.2,2-0.6c0.5-0.4,0.7-1,0.7-1.8
			c0-1.5-0.9-2.2-2.8-2.2c-0.3,0-0.6,0-1,0.1s-0.7,0.1-1,0.2l-0.9-0.5l0.5-6h6.4v1.8h-4.7l-0.3,3.1c0.2,0,0.4-0.1,0.7-0.1
			C93.2,289.3,93.5,289.3,94,289.3z"/>
		<path class="st1" d="M108,290.8c0,2.1-0.3,3.7-1,4.8c-0.7,1-1.7,1.6-3.2,1.6c-1.4,0-2.4-0.5-3.1-1.6s-1.1-2.7-1.1-4.7
			c0-2.2,0.3-3.8,1-4.8s1.7-1.5,3.2-1.5c1.4,0,2.4,0.5,3.1,1.6C107.7,287.2,108,288.7,108,290.8z M101.6,290.8
			c0,1.7,0.2,2.9,0.5,3.6s0.9,1.1,1.7,1.1c0.8,0,1.3-0.4,1.7-1.1c0.4-0.7,0.5-1.9,0.5-3.6s-0.2-2.9-0.5-3.6
			c-0.4-0.7-0.9-1.1-1.7-1.1c-0.8,0-1.3,0.4-1.7,1.1C101.8,287.9,101.6,289.1,101.6,290.8z"/>
		<path class="st1" d="M117.9,290.8c0,2.1-0.3,3.7-1,4.8c-0.7,1-1.7,1.6-3.2,1.6c-1.4,0-2.4-0.5-3.1-1.6s-1.1-2.7-1.1-4.7
			c0-2.2,0.3-3.8,1-4.8s1.7-1.5,3.2-1.5c1.4,0,2.4,0.5,3.1,1.6C117.5,287.2,117.9,288.7,117.9,290.8z M111.5,290.8
			c0,1.7,0.2,2.9,0.5,3.6s0.9,1.1,1.7,1.1c0.8,0,1.3-0.4,1.7-1.1c0.4-0.7,0.5-1.9,0.5-3.6s-0.2-2.9-0.5-3.6
			c-0.4-0.7-0.9-1.1-1.7-1.1c-0.8,0-1.3,0.4-1.7,1.1C111.7,287.9,111.5,289.1,111.5,290.8z"/>
		<path class="st1" d="M119.1,287.6c0-0.7,0.2-1.3,0.5-1.8c0.3-0.6,0.8-1,1.4-1.4c0.6-0.3,1.2-0.5,1.9-0.5c0.7,0,1.3,0.2,1.8,0.5
			c0.6,0.3,1,0.8,1.4,1.4c0.3,0.6,0.5,1.2,0.5,1.9c0,0.6-0.2,1.3-0.5,1.8c-0.3,0.6-0.8,1-1.3,1.4c-0.6,0.3-1.2,0.5-1.9,0.5
			c-0.7,0-1.3-0.2-1.9-0.5s-1-0.8-1.3-1.4C119.3,288.9,119.1,288.3,119.1,287.6z M119.7,287.6c0,0.6,0.1,1.1,0.4,1.6
			s0.7,0.9,1.1,1.1c0.5,0.3,1,0.4,1.5,0.4c0.6,0,1.1-0.1,1.6-0.4s0.9-0.7,1.1-1.1c0.3-0.5,0.4-1,0.4-1.5c0-0.6-0.1-1.1-0.4-1.5
			c-0.3-0.5-0.7-0.9-1.1-1.1c-0.5-0.3-1-0.4-1.5-0.4c-0.6,0-1.1,0.1-1.5,0.4c-0.5,0.3-0.9,0.6-1.1,1.1
			C119.9,286.6,119.7,287.1,119.7,287.6z M124.3,286.8c0,0.6-0.3,0.9-0.8,1.1l1.2,2h-1l-0.9-1.7h-0.4v1.7h-0.9v-4.4h1.3
			c0.6,0,1,0.1,1.3,0.3C124.2,286,124.3,286.3,124.3,286.8z M122.3,287.5h0.3c0.2,0,0.4-0.1,0.6-0.2c0.1-0.1,0.2-0.3,0.2-0.5
			s-0.1-0.4-0.2-0.5s-0.3-0.1-0.6-0.1h-0.3V287.5z"/>
	</g>
</g>
<g>
	<g>
		<path class="st4" d="M570.7,196.6c0,0.6-0.2,1.1-0.7,1.5s-1.1,0.5-1.9,0.5c-0.8,0-1.5-0.1-2-0.4v-1.1c0.3,0.2,0.7,0.3,1,0.4
			c0.4,0.1,0.7,0.1,1,0.1c0.5,0,0.8-0.1,1-0.3s0.3-0.4,0.3-0.7s-0.1-0.5-0.3-0.7s-0.6-0.4-1.2-0.7c-0.7-0.3-1.1-0.6-1.4-0.9
			c-0.3-0.3-0.4-0.8-0.4-1.2c0-0.6,0.2-1.1,0.6-1.4c0.4-0.3,1-0.5,1.7-0.5s1.4,0.2,2,0.5l-0.4,1c-0.6-0.3-1.2-0.4-1.7-0.4
			c-0.4,0-0.7,0.1-0.9,0.2c-0.2,0.2-0.3,0.4-0.3,0.7c0,0.2,0,0.3,0.1,0.5c0.1,0.1,0.2,0.3,0.4,0.4c0.2,0.1,0.5,0.3,1,0.5
			s0.9,0.4,1.2,0.6c0.2,0.2,0.4,0.4,0.5,0.6C570.6,196,570.7,196.3,570.7,196.6z"/>
		<path class="st4" d="M574.3,198.7c-0.8,0-1.5-0.2-2-0.7s-0.7-1.2-0.7-2c0-0.9,0.2-1.6,0.7-2.1c0.4-0.5,1-0.8,1.8-0.8
			c0.7,0,1.3,0.2,1.7,0.7c0.4,0.4,0.6,1,0.6,1.8v0.6h-3.6c0,0.5,0.2,0.9,0.4,1.2c0.3,0.3,0.6,0.4,1.1,0.4c0.3,0,0.6,0,0.9-0.1
			c0.3-0.1,0.6-0.2,0.9-0.3v0.9c-0.3,0.1-0.6,0.2-0.8,0.3C575,198.6,574.7,198.7,574.3,198.7z M574.1,193.9c-0.4,0-0.7,0.1-0.9,0.3
			s-0.4,0.6-0.4,1h2.4c0-0.4-0.1-0.8-0.3-1C574.7,194,574.4,193.9,574.1,193.9z"/>
		<path class="st4" d="M578.8,198.6h-1.1v-7.7h1.1V198.6z"/>
		<path class="st4" d="M582.8,198.7c-0.8,0-1.5-0.2-2-0.7s-0.7-1.2-0.7-2c0-0.9,0.2-1.6,0.7-2.1c0.4-0.5,1-0.8,1.8-0.8
			c0.7,0,1.3,0.2,1.7,0.7c0.4,0.4,0.6,1,0.6,1.8v0.6h-3.6c0,0.5,0.2,0.9,0.4,1.2c0.3,0.3,0.6,0.4,1.1,0.4c0.3,0,0.6,0,0.9-0.1
			c0.3-0.1,0.6-0.2,0.9-0.3v0.9c-0.3,0.1-0.6,0.2-0.8,0.3C583.5,198.6,583.2,198.7,582.8,198.7z M582.6,193.9
			c-0.4,0-0.7,0.1-0.9,0.3s-0.4,0.6-0.4,1h2.4c0-0.4-0.1-0.8-0.3-1C583.3,194,583,193.9,582.6,193.9z"/>
		<path class="st4" d="M588.4,198.7c-0.8,0-1.4-0.2-1.9-0.7c-0.4-0.5-0.6-1.2-0.6-2.1c0-0.9,0.2-1.6,0.7-2.1
			c0.4-0.5,1.1-0.7,1.9-0.7c0.6,0,1.1,0.1,1.5,0.3l-0.3,0.9c-0.5-0.2-0.9-0.3-1.2-0.3c-0.9,0-1.4,0.6-1.4,1.9c0,0.6,0.1,1.1,0.3,1.4
			c0.2,0.3,0.6,0.5,1,0.5c0.5,0,1-0.1,1.4-0.4v1c-0.2,0.1-0.4,0.2-0.7,0.3C589,198.6,588.7,198.7,588.4,198.7z"/>
		<path class="st4" d="M593.2,197.7c0.3,0,0.6,0,0.8-0.1v0.9c-0.1,0.1-0.3,0.1-0.5,0.1s-0.4,0.1-0.6,0.1c-1.1,0-1.6-0.6-1.6-1.7v-3
			h-0.7v-0.5l0.8-0.4l0.4-1.2h0.7v1.2h1.5v0.9h-1.5v2.9c0,0.3,0.1,0.5,0.2,0.6C592.8,197.7,593,197.7,593.2,197.7z"/>
		<path class="st4" d="M599.7,194.1c0.7,0,1.3,0.2,1.7,0.6c0.4,0.4,0.6,0.9,0.6,1.6c0,0.8-0.2,1.4-0.7,1.8c-0.5,0.4-1.2,0.6-2,0.6
			s-1.4-0.1-1.9-0.4v-1c0.3,0.2,0.6,0.3,0.9,0.3c0.3,0.1,0.7,0.1,1,0.1c0.5,0,0.9-0.1,1.2-0.3s0.4-0.6,0.4-1c0-0.9-0.5-1.3-1.6-1.3
			c-0.2,0-0.3,0-0.6,0c-0.2,0-0.4,0.1-0.6,0.1l-0.5-0.3l0.3-3.5h3.7v1h-2.7l-0.2,1.8c0.1,0,0.3,0,0.4-0.1
			C599.3,194.1,599.5,194.1,599.7,194.1z"/>
		<path class="st4" d="M607.8,195c0,1.3-0.2,2.2-0.6,2.8c-0.4,0.6-1,0.9-1.8,0.9s-1.4-0.3-1.8-0.9s-0.6-1.5-0.6-2.8s0.2-2.2,0.6-2.8
			c0.4-0.6,1-0.9,1.8-0.9s1.4,0.3,1.8,0.9C607.6,192.8,607.8,193.7,607.8,195z M604.2,195c0,1,0.1,1.7,0.3,2.1s0.5,0.6,1,0.6
			c0.4,0,0.8-0.2,1-0.6c0.2-0.4,0.3-1.1,0.3-2.1s-0.1-1.7-0.3-2.1c-0.2-0.4-0.5-0.6-1-0.6c-0.4,0-0.8,0.2-1,0.6S604.2,194,604.2,195
			z"/>
		<path class="st4" d="M616.1,198.6l-0.7-2.5c-0.1-0.3-0.2-0.9-0.5-1.9l0,0c-0.2,0.9-0.3,1.5-0.4,1.9l-0.7,2.5h-1.3l-1.5-5.4h1.2
			l0.7,2.7c0.2,0.7,0.3,1.2,0.3,1.7l0,0c0-0.2,0.1-0.5,0.1-0.8c0.1-0.3,0.1-0.5,0.2-0.7l0.8-2.9h1.3l0.8,2.9c0,0.2,0.1,0.4,0.2,0.7
			c0.1,0.3,0.1,0.6,0.1,0.8l0,0c0-0.4,0.2-1,0.3-1.7l0.7-2.7h1.2l-1.5,5.4H616.1z"/>
		<path class="st4" d="M619.8,191.7c0-0.2,0.1-0.4,0.2-0.5c0.1-0.1,0.3-0.2,0.5-0.2s0.4,0.1,0.5,0.2c0.1,0.1,0.2,0.3,0.2,0.5
			s-0.1,0.4-0.2,0.5s-0.3,0.2-0.5,0.2s-0.4-0.1-0.5-0.2C619.8,192,619.8,191.9,619.8,191.7z M621,198.6h-1.1v-5.4h1.1V198.6z"/>
		<path class="st4" d="M624.6,197.7c0.3,0,0.6,0,0.8-0.1v0.9c-0.1,0.1-0.3,0.1-0.5,0.1s-0.4,0.1-0.6,0.1c-1.1,0-1.6-0.6-1.6-1.7v-3
			H622v-0.5l0.8-0.4l0.4-1.2h0.7v1.2h1.5v0.9h-1.5v2.9c0,0.3,0.1,0.5,0.2,0.6C624.2,197.7,624.4,197.7,624.6,197.7z"/>
		<path class="st4" d="M631.3,198.6h-1.2v-3.3c0-0.4-0.1-0.7-0.3-0.9s-0.4-0.3-0.8-0.3c-0.5,0-0.8,0.1-1.1,0.4
			c-0.2,0.3-0.3,0.8-0.3,1.5v2.7h-1.1V191h1.1v1.9c0,0.3,0,0.6-0.1,1h0.1c0.2-0.3,0.4-0.5,0.7-0.6s0.6-0.2,1-0.2c1.3,0,2,0.7,2,2
			L631.3,198.6L631.3,198.6z"/>
		<path class="st4" d="M636.6,198.6h-1.1v-7.7h1.1V198.6z"/>
		<path class="st4" d="M643.1,195.8c0,0.9-0.2,1.6-0.7,2.1s-1.1,0.7-1.9,0.7c-0.5,0-0.9-0.1-1.3-0.3c-0.4-0.2-0.7-0.6-0.9-1
			s-0.3-0.9-0.3-1.5c0-0.9,0.2-1.6,0.7-2.1c0.4-0.5,1.1-0.7,1.9-0.7c0.8,0,1.4,0.3,1.9,0.8C642.8,194.3,643.1,195,643.1,195.8z
			 M639.1,195.8c0,1.3,0.5,1.9,1.4,1.9s1.4-0.6,1.4-1.9c0-1.2-0.5-1.9-1.4-1.9c-0.5,0-0.8,0.2-1,0.5
			C639.2,194.8,639.1,195.2,639.1,195.8z"/>
		<path class="st4" d="M648.8,198.6l-0.7-2.5c-0.1-0.3-0.2-0.9-0.5-1.9l0,0c-0.2,0.9-0.3,1.5-0.4,1.9l-0.7,2.5h-1.3l-1.5-5.4h1.2
			l0.7,2.7c0.2,0.7,0.3,1.2,0.3,1.7l0,0c0-0.2,0.1-0.5,0.1-0.8c0.1-0.3,0.1-0.5,0.2-0.7l0.8-2.9h1.3l0.8,2.9c0,0.2,0.1,0.4,0.2,0.7
			c0.1,0.3,0.1,0.6,0.1,0.8l0,0c0-0.4,0.2-1,0.3-1.7l0.7-2.7h1.2l-1.5,5.4H648.8z"/>
		<path class="st4" d="M654.9,198.7c-0.8,0-1.5-0.2-2-0.7s-0.7-1.2-0.7-2c0-0.9,0.2-1.6,0.7-2.1c0.4-0.5,1-0.8,1.8-0.8
			c0.7,0,1.3,0.2,1.7,0.7c0.4,0.4,0.6,1,0.6,1.8v0.6h-3.6c0,0.5,0.2,0.9,0.4,1.2c0.3,0.3,0.6,0.4,1.1,0.4c0.3,0,0.6,0,0.9-0.1
			c0.3-0.1,0.6-0.2,0.9-0.3v0.9c-0.3,0.1-0.6,0.2-0.8,0.3C655.6,198.6,655.3,198.7,654.9,198.7z M654.7,193.9
			c-0.4,0-0.7,0.1-0.9,0.3s-0.4,0.6-0.4,1h2.4c0-0.4-0.1-0.8-0.3-1S655,193.9,654.7,193.9z"/>
		<path class="st4" d="M661.9,197c0,0.5-0.2,0.9-0.6,1.2c-0.4,0.3-0.9,0.4-1.6,0.4c-0.7,0-1.3-0.1-1.7-0.3v-1
			c0.6,0.3,1.2,0.4,1.8,0.4c0.7,0,1.1-0.2,1.1-0.6c0-0.1,0-0.3-0.1-0.3c-0.1-0.1-0.2-0.2-0.4-0.3s-0.4-0.2-0.7-0.3
			c-0.6-0.2-1-0.5-1.3-0.7c-0.2-0.2-0.3-0.6-0.3-0.9c0-0.5,0.2-0.8,0.6-1.1c0.4-0.3,0.9-0.4,1.5-0.4s1.2,0.1,1.8,0.4l-0.4,0.9
			c-0.6-0.2-1.1-0.4-1.5-0.4c-0.6,0-0.9,0.2-0.9,0.5c0,0.2,0.1,0.3,0.2,0.4c0.2,0.1,0.5,0.3,1,0.5c0.4,0.2,0.8,0.3,1,0.5
			c0.2,0.1,0.4,0.3,0.4,0.5C661.9,196.5,661.9,196.8,661.9,197z"/>
		<path class="st4" d="M665.2,197.7c0.3,0,0.6,0,0.8-0.1v0.9c-0.1,0.1-0.3,0.1-0.5,0.1s-0.4,0.1-0.6,0.1c-1.1,0-1.6-0.6-1.6-1.7v-3
			h-0.7v-0.5l0.8-0.4l0.4-1.2h0.7v1.2h1.5v0.9h-1.5v2.9c0,0.3,0.1,0.5,0.2,0.6C664.8,197.7,664.9,197.7,665.2,197.7z"/>
		<path class="st4" d="M566.6,214.9l-2-5.4h1.2l1.1,3.2c0.2,0.5,0.3,1,0.3,1.3l0,0c0-0.2,0.1-0.7,0.3-1.3l1.1-3.2h1.2l-2.1,5.4
			H566.6z"/>
		<path class="st4" d="M575.5,212.1c0,0.9-0.2,1.6-0.7,2.1s-1.1,0.7-1.9,0.7c-0.5,0-0.9-0.1-1.3-0.3c-0.4-0.2-0.7-0.6-0.9-1
			s-0.3-0.9-0.3-1.5c0-0.9,0.2-1.6,0.7-2.1c0.4-0.5,1.1-0.7,1.9-0.7c0.8,0,1.4,0.3,1.9,0.8C575.2,210.6,575.5,211.3,575.5,212.1z
			 M571.5,212.1c0,1.3,0.5,1.9,1.4,1.9s1.4-0.6,1.4-1.9c0-1.2-0.5-1.9-1.4-1.9c-0.5,0-0.8,0.2-1,0.5
			C571.6,211.1,571.5,211.5,571.5,212.1z"/>
		<path class="st4" d="M577.9,214.9h-1.1v-7.7h1.1V214.9z"/>
		<path class="st4" d="M582.9,214.9l-0.2-0.8l0,0c-0.3,0.3-0.5,0.6-0.8,0.7c-0.3,0.1-0.6,0.2-1,0.2c-0.5,0-0.9-0.1-1.2-0.4
			c-0.3-0.3-0.4-0.7-0.4-1.2c0-0.6,0.2-1,0.6-1.3c0.4-0.3,1-0.4,1.9-0.5h0.9v-0.3c0-0.3-0.1-0.6-0.2-0.8c-0.2-0.2-0.4-0.3-0.7-0.3
			s-0.5,0-0.8,0.1s-0.5,0.2-0.7,0.3l-0.4-0.8c0.3-0.2,0.6-0.3,1-0.4c0.3-0.1,0.7-0.1,1-0.1c0.7,0,1.2,0.2,1.6,0.5s0.5,0.8,0.5,1.4
			v3.7L582.9,214.9L582.9,214.9z M581.2,214.1c0.4,0,0.8-0.1,1-0.4c0.3-0.2,0.4-0.6,0.4-1v-0.5h-0.7c-0.5,0-0.9,0.1-1.2,0.3
			c-0.2,0.2-0.4,0.4-0.4,0.7c0,0.2,0.1,0.4,0.2,0.6C580.7,214,580.9,214.1,581.2,214.1z"/>
		<path class="st4" d="M587.4,214c0.3,0,0.6,0,0.8-0.1v0.9c-0.1,0.1-0.3,0.1-0.5,0.1s-0.4,0.1-0.6,0.1c-1.1,0-1.6-0.6-1.6-1.7v-2.9
			h-0.7v-0.5l0.8-0.4l0.4-1.2h0.7v1.2h1.5v0.9h-1.5v2.9c0,0.3,0.1,0.5,0.2,0.6C587,214,587.1,214,587.4,214z"/>
		<path class="st4" d="M589.2,208c0-0.2,0.1-0.4,0.2-0.5c0.1-0.1,0.3-0.2,0.5-0.2s0.4,0.1,0.5,0.2c0.1,0.1,0.2,0.3,0.2,0.5
			s-0.1,0.4-0.2,0.5c-0.1,0.1-0.3,0.2-0.5,0.2s-0.4-0.1-0.5-0.2C589.3,208.3,589.2,208.2,589.2,208z M590.4,214.9h-1.1v-5.4h1.1
			V214.9z"/>
		<path class="st4" d="M593.2,214.9h-1.1v-7.7h1.1V214.9z"/>
		<path class="st4" d="M594.8,208c0-0.2,0.1-0.4,0.2-0.5c0.1-0.1,0.3-0.2,0.5-0.2s0.4,0.1,0.5,0.2c0.1,0.1,0.2,0.3,0.2,0.5
			s-0.1,0.4-0.2,0.5s-0.3,0.2-0.5,0.2s-0.4-0.1-0.5-0.2C594.8,208.3,594.8,208.2,594.8,208z M596,214.9h-1.1v-5.4h1.1V214.9z"/>
		<path class="st4" d="M599.6,214c0.3,0,0.6,0,0.8-0.1v0.9c-0.1,0.1-0.3,0.1-0.5,0.1s-0.4,0.1-0.6,0.1c-1.1,0-1.6-0.6-1.6-1.7v-2.9
			H597v-0.5l0.8-0.4l0.4-1.2h0.7v1.2h1.5v0.9h-1.5v2.9c0,0.3,0.1,0.5,0.2,0.6C599.2,214,599.4,214,599.6,214z"/>
		<path class="st4" d="M600.7,209.4h1.2l1.1,3.1c0.2,0.4,0.3,0.9,0.3,1.2l0,0c0-0.2,0.1-0.4,0.2-0.7c0.1-0.3,0.5-1.5,1.2-3.7h1.2
			l-2.3,6.2c-0.4,1.1-1.1,1.7-2.1,1.7c-0.3,0-0.5,0-0.7-0.1v-0.9c0.2,0,0.4,0.1,0.6,0.1c0.6,0,0.9-0.3,1.2-1l0.2-0.5L600.7,209.4z"
			/>
		<path class="st4" d="M613.9,214.9l-0.7-2.5c-0.1-0.3-0.2-0.9-0.5-1.9l0,0c-0.2,0.9-0.3,1.5-0.4,1.9l-0.7,2.5h-1.3l-1.5-5.4h1.2
			l0.7,2.7c0.2,0.7,0.3,1.2,0.3,1.7l0,0c0-0.2,0.1-0.5,0.1-0.8c0.1-0.3,0.1-0.5,0.2-0.7l0.8-2.9h1.3l0.8,2.9c0,0.2,0.1,0.4,0.2,0.7
			c0.1,0.3,0.1,0.6,0.1,0.8l0,0c0-0.4,0.2-1,0.3-1.7l0.7-2.7h1.2l-1.5,5.4H613.9z"/>
		<path class="st4" d="M620,215c-0.8,0-1.5-0.2-2-0.7s-0.7-1.2-0.7-2c0-0.9,0.2-1.6,0.7-2.1c0.4-0.5,1-0.8,1.8-0.8
			c0.7,0,1.3,0.2,1.7,0.7c0.4,0.4,0.6,1,0.6,1.8v0.6h-3.6c0,0.5,0.2,0.9,0.4,1.2c0.3,0.3,0.6,0.4,1.1,0.4c0.3,0,0.6,0,0.9-0.1
			c0.3-0.1,0.6-0.2,0.9-0.3v0.9c-0.3,0.1-0.6,0.2-0.8,0.3C620.7,215,620.4,215,620,215z M619.8,210.2c-0.4,0-0.7,0.1-0.9,0.3
			s-0.4,0.6-0.4,1h2.4c0-0.4-0.1-0.8-0.3-1C620.5,210.3,620.2,210.2,619.8,210.2z"/>
		<path class="st4" d="M623.4,208c0-0.2,0.1-0.4,0.2-0.5c0.1-0.1,0.3-0.2,0.5-0.2s0.4,0.1,0.5,0.2c0.1,0.1,0.2,0.3,0.2,0.5
			s-0.1,0.4-0.2,0.5c-0.1,0.1-0.3,0.2-0.5,0.2s-0.4-0.1-0.5-0.2C623.4,208.3,623.4,208.2,623.4,208z M624.6,214.9h-1.1v-5.4h1.1
			V214.9z"/>
		<path class="st4" d="M630.8,209.4v0.6l-0.9,0.2c0.1,0.1,0.2,0.3,0.2,0.4c0.1,0.2,0.1,0.3,0.1,0.5c0,0.6-0.2,1-0.6,1.3
			c-0.4,0.3-0.9,0.5-1.6,0.5c-0.2,0-0.3,0-0.5,0c-0.2,0.2-0.4,0.3-0.4,0.5c0,0.1,0.1,0.2,0.2,0.3s0.3,0.1,0.6,0.1h0.9
			c0.6,0,1,0.1,1.4,0.4c0.3,0.3,0.5,0.6,0.5,1.1c0,0.6-0.3,1.1-0.8,1.4s-1.2,0.5-2.2,0.5c-0.7,0-1.3-0.1-1.7-0.4s-0.6-0.6-0.6-1.1
			c0-0.3,0.1-0.6,0.3-0.8s0.5-0.4,0.9-0.5c-0.2-0.1-0.3-0.2-0.4-0.3c-0.1-0.1-0.1-0.3-0.1-0.5s0.1-0.4,0.2-0.5
			c0.1-0.1,0.3-0.3,0.5-0.4c-0.3-0.1-0.5-0.3-0.7-0.6s-0.3-0.6-0.3-1c0-0.6,0.2-1,0.6-1.4c0.4-0.3,0.9-0.5,1.6-0.5
			c0.2,0,0.3,0,0.5,0s0.3,0,0.4,0.1L630.8,209.4L630.8,209.4z M626.5,215.7c0,0.2,0.1,0.4,0.3,0.6c0.2,0.1,0.5,0.2,0.9,0.2
			c0.6,0,1.1-0.1,1.4-0.3s0.5-0.4,0.5-0.7c0-0.2-0.1-0.4-0.3-0.5s-0.5-0.2-0.9-0.2h-0.9c-0.3,0-0.6,0.1-0.8,0.2
			C626.6,215.3,626.5,215.5,626.5,215.7z M627,211.2c0,0.3,0.1,0.6,0.3,0.8s0.4,0.3,0.7,0.3c0.7,0,1-0.4,1-1.1
			c0-0.4-0.1-0.6-0.2-0.8c-0.2-0.2-0.4-0.3-0.7-0.3s-0.6,0.1-0.8,0.3C627.1,210.6,627,210.8,627,211.2z"/>
		<path class="st4" d="M636.5,214.9h-1.2v-3.3c0-0.4-0.1-0.7-0.3-0.9s-0.4-0.3-0.8-0.3c-0.5,0-0.8,0.1-1.1,0.4
			c-0.2,0.3-0.3,0.8-0.3,1.5v2.7h-1.1v-7.7h1.1v1.9c0,0.3,0,0.6-0.1,1h0.1c0.2-0.3,0.4-0.5,0.7-0.6s0.6-0.2,1-0.2c1.3,0,2,0.7,2,2
			L636.5,214.9L636.5,214.9z"/>
		<path class="st4" d="M640.1,214c0.3,0,0.6,0,0.8-0.1v0.9c-0.1,0.1-0.3,0.1-0.5,0.1s-0.4,0.1-0.6,0.1c-1.1,0-1.6-0.6-1.6-1.7v-2.9
			h-0.7v-0.5l0.8-0.4l0.4-1.2h0.7v1.2h1.5v0.9h-1.5v2.9c0,0.3,0.1,0.5,0.2,0.6C639.7,214,639.9,214,640.1,214z"/>
		<path class="st4" d="M644.4,215c-0.8,0-1.5-0.2-2-0.7s-0.7-1.2-0.7-2c0-0.9,0.2-1.6,0.7-2.1c0.4-0.5,1-0.8,1.8-0.8
			c0.7,0,1.3,0.2,1.7,0.7c0.4,0.4,0.6,1,0.6,1.8v0.6h-3.6c0,0.5,0.2,0.9,0.4,1.2c0.3,0.3,0.6,0.4,1.1,0.4c0.3,0,0.6,0,0.9-0.1
			c0.3-0.1,0.6-0.2,0.9-0.3v0.9c-0.3,0.1-0.6,0.2-0.8,0.3C645.1,215,644.8,215,644.4,215z M644.2,210.2c-0.4,0-0.7,0.1-0.9,0.3
			s-0.4,0.6-0.4,1h2.4c0-0.4-0.1-0.8-0.3-1S644.5,210.2,644.2,210.2z"/>
		<path class="st4" d="M649.6,215c-0.7,0-1.2-0.2-1.6-0.7c-0.4-0.5-0.6-1.2-0.6-2.1c0-0.9,0.2-1.6,0.6-2.1c0.4-0.5,0.9-0.7,1.6-0.7
			c0.7,0,1.2,0.3,1.6,0.8h0.1c-0.1-0.4-0.1-0.7-0.1-0.9v-2h1.2v7.7h-0.9l-0.2-0.7h-0.1C650.9,214.7,650.3,215,649.6,215z M649.9,214
			c0.5,0,0.8-0.1,1-0.4c0.2-0.3,0.3-0.7,0.3-1.3v-0.2c0-0.7-0.1-1.2-0.3-1.5s-0.6-0.4-1-0.4s-0.7,0.2-0.9,0.5s-0.3,0.8-0.3,1.4
			c0,0.6,0.1,1.1,0.3,1.4C649.2,213.9,649.5,214,649.9,214z"/>
		<path class="st4" d="M659.4,209.3c0.7,0,1.2,0.2,1.6,0.7c0.4,0.5,0.6,1.2,0.6,2.1c0,0.9-0.2,1.6-0.6,2.1c-0.4,0.5-0.9,0.7-1.6,0.7
			c-0.7,0-1.2-0.2-1.6-0.7h-0.1l-0.2,0.6h-0.9v-7.7h1.1v1.8c0,0.1,0,0.3,0,0.6s0,0.4,0,0.5l0,0C658.1,209.6,658.7,209.3,659.4,209.3
			z M659.1,210.3c-0.5,0-0.8,0.1-1,0.4c-0.2,0.3-0.3,0.7-0.3,1.4v0.1c0,0.7,0.1,1.1,0.3,1.4s0.5,0.4,1,0.4c0.4,0,0.7-0.2,0.9-0.5
			s0.3-0.8,0.3-1.4C660.3,210.9,659.9,210.3,659.1,210.3z"/>
		<path class="st4" d="M662,209.4h1.2l1.1,3.1c0.2,0.4,0.3,0.9,0.3,1.2l0,0c0-0.2,0.1-0.4,0.2-0.7c0.1-0.3,0.5-1.5,1.2-3.7h1.2
			l-2.3,6.2c-0.4,1.1-1.1,1.7-2.1,1.7c-0.3,0-0.5,0-0.7-0.1v-0.9c0.2,0,0.4,0.1,0.6,0.1c0.6,0,0.9-0.3,1.2-1l0.2-0.5L662,209.4z"/>
		<path class="st4" d="M570.9,224.3c0-0.2,0.1-0.4,0.2-0.5c0.1-0.1,0.3-0.2,0.5-0.2s0.4,0.1,0.5,0.2c0.1,0.1,0.2,0.3,0.2,0.5
			s-0.1,0.4-0.2,0.5c-0.1,0.1-0.3,0.2-0.5,0.2s-0.4-0.1-0.5-0.2C570.9,224.7,570.9,224.5,570.9,224.3z M572.1,231.2H571v-5.4h1.1
			V231.2z"/>
		<path class="st4" d="M578.5,231.2h-1.2v-3.3c0-0.4-0.1-0.7-0.3-0.9s-0.4-0.3-0.8-0.3c-0.5,0-0.8,0.1-1.1,0.4
			c-0.2,0.3-0.3,0.8-0.3,1.5v2.7h-1.1v-5.4h0.9l0.2,0.7h0.1c0.2-0.3,0.4-0.5,0.7-0.6s0.6-0.2,1-0.2c1.3,0,1.9,0.7,1.9,2L578.5,231.2
			L578.5,231.2z"/>
		<path class="st4" d="M581.3,231.2l-2-5.4h1.2l1.1,3.2c0.2,0.5,0.3,1,0.3,1.3l0,0c0-0.2,0.1-0.7,0.3-1.3l1.1-3.2h1.2l-2.1,5.4
			H581.3z"/>
		<path class="st4" d="M587.8,231.3c-0.8,0-1.5-0.2-2-0.7s-0.7-1.2-0.7-2c0-0.9,0.2-1.6,0.7-2.1c0.4-0.5,1-0.8,1.8-0.8
			c0.7,0,1.3,0.2,1.7,0.7c0.4,0.4,0.6,1,0.6,1.8v0.6h-3.6c0,0.5,0.2,0.9,0.4,1.2c0.3,0.3,0.6,0.4,1.1,0.4c0.3,0,0.6,0,0.9-0.1
			c0.3-0.1,0.6-0.2,0.9-0.3v0.9c-0.3,0.1-0.6,0.2-0.8,0.3C588.5,231.3,588.1,231.3,587.8,231.3z M587.6,226.5
			c-0.4,0-0.7,0.1-0.9,0.3s-0.4,0.6-0.4,1h2.4c0-0.4-0.1-0.8-0.3-1C588.2,226.6,587.9,226.5,587.6,226.5z"/>
		<path class="st4" d="M593.9,225.7c0.2,0,0.4,0,0.6,0l-0.1,1.1c-0.2,0-0.3-0.1-0.5-0.1c-0.5,0-0.8,0.2-1.1,0.5s-0.4,0.7-0.4,1.2
			v2.8h-1.1v-5.4h0.9l0.2,1h0.1c0.2-0.3,0.4-0.6,0.7-0.8C593.3,225.7,593.6,225.7,593.9,225.7z"/>
		<path class="st4" d="M599.1,229.6c0,0.5-0.2,0.9-0.6,1.2c-0.4,0.3-0.9,0.4-1.6,0.4c-0.7,0-1.3-0.1-1.7-0.3v-1
			c0.6,0.3,1.2,0.4,1.8,0.4c0.7,0,1.1-0.2,1.1-0.6c0-0.1,0-0.3-0.1-0.3c-0.1-0.1-0.2-0.2-0.4-0.3s-0.4-0.2-0.7-0.3
			c-0.6-0.2-1-0.5-1.3-0.7c-0.2-0.2-0.3-0.6-0.3-0.9c0-0.5,0.2-0.8,0.6-1.1c0.4-0.3,0.9-0.4,1.5-0.4s1.2,0.1,1.8,0.4l-0.4,0.9
			c-0.6-0.2-1.1-0.4-1.5-0.4c-0.6,0-0.9,0.2-0.9,0.5c0,0.2,0.1,0.3,0.2,0.4c0.2,0.1,0.5,0.3,1,0.5c0.4,0.2,0.8,0.3,1,0.5
			c0.2,0.1,0.4,0.3,0.4,0.5C599,229.2,599.1,229.4,599.1,229.6z"/>
		<path class="st4" d="M602.7,231.3c-0.8,0-1.5-0.2-2-0.7s-0.7-1.2-0.7-2c0-0.9,0.2-1.6,0.7-2.1c0.4-0.5,1-0.8,1.8-0.8
			c0.7,0,1.3,0.2,1.7,0.7c0.4,0.4,0.6,1,0.6,1.8v0.6h-3.6c0,0.5,0.2,0.9,0.4,1.2c0.3,0.3,0.6,0.4,1.1,0.4c0.3,0,0.6,0,0.9-0.1
			c0.3-0.1,0.6-0.2,0.9-0.3v0.9c-0.3,0.1-0.6,0.2-0.8,0.3C603.4,231.3,603.1,231.3,602.7,231.3z M602.5,226.5
			c-0.4,0-0.7,0.1-0.9,0.3s-0.4,0.6-0.4,1h2.4c0-0.4-0.1-0.8-0.3-1S602.8,226.5,602.5,226.5z"/>
		<path class="st4" d="M613.5,228.5c0,0.9-0.2,1.6-0.7,2.1s-1.1,0.7-1.9,0.7c-0.5,0-0.9-0.1-1.3-0.3c-0.4-0.2-0.7-0.6-0.9-1
			s-0.3-0.9-0.3-1.5c0-0.9,0.2-1.6,0.7-2.1c0.4-0.5,1.1-0.7,1.9-0.7c0.8,0,1.4,0.3,1.9,0.8C613.2,226.9,613.5,227.6,613.5,228.5z
			 M609.5,228.5c0,1.3,0.5,1.9,1.4,1.9s1.4-0.6,1.4-1.9c0-1.2-0.5-1.9-1.4-1.9c-0.5,0-0.8,0.2-1,0.5
			C609.6,227.4,609.5,227.9,609.5,228.5z"/>
		<path class="st4" d="M617.5,226.6h-1.3v4.6H615v-4.6h-0.9v-0.5l0.9-0.4v-0.4c0-0.6,0.1-1.1,0.4-1.4c0.3-0.3,0.8-0.5,1.4-0.5
			c0.4,0,0.8,0.1,1.2,0.2l-0.3,0.9c-0.3-0.1-0.6-0.1-0.8-0.1c-0.3,0-0.4,0.1-0.6,0.2c-0.1,0.2-0.2,0.4-0.2,0.7v0.4h1.3L617.5,226.6
			L617.5,226.6z"/>
		<path class="st4" d="M622.2,231.2l-2-5.4h1.2l1.1,3.2c0.2,0.5,0.3,1,0.3,1.3l0,0c0-0.2,0.1-0.7,0.3-1.3l1.1-3.2h1.2l-2.1,5.4
			H622.2z"/>
		<path class="st4" d="M631.1,228.5c0,0.9-0.2,1.6-0.7,2.1s-1.1,0.7-1.9,0.7c-0.5,0-0.9-0.1-1.3-0.3c-0.4-0.2-0.7-0.6-0.9-1
			s-0.3-0.9-0.3-1.5c0-0.9,0.2-1.6,0.7-2.1c0.4-0.5,1.1-0.7,1.9-0.7c0.8,0,1.4,0.3,1.9,0.8C630.9,226.9,631.1,227.6,631.1,228.5z
			 M627.2,228.5c0,1.3,0.5,1.9,1.4,1.9s1.4-0.6,1.4-1.9c0-1.2-0.5-1.9-1.4-1.9c-0.5,0-0.8,0.2-1,0.5
			C627.3,227.4,627.2,227.9,627.2,228.5z"/>
		<path class="st4" d="M633.6,231.2h-1.1v-7.7h1.1V231.2z"/>
		<path class="st4" d="M638.6,231.2l-0.2-0.8l0,0c-0.3,0.3-0.5,0.6-0.8,0.7c-0.3,0.1-0.6,0.2-1,0.2c-0.5,0-0.9-0.1-1.2-0.4
			c-0.3-0.3-0.4-0.7-0.4-1.2c0-0.6,0.2-1,0.6-1.3c0.4-0.3,1-0.4,1.9-0.5h0.9v-0.3c0-0.3-0.1-0.6-0.2-0.8c-0.2-0.2-0.4-0.3-0.7-0.3
			s-0.5,0-0.8,0.1s-0.5,0.2-0.7,0.3l-0.4-0.8c0.3-0.2,0.6-0.3,1-0.4c0.3-0.1,0.7-0.1,1-0.1c0.7,0,1.2,0.2,1.6,0.5
			c0.3,0.3,0.5,0.8,0.5,1.4v3.7L638.6,231.2L638.6,231.2z M636.9,230.4c0.4,0,0.8-0.1,1-0.4c0.3-0.2,0.4-0.6,0.4-1v-0.5h-0.7
			c-0.5,0-0.9,0.1-1.2,0.3c-0.2,0.2-0.4,0.4-0.4,0.7c0,0.2,0.1,0.4,0.2,0.6C636.4,230.3,636.6,230.4,636.9,230.4z"/>
		<path class="st4" d="M643,230.4c0.3,0,0.6,0,0.8-0.1v0.9c-0.1,0.1-0.3,0.1-0.5,0.1s-0.4,0.1-0.6,0.1c-1.1,0-1.6-0.6-1.6-1.7v-2.9
			h-0.7v-0.5l0.8-0.4l0.4-1.2h0.7v1.2h1.5v0.9h-1.5v2.9c0,0.3,0.1,0.5,0.2,0.6C642.6,230.3,642.8,230.4,643,230.4z"/>
		<path class="st4" d="M644.9,224.3c0-0.2,0.1-0.4,0.2-0.5c0.1-0.1,0.3-0.2,0.5-0.2s0.4,0.1,0.5,0.2c0.1,0.1,0.2,0.3,0.2,0.5
			s-0.1,0.4-0.2,0.5c-0.1,0.1-0.3,0.2-0.5,0.2s-0.4-0.1-0.5-0.2C644.9,224.7,644.9,224.5,644.9,224.3z M646.1,231.2H645v-5.4h1.1
			V231.2z"/>
		<path class="st4" d="M648.9,231.2h-1.1v-7.7h1.1V231.2z"/>
		<path class="st4" d="M650.4,224.3c0-0.2,0.1-0.4,0.2-0.5c0.1-0.1,0.3-0.2,0.5-0.2s0.4,0.1,0.5,0.2c0.1,0.1,0.2,0.3,0.2,0.5
			s-0.1,0.4-0.2,0.5s-0.3,0.2-0.5,0.2s-0.4-0.1-0.5-0.2C650.5,224.7,650.4,224.5,650.4,224.3z M651.7,231.2h-1.1v-5.4h1.1V231.2z"/>
		<path class="st4" d="M655.3,230.4c0.3,0,0.6,0,0.8-0.1v0.9c-0.1,0.1-0.3,0.1-0.5,0.1s-0.4,0.1-0.6,0.1c-1.1,0-1.6-0.6-1.6-1.7
			v-2.9h-0.7v-0.5l0.8-0.4l0.4-1.2h0.7v1.2h1.5v0.9h-1.5v2.9c0,0.3,0.1,0.5,0.2,0.6C654.9,230.3,655.1,230.4,655.3,230.4z"/>
		<path class="st4" d="M656.4,225.7h1.2l1.1,3.1c0.2,0.4,0.3,0.9,0.3,1.2l0,0c0-0.2,0.1-0.4,0.2-0.7c0.1-0.3,0.5-1.5,1.2-3.7h1.2
			l-2.3,6.2c-0.4,1.1-1.1,1.7-2.1,1.7c-0.3,0-0.5,0-0.7-0.1v-0.9c0.2,0,0.4,0.1,0.6,0.1c0.6,0,0.9-0.3,1.2-1l0.2-0.5L656.4,225.7z"
			/>
	</g>
</g>
<g>
	<g>
		<path class="st4" d="M352.7,195.7v2.9h-1.2v-7.2h2c0.9,0,1.6,0.2,2,0.5s0.7,0.9,0.7,1.6c0,0.9-0.5,1.5-1.4,1.9l2,3.2h-1.3
			l-1.7-2.9H352.7z M352.7,194.7h0.8c0.5,0,0.9-0.1,1.2-0.3c0.2-0.2,0.4-0.5,0.4-0.9s-0.1-0.7-0.4-0.9s-0.7-0.3-1.2-0.3h-0.8V194.7z
			"/>
		<path class="st4" d="M360.1,198.7c-0.8,0-1.5-0.2-2-0.7s-0.7-1.2-0.7-2c0-0.9,0.2-1.6,0.7-2.1c0.4-0.5,1-0.8,1.8-0.8
			c0.7,0,1.3,0.2,1.7,0.7c0.4,0.4,0.6,1,0.6,1.8v0.6h-3.6c0,0.5,0.2,0.9,0.4,1.2c0.3,0.3,0.6,0.4,1.1,0.4c0.3,0,0.6,0,0.9-0.1
			s0.6-0.2,0.9-0.3v0.9c-0.3,0.1-0.6,0.2-0.8,0.3C360.8,198.6,360.5,198.7,360.1,198.7z M359.9,193.9c-0.4,0-0.7,0.1-0.9,0.3
			c-0.2,0.2-0.4,0.6-0.4,1h2.4c0-0.4-0.1-0.8-0.3-1C360.6,194,360.3,193.9,359.9,193.9z"/>
		<path class="st4" d="M368.1,198.6h-1.2v-3.4c0-0.4-0.1-0.7-0.2-0.9c-0.2-0.2-0.4-0.3-0.7-0.3c-0.4,0-0.8,0.1-1,0.4
			c-0.2,0.3-0.3,0.8-0.3,1.5v2.7h-1.1v-5.4h0.9l0.2,0.7h0.1c0.1-0.3,0.4-0.5,0.7-0.6c0.3-0.1,0.6-0.2,0.9-0.2c0.8,0,1.4,0.3,1.6,0.9
			h0.1c0.2-0.3,0.4-0.5,0.7-0.6c0.3-0.2,0.6-0.2,1-0.2c0.6,0,1.1,0.2,1.4,0.5s0.4,0.8,0.4,1.5v3.6h-1.1v-3.4c0-0.4-0.1-0.7-0.2-0.9
			s-0.4-0.3-0.7-0.3c-0.4,0-0.8,0.1-1,0.4c-0.2,0.3-0.3,0.7-0.3,1.3v2.7H368.1z"/>
		<path class="st4" d="M377.8,195.8c0,0.9-0.2,1.6-0.7,2.1s-1.1,0.7-1.9,0.7c-0.5,0-0.9-0.1-1.3-0.3s-0.7-0.6-0.9-1
			c-0.2-0.4-0.3-0.9-0.3-1.5c0-0.9,0.2-1.6,0.7-2.1c0.4-0.5,1.1-0.7,1.9-0.7s1.4,0.3,1.9,0.8S377.8,195,377.8,195.8z M373.9,195.8
			c0,1.3,0.5,1.9,1.4,1.9s1.4-0.6,1.4-1.9c0-1.2-0.5-1.9-1.4-1.9c-0.5,0-0.8,0.2-1,0.5C374,194.8,373.9,195.2,373.9,195.8z"/>
		<path class="st4" d="M380.4,198.6l-2-5.4h1.2l1.1,3.2c0.2,0.5,0.3,1,0.3,1.3l0,0c0-0.2,0.1-0.7,0.3-1.3l1.1-3.2h1.2l-2.1,5.4
			H380.4z"/>
		<path class="st4" d="M386.9,198.7c-0.8,0-1.5-0.2-2-0.7s-0.7-1.2-0.7-2c0-0.9,0.2-1.6,0.7-2.1c0.4-0.5,1-0.8,1.8-0.8
			c0.7,0,1.3,0.2,1.7,0.7c0.4,0.4,0.6,1,0.6,1.8v0.6h-3.6c0,0.5,0.2,0.9,0.4,1.2c0.3,0.3,0.6,0.4,1.1,0.4c0.3,0,0.6,0,0.9-0.1
			s0.6-0.2,0.9-0.3v0.9c-0.3,0.1-0.6,0.2-0.8,0.3C387.6,198.6,387.2,198.7,386.9,198.7z M386.7,193.9c-0.4,0-0.7,0.1-0.9,0.3
			c-0.2,0.2-0.4,0.6-0.4,1h2.4c0-0.4-0.1-0.8-0.3-1C387.3,194,387,193.9,386.7,193.9z"/>
		<path class="st4" d="M397.3,198.6h-4.8v-0.9l1.8-1.9c0.5-0.6,0.9-1,1.1-1.2s0.3-0.5,0.4-0.7s0.1-0.4,0.1-0.7s-0.1-0.6-0.3-0.8
			c-0.2-0.2-0.5-0.3-0.8-0.3s-0.5,0.1-0.8,0.2c-0.3,0.1-0.6,0.3-0.9,0.6l-0.6-0.8c0.4-0.3,0.8-0.6,1.2-0.7c0.4-0.1,0.8-0.2,1.2-0.2
			c0.7,0,1.2,0.2,1.6,0.5s0.6,0.8,0.6,1.4c0,0.3-0.1,0.6-0.2,0.9c-0.1,0.3-0.3,0.6-0.5,0.9c-0.2,0.3-0.6,0.7-1.2,1.3l-1.2,1.2l0,0
			h3.4v1.2H397.3z"/>
		<path class="st4" d="M403,195c0,1.3-0.2,2.2-0.6,2.8s-1,0.9-1.8,0.9s-1.4-0.3-1.8-0.9s-0.6-1.5-0.6-2.8s0.2-2.2,0.6-2.8
			s1-0.9,1.8-0.9s1.4,0.3,1.8,0.9C402.8,192.8,403,193.7,403,195z M399.3,195c0,1,0.1,1.7,0.3,2.1s0.5,0.6,1,0.6
			c0.4,0,0.8-0.2,1-0.6c0.2-0.4,0.3-1.1,0.3-2.1s-0.1-1.7-0.3-2.1c-0.2-0.4-0.5-0.6-1-0.6c-0.4,0-0.8,0.2-1,0.6
			C399.4,193.3,399.3,194,399.3,195z"/>
		<path class="st4" d="M407,193.5c0,0.8-0.1,1.3-0.4,1.7s-0.7,0.6-1.2,0.6s-0.9-0.2-1.1-0.6c-0.3-0.4-0.4-1-0.4-1.7
			c0-1.5,0.5-2.3,1.6-2.3c0.5,0,0.9,0.2,1.2,0.6C406.9,192.2,407,192.8,407,193.5z M404.8,193.5c0,0.5,0,0.9,0.1,1.1
			c0.1,0.2,0.2,0.4,0.5,0.4c0.4,0,0.6-0.5,0.6-1.5s-0.2-1.5-0.6-1.5c-0.2,0-0.4,0.1-0.5,0.4S404.8,193,404.8,193.5z M410.2,191.4
			l-4,7.2h-0.9l4-7.2H410.2z M411.6,196.4c0,0.8-0.1,1.3-0.4,1.7s-0.7,0.6-1.2,0.6s-0.9-0.2-1.2-0.6c-0.3-0.4-0.4-0.9-0.4-1.7
			c0-1.5,0.5-2.3,1.6-2.3c0.5,0,0.9,0.2,1.2,0.6C411.5,195.1,411.6,195.7,411.6,196.4z M409.4,196.4c0,0.5,0,0.9,0.1,1.1
			c0.1,0.2,0.3,0.4,0.5,0.4c0.4,0,0.6-0.5,0.6-1.5s-0.2-1.4-0.6-1.4c-0.2,0-0.4,0.1-0.5,0.4C409.5,195.5,409.4,195.9,409.4,196.4z"
			/>
		<path class="st4" d="M419.9,198.6l-0.7-2.5c-0.1-0.3-0.2-0.9-0.5-1.9l0,0c-0.2,0.9-0.3,1.5-0.4,1.9l-0.7,2.5h-1.3l-1.5-5.4h1.2
			l0.7,2.7c0.2,0.7,0.3,1.2,0.3,1.7l0,0c0-0.2,0.1-0.5,0.1-0.8c0.1-0.3,0.1-0.5,0.2-0.7l0.8-2.9h1.3l0.8,2.9c0,0.2,0.1,0.4,0.2,0.7
			s0.1,0.6,0.1,0.8l0,0c0-0.4,0.2-1,0.3-1.7l0.7-2.7h1.2l-1.5,5.4H419.9z"/>
		<path class="st4" d="M423.6,191.7c0-0.2,0.1-0.4,0.2-0.5s0.3-0.2,0.5-0.2s0.4,0.1,0.5,0.2c0.1,0.1,0.2,0.3,0.2,0.5
			s-0.1,0.4-0.2,0.5s-0.3,0.2-0.5,0.2s-0.4-0.1-0.5-0.2C423.6,192,423.6,191.9,423.6,191.7z M424.8,198.6h-1.1v-5.4h1.1V198.6z"/>
		<path class="st4" d="M428.4,197.7c0.3,0,0.6,0,0.8-0.1v0.9c-0.1,0.1-0.3,0.1-0.5,0.1s-0.4,0.1-0.6,0.1c-1.1,0-1.6-0.6-1.6-1.7v-3
			h-0.7v-0.5l0.8-0.4l0.4-1.2h0.7v1.2h1.5v0.9h-1.5v2.9c0,0.3,0.1,0.5,0.2,0.6C428,197.7,428.2,197.7,428.4,197.7z"/>
		<path class="st4" d="M435.1,198.6h-1.2v-3.3c0-0.4-0.1-0.7-0.3-0.9c-0.2-0.2-0.4-0.3-0.8-0.3c-0.5,0-0.8,0.1-1.1,0.4
			c-0.2,0.3-0.3,0.8-0.3,1.5v2.7h-1.1V191h1.1v1.9c0,0.3,0,0.6-0.1,1h0.1c0.2-0.3,0.4-0.5,0.7-0.6s0.6-0.2,1-0.2c1.3,0,2,0.7,2,2
			L435.1,198.6L435.1,198.6z"/>
		<path class="st4" d="M353.5,214.9h-1.1v-7.7h1.1V214.9z"/>
		<path class="st4" d="M358.5,214.9l-0.2-0.8l0,0c-0.3,0.3-0.5,0.6-0.8,0.7c-0.3,0.1-0.6,0.2-1,0.2c-0.5,0-0.9-0.1-1.2-0.4
			c-0.3-0.3-0.4-0.7-0.4-1.2c0-0.6,0.2-1,0.6-1.3s1-0.4,1.9-0.5h0.9v-0.3c0-0.3-0.1-0.6-0.2-0.8c-0.2-0.2-0.4-0.3-0.7-0.3
			c-0.3,0-0.5,0-0.8,0.1s-0.5,0.2-0.7,0.3l-0.4-0.8c0.3-0.2,0.6-0.3,1-0.4c0.3-0.1,0.7-0.1,1-0.1c0.7,0,1.2,0.2,1.6,0.5
			s0.5,0.8,0.5,1.4v3.7L358.5,214.9L358.5,214.9z M356.8,214.1c0.4,0,0.8-0.1,1-0.4c0.3-0.2,0.4-0.6,0.4-1v-0.5h-0.7
			c-0.5,0-0.9,0.1-1.2,0.3s-0.4,0.4-0.4,0.7c0,0.2,0.1,0.4,0.2,0.6C356.3,214,356.5,214.1,356.8,214.1z"/>
		<path class="st4" d="M363.6,209.3c0.2,0,0.4,0,0.6,0l-0.1,1.1c-0.2,0-0.3-0.1-0.5-0.1c-0.5,0-0.8,0.2-1.1,0.5
			c-0.3,0.3-0.4,0.7-0.4,1.2v2.8H361v-5.4h0.9l0.2,1h0.1c0.2-0.3,0.4-0.6,0.7-0.8C363,209.4,363.3,209.3,363.6,209.3z"/>
		<path class="st4" d="M369.7,209.4v0.6l-0.9,0.2c0.1,0.1,0.2,0.3,0.2,0.4c0.1,0.2,0.1,0.3,0.1,0.5c0,0.6-0.2,1-0.6,1.3
			s-0.9,0.5-1.6,0.5c-0.2,0-0.3,0-0.5,0c-0.2,0.2-0.4,0.3-0.4,0.5c0,0.1,0.1,0.2,0.2,0.3s0.3,0.1,0.6,0.1h0.9c0.6,0,1,0.1,1.4,0.4
			c0.3,0.3,0.5,0.6,0.5,1.1c0,0.6-0.3,1.1-0.8,1.4s-1.2,0.5-2.2,0.5c-0.7,0-1.3-0.1-1.7-0.4s-0.6-0.6-0.6-1.1c0-0.3,0.1-0.6,0.3-0.8
			c0.2-0.2,0.5-0.4,0.9-0.5c-0.2-0.1-0.3-0.2-0.4-0.3s-0.1-0.3-0.1-0.5s0.1-0.4,0.2-0.5s0.3-0.3,0.5-0.4c-0.3-0.1-0.5-0.3-0.7-0.6
			s-0.3-0.6-0.3-1c0-0.6,0.2-1,0.6-1.4c0.4-0.3,0.9-0.5,1.6-0.5c0.2,0,0.3,0,0.5,0s0.3,0,0.4,0.1L369.7,209.4L369.7,209.4z
			 M365.5,215.7c0,0.2,0.1,0.4,0.3,0.6c0.2,0.1,0.5,0.2,0.9,0.2c0.6,0,1.1-0.1,1.4-0.3s0.5-0.4,0.5-0.7c0-0.2-0.1-0.4-0.3-0.5
			c-0.2-0.1-0.5-0.2-0.9-0.2h-0.9c-0.3,0-0.6,0.1-0.8,0.2C365.6,215.3,365.5,215.5,365.5,215.7z M366,211.2c0,0.3,0.1,0.6,0.3,0.8
			c0.2,0.2,0.4,0.3,0.7,0.3c0.7,0,1-0.4,1-1.1c0-0.4-0.1-0.6-0.2-0.8c-0.2-0.2-0.4-0.3-0.7-0.3c-0.3,0-0.6,0.1-0.8,0.3
			C366.1,210.6,366,210.8,366,211.2z"/>
		<path class="st4" d="M373.1,215c-0.8,0-1.5-0.2-2-0.7s-0.7-1.2-0.7-2c0-0.9,0.2-1.6,0.7-2.1c0.4-0.5,1-0.8,1.8-0.8
			c0.7,0,1.3,0.2,1.7,0.7c0.4,0.4,0.6,1,0.6,1.8v0.6h-3.6c0,0.5,0.2,0.9,0.4,1.2c0.3,0.3,0.6,0.4,1.1,0.4c0.3,0,0.6,0,0.9-0.1
			s0.6-0.2,0.9-0.3v0.9c-0.3,0.1-0.6,0.2-0.8,0.3C373.8,215,373.5,215,373.1,215z M372.9,210.2c-0.4,0-0.7,0.1-0.9,0.3
			c-0.2,0.2-0.4,0.6-0.4,1h2.4c0-0.4-0.1-0.8-0.3-1C373.5,210.3,373.3,210.2,372.9,210.2z"/>
		<path class="st4" d="M380.1,213.3c0,0.5-0.2,0.9-0.6,1.2s-0.9,0.4-1.6,0.4s-1.3-0.1-1.7-0.3v-1c0.6,0.3,1.2,0.4,1.8,0.4
			c0.7,0,1.1-0.2,1.1-0.6c0-0.1,0-0.3-0.1-0.3c-0.1-0.1-0.2-0.2-0.4-0.3c-0.2-0.1-0.4-0.2-0.7-0.3c-0.6-0.2-1-0.5-1.3-0.7
			c-0.2-0.2-0.3-0.6-0.3-0.9c0-0.5,0.2-0.8,0.6-1.1s0.9-0.4,1.5-0.4s1.2,0.1,1.8,0.4l-0.4,0.9c-0.6-0.2-1.1-0.4-1.5-0.4
			c-0.6,0-0.9,0.2-0.9,0.5c0,0.2,0.1,0.3,0.2,0.4c0.2,0.1,0.5,0.3,1,0.5c0.4,0.2,0.8,0.3,1,0.5c0.2,0.1,0.4,0.3,0.4,0.5
			C380.1,212.8,380.1,213.1,380.1,213.3z"/>
		<path class="st4" d="M383.4,214c0.3,0,0.6,0,0.8-0.1v0.9c-0.1,0.1-0.3,0.1-0.5,0.1s-0.4,0.1-0.6,0.1c-1.1,0-1.6-0.6-1.6-1.7v-2.9
			h-0.7v-0.5l0.8-0.4l0.4-1.2h0.7v1.2h1.5v0.9h-1.5v2.9c0,0.3,0.1,0.5,0.2,0.6C383,214,383.1,214,383.4,214z"/>
		<path class="st4" d="M393.6,207.7v4.7c0,0.5-0.1,1-0.3,1.4c-0.2,0.4-0.6,0.7-1,0.9s-0.9,0.3-1.5,0.3c-0.9,0-1.6-0.2-2.1-0.7
			s-0.7-1.1-0.7-2v-4.6h1.2v4.6c0,0.6,0.1,1,0.4,1.3s0.7,0.4,1.3,0.4c1.1,0,1.6-0.6,1.6-1.7v-4.5L393.6,207.7L393.6,207.7z"/>
		<path class="st4" d="M396.6,212v2.9h-1.2v-7.2h2c0.9,0,1.6,0.2,2,0.5s0.7,0.9,0.7,1.6c0,0.9-0.5,1.5-1.4,1.9l2,3.2h-1.3l-1.7-2.9
			H396.6z M396.6,211h0.8c0.5,0,0.9-0.1,1.2-0.3c0.2-0.2,0.4-0.5,0.4-0.9s-0.1-0.7-0.4-0.9s-0.7-0.3-1.2-0.3h-0.8V211z"/>
		<path class="st4" d="M408.5,212.9c0,0.6-0.2,1.1-0.7,1.5s-1.1,0.5-1.9,0.5s-1.5-0.1-2-0.4v-1.1c0.3,0.2,0.7,0.3,1,0.4
			c0.4,0.1,0.7,0.1,1,0.1c0.5,0,0.8-0.1,1-0.3s0.3-0.4,0.3-0.7s-0.1-0.5-0.3-0.7c-0.2-0.2-0.6-0.4-1.2-0.7c-0.7-0.3-1.1-0.6-1.4-0.9
			s-0.4-0.8-0.4-1.2c0-0.6,0.2-1.1,0.6-1.4c0.4-0.3,1-0.5,1.7-0.5s1.4,0.2,2,0.5l-0.4,1c-0.6-0.3-1.2-0.4-1.7-0.4
			c-0.4,0-0.7,0.1-0.9,0.2c-0.2,0.2-0.3,0.4-0.3,0.7c0,0.2,0,0.3,0.1,0.5s0.2,0.3,0.4,0.4c0.2,0.1,0.5,0.3,1,0.5s0.9,0.4,1.2,0.6
			c0.2,0.2,0.4,0.4,0.5,0.6C408.5,212.3,408.5,212.6,408.5,212.9z"/>
		<path class="st4" d="M411.9,215c-0.8,0-1.4-0.2-1.9-0.7c-0.4-0.5-0.6-1.2-0.6-2.1c0-0.9,0.2-1.6,0.7-2.1c0.4-0.5,1.1-0.7,1.9-0.7
			c0.6,0,1.1,0.1,1.5,0.3l-0.3,0.9c-0.5-0.2-0.9-0.3-1.2-0.3c-0.9,0-1.4,0.6-1.4,1.9c0,0.6,0.1,1.1,0.3,1.4c0.2,0.3,0.6,0.5,1,0.5
			c0.5,0,1-0.1,1.4-0.4v1c-0.2,0.1-0.4,0.2-0.7,0.3C412.6,215,412.3,215,411.9,215z"/>
		<path class="st4" d="M419.5,212.1c0,0.9-0.2,1.6-0.7,2.1s-1.1,0.7-1.9,0.7c-0.5,0-0.9-0.1-1.3-0.3s-0.7-0.6-0.9-1
			c-0.2-0.4-0.3-0.9-0.3-1.5c0-0.9,0.2-1.6,0.7-2.1c0.4-0.5,1.1-0.7,1.9-0.7s1.4,0.3,1.9,0.8S419.5,211.3,419.5,212.1z M415.6,212.1
			c0,1.3,0.5,1.9,1.4,1.9s1.4-0.6,1.4-1.9c0-1.2-0.5-1.9-1.4-1.9c-0.5,0-0.8,0.2-1,0.5C415.7,211.1,415.6,211.5,415.6,212.1z"/>
		<path class="st4" d="M423.5,209.3c0.2,0,0.4,0,0.6,0l-0.1,1.1c-0.2,0-0.3-0.1-0.5-0.1c-0.5,0-0.8,0.2-1.1,0.5
			c-0.3,0.3-0.4,0.7-0.4,1.2v2.8h-1.1v-5.4h0.9l0.2,1h0.1c0.2-0.3,0.4-0.6,0.7-0.8C422.9,209.4,423.2,209.3,423.5,209.3z"/>
		<path class="st4" d="M427.5,215c-0.8,0-1.5-0.2-2-0.7s-0.7-1.2-0.7-2c0-0.9,0.2-1.6,0.7-2.1c0.4-0.5,1-0.8,1.8-0.8
			c0.7,0,1.3,0.2,1.7,0.7c0.4,0.4,0.6,1,0.6,1.8v0.6H426c0,0.5,0.2,0.9,0.4,1.2c0.3,0.3,0.6,0.4,1.1,0.4c0.3,0,0.6,0,0.9-0.1
			s0.6-0.2,0.9-0.3v0.9c-0.3,0.1-0.6,0.2-0.8,0.3C428.2,215,427.8,215,427.5,215z M427.3,210.2c-0.4,0-0.7,0.1-0.9,0.3
			c-0.2,0.2-0.4,0.6-0.4,1h2.4c0-0.4-0.1-0.8-0.3-1C427.9,210.3,427.6,210.2,427.3,210.2z"/>
		<path class="st4" d="M434.5,213.3c0,0.5-0.2,0.9-0.6,1.2s-0.9,0.4-1.6,0.4s-1.3-0.1-1.7-0.3v-1c0.6,0.3,1.2,0.4,1.8,0.4
			c0.7,0,1.1-0.2,1.1-0.6c0-0.1,0-0.3-0.1-0.3c-0.1-0.1-0.2-0.2-0.4-0.3c-0.2-0.1-0.4-0.2-0.7-0.3c-0.6-0.2-1-0.5-1.3-0.7
			c-0.2-0.2-0.3-0.6-0.3-0.9c0-0.5,0.2-0.8,0.6-1.1s0.9-0.4,1.5-0.4s1.2,0.1,1.8,0.4l-0.4,0.9c-0.6-0.2-1.1-0.4-1.5-0.4
			c-0.6,0-0.9,0.2-0.9,0.5c0,0.2,0.1,0.3,0.2,0.4c0.2,0.1,0.5,0.3,1,0.5c0.4,0.2,0.8,0.3,1,0.5c0.2,0.1,0.4,0.3,0.4,0.5
			C434.4,212.8,434.5,213.1,434.5,213.3z"/>
	</g>
</g>
<g>
	
		<linearGradient id="SVGID_2_" gradientUnits="userSpaceOnUse" x1="-10382.2363" y1="253.7" x2="-10575.5361" y2="253.7" gradientTransform="matrix(-1 0 0 -1 -9974.3359 532)">
		<stop  offset="0" style="stop-color:#95D700"/>
		<stop  offset="1" style="stop-color:#00BC3F"/>
	</linearGradient>
	<path class="st5" d="M434.2,304.6h140.7c14.5,0,26.3-11.8,26.3-26.3l0,0c0-14.5-11.8-26.3-26.3-26.3H434.2
		c-14.5,0-26.3,11.8-26.3,26.3l0,0C407.9,292.9,419.7,304.6,434.2,304.6z"/>
	<g>
		<path class="st1" d="M465.6,272.4h-5.2v-9.3h5.2v1.3h-3.7v2.5h3.5v1.3h-3.5v2.9h3.7V272.4z"/>
		<path class="st1" d="M469,272.4h-1.5v-9.9h1.5V272.4z"/>
		<path class="st1" d="M471,263.5c0-0.3,0.1-0.5,0.2-0.6s0.4-0.2,0.6-0.2c0.3,0,0.5,0.1,0.6,0.2s0.2,0.3,0.2,0.6
			c0,0.3-0.1,0.5-0.2,0.6s-0.3,0.2-0.6,0.2c-0.3,0-0.5-0.1-0.6-0.2S471,263.8,471,263.5z M472.6,272.4h-1.5v-7h1.5V272.4z"/>
		<path class="st1" d="M480.6,265.4v0.8l-1.2,0.2c0.1,0.1,0.2,0.3,0.3,0.5c0.1,0.2,0.1,0.4,0.1,0.7c0,0.7-0.2,1.3-0.7,1.7
			c-0.5,0.4-1.2,0.6-2.1,0.6c-0.2,0-0.4,0-0.6-0.1c-0.3,0.2-0.5,0.4-0.5,0.7c0,0.2,0.1,0.3,0.2,0.4s0.4,0.1,0.8,0.1h1.2
			c0.8,0,1.4,0.2,1.8,0.5s0.6,0.8,0.6,1.4c0,0.8-0.3,1.4-1,1.8s-1.6,0.6-2.8,0.6c-1,0-1.7-0.2-2.2-0.5s-0.8-0.8-0.8-1.4
			c0-0.4,0.1-0.8,0.4-1.1c0.3-0.3,0.7-0.5,1.1-0.6c-0.2-0.1-0.4-0.2-0.5-0.4c-0.1-0.2-0.2-0.4-0.2-0.6c0-0.3,0.1-0.5,0.2-0.7
			s0.4-0.4,0.7-0.5c-0.4-0.2-0.7-0.4-0.9-0.8c-0.2-0.4-0.3-0.8-0.3-1.2c0-0.8,0.2-1.3,0.7-1.8c0.5-0.4,1.2-0.6,2-0.6
			c0.2,0,0.4,0,0.6,0s0.4,0.1,0.5,0.1h2.6V265.4z M475.1,273.5c0,0.3,0.1,0.6,0.4,0.7c0.3,0.2,0.7,0.3,1.2,0.3
			c0.8,0,1.4-0.1,1.8-0.3c0.4-0.2,0.6-0.5,0.6-0.9c0-0.3-0.1-0.5-0.3-0.6c-0.2-0.1-0.6-0.2-1.2-0.2h-1.1c-0.4,0-0.8,0.1-1,0.3
			C475.2,272.9,475.1,273.1,475.1,273.5z M475.8,267.7c0,0.4,0.1,0.8,0.3,1c0.2,0.2,0.6,0.4,1,0.4c0.9,0,1.3-0.5,1.3-1.4
			c0-0.5-0.1-0.8-0.3-1.1c-0.2-0.2-0.5-0.4-1-0.4c-0.4,0-0.8,0.1-1,0.4S475.8,267.2,475.8,267.7z"/>
		<path class="st1" d="M481.8,263.5c0-0.3,0.1-0.5,0.2-0.6s0.4-0.2,0.6-0.2c0.3,0,0.5,0.1,0.6,0.2s0.2,0.3,0.2,0.6
			c0,0.3-0.1,0.5-0.2,0.6s-0.3,0.2-0.6,0.2c-0.3,0-0.5-0.1-0.6-0.2S481.8,263.8,481.8,263.5z M483.4,272.4h-1.5v-7h1.5V272.4z"/>
		<path class="st1" d="M489.1,265.3c0.9,0,1.6,0.3,2,0.9c0.5,0.6,0.7,1.5,0.7,2.7c0,1.1-0.2,2-0.7,2.7c-0.5,0.6-1.2,1-2.1,1
			s-1.6-0.3-2.1-1h-0.1l-0.3,0.8h-1.1v-9.9h1.5v2.3c0,0.2,0,0.4,0,0.8c0,0.3,0,0.6,0,0.7h0.1C487.5,265.6,488.2,265.3,489.1,265.3z
			 M488.7,266.5c-0.6,0-1,0.2-1.3,0.5c-0.3,0.4-0.4,0.9-0.4,1.8v0.1c0,0.9,0.1,1.5,0.4,1.9s0.7,0.6,1.3,0.6c0.5,0,0.9-0.2,1.2-0.6
			c0.3-0.4,0.4-1,0.4-1.8C490.4,267.3,489.8,266.5,488.7,266.5z"/>
		<path class="st1" d="M495.1,272.4h-1.5v-9.9h1.5V272.4z"/>
		<path class="st1" d="M500.3,272.5c-1.1,0-1.9-0.3-2.6-1s-0.9-1.5-0.9-2.6s0.3-2,0.9-2.7s1.4-1,2.3-1s1.7,0.3,2.2,0.8
			c0.5,0.6,0.8,1.3,0.8,2.3v0.8h-4.7c0,0.7,0.2,1.2,0.6,1.6c0.3,0.4,0.8,0.5,1.5,0.5c0.4,0,0.8,0,1.2-0.1c0.4-0.1,0.7-0.2,1.1-0.4
			v1.2c-0.4,0.2-0.7,0.3-1.1,0.4C501.2,272.5,500.8,272.5,500.3,272.5z M500,266.4c-0.5,0-0.9,0.1-1.1,0.4c-0.3,0.3-0.5,0.7-0.5,1.3
			h3.2c0-0.6-0.1-1-0.4-1.3C500.9,266.5,500.5,266.4,500,266.4z"/>
		<path class="st1" d="M512.8,270.4c0,0.7-0.2,1.2-0.7,1.6s-1.2,0.5-2.1,0.5s-1.7-0.1-2.2-0.4v-1.3c0.8,0.4,1.6,0.6,2.3,0.6
			c0.9,0,1.4-0.3,1.4-0.8c0-0.2-0.1-0.3-0.2-0.4s-0.3-0.2-0.5-0.4c-0.2-0.1-0.6-0.3-1-0.4c-0.8-0.3-1.4-0.6-1.6-0.9
			c-0.3-0.3-0.4-0.7-0.4-1.2c0-0.6,0.2-1.1,0.7-1.4s1.1-0.5,2-0.5c0.8,0,1.6,0.2,2.3,0.5l-0.5,1.1c-0.8-0.3-1.4-0.5-1.9-0.5
			c-0.8,0-1.2,0.2-1.2,0.7c0,0.2,0.1,0.4,0.3,0.6c0.2,0.2,0.7,0.4,1.3,0.6c0.6,0.2,1,0.4,1.3,0.6c0.3,0.2,0.5,0.4,0.6,0.6
			C512.7,269.8,512.8,270.1,512.8,270.4z"/>
		<path class="st1" d="M517,271.3c0.4,0,0.7-0.1,1.1-0.2v1.1c-0.2,0.1-0.4,0.1-0.6,0.2c-0.3,0-0.5,0.1-0.8,0.1
			c-1.4,0-2.1-0.7-2.1-2.2v-3.8h-1v-0.7l1-0.5l0.5-1.5h0.9v1.6h2v1.1h-2v3.7c0,0.4,0.1,0.6,0.3,0.8
			C516.5,271.2,516.7,271.3,517,271.3z"/>
		<path class="st1" d="M525.7,268.9c0,1.1-0.3,2-0.9,2.7c-0.6,0.6-1.4,1-2.5,1c-0.7,0-1.2-0.1-1.7-0.4s-0.9-0.7-1.2-1.3
			c-0.3-0.6-0.4-1.2-0.4-1.9c0-1.1,0.3-2,0.9-2.7c0.6-0.6,1.4-1,2.5-1c1,0,1.8,0.3,2.4,1C525.4,266.9,525.7,267.8,525.7,268.9z
			 M520.6,268.9c0,1.6,0.6,2.4,1.8,2.4s1.8-0.8,1.8-2.4s-0.6-2.4-1.8-2.4c-0.6,0-1.1,0.2-1.4,0.6
			C520.7,267.5,520.6,268.1,520.6,268.9z"/>
		<path class="st1" d="M530.2,272.5c-1.1,0-1.9-0.3-2.4-0.9c-0.6-0.6-0.8-1.5-0.8-2.7s0.3-2.1,0.9-2.7c0.6-0.6,1.4-0.9,2.5-0.9
			c0.7,0,1.4,0.1,2,0.4l-0.4,1.2c-0.6-0.2-1.1-0.4-1.6-0.4c-1.2,0-1.8,0.8-1.8,2.4c0,0.8,0.2,1.4,0.5,1.8s0.7,0.6,1.3,0.6
			c0.7,0,1.3-0.2,1.9-0.5v1.3c-0.3,0.2-0.6,0.3-0.9,0.3C531,272.5,530.7,272.5,530.2,272.5z"/>
		<path class="st1" d="M535.3,268.7l0.8-1.1l2.1-2.3h1.7l-2.8,3l3,4h-1.7l-2.2-3.1l-0.8,0.7v2.4h-1.5v-9.9h1.5v4.8L535.3,268.7
			L535.3,268.7z"/>
		<path class="st1" d="M546,270.4c0,0.7-0.2,1.2-0.7,1.6s-1.2,0.5-2.1,0.5c-0.9,0-1.7-0.1-2.2-0.4v-1.3c0.8,0.4,1.6,0.6,2.3,0.6
			c0.9,0,1.4-0.3,1.4-0.8c0-0.2-0.1-0.3-0.2-0.4c-0.1-0.1-0.3-0.2-0.5-0.4c-0.2-0.1-0.6-0.3-1-0.4c-0.8-0.3-1.4-0.6-1.6-0.9
			c-0.3-0.3-0.4-0.7-0.4-1.2c0-0.6,0.2-1.1,0.7-1.4s1.1-0.5,2-0.5c0.8,0,1.6,0.2,2.3,0.5l-0.5,1.1c-0.8-0.3-1.4-0.5-1.9-0.5
			c-0.8,0-1.2,0.2-1.2,0.7c0,0.2,0.1,0.4,0.3,0.6s0.7,0.4,1.3,0.6s1,0.4,1.3,0.6s0.5,0.4,0.6,0.6C545.9,269.8,546,270.1,546,270.4z"
			/>
		<path class="st1" d="M549.1,271c-0.2,0.8-0.6,1.8-1.1,3h-1.1c0.3-1.1,0.5-2.2,0.7-3.2h1.5L549.1,271z"/>
		<path class="st1" d="M460,291.7c0,0.7-0.2,1.2-0.7,1.6s-1.2,0.5-2.1,0.5s-1.7-0.1-2.2-0.4v-1.3c0.8,0.4,1.6,0.6,2.3,0.6
			c0.9,0,1.4-0.3,1.4-0.8c0-0.2-0.1-0.3-0.2-0.4s-0.3-0.2-0.5-0.4c-0.2-0.1-0.6-0.3-1-0.4c-0.8-0.3-1.4-0.6-1.6-0.9
			c-0.3-0.3-0.4-0.7-0.4-1.2c0-0.6,0.2-1.1,0.7-1.4s1.1-0.5,2-0.5c0.8,0,1.6,0.2,2.3,0.5l-0.5,1.1c-0.8-0.3-1.4-0.5-1.9-0.5
			c-0.8,0-1.2,0.2-1.2,0.7c0,0.2,0.1,0.4,0.3,0.6c0.2,0.2,0.7,0.4,1.3,0.6c0.6,0.2,1,0.4,1.3,0.6s0.5,0.4,0.6,0.6
			C459.9,291.1,460,291.4,460,291.7z"/>
		<path class="st1" d="M467.8,290.2c0,1.1-0.3,2-0.9,2.7c-0.6,0.6-1.4,1-2.5,1c-0.7,0-1.2-0.1-1.7-0.4s-0.9-0.7-1.2-1.3
			c-0.3-0.6-0.4-1.2-0.4-1.9c0-1.1,0.3-2,0.9-2.7c0.6-0.6,1.4-1,2.5-1c1,0,1.8,0.3,2.4,1C467.5,288.2,467.8,289.1,467.8,290.2z
			 M462.7,290.2c0,1.6,0.6,2.4,1.8,2.4c1.2,0,1.8-0.8,1.8-2.4s-0.6-2.4-1.8-2.4c-0.6,0-1.1,0.2-1.4,0.6
			C462.9,288.8,462.7,289.4,462.7,290.2z"/>
		<path class="st1" d="M473.1,286.6c0.3,0,0.5,0,0.7,0.1l-0.1,1.4c-0.2-0.1-0.4-0.1-0.7-0.1c-0.6,0-1.1,0.2-1.4,0.6
			c-0.4,0.4-0.6,0.9-0.6,1.5v3.7h-1.5v-7h1.2l0.2,1.2h0.1c0.2-0.4,0.5-0.7,0.9-1C472.2,286.7,472.6,286.6,473.1,286.6z"/>
		<path class="st1" d="M477.7,292.6c0.4,0,0.7-0.1,1.1-0.2v1.1c-0.2,0.1-0.4,0.1-0.6,0.2c-0.3,0-0.5,0.1-0.8,0.1
			c-1.4,0-2.1-0.7-2.1-2.2v-3.8h-1v-0.7l1-0.5l0.5-1.5h0.9v1.6h2v1.1h-2v3.7c0,0.4,0.1,0.6,0.3,0.8
			C477.2,292.6,477.4,292.6,477.7,292.6z"/>
		<path class="st1" d="M487.2,286.6c0.9,0,1.6,0.3,2,0.9s0.7,1.5,0.7,2.7c0,1.1-0.2,2-0.7,2.7c-0.5,0.6-1.2,1-2.1,1s-1.6-0.3-2.1-1
			l0,0l-0.3,0.8h-1.1v-9.9h1.5v2.3c0,0.2,0,0.4,0,0.8c0,0.3,0,0.6,0,0.7h0.1C485.5,286.9,486.2,286.6,487.2,286.6z M486.8,287.8
			c-0.6,0-1,0.2-1.3,0.5c-0.3,0.4-0.4,0.9-0.4,1.8v0.1c0,0.9,0.1,1.5,0.4,1.9s0.7,0.6,1.3,0.6c0.5,0,0.9-0.2,1.2-0.6
			c0.3-0.4,0.4-1,0.4-1.8C488.4,288.6,487.9,287.8,486.8,287.8z"/>
		<path class="st1" d="M490.6,286.7h1.6l1.4,4c0.2,0.6,0.4,1.1,0.4,1.6h0.1c0-0.2,0.1-0.5,0.2-0.8s0.6-1.9,1.6-4.7h1.6l-3,7.9
			c-0.5,1.5-1.5,2.2-2.7,2.2c-0.3,0-0.7,0-1-0.1v-1.2c0.2,0.1,0.5,0.1,0.8,0.1c0.7,0,1.2-0.4,1.5-1.2l0.3-0.7L490.6,286.7z"/>
		<path class="st1" d="M503.6,293.7l-2.7-7h1.6l1.4,4.1c0.2,0.7,0.4,1.2,0.4,1.7h0.1c0-0.3,0.2-0.9,0.4-1.7l1.4-4.1h1.6l-2.7,7
			H503.6z"/>
		<path class="st1" d="M515.1,290.2c0,1.1-0.3,2-0.9,2.7c-0.6,0.6-1.4,1-2.5,1c-0.7,0-1.2-0.1-1.7-0.4s-0.9-0.7-1.2-1.3
			c-0.3-0.6-0.4-1.2-0.4-1.9c0-1.1,0.3-2,0.9-2.7c0.6-0.6,1.4-1,2.5-1c1,0,1.8,0.3,2.4,1C514.8,288.2,515.1,289.1,515.1,290.2z
			 M510,290.2c0,1.6,0.6,2.4,1.8,2.4c1.2,0,1.8-0.8,1.8-2.4s-0.6-2.4-1.8-2.4c-0.6,0-1.1,0.2-1.4,0.6
			C510.2,288.8,510,289.4,510,290.2z"/>
		<path class="st1" d="M518.3,293.7h-1.5v-9.9h1.5V293.7z"/>
		<path class="st1" d="M524.8,293.7l-0.3-1h-0.1c-0.3,0.4-0.7,0.7-1,0.9c-0.3,0.2-0.8,0.2-1.3,0.2c-0.7,0-1.2-0.2-1.6-0.6
			c-0.4-0.4-0.6-0.9-0.6-1.6s0.3-1.3,0.8-1.6s1.4-0.6,2.5-0.6h1.2V289c0-0.4-0.1-0.8-0.3-1s-0.5-0.3-1-0.3c-0.4,0-0.7,0.1-1,0.2
			s-0.6,0.2-0.9,0.4l-0.5-1.1c0.4-0.2,0.8-0.3,1.2-0.5c0.5-0.1,0.9-0.2,1.3-0.2c0.9,0,1.6,0.2,2,0.6s0.7,1,0.7,1.8v4.7h-1.1V293.7z
			 M522.6,292.7c0.5,0,1-0.2,1.3-0.5s0.5-0.7,0.5-1.3v-0.6h-0.9c-0.7,0-1.2,0.1-1.5,0.4c-0.3,0.2-0.5,0.5-0.5,1
			c0,0.3,0.1,0.6,0.3,0.7C522,292.6,522.3,292.7,522.6,292.7z"/>
		<path class="st1" d="M530.6,292.6c0.4,0,0.7-0.1,1.1-0.2v1.1c-0.2,0.1-0.4,0.1-0.6,0.2c-0.3,0-0.5,0.1-0.8,0.1
			c-1.4,0-2.1-0.7-2.1-2.2v-3.8h-1v-0.7l1-0.5l0.5-1.5h0.9v1.6h2v1.1h-2v3.7c0,0.4,0.1,0.6,0.3,0.8
			C530.1,292.6,530.3,292.6,530.6,292.6z"/>
		<path class="st1" d="M533,284.9c0-0.3,0.1-0.5,0.2-0.6c0.1-0.1,0.4-0.2,0.6-0.2c0.3,0,0.5,0.1,0.6,0.2s0.2,0.3,0.2,0.6
			c0,0.3-0.1,0.5-0.2,0.6c-0.1,0.1-0.3,0.2-0.6,0.2s-0.5-0.1-0.6-0.2C533.1,285.3,533,285.1,533,284.9z M534.6,293.7h-1.5v-7h1.5
			V293.7z"/>
		<path class="st1" d="M538.2,293.7h-1.5v-9.9h1.5V293.7z"/>
		<path class="st1" d="M540.2,284.9c0-0.3,0.1-0.5,0.2-0.6c0.1-0.1,0.4-0.2,0.6-0.2c0.3,0,0.5,0.1,0.6,0.2s0.2,0.3,0.2,0.6
			c0,0.3-0.1,0.5-0.2,0.6c-0.1,0.1-0.3,0.2-0.6,0.2s-0.5-0.1-0.6-0.2C540.3,285.3,540.2,285.1,540.2,284.9z M541.8,293.7h-1.5v-7
			h1.5V293.7z"/>
		<path class="st1" d="M546.5,292.6c0.4,0,0.7-0.1,1.1-0.2v1.1c-0.2,0.1-0.4,0.1-0.6,0.2c-0.3,0-0.5,0.1-0.8,0.1
			c-1.4,0-2.1-0.7-2.1-2.2v-3.8h-1v-0.7l1-0.5l0.5-1.5h0.9v1.6h2v1.1h-2v3.7c0,0.4,0.1,0.6,0.3,0.8
			C546,292.6,546.3,292.6,546.5,292.6z"/>
		<path class="st1" d="M548,286.7h1.6l1.4,4c0.2,0.6,0.4,1.1,0.4,1.6h0.1c0-0.2,0.1-0.5,0.2-0.8c0.1-0.3,0.6-1.9,1.6-4.7h1.6l-3,7.9
			c-0.5,1.5-1.5,2.2-2.7,2.2c-0.3,0-0.7,0-1-0.1v-1.2c0.2,0.1,0.5,0.1,0.8,0.1c0.7,0,1.2-0.4,1.5-1.2l0.3-0.7L548,286.7z"/>
	</g>
</g>
<line class="st2" x1="393.2" y1="239.6" x2="393.2" y2="280.4"/>
<line class="st2" x1="615.9" y1="239.6" x2="615.9" y2="280.4"/>
<rect x="-7.2" y="-302.5" class="st4" width="50" height="52.8"/>
<rect x="847.8" y="-302.5" class="st4" width="50" height="52.8"/>
<g>
	<path class="st6" d="M828,254.1H658.4c-14.5,0-26.3,11.8-26.3,26.3l0,0c0,14.5,11.8,26.3,26.3,26.3H828c14.5,0,26.3-11.8,26.3-26.3
		l0,0C854.3,265.9,842.5,254.1,828,254.1z"/>
	<g class="st7">
		<path class="st8" d="M658.1,273.1h-1.9l-4.6-7.4h-0.1l0,0.4c0.1,0.8,0.1,1.5,0.1,2.2v4.8h-1.4v-9.3h1.8l4.6,7.4h0
			c0-0.1,0-0.5-0.1-1.1s0-1.1,0-1.4v-4.9h1.4V273.1z"/>
		<path class="st8" d="M663.4,273.3c-1.1,0-1.9-0.3-2.6-1c-0.6-0.6-0.9-1.5-0.9-2.6c0-1.1,0.3-2,0.9-2.7c0.6-0.7,1.4-1,2.4-1
			c0.9,0,1.7,0.3,2.2,0.8c0.5,0.6,0.8,1.3,0.8,2.3v0.8h-4.7c0,0.7,0.2,1.2,0.6,1.6c0.3,0.4,0.8,0.5,1.5,0.5c0.4,0,0.8,0,1.2-0.1
			s0.7-0.2,1.2-0.4v1.2c-0.4,0.2-0.7,0.3-1.1,0.4C664.3,273.2,663.9,273.3,663.4,273.3z M663.2,267.1c-0.5,0-0.9,0.2-1.1,0.5
			c-0.3,0.3-0.5,0.7-0.5,1.3h3.2c0-0.6-0.1-1-0.4-1.3C664,267.3,663.6,267.1,663.2,267.1z"/>
		<path class="st8" d="M673.6,273.1l-0.9-3.3c-0.1-0.3-0.3-1.2-0.6-2.4h-0.1c-0.2,1.1-0.4,2-0.6,2.4l-0.9,3.3h-1.7l-2-7h1.5l0.9,3.5
			c0.2,0.9,0.3,1.6,0.4,2.2h0c0-0.3,0.1-0.7,0.2-1.1c0.1-0.4,0.2-0.7,0.2-0.9l1.1-3.7h1.6l1,3.7c0.1,0.2,0.1,0.5,0.2,1
			c0.1,0.4,0.2,0.8,0.2,1h0.1c0.1-0.5,0.2-1.2,0.4-2.2l0.9-3.5h1.5l-2,7H673.6z"/>
		<path class="st8" d="M687.8,273.1l-0.9-2.6h-3.5l-0.9,2.6h-1.6l3.5-9.3h1.7l3.5,9.3H687.8z M686.4,269.3l-0.9-2.5
			c-0.1-0.2-0.2-0.4-0.3-0.8c-0.1-0.4-0.2-0.6-0.2-0.8c-0.1,0.5-0.3,1.1-0.5,1.7l-0.8,2.4H686.4z"/>
		<path class="st8" d="M696.4,266.1v0.8l-1.2,0.2c0.1,0.1,0.2,0.3,0.3,0.5c0.1,0.2,0.1,0.4,0.1,0.7c0,0.7-0.3,1.3-0.7,1.7
			c-0.5,0.4-1.2,0.6-2.1,0.6c-0.2,0-0.4,0-0.6-0.1c-0.3,0.2-0.5,0.4-0.5,0.7c0,0.2,0.1,0.3,0.2,0.4s0.4,0.1,0.8,0.1h1.2
			c0.8,0,1.4,0.2,1.8,0.5c0.4,0.3,0.6,0.8,0.6,1.4c0,0.8-0.3,1.4-1,1.8c-0.7,0.4-1.6,0.6-2.8,0.6c-1,0-1.7-0.2-2.2-0.5
			c-0.5-0.3-0.8-0.8-0.8-1.4c0-0.4,0.1-0.8,0.4-1.1c0.3-0.3,0.7-0.5,1.1-0.6c-0.2-0.1-0.4-0.2-0.5-0.4c-0.1-0.2-0.2-0.4-0.2-0.6
			c0-0.3,0.1-0.5,0.2-0.7c0.1-0.2,0.4-0.4,0.7-0.5c-0.4-0.2-0.7-0.4-0.9-0.8s-0.3-0.8-0.3-1.2c0-0.8,0.2-1.4,0.7-1.8
			c0.5-0.4,1.2-0.6,2.1-0.6c0.2,0,0.4,0,0.6,0s0.4,0.1,0.5,0.1H696.4z M690.9,274.2c0,0.3,0.1,0.6,0.4,0.7c0.3,0.2,0.7,0.3,1.2,0.3
			c0.8,0,1.4-0.1,1.8-0.3c0.4-0.2,0.6-0.5,0.6-0.9c0-0.3-0.1-0.5-0.3-0.7c-0.2-0.1-0.6-0.2-1.2-0.2h-1.1c-0.4,0-0.8,0.1-1,0.3
			C691,273.6,690.9,273.9,690.9,274.2z M691.5,268.4c0,0.4,0.1,0.8,0.3,1s0.6,0.4,1,0.4c0.9,0,1.3-0.5,1.3-1.4
			c0-0.5-0.1-0.8-0.3-1.1c-0.2-0.2-0.5-0.4-1-0.4c-0.4,0-0.8,0.1-1,0.4C691.6,267.6,691.5,267.9,691.5,268.4z"/>
		<path class="st8" d="M700.7,273.3c-1.1,0-1.9-0.3-2.6-1c-0.6-0.6-0.9-1.5-0.9-2.6c0-1.1,0.3-2,0.9-2.7c0.6-0.7,1.4-1,2.4-1
			c0.9,0,1.7,0.3,2.2,0.8c0.5,0.6,0.8,1.3,0.8,2.3v0.8h-4.7c0,0.7,0.2,1.2,0.6,1.6c0.3,0.4,0.8,0.5,1.5,0.5c0.4,0,0.8,0,1.2-0.1
			s0.7-0.2,1.2-0.4v1.2c-0.4,0.2-0.7,0.3-1.1,0.4C701.7,273.2,701.2,273.3,700.7,273.3z M700.5,267.1c-0.5,0-0.9,0.2-1.1,0.5
			c-0.3,0.3-0.5,0.7-0.5,1.3h3.2c0-0.6-0.1-1-0.4-1.3C701.3,267.3,700.9,267.1,700.5,267.1z"/>
		<path class="st8" d="M714.5,273.1l-0.9-2.6H710l-0.9,2.6h-1.6l3.5-9.3h1.7l3.5,9.3H714.5z M713.1,269.3l-0.9-2.5
			c-0.1-0.2-0.2-0.4-0.3-0.8s-0.2-0.6-0.2-0.8c-0.1,0.5-0.3,1.1-0.5,1.7l-0.8,2.4H713.1z"/>
		<path class="st8" d="M718.6,273.1h-1.5v-9.9h1.5V273.1z"/>
		<path class="st8" d="M724.3,273.3c-0.9,0-1.6-0.3-2.1-1h-0.1c0.1,0.6,0.1,1,0.1,1.1v2.9h-1.5v-10.1h1.2c0,0.1,0.1,0.4,0.2,0.9h0.1
			c0.5-0.7,1.2-1.1,2.1-1.1c0.9,0,1.6,0.3,2,1c0.5,0.6,0.7,1.5,0.7,2.7c0,1.1-0.2,2-0.7,2.7S725.2,273.3,724.3,273.3z M724,267.2
			c-0.6,0-1,0.2-1.3,0.5c-0.3,0.3-0.4,0.9-0.4,1.7v0.2c0,0.9,0.1,1.5,0.4,1.9c0.3,0.4,0.7,0.6,1.3,0.6c0.5,0,0.9-0.2,1.2-0.6
			s0.4-1,0.4-1.8c0-0.8-0.1-1.4-0.4-1.8C724.9,267.4,724.5,267.2,724,267.2z"/>
		<path class="st8" d="M735,273.1h-1.5v-4.3c0-0.5-0.1-0.9-0.3-1.2c-0.2-0.3-0.6-0.4-1-0.4c-0.6,0-1.1,0.2-1.4,0.6
			c-0.3,0.4-0.4,1-0.4,1.9v3.5h-1.5v-9.9h1.5v2.5c0,0.4,0,0.8-0.1,1.3h0.1c0.2-0.3,0.5-0.6,0.8-0.8c0.4-0.2,0.8-0.3,1.3-0.3
			c1.7,0,2.6,0.9,2.6,2.6V273.1z"/>
		<path class="st8" d="M741.5,273.1l-0.3-1h-0.1c-0.3,0.4-0.7,0.7-1,0.9s-0.8,0.2-1.3,0.2c-0.7,0-1.2-0.2-1.6-0.6
			c-0.4-0.4-0.6-0.9-0.6-1.6c0-0.7,0.3-1.3,0.8-1.6c0.5-0.4,1.4-0.6,2.5-0.6l1.2,0v-0.4c0-0.4-0.1-0.8-0.3-1c-0.2-0.2-0.5-0.3-1-0.3
			c-0.4,0-0.7,0.1-1,0.2c-0.3,0.1-0.6,0.2-1,0.4l-0.5-1.1c0.4-0.2,0.8-0.4,1.3-0.5c0.5-0.1,0.9-0.2,1.3-0.2c0.9,0,1.6,0.2,2,0.6
			c0.5,0.4,0.7,1,0.7,1.8v4.7H741.5z M739.3,272.1c0.5,0,1-0.2,1.3-0.5s0.5-0.7,0.5-1.3v-0.6l-0.9,0c-0.7,0-1.2,0.1-1.5,0.4
			c-0.3,0.2-0.5,0.5-0.5,1c0,0.3,0.1,0.6,0.3,0.7C738.6,272,738.9,272.1,739.3,272.1z"/>
		<path class="st8" d="M755.5,263.9v6c0,0.7-0.1,1.3-0.4,1.8c-0.3,0.5-0.7,0.9-1.3,1.2c-0.6,0.3-1.2,0.4-2,0.4c-1.2,0-2-0.3-2.7-0.9
			c-0.6-0.6-1-1.4-1-2.5v-6h1.5v5.9c0,0.8,0.2,1.3,0.5,1.7s0.9,0.5,1.6,0.5c1.4,0,2.1-0.8,2.1-2.3v-5.9H755.5z"/>
		<path class="st8" d="M757.5,272.3c0-0.3,0.1-0.5,0.2-0.7c0.2-0.2,0.4-0.2,0.7-0.2c0.3,0,0.5,0.1,0.7,0.3c0.2,0.2,0.2,0.4,0.2,0.7
			c0,0.3-0.1,0.5-0.2,0.7s-0.4,0.3-0.7,0.3s-0.5-0.1-0.7-0.3C757.5,272.9,757.5,272.6,757.5,272.3z"/>
		<path class="st8" d="M766.8,270.6c0,0.8-0.3,1.5-0.9,1.9c-0.6,0.5-1.4,0.7-2.5,0.7c-1,0-1.9-0.2-2.6-0.5v-1.4
			c0.4,0.2,0.9,0.4,1.3,0.5c0.5,0.1,0.9,0.2,1.3,0.2c0.6,0,1-0.1,1.3-0.3c0.3-0.2,0.4-0.5,0.4-0.9c0-0.3-0.1-0.6-0.4-0.9
			c-0.3-0.2-0.8-0.5-1.6-0.9c-0.8-0.3-1.4-0.7-1.8-1.2c-0.3-0.4-0.5-1-0.5-1.6c0-0.8,0.3-1.4,0.8-1.8c0.6-0.4,1.3-0.7,2.2-0.7
			c0.9,0,1.8,0.2,2.7,0.6l-0.5,1.2c-0.8-0.3-1.6-0.5-2.2-0.5c-0.5,0-0.9,0.1-1.1,0.3s-0.4,0.5-0.4,0.8c0,0.2,0.1,0.4,0.2,0.6
			c0.1,0.2,0.3,0.3,0.5,0.5c0.2,0.2,0.7,0.4,1.3,0.6c0.7,0.3,1.2,0.5,1.5,0.8s0.6,0.5,0.7,0.8C766.7,269.8,766.8,270.2,766.8,270.6z
			"/>
		<path class="st8" d="M768.2,272.3c0-0.3,0.1-0.5,0.2-0.7c0.2-0.2,0.4-0.2,0.7-0.2c0.3,0,0.5,0.1,0.7,0.3c0.2,0.2,0.2,0.4,0.2,0.7
			c0,0.3-0.1,0.5-0.2,0.7c-0.2,0.2-0.4,0.3-0.7,0.3s-0.5-0.1-0.7-0.3C768.3,272.9,768.2,272.6,768.2,272.3z"/>
		<path class="st8" d="M775.5,273.1v-9.3h1.5v8h3.9v1.3H775.5z"/>
		<path class="st8" d="M786.8,273.1l-0.3-1h-0.1c-0.3,0.4-0.7,0.7-1,0.9s-0.8,0.2-1.3,0.2c-0.7,0-1.2-0.2-1.6-0.6
			c-0.4-0.4-0.6-0.9-0.6-1.6c0-0.7,0.3-1.3,0.8-1.6c0.5-0.4,1.4-0.6,2.5-0.6l1.2,0v-0.4c0-0.4-0.1-0.8-0.3-1c-0.2-0.2-0.5-0.3-1-0.3
			c-0.4,0-0.7,0.1-1,0.2c-0.3,0.1-0.6,0.2-1,0.4l-0.5-1.1c0.4-0.2,0.8-0.4,1.3-0.5c0.5-0.1,0.9-0.2,1.3-0.2c0.9,0,1.6,0.2,2,0.6
			c0.5,0.4,0.7,1,0.7,1.8v4.7H786.8z M784.6,272.1c0.5,0,1-0.2,1.3-0.5s0.5-0.7,0.5-1.3v-0.6l-0.9,0c-0.7,0-1.2,0.1-1.5,0.4
			c-0.3,0.2-0.5,0.5-0.5,1c0,0.3,0.1,0.6,0.3,0.7C783.9,272,784.2,272.1,784.6,272.1z"/>
		<path class="st8" d="M793.5,266c0.3,0,0.5,0,0.7,0.1l-0.1,1.4c-0.2-0.1-0.4-0.1-0.7-0.1c-0.6,0-1.1,0.2-1.5,0.6
			c-0.4,0.4-0.6,0.9-0.6,1.5v3.7h-1.5v-7h1.2l0.2,1.2h0.1c0.2-0.4,0.5-0.8,0.9-1C792.7,266.1,793.1,266,793.5,266z"/>
		<path class="st8" d="M801.5,266.1v0.8l-1.2,0.2c0.1,0.1,0.2,0.3,0.3,0.5c0.1,0.2,0.1,0.4,0.1,0.7c0,0.7-0.2,1.3-0.7,1.7
			c-0.5,0.4-1.2,0.6-2.1,0.6c-0.2,0-0.4,0-0.6-0.1c-0.3,0.2-0.5,0.4-0.5,0.7c0,0.2,0.1,0.3,0.2,0.4c0.1,0.1,0.4,0.1,0.8,0.1h1.2
			c0.8,0,1.4,0.2,1.8,0.5c0.4,0.3,0.6,0.8,0.6,1.4c0,0.8-0.3,1.4-1,1.8c-0.7,0.4-1.6,0.6-2.8,0.6c-1,0-1.7-0.2-2.2-0.5
			c-0.5-0.3-0.8-0.8-0.8-1.4c0-0.4,0.1-0.8,0.4-1.1c0.3-0.3,0.7-0.5,1.1-0.6c-0.2-0.1-0.4-0.2-0.5-0.4s-0.2-0.4-0.2-0.6
			c0-0.3,0.1-0.5,0.2-0.7c0.1-0.2,0.4-0.4,0.7-0.5c-0.4-0.2-0.7-0.4-0.9-0.8c-0.2-0.4-0.3-0.8-0.3-1.2c0-0.8,0.2-1.4,0.7-1.8
			c0.5-0.4,1.2-0.6,2.1-0.6c0.2,0,0.4,0,0.6,0c0.2,0,0.4,0.1,0.5,0.1H801.5z M796,274.2c0,0.3,0.1,0.6,0.4,0.7
			c0.3,0.2,0.7,0.3,1.2,0.3c0.8,0,1.4-0.1,1.8-0.3c0.4-0.2,0.6-0.5,0.6-0.9c0-0.3-0.1-0.5-0.3-0.7s-0.6-0.2-1.2-0.2h-1.1
			c-0.4,0-0.8,0.1-1,0.3S796,273.9,796,274.2z M796.6,268.4c0,0.4,0.1,0.8,0.3,1c0.2,0.2,0.6,0.4,1,0.4c0.9,0,1.3-0.5,1.3-1.4
			c0-0.5-0.1-0.8-0.3-1.1c-0.2-0.2-0.5-0.4-1-0.4c-0.4,0-0.8,0.1-1,0.4C796.7,267.6,796.6,267.9,796.6,268.4z"/>
		<path class="st8" d="M805.8,273.3c-1.1,0-1.9-0.3-2.6-1c-0.6-0.6-0.9-1.5-0.9-2.6c0-1.1,0.3-2,0.9-2.7c0.6-0.7,1.4-1,2.4-1
			c0.9,0,1.7,0.3,2.2,0.8c0.5,0.6,0.8,1.3,0.8,2.3v0.8h-4.7c0,0.7,0.2,1.2,0.6,1.6c0.3,0.4,0.8,0.5,1.5,0.5c0.4,0,0.8,0,1.2-0.1
			c0.4-0.1,0.7-0.2,1.2-0.4v1.2c-0.4,0.2-0.7,0.3-1.1,0.4C806.8,273.2,806.3,273.3,805.8,273.3z M805.6,267.1
			c-0.5,0-0.9,0.2-1.1,0.5c-0.3,0.3-0.5,0.7-0.5,1.3h3.2c0-0.6-0.1-1-0.4-1.3C806.4,267.3,806,267.1,805.6,267.1z"/>
		<path class="st8" d="M809.7,270.3V269h3.3v1.3H809.7z"/>
		<path class="st8" d="M818.6,265c-0.9,0-1.6,0.3-2.1,0.9c-0.5,0.6-0.7,1.5-0.7,2.6c0,1.1,0.2,2,0.7,2.6s1.2,0.9,2.1,0.9
			c0.4,0,0.8,0,1.1-0.1s0.8-0.2,1.1-0.3v1.3c-0.7,0.3-1.6,0.4-2.5,0.4c-1.4,0-2.4-0.4-3.1-1.2c-0.7-0.8-1.1-2-1.1-3.5
			c0-1,0.2-1.8,0.5-2.5s0.9-1.3,1.5-1.7c0.7-0.4,1.5-0.6,2.4-0.6c0.9,0,1.8,0.2,2.6,0.6l-0.5,1.3c-0.3-0.1-0.6-0.3-1-0.4
			C819.3,265.1,818.9,265,818.6,265z"/>
		<path class="st8" d="M827.1,273.1l-0.3-1h-0.1c-0.3,0.4-0.7,0.7-1,0.9s-0.8,0.2-1.3,0.2c-0.7,0-1.2-0.2-1.6-0.6
			c-0.4-0.4-0.6-0.9-0.6-1.6c0-0.7,0.3-1.3,0.8-1.6c0.5-0.4,1.4-0.6,2.5-0.6l1.2,0v-0.4c0-0.4-0.1-0.8-0.3-1c-0.2-0.2-0.5-0.3-1-0.3
			c-0.4,0-0.7,0.1-1,0.2c-0.3,0.1-0.6,0.2-1,0.4l-0.5-1.1c0.4-0.2,0.8-0.4,1.3-0.5c0.5-0.1,0.9-0.2,1.3-0.2c0.9,0,1.6,0.2,2,0.6
			s0.7,1,0.7,1.8v4.7H827.1z M824.9,272.1c0.5,0,1-0.2,1.3-0.5c0.3-0.3,0.5-0.7,0.5-1.3v-0.6l-0.9,0c-0.7,0-1.2,0.1-1.5,0.4
			c-0.3,0.2-0.5,0.5-0.5,1c0,0.3,0.1,0.6,0.3,0.7C824.2,272,824.5,272.1,824.9,272.1z"/>
		<path class="st8" d="M833.8,273.3c-0.9,0-1.6-0.3-2.1-1h-0.1c0.1,0.6,0.1,1,0.1,1.1v2.9h-1.5v-10.1h1.2c0,0.1,0.1,0.4,0.2,0.9h0.1
			c0.5-0.7,1.2-1.1,2.1-1.1c0.9,0,1.6,0.3,2,1c0.5,0.6,0.7,1.5,0.7,2.7c0,1.1-0.2,2-0.7,2.7C835.4,272.9,834.7,273.3,833.8,273.3z
			 M833.4,267.2c-0.6,0-1,0.2-1.3,0.5c-0.3,0.3-0.4,0.9-0.4,1.7v0.2c0,0.9,0.1,1.5,0.4,1.9c0.3,0.4,0.7,0.6,1.3,0.6
			c0.5,0,0.9-0.2,1.2-0.6s0.4-1,0.4-1.8c0-0.8-0.1-1.4-0.4-1.8S834,267.2,833.4,267.2z"/>
		<path class="st8" d="M672.3,294.7v-9.3h1.5v8h3.9v1.3H672.3z"/>
		<path class="st8" d="M685.4,291.2c0,1.1-0.3,2-0.9,2.7c-0.6,0.6-1.4,1-2.5,1c-0.7,0-1.2-0.1-1.7-0.4c-0.5-0.3-0.9-0.7-1.2-1.3
			c-0.3-0.6-0.4-1.2-0.4-1.9c0-1.1,0.3-2,0.9-2.7c0.6-0.6,1.4-1,2.5-1c1,0,1.8,0.3,2.4,1C685.1,289.2,685.4,290.1,685.4,291.2z
			 M680.3,291.2c0,1.6,0.6,2.4,1.8,2.4c1.2,0,1.8-0.8,1.8-2.4c0-1.6-0.6-2.4-1.8-2.4c-0.6,0-1.1,0.2-1.4,0.6
			C680.5,289.8,680.3,290.4,680.3,291.2z"/>
		<path class="st8" d="M692.9,294.7l-0.9-3.3c-0.1-0.3-0.3-1.2-0.6-2.4h-0.1c-0.2,1.1-0.4,2-0.6,2.4l-0.9,3.3h-1.7l-2-7h1.5l0.9,3.5
			c0.2,0.9,0.3,1.6,0.4,2.2h0c0-0.3,0.1-0.7,0.2-1.1c0.1-0.4,0.2-0.7,0.2-0.9l1.1-3.7h1.6l1,3.7c0.1,0.2,0.1,0.5,0.2,1
			c0.1,0.4,0.2,0.8,0.2,1h0.1c0.1-0.5,0.2-1.2,0.4-2.2l0.9-3.5h1.5l-2,7H692.9z"/>
		<path class="st8" d="M706.6,285.5h1.6l-3.3,9.3h-1.6l-3.2-9.3h1.6l1.9,5.8c0.1,0.3,0.2,0.6,0.3,1.1s0.2,0.8,0.2,1
			c0.1-0.3,0.1-0.7,0.3-1.1c0.1-0.4,0.2-0.7,0.3-0.9L706.6,285.5z"/>
		<path class="st8" d="M715.5,291.2c0,1.1-0.3,2-0.9,2.7c-0.6,0.6-1.4,1-2.5,1c-0.7,0-1.2-0.1-1.7-0.4c-0.5-0.3-0.9-0.7-1.2-1.3
			c-0.3-0.6-0.4-1.2-0.4-1.9c0-1.1,0.3-2,0.9-2.7c0.6-0.6,1.4-1,2.5-1c1,0,1.8,0.3,2.4,1C715.2,289.2,715.5,290.1,715.5,291.2z
			 M710.4,291.2c0,1.6,0.6,2.4,1.8,2.4c1.2,0,1.8-0.8,1.8-2.4c0-1.6-0.6-2.4-1.8-2.4c-0.6,0-1.1,0.2-1.4,0.6
			C710.5,289.8,710.4,290.4,710.4,291.2z"/>
		<path class="st8" d="M718.7,294.7h-1.5v-9.9h1.5V294.7z"/>
		<path class="st8" d="M725.2,294.7l-0.3-1h-0.1c-0.3,0.4-0.7,0.7-1,0.9s-0.8,0.2-1.3,0.2c-0.7,0-1.2-0.2-1.6-0.6
			c-0.4-0.4-0.6-0.9-0.6-1.6c0-0.7,0.3-1.3,0.8-1.6c0.5-0.4,1.4-0.6,2.5-0.6l1.2,0v-0.4c0-0.4-0.1-0.8-0.3-1c-0.2-0.2-0.5-0.3-1-0.3
			c-0.4,0-0.7,0.1-1,0.2c-0.3,0.1-0.6,0.2-1,0.4l-0.5-1.1c0.4-0.2,0.8-0.4,1.3-0.5c0.5-0.1,0.9-0.2,1.3-0.2c0.9,0,1.6,0.2,2,0.6
			c0.5,0.4,0.7,1,0.7,1.8v4.7H725.2z M723,293.7c0.5,0,1-0.2,1.3-0.5s0.5-0.7,0.5-1.3v-0.6l-0.9,0c-0.7,0-1.2,0.1-1.5,0.4
			c-0.3,0.2-0.5,0.5-0.5,1c0,0.3,0.1,0.6,0.3,0.7C722.3,293.6,722.6,293.7,723,293.7z"/>
		<path class="st8" d="M731,293.7c0.4,0,0.7-0.1,1.1-0.2v1.1c-0.2,0.1-0.4,0.1-0.6,0.2c-0.3,0-0.5,0.1-0.8,0.1
			c-1.4,0-2.1-0.7-2.1-2.2v-3.8h-1v-0.7l1-0.5l0.5-1.5h0.9v1.6h2v1.1h-2v3.8c0,0.4,0.1,0.6,0.3,0.8
			C730.4,293.6,730.7,293.7,731,293.7z"/>
		<path class="st8" d="M733.4,285.9c0-0.3,0.1-0.5,0.2-0.6c0.1-0.1,0.4-0.2,0.6-0.2c0.3,0,0.5,0.1,0.6,0.2c0.1,0.1,0.2,0.3,0.2,0.6
			c0,0.3-0.1,0.5-0.2,0.6c-0.1,0.1-0.4,0.2-0.6,0.2c-0.3,0-0.5-0.1-0.6-0.2C733.4,286.3,733.4,286.1,733.4,285.9z M734.9,294.7h-1.5
			v-7h1.5V294.7z"/>
		<path class="st8" d="M738.6,294.7h-1.5v-9.9h1.5V294.7z"/>
		<path class="st8" d="M740.6,285.9c0-0.3,0.1-0.5,0.2-0.6c0.1-0.1,0.4-0.2,0.6-0.2c0.3,0,0.5,0.1,0.6,0.2c0.1,0.1,0.2,0.3,0.2,0.6
			c0,0.3-0.1,0.5-0.2,0.6c-0.1,0.1-0.4,0.2-0.6,0.2c-0.3,0-0.5-0.1-0.6-0.2C740.7,286.3,740.6,286.1,740.6,285.9z M742.2,294.7h-1.5
			v-7h1.5V294.7z"/>
		<path class="st8" d="M746.9,293.7c0.4,0,0.7-0.1,1.1-0.2v1.1c-0.2,0.1-0.4,0.1-0.6,0.2c-0.3,0-0.5,0.1-0.8,0.1
			c-1.4,0-2.1-0.7-2.1-2.2v-3.8h-1v-0.7l1-0.5l0.5-1.5h0.9v1.6h2v1.1h-2v3.8c0,0.4,0.1,0.6,0.3,0.8
			C746.4,293.6,746.7,293.7,746.9,293.7z"/>
		<path class="st8" d="M748.4,287.7h1.6l1.4,4c0.2,0.6,0.4,1.1,0.4,1.6h0.1c0-0.2,0.1-0.5,0.2-0.8s0.6-1.9,1.6-4.7h1.6l-3,8
			c-0.5,1.5-1.5,2.2-2.7,2.2c-0.3,0-0.7,0-1-0.1v-1.2c0.2,0.1,0.5,0.1,0.8,0.1c0.7,0,1.2-0.4,1.5-1.3l0.3-0.7L748.4,287.7z"/>
		<path class="st8" d="M762.4,288.9c0.9,0,1.7,0.2,2.2,0.7s0.8,1.2,0.8,2c0,1-0.3,1.8-0.9,2.3s-1.5,0.8-2.6,0.8
			c-1,0-1.9-0.2-2.4-0.5V293c0.3,0.2,0.7,0.3,1.2,0.5c0.4,0.1,0.9,0.2,1.2,0.2c0.7,0,1.2-0.2,1.5-0.5c0.4-0.3,0.5-0.7,0.5-1.3
			c0-1.1-0.7-1.7-2.1-1.7c-0.2,0-0.4,0-0.7,0.1s-0.5,0.1-0.8,0.1l-0.7-0.4l0.4-4.5h4.8v1.3h-3.5l-0.2,2.3c0.1,0,0.3-0.1,0.5-0.1
			C761.9,289,762.1,288.9,762.4,288.9z"/>
		<path class="st8" d="M773,290.1c0,1.6-0.3,2.8-0.8,3.6c-0.5,0.8-1.3,1.2-2.4,1.2c-1,0-1.8-0.4-2.3-1.2c-0.5-0.8-0.8-2-0.8-3.6
			c0-1.6,0.3-2.8,0.8-3.6c0.5-0.8,1.3-1.2,2.4-1.2c1,0,1.8,0.4,2.4,1.2S773,288.5,773,290.1z M768.2,290.1c0,1.3,0.1,2.2,0.4,2.7
			c0.3,0.5,0.7,0.8,1.2,0.8s1-0.3,1.3-0.8s0.4-1.4,0.4-2.7c0-1.2-0.1-2.1-0.4-2.7s-0.7-0.8-1.3-0.8s-1,0.3-1.2,0.8
			C768.3,287.9,768.2,288.8,768.2,290.1z"/>
		<path class="st8" d="M778.2,294.7v-9.3h1.5v9.3H778.2z"/>
		<path class="st8" d="M788.1,294.7h-1.5v-4.3c0-0.5-0.1-0.9-0.3-1.2c-0.2-0.3-0.6-0.4-1-0.4c-0.6,0-1.1,0.2-1.4,0.6s-0.4,1-0.4,1.9
			v3.5H782v-7h1.2l0.2,0.9h0.1c0.2-0.3,0.5-0.6,0.9-0.8c0.4-0.2,0.8-0.3,1.3-0.3c1.7,0,2.5,0.9,2.5,2.6V294.7z"/>
		<path class="st8" d="M792.6,294.9c-0.9,0-1.6-0.3-2.1-1c-0.5-0.6-0.7-1.5-0.7-2.7c0-1.2,0.2-2,0.7-2.7c0.5-0.6,1.2-1,2.1-1
			c0.9,0,1.6,0.3,2.1,1h0.1c-0.1-0.5-0.1-0.9-0.1-1.2v-2.6h1.5v9.9H795l-0.3-0.9h-0.1C794.2,294.5,793.5,294.9,792.6,294.9z
			 M793,293.7c0.6,0,1.1-0.2,1.3-0.5s0.4-0.9,0.4-1.7v-0.2c0-0.9-0.1-1.5-0.4-1.9c-0.3-0.4-0.7-0.6-1.4-0.6c-0.5,0-0.9,0.2-1.2,0.6
			c-0.3,0.4-0.4,1-0.4,1.8c0,0.8,0.1,1.4,0.4,1.8C792,293.5,792.4,293.7,793,293.7z"/>
		<path class="st8" d="M801.4,294.9c-1.1,0-1.9-0.3-2.6-1c-0.6-0.6-0.9-1.5-0.9-2.6c0-1.1,0.3-2,0.9-2.7c0.6-0.7,1.4-1,2.4-1
			c0.9,0,1.7,0.3,2.2,0.8c0.5,0.6,0.8,1.3,0.8,2.3v0.8h-4.7c0,0.7,0.2,1.2,0.6,1.6c0.3,0.4,0.8,0.5,1.5,0.5c0.4,0,0.8,0,1.2-0.1
			c0.4-0.1,0.7-0.2,1.2-0.4v1.2c-0.4,0.2-0.7,0.3-1.1,0.4C802.3,294.8,801.9,294.9,801.4,294.9z M801.1,288.7
			c-0.5,0-0.9,0.2-1.1,0.5c-0.3,0.3-0.5,0.7-0.5,1.3h3.2c0-0.6-0.1-1-0.4-1.3C802,288.9,801.6,288.7,801.1,288.7z"/>
		<path class="st8" d="M807.4,291.2l-2.4-3.4h1.7l1.6,2.5l1.6-2.5h1.7l-2.4,3.4l2.5,3.6h-1.7l-1.7-2.6l-1.7,2.6h-1.7L807.4,291.2z"
			/>
	</g>
</g>
</svg>
