<?xml version="1.0" encoding="utf-8"?>
<!-- Generator: Adobe Illustrator 24.2.1, SVG Export Plug-In . SVG Version: 6.00 Build 0)  -->
<svg version="1.1" id="Layer_1" xmlns="http://www.w3.org/2000/svg" xmlns:xlink="http://www.w3.org/1999/xlink" x="0px" y="0px"
	 viewBox="0 0 905 530" style="enable-background:new 0 0 905 530;" xml:space="preserve">
<style type="text/css">
	.st0{fill:#054BA4;}
	.st1{fill:url(#SVGID_1_);}
	.st2{fill:#FFFFFF;}
	.st3{fill:none;stroke:#00B9EE;stroke-width:1.4429;stroke-linecap:round;stroke-linejoin:round;stroke-miterlimit:10;}
	.st4{fill:#284D95;}
	.st5{fill:#D1D8DD;}
	.st6{enable-background:new    ;}
	.st7{fill:#314D91;}
</style>
<g>
	<g>
		<path class="st0" d="M442.5,230.1c0,0.6-0.2,1.1-0.7,1.5s-1.1,0.5-1.9,0.5s-1.5-0.1-2-0.4v-1.1c0.3,0.2,0.7,0.3,1,0.4
			c0.4,0.1,0.7,0.1,1,0.1c0.5,0,0.8-0.1,1-0.3s0.3-0.4,0.3-0.7s-0.1-0.5-0.3-0.7c-0.2-0.2-0.6-0.4-1.2-0.7c-0.7-0.3-1.1-0.6-1.4-0.9
			c-0.3-0.3-0.4-0.8-0.4-1.2c0-0.6,0.2-1.1,0.6-1.4c0.4-0.3,1-0.5,1.7-0.5s1.4,0.2,2,0.5l-0.4,1c-0.6-0.3-1.2-0.4-1.7-0.4
			c-0.4,0-0.7,0.1-0.9,0.2c-0.2,0.2-0.3,0.4-0.3,0.7c0,0.2,0,0.3,0.1,0.5c0.1,0.1,0.2,0.3,0.4,0.4c0.2,0.1,0.5,0.3,1,0.5
			s0.9,0.4,1.2,0.6c0.2,0.2,0.4,0.4,0.5,0.6C442.5,229.5,442.5,229.8,442.5,230.1z"/>
		<path class="st0" d="M446.1,232.2c-0.8,0-1.5-0.2-2-0.7s-0.7-1.2-0.7-2c0-0.9,0.2-1.6,0.7-2.1c0.4-0.5,1-0.8,1.8-0.8
			c0.7,0,1.3,0.2,1.7,0.7c0.4,0.4,0.6,1,0.6,1.8v0.6h-3.6c0,0.5,0.2,0.9,0.4,1.2c0.3,0.3,0.6,0.4,1.1,0.4c0.3,0,0.6,0,0.9-0.1
			s0.6-0.2,0.9-0.3v0.9c-0.3,0.1-0.6,0.2-0.8,0.3C446.8,232.2,446.5,232.2,446.1,232.2z M445.9,227.4c-0.4,0-0.7,0.1-0.9,0.4
			c-0.2,0.2-0.4,0.6-0.4,1h2.5c0-0.5-0.1-0.8-0.3-1C446.6,227.5,446.3,227.4,445.9,227.4z"/>
		<path class="st0" d="M450.7,232.1h-1.1v-7.7h1.1V232.1z"/>
		<path class="st0" d="M454.7,232.2c-0.8,0-1.5-0.2-2-0.7s-0.7-1.2-0.7-2c0-0.9,0.2-1.6,0.7-2.1c0.4-0.5,1-0.8,1.8-0.8
			c0.7,0,1.3,0.2,1.7,0.7c0.4,0.4,0.6,1,0.6,1.8v0.6h-3.6c0,0.5,0.2,0.9,0.4,1.2c0.3,0.3,0.6,0.4,1.1,0.4c0.3,0,0.6,0,0.9-0.1
			s0.6-0.2,0.9-0.3v0.9c-0.3,0.1-0.6,0.2-0.8,0.3C455.4,232.2,455,232.2,454.7,232.2z M454.5,227.4c-0.4,0-0.7,0.1-0.9,0.4
			c-0.2,0.2-0.4,0.6-0.4,1h2.5c0-0.5-0.1-0.8-0.3-1C455.1,227.5,454.8,227.4,454.5,227.4z"/>
		<path class="st0" d="M460.3,232.2c-0.8,0-1.4-0.2-1.9-0.7c-0.4-0.5-0.6-1.2-0.6-2.1c0-0.9,0.2-1.6,0.7-2.1
			c0.4-0.5,1.1-0.7,1.9-0.7c0.6,0,1.1,0.1,1.5,0.3l-0.3,0.9c-0.5-0.2-0.9-0.3-1.2-0.3c-0.9,0-1.4,0.6-1.4,1.9c0,0.6,0.1,1.1,0.3,1.4
			c0.2,0.3,0.6,0.5,1,0.5c0.5,0,1-0.1,1.4-0.4v1c-0.2,0.1-0.4,0.2-0.7,0.3C460.9,232.2,460.6,232.2,460.3,232.2z"/>
		<path class="st0" d="M465,231.3c0.3,0,0.6,0,0.8-0.1v0.9c-0.1,0.1-0.3,0.1-0.5,0.1s-0.4,0.1-0.6,0.1c-1.1,0-1.6-0.6-1.6-1.7v-2.9
			h-0.7V227l0.8-0.4l0.4-1.2h0.7v1.2h1.5v0.9h-1.5v2.9c0,0.3,0.1,0.5,0.2,0.6C464.6,231.2,464.8,231.3,465,231.3z"/>
		<path class="st0" d="M471.6,227.6c0.7,0,1.3,0.2,1.7,0.6c0.4,0.4,0.6,0.9,0.6,1.6c0,0.8-0.2,1.4-0.7,1.8c-0.5,0.4-1.2,0.6-2,0.6
			s-1.4-0.1-1.9-0.4v-1.1c0.3,0.2,0.6,0.3,0.9,0.4c0.3,0.1,0.7,0.1,1,0.1c0.5,0,0.9-0.1,1.2-0.4c0.3-0.2,0.4-0.6,0.4-1
			c0-0.9-0.5-1.3-1.6-1.3c-0.2,0-0.3,0-0.6,0c-0.2,0-0.4,0.1-0.6,0.1l-0.5-0.3l0.3-3.5h3.7v1h-2.7l-0.2,1.8c0.1,0,0.3,0,0.4-0.1
			C471.2,227.6,471.4,227.6,471.6,227.6z"/>
		<path class="st0" d="M479.7,228.5c0,1.3-0.2,2.2-0.6,2.8s-1,0.9-1.8,0.9s-1.4-0.3-1.8-0.9s-0.6-1.5-0.6-2.8s0.2-2.2,0.6-2.8
			s1-0.9,1.8-0.9s1.4,0.3,1.8,0.9C479.5,226.4,479.7,227.3,479.7,228.5z M476,228.5c0,1,0.1,1.7,0.3,2.1s0.5,0.6,1,0.6
			c0.4,0,0.8-0.2,1-0.6c0.2-0.4,0.3-1.1,0.3-2.1s-0.1-1.7-0.3-2.1c-0.2-0.4-0.5-0.6-1-0.6c-0.4,0-0.8,0.2-1,0.6
			C476.1,226.8,476,227.5,476,228.5z"/>
		<path class="st0" d="M487.2,230.5c0,0.5-0.2,0.9-0.6,1.2s-0.9,0.4-1.6,0.4s-1.3-0.1-1.7-0.3v-1c0.6,0.3,1.2,0.4,1.8,0.4
			c0.7,0,1.1-0.2,1.1-0.6c0-0.1,0-0.3-0.1-0.3c-0.1-0.1-0.2-0.2-0.4-0.3c-0.2-0.1-0.4-0.2-0.7-0.3c-0.6-0.2-1-0.5-1.3-0.7
			c-0.2-0.2-0.3-0.6-0.3-0.9c0-0.5,0.2-0.8,0.6-1.1s0.9-0.4,1.5-0.4s1.2,0.1,1.8,0.4l-0.4,0.9c-0.6-0.2-1.1-0.4-1.5-0.4
			c-0.6,0-0.9,0.2-0.9,0.5c0,0.2,0.1,0.3,0.2,0.4c0.2,0.1,0.5,0.3,1,0.5c0.4,0.2,0.8,0.3,1,0.5c0.2,0.1,0.4,0.3,0.4,0.5
			C487.2,230.1,487.2,230.3,487.2,230.5z"/>
		<path class="st0" d="M490.5,231.3c0.3,0,0.6,0,0.8-0.1v0.9c-0.1,0.1-0.3,0.1-0.5,0.1s-0.4,0.1-0.6,0.1c-1.1,0-1.6-0.6-1.6-1.7
			v-2.9h-0.7V227l0.8-0.4l0.4-1.2h0.7v1.2h1.5v0.9h-1.5v2.9c0,0.3,0.1,0.5,0.2,0.6C490,231.2,490.2,231.3,490.5,231.3z"/>
		<path class="st0" d="M497.2,229.4c0,0.9-0.2,1.6-0.7,2.1s-1.1,0.7-1.9,0.7c-0.5,0-1-0.1-1.3-0.3c-0.4-0.2-0.7-0.6-0.9-1
			c-0.2-0.4-0.3-0.9-0.3-1.5c0-0.9,0.2-1.6,0.7-2.1c0.4-0.5,1.1-0.7,1.9-0.7s1.4,0.3,1.9,0.8C496.9,227.8,497.2,228.5,497.2,229.4z
			 M493.2,229.4c0,1.3,0.5,1.9,1.4,1.9s1.4-0.6,1.4-1.9c0-1.2-0.5-1.9-1.4-1.9c-0.5,0-0.8,0.2-1,0.5
			C493.3,228.3,493.2,228.8,493.2,229.4z"/>
		<path class="st0" d="M500.7,232.2c-0.8,0-1.4-0.2-1.9-0.7c-0.4-0.5-0.6-1.2-0.6-2.1c0-0.9,0.2-1.6,0.7-2.1
			c0.4-0.5,1.1-0.7,1.9-0.7c0.6,0,1.1,0.1,1.5,0.3l-0.3,0.9c-0.5-0.2-0.9-0.3-1.2-0.3c-0.9,0-1.4,0.6-1.4,1.9c0,0.6,0.1,1.1,0.3,1.4
			c0.2,0.3,0.6,0.5,1,0.5c0.5,0,1-0.1,1.4-0.4v1c-0.2,0.1-0.4,0.2-0.7,0.3C501.3,232.2,501,232.2,500.7,232.2z"/>
		<path class="st0" d="M504.5,229.2l0.6-0.8l1.6-1.8h1.3l-2,2.4l2.3,3.1H507l-1.7-2.4l-0.6,0.5v1.9h-1.1v-7.7h1.1v3.7L504.5,229.2
			L504.5,229.2z"/>
		<path class="st0" d="M512.8,230.5c0,0.5-0.2,0.9-0.6,1.2c-0.4,0.3-0.9,0.4-1.6,0.4s-1.3-0.1-1.7-0.3v-1c0.6,0.3,1.2,0.4,1.8,0.4
			c0.7,0,1.1-0.2,1.1-0.6c0-0.1,0-0.3-0.1-0.3s-0.2-0.2-0.4-0.3c-0.2-0.1-0.4-0.2-0.7-0.3c-0.6-0.2-1-0.5-1.3-0.7
			c-0.2-0.2-0.3-0.6-0.3-0.9c0-0.5,0.2-0.8,0.6-1.1s0.9-0.4,1.5-0.4s1.2,0.1,1.8,0.4l-0.4,0.9c-0.6-0.2-1.1-0.4-1.5-0.4
			c-0.6,0-0.9,0.2-0.9,0.5c0,0.2,0.1,0.3,0.2,0.4c0.2,0.1,0.5,0.3,1,0.5c0.4,0.2,0.8,0.3,1,0.5c0.2,0.1,0.4,0.3,0.4,0.5
			C512.7,230.1,512.8,230.3,512.8,230.5z"/>
		<path class="st0" d="M521,232.1l-0.7-2.5c-0.1-0.3-0.2-0.9-0.5-1.9l0,0c-0.2,0.9-0.3,1.5-0.4,1.9l-0.7,2.5h-1.3l-1.5-5.5h1.2
			l0.7,2.7c0.2,0.7,0.3,1.2,0.3,1.7l0,0c0-0.2,0.1-0.5,0.1-0.8c0.1-0.3,0.1-0.5,0.2-0.7l0.8-2.9h1.3l0.8,2.9c0,0.2,0.1,0.4,0.2,0.7
			c0.1,0.3,0.1,0.6,0.1,0.8l0,0c0-0.4,0.2-1,0.3-1.7l0.7-2.7h1.2l-1.5,5.5H521z"/>
		<path class="st0" d="M524.7,225.2c0-0.2,0.1-0.4,0.2-0.5c0.1-0.1,0.3-0.2,0.5-0.2s0.4,0.1,0.5,0.2c0.1,0.1,0.2,0.3,0.2,0.5
			s-0.1,0.4-0.2,0.5c-0.1,0.1-0.3,0.2-0.5,0.2s-0.4-0.1-0.5-0.2C524.8,225.6,524.7,225.4,524.7,225.2z M525.9,232.1h-1.1v-5.5h1.1
			V232.1z"/>
		<path class="st0" d="M529.6,231.3c0.3,0,0.6,0,0.8-0.1v0.9c-0.1,0.1-0.3,0.1-0.5,0.1s-0.4,0.1-0.6,0.1c-1.1,0-1.6-0.6-1.6-1.7
			v-2.9H527V227l0.8-0.4l0.4-1.2h0.7v1.2h1.5v0.9h-1.5v2.9c0,0.3,0.1,0.5,0.2,0.6C529.2,231.2,529.4,231.3,529.6,231.3z"/>
		<path class="st0" d="M536.2,232.1H535v-3.4c0-0.4-0.1-0.7-0.3-0.9s-0.4-0.3-0.8-0.3c-0.5,0-0.8,0.1-1.1,0.4
			c-0.2,0.3-0.3,0.8-0.3,1.5v2.7h-1.1v-7.7h1.1v1.9c0,0.3,0,0.6-0.1,1h0.1c0.2-0.3,0.4-0.5,0.7-0.6s0.6-0.2,1-0.2c1.3,0,2,0.7,2,2
			L536.2,232.1L536.2,232.1z"/>
		<path class="st0" d="M541.6,232.1h-1.1v-7.7h1.1V232.1z"/>
		<path class="st0" d="M548,229.4c0,0.9-0.2,1.6-0.7,2.1s-1.1,0.7-1.9,0.7c-0.5,0-1-0.1-1.3-0.3c-0.4-0.2-0.7-0.6-0.9-1
			s-0.3-0.9-0.3-1.5c0-0.9,0.2-1.6,0.7-2.1c0.4-0.5,1.1-0.7,1.9-0.7c0.8,0,1.4,0.3,1.9,0.8C547.8,227.8,548,228.5,548,229.4z
			 M544.1,229.4c0,1.3,0.5,1.9,1.4,1.9s1.4-0.6,1.4-1.9c0-1.2-0.5-1.9-1.4-1.9c-0.5,0-0.8,0.2-1,0.5
			C544.2,228.3,544.1,228.8,544.1,229.4z"/>
		<path class="st0" d="M553.8,232.1l-0.7-2.5c-0.1-0.3-0.2-0.9-0.5-1.9l0,0c-0.2,0.9-0.3,1.5-0.4,1.9l-0.7,2.5h-1.3l-1.5-5.5h1.2
			l0.7,2.7c0.2,0.7,0.3,1.2,0.3,1.7l0,0c0-0.2,0.1-0.5,0.1-0.8c0.1-0.3,0.1-0.5,0.2-0.7l0.8-2.9h1.3l0.8,2.9c0,0.2,0.1,0.4,0.2,0.7
			c0.1,0.3,0.1,0.6,0.1,0.8l0,0c0-0.4,0.2-1,0.3-1.7l0.7-2.7h1.2l-1.5,5.5H553.8z"/>
		<path class="st0" d="M559.9,232.2c-0.8,0-1.5-0.2-2-0.7s-0.7-1.2-0.7-2c0-0.9,0.2-1.6,0.7-2.1c0.4-0.5,1-0.8,1.8-0.8
			c0.7,0,1.3,0.2,1.7,0.7c0.4,0.4,0.6,1,0.6,1.8v0.6h-3.6c0,0.5,0.2,0.9,0.4,1.2c0.3,0.3,0.6,0.4,1.1,0.4c0.3,0,0.6,0,0.9-0.1
			c0.3-0.1,0.6-0.2,0.9-0.3v0.9c-0.3,0.1-0.6,0.2-0.8,0.3C560.6,232.2,560.2,232.2,559.9,232.2z M559.7,227.4
			c-0.4,0-0.7,0.1-0.9,0.4c-0.2,0.2-0.4,0.6-0.4,1h2.5c0-0.5-0.1-0.8-0.3-1C560.3,227.5,560,227.4,559.7,227.4z"/>
		<path class="st0" d="M566.9,230.5c0,0.5-0.2,0.9-0.6,1.2c-0.4,0.3-0.9,0.4-1.6,0.4c-0.7,0-1.3-0.1-1.7-0.3v-1
			c0.6,0.3,1.2,0.4,1.8,0.4c0.7,0,1.1-0.2,1.1-0.6c0-0.1,0-0.3-0.1-0.3s-0.2-0.2-0.4-0.3s-0.4-0.2-0.7-0.3c-0.6-0.2-1-0.5-1.3-0.7
			c-0.2-0.2-0.3-0.6-0.3-0.9c0-0.5,0.2-0.8,0.6-1.1c0.4-0.3,0.9-0.4,1.5-0.4s1.2,0.1,1.8,0.4l-0.4,0.9c-0.6-0.2-1.1-0.4-1.5-0.4
			c-0.6,0-0.9,0.2-0.9,0.5c0,0.2,0.1,0.3,0.2,0.4c0.2,0.1,0.5,0.3,1,0.5c0.4,0.2,0.8,0.3,1,0.5c0.2,0.1,0.4,0.3,0.4,0.5
			C566.8,230.1,566.9,230.3,566.9,230.5z"/>
		<path class="st0" d="M570.1,231.3c0.3,0,0.6,0,0.8-0.1v0.9c-0.1,0.1-0.3,0.1-0.5,0.1s-0.4,0.1-0.6,0.1c-1.1,0-1.6-0.6-1.6-1.7
			v-2.9h-0.7V227l0.8-0.4l0.4-1.2h0.7v1.2h1.5v0.9h-1.5v2.9c0,0.3,0.1,0.5,0.2,0.6C569.7,231.2,569.9,231.3,570.1,231.3z"/>
		<path class="st0" d="M423,241.2v4.7c0,0.5-0.1,1-0.3,1.4c-0.2,0.4-0.6,0.7-1,0.9s-0.9,0.3-1.5,0.3c-0.9,0-1.6-0.2-2.1-0.7
			s-0.7-1.1-0.7-2v-4.6h1.2v4.6c0,0.6,0.1,1,0.4,1.3s0.7,0.4,1.3,0.4c1.1,0,1.7-0.6,1.7-1.8v-4.6h1V241.2z"/>
		<path class="st0" d="M426,245.6v2.9h-1.2v-7.2h2c0.9,0,1.6,0.2,2,0.5s0.7,0.9,0.7,1.6c0,0.9-0.5,1.5-1.4,1.9l2,3.2h-1.3l-1.7-2.9
			H426z M426,244.6h0.8c0.5,0,0.9-0.1,1.2-0.3c0.2-0.2,0.4-0.5,0.4-0.9s-0.1-0.7-0.4-0.9s-0.7-0.3-1.2-0.3H426V244.6z"/>
		<path class="st0" d="M438,246.5c0,0.6-0.2,1.1-0.7,1.5s-1.1,0.5-1.9,0.5s-1.5-0.1-2-0.4V247c0.3,0.2,0.7,0.3,1,0.4
			c0.4,0.1,0.7,0.1,1,0.1c0.5,0,0.8-0.1,1-0.3s0.3-0.4,0.3-0.7s-0.1-0.5-0.3-0.7c-0.2-0.2-0.6-0.4-1.2-0.7c-0.7-0.3-1.1-0.6-1.4-0.9
			c-0.3-0.3-0.4-0.8-0.4-1.2c0-0.6,0.2-1.1,0.6-1.4c0.4-0.3,1-0.5,1.7-0.5s1.4,0.2,2,0.5l-0.4,1c-0.6-0.3-1.2-0.4-1.7-0.4
			c-0.4,0-0.7,0.1-0.9,0.2c-0.2,0.2-0.3,0.4-0.3,0.7c0,0.2,0,0.3,0.1,0.5c0.1,0.1,0.2,0.3,0.4,0.4c0.2,0.1,0.5,0.3,1,0.5
			s0.9,0.4,1.2,0.6c0.2,0.2,0.4,0.4,0.5,0.6C437.9,245.9,438,246.2,438,246.5z"/>
		<path class="st0" d="M441.4,248.5c-0.8,0-1.4-0.2-1.9-0.7c-0.4-0.5-0.6-1.2-0.6-2.1c0-0.9,0.2-1.6,0.7-2.1
			c0.4-0.5,1.1-0.7,1.9-0.7c0.6,0,1.1,0.1,1.5,0.3l-0.3,0.9c-0.5-0.2-0.9-0.3-1.2-0.3c-0.9,0-1.4,0.6-1.4,1.9c0,0.6,0.1,1.1,0.3,1.4
			c0.2,0.3,0.6,0.5,1,0.5c0.5,0,1-0.1,1.4-0.4v1c-0.2,0.1-0.4,0.2-0.7,0.3C442,248.5,441.7,248.5,441.4,248.5z"/>
		<path class="st0" d="M449,245.7c0,0.9-0.2,1.6-0.7,2.1s-1.1,0.7-1.9,0.7c-0.5,0-1-0.1-1.3-0.3c-0.4-0.2-0.7-0.6-0.9-1
			c-0.2-0.4-0.3-0.9-0.3-1.5c0-0.9,0.2-1.6,0.7-2.1c0.4-0.5,1.1-0.7,1.9-0.7s1.4,0.3,1.9,0.8C448.7,244.2,449,244.8,449,245.7z
			 M445,245.7c0,1.3,0.5,1.9,1.4,1.9s1.4-0.6,1.4-1.9c0-1.2-0.5-1.9-1.4-1.9c-0.5,0-0.8,0.2-1,0.5C445.1,244.6,445,245.1,445,245.7z
			"/>
		<path class="st0" d="M453,242.9c0.2,0,0.4,0,0.6,0l-0.1,1.1c-0.2,0-0.3-0.1-0.5-0.1c-0.5,0-0.8,0.2-1.1,0.5
			c-0.3,0.3-0.4,0.7-0.4,1.2v2.9h-1.1V243h0.9l0.2,1h0.1c0.2-0.3,0.4-0.6,0.7-0.8C452.4,243,452.7,242.9,453,242.9z"/>
		<path class="st0" d="M456.9,248.5c-0.8,0-1.5-0.2-2-0.7s-0.7-1.2-0.7-2c0-0.9,0.2-1.6,0.7-2.1c0.4-0.5,1-0.8,1.8-0.8
			c0.7,0,1.3,0.2,1.7,0.7c0.4,0.4,0.6,1,0.6,1.8v0.6h-3.6c0,0.5,0.2,0.9,0.4,1.2c0.3,0.3,0.6,0.4,1.1,0.4c0.3,0,0.6,0,0.9-0.1
			s0.6-0.2,0.9-0.3v0.9c-0.3,0.1-0.6,0.2-0.8,0.3C457.6,248.5,457.3,248.5,456.9,248.5z M456.7,243.8c-0.4,0-0.7,0.1-0.9,0.4
			c-0.2,0.2-0.4,0.6-0.4,1h2.5c0-0.5-0.1-0.8-0.3-1C457.4,243.9,457.1,243.8,456.7,243.8z"/>
		<path class="st0" d="M464,246.9c0,0.5-0.2,0.9-0.6,1.2s-0.9,0.4-1.6,0.4s-1.3-0.1-1.7-0.3v-1c0.6,0.3,1.2,0.4,1.8,0.4
			c0.7,0,1.1-0.2,1.1-0.6c0-0.1,0-0.3-0.1-0.3c-0.1-0.1-0.2-0.2-0.4-0.3s-0.4-0.2-0.7-0.3c-0.6-0.2-1-0.5-1.3-0.7
			c-0.2-0.2-0.3-0.6-0.3-0.9c0-0.5,0.2-0.8,0.6-1.1s0.9-0.4,1.5-0.4s1.2,0.1,1.8,0.4l-0.4,0.9c-0.6-0.2-1.1-0.4-1.5-0.4
			c-0.6,0-0.9,0.2-0.9,0.5c0,0.2,0.1,0.3,0.2,0.4c0.2,0.1,0.5,0.3,1,0.5c0.4,0.2,0.8,0.3,1,0.5c0.2,0.1,0.4,0.3,0.4,0.5
			C463.9,246.4,464,246.6,464,246.9z"/>
		<path class="st0" d="M466.4,247.4c-0.2,0.6-0.4,1.4-0.9,2.4h-0.8c0.2-0.9,0.4-1.7,0.5-2.5h1.1L466.4,247.4z"/>
		<path class="st0" d="M474.9,248.4l-0.7-2.5c-0.1-0.3-0.2-0.9-0.5-1.9l0,0c-0.2,0.9-0.3,1.5-0.4,1.9l-0.7,2.5h-1.3l-1.5-5.5h1.2
			l0.7,2.7c0.2,0.7,0.3,1.2,0.3,1.7l0,0c0-0.2,0.1-0.5,0.1-0.8c0.1-0.3,0.1-0.5,0.2-0.7l0.8-2.9h1.3l0.8,2.9c0,0.2,0.1,0.4,0.2,0.7
			s0.1,0.6,0.1,0.8l0,0c0-0.4,0.2-1,0.3-1.7l0.7-2.7h1.2l-1.5,5.5H474.9z"/>
		<path class="st0" d="M481,248.5c-0.8,0-1.5-0.2-2-0.7s-0.7-1.2-0.7-2c0-0.9,0.2-1.6,0.7-2.1c0.4-0.5,1-0.8,1.8-0.8
			c0.7,0,1.3,0.2,1.7,0.7c0.4,0.4,0.6,1,0.6,1.8v0.6h-3.6c0,0.5,0.2,0.9,0.4,1.2c0.3,0.3,0.6,0.4,1.1,0.4c0.3,0,0.6,0,0.9-0.1
			s0.6-0.2,0.9-0.3v0.9c-0.3,0.1-0.6,0.2-0.8,0.3C481.7,248.5,481.4,248.5,481,248.5z M480.8,243.8c-0.4,0-0.7,0.1-0.9,0.4
			c-0.2,0.2-0.4,0.6-0.4,1h2.5c0-0.5-0.1-0.8-0.3-1C481.5,243.9,481.2,243.8,480.8,243.8z"/>
		<path class="st0" d="M484.3,241.5c0-0.2,0.1-0.4,0.2-0.5s0.3-0.2,0.5-0.2s0.4,0.1,0.5,0.2c0.1,0.1,0.2,0.3,0.2,0.5
			s-0.1,0.4-0.2,0.5s-0.3,0.2-0.5,0.2s-0.4-0.1-0.5-0.2C484.4,241.9,484.3,241.7,484.3,241.5z M485.6,248.4h-1.1V243h1.1V248.4z"/>
		<path class="st0" d="M491.8,243v0.6l-0.9,0.2c0.1,0.1,0.2,0.3,0.2,0.4c0.1,0.2,0.1,0.3,0.1,0.5c0,0.6-0.2,1-0.6,1.3
			s-0.9,0.5-1.6,0.5c-0.2,0-0.3,0-0.5,0c-0.2,0.2-0.4,0.3-0.4,0.5c0,0.1,0.1,0.2,0.2,0.3s0.3,0.1,0.6,0.1h0.9c0.6,0,1,0.1,1.4,0.4
			c0.3,0.3,0.5,0.6,0.5,1.1c0,0.6-0.3,1.1-0.8,1.4c-0.5,0.3-1.2,0.5-2.2,0.5c-0.7,0-1.3-0.1-1.7-0.4c-0.4-0.3-0.6-0.6-0.6-1.1
			c0-0.3,0.1-0.6,0.3-0.8c0.2-0.2,0.5-0.4,0.9-0.5c-0.2-0.1-0.3-0.2-0.4-0.3s-0.1-0.3-0.1-0.5s0.1-0.4,0.2-0.5s0.3-0.3,0.5-0.4
			c-0.3-0.1-0.5-0.3-0.7-0.6s-0.3-0.6-0.3-1c0-0.6,0.2-1.1,0.6-1.4c0.4-0.3,0.9-0.5,1.6-0.5c0.2,0,0.3,0,0.5,0s0.3,0,0.4,0.1
			L491.8,243L491.8,243z M487.5,249.3c0,0.3,0.1,0.4,0.3,0.6c0.2,0.1,0.5,0.2,0.9,0.2c0.6,0,1.1-0.1,1.4-0.3s0.5-0.4,0.5-0.7
			c0-0.2-0.1-0.4-0.3-0.5c-0.2-0.1-0.5-0.2-0.9-0.2h-0.9c-0.3,0-0.6,0.1-0.8,0.2C487.6,248.8,487.5,249,487.5,249.3z M488,244.7
			c0,0.3,0.1,0.6,0.3,0.8c0.2,0.2,0.4,0.3,0.7,0.3c0.7,0,1-0.4,1-1.1c0-0.4-0.1-0.6-0.2-0.8c-0.2-0.2-0.4-0.3-0.7-0.3
			c-0.3,0-0.6,0.1-0.8,0.3C488.1,244.1,488,244.4,488,244.7z"/>
		<path class="st0" d="M497.5,248.4h-1.2V245c0-0.4-0.1-0.7-0.3-0.9c-0.2-0.2-0.4-0.3-0.8-0.3c-0.5,0-0.8,0.1-1.1,0.4
			c-0.2,0.3-0.3,0.8-0.3,1.5v2.7h-1.1v-7.7h1.1v1.9c0,0.3,0,0.6-0.1,1h0.1c0.2-0.3,0.4-0.5,0.7-0.6c0.3-0.1,0.6-0.2,1-0.2
			c1.3,0,2,0.7,2,2L497.5,248.4L497.5,248.4z"/>
		<path class="st0" d="M501.1,247.6c0.3,0,0.6,0,0.8-0.1v0.9c-0.1,0.1-0.3,0.1-0.5,0.1s-0.4,0.1-0.6,0.1c-1.1,0-1.6-0.6-1.6-1.7V244
			h-0.7v-0.5l0.8-0.4l0.4-1.2h0.7v1.2h1.5v0.9h-1.5v2.9c0,0.3,0.1,0.5,0.2,0.6C500.7,247.5,500.9,247.6,501.1,247.6z"/>
		<path class="st0" d="M505.4,248.5c-0.8,0-1.5-0.2-2-0.7s-0.7-1.2-0.7-2c0-0.9,0.2-1.6,0.7-2.1c0.4-0.5,1-0.8,1.8-0.8
			c0.7,0,1.3,0.2,1.7,0.7c0.4,0.4,0.6,1,0.6,1.8v0.6h-3.6c0,0.5,0.2,0.9,0.4,1.2c0.3,0.3,0.6,0.4,1.1,0.4c0.3,0,0.6,0,0.9-0.1
			s0.6-0.2,0.9-0.3v0.9c-0.3,0.1-0.6,0.2-0.8,0.3C506.1,248.5,505.8,248.5,505.4,248.5z M505.2,243.8c-0.4,0-0.7,0.1-0.9,0.4
			c-0.2,0.2-0.4,0.6-0.4,1h2.5c0-0.5-0.1-0.8-0.3-1C505.8,243.9,505.6,243.8,505.2,243.8z"/>
		<path class="st0" d="M510.6,248.5c-0.7,0-1.2-0.2-1.6-0.7s-0.6-1.2-0.6-2.1c0-0.9,0.2-1.6,0.6-2.1s0.9-0.7,1.6-0.7
			s1.3,0.3,1.6,0.8h0.1c-0.1-0.4-0.1-0.7-0.1-0.9v-2h1.2v7.7h-0.9l-0.2-0.7h-0.1C511.9,248.3,511.3,248.5,510.6,248.5z M510.9,247.6
			c0.5,0,0.8-0.1,1-0.4c0.2-0.3,0.3-0.7,0.3-1.3v-0.2c0-0.7-0.1-1.2-0.3-1.5s-0.6-0.4-1-0.4s-0.7,0.2-0.9,0.5
			c-0.2,0.3-0.3,0.8-0.3,1.4c0,0.6,0.1,1.1,0.3,1.4S510.5,247.6,510.9,247.6z"/>
		<path class="st0" d="M520.4,242.9c0.7,0,1.2,0.2,1.6,0.7s0.6,1.2,0.6,2.1c0,0.9-0.2,1.6-0.6,2.1c-0.4,0.5-0.9,0.7-1.6,0.7
			c-0.7,0-1.2-0.2-1.6-0.7h-0.1l-0.2,0.6h-0.9v-7.7h1.1v1.8c0,0.1,0,0.3,0,0.6s0,0.4,0,0.5l0,0C519.1,243.2,519.7,242.9,520.4,242.9
			z M520.1,243.8c-0.5,0-0.8,0.1-1,0.4c-0.2,0.3-0.3,0.7-0.3,1.4v0.1c0,0.7,0.1,1.1,0.3,1.4c0.2,0.3,0.5,0.4,1,0.4
			c0.4,0,0.7-0.2,0.9-0.5s0.3-0.8,0.3-1.4C521.4,244.5,520.9,243.8,520.1,243.8z"/>
		<path class="st0" d="M523,243h1.2l1.1,3.1c0.2,0.4,0.3,0.9,0.3,1.2l0,0c0-0.2,0.1-0.4,0.2-0.7c0.1-0.3,0.5-1.5,1.2-3.7h1.2
			l-2.3,6.2c-0.4,1.1-1.1,1.7-2.1,1.7c-0.3,0-0.5,0-0.7-0.1v-0.9c0.2,0,0.4,0.1,0.6,0.1c0.6,0,0.9-0.3,1.2-1l0.2-0.5L523,243z"/>
		<path class="st0" d="M534.8,248.4h-1.1v-4.7c0-0.6,0-1,0-1.3c-0.1,0.1-0.2,0.2-0.3,0.3s-0.5,0.4-1.1,0.9l-0.6-0.7l2.1-1.7h1
			L534.8,248.4L534.8,248.4z"/>
		<path class="st0" d="M537.1,246.2v-0.9h4.2v0.9H537.1z"/>
		<path class="st0" d="M550.8,241.2v4.7c0,0.5-0.1,1-0.3,1.4s-0.6,0.7-1,0.9s-0.9,0.3-1.5,0.3c-0.9,0-1.6-0.2-2.1-0.7
			s-0.7-1.1-0.7-2v-4.6h1.2v4.6c0,0.6,0.1,1,0.4,1.3c0.3,0.3,0.7,0.4,1.3,0.4c1.1,0,1.7-0.6,1.7-1.8v-4.6h1V241.2z"/>
		<path class="st0" d="M553.8,245.6v2.9h-1.2v-7.2h2c0.9,0,1.6,0.2,2,0.5s0.7,0.9,0.7,1.6c0,0.9-0.5,1.5-1.4,1.9l2,3.2h-1.3
			l-1.7-2.9H553.8z M553.8,244.6h0.8c0.5,0,0.9-0.1,1.2-0.3c0.2-0.2,0.4-0.5,0.4-0.9s-0.1-0.7-0.4-0.9c-0.3-0.2-0.7-0.3-1.2-0.3
			h-0.8V244.6z"/>
		<path class="st0" d="M565.8,246.5c0,0.6-0.2,1.1-0.7,1.5s-1.1,0.5-1.9,0.5s-1.5-0.1-2-0.4V247c0.3,0.2,0.7,0.3,1,0.4
			c0.4,0.1,0.7,0.1,1,0.1c0.5,0,0.8-0.1,1-0.3s0.3-0.4,0.3-0.7s-0.1-0.5-0.3-0.7s-0.6-0.4-1.2-0.7c-0.7-0.3-1.1-0.6-1.4-0.9
			c-0.3-0.3-0.4-0.8-0.4-1.2c0-0.6,0.2-1.1,0.6-1.4c0.4-0.3,1-0.5,1.7-0.5s1.4,0.2,2,0.5l-0.4,1c-0.6-0.3-1.2-0.4-1.7-0.4
			c-0.4,0-0.7,0.1-0.9,0.2c-0.2,0.2-0.3,0.4-0.3,0.7c0,0.2,0,0.3,0.1,0.5c0.1,0.1,0.2,0.3,0.4,0.4c0.2,0.1,0.5,0.3,1,0.5
			s0.9,0.4,1.2,0.6c0.2,0.2,0.4,0.4,0.5,0.6C565.7,245.9,565.8,246.2,565.8,246.5z"/>
		<path class="st0" d="M569.2,248.5c-0.8,0-1.4-0.2-1.9-0.7s-0.6-1.2-0.6-2.1c0-0.9,0.2-1.6,0.7-2.1c0.4-0.5,1.1-0.7,1.9-0.7
			c0.6,0,1.1,0.1,1.5,0.3l-0.3,0.9c-0.5-0.2-0.9-0.3-1.2-0.3c-0.9,0-1.4,0.6-1.4,1.9c0,0.6,0.1,1.1,0.3,1.4c0.2,0.3,0.6,0.5,1,0.5
			c0.5,0,1-0.1,1.4-0.4v1c-0.2,0.1-0.4,0.2-0.7,0.3C569.8,248.5,569.5,248.5,569.2,248.5z"/>
		<path class="st0" d="M576.8,245.7c0,0.9-0.2,1.6-0.7,2.1s-1.1,0.7-1.9,0.7c-0.5,0-1-0.1-1.3-0.3c-0.4-0.2-0.7-0.6-0.9-1
			s-0.3-0.9-0.3-1.5c0-0.9,0.2-1.6,0.7-2.1c0.4-0.5,1.1-0.7,1.9-0.7c0.8,0,1.4,0.3,1.9,0.8C576.5,244.2,576.8,244.8,576.8,245.7z
			 M572.8,245.7c0,1.3,0.5,1.9,1.4,1.9s1.4-0.6,1.4-1.9c0-1.2-0.5-1.9-1.4-1.9c-0.5,0-0.8,0.2-1,0.5
			C572.9,244.6,572.8,245.1,572.8,245.7z"/>
		<path class="st0" d="M580.8,242.9c0.2,0,0.4,0,0.6,0l-0.1,1.1c-0.2,0-0.3-0.1-0.5-0.1c-0.5,0-0.8,0.2-1.1,0.5s-0.4,0.7-0.4,1.2
			v2.9h-1.1V243h0.9l0.2,1h0.1c0.2-0.3,0.4-0.6,0.7-0.8C580.2,243,580.5,242.9,580.8,242.9z"/>
		<path class="st0" d="M584.8,248.5c-0.8,0-1.5-0.2-2-0.7s-0.7-1.2-0.7-2c0-0.9,0.2-1.6,0.7-2.1c0.4-0.5,1-0.8,1.8-0.8
			c0.7,0,1.3,0.2,1.7,0.7c0.4,0.4,0.6,1,0.6,1.8v0.6h-3.6c0,0.5,0.2,0.9,0.4,1.2c0.3,0.3,0.6,0.4,1.1,0.4c0.3,0,0.6,0,0.9-0.1
			c0.3-0.1,0.6-0.2,0.9-0.3v0.9c-0.3,0.1-0.6,0.2-0.8,0.3C585.4,248.5,585.1,248.5,584.8,248.5z M584.5,243.8
			c-0.4,0-0.7,0.1-0.9,0.4c-0.2,0.2-0.4,0.6-0.4,1h2.5c0-0.5-0.1-0.8-0.3-1C585.2,243.9,584.9,243.8,584.5,243.8z"/>
		<path class="st0" d="M591.8,246.9c0,0.5-0.2,0.9-0.6,1.2c-0.4,0.3-0.9,0.4-1.6,0.4c-0.7,0-1.3-0.1-1.7-0.3v-1
			c0.6,0.3,1.2,0.4,1.8,0.4c0.7,0,1.1-0.2,1.1-0.6c0-0.1,0-0.3-0.1-0.3c-0.1-0.1-0.2-0.2-0.4-0.3s-0.4-0.2-0.7-0.3
			c-0.6-0.2-1-0.5-1.3-0.7c-0.2-0.2-0.3-0.6-0.3-0.9c0-0.5,0.2-0.8,0.6-1.1c0.4-0.3,0.9-0.4,1.5-0.4s1.2,0.1,1.8,0.4l-0.4,0.9
			c-0.6-0.2-1.1-0.4-1.5-0.4c-0.6,0-0.9,0.2-0.9,0.5c0,0.2,0.1,0.3,0.2,0.4c0.2,0.1,0.5,0.3,1,0.5c0.4,0.2,0.8,0.3,1,0.5
			c0.2,0.1,0.4,0.3,0.4,0.5C591.7,246.4,591.8,246.6,591.8,246.9z"/>
	</g>
</g>
<g>
	
		<linearGradient id="SVGID_1_" gradientUnits="userSpaceOnUse" x1="376.8" y1="267" x2="212.2" y2="267" gradientTransform="matrix(1 0 0 -1 0 532)">
		<stop  offset="0" style="stop-color:#00BEFF"/>
		<stop  offset="1" style="stop-color:#054BA4"/>
	</linearGradient>
	<path class="st1" d="M238.5,291.3h112c14.6,0,26.3-11.8,26.3-26.3l0,0c0-14.6-11.8-26.3-26.3-26.3h-112
		c-14.6,0-26.3,11.8-26.3,26.3l0,0C212.2,279.6,224,291.3,238.5,291.3z"/>
	<g>
		<path class="st2" d="M242.6,269.7v-9.3h1.5v8h3.9v1.3H242.6z"/>
		<path class="st2" d="M249.3,260.8c0-0.3,0.1-0.5,0.2-0.6c0.1-0.1,0.4-0.2,0.6-0.2c0.3,0,0.5,0.1,0.6,0.2s0.2,0.3,0.2,0.6
			c0,0.3-0.1,0.5-0.2,0.6c-0.1,0.1-0.3,0.2-0.6,0.2s-0.5-0.1-0.6-0.2S249.3,261.1,249.3,260.8z M250.9,269.7h-1.5v-7h1.5V269.7z"/>
		<path class="st2" d="M255.4,269.8c-0.9,0-1.5-0.3-2-1c-0.5-0.6-0.7-1.5-0.7-2.7c0-1.1,0.2-2,0.7-2.7c0.5-0.6,1.2-1,2.1-1
			c0.4,0,0.8,0.1,1.2,0.2c0.3,0.2,0.7,0.4,0.9,0.8h0.1l0.2-0.9h1.2v10.1h-1.5v-3c0-0.2,0-0.4,0-0.6s0-0.4,0-0.5h-0.1
			C257.1,269.5,256.4,269.8,255.4,269.8z M255.8,268.6c0.6,0,1.1-0.2,1.3-0.5c0.3-0.4,0.4-0.9,0.4-1.6v-0.2c0-0.9-0.1-1.5-0.4-1.9
			s-0.7-0.6-1.4-0.6c-0.5,0-0.9,0.2-1.2,0.6s-0.4,1-0.4,1.8C254.2,267.8,254.7,268.6,255.8,268.6z"/>
		<path class="st2" d="M266.1,269.7l-0.2-0.9h-0.1c-0.2,0.3-0.5,0.6-0.9,0.8c-0.4,0.2-0.8,0.3-1.3,0.3c-0.9,0-1.5-0.2-1.9-0.6
			s-0.6-1.1-0.6-1.9v-4.6h1.5v4.3c0,0.5,0.1,0.9,0.3,1.2c0.2,0.3,0.6,0.4,1,0.4c0.6,0,1.1-0.2,1.4-0.6s0.4-1,0.4-1.9v-3.5h1.5v7
			L266.1,269.7L266.1,269.7z"/>
		<path class="st2" d="M269.3,260.8c0-0.3,0.1-0.5,0.2-0.6s0.4-0.2,0.6-0.2c0.3,0,0.5,0.1,0.6,0.2s0.2,0.3,0.2,0.6
			c0,0.3-0.1,0.5-0.2,0.6s-0.3,0.2-0.6,0.2c-0.3,0-0.5-0.1-0.6-0.2S269.3,261.1,269.3,260.8z M270.9,269.7h-1.5v-7h1.5V269.7z"/>
		<path class="st2" d="M275.4,269.8c-0.9,0-1.6-0.3-2-1c-0.5-0.6-0.7-1.5-0.7-2.7c0-1.1,0.2-2,0.7-2.7c0.5-0.6,1.2-1,2.1-1
			s1.6,0.3,2.1,1h0.1c-0.1-0.5-0.1-0.9-0.1-1.2v-2.6h1.5v9.9h-1.2l-0.3-0.9h-0.1C277,269.5,276.3,269.8,275.4,269.8z M275.8,268.6
			c0.6,0,1.1-0.2,1.3-0.5c0.3-0.3,0.4-0.9,0.4-1.7v-0.2c0-0.9-0.1-1.5-0.4-1.9s-0.7-0.6-1.4-0.6c-0.5,0-0.9,0.2-1.2,0.6
			c-0.3,0.4-0.4,1-0.4,1.8s0.1,1.4,0.4,1.8C274.8,268.4,275.2,268.6,275.8,268.6z"/>
		<path class="st2" d="M281,260.8c0-0.3,0.1-0.5,0.2-0.6s0.4-0.2,0.6-0.2c0.3,0,0.5,0.1,0.6,0.2s0.2,0.3,0.2,0.6
			c0,0.3-0.1,0.5-0.2,0.6s-0.4,0.2-0.6,0.2c-0.3,0-0.5-0.1-0.6-0.2S281,261.1,281,260.8z M282.6,269.7h-1.5v-7h1.5V269.7z"/>
		<path class="st2" d="M287.3,268.6c0.4,0,0.7-0.1,1.1-0.2v1.1c-0.2,0.1-0.4,0.1-0.6,0.2c-0.3,0-0.5,0.1-0.8,0.1
			c-1.4,0-2.1-0.7-2.1-2.2v-3.8h-1v-0.7l1-0.5l0.5-1.5h0.9v1.6h2v1.1h-2v3.8c0,0.4,0.1,0.6,0.3,0.8
			C286.8,268.5,287,268.6,287.3,268.6z"/>
		<path class="st2" d="M288.8,262.7h1.6l1.4,4c0.2,0.6,0.4,1.1,0.4,1.6h0.1c0-0.2,0.1-0.5,0.2-0.8s0.6-1.9,1.6-4.7h1.6l-3,7.9
			c-0.5,1.5-1.5,2.2-2.7,2.2c-0.3,0-0.7,0-1-0.1v-1.2c0.2,0.1,0.5,0.1,0.8,0.1c0.7,0,1.2-0.4,1.5-1.2l0.3-0.7L288.8,262.7z"/>
		<path class="st2" d="M305.7,267.2c0,0.8-0.3,1.5-0.9,1.9c-0.6,0.5-1.4,0.7-2.5,0.7c-1,0-1.9-0.2-2.6-0.5v-1.4
			c0.4,0.2,0.9,0.4,1.3,0.5c0.5,0.1,0.9,0.2,1.3,0.2c0.6,0,1-0.1,1.3-0.3c0.3-0.2,0.4-0.5,0.4-0.9c0-0.3-0.1-0.6-0.4-0.9
			c-0.3-0.2-0.8-0.5-1.6-0.9c-0.8-0.3-1.4-0.7-1.8-1.2c-0.3-0.4-0.5-1-0.5-1.6c0-0.8,0.3-1.4,0.8-1.8s1.3-0.7,2.2-0.7
			c0.9,0,1.8,0.2,2.7,0.6l-0.5,1.2c-0.8-0.3-1.6-0.5-2.2-0.5c-0.5,0-0.9,0.1-1.1,0.3c-0.3,0.2-0.4,0.5-0.4,0.8
			c0,0.2,0.1,0.4,0.2,0.6s0.3,0.3,0.5,0.5s0.7,0.4,1.3,0.6c0.7,0.3,1.2,0.5,1.5,0.8c0.3,0.2,0.5,0.5,0.7,0.8
			C305.6,266.4,305.7,266.8,305.7,267.2z"/>
		<path class="st2" d="M310.1,269.8c-1.1,0-1.9-0.3-2.4-0.9c-0.6-0.6-0.8-1.5-0.8-2.7s0.3-2.1,0.9-2.7s1.4-1,2.5-1
			c0.7,0,1.4,0.1,2,0.4l-0.4,1.2c-0.6-0.2-1.1-0.4-1.6-0.4c-1.2,0-1.8,0.8-1.8,2.4c0,0.8,0.2,1.4,0.5,1.8s0.7,0.6,1.3,0.6
			c0.7,0,1.3-0.2,1.9-0.5v1.3c-0.3,0.2-0.6,0.3-0.9,0.3C310.9,269.8,310.6,269.8,310.1,269.8z"/>
		<path class="st2" d="M317.3,262.6c0.3,0,0.5,0,0.7,0.1l-0.1,1.4c-0.2-0.1-0.4-0.1-0.7-0.1c-0.6,0-1.1,0.2-1.4,0.6
			c-0.4,0.4-0.6,0.9-0.6,1.5v3.7h-1.5v-7h1.2l0.2,1.2h0.1c0.2-0.4,0.5-0.8,0.9-1C316.4,262.7,316.8,262.6,317.3,262.6z"/>
		<path class="st2" d="M322.4,269.8c-1.1,0-1.9-0.3-2.6-1s-0.9-1.5-0.9-2.6s0.3-2,0.9-2.7s1.4-1,2.4-1c0.9,0,1.7,0.3,2.2,0.8
			c0.5,0.6,0.8,1.3,0.8,2.3v0.8h-4.7c0,0.7,0.2,1.2,0.6,1.6c0.3,0.4,0.8,0.5,1.5,0.5c0.4,0,0.8,0,1.2-0.1c0.4-0.1,0.7-0.2,1.2-0.4
			v1.2c-0.4,0.2-0.7,0.3-1.1,0.4C323.3,269.8,322.9,269.8,322.4,269.8z M322.1,263.7c-0.5,0-0.9,0.2-1.1,0.5
			c-0.3,0.3-0.5,0.7-0.5,1.3h3.2c0-0.6-0.1-1-0.4-1.3C323,263.8,322.6,263.7,322.1,263.7z"/>
		<path class="st2" d="M329.9,269.8c-1.1,0-1.9-0.3-2.6-1c-0.6-0.6-0.9-1.5-0.9-2.6s0.3-2,0.9-2.7s1.4-1,2.4-1
			c0.9,0,1.7,0.3,2.2,0.8c0.5,0.6,0.8,1.3,0.8,2.3v0.8H328c0,0.7,0.2,1.2,0.6,1.6c0.3,0.4,0.8,0.5,1.5,0.5c0.4,0,0.8,0,1.2-0.1
			c0.4-0.1,0.7-0.2,1.2-0.4v1.2c-0.4,0.2-0.7,0.3-1.1,0.4C330.8,269.8,330.3,269.8,329.9,269.8z M329.6,263.7
			c-0.5,0-0.9,0.2-1.1,0.5c-0.3,0.3-0.5,0.7-0.5,1.3h3.2c0-0.6-0.1-1-0.4-1.3C330.4,263.8,330.1,263.7,329.6,263.7z"/>
		<path class="st2" d="M340.5,269.7H339v-4.3c0-0.5-0.1-0.9-0.3-1.2c-0.2-0.3-0.6-0.4-1-0.4c-0.6,0-1.1,0.2-1.4,0.6s-0.4,1-0.4,1.9
			v3.5h-1.5v-7h1.2l0.2,0.9h0.1c0.2-0.3,0.5-0.6,0.9-0.8c0.4-0.2,0.8-0.3,1.3-0.3c1.7,0,2.5,0.9,2.5,2.6v4.5H340.5z"/>
		<path class="st2" d="M347.2,267.7c0,0.7-0.2,1.2-0.7,1.6s-1.2,0.5-2.1,0.5s-1.7-0.1-2.3-0.4v-1.3c0.8,0.4,1.6,0.6,2.3,0.6
			c0.9,0,1.4-0.3,1.4-0.8c0-0.2-0.1-0.3-0.2-0.4s-0.3-0.2-0.5-0.4c-0.2-0.1-0.6-0.3-1-0.4c-0.8-0.3-1.4-0.6-1.6-0.9
			c-0.3-0.3-0.4-0.7-0.4-1.2c0-0.6,0.2-1.1,0.7-1.4s1.1-0.5,2-0.5c0.8,0,1.6,0.2,2.3,0.5l-0.5,1.1c-0.8-0.3-1.4-0.5-1.9-0.5
			c-0.8,0-1.2,0.2-1.2,0.7c0,0.2,0.1,0.4,0.3,0.6c0.2,0.2,0.7,0.4,1.3,0.6c0.6,0.2,1,0.4,1.3,0.6s0.5,0.4,0.6,0.6
			C347.2,267.1,347.2,267.4,347.2,267.7z"/>
	</g>
</g>
<g>
	<line class="st3" x1="373.7" y1="265" x2="646.8" y2="265"/>
</g>
<g>
	<circle class="st4" cx="108.2" cy="265" r="58.3"/>
	<polygon class="st4" points="204.1,265 185.5,258.2 185.5,271.8 	"/>
	<g>
		<path class="st4" d="M191.7,266.5h-16.1c-0.8,0-1.5-0.7-1.5-1.5s0.7-1.5,1.5-1.5h16.1c0.8,0,1.5,0.7,1.5,1.5
			S192.5,266.5,191.7,266.5z"/>
	</g>
	<g>
		<path class="st2" d="M97.8,257.4c0,1.1-0.4,2-1.2,2.6c-0.8,0.6-1.9,0.9-3.3,0.9s-2.5-0.2-3.4-0.7v-1.9c0.6,0.3,1.2,0.5,1.8,0.6
			c0.6,0.2,1.2,0.2,1.8,0.2c0.8,0,1.4-0.2,1.8-0.5s0.6-0.7,0.6-1.2s-0.2-0.9-0.5-1.2c-0.3-0.3-1.1-0.7-2.2-1.1
			c-1.1-0.5-1.9-1-2.4-1.6s-0.7-1.3-0.7-2.1c0-1,0.4-1.8,1.1-2.4c0.7-0.6,1.7-0.9,3-0.9c1.2,0,2.4,0.3,3.5,0.8l-0.6,1.6
			c-1.1-0.5-2.1-0.7-2.9-0.7c-0.7,0-1.1,0.1-1.5,0.4c-0.3,0.3-0.5,0.7-0.5,1.1c0,0.3,0.1,0.6,0.2,0.8s0.4,0.4,0.7,0.6
			c0.3,0.2,0.9,0.5,1.7,0.8c0.9,0.4,1.6,0.7,2,1.1c0.4,0.3,0.7,0.7,0.9,1.1C97.7,256.4,97.8,256.9,97.8,257.4z"/>
		<path class="st2" d="M99.4,257.5c0-0.7,0.2-1.4,0.5-1.9c0.4-0.5,1-1.1,2-1.6c-0.5-0.6-0.9-1.2-1.1-1.6c-0.2-0.4-0.3-0.9-0.3-1.3
			c0-0.9,0.3-1.5,0.9-2s1.4-0.7,2.5-0.7c1,0,1.8,0.2,2.4,0.7s0.9,1.1,0.9,1.9c0,0.6-0.2,1.2-0.6,1.7s-1,1-1.9,1.6l2.9,2.8
			c0.5-0.6,0.8-1.5,1.1-2.7h2c-0.4,1.6-1,2.9-1.9,3.9l2.5,2.5h-2.6l-1.3-1.2c-0.6,0.5-1.2,0.8-1.8,1c-0.7,0.2-1.4,0.4-2.2,0.4
			c-1.3,0-2.3-0.3-3.1-0.9C99.7,259.4,99.4,258.6,99.4,257.5z M103.6,259.3c1,0,1.9-0.3,2.6-0.9l-3.2-3.2c-0.6,0.4-1,0.7-1.2,1.1
			c-0.2,0.3-0.3,0.7-0.3,1.1c0,0.6,0.2,1,0.6,1.3C102.4,259.1,103,259.3,103.6,259.3z M102.4,251.1c0,0.4,0.1,0.7,0.3,1
			c0.2,0.3,0.5,0.7,0.8,1c0.6-0.4,1.1-0.7,1.3-1c0.3-0.3,0.4-0.7,0.4-1.1c0-0.4-0.1-0.7-0.4-0.9c-0.2-0.2-0.6-0.3-1-0.3
			s-0.8,0.1-1.1,0.3C102.5,250.4,102.4,250.7,102.4,251.1z"/>
		<path class="st2" d="M121.2,252.2c0,1.3-0.4,2.3-1.3,3c-0.8,0.7-2,1-3.6,1H115v4.6h-2v-12.4h3.6c1.5,0,2.7,0.3,3.5,0.9
			C120.8,250,121.2,250.9,121.2,252.2z M115,254.5h1.1c1,0,1.8-0.2,2.3-0.5c0.5-0.4,0.7-0.9,0.7-1.7c0-0.7-0.2-1.2-0.7-1.6
			c-0.4-0.3-1.1-0.5-2-0.5H115V254.5z"/>
		<path class="st2" d="M89.5,276.3c0-4.8,2-7.3,5.9-7.3c0.6,0,1.1,0,1.6,0.1v1.7c-0.4-0.1-0.9-0.2-1.5-0.2c-1.3,0-2.3,0.4-3,1.1
			s-1,1.8-1.1,3.4h0.1c0.3-0.5,0.6-0.8,1.1-1.1c0.5-0.3,1-0.4,1.7-0.4c1.1,0,2,0.3,2.6,1s0.9,1.6,0.9,2.8c0,1.3-0.4,2.3-1.1,3.1
			c-0.7,0.8-1.7,1.1-3,1.1c-0.9,0-1.7-0.2-2.3-0.6c-0.7-0.4-1.2-1-1.5-1.9C89.7,278.4,89.5,277.4,89.5,276.3z M93.9,280.1
			c0.7,0,1.2-0.2,1.6-0.7c0.4-0.4,0.6-1.1,0.6-1.9c0-0.7-0.2-1.3-0.5-1.7c-0.3-0.4-0.9-0.6-1.6-0.6c-0.4,0-0.8,0.1-1.2,0.3
			c-0.4,0.2-0.6,0.4-0.9,0.8c-0.2,0.3-0.3,0.6-0.3,1c0,0.8,0.2,1.5,0.6,2C92.6,279.8,93.2,280.1,93.9,280.1z"/>
		<path class="st2" d="M107.8,275.4c0,2.1-0.3,3.7-1,4.8c-0.7,1-1.7,1.6-3.2,1.6c-1.4,0-2.4-0.5-3.1-1.6s-1.1-2.7-1.1-4.7
			c0-2.2,0.3-3.8,1-4.8s1.7-1.6,3.2-1.6c1.4,0,2.4,0.5,3.1,1.6C107.4,271.7,107.8,273.3,107.8,275.4z M101.4,275.4
			c0,1.7,0.2,2.9,0.5,3.6s0.9,1.1,1.7,1.1c0.8,0,1.3-0.4,1.7-1.1c0.4-0.7,0.5-1.9,0.5-3.6s-0.2-2.9-0.5-3.6
			c-0.4-0.7-0.9-1.1-1.7-1.1c-0.8,0-1.3,0.4-1.7,1.1C101.6,272.5,101.4,273.7,101.4,275.4z"/>
		<path class="st2" d="M117.7,275.4c0,2.1-0.3,3.7-1,4.8c-0.7,1-1.7,1.6-3.2,1.6c-1.4,0-2.4-0.5-3.1-1.6s-1.1-2.7-1.1-4.7
			c0-2.2,0.3-3.8,1-4.8s1.7-1.6,3.2-1.6c1.4,0,2.4,0.5,3.1,1.6C117.3,271.7,117.7,273.3,117.7,275.4z M111.3,275.4
			c0,1.7,0.2,2.9,0.5,3.6s0.9,1.1,1.7,1.1c0.8,0,1.3-0.4,1.7-1.1c0.4-0.7,0.5-1.9,0.5-3.6s-0.2-2.9-0.5-3.6
			c-0.4-0.7-0.9-1.1-1.7-1.1c-0.8,0-1.3,0.4-1.7,1.1C111.4,272.5,111.3,273.7,111.3,275.4z"/>
		<path class="st2" d="M118.9,272.2c0-0.7,0.2-1.3,0.5-1.8c0.3-0.6,0.8-1,1.4-1.4s1.2-0.5,1.9-0.5c0.7,0,1.3,0.2,1.8,0.5
			c0.6,0.3,1,0.8,1.4,1.4c0.3,0.6,0.5,1.2,0.5,1.9c0,0.6-0.2,1.3-0.5,1.8s-0.8,1-1.3,1.4s-1.2,0.5-1.9,0.5c-0.7,0-1.3-0.2-1.9-0.5
			s-1-0.8-1.3-1.4C119.1,273.5,118.9,272.9,118.9,272.2z M119.5,272.2c0,0.6,0.1,1.1,0.4,1.6s0.7,0.9,1.1,1.1c0.5,0.3,1,0.4,1.5,0.4
			c0.6,0,1.1-0.1,1.6-0.4s0.9-0.7,1.1-1.1c0.3-0.5,0.4-1,0.4-1.5c0-0.6-0.1-1.1-0.4-1.6s-0.7-0.9-1.1-1.1c-0.5-0.3-1-0.4-1.5-0.4
			c-0.6,0-1.1,0.1-1.5,0.4c-0.5,0.3-0.9,0.6-1.1,1.1C119.6,271.1,119.5,271.6,119.5,272.2z M124.1,271.3c0,0.6-0.3,0.9-0.8,1.1
			l1.2,2h-1l-0.9-1.7h-0.4v1.7h-0.9V270h1.3c0.6,0,1,0.1,1.3,0.3C124,270.5,124.1,270.9,124.1,271.3z M122.1,272h0.3
			c0.2,0,0.4-0.1,0.6-0.2c0.1-0.1,0.2-0.3,0.2-0.5s-0.1-0.4-0.2-0.5s-0.3-0.1-0.6-0.1h-0.3V272z"/>
	</g>
</g>
<path class="st5" d="M828.6,238.7H658.8c-14.6,0-26.3,11.8-26.3,26.3l0,0c0,14.6,11.8,26.3,26.3,26.3h169.7
	c14.6,0,26.3-11.8,26.3-26.3l0,0C854.9,250.5,843.1,238.7,828.6,238.7z"/>
<rect x="-5" y="-308.9" class="st0" width="50" height="52.8"/>
<rect x="850" y="-308.9" class="st0" width="50" height="52.8"/>
<g class="st6">
	<path class="st7" d="M658.7,257.6h-1.9l-4.6-7.4h-0.1l0,0.4c0.1,0.8,0.1,1.5,0.1,2.2v4.8h-1.4v-9.3h1.8l4.6,7.4h0
		c0-0.1,0-0.5-0.1-1.1s0-1.1,0-1.4v-4.9h1.4V257.6z"/>
	<path class="st7" d="M664,257.7c-1.1,0-1.9-0.3-2.6-1c-0.6-0.6-0.9-1.5-0.9-2.6c0-1.1,0.3-2,0.9-2.7c0.6-0.7,1.4-1,2.4-1
		c0.9,0,1.7,0.3,2.2,0.8c0.5,0.6,0.8,1.3,0.8,2.3v0.8h-4.7c0,0.7,0.2,1.2,0.6,1.6s0.8,0.5,1.5,0.5c0.4,0,0.8,0,1.2-0.1
		s0.7-0.2,1.2-0.4v1.2c-0.4,0.2-0.7,0.3-1.1,0.4C664.9,257.7,664.5,257.7,664,257.7z M663.8,251.6c-0.5,0-0.9,0.2-1.1,0.5
		c-0.3,0.3-0.5,0.7-0.5,1.3h3.2c0-0.6-0.1-1-0.4-1.3C664.6,251.7,664.2,251.6,663.8,251.6z"/>
	<path class="st7" d="M674.2,257.6l-0.9-3.3c-0.1-0.3-0.3-1.2-0.6-2.4h-0.1c-0.2,1.1-0.4,2-0.6,2.4l-0.9,3.3h-1.7l-2-7h1.5l0.9,3.5
		c0.2,0.9,0.3,1.6,0.4,2.2h0c0-0.3,0.1-0.7,0.2-1.1c0.1-0.4,0.2-0.7,0.2-0.9l1.1-3.7h1.6l1,3.7c0.1,0.2,0.1,0.5,0.2,1
		c0.1,0.4,0.2,0.8,0.2,1h0.1c0.1-0.5,0.2-1.2,0.4-2.2l0.9-3.5h1.5l-2,7H674.2z"/>
	<path class="st7" d="M688.4,257.6l-0.9-2.6h-3.5l-0.9,2.6h-1.6l3.5-9.3h1.7l3.5,9.3H688.4z M687,253.7l-0.9-2.5
		c-0.1-0.2-0.2-0.4-0.3-0.8c-0.1-0.4-0.2-0.6-0.2-0.8c-0.1,0.5-0.3,1.1-0.5,1.7l-0.8,2.4H687z"/>
	<path class="st7" d="M697,250.5v0.8l-1.2,0.2c0.1,0.1,0.2,0.3,0.3,0.5s0.1,0.4,0.1,0.7c0,0.7-0.2,1.3-0.7,1.7
		c-0.5,0.4-1.2,0.6-2.1,0.6c-0.2,0-0.4,0-0.6-0.1c-0.3,0.2-0.5,0.4-0.5,0.7c0,0.2,0.1,0.3,0.2,0.4s0.4,0.1,0.8,0.1h1.2
		c0.8,0,1.4,0.2,1.8,0.5c0.4,0.3,0.6,0.8,0.6,1.4c0,0.8-0.3,1.4-1,1.8c-0.7,0.4-1.6,0.6-2.8,0.6c-1,0-1.7-0.2-2.2-0.5
		s-0.8-0.8-0.8-1.4c0-0.4,0.1-0.8,0.4-1.1c0.3-0.3,0.7-0.5,1.1-0.6c-0.2-0.1-0.4-0.2-0.5-0.4s-0.2-0.4-0.2-0.6
		c0-0.3,0.1-0.5,0.2-0.7c0.1-0.2,0.4-0.4,0.7-0.5c-0.4-0.2-0.7-0.4-0.9-0.8c-0.2-0.4-0.3-0.8-0.3-1.2c0-0.8,0.2-1.4,0.7-1.8
		c0.5-0.4,1.2-0.6,2.1-0.6c0.2,0,0.4,0,0.6,0c0.2,0,0.4,0.1,0.5,0.1H697z M691.5,258.7c0,0.3,0.1,0.6,0.4,0.7
		c0.3,0.2,0.7,0.3,1.2,0.3c0.8,0,1.4-0.1,1.8-0.3c0.4-0.2,0.6-0.5,0.6-0.9c0-0.3-0.1-0.5-0.3-0.7c-0.2-0.1-0.6-0.2-1.2-0.2h-1.1
		c-0.4,0-0.8,0.1-1,0.3C691.6,258,691.5,258.3,691.5,258.7z M692.1,252.8c0,0.4,0.1,0.8,0.3,1c0.2,0.2,0.6,0.4,1,0.4
		c0.9,0,1.3-0.5,1.3-1.4c0-0.5-0.1-0.8-0.3-1.1c-0.2-0.2-0.5-0.4-1-0.4c-0.4,0-0.8,0.1-1,0.4C692.2,252,692.1,252.4,692.1,252.8z"/>
	<path class="st7" d="M701.3,257.7c-1.1,0-1.9-0.3-2.6-1s-0.9-1.5-0.9-2.6c0-1.1,0.3-2,0.9-2.7c0.6-0.7,1.4-1,2.4-1
		c0.9,0,1.7,0.3,2.2,0.8c0.5,0.6,0.8,1.3,0.8,2.3v0.8h-4.7c0,0.7,0.2,1.2,0.6,1.6s0.8,0.5,1.5,0.5c0.4,0,0.8,0,1.2-0.1
		c0.4-0.1,0.7-0.2,1.2-0.4v1.2c-0.4,0.2-0.7,0.3-1.1,0.4C702.2,257.7,701.8,257.7,701.3,257.7z M701.1,251.6c-0.5,0-0.9,0.2-1.1,0.5
		c-0.3,0.3-0.5,0.7-0.5,1.3h3.2c0-0.6-0.1-1-0.4-1.3C701.9,251.7,701.5,251.6,701.1,251.6z"/>
	<path class="st7" d="M715.1,257.6l-0.9-2.6h-3.5l-0.9,2.6h-1.6l3.5-9.3h1.7l3.5,9.3H715.1z M713.7,253.7l-0.9-2.5
		c-0.1-0.2-0.2-0.4-0.3-0.8c-0.1-0.4-0.2-0.6-0.2-0.8c-0.1,0.5-0.3,1.1-0.5,1.7l-0.8,2.4H713.7z"/>
	<path class="st7" d="M719.2,257.6h-1.5v-9.9h1.5V257.6z"/>
	<path class="st7" d="M724.9,257.7c-0.9,0-1.6-0.3-2.1-1h-0.1c0.1,0.6,0.1,1,0.1,1.1v2.9h-1.5v-10.1h1.2c0,0.1,0.1,0.4,0.2,0.9h0.1
		c0.5-0.7,1.2-1.1,2.1-1.1c0.9,0,1.6,0.3,2,1c0.5,0.6,0.7,1.5,0.7,2.7c0,1.1-0.2,2-0.7,2.7C726.5,257.4,725.8,257.7,724.9,257.7z
		 M724.6,251.6c-0.6,0-1,0.2-1.3,0.5c-0.3,0.3-0.4,0.9-0.4,1.7v0.2c0,0.9,0.1,1.5,0.4,1.9c0.3,0.4,0.7,0.6,1.3,0.6
		c0.5,0,0.9-0.2,1.2-0.6s0.4-1,0.4-1.8c0-0.8-0.1-1.4-0.4-1.8C725.5,251.8,725.1,251.6,724.6,251.6z"/>
	<path class="st7" d="M735.6,257.6h-1.5v-4.3c0-0.5-0.1-0.9-0.3-1.2c-0.2-0.3-0.6-0.4-1-0.4c-0.6,0-1.1,0.2-1.4,0.6
		c-0.3,0.4-0.4,1-0.4,1.9v3.5h-1.5v-9.9h1.5v2.5c0,0.4,0,0.8-0.1,1.3h0.1c0.2-0.3,0.5-0.6,0.8-0.8c0.4-0.2,0.8-0.3,1.3-0.3
		c1.7,0,2.6,0.9,2.6,2.6V257.6z"/>
	<path class="st7" d="M742.1,257.6l-0.3-1h-0.1c-0.3,0.4-0.7,0.7-1,0.9s-0.8,0.2-1.3,0.2c-0.7,0-1.2-0.2-1.6-0.6
		c-0.4-0.4-0.6-0.9-0.6-1.6c0-0.7,0.3-1.3,0.8-1.6c0.5-0.4,1.4-0.6,2.5-0.6l1.2,0v-0.4c0-0.4-0.1-0.8-0.3-1c-0.2-0.2-0.5-0.3-1-0.3
		c-0.4,0-0.7,0.1-1,0.2c-0.3,0.1-0.6,0.2-1,0.4l-0.5-1.1c0.4-0.2,0.8-0.4,1.3-0.5s0.9-0.2,1.3-0.2c0.9,0,1.6,0.2,2,0.6
		c0.5,0.4,0.7,1,0.7,1.8v4.7H742.1z M739.9,256.6c0.5,0,1-0.2,1.3-0.5c0.3-0.3,0.5-0.7,0.5-1.3v-0.6l-0.9,0c-0.7,0-1.2,0.1-1.5,0.4
		c-0.3,0.2-0.5,0.5-0.5,1c0,0.3,0.1,0.6,0.3,0.7C739.2,256.5,739.5,256.6,739.9,256.6z"/>
	<path class="st7" d="M756.1,248.3v6c0,0.7-0.1,1.3-0.4,1.8c-0.3,0.5-0.7,0.9-1.3,1.2c-0.6,0.3-1.2,0.4-2,0.4c-1.2,0-2-0.3-2.7-0.9
		c-0.6-0.6-1-1.4-1-2.5v-6h1.5v5.9c0,0.8,0.2,1.3,0.5,1.7s0.9,0.5,1.6,0.5c1.4,0,2.1-0.8,2.1-2.3v-5.9H756.1z"/>
	<path class="st7" d="M758.1,256.8c0-0.3,0.1-0.5,0.2-0.7c0.2-0.2,0.4-0.2,0.7-0.2c0.3,0,0.5,0.1,0.7,0.3c0.2,0.2,0.2,0.4,0.2,0.7
		c0,0.3-0.1,0.5-0.2,0.7s-0.4,0.3-0.7,0.3s-0.5-0.1-0.7-0.3C758.1,257.3,758.1,257.1,758.1,256.8z"/>
	<path class="st7" d="M767.4,255c0,0.8-0.3,1.5-0.9,1.9c-0.6,0.5-1.4,0.7-2.5,0.7c-1,0-1.9-0.2-2.6-0.5v-1.4
		c0.4,0.2,0.9,0.4,1.3,0.5c0.5,0.1,0.9,0.2,1.3,0.2c0.6,0,1-0.1,1.3-0.3s0.4-0.5,0.4-0.9c0-0.3-0.1-0.6-0.4-0.9s-0.8-0.5-1.6-0.9
		c-0.8-0.3-1.4-0.7-1.8-1.2s-0.5-1-0.5-1.6c0-0.8,0.3-1.4,0.8-1.8s1.3-0.7,2.2-0.7c0.9,0,1.8,0.2,2.7,0.6l-0.5,1.2
		c-0.8-0.3-1.6-0.5-2.2-0.5c-0.5,0-0.9,0.1-1.1,0.3s-0.4,0.5-0.4,0.8c0,0.2,0.1,0.4,0.2,0.6c0.1,0.2,0.3,0.3,0.5,0.5
		s0.7,0.4,1.3,0.6c0.7,0.3,1.2,0.5,1.5,0.8s0.5,0.5,0.7,0.8C767.3,254.3,767.4,254.6,767.4,255z"/>
	<path class="st7" d="M768.8,256.8c0-0.3,0.1-0.5,0.2-0.7c0.2-0.2,0.4-0.2,0.7-0.2c0.3,0,0.5,0.1,0.7,0.3c0.2,0.2,0.2,0.4,0.2,0.7
		c0,0.3-0.1,0.5-0.2,0.7c-0.2,0.2-0.4,0.3-0.7,0.3s-0.5-0.1-0.7-0.3S768.8,257.1,768.8,256.8z"/>
	<path class="st7" d="M781.5,255c0,0.8-0.3,1.5-0.9,1.9c-0.6,0.5-1.4,0.7-2.5,0.7s-1.9-0.2-2.6-0.5v-1.4c0.4,0.2,0.9,0.4,1.3,0.5
		c0.5,0.1,0.9,0.2,1.3,0.2c0.6,0,1-0.1,1.3-0.3c0.3-0.2,0.4-0.5,0.4-0.9c0-0.3-0.1-0.6-0.4-0.9c-0.3-0.2-0.8-0.5-1.6-0.9
		c-0.8-0.3-1.4-0.7-1.8-1.2c-0.3-0.4-0.5-1-0.5-1.6c0-0.8,0.3-1.4,0.8-1.8c0.5-0.4,1.3-0.7,2.2-0.7c0.9,0,1.8,0.2,2.7,0.6l-0.5,1.2
		c-0.8-0.3-1.6-0.5-2.2-0.5c-0.5,0-0.9,0.1-1.1,0.3s-0.4,0.5-0.4,0.8c0,0.2,0.1,0.4,0.2,0.6c0.1,0.2,0.3,0.3,0.5,0.5
		c0.2,0.2,0.7,0.4,1.3,0.6c0.7,0.3,1.2,0.5,1.5,0.8c0.3,0.2,0.5,0.5,0.7,0.8C781.4,254.3,781.5,254.6,781.5,255z"/>
	<path class="st7" d="M789,257.6h-1.5v-4.3c0-0.5-0.1-0.9-0.3-1.2s-0.5-0.4-1-0.4c-0.6,0-1,0.2-1.3,0.6c-0.3,0.4-0.4,1-0.4,1.9v3.5
		h-1.5v-7h1.2l0.2,0.9h0.1c0.2-0.3,0.5-0.6,0.8-0.8c0.4-0.2,0.8-0.3,1.2-0.3c1.1,0,1.8,0.4,2.1,1.1h0.1c0.2-0.3,0.5-0.6,0.9-0.8
		c0.4-0.2,0.8-0.3,1.3-0.3c0.8,0,1.4,0.2,1.8,0.6s0.6,1.1,0.6,1.9v4.6H792v-4.3c0-0.5-0.1-0.9-0.3-1.2c-0.2-0.3-0.5-0.4-1-0.4
		c-0.6,0-1,0.2-1.3,0.5c-0.3,0.4-0.4,0.9-0.4,1.7V257.6z"/>
	<path class="st7" d="M799.9,257.6l-0.3-1h-0.1c-0.3,0.4-0.7,0.7-1,0.9s-0.8,0.2-1.3,0.2c-0.7,0-1.2-0.2-1.6-0.6
		c-0.4-0.4-0.6-0.9-0.6-1.6c0-0.7,0.3-1.3,0.8-1.6c0.5-0.4,1.4-0.6,2.5-0.6l1.2,0v-0.4c0-0.4-0.1-0.8-0.3-1c-0.2-0.2-0.5-0.3-1-0.3
		c-0.4,0-0.7,0.1-1,0.2c-0.3,0.1-0.6,0.2-1,0.4l-0.5-1.1c0.4-0.2,0.8-0.4,1.3-0.5s0.9-0.2,1.3-0.2c0.9,0,1.6,0.2,2,0.6
		c0.5,0.4,0.7,1,0.7,1.8v4.7H799.9z M797.7,256.6c0.5,0,1-0.2,1.3-0.5c0.3-0.3,0.5-0.7,0.5-1.3v-0.6l-0.9,0c-0.7,0-1.2,0.1-1.5,0.4
		c-0.3,0.2-0.5,0.5-0.5,1c0,0.3,0.1,0.6,0.3,0.7C797.1,256.5,797.3,256.6,797.7,256.6z"/>
	<path class="st7" d="M804.6,257.6h-1.5v-9.9h1.5V257.6z"/>
	<path class="st7" d="M808.2,257.6h-1.5v-9.9h1.5V257.6z"/>
	<path class="st7" d="M809.7,254.7v-1.3h3.3v1.3H809.7z"/>
	<path class="st7" d="M818.6,249.5c-0.9,0-1.6,0.3-2.1,0.9s-0.7,1.5-0.7,2.6c0,1.1,0.2,2,0.7,2.6c0.5,0.6,1.2,0.9,2.1,0.9
		c0.4,0,0.8,0,1.1-0.1s0.8-0.2,1.1-0.3v1.3c-0.7,0.3-1.6,0.4-2.5,0.4c-1.4,0-2.4-0.4-3.1-1.2s-1.1-2-1.1-3.5c0-1,0.2-1.8,0.5-2.5
		s0.9-1.3,1.5-1.7c0.7-0.4,1.5-0.6,2.4-0.6c0.9,0,1.8,0.2,2.6,0.6l-0.5,1.3c-0.3-0.1-0.6-0.3-1-0.4S819,249.5,818.6,249.5z"/>
	<path class="st7" d="M827.1,257.6l-0.3-1h-0.1c-0.3,0.4-0.7,0.7-1,0.9c-0.3,0.2-0.8,0.2-1.3,0.2c-0.7,0-1.2-0.2-1.6-0.6
		c-0.4-0.4-0.6-0.9-0.6-1.6c0-0.7,0.3-1.3,0.8-1.6c0.5-0.4,1.4-0.6,2.5-0.6l1.2,0v-0.4c0-0.4-0.1-0.8-0.3-1c-0.2-0.2-0.5-0.3-1-0.3
		c-0.4,0-0.7,0.1-1,0.2c-0.3,0.1-0.6,0.2-1,0.4L823,251c0.4-0.2,0.8-0.4,1.3-0.5c0.5-0.1,0.9-0.2,1.3-0.2c0.9,0,1.6,0.2,2,0.6
		c0.5,0.4,0.7,1,0.7,1.8v4.7H827.1z M824.9,256.6c0.5,0,1-0.2,1.3-0.5s0.5-0.7,0.5-1.3v-0.6l-0.9,0c-0.7,0-1.2,0.1-1.5,0.4
		c-0.3,0.2-0.5,0.5-0.5,1c0,0.3,0.1,0.6,0.3,0.7C824.3,256.5,824.5,256.6,824.9,256.6z"/>
	<path class="st7" d="M833.8,257.7c-0.9,0-1.6-0.3-2.1-1h-0.1c0.1,0.6,0.1,1,0.1,1.1v2.9h-1.5v-10.1h1.2c0,0.1,0.1,0.4,0.2,0.9h0.1
		c0.5-0.7,1.2-1.1,2.1-1.1c0.9,0,1.6,0.3,2,1s0.7,1.5,0.7,2.7c0,1.1-0.2,2-0.7,2.7C835.4,257.4,834.7,257.7,833.8,257.7z
		 M833.5,251.6c-0.6,0-1,0.2-1.3,0.5s-0.4,0.9-0.4,1.7v0.2c0,0.9,0.1,1.5,0.4,1.9s0.7,0.6,1.3,0.6c0.5,0,0.9-0.2,1.2-0.6
		s0.4-1,0.4-1.8c0-0.8-0.1-1.4-0.4-1.8C834.4,251.8,834,251.6,833.5,251.6z"/>
	<path class="st7" d="M690.1,279.2v-9.3h1.5v8h3.9v1.3H690.1z"/>
	<path class="st7" d="M700.1,279.3c-1.1,0-1.9-0.3-2.6-1c-0.6-0.6-0.9-1.5-0.9-2.6c0-1.1,0.3-2,0.9-2.7c0.6-0.7,1.4-1,2.4-1
		c0.9,0,1.7,0.3,2.2,0.8c0.5,0.6,0.8,1.3,0.8,2.3v0.8h-4.7c0,0.7,0.2,1.2,0.6,1.6c0.3,0.4,0.8,0.5,1.5,0.5c0.4,0,0.8,0,1.2-0.1
		s0.7-0.2,1.2-0.4v1.2c-0.4,0.2-0.7,0.3-1.1,0.4C701,279.3,700.6,279.3,700.1,279.3z M699.8,273.2c-0.5,0-0.9,0.2-1.1,0.5
		c-0.3,0.3-0.5,0.7-0.5,1.3h3.2c0-0.6-0.1-1-0.4-1.3C700.7,273.3,700.3,273.2,699.8,273.2z"/>
	<path class="st7" d="M708.9,279.2l-0.3-1h-0.1c-0.3,0.4-0.7,0.7-1,0.9s-0.8,0.2-1.3,0.2c-0.7,0-1.2-0.2-1.6-0.6
		c-0.4-0.4-0.6-0.9-0.6-1.6c0-0.7,0.3-1.3,0.8-1.6c0.5-0.4,1.4-0.6,2.5-0.6l1.2,0v-0.4c0-0.4-0.1-0.8-0.3-1c-0.2-0.2-0.5-0.3-1-0.3
		c-0.4,0-0.7,0.1-1,0.2c-0.3,0.1-0.6,0.2-1,0.4l-0.5-1.1c0.4-0.2,0.8-0.4,1.3-0.5s0.9-0.2,1.3-0.2c0.9,0,1.6,0.2,2,0.6
		s0.7,1,0.7,1.8v4.7H708.9z M706.7,278.2c0.5,0,1-0.2,1.3-0.5s0.5-0.7,0.5-1.3v-0.6l-0.9,0c-0.7,0-1.2,0.1-1.5,0.4
		c-0.3,0.2-0.5,0.5-0.5,1c0,0.3,0.1,0.6,0.3,0.7C706,278.1,706.3,278.2,706.7,278.2z"/>
	<path class="st7" d="M714.4,279.3c-0.9,0-1.6-0.3-2.1-1s-0.7-1.5-0.7-2.7c0-1.2,0.2-2,0.7-2.7c0.5-0.6,1.2-1,2.1-1
		c0.9,0,1.6,0.3,2.1,1h0.1c-0.1-0.5-0.1-0.9-0.1-1.2v-2.6h1.5v9.9h-1.2l-0.3-0.9h-0.1C716,278.9,715.3,279.3,714.4,279.3z
		 M714.8,278.1c0.6,0,1.1-0.2,1.3-0.5s0.4-0.9,0.4-1.7v-0.2c0-0.9-0.1-1.5-0.4-1.9c-0.3-0.4-0.7-0.6-1.4-0.6c-0.5,0-0.9,0.2-1.2,0.6
		c-0.3,0.4-0.4,1-0.4,1.8c0,0.8,0.1,1.4,0.4,1.8C713.9,277.9,714.3,278.1,714.8,278.1z"/>
	<path class="st7" d="M720.1,270.3c0-0.3,0.1-0.5,0.2-0.6c0.1-0.1,0.4-0.2,0.6-0.2c0.3,0,0.5,0.1,0.6,0.2c0.1,0.1,0.2,0.3,0.2,0.6
		c0,0.3-0.1,0.5-0.2,0.6c-0.1,0.1-0.4,0.2-0.6,0.2c-0.3,0-0.5-0.1-0.6-0.2C720.1,270.7,720.1,270.5,720.1,270.3z M721.6,279.2h-1.5
		v-7h1.5V279.2z"/>
	<path class="st7" d="M730,279.2h-1.5v-4.3c0-0.5-0.1-0.9-0.3-1.2c-0.2-0.3-0.6-0.4-1-0.4c-0.6,0-1.1,0.2-1.4,0.6
		c-0.3,0.4-0.4,1-0.4,1.9v3.5h-1.5v-7h1.2l0.2,0.9h0.1c0.2-0.3,0.5-0.6,0.9-0.8c0.4-0.2,0.8-0.3,1.3-0.3c1.7,0,2.5,0.9,2.5,2.6
		V279.2z"/>
	<path class="st7" d="M738,272.1v0.8l-1.2,0.2c0.1,0.1,0.2,0.3,0.3,0.5c0.1,0.2,0.1,0.4,0.1,0.7c0,0.7-0.2,1.3-0.7,1.7
		c-0.5,0.4-1.2,0.6-2.1,0.6c-0.2,0-0.4,0-0.6-0.1c-0.3,0.2-0.5,0.4-0.5,0.7c0,0.2,0.1,0.3,0.2,0.4s0.4,0.1,0.8,0.1h1.2
		c0.8,0,1.4,0.2,1.8,0.5s0.6,0.8,0.6,1.4c0,0.8-0.3,1.4-1,1.8s-1.6,0.6-2.8,0.6c-1,0-1.7-0.2-2.2-0.5c-0.5-0.3-0.8-0.8-0.8-1.4
		c0-0.4,0.1-0.8,0.4-1.1c0.3-0.3,0.7-0.5,1.1-0.6c-0.2-0.1-0.4-0.2-0.5-0.4c-0.1-0.2-0.2-0.4-0.2-0.6c0-0.3,0.1-0.5,0.2-0.7
		c0.1-0.2,0.4-0.4,0.7-0.5c-0.4-0.2-0.7-0.4-0.9-0.8c-0.2-0.4-0.3-0.8-0.3-1.2c0-0.8,0.2-1.4,0.7-1.8c0.5-0.4,1.2-0.6,2.1-0.6
		c0.2,0,0.4,0,0.6,0c0.2,0,0.4,0.1,0.5,0.1H738z M732.4,280.3c0,0.3,0.1,0.6,0.4,0.7c0.3,0.2,0.7,0.3,1.2,0.3c0.8,0,1.4-0.1,1.8-0.3
		c0.4-0.2,0.6-0.5,0.6-0.9c0-0.3-0.1-0.5-0.3-0.7c-0.2-0.1-0.6-0.2-1.2-0.2h-1.1c-0.4,0-0.8,0.1-1,0.3S732.4,279.9,732.4,280.3z
		 M733.1,274.4c0,0.4,0.1,0.8,0.3,1c0.2,0.2,0.6,0.4,1,0.4c0.9,0,1.3-0.5,1.3-1.4c0-0.5-0.1-0.8-0.3-1.1c-0.2-0.2-0.5-0.4-1-0.4
		c-0.4,0-0.8,0.1-1,0.4C733.2,273.6,733.1,274,733.1,274.4z"/>
	<path class="st7" d="M745.3,273.4c0.9,0,1.7,0.2,2.2,0.7s0.8,1.2,0.8,2c0,1-0.3,1.8-0.9,2.3c-0.6,0.6-1.5,0.8-2.6,0.8
		c-1,0-1.9-0.2-2.4-0.5v-1.4c0.3,0.2,0.7,0.3,1.2,0.5c0.4,0.1,0.9,0.2,1.2,0.2c0.7,0,1.2-0.2,1.5-0.5c0.4-0.3,0.5-0.7,0.5-1.3
		c0-1.1-0.7-1.7-2.1-1.7c-0.2,0-0.4,0-0.7,0.1c-0.3,0-0.5,0.1-0.8,0.1l-0.7-0.4l0.4-4.5h4.8v1.3h-3.5l-0.2,2.3
		c0.1,0,0.3-0.1,0.5-0.1C744.7,273.4,745,273.4,745.3,273.4z"/>
	<path class="st7" d="M755.8,274.5c0,1.6-0.3,2.8-0.8,3.6c-0.5,0.8-1.3,1.2-2.4,1.2c-1,0-1.8-0.4-2.3-1.2c-0.5-0.8-0.8-2-0.8-3.6
		c0-1.6,0.3-2.8,0.8-3.6c0.5-0.8,1.3-1.2,2.4-1.2c1,0,1.8,0.4,2.4,1.2S755.8,273,755.8,274.5z M751.1,274.5c0,1.3,0.1,2.2,0.4,2.7
		c0.3,0.5,0.7,0.8,1.2,0.8c0.6,0,1-0.3,1.3-0.8c0.3-0.5,0.4-1.4,0.4-2.7c0-1.2-0.1-2.1-0.4-2.7c-0.3-0.6-0.7-0.8-1.3-0.8
		c-0.6,0-1,0.3-1.2,0.8C751.2,272.4,751.1,273.3,751.1,274.5z"/>
	<path class="st7" d="M761,279.2v-9.3h1.5v9.3H761z"/>
	<path class="st7" d="M771,279.2h-1.5v-4.3c0-0.5-0.1-0.9-0.3-1.2c-0.2-0.3-0.6-0.4-1-0.4c-0.6,0-1.1,0.2-1.4,0.6
		c-0.3,0.4-0.4,1-0.4,1.9v3.5h-1.5v-7h1.2l0.2,0.9h0.1c0.2-0.3,0.5-0.6,0.9-0.8c0.4-0.2,0.8-0.3,1.3-0.3c1.7,0,2.5,0.9,2.5,2.6
		V279.2z"/>
	<path class="st7" d="M775.4,279.3c-0.9,0-1.6-0.3-2.1-1c-0.5-0.6-0.7-1.5-0.7-2.7c0-1.2,0.2-2,0.7-2.7c0.5-0.6,1.2-1,2.1-1
		c0.9,0,1.6,0.3,2.1,1h0.1c-0.1-0.5-0.1-0.9-0.1-1.2v-2.6h1.5v9.9h-1.2l-0.3-0.9h-0.1C777.1,278.9,776.4,279.3,775.4,279.3z
		 M775.8,278.1c0.6,0,1.1-0.2,1.3-0.5s0.4-0.9,0.4-1.7v-0.2c0-0.9-0.1-1.5-0.4-1.9s-0.7-0.6-1.4-0.6c-0.5,0-0.9,0.2-1.2,0.6
		c-0.3,0.4-0.4,1-0.4,1.8c0,0.8,0.1,1.4,0.4,1.8S775.3,278.1,775.8,278.1z"/>
	<path class="st7" d="M784.2,279.3c-1.1,0-1.9-0.3-2.6-1s-0.9-1.5-0.9-2.6c0-1.1,0.3-2,0.9-2.7c0.6-0.7,1.4-1,2.4-1
		c0.9,0,1.7,0.3,2.2,0.8c0.5,0.6,0.8,1.3,0.8,2.3v0.8h-4.7c0,0.7,0.2,1.2,0.6,1.6s0.8,0.5,1.5,0.5c0.4,0,0.8,0,1.2-0.1
		c0.4-0.1,0.7-0.2,1.2-0.4v1.2c-0.4,0.2-0.7,0.3-1.1,0.4C785.1,279.3,784.7,279.3,784.2,279.3z M784,273.2c-0.5,0-0.9,0.2-1.1,0.5
		c-0.3,0.3-0.5,0.7-0.5,1.3h3.2c0-0.6-0.1-1-0.4-1.3C784.8,273.3,784.4,273.2,784,273.2z"/>
	<path class="st7" d="M790.2,275.6l-2.4-3.4h1.7l1.6,2.5l1.6-2.5h1.7l-2.4,3.4l2.5,3.6h-1.7l-1.7-2.6l-1.7,2.6h-1.7L790.2,275.6z"/>
</g>
</svg>
