<?xml version="1.0" encoding="utf-8"?>
<!-- Generator: Adobe Illustrator 24.2.1, SVG Export Plug-In . SVG Version: 6.00 Build 0)  -->
<svg version="1.1" id="Layer_1" xmlns="http://www.w3.org/2000/svg" xmlns:xlink="http://www.w3.org/1999/xlink" x="0px" y="0px"
	 viewBox="0 0 1000 550" style="enable-background:new 0 0 1000 550;" xml:space="preserve">
<style type="text/css">
	.st0{fill:#FFFFFF;}
	.st1{fill:url(#SVGID_1_);}
	.st2{fill:none;stroke:#00B9EE;stroke-width:1.4415;stroke-linecap:round;stroke-linejoin:round;stroke-miterlimit:10;}
	.st3{fill:#284D95;}
	.st4{fill:#054BA4;}
	.st5{fill:url(#SVGID_2_);}
	.st6{fill:#D1D8DD;}
	.st7{enable-background:new    ;}
	.st8{fill:#314D91;}
</style>
<rect class="st0" width="1000" height="550"/>
<g>
	<g>
		
			<linearGradient id="SVGID_1_" gradientUnits="userSpaceOnUse" x1="408.4409" y1="1062.1888" x2="208.8191" y2="1062.1888" gradientTransform="matrix(1 0 0 1 0 -768.1368)">
			<stop  offset="0" style="stop-color:#00BEFF"/>
			<stop  offset="1" style="stop-color:#054BA4"/>
		</linearGradient>
		<path class="st1" d="M240.7,326h135.8c17.6,0,31.9-14.3,31.9-31.9l0,0c0-17.6-14.3-31.9-31.9-31.9H240.7
			c-17.6,0-31.9,14.3-31.9,31.9l0,0C208.8,311.6,223.1,326,240.7,326z"/>
		<g>
			<path class="st0" d="M245.6,299.6v-11.3h1.8v9.7h4.7v1.6H245.6z"/>
			<path class="st0" d="M253.8,289c0-0.4,0.1-0.6,0.2-0.7c0.1-0.1,0.5-0.2,0.7-0.2c0.4,0,0.6,0.1,0.7,0.2c0.1,0.1,0.2,0.4,0.2,0.7
				c0,0.4-0.1,0.6-0.2,0.7c-0.1,0.1-0.4,0.2-0.7,0.2c-0.4,0-0.6-0.1-0.7-0.2C254,289.4,253.8,289.2,253.8,289z M255.8,299.6H254
				v-8.5h1.8V299.6z"/>
			<path class="st0" d="M261.2,299.9c-1.1,0-1.8-0.4-2.4-1.2c-0.6-0.8-0.8-1.8-0.8-3.3c0-1.3,0.2-2.4,0.8-3.3
				c0.6-0.7,1.5-1.2,2.5-1.2c0.5,0,1,0.1,1.5,0.2c0.4,0.2,0.8,0.5,1.1,1h0.1l0.2-1.1h1.5v12.3h-1.8v-3.6c0-0.2,0-0.5,0-0.7
				s0-0.5,0-0.6h-0.1C263.2,299.4,262.3,299.9,261.2,299.9z M261.7,298.4c0.7,0,1.3-0.2,1.6-0.6c0.4-0.5,0.5-1.1,0.5-1.9v-0.2
				c0-1.1-0.1-1.8-0.5-2.3c-0.4-0.5-0.8-0.7-1.7-0.7c-0.6,0-1.1,0.2-1.5,0.7c-0.4,0.5-0.5,1.2-0.5,2.2
				C259.7,297.4,260.4,298.4,261.7,298.4z"/>
			<path class="st0" d="M274.1,299.6l-0.2-1.1h-0.1c-0.2,0.4-0.6,0.7-1.1,1c-0.5,0.2-1,0.4-1.6,0.4c-1,0-1.8-0.2-2.3-0.7
				c-0.5-0.5-0.7-1.3-0.7-2.3v-5.6h1.8v5.2c0,0.6,0.1,1.1,0.4,1.5c0.2,0.4,0.7,0.5,1.2,0.5c0.7,0,1.3-0.2,1.7-0.7
				c0.4-0.5,0.5-1.2,0.5-2.3v-4.2h1.8v8.5L274.1,299.6L274.1,299.6z"/>
			<path class="st0" d="M278,289c0-0.4,0.1-0.6,0.2-0.7c0.1-0.1,0.5-0.2,0.7-0.2c0.4,0,0.6,0.1,0.7,0.2c0.1,0.1,0.2,0.4,0.2,0.7
				c0,0.4-0.1,0.6-0.2,0.7c-0.1,0.1-0.4,0.2-0.7,0.2c-0.4,0-0.6-0.1-0.7-0.2C278.1,289.4,278,289.2,278,289z M279.9,299.6h-1.8v-8.5
				h1.8V299.6z"/>
			<path class="st0" d="M285.4,299.9c-1.1,0-1.9-0.4-2.4-1.1c-0.6-0.7-0.8-1.8-0.8-3.3c0-1.3,0.2-2.4,0.8-3.3
				c0.6-0.7,1.5-1.2,2.5-1.2c1.1,0,1.9,0.4,2.5,1.2h0.1c-0.1-0.6-0.1-1.1-0.1-1.5v-3.2h1.8v12h-1.5l-0.4-1.1h-0.1
				C287.3,299.4,286.5,299.9,285.4,299.9z M285.9,298.4c0.7,0,1.3-0.2,1.6-0.6c0.4-0.4,0.5-1.1,0.5-2.1v-0.2c0-1.1-0.1-1.8-0.5-2.3
				c-0.4-0.5-0.8-0.7-1.6-0.7c-0.6,0-1.1,0.2-1.5,0.7c-0.4,0.5-0.5,1.2-0.5,2.2s0.1,1.7,0.5,2.2
				C284.8,298.2,285.3,298.4,285.9,298.4z"/>
			<path class="st0" d="M292.2,289c0-0.4,0.1-0.6,0.2-0.7c0.1-0.1,0.5-0.2,0.7-0.2c0.4,0,0.6,0.1,0.7,0.2c0.1,0.1,0.2,0.4,0.2,0.7
				c0,0.4-0.1,0.6-0.2,0.7s-0.4,0.2-0.7,0.2c-0.4,0-0.6-0.1-0.7-0.2C292.3,289.4,292.2,289.2,292.2,289z M294.1,299.6h-1.8v-8.5h1.8
				V299.6z"/>
			<path class="st0" d="M300,298.4c0.5,0,0.8-0.1,1.3-0.2v1.3c-0.2,0.1-0.5,0.1-0.7,0.2c-0.4,0-0.6,0.1-1,0.1
				c-1.7,0-2.5-0.8-2.5-2.7v-4.6h-1.2v-0.8l1.2-0.6l0.6-1.8h1.1v1.9h2.4v1.3h-2.4v4.5c0,0.5,0.1,0.7,0.4,1
				C299.2,298.3,299.6,298.4,300,298.4z"/>
			<path class="st0" d="M301.7,291.1h1.9l1.7,4.9c0.2,0.7,0.5,1.3,0.5,1.9h0.1c0-0.2,0.1-0.6,0.2-1c0.1-0.4,0.7-2.3,1.9-5.7h1.9
				l-3.6,9.6c-0.6,1.8-1.8,2.7-3.3,2.7c-0.4,0-0.8,0-1.2-0.1v-1.5c0.2,0.1,0.6,0.1,1,0.1c0.8,0,1.5-0.5,1.8-1.5l0.4-0.8L301.7,291.1
				z"/>
			<path class="st0" d="M322.2,296.6c0,1-0.4,1.8-1.1,2.3c-0.7,0.6-1.7,0.8-3,0.8c-1.2,0-2.3-0.2-3.2-0.6v-1.7
				c0.5,0.2,1.1,0.5,1.6,0.6c0.6,0.1,1.1,0.2,1.6,0.2c0.7,0,1.2-0.1,1.6-0.4s0.5-0.6,0.5-1.1c0-0.4-0.1-0.7-0.5-1.1
				c-0.4-0.4-1-0.6-1.9-1.1c-1-0.4-1.7-0.8-2.2-1.5c-0.4-0.5-0.6-1.2-0.6-1.9c0-1,0.4-1.7,1-2.2c0.6-0.5,1.6-0.8,2.7-0.8
				s2.2,0.2,3.2,0.7l-0.6,1.5c-1-0.4-1.9-0.6-2.7-0.6c-0.6,0-1.1,0.1-1.3,0.4c-0.4,0.2-0.5,0.6-0.5,1c0,0.2,0.1,0.5,0.2,0.7
				c0.1,0.2,0.4,0.4,0.6,0.6c0.2,0.2,0.8,0.5,1.6,0.7c0.8,0.4,1.5,0.6,1.8,1c0.4,0.2,0.6,0.6,0.8,1
				C322,295.6,322.2,296.1,322.2,296.6z"/>
			<path class="st0" d="M327.5,299.9c-1.3,0-2.3-0.4-2.9-1.1c-0.7-0.7-1-1.8-1-3.3c0-1.5,0.4-2.5,1.1-3.3s1.7-1.1,3-1.1
				c0.8,0,1.7,0.1,2.4,0.5l-0.5,1.5c-0.7-0.2-1.3-0.5-1.9-0.5c-1.5,0-2.2,1-2.2,2.9c0,1,0.2,1.7,0.6,2.2c0.4,0.5,0.8,0.7,1.6,0.7
				c0.8,0,1.6-0.2,2.3-0.6v1.6c-0.4,0.2-0.7,0.4-1.1,0.4C328.5,299.8,328.1,299.9,327.5,299.9z"/>
			<path class="st0" d="M336.2,291c0.4,0,0.6,0,0.8,0.1l-0.1,1.7c-0.2-0.1-0.5-0.1-0.8-0.1c-0.7,0-1.3,0.2-1.7,0.7
				c-0.5,0.5-0.7,1.1-0.7,1.8v4.5h-1.8v-8.5h1.5l0.2,1.5h0.1c0.2-0.5,0.6-0.8,1.1-1.2C335.1,291.1,335.6,291,336.2,291z"/>
			<path class="st0" d="M342.4,299.9c-1.3,0-2.3-0.4-3.2-1.2c-0.7-0.7-1.1-1.8-1.1-3.2c0-1.3,0.4-2.4,1.1-3.3
				c0.7-0.8,1.7-1.2,2.8-1.2c1.1,0,2.1,0.4,2.7,1c0.6,0.7,1,1.6,1,2.8v1H340c0,0.8,0.2,1.5,0.7,1.9c0.4,0.5,1,0.6,1.8,0.6
				c0.5,0,1,0,1.5-0.1s0.8-0.2,1.3-0.5v1.5c-0.5,0.2-0.8,0.4-1.3,0.5C343.5,299.8,343,299.9,342.4,299.9z M342.1,292.4
				c-0.6,0-1.1,0.1-1.3,0.5c-0.4,0.4-0.6,0.8-0.6,1.6h3.9c0-0.7-0.1-1.2-0.5-1.6C343.2,292.6,342.7,292.4,342.1,292.4z"/>
			<path class="st0" d="M351.5,299.9c-1.3,0-2.3-0.4-3.2-1.2c-0.7-0.7-1.1-1.8-1.1-3.2c0-1.3,0.4-2.4,1.1-3.3
				c0.7-0.8,1.7-1.2,2.8-1.2c1.1,0,2.1,0.4,2.7,1c0.6,0.7,1,1.6,1,2.8v1h-5.7c0,0.8,0.2,1.5,0.7,1.9c0.4,0.5,1,0.6,1.8,0.6
				c0.5,0,1,0,1.5-0.1c0.5-0.1,0.8-0.2,1.3-0.5v1.5c-0.5,0.2-0.8,0.4-1.3,0.5C352.6,299.8,352,299.9,351.5,299.9z M351.2,292.4
				c-0.6,0-1.1,0.1-1.3,0.5c-0.4,0.4-0.6,0.8-0.6,1.6h3.9c0-0.7-0.1-1.2-0.5-1.6C352.1,292.6,351.8,292.4,351.2,292.4z"/>
			<path class="st0" d="M364.3,299.6h-1.8v-5.2c0-0.6-0.1-1.1-0.4-1.5c-0.2-0.4-0.7-0.5-1.2-0.5c-0.7,0-1.3,0.2-1.7,0.7
				c-0.4,0.5-0.5,1.2-0.5,2.3v4.2h-1.8v-8.5h1.5l0.2,1.1h0.1c0.2-0.4,0.6-0.7,1.1-1c0.5-0.2,1-0.4,1.6-0.4c2.1,0,3,1.1,3,3.2v5.5
				L364.3,299.6L364.3,299.6z"/>
			<path class="st0" d="M372.5,297.2c0,0.8-0.2,1.5-0.8,1.9c-0.6,0.5-1.5,0.6-2.5,0.6c-1.1,0-2.1-0.1-2.7-0.5v-1.6
				c1,0.5,1.9,0.7,2.8,0.7c1.1,0,1.7-0.4,1.7-1c0-0.2-0.1-0.4-0.2-0.5c-0.1-0.1-0.4-0.2-0.6-0.5c-0.2-0.1-0.7-0.4-1.2-0.5
				c-1-0.4-1.7-0.7-1.9-1.1c-0.4-0.4-0.5-0.8-0.5-1.5c0-0.7,0.2-1.3,0.8-1.7s1.3-0.6,2.4-0.6c1,0,1.9,0.2,2.8,0.6l-0.6,1.3
				c-1-0.4-1.7-0.6-2.3-0.6c-1,0-1.5,0.2-1.5,0.8c0,0.2,0.1,0.5,0.4,0.7c0.2,0.2,0.8,0.5,1.6,0.7c0.7,0.2,1.2,0.5,1.6,0.7
				c0.4,0.2,0.6,0.5,0.7,0.7C372.5,296.5,372.5,296.8,372.5,297.2z"/>
		</g>
	</g>
	<g>
		<line class="st2" x1="404.7" y1="294.1" x2="735.6" y2="294.1"/>
	</g>
	<g>
		<circle class="st3" cx="82.7" cy="294.1" r="70.6"/>
		<polygon class="st3" points="199,294.1 176.5,285.8 176.5,302.2 		"/>
		<g>
			<path class="st3" d="M184.1,295.8h-19.5c-1,0-1.8-0.8-1.8-1.8s0.8-1.8,1.8-1.8h19.5c1,0,1.8,0.8,1.8,1.8
				C185.8,295,185,295.8,184.1,295.8z"/>
		</g>
		<g>
			<path class="st0" d="M70.1,284.8c0,1.3-0.5,2.4-1.5,3.2c-1,0.7-2.3,1.1-4,1.1c-1.7,0-3-0.2-4.1-0.8v-2.3c0.7,0.4,1.5,0.6,2.2,0.7
				c0.7,0.2,1.5,0.2,2.2,0.2c1,0,1.7-0.2,2.2-0.6s0.7-0.8,0.7-1.5s-0.2-1.1-0.6-1.5c-0.4-0.4-1.3-0.8-2.7-1.3
				c-1.3-0.6-2.3-1.2-2.9-1.9s-0.8-1.6-0.8-2.5c0-1.2,0.5-2.2,1.3-2.9c0.8-0.7,2.1-1.1,3.5-1.1c1.5,0,2.9,0.4,4.2,1l-0.7,1.9
				c-1.3-0.6-2.5-0.8-3.5-0.8c-0.8,0-1.3,0.1-1.8,0.5c-0.4,0.4-0.6,0.8-0.6,1.3c0,0.4,0.1,0.7,0.2,1c0.1,0.2,0.5,0.5,0.8,0.7
				c0.4,0.2,1.1,0.6,2.1,1c1.1,0.5,1.9,0.8,2.4,1.3c0.5,0.4,0.8,0.8,1.1,1.3C70,283.6,70.1,284.1,70.1,284.8z"/>
			<path class="st0" d="M72.1,285c0-0.8,0.2-1.7,0.6-2.3c0.5-0.6,1.2-1.3,2.4-1.9c-0.6-0.7-1.1-1.5-1.3-1.9
				c-0.2-0.5-0.4-1.1-0.4-1.6c0-1.1,0.4-1.8,1.1-2.4c0.7-0.6,1.7-0.8,3-0.8c1.2,0,2.2,0.2,2.8,0.8c0.7,0.6,1.1,1.3,1.1,2.3
				c0,0.7-0.2,1.5-0.7,2.1s-1.2,1.2-2.3,1.9l3.5,3.4c0.6-0.7,1-1.8,1.3-3.3h2.4c-0.5,1.9-1.2,3.5-2.3,4.7l3,3h-2.9l-1.6-1.5
				c-0.7,0.6-1.5,1-2.2,1.2c-0.8,0.2-1.7,0.5-2.7,0.5c-1.6,0-2.8-0.4-3.6-1.1C72.5,287.3,72.1,286.2,72.1,285z M77.3,287
				c1.2,0,2.3-0.4,3.2-1.1l-3.9-3.9c-0.7,0.5-1.2,0.8-1.5,1.3c-0.2,0.4-0.4,0.8-0.4,1.3c0,0.7,0.2,1.2,0.7,1.6
				C75.8,286.8,76.4,287,77.3,287z M75.7,277.2c0,0.5,0.1,0.8,0.4,1.2c0.2,0.4,0.6,0.7,1,1.2c0.7-0.5,1.3-0.8,1.6-1.2
				c0.4-0.4,0.5-0.8,0.5-1.3c0-0.5-0.1-0.8-0.5-1.1c-0.2-0.2-0.7-0.4-1.2-0.4s-1,0.1-1.3,0.4C75.8,276.3,75.7,276.7,75.7,277.2z"/>
			<path class="st0" d="M98.5,278.4c0,1.6-0.5,2.8-1.6,3.6c-1,0.8-2.4,1.2-4.4,1.2H91v5.6h-2.4v-14.9h4.4c1.8,0,3.3,0.4,4.2,1.1
				C98,275.8,98.5,276.9,98.5,278.4z M91,281.2h1.3c1.2,0,2.2-0.2,2.8-0.6c0.6-0.5,0.8-1.1,0.8-2.1c0-0.8-0.2-1.5-0.8-1.9
				c-0.5-0.4-1.3-0.6-2.4-0.6H91V281.2z"/>
			<path class="st0" d="M65.3,304.7c1.5,0,2.7,0.4,3.6,1.2c0.8,0.8,1.3,1.9,1.3,3.3c0,1.6-0.5,2.8-1.5,3.8c-1,0.8-2.4,1.3-4.2,1.3
				c-1.7,0-3-0.2-4-0.8v-2.2c0.6,0.4,1.2,0.6,1.9,0.7c0.7,0.1,1.3,0.2,1.9,0.2c1.1,0,1.9-0.2,2.4-0.7c0.6-0.5,0.8-1.2,0.8-2.2
				c0-1.8-1.1-2.7-3.4-2.7c-0.4,0-0.7,0-1.2,0.1c-0.5,0.1-0.8,0.1-1.2,0.2l-1.1-0.6l0.6-7.3h7.8v2.2h-5.7l-0.4,3.8
				c0.2,0,0.5-0.1,0.8-0.1C64.3,304.7,64.7,304.7,65.3,304.7z"/>
			<path class="st0" d="M82.3,306.6c0,2.5-0.4,4.5-1.2,5.8c-0.8,1.2-2.1,1.9-3.9,1.9c-1.7,0-2.9-0.6-3.8-1.9
				c-0.8-1.3-1.3-3.3-1.3-5.7c0-2.7,0.4-4.6,1.2-5.8s2.1-1.8,3.9-1.8c1.7,0,2.9,0.6,3.8,1.9C81.9,302.2,82.3,304,82.3,306.6z
				 M74.5,306.6c0,2.1,0.2,3.5,0.6,4.4c0.4,0.8,1.1,1.3,2.1,1.3c1,0,1.6-0.5,2.1-1.3c0.5-0.8,0.6-2.3,0.6-4.4s-0.2-3.5-0.6-4.4
				c-0.5-0.8-1.1-1.3-2.1-1.3c-1,0-1.6,0.5-2.1,1.3C74.7,303,74.5,304.5,74.5,306.6z"/>
			<path class="st0" d="M94.3,306.6c0,2.5-0.4,4.5-1.2,5.8c-0.8,1.2-2.1,1.9-3.9,1.9c-1.7,0-2.9-0.6-3.8-1.9
				c-0.8-1.3-1.3-3.3-1.3-5.7c0-2.7,0.4-4.6,1.2-5.8s2.1-1.8,3.9-1.8c1.7,0,2.9,0.6,3.8,1.9C93.8,302.2,94.3,304,94.3,306.6z
				 M86.5,306.6c0,2.1,0.2,3.5,0.6,4.4c0.4,0.8,1.1,1.3,2.1,1.3c1,0,1.6-0.5,2.1-1.3c0.5-0.8,0.6-2.3,0.6-4.4s-0.2-3.5-0.6-4.4
				c-0.5-0.8-1.1-1.3-2.1-1.3c-1,0-1.6,0.5-2.1,1.3C86.7,303,86.5,304.5,86.5,306.6z"/>
			<path class="st0" d="M95.7,302.7c0-0.8,0.2-1.6,0.6-2.2c0.4-0.7,1-1.2,1.7-1.7c0.7-0.4,1.5-0.6,2.3-0.6c0.8,0,1.6,0.2,2.2,0.6
				c0.7,0.4,1.2,1,1.7,1.7c0.4,0.7,0.6,1.5,0.6,2.3c0,0.7-0.2,1.6-0.6,2.2c-0.4,0.7-1,1.2-1.6,1.7c-0.7,0.4-1.5,0.6-2.3,0.6
				s-1.6-0.2-2.3-0.6c-0.7-0.4-1.2-1-1.6-1.7C96,304.2,95.7,303.5,95.7,302.7z M96.4,302.7c0,0.7,0.1,1.3,0.5,1.9
				c0.4,0.6,0.8,1.1,1.3,1.3c0.6,0.4,1.2,0.5,1.8,0.5c0.7,0,1.3-0.1,1.9-0.5s1.1-0.8,1.3-1.3c0.4-0.6,0.5-1.2,0.5-1.8
				c0-0.7-0.1-1.3-0.5-1.8c-0.4-0.6-0.8-1.1-1.3-1.3c-0.6-0.4-1.2-0.5-1.8-0.5c-0.7,0-1.3,0.1-1.8,0.5c-0.6,0.4-1.1,0.7-1.3,1.3
				C96.7,301.5,96.4,302.1,96.4,302.7z M102,301.7c0,0.7-0.4,1.1-1,1.3l1.5,2.4h-1.2l-1.1-2.1h-0.5v2.1h-1.1v-5.3h1.6
				c0.7,0,1.2,0.1,1.6,0.4C101.9,300.7,102,301.1,102,301.7z M99.6,302.5h0.4c0.2,0,0.5-0.1,0.7-0.2c0.1-0.1,0.2-0.4,0.2-0.6
				c0-0.2-0.1-0.5-0.2-0.6c-0.1-0.1-0.4-0.1-0.7-0.1h-0.4V302.5z"/>
		</g>
	</g>
	<g>
		<g>
			<path class="st4" d="M643.7,192.2c0,0.7-0.2,1.3-0.8,1.8s-1.3,0.6-2.3,0.6c-1,0-1.8-0.1-2.4-0.5v-1.3c0.4,0.2,0.8,0.4,1.2,0.5
				c0.5,0.1,0.8,0.1,1.2,0.1c0.6,0,1-0.1,1.2-0.4c0.2-0.2,0.4-0.5,0.4-0.8c0-0.4-0.1-0.6-0.4-0.8c-0.2-0.2-0.7-0.5-1.5-0.8
				c-0.8-0.4-1.3-0.7-1.7-1.1c-0.4-0.4-0.5-1-0.5-1.5c0-0.7,0.2-1.3,0.7-1.7c0.5-0.4,1.2-0.6,2.1-0.6c0.8,0,1.7,0.2,2.4,0.6
				l-0.5,1.2c-0.7-0.4-1.5-0.5-2.1-0.5c-0.5,0-0.8,0.1-1.1,0.2c-0.2,0.2-0.4,0.5-0.4,0.8c0,0.2,0,0.4,0.1,0.6
				c0.1,0.1,0.2,0.4,0.5,0.5c0.2,0.1,0.6,0.4,1.2,0.6s1.1,0.5,1.5,0.7c0.2,0.2,0.5,0.5,0.6,0.7C643.6,191.5,643.7,191.9,643.7,192.2
				z"/>
			<path class="st4" d="M648.1,194.8c-1,0-1.8-0.2-2.4-0.8s-0.8-1.5-0.8-2.4c0-1.1,0.2-1.9,0.8-2.5c0.5-0.6,1.2-1,2.2-1
				c0.8,0,1.6,0.2,2.1,0.8c0.5,0.5,0.7,1.2,0.7,2.2v0.7h-4.4c0,0.6,0.2,1.1,0.5,1.5c0.4,0.4,0.7,0.5,1.3,0.5c0.4,0,0.7,0,1.1-0.1
				c0.4-0.1,0.7-0.2,1.1-0.4v1.1c-0.4,0.1-0.7,0.2-1,0.4C649,194.7,648.6,194.8,648.1,194.8z M647.9,189c-0.5,0-0.8,0.1-1.1,0.4
				c-0.2,0.2-0.5,0.7-0.5,1.2h2.9c0-0.5-0.1-1-0.4-1.2C648.6,189.1,648.2,189,647.9,189z"/>
			<path class="st4" d="M653.6,194.7h-1.3v-9.3h1.3V194.7z"/>
			<path class="st4" d="M658.4,194.8c-1,0-1.8-0.2-2.4-0.8s-0.8-1.5-0.8-2.4c0-1.1,0.2-1.9,0.8-2.5c0.5-0.6,1.2-1,2.2-1
				c0.8,0,1.6,0.2,2.1,0.8c0.5,0.5,0.7,1.2,0.7,2.2v0.7h-4.4c0,0.6,0.2,1.1,0.5,1.5c0.4,0.4,0.7,0.5,1.3,0.5c0.4,0,0.7,0,1.1-0.1
				c0.4-0.1,0.7-0.2,1.1-0.4v1.1c-0.4,0.1-0.7,0.2-1,0.4C659.3,194.7,658.9,194.8,658.4,194.8z M658.2,189c-0.5,0-0.8,0.1-1.1,0.4
				c-0.2,0.2-0.5,0.7-0.5,1.2h2.9c0-0.5-0.1-1-0.4-1.2C659,189.1,658.7,189,658.2,189z"/>
			<path class="st4" d="M665.2,194.8c-1,0-1.7-0.2-2.3-0.8c-0.5-0.6-0.7-1.5-0.7-2.5c0-1.1,0.2-1.9,0.8-2.5c0.5-0.6,1.3-0.8,2.3-0.8
				c0.7,0,1.3,0.1,1.8,0.4l-0.4,1.1c-0.6-0.2-1.1-0.4-1.5-0.4c-1.1,0-1.7,0.7-1.7,2.3c0,0.7,0.1,1.3,0.4,1.7
				c0.2,0.4,0.7,0.6,1.2,0.6c0.6,0,1.2-0.1,1.7-0.5v1.2c-0.2,0.1-0.5,0.2-0.8,0.4C665.9,194.7,665.6,194.8,665.2,194.8z"/>
			<path class="st4" d="M671,193.6c0.4,0,0.7,0,1-0.1v1.1c-0.1,0.1-0.4,0.1-0.6,0.1c-0.2,0-0.5,0.1-0.7,0.1c-1.3,0-1.9-0.7-1.9-2.1
				v-3.6h-0.8v-0.6l1-0.5l0.5-1.5h0.8v1.5h1.8v1.1h-1.8v3.5c0,0.4,0.1,0.6,0.2,0.7C670.6,193.6,670.8,193.6,671,193.6z"/>
			<path class="st4" d="M678.9,189.2c0.8,0,1.6,0.2,2.1,0.7c0.5,0.5,0.7,1.1,0.7,1.9c0,1-0.2,1.7-0.8,2.2c-0.6,0.5-1.5,0.7-2.4,0.7
				c-1,0-1.7-0.1-2.3-0.5v-1.2c0.4,0.2,0.7,0.4,1.1,0.4c0.4,0.1,0.8,0.1,1.2,0.1c0.6,0,1.1-0.1,1.5-0.4c0.4-0.2,0.5-0.7,0.5-1.2
				c0-1.1-0.6-1.6-1.9-1.6c-0.2,0-0.4,0-0.7,0c-0.2,0-0.5,0.1-0.7,0.1l-0.6-0.4l0.4-4.2h4.5v1.2H678l-0.2,2.2c0.1,0,0.4,0,0.5-0.1
				C678.4,189.2,678.7,189.2,678.9,189.2z"/>
			<path class="st4" d="M688.8,190.3c0,1.6-0.2,2.7-0.7,3.4c-0.5,0.7-1.2,1.1-2.2,1.1c-1,0-1.7-0.4-2.2-1.1
				c-0.5-0.7-0.7-1.8-0.7-3.4s0.2-2.7,0.7-3.4c0.5-0.7,1.2-1.1,2.2-1.1c1,0,1.7,0.4,2.2,1.1C688.5,187.6,688.8,188.7,688.8,190.3z
				 M684.4,190.3c0,1.2,0.1,2.1,0.4,2.5c0.2,0.5,0.6,0.7,1.2,0.7c0.5,0,1-0.2,1.2-0.7c0.2-0.5,0.4-1.3,0.4-2.5
				c0-1.2-0.1-2.1-0.4-2.5c-0.2-0.5-0.6-0.7-1.2-0.7c-0.5,0-1,0.2-1.2,0.7C684.5,188.2,684.4,189.1,684.4,190.3z"/>
			<path class="st4" d="M698.8,194.7l-0.8-3c-0.1-0.4-0.2-1.1-0.6-2.3l0,0c-0.2,1.1-0.4,1.8-0.5,2.3l-0.8,3h-1.6l-1.8-6.6h1.5
				l0.8,3.3c0.2,0.8,0.4,1.5,0.4,2.1l0,0c0-0.2,0.1-0.6,0.1-1c0.1-0.4,0.1-0.6,0.2-0.8l1-3.5h1.6l1,3.5c0,0.2,0.1,0.5,0.2,0.8
				s0.1,0.7,0.1,1l0,0c0-0.5,0.2-1.2,0.4-2.1l0.8-3.3h1.5l-1.8,6.6H698.8z"/>
			<path class="st4" d="M703.3,186.3c0-0.2,0.1-0.5,0.2-0.6c0.1-0.1,0.4-0.2,0.6-0.2c0.2,0,0.5,0.1,0.6,0.2c0.1,0.1,0.2,0.4,0.2,0.6
				c0,0.2-0.1,0.5-0.2,0.6s-0.4,0.2-0.6,0.2c-0.2,0-0.5-0.1-0.6-0.2C703.3,186.7,703.3,186.5,703.3,186.3z M704.8,194.7h-1.3v-6.6
				h1.3V194.7z"/>
			<path class="st4" d="M709.1,193.6c0.4,0,0.7,0,1-0.1v1.1c-0.1,0.1-0.4,0.1-0.6,0.1c-0.2,0-0.5,0.1-0.7,0.1
				c-1.3,0-1.9-0.7-1.9-2.1v-3.6H706v-0.6l1-0.5l0.5-1.5h0.8v1.5h1.8v1.1h-1.8v3.5c0,0.4,0.1,0.6,0.2,0.7
				C708.7,193.6,708.9,193.6,709.1,193.6z"/>
			<path class="st4" d="M717.3,194.7h-1.5v-4c0-0.5-0.1-0.8-0.4-1.1c-0.2-0.2-0.5-0.4-1-0.4c-0.6,0-1,0.1-1.3,0.5
				c-0.2,0.4-0.4,1-0.4,1.8v3.3h-1.3v-9.3h1.3v2.3c0,0.4,0,0.7-0.1,1.2h0.1c0.2-0.4,0.5-0.6,0.8-0.7c0.4-0.1,0.7-0.2,1.2-0.2
				c1.6,0,2.4,0.8,2.4,2.4L717.3,194.7L717.3,194.7z"/>
			<path class="st4" d="M723.7,194.7h-1.3v-9.3h1.3V194.7z"/>
			<path class="st4" d="M731.6,191.3c0,1.1-0.2,1.9-0.8,2.5s-1.3,0.8-2.3,0.8c-0.6,0-1.1-0.1-1.6-0.4c-0.5-0.2-0.8-0.7-1.1-1.2
				s-0.4-1.1-0.4-1.8c0-1.1,0.2-1.9,0.8-2.5c0.5-0.6,1.3-0.8,2.3-0.8c1,0,1.7,0.4,2.3,1C731.2,189.4,731.6,190.3,731.6,191.3z
				 M726.7,191.3c0,1.6,0.6,2.3,1.7,2.3c1.1,0,1.7-0.7,1.7-2.3c0-1.5-0.6-2.3-1.7-2.3c-0.6,0-1,0.2-1.2,0.6
				C726.9,190.1,726.7,190.5,726.7,191.3z"/>
			<path class="st4" d="M738.5,194.7l-0.8-3c-0.1-0.4-0.2-1.1-0.6-2.3l0,0c-0.2,1.1-0.4,1.8-0.5,2.3l-0.8,3h-1.6l-1.8-6.6h1.5
				l0.8,3.3c0.2,0.8,0.4,1.5,0.4,2.1l0,0c0-0.2,0.1-0.6,0.1-1c0.1-0.4,0.1-0.6,0.2-0.8l1-3.5h1.6l1,3.5c0,0.2,0.1,0.5,0.2,0.8
				c0.1,0.4,0.1,0.7,0.1,1l0,0c0-0.5,0.2-1.2,0.4-2.1l0.8-3.3h1.5l-1.8,6.6H738.5z"/>
			<path class="st4" d="M745.9,194.8c-1,0-1.8-0.2-2.4-0.8s-0.8-1.5-0.8-2.4c0-1.1,0.2-1.9,0.8-2.5c0.5-0.6,1.2-1,2.2-1
				c0.8,0,1.6,0.2,2.1,0.8c0.5,0.5,0.7,1.2,0.7,2.2v0.7h-4.4c0,0.6,0.2,1.1,0.5,1.5c0.4,0.4,0.7,0.5,1.3,0.5c0.4,0,0.7,0,1.1-0.1
				s0.7-0.2,1.1-0.4v1.1c-0.4,0.1-0.7,0.2-1,0.4C746.8,194.7,746.4,194.8,745.9,194.8z M745.7,189c-0.5,0-0.8,0.1-1.1,0.4
				c-0.2,0.2-0.5,0.7-0.5,1.2h2.9c0-0.5-0.1-1-0.4-1.2C746.4,189.1,746,189,745.7,189z"/>
			<path class="st4" d="M754.4,192.7c0,0.6-0.2,1.1-0.7,1.5c-0.5,0.4-1.1,0.5-1.9,0.5c-0.8,0-1.6-0.1-2.1-0.4v-1.2
				c0.7,0.4,1.5,0.5,2.2,0.5c0.8,0,1.3-0.2,1.3-0.7c0-0.1,0-0.4-0.1-0.4c-0.1-0.1-0.2-0.2-0.5-0.4c-0.2-0.1-0.5-0.2-0.8-0.4
				c-0.7-0.2-1.2-0.6-1.6-0.8c-0.2-0.2-0.4-0.7-0.4-1.1c0-0.6,0.2-1,0.7-1.3c0.5-0.4,1.1-0.5,1.8-0.5c0.7,0,1.5,0.1,2.2,0.5
				l-0.5,1.1c-0.7-0.2-1.3-0.5-1.8-0.5c-0.7,0-1.1,0.2-1.1,0.6c0,0.2,0.1,0.4,0.2,0.5c0.2,0.1,0.6,0.4,1.2,0.6
				c0.5,0.2,1,0.4,1.2,0.6c0.2,0.1,0.5,0.4,0.5,0.6C754.4,192.1,754.4,192.5,754.4,192.7z"/>
			<path class="st4" d="M758.4,193.6c0.4,0,0.7,0,1-0.1v1.1c-0.1,0.1-0.4,0.1-0.6,0.1c-0.2,0-0.5,0.1-0.7,0.1
				c-1.3,0-1.9-0.7-1.9-2.1v-3.6h-0.8v-0.6l1-0.5l0.5-1.5h0.8v1.5h1.8v1.1h-1.8v3.5c0,0.4,0.1,0.6,0.2,0.7
				C757.9,193.6,758.1,193.6,758.4,193.6z"/>
			<path class="st4" d="M638.8,214.4l-2.4-6.6h1.5l1.3,3.9c0.2,0.6,0.4,1.2,0.4,1.6l0,0c0-0.2,0.1-0.8,0.4-1.6l1.3-3.9h1.5l-2.5,6.6
				H638.8z"/>
			<path class="st4" d="M649.6,211c0,1.1-0.2,1.9-0.8,2.5c-0.6,0.6-1.3,0.8-2.3,0.8c-0.6,0-1.1-0.1-1.6-0.4
				c-0.5-0.2-0.8-0.7-1.1-1.2s-0.4-1.1-0.4-1.8c0-1.1,0.2-1.9,0.8-2.5c0.5-0.6,1.3-0.8,2.3-0.8c1,0,1.7,0.4,2.3,1
				C649.2,209.2,649.6,210.1,649.6,211z M644.7,211c0,1.6,0.6,2.3,1.7,2.3c1.1,0,1.7-0.7,1.7-2.3c0-1.5-0.6-2.3-1.7-2.3
				c-0.6,0-1,0.2-1.2,0.6C644.8,209.8,644.7,210.3,644.7,211z"/>
			<path class="st4" d="M652.5,214.4h-1.3v-9.3h1.3V214.4z"/>
			<path class="st4" d="M658.5,214.4l-0.2-1l0,0c-0.4,0.4-0.6,0.7-1,0.8s-0.7,0.2-1.2,0.2c-0.6,0-1.1-0.1-1.5-0.5
				c-0.4-0.4-0.5-0.8-0.5-1.5c0-0.7,0.2-1.2,0.7-1.6s1.2-0.5,2.3-0.6h1.1v-0.4c0-0.4-0.1-0.7-0.2-1c-0.2-0.2-0.5-0.4-0.8-0.4
				s-0.6,0-1,0.1c-0.4,0.1-0.6,0.2-0.8,0.4l-0.5-1c0.4-0.2,0.7-0.4,1.2-0.5c0.4-0.1,0.8-0.1,1.2-0.1c0.8,0,1.5,0.2,1.9,0.6
				c0.5,0.4,0.6,1,0.6,1.7v4.5L658.5,214.4L658.5,214.4z M656.5,213.5c0.5,0,1-0.1,1.2-0.5c0.4-0.2,0.5-0.7,0.5-1.2v-0.6h-0.8
				c-0.6,0-1.1,0.1-1.5,0.4c-0.2,0.2-0.5,0.5-0.5,0.8c0,0.2,0.1,0.5,0.2,0.7C655.9,213.4,656.1,213.5,656.5,213.5z"/>
			<path class="st4" d="M664,213.4c0.4,0,0.7,0,1-0.1v1.1c-0.1,0.1-0.4,0.1-0.6,0.1s-0.5,0.1-0.7,0.1c-1.3,0-1.9-0.7-1.9-2.1V209
				h-0.8v-0.6l1-0.5l0.5-1.5h0.8v1.5h1.8v1.1h-1.8v3.5c0,0.4,0.1,0.6,0.2,0.7C663.5,213.4,663.6,213.4,664,213.4z"/>
			<path class="st4" d="M666.2,206.1c0-0.2,0.1-0.5,0.2-0.6c0.1-0.1,0.4-0.2,0.6-0.2c0.2,0,0.5,0.1,0.6,0.2c0.1,0.1,0.2,0.4,0.2,0.6
				c0,0.2-0.1,0.5-0.2,0.6c-0.1,0.1-0.4,0.2-0.6,0.2c-0.2,0-0.5-0.1-0.6-0.2C666.3,206.4,666.2,206.3,666.2,206.1z M667.6,214.4
				h-1.3v-6.6h1.3V214.4z"/>
			<path class="st4" d="M671,214.4h-1.3v-9.3h1.3V214.4z"/>
			<path class="st4" d="M673,206.1c0-0.2,0.1-0.5,0.2-0.6c0.1-0.1,0.4-0.2,0.6-0.2s0.5,0.1,0.6,0.2c0.1,0.1,0.2,0.4,0.2,0.6
				c0,0.2-0.1,0.5-0.2,0.6c-0.1,0.1-0.4,0.2-0.6,0.2s-0.5-0.1-0.6-0.2C673,206.4,673,206.3,673,206.1z M674.4,214.4h-1.3v-6.6h1.3
				V214.4z"/>
			<path class="st4" d="M678.8,213.4c0.4,0,0.7,0,1-0.1v1.1c-0.1,0.1-0.4,0.1-0.6,0.1c-0.2,0-0.5,0.1-0.7,0.1
				c-1.3,0-1.9-0.7-1.9-2.1V209h-0.8v-0.6l1-0.5l0.5-1.5h0.8v1.5h1.8v1.1H678v3.5c0,0.4,0.1,0.6,0.2,0.7
				C678.3,213.4,678.6,213.4,678.8,213.4z"/>
			<path class="st4" d="M680.1,207.8h1.5l1.3,3.8c0.2,0.5,0.4,1.1,0.4,1.5l0,0c0-0.2,0.1-0.5,0.2-0.8c0.1-0.4,0.6-1.8,1.5-4.5h1.5
				l-2.8,7.5c-0.5,1.3-1.3,2.1-2.5,2.1c-0.4,0-0.6,0-0.8-0.1V216c0.2,0,0.5,0.1,0.7,0.1c0.7,0,1.1-0.4,1.5-1.2l0.2-0.6L680.1,207.8z
				"/>
			<path class="st4" d="M696.2,214.4l-0.8-3c-0.1-0.4-0.2-1.1-0.6-2.3l0,0c-0.2,1.1-0.4,1.8-0.5,2.3l-0.8,3h-1.6l-1.8-6.6h1.5
				l0.8,3.3c0.2,0.8,0.4,1.5,0.4,2.1l0,0c0-0.2,0.1-0.6,0.1-1c0.1-0.4,0.1-0.6,0.2-0.8l1-3.5h1.6l1,3.5c0,0.2,0.1,0.5,0.2,0.8
				c0.1,0.4,0.1,0.7,0.1,1l0,0c0-0.5,0.2-1.2,0.4-2.1l0.8-3.3h1.5l-1.8,6.6H696.2z"/>
			<path class="st4" d="M703.6,214.6c-1,0-1.8-0.2-2.4-0.8c-0.6-0.6-0.8-1.5-0.8-2.4c0-1.1,0.2-1.9,0.8-2.5c0.5-0.6,1.2-1,2.2-1
				c0.8,0,1.6,0.2,2.1,0.8c0.5,0.5,0.7,1.2,0.7,2.2v0.7h-4.4c0,0.6,0.2,1.1,0.5,1.5c0.4,0.4,0.7,0.5,1.3,0.5c0.4,0,0.7,0,1.1-0.1
				c0.4-0.1,0.7-0.2,1.1-0.4v1.1c-0.4,0.1-0.7,0.2-1,0.4C704.4,214.6,704.1,214.6,703.6,214.6z M703.3,208.7c-0.5,0-0.8,0.1-1.1,0.4
				c-0.2,0.2-0.5,0.7-0.5,1.2h2.9c0-0.5-0.1-1-0.4-1.2C704.2,208.9,703.8,208.7,703.3,208.7z"/>
			<path class="st4" d="M707.7,206.1c0-0.2,0.1-0.5,0.2-0.6c0.1-0.1,0.4-0.2,0.6-0.2c0.2,0,0.5,0.1,0.6,0.2c0.1,0.1,0.2,0.4,0.2,0.6
				c0,0.2-0.1,0.5-0.2,0.6c-0.1,0.1-0.4,0.2-0.6,0.2c-0.2,0-0.5-0.1-0.6-0.2C707.7,206.4,707.7,206.3,707.7,206.1z M709.1,214.4
				h-1.3v-6.6h1.3V214.4z"/>
			<path class="st4" d="M716.7,207.8v0.7l-1.1,0.2c0.1,0.1,0.2,0.4,0.2,0.5c0.1,0.2,0.1,0.4,0.1,0.6c0,0.7-0.2,1.2-0.7,1.6
				c-0.5,0.4-1.1,0.6-1.9,0.6c-0.2,0-0.4,0-0.6,0c-0.2,0.2-0.5,0.4-0.5,0.6c0,0.1,0.1,0.2,0.2,0.4s0.4,0.1,0.7,0.1h1.1
				c0.7,0,1.2,0.1,1.7,0.5c0.4,0.4,0.6,0.7,0.6,1.3c0,0.7-0.4,1.3-1,1.7c-0.6,0.4-1.5,0.6-2.7,0.6c-0.8,0-1.6-0.1-2.1-0.5
				c-0.5-0.4-0.7-0.7-0.7-1.3c0-0.4,0.1-0.7,0.4-1c0.2-0.2,0.6-0.5,1.1-0.6c-0.2-0.1-0.4-0.2-0.5-0.4c-0.1-0.1-0.1-0.4-0.1-0.6
				c0-0.2,0.1-0.5,0.2-0.6c0.1-0.1,0.4-0.4,0.6-0.5c-0.4-0.1-0.6-0.4-0.8-0.7c-0.2-0.4-0.4-0.7-0.4-1.2c0-0.7,0.2-1.2,0.7-1.7
				c0.5-0.4,1.1-0.6,1.9-0.6c0.2,0,0.4,0,0.6,0s0.4,0,0.5,0.1L716.7,207.8L716.7,207.8z M711.5,215.4c0,0.2,0.1,0.5,0.4,0.7
				c0.2,0.1,0.6,0.2,1.1,0.2c0.7,0,1.3-0.1,1.7-0.4s0.6-0.5,0.6-0.8c0-0.2-0.1-0.5-0.4-0.6c-0.2-0.1-0.6-0.2-1.1-0.2h-1.1
				c-0.4,0-0.7,0.1-1,0.2C711.6,214.9,711.5,215.2,711.5,215.4z M712.1,210c0,0.4,0.1,0.7,0.4,1c0.2,0.2,0.5,0.4,0.8,0.4
				c0.8,0,1.2-0.5,1.2-1.3c0-0.5-0.1-0.7-0.2-1c-0.2-0.2-0.5-0.4-0.8-0.4c-0.4,0-0.7,0.1-1,0.4C712.2,209.2,712.1,209.5,712.1,210z"
				/>
			<path class="st4" d="M723.6,214.4h-1.5v-4c0-0.5-0.1-0.8-0.4-1.1c-0.2-0.2-0.5-0.4-1-0.4c-0.6,0-1,0.1-1.3,0.5
				c-0.2,0.4-0.4,1-0.4,1.8v3.3h-1.3v-9.3h1.3v2.3c0,0.4,0,0.7-0.1,1.2h0.1c0.2-0.4,0.5-0.6,0.8-0.7c0.4-0.1,0.7-0.2,1.2-0.2
				c1.6,0,2.4,0.8,2.4,2.4L723.6,214.4L723.6,214.4z"/>
			<path class="st4" d="M728,213.4c0.4,0,0.7,0,1-0.1v1.1c-0.1,0.1-0.4,0.1-0.6,0.1c-0.2,0-0.5,0.1-0.7,0.1c-1.3,0-1.9-0.7-1.9-2.1
				V209h-0.8v-0.6l1-0.5l0.5-1.5h0.8v1.5h1.8v1.1h-1.8v3.5c0,0.4,0.1,0.6,0.2,0.7C727.5,213.4,727.7,213.4,728,213.4z"/>
			<path class="st4" d="M733.2,214.6c-1,0-1.8-0.2-2.4-0.8c-0.6-0.6-0.8-1.5-0.8-2.4c0-1.1,0.2-1.9,0.8-2.5c0.5-0.6,1.2-1,2.2-1
				c0.8,0,1.6,0.2,2.1,0.8c0.5,0.5,0.7,1.2,0.7,2.2v0.7h-4.4c0,0.6,0.2,1.1,0.5,1.5c0.4,0.4,0.7,0.5,1.3,0.5c0.4,0,0.7,0,1.1-0.1
				c0.4-0.1,0.7-0.2,1.1-0.4v1.1c-0.4,0.1-0.7,0.2-1,0.4C734,214.6,733.7,214.6,733.2,214.6z M732.9,208.7c-0.5,0-0.8,0.1-1.1,0.4
				c-0.2,0.2-0.5,0.7-0.5,1.2h2.9c0-0.5-0.1-1-0.4-1.2C733.7,208.9,733.3,208.7,732.9,208.7z"/>
			<path class="st4" d="M739.5,214.6c-0.8,0-1.5-0.2-1.9-0.8c-0.5-0.6-0.7-1.5-0.7-2.5c0-1.1,0.2-1.9,0.7-2.5
				c0.5-0.6,1.1-0.8,1.9-0.8s1.5,0.4,1.9,1h0.1c-0.1-0.5-0.1-0.8-0.1-1.1v-2.4h1.5v9.3h-1.1l-0.2-0.8h-0.1
				C741.1,214.2,740.3,214.6,739.5,214.6z M739.8,213.4c0.6,0,1-0.1,1.2-0.5c0.2-0.4,0.4-0.8,0.4-1.6V211c0-0.8-0.1-1.5-0.4-1.8
				c-0.2-0.4-0.7-0.5-1.2-0.5c-0.5,0-0.8,0.2-1.1,0.6s-0.4,1-0.4,1.7c0,0.7,0.1,1.3,0.4,1.7C739,213.2,739.4,213.4,739.8,213.4z"/>
			<path class="st4" d="M751.4,207.7c0.8,0,1.5,0.2,1.9,0.8c0.5,0.6,0.7,1.5,0.7,2.5c0,1.1-0.2,1.9-0.7,2.5
				c-0.5,0.6-1.1,0.8-1.9,0.8s-1.5-0.2-1.9-0.8h-0.1l-0.2,0.7H748V205h1.3v2.2c0,0.1,0,0.4,0,0.7c0,0.4,0,0.5,0,0.6l0,0
				C749.8,208,750.5,207.7,751.4,207.7z M751,208.9c-0.6,0-1,0.1-1.2,0.5c-0.2,0.4-0.4,0.8-0.4,1.7v0.1c0,0.8,0.1,1.3,0.4,1.7
				c0.2,0.4,0.6,0.5,1.2,0.5c0.5,0,0.8-0.2,1.1-0.6c0.2-0.4,0.4-1,0.4-1.7C752.5,209.6,752,208.9,751,208.9z"/>
			<path class="st4" d="M754.5,207.8h1.5l1.3,3.8c0.2,0.5,0.4,1.1,0.4,1.5l0,0c0-0.2,0.1-0.5,0.2-0.8c0.1-0.4,0.6-1.8,1.5-4.5h1.5
				l-2.8,7.5c-0.5,1.3-1.3,2.1-2.5,2.1c-0.4,0-0.6,0-0.8-0.1V216c0.2,0,0.5,0.1,0.7,0.1c0.7,0,1.1-0.4,1.5-1.2l0.2-0.6L754.5,207.8z
				"/>
			<path class="st4" d="M644,225.9c0-0.2,0.1-0.5,0.2-0.6c0.1-0.1,0.4-0.2,0.6-0.2c0.2,0,0.5,0.1,0.6,0.2c0.1,0.1,0.2,0.4,0.2,0.6
				c0,0.2-0.1,0.5-0.2,0.6c-0.1,0.1-0.4,0.2-0.6,0.2c-0.2,0-0.5-0.1-0.6-0.2C644,226.3,644,226.1,644,225.9z M645.4,234.2h-1.3v-6.6
				h1.3V234.2z"/>
			<path class="st4" d="M653.2,234.2h-1.5v-4c0-0.5-0.1-0.8-0.4-1.1c-0.2-0.2-0.5-0.4-1-0.4c-0.6,0-1,0.1-1.3,0.5
				c-0.2,0.4-0.4,1-0.4,1.8v3.3h-1.3v-6.6h1.1l0.2,0.8h0.1c0.2-0.4,0.5-0.6,0.8-0.7c0.4-0.1,0.7-0.2,1.2-0.2c1.6,0,2.3,0.8,2.3,2.4
				L653.2,234.2L653.2,234.2z"/>
			<path class="st4" d="M656.6,234.2l-2.4-6.6h1.5l1.3,3.9c0.2,0.6,0.4,1.2,0.4,1.6l0,0c0-0.2,0.1-0.8,0.4-1.6l1.3-3.9h1.5l-2.5,6.6
				H656.6z"/>
			<path class="st4" d="M664.5,234.3c-1,0-1.8-0.2-2.4-0.8s-0.8-1.5-0.8-2.4c0-1.1,0.2-1.9,0.8-2.5c0.5-0.6,1.2-1,2.2-1
				c0.8,0,1.6,0.2,2.1,0.8c0.5,0.5,0.7,1.2,0.7,2.2v0.7h-4.4c0,0.6,0.2,1.1,0.5,1.5c0.4,0.4,0.7,0.5,1.3,0.5c0.4,0,0.7,0,1.1-0.1
				c0.4-0.1,0.7-0.2,1.1-0.4v1.1c-0.4,0.1-0.7,0.2-1,0.4C665.3,234.3,664.9,234.3,664.5,234.3z M664.2,228.5c-0.5,0-0.8,0.1-1.1,0.4
				c-0.2,0.2-0.5,0.7-0.5,1.2h2.9c0-0.5-0.1-1-0.4-1.2C665,228.6,664.6,228.5,664.2,228.5z"/>
			<path class="st4" d="M671.9,227.6c0.2,0,0.5,0,0.7,0l-0.1,1.3c-0.2,0-0.4-0.1-0.6-0.1c-0.6,0-1,0.2-1.3,0.6
				c-0.4,0.4-0.5,0.8-0.5,1.5v3.4h-1.3v-6.6h1.1l0.2,1.2h0.1c0.2-0.4,0.5-0.7,0.8-1C671.2,227.6,671.5,227.6,671.9,227.6z"/>
			<path class="st4" d="M678.2,232.3c0,0.6-0.2,1.1-0.7,1.5c-0.5,0.4-1.1,0.5-1.9,0.5s-1.6-0.1-2.1-0.4v-1.2
				c0.7,0.4,1.5,0.5,2.2,0.5c0.8,0,1.3-0.2,1.3-0.7c0-0.1,0-0.4-0.1-0.4c-0.1-0.1-0.2-0.2-0.5-0.4c-0.2-0.1-0.5-0.2-0.8-0.4
				c-0.7-0.2-1.2-0.6-1.6-0.8c-0.2-0.2-0.4-0.7-0.4-1.1c0-0.6,0.2-1,0.7-1.3c0.5-0.4,1.1-0.5,1.8-0.5s1.5,0.1,2.2,0.5l-0.5,1.1
				c-0.7-0.2-1.3-0.5-1.8-0.5c-0.7,0-1.1,0.2-1.1,0.6c0,0.2,0.1,0.4,0.2,0.5c0.2,0.1,0.6,0.4,1.2,0.6c0.5,0.2,1,0.4,1.2,0.6
				c0.2,0.1,0.5,0.4,0.5,0.6C678.1,231.8,678.2,232,678.2,232.3z"/>
			<path class="st4" d="M682.6,234.3c-1,0-1.8-0.2-2.4-0.8s-0.8-1.5-0.8-2.4c0-1.1,0.2-1.9,0.8-2.5c0.5-0.6,1.2-1,2.2-1
				c0.8,0,1.6,0.2,2.1,0.8c0.5,0.5,0.7,1.2,0.7,2.2v0.7h-4.4c0,0.6,0.2,1.1,0.5,1.5c0.4,0.4,0.7,0.5,1.3,0.5c0.4,0,0.7,0,1.1-0.1
				c0.4-0.1,0.7-0.2,1.1-0.4v1.1c-0.4,0.1-0.7,0.2-1,0.4C683.4,234.3,683.1,234.3,682.6,234.3z M682.3,228.5c-0.5,0-0.8,0.1-1.1,0.4
				c-0.2,0.2-0.5,0.7-0.5,1.2h2.9c0-0.5-0.1-1-0.4-1.2C683.1,228.6,682.7,228.5,682.3,228.5z"/>
			<path class="st4" d="M695.7,230.9c0,1.1-0.2,1.9-0.8,2.5s-1.3,0.8-2.3,0.8c-0.6,0-1.1-0.1-1.6-0.4c-0.5-0.2-0.8-0.7-1.1-1.2
				c-0.2-0.5-0.4-1.1-0.4-1.8c0-1.1,0.2-1.9,0.8-2.5c0.5-0.6,1.3-0.8,2.3-0.8s1.7,0.4,2.3,1C695.3,229,695.7,229.9,695.7,230.9z
				 M690.8,230.9c0,1.6,0.6,2.3,1.7,2.3c1.1,0,1.7-0.7,1.7-2.3c0-1.5-0.6-2.3-1.7-2.3c-0.6,0-1,0.2-1.2,0.6
				C690.9,229.6,690.8,230.2,690.8,230.9z"/>
			<path class="st4" d="M700.5,228.6H699v5.6h-1.5v-5.6h-1.1V228l1.1-0.5v-0.5c0-0.7,0.1-1.3,0.5-1.7c0.4-0.4,1-0.6,1.7-0.6
				c0.5,0,1,0.1,1.5,0.2l-0.4,1.1c-0.4-0.1-0.7-0.1-1-0.1c-0.4,0-0.5,0.1-0.7,0.2c-0.1,0.2-0.2,0.5-0.2,0.8v0.5h1.6L700.5,228.6
				L700.5,228.6z"/>
			<path class="st4" d="M706.2,234.2l-2.4-6.6h1.5l1.3,3.9c0.2,0.6,0.4,1.2,0.4,1.6l0,0c0-0.2,0.1-0.8,0.4-1.6l1.3-3.9h1.5l-2.5,6.6
				H706.2z"/>
			<path class="st4" d="M717,230.9c0,1.1-0.2,1.9-0.8,2.5s-1.3,0.8-2.3,0.8c-0.6,0-1.1-0.1-1.6-0.4c-0.5-0.2-0.8-0.7-1.1-1.2
				s-0.4-1.1-0.4-1.8c0-1.1,0.2-1.9,0.8-2.5c0.5-0.6,1.3-0.8,2.3-0.8c1,0,1.7,0.4,2.3,1C716.8,229,717,229.9,717,230.9z
				 M712.3,230.9c0,1.6,0.6,2.3,1.7,2.3s1.7-0.7,1.7-2.3c0-1.5-0.6-2.3-1.7-2.3c-0.6,0-1,0.2-1.2,0.6
				C712.4,229.6,712.3,230.2,712.3,230.9z"/>
			<path class="st4" d="M720.1,234.2h-1.3v-9.3h1.3V234.2z"/>
			<path class="st4" d="M726.1,234.2l-0.2-1l0,0c-0.4,0.4-0.6,0.7-1,0.8c-0.4,0.1-0.7,0.2-1.2,0.2c-0.6,0-1.1-0.1-1.5-0.5
				c-0.4-0.4-0.5-0.8-0.5-1.5c0-0.7,0.2-1.2,0.7-1.6c0.5-0.4,1.2-0.5,2.3-0.6h1.1v-0.4c0-0.4-0.1-0.7-0.2-1
				c-0.2-0.2-0.5-0.4-0.8-0.4c-0.4,0-0.6,0-1,0.1c-0.4,0.1-0.6,0.2-0.8,0.4l-0.5-1c0.4-0.2,0.7-0.4,1.2-0.5c0.4-0.1,0.8-0.1,1.2-0.1
				c0.8,0,1.5,0.2,1.9,0.6c0.4,0.4,0.6,1,0.6,1.7v4.5L726.1,234.2L726.1,234.2z M724.1,233.3c0.5,0,1-0.1,1.2-0.5
				c0.4-0.2,0.5-0.7,0.5-1.2v-0.6h-0.8c-0.6,0-1.1,0.1-1.5,0.4c-0.2,0.2-0.5,0.5-0.5,0.8c0,0.2,0.1,0.5,0.2,0.7
				C723.5,233.1,723.7,233.3,724.1,233.3z"/>
			<path class="st4" d="M731.5,233.3c0.4,0,0.7,0,1-0.1v1.1c-0.1,0.1-0.4,0.1-0.6,0.1c-0.2,0-0.5,0.1-0.7,0.1
				c-1.3,0-1.9-0.7-1.9-2.1v-3.5h-0.8v-0.6l1-0.5l0.5-1.5h0.8v1.5h1.8v1.1h-1.8v3.5c0,0.4,0.1,0.6,0.2,0.7
				C731,233.1,731.2,233.3,731.5,233.3z"/>
			<path class="st4" d="M733.8,225.9c0-0.2,0.1-0.5,0.2-0.6c0.1-0.1,0.4-0.2,0.6-0.2c0.2,0,0.5,0.1,0.6,0.2c0.1,0.1,0.2,0.4,0.2,0.6
				c0,0.2-0.1,0.5-0.2,0.6c-0.1,0.1-0.4,0.2-0.6,0.2c-0.2,0-0.5-0.1-0.6-0.2C733.8,226.3,733.8,226.1,733.8,225.9z M735.2,234.2
				h-1.3v-6.6h1.3V234.2z"/>
			<path class="st4" d="M738.6,234.2h-1.3v-9.3h1.3V234.2z"/>
			<path class="st4" d="M740.5,225.9c0-0.2,0.1-0.5,0.2-0.6c0.1-0.1,0.4-0.2,0.6-0.2s0.5,0.1,0.6,0.2c0.1,0.1,0.2,0.4,0.2,0.6
				c0,0.2-0.1,0.5-0.2,0.6c-0.1,0.1-0.4,0.2-0.6,0.2s-0.5-0.1-0.6-0.2C740.6,226.3,740.5,226.1,740.5,225.9z M742,234.2h-1.3v-6.6
				h1.3V234.2z"/>
			<path class="st4" d="M746.4,233.3c0.4,0,0.7,0,1-0.1v1.1c-0.1,0.1-0.4,0.1-0.6,0.1c-0.2,0-0.5,0.1-0.7,0.1
				c-1.3,0-1.9-0.7-1.9-2.1v-3.5h-0.8v-0.6l1-0.5l0.5-1.5h0.8v1.5h1.8v1.1h-1.8v3.5c0,0.4,0.1,0.6,0.2,0.7
				C745.9,233.1,746.2,233.3,746.4,233.3z"/>
			<path class="st4" d="M747.7,227.6h1.5l1.3,3.8c0.2,0.5,0.4,1.1,0.4,1.5l0,0c0-0.2,0.1-0.5,0.2-0.8c0.1-0.4,0.6-1.8,1.5-4.5h1.5
				l-2.8,7.5c-0.5,1.3-1.3,2.1-2.5,2.1c-0.4,0-0.6,0-0.8-0.1v-1.1c0.2,0,0.5,0.1,0.7,0.1c0.7,0,1.1-0.4,1.5-1.2l0.2-0.6L747.7,227.6
				z"/>
		</g>
	</g>
	<g>
		<g>
			<path class="st4" d="M379.2,191.1v3.5h-1.5v-8.7h2.4c1.1,0,1.9,0.2,2.4,0.6c0.5,0.4,0.8,1.1,0.8,1.9c0,1.1-0.6,1.8-1.7,2.3
				l2.4,3.9h-1.6l-2.1-3.5H379.2z M379.2,189.9h1c0.6,0,1.1-0.1,1.5-0.4c0.2-0.2,0.5-0.6,0.5-1.1s-0.1-0.8-0.5-1.1
				c-0.4-0.2-0.8-0.4-1.5-0.4h-1V189.9z"/>
			<path class="st4" d="M388.2,194.8c-1,0-1.8-0.2-2.4-0.8s-0.8-1.5-0.8-2.4c0-1.1,0.2-1.9,0.8-2.5c0.5-0.6,1.2-1,2.2-1
				c0.8,0,1.6,0.2,2.1,0.8c0.5,0.5,0.7,1.2,0.7,2.2v0.7h-4.4c0,0.6,0.2,1.1,0.5,1.5c0.4,0.4,0.7,0.5,1.3,0.5c0.4,0,0.7,0,1.1-0.1
				s0.7-0.2,1.1-0.4v1.1c-0.4,0.1-0.7,0.2-1,0.4C389,194.7,388.7,194.8,388.2,194.8z M387.9,189c-0.5,0-0.8,0.1-1.1,0.4
				c-0.2,0.2-0.5,0.7-0.5,1.2h2.9c0-0.5-0.1-1-0.4-1.2C388.8,189.1,388.4,189,387.9,189z"/>
			<path class="st4" d="M397.9,194.7h-1.5v-4.1c0-0.5-0.1-0.8-0.2-1.1c-0.2-0.2-0.5-0.4-0.8-0.4c-0.5,0-1,0.1-1.2,0.5
				c-0.2,0.4-0.4,1-0.4,1.8v3.3h-1.3v-6.6h1.1l0.2,0.8h0.1c0.1-0.4,0.5-0.6,0.8-0.7c0.4-0.1,0.7-0.2,1.1-0.2c1,0,1.7,0.4,1.9,1.1
				h0.1c0.2-0.4,0.5-0.6,0.8-0.7c0.4-0.2,0.7-0.2,1.2-0.2c0.7,0,1.3,0.2,1.7,0.6c0.4,0.4,0.5,1,0.5,1.8v4.4h-1.3v-4.1
				c0-0.5-0.1-0.8-0.2-1.1c-0.1-0.2-0.5-0.4-0.8-0.4c-0.5,0-1,0.1-1.2,0.5c-0.2,0.4-0.4,0.8-0.4,1.6v3.3H397.9z"/>
			<path class="st4" d="M409.7,191.3c0,1.1-0.2,1.9-0.8,2.5s-1.3,0.8-2.3,0.8c-0.6,0-1.1-0.1-1.6-0.4c-0.5-0.2-0.8-0.7-1.1-1.2
				s-0.4-1.1-0.4-1.8c0-1.1,0.2-1.9,0.8-2.5c0.5-0.6,1.3-0.8,2.3-0.8s1.7,0.4,2.3,1C409.5,189.4,409.7,190.3,409.7,191.3z
				 M404.9,191.3c0,1.6,0.6,2.3,1.7,2.3c1.1,0,1.7-0.7,1.7-2.3c0-1.5-0.6-2.3-1.7-2.3c-0.6,0-1,0.2-1.2,0.6
				C405,190.1,404.9,190.5,404.9,191.3z"/>
			<path class="st4" d="M412.8,194.7l-2.4-6.6h1.5l1.3,3.9c0.2,0.6,0.4,1.2,0.4,1.6l0,0c0-0.2,0.1-0.8,0.4-1.6l1.3-3.9h1.5l-2.5,6.6
				H412.8z"/>
			<path class="st4" d="M420.7,194.8c-1,0-1.8-0.2-2.4-0.8s-0.8-1.5-0.8-2.4c0-1.1,0.2-1.9,0.8-2.5c0.5-0.6,1.2-1,2.2-1
				c0.8,0,1.6,0.2,2.1,0.8c0.5,0.5,0.7,1.2,0.7,2.2v0.7h-4.4c0,0.6,0.2,1.1,0.5,1.5c0.4,0.4,0.7,0.5,1.3,0.5c0.4,0,0.7,0,1.1-0.1
				s0.7-0.2,1.1-0.4v1.1c-0.4,0.1-0.7,0.2-1,0.4C421.5,194.7,421.1,194.8,420.7,194.8z M420.5,189c-0.5,0-0.8,0.1-1.1,0.4
				c-0.2,0.2-0.5,0.7-0.5,1.2h2.9c0-0.5-0.1-1-0.4-1.2C421.2,189.1,420.8,189,420.5,189z"/>
			<path class="st4" d="M433.3,194.7h-5.8v-1.1l2.2-2.3c0.6-0.7,1.1-1.2,1.3-1.5s0.4-0.6,0.5-0.8c0.1-0.2,0.1-0.5,0.1-0.8
				s-0.1-0.7-0.4-1c-0.2-0.2-0.6-0.4-1-0.4c-0.4,0-0.6,0.1-1,0.2c-0.4,0.1-0.7,0.4-1.1,0.7l-0.7-1c0.5-0.4,1-0.7,1.5-0.8
				c0.5-0.1,1-0.2,1.5-0.2c0.8,0,1.5,0.2,1.9,0.6c0.5,0.4,0.7,1,0.7,1.7c0,0.4-0.1,0.7-0.2,1.1c-0.1,0.4-0.4,0.7-0.6,1.1
				c-0.2,0.4-0.7,0.8-1.5,1.6l-1.5,1.5l0,0h4.1v1.5H433.3z"/>
			<path class="st4" d="M440.2,190.3c0,1.6-0.2,2.7-0.7,3.4c-0.5,0.7-1.2,1.1-2.2,1.1s-1.7-0.4-2.2-1.1c-0.5-0.7-0.7-1.8-0.7-3.4
				s0.2-2.7,0.7-3.4c0.5-0.7,1.2-1.1,2.2-1.1s1.7,0.4,2.2,1.1C440,187.6,440.2,188.7,440.2,190.3z M435.7,190.3
				c0,1.2,0.1,2.1,0.4,2.5s0.6,0.7,1.2,0.7c0.5,0,1-0.2,1.2-0.7c0.2-0.5,0.4-1.3,0.4-2.5c0-1.2-0.1-2.1-0.4-2.5
				c-0.2-0.5-0.6-0.7-1.2-0.7c-0.5,0-1,0.2-1.2,0.7C435.9,188.2,435.7,189.1,435.7,190.3z"/>
			<path class="st4" d="M445.1,188.5c0,1-0.1,1.6-0.5,2.1c-0.4,0.5-0.8,0.7-1.5,0.7s-1.1-0.2-1.3-0.7c-0.4-0.5-0.5-1.2-0.5-2.1
				c0-1.8,0.6-2.8,1.9-2.8c0.6,0,1.1,0.2,1.5,0.7C445,186.9,445.1,187.6,445.1,188.5z M442.4,188.5c0,0.6,0,1.1,0.1,1.3
				c0.1,0.2,0.2,0.5,0.6,0.5c0.5,0,0.7-0.6,0.7-1.8c0-1.2-0.2-1.8-0.7-1.8c-0.2,0-0.5,0.1-0.6,0.5
				C442.4,187.5,442.4,187.9,442.4,188.5z M449,185.9l-4.9,8.7H443l4.9-8.7H449z M450.7,192c0,1-0.1,1.6-0.5,2.1s-0.8,0.7-1.5,0.7
				s-1.1-0.2-1.5-0.7c-0.4-0.5-0.5-1.1-0.5-2.1c0-1.8,0.6-2.8,1.9-2.8c0.6,0,1.1,0.2,1.5,0.7C450.5,190.4,450.7,191.1,450.7,192z
				 M448,192c0,0.6,0,1.1,0.1,1.3c0.1,0.2,0.4,0.5,0.6,0.5c0.5,0,0.7-0.6,0.7-1.8s-0.2-1.7-0.7-1.7c-0.2,0-0.5,0.1-0.6,0.5
				C448.1,190.9,448,191.4,448,192z"/>
			<path class="st4" d="M460.7,194.7l-0.8-3c-0.1-0.4-0.2-1.1-0.6-2.3l0,0c-0.2,1.1-0.4,1.8-0.5,2.3l-0.8,3h-1.6l-1.8-6.6h1.5
				l0.8,3.3c0.2,0.8,0.4,1.5,0.4,2.1l0,0c0-0.2,0.1-0.6,0.1-1c0.1-0.4,0.1-0.6,0.2-0.8l1-3.5h1.6l1,3.5c0,0.2,0.1,0.5,0.2,0.8
				c0.1,0.4,0.1,0.7,0.1,1l0,0c0-0.5,0.2-1.2,0.4-2.1l0.8-3.3h1.5l-1.8,6.6H460.7z"/>
			<path class="st4" d="M465.2,186.3c0-0.2,0.1-0.5,0.2-0.6c0.1-0.1,0.4-0.2,0.6-0.2s0.5,0.1,0.6,0.2c0.1,0.1,0.2,0.4,0.2,0.6
				c0,0.2-0.1,0.5-0.2,0.6s-0.4,0.2-0.6,0.2s-0.5-0.1-0.6-0.2C465.2,186.7,465.2,186.5,465.2,186.3z M466.7,194.7h-1.3v-6.6h1.3
				V194.7z"/>
			<path class="st4" d="M471.1,193.6c0.4,0,0.7,0,1-0.1v1.1c-0.1,0.1-0.4,0.1-0.6,0.1s-0.5,0.1-0.7,0.1c-1.3,0-1.9-0.7-1.9-2.1v-3.6
				h-0.8v-0.6l1-0.5l0.5-1.5h0.8v1.5h1.8v1.1h-1.8v3.5c0,0.4,0.1,0.6,0.2,0.7C470.6,193.6,470.8,193.6,471.1,193.6z"/>
			<path class="st4" d="M479.2,194.7h-1.5v-4c0-0.5-0.1-0.8-0.4-1.1c-0.2-0.2-0.5-0.4-1-0.4c-0.6,0-1,0.1-1.3,0.5
				c-0.2,0.4-0.4,1-0.4,1.8v3.3h-1.3v-9.3h1.3v2.3c0,0.4,0,0.7-0.1,1.2h0.1c0.2-0.4,0.5-0.6,0.8-0.7c0.4-0.1,0.7-0.2,1.2-0.2
				c1.6,0,2.4,0.8,2.4,2.4L479.2,194.7L479.2,194.7z"/>
			<path class="st4" d="M380.2,214.4h-1.3v-9.3h1.3V214.4z"/>
			<path class="st4" d="M386.2,214.4l-0.2-1l0,0c-0.4,0.4-0.6,0.7-1,0.8c-0.4,0.1-0.7,0.2-1.2,0.2c-0.6,0-1.1-0.1-1.5-0.5
				c-0.4-0.4-0.5-0.8-0.5-1.5c0-0.7,0.2-1.2,0.7-1.6c0.5-0.4,1.2-0.5,2.3-0.6h1.1v-0.4c0-0.4-0.1-0.7-0.2-1
				c-0.2-0.2-0.5-0.4-0.8-0.4c-0.4,0-0.6,0-1,0.1s-0.6,0.2-0.8,0.4l-0.5-1c0.4-0.2,0.7-0.4,1.2-0.5c0.4-0.1,0.8-0.1,1.2-0.1
				c0.8,0,1.5,0.2,1.9,0.6c0.5,0.4,0.6,1,0.6,1.7v4.5L386.2,214.4L386.2,214.4z M384.2,213.5c0.5,0,1-0.1,1.2-0.5
				c0.4-0.2,0.5-0.7,0.5-1.2v-0.6H385c-0.6,0-1.1,0.1-1.5,0.4c-0.4,0.2-0.5,0.5-0.5,0.8c0,0.2,0.1,0.5,0.2,0.7
				C383.6,213.4,383.8,213.5,384.2,213.5z"/>
			<path class="st4" d="M392.4,207.7c0.2,0,0.5,0,0.7,0L393,209c-0.2,0-0.4-0.1-0.6-0.1c-0.6,0-1,0.2-1.3,0.6
				c-0.4,0.4-0.5,0.8-0.5,1.5v3.4h-1.3v-6.6h1.1l0.2,1.2h0.1c0.2-0.4,0.5-0.7,0.8-1C391.7,207.8,392.1,207.7,392.4,207.7z"/>
			<path class="st4" d="M399.8,207.8v0.7l-1.1,0.2c0.1,0.1,0.2,0.4,0.2,0.5c0.1,0.2,0.1,0.4,0.1,0.6c0,0.7-0.2,1.2-0.7,1.6
				c-0.5,0.4-1.1,0.6-1.9,0.6c-0.2,0-0.4,0-0.6,0c-0.2,0.2-0.5,0.4-0.5,0.6c0,0.1,0.1,0.2,0.2,0.4c0.1,0.1,0.4,0.1,0.7,0.1h1.1
				c0.7,0,1.2,0.1,1.7,0.5c0.4,0.4,0.6,0.7,0.6,1.3c0,0.7-0.4,1.3-1,1.7c-0.6,0.4-1.5,0.6-2.7,0.6c-0.8,0-1.6-0.1-2.1-0.5
				c-0.5-0.4-0.7-0.7-0.7-1.3c0-0.4,0.1-0.7,0.4-1c0.2-0.2,0.6-0.5,1.1-0.6c-0.2-0.1-0.4-0.2-0.5-0.4c-0.1-0.1-0.1-0.4-0.1-0.6
				c0-0.2,0.1-0.5,0.2-0.6c0.1-0.1,0.4-0.4,0.6-0.5c-0.4-0.1-0.6-0.4-0.8-0.7s-0.4-0.7-0.4-1.2c0-0.7,0.2-1.2,0.7-1.7
				c0.5-0.4,1.1-0.6,1.9-0.6c0.2,0,0.4,0,0.6,0s0.4,0,0.5,0.1L399.8,207.8L399.8,207.8z M394.7,215.4c0,0.2,0.1,0.5,0.4,0.7
				c0.2,0.1,0.6,0.2,1.1,0.2c0.7,0,1.3-0.1,1.7-0.4s0.6-0.5,0.6-0.8c0-0.2-0.1-0.5-0.4-0.6c-0.2-0.1-0.6-0.2-1.1-0.2h-1.1
				c-0.4,0-0.7,0.1-1,0.2C394.8,214.9,394.7,215.2,394.7,215.4z M395.3,210c0,0.4,0.1,0.7,0.4,1c0.2,0.2,0.5,0.4,0.8,0.4
				c0.8,0,1.2-0.5,1.2-1.3c0-0.5-0.1-0.7-0.2-1c-0.2-0.2-0.5-0.4-0.8-0.4c-0.4,0-0.7,0.1-1,0.4C395.5,209.2,395.3,209.5,395.3,210z"
				/>
			<path class="st4" d="M404,214.6c-1,0-1.8-0.2-2.4-0.8c-0.6-0.6-0.8-1.5-0.8-2.4c0-1.1,0.2-1.9,0.8-2.5c0.5-0.6,1.2-1,2.2-1
				c0.8,0,1.6,0.2,2.1,0.8c0.5,0.5,0.7,1.2,0.7,2.2v0.7h-4.4c0,0.6,0.2,1.1,0.5,1.5c0.4,0.4,0.7,0.5,1.3,0.5c0.4,0,0.7,0,1.1-0.1
				c0.4-0.1,0.7-0.2,1.1-0.4v1.1c-0.4,0.1-0.7,0.2-1,0.4C404.8,214.6,404.4,214.6,404,214.6z M403.7,208.7c-0.5,0-0.8,0.1-1.1,0.4
				c-0.2,0.2-0.5,0.7-0.5,1.2h2.9c0-0.5-0.1-1-0.4-1.2C404.4,208.9,404.2,208.7,403.7,208.7z"/>
			<path class="st4" d="M412.4,212.5c0,0.6-0.2,1.1-0.7,1.5c-0.5,0.4-1.1,0.5-1.9,0.5c-0.8,0-1.6-0.1-2.1-0.4v-1.2
				c0.7,0.4,1.5,0.5,2.2,0.5c0.8,0,1.3-0.2,1.3-0.7c0-0.1,0-0.4-0.1-0.4c-0.1-0.1-0.2-0.2-0.5-0.4c-0.2-0.1-0.5-0.2-0.8-0.4
				c-0.7-0.2-1.2-0.6-1.6-0.8c-0.2-0.2-0.4-0.7-0.4-1.1c0-0.6,0.2-1,0.7-1.3c0.5-0.4,1.1-0.5,1.8-0.5s1.5,0.1,2.2,0.5l-0.5,1.1
				c-0.7-0.2-1.3-0.5-1.8-0.5c-0.7,0-1.1,0.2-1.1,0.6c0,0.2,0.1,0.4,0.2,0.5c0.2,0.1,0.6,0.4,1.2,0.6c0.5,0.2,1,0.4,1.2,0.6
				c0.2,0.1,0.5,0.4,0.5,0.6C412.4,211.9,412.4,212.3,412.4,212.5z"/>
			<path class="st4" d="M416.5,213.4c0.4,0,0.7,0,1-0.1v1.1c-0.1,0.1-0.4,0.1-0.6,0.1c-0.2,0-0.5,0.1-0.7,0.1
				c-1.3,0-1.9-0.7-1.9-2.1V209h-0.8v-0.6l1-0.5l0.5-1.5h0.8v1.5h1.8v1.1h-1.8v3.5c0,0.4,0.1,0.6,0.2,0.7
				C416,213.4,416.1,213.4,416.5,213.4z"/>
			<path class="st4" d="M428.8,205.7v5.7c0,0.6-0.1,1.2-0.4,1.7c-0.2,0.5-0.7,0.8-1.2,1.1c-0.5,0.2-1.1,0.4-1.8,0.4
				c-1.1,0-1.9-0.2-2.5-0.8c-0.6-0.6-0.8-1.3-0.8-2.4v-5.6h1.5v5.6c0,0.7,0.1,1.2,0.5,1.6c0.4,0.4,0.8,0.5,1.6,0.5
				c1.3,0,1.9-0.7,1.9-2.1v-5.5L428.8,205.7L428.8,205.7z"/>
			<path class="st4" d="M432.5,210.9v3.5H431v-8.7h2.4c1.1,0,1.9,0.2,2.4,0.6c0.5,0.4,0.8,1.1,0.8,1.9c0,1.1-0.6,1.8-1.7,2.3
				l2.4,3.9h-1.6l-2.1-3.5H432.5z M432.5,209.7h1c0.6,0,1.1-0.1,1.5-0.4c0.2-0.2,0.5-0.6,0.5-1.1s-0.1-0.8-0.5-1.1
				c-0.4-0.2-0.8-0.4-1.5-0.4h-1V209.7z"/>
			<path class="st4" d="M446.9,212c0,0.7-0.2,1.3-0.8,1.8s-1.3,0.6-2.3,0.6s-1.8-0.1-2.4-0.5v-1.3c0.4,0.2,0.8,0.4,1.2,0.5
				c0.5,0.1,0.8,0.1,1.2,0.1c0.6,0,1-0.1,1.2-0.4c0.2-0.2,0.4-0.5,0.4-0.8s-0.1-0.6-0.4-0.8c-0.2-0.2-0.7-0.5-1.5-0.8
				c-0.8-0.4-1.3-0.7-1.7-1.1c-0.4-0.4-0.5-1-0.5-1.5c0-0.7,0.2-1.3,0.7-1.7c0.5-0.4,1.2-0.6,2.1-0.6s1.7,0.2,2.4,0.6l-0.5,1.2
				c-0.7-0.4-1.5-0.5-2.1-0.5c-0.5,0-0.8,0.1-1.1,0.2c-0.2,0.2-0.4,0.5-0.4,0.8c0,0.2,0,0.4,0.1,0.6c0.1,0.2,0.2,0.4,0.5,0.5
				c0.2,0.1,0.6,0.4,1.2,0.6c0.6,0.2,1.1,0.5,1.5,0.7c0.2,0.2,0.5,0.5,0.6,0.7C446.9,211.3,446.9,211.7,446.9,212z"/>
			<path class="st4" d="M451,214.6c-1,0-1.7-0.2-2.3-0.8c-0.5-0.6-0.7-1.5-0.7-2.5c0-1.1,0.2-1.9,0.8-2.5c0.5-0.6,1.3-0.8,2.3-0.8
				c0.7,0,1.3,0.1,1.8,0.4l-0.4,1.1c-0.6-0.2-1.1-0.4-1.5-0.4c-1.1,0-1.7,0.7-1.7,2.3c0,0.7,0.1,1.3,0.4,1.7
				c0.2,0.4,0.7,0.6,1.2,0.6c0.6,0,1.2-0.1,1.7-0.5v1.2c-0.2,0.1-0.5,0.2-0.8,0.4C451.9,214.6,451.5,214.6,451,214.6z"/>
			<path class="st4" d="M460.3,211c0,1.1-0.2,1.9-0.8,2.5c-0.6,0.6-1.3,0.8-2.3,0.8c-0.6,0-1.1-0.1-1.6-0.4
				c-0.5-0.2-0.8-0.7-1.1-1.2c-0.2-0.5-0.4-1.1-0.4-1.8c0-1.1,0.2-1.9,0.8-2.5c0.5-0.6,1.3-0.8,2.3-0.8s1.7,0.4,2.3,1
				C460.1,209.2,460.3,210.1,460.3,211z M455.5,211c0,1.6,0.6,2.3,1.7,2.3c1.1,0,1.7-0.7,1.7-2.3c0-1.5-0.6-2.3-1.7-2.3
				c-0.6,0-1,0.2-1.2,0.6C455.6,209.8,455.5,210.3,455.5,211z"/>
			<path class="st4" d="M465.1,207.7c0.2,0,0.5,0,0.7,0l-0.1,1.3c-0.2,0-0.4-0.1-0.6-0.1c-0.6,0-1,0.2-1.3,0.6
				c-0.4,0.4-0.5,0.8-0.5,1.5v3.4H462v-6.6h1.1l0.2,1.2h0.1c0.2-0.4,0.5-0.7,0.8-1C464.4,207.8,464.7,207.7,465.1,207.7z"/>
			<path class="st4" d="M470,214.6c-1,0-1.8-0.2-2.4-0.8c-0.6-0.6-0.8-1.5-0.8-2.4c0-1.1,0.2-1.9,0.8-2.5c0.5-0.6,1.2-1,2.2-1
				c0.8,0,1.6,0.2,2.1,0.8c0.5,0.5,0.7,1.2,0.7,2.2v0.7h-4.4c0,0.6,0.2,1.1,0.5,1.5c0.4,0.4,0.7,0.5,1.3,0.5c0.4,0,0.7,0,1.1-0.1
				c0.4-0.1,0.7-0.2,1.1-0.4v1.1c-0.4,0.1-0.7,0.2-1,0.4C470.8,214.6,470.3,214.6,470,214.6z M469.7,208.7c-0.5,0-0.8,0.1-1.1,0.4
				c-0.2,0.2-0.5,0.7-0.5,1.2h2.9c0-0.5-0.1-1-0.4-1.2C470.5,208.9,470.1,208.7,469.7,208.7z"/>
			<path class="st4" d="M478.5,212.5c0,0.6-0.2,1.1-0.7,1.5c-0.5,0.4-1.1,0.5-1.9,0.5c-0.8,0-1.6-0.1-2.1-0.4v-1.2
				c0.7,0.4,1.5,0.5,2.2,0.5c0.8,0,1.3-0.2,1.3-0.7c0-0.1,0-0.4-0.1-0.4c-0.1-0.1-0.2-0.2-0.5-0.4c-0.2-0.1-0.5-0.2-0.8-0.4
				c-0.7-0.2-1.2-0.6-1.6-0.8c-0.2-0.2-0.4-0.7-0.4-1.1c0-0.6,0.2-1,0.7-1.3c0.5-0.4,1.1-0.5,1.8-0.5c0.7,0,1.5,0.1,2.2,0.5
				l-0.5,1.1c-0.7-0.2-1.3-0.5-1.8-0.5c-0.7,0-1.1,0.2-1.1,0.6c0,0.2,0.1,0.4,0.2,0.5c0.2,0.1,0.6,0.4,1.2,0.6
				c0.5,0.2,1,0.4,1.2,0.6c0.2,0.1,0.5,0.4,0.5,0.6C478.3,211.9,478.5,212.3,478.5,212.5z"/>
		</g>
	</g>
	<g>
		
			<linearGradient id="SVGID_2_" gradientUnits="userSpaceOnUse" x1="-11821.5166" y1="1059.5192" x2="-12056.0879" y2="1059.5192" gradientTransform="matrix(-1 0 0 1 -11375.3359 -768.1368)">
			<stop  offset="0" style="stop-color:#95D700"/>
			<stop  offset="1" style="stop-color:#00BC3F"/>
		</linearGradient>
		<path class="st5" d="M478.1,323.3h170.7c17.6,0,31.9-14.3,31.9-31.9l0,0c0-17.6-14.3-31.9-31.9-31.9H478.1
			c-17.6,0-31.9,14.3-31.9,31.9l0,0C446.2,309.1,460.5,323.3,478.1,323.3z"/>
		<g>
			<path class="st0" d="M516.2,284.2h-6.3v-11.3h6.3v1.6h-4.5v3h4.2v1.6h-4.2v3.5h4.5V284.2z"/>
			<path class="st0" d="M520.3,284.2h-1.8v-12h1.8V284.2z"/>
			<path class="st0" d="M522.8,273.4c0-0.4,0.1-0.6,0.2-0.7c0.1-0.1,0.5-0.2,0.7-0.2c0.4,0,0.6,0.1,0.7,0.2c0.1,0.1,0.2,0.4,0.2,0.7
				c0,0.4-0.1,0.6-0.2,0.7c-0.1,0.1-0.4,0.2-0.7,0.2c-0.4,0-0.6-0.1-0.7-0.2S522.8,273.8,522.8,273.4z M524.7,284.2h-1.8v-8.5h1.8
				V284.2z"/>
			<path class="st0" d="M534.4,275.7v1l-1.5,0.2c0.1,0.1,0.2,0.4,0.4,0.6c0.1,0.2,0.1,0.5,0.1,0.8c0,0.8-0.2,1.6-0.8,2.1
				c-0.6,0.5-1.5,0.7-2.5,0.7c-0.2,0-0.5,0-0.7-0.1c-0.4,0.2-0.6,0.5-0.6,0.8c0,0.2,0.1,0.4,0.2,0.5c0.1,0.1,0.5,0.1,1,0.1h1.5
				c1,0,1.7,0.2,2.2,0.6c0.5,0.4,0.7,1,0.7,1.7c0,1-0.4,1.7-1.2,2.2c-0.8,0.5-1.9,0.7-3.4,0.7c-1.2,0-2.1-0.2-2.7-0.6s-1-1-1-1.7
				c0-0.5,0.1-1,0.5-1.3c0.4-0.4,0.8-0.6,1.3-0.7c-0.2-0.1-0.5-0.2-0.6-0.5c-0.1-0.2-0.2-0.5-0.2-0.7c0-0.4,0.1-0.6,0.2-0.8
				c0.1-0.2,0.5-0.5,0.8-0.6c-0.5-0.2-0.8-0.5-1.1-1c-0.2-0.5-0.4-1-0.4-1.5c0-1,0.2-1.6,0.8-2.2c0.6-0.5,1.5-0.7,2.4-0.7
				c0.2,0,0.5,0,0.7,0c0.2,0,0.5,0.1,0.6,0.1h3.2V275.7L534.4,275.7z M527.7,285.6c0,0.4,0.1,0.7,0.5,0.8c0.4,0.2,0.8,0.4,1.5,0.4
				c1,0,1.7-0.1,2.2-0.4s0.7-0.6,0.7-1.1c0-0.4-0.1-0.6-0.4-0.7c-0.2-0.1-0.7-0.2-1.5-0.2h-1.3c-0.5,0-1,0.1-1.2,0.4
				C527.8,284.8,527.7,285.1,527.7,285.6z M528.6,278.5c0,0.5,0.1,1,0.4,1.2c0.2,0.2,0.7,0.5,1.2,0.5c1.1,0,1.6-0.6,1.6-1.7
				c0-0.6-0.1-1-0.4-1.3c-0.2-0.2-0.6-0.5-1.2-0.5c-0.5,0-1,0.1-1.2,0.5C528.7,277.5,528.6,277.9,528.6,278.5z"/>
			<path class="st0" d="M535.9,273.4c0-0.4,0.1-0.6,0.2-0.7c0.1-0.1,0.5-0.2,0.7-0.2c0.4,0,0.6,0.1,0.7,0.2c0.1,0.1,0.2,0.4,0.2,0.7
				c0,0.4-0.1,0.6-0.2,0.7s-0.4,0.2-0.7,0.2s-0.6-0.1-0.7-0.2C536,274,535.9,273.8,535.9,273.4z M537.8,284.2H536v-8.5h1.8V284.2z"
				/>
			<path class="st0" d="M544.7,275.6c1.1,0,1.9,0.4,2.4,1.1c0.6,0.7,0.8,1.8,0.8,3.3c0,1.3-0.2,2.4-0.8,3.3
				c-0.6,0.7-1.5,1.2-2.5,1.2s-1.9-0.4-2.5-1.2h-0.1l-0.4,1h-1.3v-12h1.8v2.8c0,0.2,0,0.5,0,1c0,0.4,0,0.7,0,0.8h0.1
				C542.8,276,543.6,275.6,544.7,275.6z M544.2,277.1c-0.7,0-1.2,0.2-1.6,0.6c-0.4,0.5-0.5,1.1-0.5,2.2v0.1c0,1.1,0.1,1.8,0.5,2.3
				c0.4,0.5,0.8,0.7,1.6,0.7c0.6,0,1.1-0.2,1.5-0.7c0.4-0.5,0.5-1.2,0.5-2.2C546.3,278,545.6,277.1,544.2,277.1z"/>
			<path class="st0" d="M552,284.2h-1.8v-12h1.8V284.2z"/>
			<path class="st0" d="M558.3,284.3c-1.3,0-2.3-0.4-3.2-1.2c-0.8-0.8-1.1-1.8-1.1-3.2c0-1.3,0.4-2.4,1.1-3.3
				c0.7-0.8,1.7-1.2,2.8-1.2c1.1,0,2.1,0.4,2.7,1c0.6,0.7,1,1.6,1,2.8v1h-5.7c0,0.8,0.2,1.5,0.7,1.9c0.4,0.5,1,0.6,1.8,0.6
				c0.5,0,1,0,1.5-0.1c0.5-0.1,0.8-0.2,1.3-0.5v1.5c-0.5,0.2-0.8,0.4-1.3,0.5C559.4,284.3,558.9,284.3,558.3,284.3z M557.9,276.9
				c-0.6,0-1.1,0.1-1.3,0.5c-0.4,0.4-0.6,0.8-0.6,1.6h3.9c0-0.7-0.1-1.2-0.5-1.6C559,277.1,558.6,276.9,557.9,276.9z"/>
			<path class="st0" d="M573.5,281.8c0,0.8-0.2,1.5-0.8,1.9c-0.6,0.5-1.5,0.6-2.5,0.6c-1.1,0-2.1-0.1-2.7-0.5v-1.6
				c1,0.5,1.9,0.7,2.8,0.7c1.1,0,1.7-0.4,1.7-1c0-0.2-0.1-0.4-0.2-0.5c-0.1-0.1-0.4-0.2-0.6-0.5c-0.2-0.1-0.7-0.4-1.2-0.5
				c-1-0.4-1.7-0.7-1.9-1.1c-0.4-0.4-0.5-0.8-0.5-1.5c0-0.7,0.2-1.3,0.8-1.7c0.6-0.4,1.3-0.6,2.4-0.6c1,0,1.9,0.2,2.8,0.6l-0.6,1.3
				c-1-0.4-1.7-0.6-2.3-0.6c-1,0-1.5,0.2-1.5,0.8c0,0.2,0.1,0.5,0.4,0.7c0.2,0.2,0.8,0.5,1.6,0.7s1.2,0.5,1.6,0.7
				c0.4,0.2,0.6,0.5,0.7,0.7C573.4,281.1,573.5,281.4,573.5,281.8z"/>
			<path class="st0" d="M578.6,282.9c0.5,0,0.8-0.1,1.3-0.2v1.3c-0.2,0.1-0.5,0.1-0.7,0.2c-0.4,0-0.6,0.1-1,0.1
				c-1.7,0-2.5-0.8-2.5-2.7v-4.6h-1.2v-0.8l1.2-0.6l0.6-1.8h1.1v1.9h2.4v1.3h-2.4v4.5c0,0.5,0.1,0.7,0.4,1S578.2,282.9,578.6,282.9z
				"/>
			<path class="st0" d="M589.1,280c0,1.3-0.4,2.4-1.1,3.3c-0.7,0.7-1.7,1.2-3,1.2c-0.8,0-1.5-0.1-2.1-0.5s-1.1-0.8-1.5-1.6
				c-0.4-0.7-0.5-1.5-0.5-2.3c0-1.3,0.4-2.4,1.1-3.3c0.7-0.7,1.7-1.2,3-1.2c1.2,0,2.2,0.4,2.9,1.2
				C588.8,277.5,589.1,278.6,589.1,280z M582.9,280c0,1.9,0.7,2.9,2.2,2.9s2.2-1,2.2-2.9c0-1.9-0.7-2.9-2.2-2.9
				c-0.7,0-1.3,0.2-1.7,0.7C583.1,278.3,582.9,279,582.9,280z"/>
			<path class="st0" d="M594.6,284.3c-1.3,0-2.3-0.4-2.9-1.1c-0.7-0.7-1-1.8-1-3.3c0-1.5,0.4-2.5,1.1-3.3c0.7-0.7,1.7-1.1,3-1.1
				c0.8,0,1.7,0.1,2.4,0.5l-0.5,1.5c-0.7-0.2-1.3-0.5-1.9-0.5c-1.5,0-2.2,1-2.2,2.9c0,1,0.2,1.7,0.6,2.2c0.4,0.5,0.8,0.7,1.6,0.7
				c0.8,0,1.6-0.2,2.3-0.6v1.6c-0.4,0.2-0.7,0.4-1.1,0.4C595.6,284.3,595.2,284.3,594.6,284.3z"/>
			<path class="st0" d="M600.8,279.7l1-1.3l2.5-2.8h2.1l-3.4,3.6l3.6,4.9h-2.1l-2.7-3.8l-1,0.8v2.9h-1.8v-12h1.8v5.8L600.8,279.7
				L600.8,279.7z"/>
			<path class="st0" d="M613.8,281.8c0,0.8-0.2,1.5-0.8,1.9c-0.6,0.5-1.5,0.6-2.5,0.6c-1.1,0-2.1-0.1-2.7-0.5v-1.6
				c1,0.5,1.9,0.7,2.8,0.7c1.1,0,1.7-0.4,1.7-1c0-0.2-0.1-0.4-0.2-0.5c-0.1-0.1-0.4-0.2-0.6-0.5c-0.2-0.1-0.7-0.4-1.2-0.5
				c-1-0.4-1.7-0.7-1.9-1.1c-0.4-0.4-0.5-0.8-0.5-1.5c0-0.7,0.2-1.3,0.8-1.7c0.6-0.4,1.3-0.6,2.4-0.6c1,0,1.9,0.2,2.8,0.6l-0.6,1.3
				c-1-0.4-1.7-0.6-2.3-0.6c-1,0-1.5,0.2-1.5,0.8c0,0.2,0.1,0.5,0.4,0.7c0.2,0.2,0.8,0.5,1.6,0.7s1.2,0.5,1.6,0.7
				c0.4,0.2,0.6,0.5,0.7,0.7C613.6,281.1,613.8,281.4,613.8,281.8z"/>
			<path class="st0" d="M617.5,282.5c-0.2,1-0.7,2.2-1.3,3.6h-1.3c0.4-1.3,0.6-2.7,0.8-3.9h1.8L617.5,282.5z"/>
			<path class="st0" d="M509.4,307.6c0,0.8-0.2,1.5-0.8,1.9c-0.6,0.5-1.5,0.6-2.5,0.6c-1.1,0-2.1-0.1-2.7-0.5v-1.6
				c1,0.5,1.9,0.7,2.8,0.7c1.1,0,1.7-0.4,1.7-1c0-0.2-0.1-0.4-0.2-0.5c-0.1-0.1-0.4-0.2-0.6-0.5c-0.2-0.1-0.7-0.4-1.2-0.5
				c-1-0.4-1.7-0.7-1.9-1.1c-0.4-0.4-0.5-0.8-0.5-1.5c0-0.7,0.2-1.3,0.8-1.7s1.3-0.6,2.4-0.6c1,0,1.9,0.2,2.8,0.6l-0.6,1.3
				c-1-0.4-1.7-0.6-2.3-0.6c-1,0-1.5,0.2-1.5,0.8c0,0.2,0.1,0.5,0.4,0.7c0.2,0.2,0.8,0.5,1.6,0.7s1.2,0.5,1.6,0.7
				c0.4,0.2,0.6,0.5,0.7,0.7C509.3,306.9,509.4,307.3,509.4,307.6z"/>
			<path class="st0" d="M518.9,305.8c0,1.3-0.4,2.4-1.1,3.3c-0.7,0.7-1.7,1.2-3,1.2c-0.8,0-1.5-0.1-2.1-0.5s-1.1-0.8-1.5-1.6
				c-0.4-0.7-0.5-1.5-0.5-2.3c0-1.3,0.4-2.4,1.1-3.3c0.7-0.7,1.7-1.2,3-1.2c1.2,0,2.2,0.4,2.9,1.2
				C518.5,303.4,518.9,304.5,518.9,305.8z M512.7,305.8c0,1.9,0.7,2.9,2.2,2.9c1.5,0,2.2-1,2.2-2.9s-0.7-2.9-2.2-2.9
				c-0.7,0-1.3,0.2-1.7,0.7C512.9,304.1,512.7,304.9,512.7,305.8z"/>
			<path class="st0" d="M525.3,301.5c0.4,0,0.6,0,0.8,0.1l-0.1,1.7c-0.2-0.1-0.5-0.1-0.8-0.1c-0.7,0-1.3,0.2-1.7,0.7
				c-0.5,0.5-0.7,1.1-0.7,1.8v4.5h-1.8v-8.5h1.5l0.2,1.5h0.1c0.2-0.5,0.6-0.8,1.1-1.2C524.2,301.6,524.7,301.5,525.3,301.5z"/>
			<path class="st0" d="M530.9,308.7c0.5,0,0.8-0.1,1.3-0.2v1.3c-0.2,0.1-0.5,0.1-0.7,0.2c-0.4,0-0.6,0.1-1,0.1
				c-1.7,0-2.5-0.8-2.5-2.7v-4.6h-1.2v-0.8l1.2-0.6l0.6-1.8h1.1v1.9h2.4v1.3h-2.4v4.5c0,0.5,0.1,0.7,0.4,1
				C530.3,308.7,530.5,308.7,530.9,308.7z"/>
			<path class="st0" d="M542.4,301.5c1.1,0,1.9,0.4,2.4,1.1c0.5,0.7,0.8,1.8,0.8,3.3c0,1.3-0.2,2.4-0.8,3.3
				c-0.6,0.7-1.5,1.2-2.5,1.2s-1.9-0.4-2.5-1.2l0,0l-0.4,1H538v-12h1.8v2.8c0,0.2,0,0.5,0,1c0,0.4,0,0.7,0,0.8h0.1
				C540.3,301.8,541.2,301.5,542.4,301.5z M541.9,302.9c-0.7,0-1.2,0.2-1.6,0.6c-0.4,0.5-0.5,1.1-0.5,2.2v0.1c0,1.1,0.1,1.8,0.5,2.3
				c0.4,0.5,0.8,0.7,1.6,0.7c0.6,0,1.1-0.2,1.5-0.7c0.4-0.5,0.5-1.2,0.5-2.2C543.9,303.9,543.3,302.9,541.9,302.9z"/>
			<path class="st0" d="M546.5,301.6h1.9l1.7,4.9c0.2,0.7,0.5,1.3,0.5,1.9h0.1c0-0.2,0.1-0.6,0.2-1c0.1-0.4,0.7-2.3,1.9-5.7h1.9
				l-3.6,9.6c-0.6,1.8-1.8,2.7-3.3,2.7c-0.4,0-0.8,0-1.2-0.1v-1.5c0.2,0.1,0.6,0.1,1,0.1c0.8,0,1.5-0.5,1.8-1.5l0.4-0.8L546.5,301.6
				z"/>
			<path class="st0" d="M562.3,310.1l-3.3-8.5h1.9l1.7,5c0.2,0.8,0.5,1.5,0.5,2.1h0.1c0-0.4,0.2-1.1,0.5-2.1l1.7-5h1.9l-3.3,8.5
				H562.3z"/>
			<path class="st0" d="M576.3,305.8c0,1.3-0.4,2.4-1.1,3.3c-0.7,0.7-1.7,1.2-3,1.2c-0.8,0-1.5-0.1-2.1-0.5s-1.1-0.8-1.5-1.6
				c-0.4-0.7-0.5-1.5-0.5-2.3c0-1.3,0.4-2.4,1.1-3.3c0.7-0.7,1.7-1.2,3-1.2c1.2,0,2.2,0.4,2.9,1.2
				C575.9,303.4,576.3,304.5,576.3,305.8z M570.1,305.8c0,1.9,0.7,2.9,2.2,2.9c1.5,0,2.2-1,2.2-2.9s-0.7-2.9-2.2-2.9
				c-0.7,0-1.3,0.2-1.7,0.7C570.3,304.1,570.1,304.9,570.1,305.8z"/>
			<path class="st0" d="M580.2,310.1h-1.8v-12h1.8V310.1z"/>
			<path class="st0" d="M588,310.1l-0.4-1.2h-0.1c-0.4,0.5-0.8,0.8-1.2,1.1c-0.4,0.2-1,0.2-1.6,0.2c-0.8,0-1.5-0.2-1.9-0.7
				c-0.5-0.5-0.7-1.1-0.7-1.9s0.4-1.6,1-1.9s1.7-0.7,3-0.7h1.5v-0.5c0-0.5-0.1-1-0.4-1.2c-0.2-0.2-0.6-0.4-1.2-0.4
				c-0.5,0-0.8,0.1-1.2,0.2c-0.4,0.1-0.7,0.2-1.1,0.5l-0.6-1.3c0.5-0.2,1-0.4,1.5-0.6c0.6-0.1,1.1-0.2,1.6-0.2
				c1.1,0,1.9,0.2,2.4,0.7c0.5,0.5,0.8,1.2,0.8,2.2v5.7H588L588,310.1L588,310.1z M585.4,308.9c0.6,0,1.2-0.2,1.6-0.6
				c0.4-0.4,0.6-0.8,0.6-1.6v-0.7h-1.1c-0.8,0-1.5,0.1-1.8,0.5c-0.4,0.2-0.6,0.6-0.6,1.2c0,0.4,0.1,0.7,0.4,0.8
				C584.6,308.7,585,308.9,585.4,308.9z"/>
			<path class="st0" d="M595.1,308.7c0.5,0,0.8-0.1,1.3-0.2v1.3c-0.2,0.1-0.5,0.1-0.7,0.2c-0.4,0-0.6,0.1-1,0.1
				c-1.7,0-2.5-0.8-2.5-2.7v-4.6H591v-0.8l1.2-0.6l0.6-1.8h1.1v1.9h2.4v1.3h-2.4v4.5c0,0.5,0.1,0.7,0.4,1
				C594.5,308.7,594.7,308.7,595.1,308.7z"/>
			<path class="st0" d="M598,299.4c0-0.4,0.1-0.6,0.2-0.7c0.1-0.1,0.5-0.2,0.7-0.2c0.4,0,0.6,0.1,0.7,0.2c0.1,0.1,0.2,0.4,0.2,0.7
				s-0.1,0.6-0.2,0.7c-0.1,0.1-0.4,0.2-0.7,0.2c-0.4,0-0.6-0.1-0.7-0.2C598.1,299.9,598,299.6,598,299.4z M599.9,310.1h-1.8v-8.5
				h1.8V310.1z"/>
			<path class="st0" d="M604.3,310.1h-1.8v-12h1.8V310.1z"/>
			<path class="st0" d="M606.7,299.4c0-0.4,0.1-0.6,0.2-0.7c0.1-0.1,0.5-0.2,0.7-0.2c0.4,0,0.6,0.1,0.7,0.2c0.1,0.1,0.2,0.4,0.2,0.7
				s-0.1,0.6-0.2,0.7c-0.1,0.1-0.4,0.2-0.7,0.2s-0.6-0.1-0.7-0.2C606.8,299.9,606.7,299.6,606.7,299.4z M608.7,310.1h-1.8v-8.5h1.8
				V310.1z"/>
			<path class="st0" d="M614.4,308.7c0.5,0,0.8-0.1,1.3-0.2v1.3c-0.2,0.1-0.5,0.1-0.7,0.2c-0.4,0-0.6,0.1-1,0.1
				c-1.7,0-2.5-0.8-2.5-2.7v-4.6h-1.2v-0.8l1.2-0.6l0.6-1.8h1.1v1.9h2.4v1.3h-2.4v4.5c0,0.5,0.1,0.7,0.4,1
				C613.8,308.7,614.1,308.7,614.4,308.7z"/>
			<path class="st0" d="M616.2,301.6h1.9l1.7,4.9c0.2,0.7,0.5,1.3,0.5,1.9h0.1c0-0.2,0.1-0.6,0.2-1c0.1-0.4,0.7-2.3,1.9-5.7h1.9
				l-3.6,9.6c-0.6,1.8-1.8,2.7-3.3,2.7c-0.4,0-0.8,0-1.2-0.1v-1.5c0.2,0.1,0.6,0.1,1,0.1c0.8,0,1.5-0.5,1.8-1.5l0.4-0.8L616.2,301.6
				z"/>
		</g>
	</g>
	<line class="st2" x1="428.3" y1="244.4" x2="428.3" y2="293.9"/>
	<line class="st2" x1="698.6" y1="244.4" x2="698.6" y2="293.9"/>
	<g>
		<path class="st6" d="M956,262H750.2c-17.6,0-31.9,14.3-31.9,31.9l0,0c0,17.6,14.3,31.9,31.9,31.9H956c17.6,0,31.9-14.3,31.9-31.9
			l0,0C987.9,276.3,973.6,262,956,262z"/>
		<g class="st7">
			<path class="st8" d="M749.8,285.1h-2.3l-5.6-9h-0.1v0.5c0.1,1,0.1,1.8,0.1,2.7v5.8h-1.7v-11.3h2.2l5.6,9l0,0c0-0.1,0-0.6-0.1-1.3
				c-0.1-0.7,0-1.3,0-1.7v-5.9h1.7v11.3H749.8z"/>
			<path class="st8" d="M756.2,285.3c-1.3,0-2.3-0.4-3.2-1.2c-0.7-0.7-1.1-1.8-1.1-3.2c0-1.3,0.4-2.4,1.1-3.3
				c0.7-0.8,1.7-1.2,2.9-1.2c1.1,0,2.1,0.4,2.7,1c0.6,0.7,1,1.6,1,2.8v1h-5.7c0,0.8,0.2,1.5,0.7,1.9c0.4,0.5,1,0.6,1.8,0.6
				c0.5,0,1,0,1.5-0.1c0.5-0.1,0.8-0.2,1.5-0.5v1.5c-0.5,0.2-0.8,0.4-1.3,0.5C757.3,285.2,756.8,285.3,756.2,285.3z M756,277.8
				c-0.6,0-1.1,0.2-1.3,0.6c-0.4,0.4-0.6,0.8-0.6,1.6h3.9c0-0.7-0.1-1.2-0.5-1.6C757,278,756.5,277.8,756,277.8z"/>
			<path class="st8" d="M768.6,285.1l-1.1-4c-0.1-0.4-0.4-1.5-0.7-2.9h-0.1c-0.2,1.3-0.5,2.4-0.7,2.9l-1.1,4h-2.1l-2.4-8.5h1.8
				l1.1,4.2c0.2,1.1,0.4,1.9,0.5,2.7l0,0c0-0.4,0.1-0.8,0.2-1.3c0.1-0.5,0.2-0.8,0.2-1.1l1.3-4.5h1.9l1.2,4.5
				c0.1,0.2,0.1,0.6,0.2,1.2c0.1,0.5,0.2,1,0.2,1.2h0.1c0.1-0.6,0.2-1.5,0.5-2.7l1.1-4.2h1.8l-2.4,8.5H768.6z"/>
			<path class="st8" d="M785.8,285.1l-1.1-3.2h-4.2l-1.1,3.2h-1.9l4.2-11.3h2.1l4.2,11.3H785.8z M784.1,280.5l-1.1-3
				c-0.1-0.2-0.2-0.5-0.4-1c-0.1-0.5-0.2-0.7-0.2-1c-0.1,0.6-0.4,1.3-0.6,2.1l-1,2.9L784.1,280.5L784.1,280.5z"/>
			<path class="st8" d="M796.3,276.6v1l-1.5,0.2c0.1,0.1,0.2,0.4,0.4,0.6c0.1,0.2,0.1,0.5,0.1,0.8c0,0.8-0.4,1.6-0.8,2.1
				c-0.6,0.5-1.5,0.7-2.5,0.7c-0.2,0-0.5,0-0.7-0.1c-0.4,0.2-0.6,0.5-0.6,0.8c0,0.2,0.1,0.4,0.2,0.5c0.1,0.1,0.5,0.1,1,0.1h1.5
				c1,0,1.7,0.2,2.2,0.6c0.5,0.4,0.7,1,0.7,1.7c0,1-0.4,1.7-1.2,2.2c-0.8,0.5-1.9,0.7-3.4,0.7c-1.2,0-2.1-0.2-2.7-0.6
				c-0.6-0.4-1-1-1-1.7c0-0.5,0.1-1,0.5-1.3c0.4-0.4,0.8-0.6,1.3-0.7c-0.2-0.1-0.5-0.2-0.6-0.5c-0.1-0.2-0.2-0.5-0.2-0.7
				c0-0.4,0.1-0.6,0.2-0.8c0.1-0.2,0.5-0.5,0.8-0.6c-0.5-0.2-0.8-0.5-1.1-1c-0.2-0.5-0.4-1-0.4-1.5c0-1,0.2-1.7,0.8-2.2
				c0.6-0.5,1.5-0.7,2.5-0.7c0.2,0,0.5,0,0.7,0c0.2,0,0.5,0.1,0.6,0.1h3V276.6z M789.6,286.4c0,0.4,0.1,0.7,0.5,0.8
				c0.4,0.2,0.8,0.4,1.5,0.4c1,0,1.7-0.1,2.2-0.4c0.5-0.2,0.7-0.6,0.7-1.1c0-0.4-0.1-0.6-0.4-0.8c-0.2-0.1-0.7-0.2-1.5-0.2h-1.3
				c-0.5,0-1,0.1-1.2,0.4C789.7,285.7,789.6,286,789.6,286.4z M790.3,279.4c0,0.5,0.1,1,0.4,1.2c0.2,0.2,0.7,0.5,1.2,0.5
				c1.1,0,1.6-0.6,1.6-1.7c0-0.6-0.1-1-0.4-1.3c-0.2-0.2-0.6-0.5-1.2-0.5c-0.5,0-1,0.1-1.2,0.5C790.5,278.4,790.3,278.8,790.3,279.4
				z"/>
			<path class="st8" d="M801.5,285.3c-1.3,0-2.3-0.4-3.2-1.2c-0.7-0.7-1.1-1.8-1.1-3.2c0-1.3,0.4-2.4,1.1-3.3
				c0.7-0.8,1.7-1.2,2.9-1.2c1.1,0,2.1,0.4,2.7,1c0.6,0.7,1,1.6,1,2.8v1h-5.7c0,0.8,0.2,1.5,0.7,1.9c0.4,0.5,1,0.6,1.8,0.6
				c0.5,0,1,0,1.5-0.1c0.5-0.1,0.8-0.2,1.5-0.5v1.5c-0.5,0.2-0.8,0.4-1.3,0.5C802.7,285.2,802.1,285.3,801.5,285.3z M801.3,277.8
				c-0.6,0-1.1,0.2-1.3,0.6c-0.4,0.4-0.6,0.8-0.6,1.6h3.9c0-0.7-0.1-1.2-0.5-1.6C802.2,278,801.7,277.8,801.3,277.8z"/>
			<path class="st8" d="M818.2,285.1l-1.1-3.2h-4.4l-1.1,3.2h-1.9l4.2-11.3h2.1l4.2,11.3H818.2z M816.5,280.5l-1.1-3
				c-0.1-0.2-0.2-0.5-0.4-1c-0.1-0.5-0.2-0.7-0.2-1c-0.1,0.6-0.4,1.3-0.6,2.1l-1,2.9L816.5,280.5L816.5,280.5z"/>
			<path class="st8" d="M823.2,285.1h-1.8v-12h1.8V285.1z"/>
			<path class="st8" d="M830.1,285.3c-1.1,0-1.9-0.4-2.5-1.2h-0.1c0.1,0.7,0.1,1.2,0.1,1.3v3.5h-1.8v-12.3h1.5
				c0,0.1,0.1,0.5,0.2,1.1h0.1c0.6-0.8,1.5-1.3,2.5-1.3c1.1,0,1.9,0.4,2.4,1.2c0.6,0.7,0.8,1.8,0.8,3.3c0,1.3-0.2,2.4-0.8,3.3
				C832,285.1,831.2,285.3,830.1,285.3z M829.8,277.9c-0.7,0-1.2,0.2-1.6,0.6c-0.4,0.4-0.5,1.1-0.5,2.1v0.2c0,1.1,0.1,1.8,0.5,2.3
				c0.4,0.5,0.8,0.7,1.6,0.7c0.6,0,1.1-0.2,1.5-0.7c0.4-0.5,0.5-1.2,0.5-2.2s-0.1-1.7-0.5-2.2C830.9,278.2,830.4,277.9,829.8,277.9z
				"/>
			<path class="st8" d="M843.1,285.1h-1.8v-5.2c0-0.6-0.1-1.1-0.4-1.5c-0.2-0.4-0.7-0.5-1.2-0.5c-0.7,0-1.3,0.2-1.7,0.7
				c-0.4,0.5-0.5,1.2-0.5,2.3v4.2h-1.8v-12h1.8v3c0,0.5,0,1-0.1,1.6h0.1c0.2-0.4,0.6-0.7,1-1c0.5-0.2,1-0.4,1.6-0.4
				c2.1,0,3.2,1.1,3.2,3.2v5.5H843.1z"/>
			<path class="st8" d="M851,285.1l-0.4-1.2h-0.1c-0.4,0.5-0.8,0.8-1.2,1.1c-0.4,0.2-1,0.2-1.6,0.2c-0.8,0-1.5-0.2-1.9-0.7
				c-0.5-0.5-0.7-1.1-0.7-1.9c0-0.8,0.4-1.6,1-1.9c0.6-0.5,1.7-0.7,3-0.7h1.5v-0.5c0-0.5-0.1-1-0.4-1.2c-0.2-0.2-0.6-0.4-1.2-0.4
				c-0.5,0-0.8,0.1-1.2,0.2c-0.4,0.1-0.7,0.2-1.2,0.5l-0.6-1.3c0.5-0.2,1-0.5,1.6-0.6c0.6-0.1,1.1-0.2,1.6-0.2
				c1.1,0,1.9,0.2,2.4,0.7c0.6,0.5,0.8,1.2,0.8,2.2v5.7H851V285.1z M848.3,283.9c0.6,0,1.2-0.2,1.6-0.6c0.4-0.4,0.6-0.8,0.6-1.6
				v-0.7h-1.1c-0.8,0-1.5,0.1-1.8,0.5c-0.4,0.2-0.6,0.6-0.6,1.2c0,0.4,0.1,0.7,0.4,0.8C847.5,283.7,847.9,283.9,848.3,283.9z"/>
			<path class="st8" d="M868,273.9v7.3c0,0.8-0.1,1.6-0.5,2.2s-0.8,1.1-1.6,1.5c-0.7,0.4-1.5,0.5-2.4,0.5c-1.5,0-2.4-0.4-3.3-1.1
				c-0.7-0.7-1.2-1.7-1.2-3v-7.3h1.8v7.2c0,1,0.2,1.6,0.6,2.1c0.4,0.5,1.1,0.6,1.9,0.6c1.7,0,2.5-1,2.5-2.8v-7.2h2.1V273.9z"/>
			<path class="st8" d="M870.4,284.1c0-0.4,0.1-0.6,0.2-0.8c0.2-0.2,0.5-0.2,0.8-0.2c0.4,0,0.6,0.1,0.8,0.4c0.2,0.2,0.2,0.5,0.2,0.8
				c0,0.4-0.1,0.6-0.2,0.8c-0.1,0.2-0.5,0.4-0.8,0.4c-0.4,0-0.6-0.1-0.8-0.4C870.4,284.8,870.4,284.5,870.4,284.1z"/>
			<path class="st8" d="M881.7,282c0,1-0.4,1.8-1.1,2.3c-0.7,0.6-1.7,0.8-3,0.8c-1.2,0-2.3-0.2-3.2-0.6v-1.7
				c0.5,0.2,1.1,0.5,1.6,0.6c0.6,0.1,1.1,0.2,1.6,0.2c0.7,0,1.2-0.1,1.6-0.4c0.4-0.2,0.5-0.6,0.5-1.1c0-0.4-0.1-0.7-0.5-1.1
				c-0.4-0.2-1-0.6-1.9-1.1c-1-0.4-1.7-0.8-2.2-1.5c-0.4-0.5-0.6-1.2-0.6-1.9c0-1,0.4-1.7,1-2.2c0.7-0.5,1.6-0.8,2.7-0.8
				s2.2,0.2,3.3,0.7l-0.6,1.5c-1-0.4-1.9-0.6-2.7-0.6c-0.6,0-1.1,0.1-1.3,0.4c-0.2,0.2-0.5,0.6-0.5,1c0,0.2,0.1,0.5,0.2,0.7
				c0.1,0.2,0.4,0.4,0.6,0.6c0.2,0.2,0.8,0.5,1.6,0.7c0.8,0.4,1.5,0.6,1.8,1c0.4,0.4,0.7,0.6,0.8,1
				C881.6,281.1,881.7,281.6,881.7,282z"/>
			<path class="st8" d="M883.4,284.1c0-0.4,0.1-0.6,0.2-0.8c0.2-0.2,0.5-0.2,0.8-0.2s0.6,0.1,0.8,0.4c0.2,0.2,0.2,0.5,0.2,0.8
				c0,0.4-0.1,0.6-0.2,0.8c-0.2,0.2-0.5,0.4-0.8,0.4s-0.6-0.1-0.8-0.4C883.5,284.8,883.4,284.5,883.4,284.1z"/>
			<path class="st8" d="M892.3,285.1v-11.3h1.8v9.7h4.7v1.6H892.3z"/>
			<path class="st8" d="M906,285.1l-0.4-1.2h-0.1c-0.4,0.5-0.8,0.8-1.2,1.1s-1,0.2-1.6,0.2c-0.8,0-1.5-0.2-1.9-0.7
				c-0.5-0.5-0.7-1.1-0.7-1.9c0-0.8,0.4-1.6,1-1.9c0.6-0.5,1.7-0.7,3-0.7h1.5v-0.5c0-0.5-0.1-1-0.4-1.2c-0.2-0.2-0.6-0.4-1.2-0.4
				c-0.5,0-0.8,0.1-1.2,0.2c-0.4,0.1-0.7,0.2-1.2,0.5l-0.6-1.3c0.5-0.2,1-0.5,1.6-0.6c0.6-0.1,1.1-0.2,1.6-0.2
				c1.1,0,1.9,0.2,2.4,0.7c0.6,0.5,0.8,1.2,0.8,2.2v5.7H906V285.1z M903.3,283.9c0.6,0,1.2-0.2,1.6-0.6c0.4-0.4,0.6-0.8,0.6-1.6
				v-0.7h-1.1c-0.8,0-1.5,0.1-1.8,0.5c-0.4,0.2-0.6,0.6-0.6,1.2c0,0.4,0.1,0.7,0.4,0.8C902.5,283.7,902.8,283.9,903.3,283.9z"/>
			<path class="st8" d="M914.1,276.5c0.4,0,0.6,0,0.8,0.1l-0.1,1.7c-0.2-0.1-0.5-0.1-0.8-0.1c-0.7,0-1.3,0.2-1.8,0.7
				c-0.5,0.5-0.7,1.1-0.7,1.8v4.5h-1.8v-8.5h1.5l0.2,1.5h0.1c0.2-0.5,0.6-1,1.1-1.2C913.1,276.6,913.6,276.5,914.1,276.5z"/>
			<path class="st8" d="M923.8,276.6v1l-1.5,0.2c0.1,0.1,0.2,0.4,0.4,0.6c0.1,0.2,0.1,0.5,0.1,0.8c0,0.8-0.2,1.6-0.8,2.1
				c-0.6,0.5-1.5,0.7-2.5,0.7c-0.2,0-0.5,0-0.7-0.1c-0.4,0.2-0.6,0.5-0.6,0.8c0,0.2,0.1,0.4,0.2,0.5c0.1,0.1,0.5,0.1,1,0.1h1.5
				c1,0,1.7,0.2,2.2,0.6s0.7,1,0.7,1.7c0,1-0.4,1.7-1.2,2.2c-0.8,0.5-1.9,0.7-3.4,0.7c-1.2,0-2.1-0.2-2.7-0.6c-0.6-0.4-1-1-1-1.7
				c0-0.5,0.1-1,0.5-1.3c0.4-0.4,0.8-0.6,1.3-0.7c-0.2-0.1-0.5-0.2-0.6-0.5c-0.1-0.2-0.2-0.5-0.2-0.7c0-0.4,0.1-0.6,0.2-0.8
				c0.1-0.2,0.5-0.5,0.8-0.6c-0.5-0.2-0.8-0.5-1.1-1c-0.2-0.5-0.4-1-0.4-1.5c0-1,0.2-1.7,0.8-2.2c0.6-0.5,1.5-0.7,2.5-0.7
				c0.2,0,0.5,0,0.7,0s0.5,0.1,0.6,0.1h3V276.6z M917.1,286.4c0,0.4,0.1,0.7,0.5,0.8c0.4,0.2,0.8,0.4,1.5,0.4c1,0,1.7-0.1,2.2-0.4
				c0.5-0.2,0.7-0.6,0.7-1.1c0-0.4-0.1-0.6-0.4-0.8c-0.2-0.2-0.7-0.2-1.5-0.2h-1.3c-0.5,0-1,0.1-1.2,0.4S917.1,286,917.1,286.4z
				 M917.9,279.4c0,0.5,0.1,1,0.4,1.2c0.2,0.2,0.7,0.5,1.2,0.5c1.1,0,1.6-0.6,1.6-1.7c0-0.6-0.1-1-0.4-1.3c-0.2-0.2-0.6-0.5-1.2-0.5
				c-0.5,0-1,0.1-1.2,0.5C918,278.4,917.9,278.8,917.9,279.4z"/>
			<path class="st8" d="M929,285.3c-1.3,0-2.3-0.4-3.2-1.2c-0.7-0.7-1.1-1.8-1.1-3.2c0-1.3,0.4-2.4,1.1-3.3c0.7-0.8,1.7-1.2,2.9-1.2
				c1.1,0,2.1,0.4,2.7,1c0.6,0.7,1,1.6,1,2.8v1h-5.7c0,0.8,0.2,1.5,0.7,1.9c0.4,0.5,1,0.6,1.8,0.6c0.5,0,1,0,1.5-0.1
				c0.5-0.1,0.8-0.2,1.5-0.5v1.5c-0.5,0.2-0.8,0.4-1.3,0.5C930.2,285.2,929.6,285.3,929,285.3z M928.8,277.8c-0.6,0-1.1,0.2-1.3,0.6
				c-0.4,0.4-0.6,0.8-0.6,1.6h3.9c0-0.7-0.1-1.2-0.5-1.6C929.8,278,929.3,277.8,928.8,277.8z"/>
			<path class="st8" d="M933.8,281.7v-1.6h4v1.6H933.8z"/>
			<path class="st8" d="M944.6,275.2c-1.1,0-1.9,0.4-2.5,1.1s-0.8,1.8-0.8,3.2s0.2,2.4,0.8,3.2s1.5,1.1,2.5,1.1c0.5,0,1,0,1.3-0.1
				c0.4-0.1,1-0.2,1.3-0.4v1.6c-0.8,0.4-1.9,0.5-3,0.5c-1.7,0-2.9-0.5-3.8-1.5c-0.8-1-1.3-2.4-1.3-4.2c0-1.2,0.2-2.2,0.6-3
				c0.4-0.8,1.1-1.6,1.8-2.1c0.8-0.5,1.8-0.7,2.9-0.7c1.1,0,2.2,0.2,3.2,0.7l-0.6,1.6c-0.4-0.1-0.7-0.4-1.2-0.5
				C945.4,275.4,944.9,275.2,944.6,275.2z"/>
			<path class="st8" d="M954.9,285.1l-0.4-1.2h-0.1c-0.4,0.5-0.8,0.8-1.2,1.1s-1,0.2-1.6,0.2c-0.8,0-1.5-0.2-1.9-0.7
				c-0.5-0.5-0.7-1.1-0.7-1.9c0-0.8,0.4-1.6,1-1.9c0.6-0.5,1.7-0.7,3-0.7h1.5v-0.5c0-0.5-0.1-1-0.4-1.2c-0.2-0.2-0.6-0.4-1.2-0.4
				c-0.5,0-0.8,0.1-1.2,0.2c-0.4,0.1-0.7,0.2-1.2,0.5l-0.6-1.3c0.5-0.2,1-0.5,1.6-0.6c0.6-0.1,1.1-0.2,1.6-0.2
				c1.1,0,1.9,0.2,2.4,0.7c0.5,0.5,0.8,1.2,0.8,2.2v5.7h-1.3V285.1z M952.2,283.9c0.6,0,1.2-0.2,1.6-0.6c0.4-0.4,0.6-0.8,0.6-1.6
				v-0.7h-1.1c-0.8,0-1.5,0.1-1.8,0.5c-0.4,0.2-0.6,0.6-0.6,1.2c0,0.4,0.1,0.7,0.4,0.8C951.4,283.7,951.7,283.9,952.2,283.9z"/>
			<path class="st8" d="M963,285.3c-1.1,0-1.9-0.4-2.5-1.2h-0.1c0.1,0.7,0.1,1.2,0.1,1.3v3.5h-1.8v-12.3h1.5c0,0.1,0.1,0.5,0.2,1.1
				h0.1c0.6-0.8,1.5-1.3,2.5-1.3s1.9,0.4,2.4,1.2c0.6,0.7,0.8,1.8,0.8,3.3c0,1.3-0.2,2.4-0.8,3.3C965,284.8,964.1,285.3,963,285.3z
				 M962.5,277.9c-0.7,0-1.2,0.2-1.6,0.6s-0.5,1.1-0.5,2.1v0.2c0,1.1,0.1,1.8,0.5,2.3c0.4,0.5,0.8,0.7,1.6,0.7
				c0.6,0,1.1-0.2,1.5-0.7c0.4-0.5,0.5-1.2,0.5-2.2s-0.1-1.7-0.5-2.2C963.6,278.3,963.3,277.9,962.5,277.9z"/>
			<path class="st8" d="M767,311.3V300h1.8v9.7h4.7v1.6H767z"/>
			<path class="st8" d="M782.9,307c0,1.3-0.4,2.4-1.1,3.3c-0.7,0.7-1.7,1.2-3,1.2c-0.8,0-1.5-0.1-2.1-0.5s-1.1-0.8-1.5-1.6
				c-0.4-0.7-0.5-1.5-0.5-2.3c0-1.3,0.4-2.4,1.1-3.3c0.7-0.7,1.7-1.2,3-1.2c1.2,0,2.2,0.4,2.9,1.2
				C782.6,304.6,782.9,305.7,782.9,307z M776.7,307c0,1.9,0.7,2.9,2.2,2.9s2.2-1,2.2-2.9s-0.7-2.9-2.2-2.9c-0.7,0-1.3,0.2-1.7,0.7
				C777,305.3,776.7,306.1,776.7,307z"/>
			<path class="st8" d="M792,311.3l-1.1-4c-0.1-0.4-0.4-1.5-0.7-2.9h-0.1c-0.2,1.3-0.5,2.4-0.7,2.9l-1.1,4h-2.1l-2.4-8.5h1.8
				l1.1,4.2c0.2,1.1,0.4,1.9,0.5,2.7l0,0c0-0.4,0.1-0.8,0.2-1.3c0.1-0.5,0.2-0.8,0.2-1.1l1.3-4.5h1.9l1.2,4.5
				c0.1,0.2,0.1,0.6,0.2,1.2c0.1,0.5,0.2,1,0.2,1.2h0.1c0.1-0.6,0.2-1.5,0.5-2.7l1.1-4.2h1.8l-2.4,8.5H792z"/>
			<path class="st8" d="M808.7,300.1h1.9l-4,11.3h-1.9l-3.9-11.3h1.9l2.3,7c0.1,0.4,0.2,0.7,0.4,1.3s0.2,1,0.2,1.2
				c0.1-0.4,0.1-0.8,0.4-1.3c0.1-0.5,0.2-0.8,0.4-1.1L808.7,300.1z"/>
			<path class="st8" d="M819.5,307c0,1.3-0.4,2.4-1.1,3.3c-0.7,0.7-1.7,1.2-3,1.2c-0.8,0-1.5-0.1-2.1-0.5s-1.1-0.8-1.5-1.6
				c-0.4-0.7-0.5-1.5-0.5-2.3c0-1.3,0.4-2.4,1.1-3.3c0.7-0.7,1.7-1.2,3-1.2c1.2,0,2.2,0.4,2.9,1.2
				C819.1,304.6,819.5,305.7,819.5,307z M813.3,307c0,1.9,0.7,2.9,2.2,2.9c1.5,0,2.2-1,2.2-2.9s-0.7-2.9-2.2-2.9
				c-0.7,0-1.3,0.2-1.7,0.7C813.4,305.3,813.3,306.1,813.3,307z"/>
			<path class="st8" d="M823.3,311.3h-1.8v-12h1.8V311.3z"/>
			<path class="st8" d="M831.2,311.3l-0.4-1.2h-0.1c-0.4,0.5-0.8,0.8-1.2,1.1c-0.4,0.2-1,0.2-1.6,0.2c-0.8,0-1.5-0.2-1.9-0.7
				c-0.5-0.5-0.7-1.1-0.7-1.9c0-0.8,0.4-1.6,1-1.9c0.6-0.5,1.7-0.7,3-0.7h1.5v-0.5c0-0.5-0.1-1-0.4-1.2c-0.2-0.2-0.6-0.4-1.2-0.4
				c-0.5,0-0.8,0.1-1.2,0.2c-0.4,0.1-0.7,0.2-1.2,0.5l-0.6-1.3c0.5-0.2,1-0.5,1.6-0.6s1.1-0.2,1.6-0.2c1.1,0,1.9,0.2,2.4,0.7
				c0.6,0.5,0.8,1.2,0.8,2.2v5.7h-1.3V311.3z M828.6,310.1c0.6,0,1.2-0.2,1.6-0.6c0.4-0.4,0.6-0.8,0.6-1.6v-0.7h-1.1
				c-0.8,0-1.5,0.1-1.8,0.5c-0.4,0.2-0.6,0.6-0.6,1.2c0,0.4,0.1,0.7,0.4,0.8C827.7,309.9,828.1,310.1,828.6,310.1z"/>
			<path class="st8" d="M838.3,310.1c0.5,0,0.8-0.1,1.3-0.2v1.3c-0.2,0.1-0.5,0.1-0.7,0.2c-0.4,0-0.6,0.1-1,0.1
				c-1.7,0-2.5-0.8-2.5-2.7v-4.6h-1.2v-0.8l1.2-0.6l0.6-1.8h1.1v1.9h2.4v1.3h-2.4v4.6c0,0.5,0.1,0.7,0.4,1
				C837.5,309.9,837.9,310.1,838.3,310.1z"/>
			<path class="st8" d="M841.2,300.6c0-0.4,0.1-0.6,0.2-0.7c0.1-0.1,0.5-0.2,0.7-0.2c0.4,0,0.6,0.1,0.7,0.2c0.1,0.1,0.2,0.4,0.2,0.7
				c0,0.4-0.1,0.6-0.2,0.7c-0.1,0.1-0.5,0.2-0.7,0.2c-0.4,0-0.6-0.1-0.7-0.2C841.2,301.1,841.2,300.8,841.2,300.6z M843,311.3h-1.8
				v-8.5h1.8V311.3z"/>
			<path class="st8" d="M847.5,311.3h-1.8v-12h1.8V311.3z"/>
			<path class="st8" d="M849.9,300.6c0-0.4,0.1-0.6,0.2-0.7c0.1-0.1,0.5-0.2,0.7-0.2c0.4,0,0.6,0.1,0.7,0.2c0.1,0.1,0.2,0.4,0.2,0.7
				c0,0.4-0.1,0.6-0.2,0.7c-0.1,0.1-0.5,0.2-0.7,0.2c-0.4,0-0.6-0.1-0.7-0.2C850,301.1,849.9,300.8,849.9,300.6z M851.9,311.3H850
				v-8.5h1.8V311.3z"/>
			<path class="st8" d="M857.6,310.1c0.5,0,0.8-0.1,1.3-0.2v1.3c-0.2,0.1-0.5,0.1-0.7,0.2c-0.4,0-0.6,0.1-1,0.1
				c-1.7,0-2.5-0.8-2.5-2.7v-4.6h-1.2v-0.8l1.2-0.6l0.6-1.8h1.1v1.9h2.4v1.3h-2.4v4.6c0,0.5,0.1,0.7,0.4,1
				C857,309.9,857.3,310.1,857.6,310.1z"/>
			<path class="st8" d="M859.4,302.8h1.9l1.7,4.9c0.2,0.7,0.5,1.3,0.5,1.9h0.1c0-0.2,0.1-0.6,0.2-1c0.1-0.4,0.7-2.3,1.9-5.7h1.9
				l-3.6,9.7c-0.6,1.8-1.8,2.7-3.3,2.7c-0.4,0-0.8,0-1.2-0.1v-1.5c0.2,0.1,0.6,0.1,1,0.1c0.8,0,1.5-0.5,1.8-1.6l0.4-0.8L859.4,302.8
				z"/>
			<path class="st8" d="M876.4,304.2c1.1,0,2.1,0.2,2.7,0.8s1,1.5,1,2.4c0,1.2-0.4,2.2-1.1,2.8s-1.8,1-3.2,1c-1.2,0-2.3-0.2-2.9-0.6
				v-1.5c0.4,0.2,0.8,0.4,1.5,0.6c0.5,0.1,1.1,0.2,1.5,0.2c0.8,0,1.5-0.2,1.8-0.6c0.5-0.4,0.6-0.8,0.6-1.6c0-1.3-0.8-2.1-2.5-2.1
				c-0.2,0-0.5,0-0.8,0.1c-0.4,0.1-0.6,0.1-1,0.1l-0.8-0.5l0.5-5.5h5.8v1.6H875l-0.2,2.8c0.1,0,0.4-0.1,0.6-0.1
				C875.8,304.4,876,304.2,876.4,304.2z"/>
			<path class="st8" d="M889.2,305.7c0,1.9-0.4,3.4-1,4.4c-0.6,1-1.6,1.5-2.9,1.5c-1.2,0-2.2-0.5-2.8-1.5c-0.6-1-1-2.4-1-4.4
				s0.4-3.4,1-4.4c0.6-1,1.6-1.5,2.9-1.5c1.2,0,2.2,0.5,2.9,1.5C889.1,302.3,889.2,303.8,889.2,305.7z M883.4,305.7
				c0,1.6,0.1,2.7,0.5,3.3c0.4,0.6,0.8,1,1.5,1s1.2-0.4,1.6-1c0.4-0.6,0.5-1.7,0.5-3.3c0-1.5-0.1-2.5-0.5-3.3c-0.4-0.7-0.8-1-1.6-1
				s-1.2,0.4-1.5,1C883.5,303,883.4,304.1,883.4,305.7z"/>
			<path class="st8" d="M895.5,311.3V300h1.8v11.3H895.5z"/>
			<path class="st8" d="M907.6,311.3h-1.8v-5.2c0-0.6-0.1-1.1-0.4-1.5c-0.2-0.4-0.7-0.5-1.2-0.5c-0.7,0-1.3,0.2-1.7,0.7
				c-0.4,0.5-0.5,1.2-0.5,2.3v4.2h-1.8v-8.5h1.5l0.2,1.1h0.1c0.2-0.4,0.6-0.7,1.1-1c0.5-0.2,1-0.4,1.6-0.4c2.1,0,3,1.1,3,3.2v5.5
				H907.6z"/>
			<path class="st8" d="M913,311.5c-1.1,0-1.9-0.4-2.5-1.2c-0.6-0.7-0.8-1.8-0.8-3.3c0-1.5,0.2-2.4,0.8-3.3c0.6-0.7,1.5-1.2,2.5-1.2
				c1.1,0,1.9,0.4,2.5,1.2h0.1c-0.1-0.6-0.1-1.1-0.1-1.5v-3.2h1.8v12h-1.5l-0.4-1.1h-0.1C915,311,914.1,311.5,913,311.5z
				 M913.5,310.1c0.7,0,1.3-0.2,1.6-0.6s0.5-1.1,0.5-2.1v-0.2c0-1.1-0.1-1.8-0.5-2.3c-0.4-0.5-0.8-0.7-1.7-0.7
				c-0.6,0-1.1,0.2-1.5,0.7c-0.4,0.5-0.5,1.2-0.5,2.2c0,1,0.1,1.7,0.5,2.2C912.3,309.8,912.8,310.1,913.5,310.1z"/>
			<path class="st8" d="M923.7,311.5c-1.3,0-2.3-0.4-3.2-1.2c-0.7-0.7-1.1-1.8-1.1-3.2s0.4-2.4,1.1-3.3c0.7-0.8,1.7-1.2,2.9-1.2
				c1.1,0,2.1,0.4,2.7,1c0.6,0.7,1,1.6,1,2.8v1h-5.7c0,0.8,0.2,1.5,0.7,1.9c0.4,0.5,1,0.6,1.8,0.6c0.5,0,1,0,1.5-0.1
				c0.5-0.1,0.8-0.2,1.5-0.5v1.5c-0.5,0.2-0.8,0.4-1.3,0.5C924.8,311.4,924.3,311.5,923.7,311.5z M923.3,304c-0.6,0-1.1,0.2-1.3,0.6
				c-0.4,0.4-0.6,0.8-0.6,1.6h3.9c0-0.7-0.1-1.2-0.5-1.6C924.4,304.2,923.9,304,923.3,304z"/>
			<path class="st8" d="M931,307l-2.9-4.1h2.1l1.9,3l1.9-3h2.1l-2.9,4.1l3,4.4h-2.1l-2.1-3.2l-2.1,3.2h-2.1L931,307z"/>
		</g>
	</g>
</g>
</svg>
