<?xml version="1.0" encoding="utf-8"?>
<!-- Generator: Adobe Illustrator 24.3.0, SVG Export Plug-In . SVG Version: 6.00 Build 0)  -->
<svg version="1.1" id="Layer_1" xmlns="http://www.w3.org/2000/svg" xmlns:xlink="http://www.w3.org/1999/xlink" x="0px" y="0px"
	 viewBox="0 0 1000 550" style="enable-background:new 0 0 1000 550;" xml:space="preserve">
<style type="text/css">
	.st0{fill:#FFFFFF;}
	.st1{fill:none;stroke:#00B9FF;stroke-linecap:round;stroke-linejoin:round;stroke-miterlimit:10;}
	.st2{fill:url(#SVGID_1_);}
	.st3{enable-background:new    ;}
	.st4{fill:#284D95;}
	.st5{fill:#D3D8DC;}
	.st6{fill:#314D91;}
	.st7{fill:url(#SVGID_2_);}
	.st8{fill:url(#SVGID_3_);}
	.st9{fill:url(#SVGID_4_);}
	.st10{fill:url(#SVGID_5_);}
</style>
<rect class="st0" width="1000" height="550"/>
<g>
	<line class="st1" x1="710.4" y1="295.2" x2="710.4" y2="360.5"/>
	<line class="st1" x1="408.5" y1="273.4" x2="473.1" y2="273.4"/>
	<line class="st1" x1="571.6" y1="273.4" x2="640.6" y2="273.4"/>
	
		<linearGradient id="SVGID_1_" gradientUnits="userSpaceOnUse" x1="444.0968" y1="278.6421" x2="306.4449" y2="278.6421" gradientTransform="matrix(1 0 0 -1 0 552)">
		<stop  offset="0" style="stop-color:#5ABAF9"/>
		<stop  offset="1" style="stop-color:#2E4C99"/>
	</linearGradient>
	<path class="st2" d="M328.3,295.2h94c12.1,0,21.8-9.9,21.8-21.8l0,0c0-12.1-9.9-21.8-21.8-21.8h-94c-12.1,0-21.8,9.9-21.8,21.8l0,0
		C306.4,285.4,316.3,295.2,328.3,295.2z"/>
	<g>
		<g class="st3">
			<path class="st0" d="M343.6,269.8l-0.8-2.2h-3l-0.8,2.2h-1.4l3-8h1.4l3,8H343.6z M342.5,266.5l-0.7-2.2c-0.1-0.1-0.1-0.4-0.2-0.7
				c-0.1-0.3-0.2-0.5-0.2-0.7c-0.1,0.4-0.2,0.9-0.4,1.5l-0.7,2.1H342.5z"/>
			<path class="st0" d="M349,269.9c-0.8,0-1.4-0.3-1.8-0.8h-0.1c0.1,0.5,0.1,0.8,0.1,0.9v2.5h-1.3v-8.7h1c0,0.1,0.1,0.4,0.2,0.8h0.1
				c0.4-0.6,1-0.9,1.8-0.9c0.8,0,1.3,0.3,1.8,0.8c0.4,0.5,0.6,1.3,0.6,2.3s-0.2,1.8-0.6,2.3C350.3,269.7,349.7,269.9,349,269.9z
				 M348.7,264.8c-0.5,0-0.9,0.1-1.1,0.4c-0.2,0.3-0.4,0.8-0.4,1.4v0.2c0,0.7,0.1,1.3,0.3,1.6c0.2,0.3,0.6,0.5,1.1,0.5
				c0.4,0,0.8-0.2,1-0.5c0.2-0.4,0.4-0.9,0.4-1.6c0-0.7-0.1-1.2-0.4-1.5C349.5,264.9,349.1,264.8,348.7,264.8z"/>
			<path class="st0" d="M355.9,269.9c-0.8,0-1.4-0.3-1.8-0.8h-0.1c0.1,0.5,0.1,0.8,0.1,0.9v2.5h-1.3v-8.7h1c0,0.1,0.1,0.4,0.2,0.8
				h0.1c0.4-0.6,1-0.9,1.8-0.9c0.8,0,1.3,0.3,1.8,0.8c0.4,0.5,0.6,1.3,0.6,2.3s-0.2,1.8-0.6,2.3
				C357.3,269.7,356.7,269.9,355.9,269.9z M355.6,264.8c-0.5,0-0.9,0.1-1.1,0.4c-0.2,0.3-0.4,0.8-0.4,1.4v0.2c0,0.7,0.1,1.3,0.3,1.6
				c0.2,0.3,0.6,0.5,1.1,0.5c0.4,0,0.8-0.2,1-0.5c0.2-0.4,0.4-0.9,0.4-1.6c0-0.7-0.1-1.2-0.4-1.5
				C356.4,264.9,356.1,264.8,355.6,264.8z"/>
			<path class="st0" d="M361.1,269.8h-1.3v-8.5h1.3V269.8z"/>
			<path class="st0" d="M362,263.8h1.4l1.2,3.4c0.2,0.5,0.3,0.9,0.4,1.4h0c0-0.2,0.1-0.4,0.2-0.7c0.1-0.3,0.5-1.6,1.4-4.1h1.4
				l-2.6,6.8c-0.5,1.3-1.2,1.9-2.3,1.9c-0.3,0-0.6,0-0.8-0.1v-1c0.2,0,0.4,0.1,0.7,0.1c0.6,0,1.1-0.4,1.3-1.1l0.2-0.6L362,263.8z"/>
			<path class="st0" d="M376.9,269.8h-1.3v-3.7c0-0.5-0.1-0.8-0.3-1c-0.2-0.2-0.4-0.3-0.8-0.3c-0.5,0-0.9,0.2-1.1,0.5
				c-0.2,0.3-0.3,0.9-0.3,1.6v3h-1.3v-6h1l0.2,0.8h0.1c0.2-0.3,0.4-0.5,0.7-0.7c0.3-0.2,0.7-0.2,1-0.2c0.9,0,1.5,0.3,1.8,0.9h0.1
				c0.2-0.3,0.4-0.5,0.8-0.7c0.3-0.2,0.7-0.3,1.1-0.3c0.7,0,1.2,0.2,1.6,0.5c0.3,0.4,0.5,0.9,0.5,1.7v3.9h-1.3v-3.7
				c0-0.5-0.1-0.8-0.3-1c-0.2-0.2-0.4-0.3-0.8-0.3c-0.5,0-0.9,0.2-1.1,0.5c-0.2,0.3-0.3,0.8-0.3,1.4V269.8z"/>
			<path class="st0" d="M386.3,269.8L386,269h0c-0.3,0.4-0.6,0.6-0.9,0.8s-0.7,0.2-1.1,0.2c-0.6,0-1.1-0.2-1.4-0.5
				c-0.3-0.3-0.5-0.8-0.5-1.4c0-0.6,0.2-1.1,0.7-1.4c0.5-0.3,1.2-0.5,2.1-0.5l1,0v-0.3c0-0.4-0.1-0.7-0.3-0.9
				c-0.2-0.2-0.5-0.3-0.8-0.3c-0.3,0-0.6,0-0.9,0.1c-0.3,0.1-0.6,0.2-0.8,0.3l-0.4-0.9c0.3-0.2,0.7-0.3,1.1-0.4
				c0.4-0.1,0.8-0.1,1.1-0.1c0.8,0,1.3,0.2,1.7,0.5c0.4,0.3,0.6,0.9,0.6,1.6v4.1H386.3z M384.3,269c0.5,0,0.8-0.1,1.1-0.4
				s0.4-0.6,0.4-1.1V267l-0.8,0c-0.6,0-1,0.1-1.3,0.3c-0.3,0.2-0.4,0.5-0.4,0.8c0,0.3,0.1,0.5,0.2,0.6
				C383.8,268.9,384,269,384.3,269z"/>
			<path class="st0" d="M392,263.7c0.3,0,0.5,0,0.6,0.1l-0.1,1.2c-0.2,0-0.4-0.1-0.6-0.1c-0.5,0-0.9,0.2-1.2,0.5
				c-0.3,0.3-0.5,0.8-0.5,1.3v3.1H389v-6h1l0.2,1.1h0.1c0.2-0.4,0.5-0.6,0.8-0.9C391.3,263.8,391.6,263.7,392,263.7z"/>
			<path class="st0" d="M395,266.7l0.7-0.9l1.8-1.9h1.5l-2.4,2.6l2.6,3.4h-1.5l-1.9-2.6l-0.7,0.6v2.1h-1.3v-8.5h1.3v4.1L395,266.7
				L395,266.7z"/>
			<path class="st0" d="M402.8,269.9c-0.9,0-1.7-0.3-2.2-0.8c-0.5-0.5-0.8-1.3-0.8-2.3c0-1,0.2-1.8,0.7-2.3s1.2-0.8,2-0.8
				c0.8,0,1.4,0.2,1.9,0.7c0.5,0.5,0.7,1.1,0.7,2v0.7h-4c0,0.6,0.2,1,0.5,1.3c0.3,0.3,0.7,0.5,1.3,0.5c0.4,0,0.7,0,1-0.1
				c0.3-0.1,0.6-0.2,1-0.3v1c-0.3,0.1-0.6,0.3-0.9,0.3C403.5,269.9,403.2,269.9,402.8,269.9z M402.5,264.7c-0.4,0-0.7,0.1-1,0.4
				c-0.2,0.3-0.4,0.6-0.4,1.1h2.7c0-0.5-0.1-0.9-0.4-1.1C403.3,264.8,402.9,264.7,402.5,264.7z"/>
			<path class="st0" d="M408.8,268.9c0.3,0,0.6,0,0.9-0.1v1c-0.1,0.1-0.3,0.1-0.5,0.2c-0.2,0-0.5,0.1-0.7,0.1
				c-1.2,0-1.8-0.6-1.8-1.9v-3.2h-0.8v-0.6l0.9-0.5l0.4-1.3h0.8v1.3h1.7v1H408v3.2c0,0.3,0.1,0.5,0.2,0.7
				C408.4,268.8,408.6,268.9,408.8,268.9z"/>
		</g>
		<g class="st3">
			<path class="st0" d="M349.8,283.4c-0.9,0-1.6-0.3-2.1-0.8c-0.5-0.5-0.7-1.3-0.7-2.3c0-1,0.2-1.8,0.7-2.3c0.5-0.5,1.2-0.8,2.1-0.8
				c0.6,0,1.2,0.1,1.7,0.4l-0.4,1c-0.5-0.2-1-0.3-1.3-0.3c-1,0-1.6,0.7-1.6,2.1c0,0.7,0.1,1.2,0.4,1.5c0.3,0.3,0.6,0.5,1.1,0.5
				c0.6,0,1.1-0.1,1.6-0.4v1.1c-0.2,0.1-0.5,0.2-0.7,0.3C350.5,283.3,350.2,283.4,349.8,283.4z"/>
			<path class="st0" d="M356.7,283.3l-0.3-0.8h0c-0.3,0.4-0.6,0.6-0.9,0.8c-0.3,0.1-0.7,0.2-1.1,0.2c-0.6,0-1.1-0.2-1.4-0.5
				c-0.3-0.3-0.5-0.8-0.5-1.4c0-0.6,0.2-1.1,0.7-1.4c0.5-0.3,1.2-0.5,2.1-0.5l1,0v-0.3c0-0.4-0.1-0.7-0.3-0.9
				c-0.2-0.2-0.5-0.3-0.8-0.3c-0.3,0-0.6,0-0.9,0.1c-0.3,0.1-0.6,0.2-0.8,0.3l-0.4-0.9c0.3-0.2,0.7-0.3,1.1-0.4
				c0.4-0.1,0.8-0.1,1.1-0.1c0.8,0,1.3,0.2,1.7,0.5c0.4,0.3,0.6,0.9,0.6,1.6v4.1H356.7z M354.8,282.4c0.5,0,0.8-0.1,1.1-0.4
				s0.4-0.6,0.4-1.1v-0.5l-0.8,0c-0.6,0-1,0.1-1.3,0.3c-0.3,0.2-0.4,0.5-0.4,0.8c0,0.3,0.1,0.5,0.2,0.6
				C354.2,282.3,354.5,282.4,354.8,282.4z"/>
			<path class="st0" d="M362.5,283.4c-0.8,0-1.4-0.3-1.8-0.8h-0.1c0.1,0.5,0.1,0.8,0.1,0.9v2.5h-1.3v-8.7h1c0,0.1,0.1,0.4,0.2,0.8
				h0.1c0.4-0.6,1-0.9,1.8-0.9c0.8,0,1.3,0.3,1.8,0.8c0.4,0.5,0.6,1.3,0.6,2.3c0,1-0.2,1.8-0.6,2.3
				C363.8,283.1,363.2,283.4,362.5,283.4z M362.1,278.2c-0.5,0-0.9,0.1-1.1,0.4c-0.2,0.3-0.4,0.8-0.4,1.4v0.2c0,0.7,0.1,1.3,0.3,1.6
				c0.2,0.3,0.6,0.5,1.1,0.5c0.4,0,0.8-0.2,1-0.5c0.2-0.4,0.4-0.9,0.4-1.6c0-0.7-0.1-1.2-0.4-1.5C363,278.3,362.6,278.2,362.1,278.2
				z"/>
			<path class="st0" d="M373.3,281.5c0,0.6-0.2,1-0.6,1.4c-0.4,0.3-1,0.5-1.8,0.5c-0.8,0-1.4-0.1-1.9-0.4v-1.1
				c0.7,0.3,1.4,0.5,2,0.5c0.8,0,1.2-0.2,1.2-0.7c0-0.2,0-0.3-0.1-0.4s-0.2-0.2-0.4-0.3c-0.2-0.1-0.5-0.2-0.8-0.4
				c-0.7-0.3-1.2-0.5-1.4-0.8c-0.2-0.3-0.4-0.6-0.4-1c0-0.5,0.2-0.9,0.6-1.2c0.4-0.3,1-0.4,1.7-0.4c0.7,0,1.4,0.1,2,0.4l-0.4,1
				c-0.6-0.3-1.2-0.4-1.6-0.4c-0.7,0-1,0.2-1,0.6c0,0.2,0.1,0.3,0.3,0.5s0.6,0.3,1.2,0.5c0.5,0.2,0.9,0.4,1.1,0.5
				c0.2,0.2,0.4,0.3,0.5,0.6C373.2,281,373.3,281.3,373.3,281.5z"/>
			<path class="st0" d="M377.1,283.4c-0.9,0-1.6-0.3-2.1-0.8c-0.5-0.5-0.7-1.3-0.7-2.3c0-1,0.2-1.8,0.7-2.3c0.5-0.5,1.2-0.8,2.1-0.8
				c0.6,0,1.2,0.1,1.7,0.4l-0.4,1c-0.5-0.2-1-0.3-1.3-0.3c-1,0-1.6,0.7-1.6,2.1c0,0.7,0.1,1.2,0.4,1.5c0.3,0.3,0.6,0.5,1.1,0.5
				c0.6,0,1.1-0.1,1.6-0.4v1.1c-0.2,0.1-0.5,0.2-0.7,0.3C377.8,283.3,377.5,283.4,377.1,283.4z"/>
			<path class="st0" d="M383.3,277.1c0.3,0,0.5,0,0.6,0.1l-0.1,1.2c-0.2,0-0.4-0.1-0.6-0.1c-0.5,0-0.9,0.2-1.2,0.5
				c-0.3,0.3-0.5,0.8-0.5,1.3v3.1h-1.3v-6h1l0.2,1.1h0.1c0.2-0.4,0.5-0.6,0.8-0.9C382.5,277.2,382.9,277.1,383.3,277.1z"/>
			<path class="st0" d="M387.6,283.4c-0.9,0-1.7-0.3-2.2-0.8c-0.5-0.5-0.8-1.3-0.8-2.3c0-1,0.2-1.8,0.7-2.3c0.5-0.6,1.2-0.8,2-0.8
				c0.8,0,1.4,0.2,1.9,0.7c0.5,0.5,0.7,1.1,0.7,2v0.7h-4c0,0.6,0.2,1,0.5,1.3c0.3,0.3,0.7,0.5,1.3,0.5c0.4,0,0.7,0,1-0.1
				c0.3-0.1,0.6-0.2,1-0.3v1c-0.3,0.1-0.6,0.3-0.9,0.3C388.4,283.3,388.1,283.4,387.6,283.4z M387.4,278.1c-0.4,0-0.7,0.1-1,0.4
				c-0.2,0.3-0.4,0.6-0.4,1.1h2.7c0-0.5-0.1-0.9-0.4-1.1C388.1,278.2,387.8,278.1,387.4,278.1z"/>
			<path class="st0" d="M394.1,283.4c-0.9,0-1.7-0.3-2.2-0.8c-0.5-0.5-0.8-1.3-0.8-2.3c0-1,0.2-1.8,0.7-2.3c0.5-0.6,1.2-0.8,2-0.8
				c0.8,0,1.4,0.2,1.9,0.7c0.5,0.5,0.7,1.1,0.7,2v0.7h-4c0,0.6,0.2,1,0.5,1.3c0.3,0.3,0.7,0.5,1.3,0.5c0.4,0,0.7,0,1-0.1
				c0.3-0.1,0.6-0.2,1-0.3v1c-0.3,0.1-0.6,0.3-0.9,0.3C394.8,283.3,394.5,283.4,394.1,283.4z M393.8,278.1c-0.4,0-0.7,0.1-1,0.4
				c-0.2,0.3-0.4,0.6-0.4,1.1h2.7c0-0.5-0.1-0.9-0.4-1.1C394.6,278.2,394.2,278.1,393.8,278.1z"/>
			<path class="st0" d="M403.2,283.3h-1.3v-3.7c0-0.5-0.1-0.8-0.3-1c-0.2-0.2-0.5-0.3-0.9-0.3c-0.5,0-0.9,0.2-1.2,0.5
				c-0.3,0.3-0.4,0.9-0.4,1.6v3h-1.3v-6h1l0.2,0.8h0.1c0.2-0.3,0.4-0.5,0.8-0.7c0.3-0.2,0.7-0.2,1.1-0.2c1.4,0,2.2,0.7,2.2,2.2
				V283.3z"/>
		</g>
	</g>
	<line class="st1" x1="787.5" y1="273.4" x2="814.9" y2="273.4"/>
	<g>
		<polygon class="st4" points="138.7,273.4 125.1,268.4 125.1,278.4 		"/>
		<g>
			<path class="st4" d="M129.7,274.4H118c-0.6,0-1.1-0.4-1.1-1.1s0.4-1.1,1.1-1.1h11.7c0.6,0,1.1,0.4,1.1,1.1
				S130.2,274.4,129.7,274.4z"/>
		</g>
	</g>
	<g>
		<polygon class="st4" points="301.2,273.4 287.6,268.4 287.6,278.4 		"/>
		<g>
			<path class="st4" d="M292.2,274.4h-11.7c-0.6,0-1.1-0.4-1.1-1.1s0.4-1.1,1.1-1.1h11.7c0.6,0,1.1,0.4,1.1,1.1
				S292.7,274.4,292.2,274.4z"/>
		</g>
	</g>
	<g>
		<circle class="st4" cx="60.6" cy="273.4" r="48.4"/>
		<g>
			<g class="st3">
				<path class="st0" d="M36.3,254.9c0,0.7-0.2,1.2-0.7,1.6c-0.5,0.4-1.2,0.6-2,0.6c-0.9,0-1.6-0.1-2.1-0.4v-1.2
					c0.4,0.2,0.7,0.3,1.1,0.4c0.4,0.1,0.8,0.1,1.1,0.1c0.5,0,0.9-0.1,1.1-0.3c0.2-0.2,0.4-0.4,0.4-0.8c0-0.3-0.1-0.5-0.3-0.7
					c-0.2-0.2-0.7-0.4-1.3-0.7c-0.7-0.3-1.2-0.6-1.5-1c-0.3-0.4-0.4-0.8-0.4-1.3c0-0.6,0.2-1.1,0.7-1.5c0.5-0.4,1.1-0.6,1.8-0.6
					c0.7,0,1.5,0.2,2.2,0.5l-0.4,1c-0.7-0.3-1.3-0.4-1.8-0.4c-0.4,0-0.7,0.1-0.9,0.3c-0.2,0.2-0.3,0.4-0.3,0.7c0,0.2,0,0.4,0.1,0.5
					c0.1,0.1,0.2,0.3,0.4,0.4c0.2,0.1,0.5,0.3,1,0.5c0.6,0.2,1,0.5,1.2,0.7c0.3,0.2,0.5,0.4,0.6,0.7
					C36.2,254.3,36.3,254.6,36.3,254.9z"/>
				<path class="st0" d="M37.3,255c0-0.5,0.1-0.9,0.3-1.2c0.2-0.3,0.6-0.7,1.2-1c-0.3-0.4-0.6-0.7-0.7-1c-0.1-0.3-0.2-0.5-0.2-0.8
					c0-0.5,0.2-1,0.6-1.3s0.9-0.5,1.5-0.5c0.6,0,1.1,0.1,1.5,0.4c0.4,0.3,0.5,0.7,0.5,1.2c0,0.4-0.1,0.8-0.4,1.1
					c-0.2,0.3-0.6,0.7-1.2,1l1.8,1.8c0.3-0.4,0.5-0.9,0.7-1.7h1.3c-0.2,1-0.6,1.8-1.2,2.4l1.6,1.5h-1.6l-0.8-0.8
					c-0.4,0.3-0.7,0.5-1.1,0.6c-0.4,0.1-0.9,0.2-1.3,0.2c-0.8,0-1.4-0.2-1.9-0.6C37.5,256.2,37.3,255.7,37.3,255z M39.9,256.1
					c0.6,0,1.2-0.2,1.6-0.6l-2-2c-0.4,0.2-0.6,0.5-0.8,0.7c-0.1,0.2-0.2,0.4-0.2,0.7c0,0.3,0.1,0.6,0.4,0.8
					C39.2,256,39.5,256.1,39.9,256.1z M39.1,251c0,0.2,0.1,0.4,0.2,0.6c0.1,0.2,0.3,0.4,0.5,0.6c0.4-0.2,0.7-0.4,0.8-0.6
					c0.2-0.2,0.2-0.4,0.2-0.7c0-0.2-0.1-0.4-0.2-0.5c-0.2-0.1-0.4-0.2-0.6-0.2c-0.3,0-0.5,0.1-0.7,0.2
					C39.2,250.6,39.1,250.8,39.1,251z"/>
				<path class="st0" d="M50.8,251.7c0,0.8-0.3,1.4-0.8,1.8c-0.5,0.4-1.3,0.6-2.2,0.6H47v2.9h-1.3v-7.7H48c1,0,1.7,0.2,2.2,0.6
					C50.6,250.3,50.8,250.9,50.8,251.7z M47,253.1h0.7c0.6,0,1.1-0.1,1.4-0.3c0.3-0.2,0.5-0.6,0.5-1.1c0-0.4-0.1-0.8-0.4-1
					c-0.3-0.2-0.7-0.3-1.3-0.3H47V253.1z"/>
				<path class="st0" d="M58.3,252.9h2.8v3.9c-0.5,0.2-0.9,0.3-1.3,0.3c-0.4,0.1-0.9,0.1-1.4,0.1c-1.2,0-2.1-0.3-2.7-1
					c-0.6-0.7-0.9-1.7-0.9-2.9c0-1.2,0.4-2.2,1.1-2.9c0.7-0.7,1.7-1,2.9-1c0.8,0,1.6,0.2,2.3,0.5l-0.4,1c-0.6-0.3-1.2-0.4-1.9-0.4
					c-0.8,0-1.5,0.3-1.9,0.8c-0.5,0.5-0.7,1.2-0.7,2.1c0,0.9,0.2,1.7,0.6,2.1c0.4,0.5,1,0.7,1.9,0.7c0.4,0,0.8-0.1,1.3-0.2v-2h-1.6
					V252.9z"/>
				<path class="st0" d="M64.1,257h-1.2v-8.2h1.2V257z"/>
				<path class="st0" d="M71,254.1c0,1-0.2,1.7-0.7,2.2c-0.5,0.5-1.2,0.8-2,0.8c-0.5,0-1-0.1-1.4-0.4c-0.4-0.2-0.7-0.6-1-1.1
					c-0.2-0.5-0.3-1-0.3-1.6c0-0.9,0.2-1.7,0.7-2.2c0.5-0.5,1.2-0.8,2-0.8c0.8,0,1.5,0.3,2,0.8C70.8,252.5,71,253.2,71,254.1z
					 M66.8,254.1c0,1.3,0.5,2,1.5,2c1,0,1.5-0.7,1.5-2c0-1.3-0.5-2-1.5-2c-0.5,0-0.9,0.2-1.1,0.5C66.9,253,66.8,253.5,66.8,254.1z"
					/>
				<path class="st0" d="M75.4,251.1c0.7,0,1.3,0.3,1.7,0.8c0.4,0.5,0.6,1.3,0.6,2.2c0,1-0.2,1.7-0.6,2.2c-0.4,0.5-1,0.8-1.7,0.8
					c-0.7,0-1.3-0.3-1.7-0.8h-0.1l-0.2,0.7h-0.9v-8.2h1.2v1.9c0,0.1,0,0.4,0,0.6c0,0.3,0,0.5,0,0.5h0.1
					C74.1,251.4,74.7,251.1,75.4,251.1z M75.1,252.1c-0.5,0-0.9,0.1-1.1,0.4c-0.2,0.3-0.3,0.8-0.3,1.5v0.1c0,0.7,0.1,1.2,0.3,1.5
					c0.2,0.3,0.6,0.5,1.1,0.5c0.4,0,0.8-0.2,1-0.5c0.2-0.3,0.3-0.8,0.3-1.5C76.5,252.8,76,252.1,75.1,252.1z"/>
				<path class="st0" d="M82.8,257l-0.2-0.8h0c-0.3,0.4-0.6,0.6-0.8,0.7c-0.3,0.1-0.6,0.2-1.1,0.2c-0.6,0-1-0.2-1.3-0.5
					c-0.3-0.3-0.5-0.7-0.5-1.3c0-0.6,0.2-1.1,0.7-1.4c0.4-0.3,1.1-0.5,2-0.5l1,0v-0.3c0-0.4-0.1-0.6-0.3-0.8
					c-0.2-0.2-0.4-0.3-0.8-0.3c-0.3,0-0.6,0-0.9,0.1c-0.3,0.1-0.5,0.2-0.8,0.3l-0.4-0.9c0.3-0.2,0.7-0.3,1-0.4
					c0.4-0.1,0.7-0.1,1.1-0.1c0.7,0,1.3,0.2,1.7,0.5c0.4,0.3,0.6,0.8,0.6,1.5v3.9H82.8z M81,256.2c0.4,0,0.8-0.1,1.1-0.4
					c0.3-0.3,0.4-0.6,0.4-1.1v-0.5l-0.7,0c-0.6,0-1,0.1-1.3,0.3c-0.3,0.2-0.4,0.4-0.4,0.8c0,0.3,0.1,0.5,0.2,0.6
					C80.4,256.1,80.7,256.2,81,256.2z"/>
				<path class="st0" d="M86.7,257h-1.2v-8.2h1.2V257z"/>
			</g>
			<g class="st3">
				<path class="st0" d="M42,262.3v5c0,0.6-0.1,1.1-0.4,1.5c-0.2,0.4-0.6,0.8-1.1,1c-0.5,0.2-1,0.3-1.7,0.3c-1,0-1.7-0.3-2.2-0.8
					c-0.5-0.5-0.8-1.2-0.8-2.1v-5h1.3v4.9c0,0.6,0.1,1.1,0.4,1.4c0.3,0.3,0.7,0.5,1.4,0.5c1.2,0,1.8-0.6,1.8-1.9v-4.9H42z"/>
				<path class="st0" d="M48.4,267.9c0,0.7-0.2,1.2-0.7,1.6c-0.5,0.4-1.2,0.6-2,0.6c-0.9,0-1.6-0.1-2.1-0.4v-1.2
					c0.4,0.2,0.7,0.3,1.1,0.4c0.4,0.1,0.8,0.1,1.1,0.1c0.5,0,0.9-0.1,1.1-0.3c0.2-0.2,0.4-0.4,0.4-0.8c0-0.3-0.1-0.5-0.3-0.7
					c-0.2-0.2-0.7-0.4-1.3-0.7c-0.7-0.3-1.2-0.6-1.5-1c-0.3-0.4-0.4-0.8-0.4-1.3c0-0.6,0.2-1.1,0.7-1.5c0.5-0.4,1.1-0.6,1.8-0.6
					c0.7,0,1.5,0.2,2.2,0.5l-0.4,1c-0.7-0.3-1.3-0.4-1.8-0.4c-0.4,0-0.7,0.1-0.9,0.3c-0.2,0.2-0.3,0.4-0.3,0.7c0,0.2,0,0.4,0.1,0.5
					c0.1,0.1,0.2,0.3,0.4,0.4c0.2,0.1,0.5,0.3,1,0.5c0.6,0.2,1,0.5,1.2,0.7c0.3,0.2,0.5,0.4,0.6,0.7
					C48.4,267.3,48.4,267.6,48.4,267.9z"/>
				<path class="st0" d="M56.2,266.1c0,1.3-0.4,2.2-1.1,2.9c-0.7,0.7-1.7,1-3,1h-2.2v-7.7h2.4c1.2,0,2.2,0.3,2.9,1
					C55.8,264,56.2,264.9,56.2,266.1z M54.8,266.2c0-1.8-0.9-2.8-2.6-2.8h-1.1v5.6h0.9C53.9,269,54.8,268,54.8,266.2z"/>
				<path class="st0" d="M66.7,270h-1.3v-3.5h-3.5v3.5h-1.3v-7.7h1.3v3.1h3.5v-3.1h1.3V270z"/>
				<path class="st0" d="M68.5,262.7c0-0.2,0.1-0.4,0.2-0.5c0.1-0.1,0.3-0.2,0.5-0.2c0.2,0,0.4,0.1,0.5,0.2c0.1,0.1,0.2,0.3,0.2,0.5
					c0,0.2-0.1,0.4-0.2,0.5c-0.1,0.1-0.3,0.2-0.5,0.2c-0.2,0-0.4-0.1-0.5-0.2C68.6,263,68.5,262.9,68.5,262.7z M69.8,270h-1.2v-5.8
					h1.2V270z"/>
				<path class="st0" d="M76.5,264.2v0.7l-1,0.2c0.1,0.1,0.2,0.3,0.2,0.5c0.1,0.2,0.1,0.4,0.1,0.6c0,0.6-0.2,1.1-0.6,1.4
					c-0.4,0.3-1,0.5-1.7,0.5c-0.2,0-0.4,0-0.5,0c-0.3,0.2-0.4,0.4-0.4,0.6c0,0.1,0.1,0.2,0.2,0.3c0.1,0.1,0.4,0.1,0.7,0.1h1
					c0.6,0,1.1,0.1,1.5,0.4c0.3,0.3,0.5,0.7,0.5,1.2c0,0.7-0.3,1.2-0.8,1.5c-0.5,0.4-1.3,0.5-2.4,0.5c-0.8,0-1.4-0.1-1.8-0.4
					c-0.4-0.3-0.6-0.7-0.6-1.2c0-0.4,0.1-0.7,0.3-0.9c0.2-0.2,0.5-0.4,0.9-0.5c-0.2-0.1-0.3-0.2-0.4-0.3c-0.1-0.2-0.2-0.3-0.2-0.5
					c0-0.2,0.1-0.4,0.2-0.6c0.1-0.2,0.3-0.3,0.5-0.4c-0.3-0.1-0.5-0.3-0.7-0.6s-0.3-0.6-0.3-1c0-0.6,0.2-1.1,0.6-1.5
					c0.4-0.3,1-0.5,1.7-0.5c0.2,0,0.3,0,0.5,0c0.2,0,0.3,0,0.4,0.1H76.5z M71.9,270.9c0,0.3,0.1,0.5,0.4,0.6c0.2,0.1,0.6,0.2,1,0.2
					c0.7,0,1.2-0.1,1.5-0.3c0.3-0.2,0.5-0.4,0.5-0.8c0-0.3-0.1-0.4-0.3-0.5c-0.2-0.1-0.5-0.2-1-0.2h-0.9c-0.4,0-0.6,0.1-0.8,0.2
					C72,270.4,71.9,270.6,71.9,270.9z M72.5,266.1c0,0.4,0.1,0.6,0.3,0.8c0.2,0.2,0.5,0.3,0.8,0.3c0.7,0,1.1-0.4,1.1-1.1
					c0-0.4-0.1-0.7-0.3-0.9c-0.2-0.2-0.4-0.3-0.8-0.3c-0.4,0-0.6,0.1-0.8,0.3C72.5,265.4,72.5,265.7,72.5,266.1z"/>
				<path class="st0" d="M82.7,270h-1.2v-3.6c0-0.4-0.1-0.8-0.3-1c-0.2-0.2-0.5-0.3-0.9-0.3c-0.5,0-0.9,0.2-1.1,0.5
					c-0.2,0.3-0.4,0.8-0.4,1.6v2.9h-1.2v-8.2h1.2v2.1c0,0.3,0,0.7-0.1,1.1h0.1c0.2-0.3,0.4-0.5,0.7-0.7c0.3-0.2,0.6-0.2,1-0.2
					c1.4,0,2.1,0.7,2.1,2.1V270z"/>
			</g>
			<g class="st3">
				<path class="st0" d="M34.7,278.7l1.8-3.5h1.4l-2.6,4.7v3h-1.3v-2.9l-2.6-4.7h1.4L34.7,278.7z"/>
				<path class="st0" d="M38.7,275.5c0-0.2,0.1-0.4,0.2-0.5c0.1-0.1,0.3-0.2,0.5-0.2c0.2,0,0.4,0.1,0.5,0.2c0.1,0.1,0.2,0.3,0.2,0.5
					c0,0.2-0.1,0.4-0.2,0.5c-0.1,0.1-0.3,0.2-0.5,0.2c-0.2,0-0.4-0.1-0.5-0.2C38.8,275.9,38.7,275.7,38.7,275.5z M40.1,282.9h-1.2
					v-5.8h1.2V282.9z"/>
				<path class="st0" d="M44.4,283c-0.9,0-1.6-0.3-2.1-0.8c-0.5-0.5-0.8-1.3-0.8-2.2c0-0.9,0.2-1.7,0.7-2.2c0.5-0.5,1.1-0.8,2-0.8
					c0.8,0,1.4,0.2,1.8,0.7c0.4,0.5,0.7,1.1,0.7,1.9v0.7h-3.9c0,0.6,0.2,1,0.5,1.3c0.3,0.3,0.7,0.5,1.2,0.5c0.3,0,0.7,0,1-0.1
					c0.3-0.1,0.6-0.2,1-0.3v1c-0.3,0.1-0.6,0.2-0.9,0.3C45.1,283,44.8,283,44.4,283z M44.1,277.9c-0.4,0-0.7,0.1-0.9,0.4
					c-0.2,0.2-0.4,0.6-0.4,1.1h2.6c0-0.5-0.1-0.8-0.3-1.1C44.8,278,44.5,277.9,44.1,277.9z"/>
				<path class="st0" d="M49.3,282.9H48v-8.2h1.2V282.9z"/>
				<path class="st0" d="M53,283c-0.7,0-1.3-0.3-1.7-0.8c-0.4-0.5-0.6-1.3-0.6-2.2c0-1,0.2-1.7,0.6-2.2c0.4-0.5,1-0.8,1.7-0.8
					c0.8,0,1.3,0.3,1.7,0.8h0.1c-0.1-0.4-0.1-0.7-0.1-1v-2.1H56v8.2h-1l-0.2-0.8h-0.1C54.3,282.7,53.8,283,53,283z M53.3,282
					c0.5,0,0.9-0.1,1.1-0.4s0.4-0.7,0.4-1.4V280c0-0.7-0.1-1.3-0.4-1.6c-0.2-0.3-0.6-0.5-1.1-0.5c-0.4,0-0.8,0.2-1,0.5
					c-0.2,0.4-0.4,0.9-0.4,1.5c0,0.6,0.1,1.1,0.3,1.5C52.5,281.8,52.9,282,53.3,282z"/>
				<path class="st0" d="M60.7,275.2H63c1.1,0,1.8,0.2,2.3,0.5c0.5,0.3,0.7,0.8,0.7,1.5c0,0.4-0.1,0.8-0.3,1.1
					c-0.2,0.3-0.6,0.5-1,0.6v0.1c0.5,0.1,0.9,0.3,1.2,0.6c0.3,0.3,0.4,0.7,0.4,1.2c0,0.7-0.2,1.2-0.7,1.6c-0.5,0.4-1.2,0.6-2,0.6
					h-2.8V275.2z M61.9,278.4h1.2c0.5,0,0.9-0.1,1.2-0.2c0.2-0.2,0.4-0.4,0.4-0.8c0-0.4-0.1-0.6-0.4-0.8c-0.3-0.2-0.7-0.2-1.2-0.2
					h-1.1V278.4z M61.9,279.4v2.4h1.3c0.5,0,0.9-0.1,1.2-0.3c0.3-0.2,0.4-0.5,0.4-1c0-0.4-0.1-0.7-0.4-0.9c-0.3-0.2-0.7-0.3-1.2-0.3
					H61.9z"/>
				<path class="st0" d="M72.8,280c0,1-0.2,1.7-0.7,2.2c-0.5,0.5-1.2,0.8-2,0.8c-0.5,0-1-0.1-1.4-0.4c-0.4-0.2-0.7-0.6-1-1.1
					c-0.2-0.5-0.3-1-0.3-1.6c0-0.9,0.2-1.7,0.7-2.2c0.5-0.5,1.2-0.8,2-0.8c0.8,0,1.5,0.3,2,0.8C72.6,278.3,72.8,279,72.8,280z
					 M68.6,280c0,1.3,0.5,2,1.5,2c1,0,1.5-0.7,1.5-2c0-1.3-0.5-2-1.5-2c-0.5,0-0.9,0.2-1.1,0.5C68.7,278.8,68.6,279.3,68.6,280z"/>
				<path class="st0" d="M79.4,282.9h-1.2v-3.6c0-0.4-0.1-0.8-0.3-1c-0.2-0.2-0.5-0.3-0.9-0.3c-0.5,0-0.9,0.2-1.1,0.5
					c-0.2,0.3-0.4,0.8-0.4,1.6v2.9h-1.2v-5.8h1l0.2,0.8h0.1c0.2-0.3,0.4-0.5,0.7-0.6c0.3-0.2,0.7-0.2,1.1-0.2c1.4,0,2.1,0.7,2.1,2.1
					V282.9z"/>
				<path class="st0" d="M83,283c-0.7,0-1.3-0.3-1.7-0.8c-0.4-0.5-0.6-1.3-0.6-2.2c0-1,0.2-1.7,0.6-2.2c0.4-0.5,1-0.8,1.7-0.8
					c0.8,0,1.3,0.3,1.7,0.8h0.1c-0.1-0.4-0.1-0.7-0.1-1v-2.1H86v8.2h-1l-0.2-0.8h-0.1C84.4,282.7,83.8,283,83,283z M83.4,282
					c0.5,0,0.9-0.1,1.1-0.4c0.2-0.3,0.4-0.7,0.4-1.4V280c0-0.7-0.1-1.3-0.4-1.6c-0.2-0.3-0.6-0.5-1.1-0.5c-0.4,0-0.8,0.2-1,0.5
					c-0.2,0.4-0.4,0.9-0.4,1.5c0,0.6,0.1,1.1,0.3,1.5C82.6,281.8,82.9,282,83.4,282z"/>
			</g>
			<g class="st3">
				<path class="st0" d="M47.1,295.9v-7.7h1.3v7.7H47.1z"/>
				<path class="st0" d="M55.4,295.9h-1.2v-3.6c0-0.4-0.1-0.8-0.3-1c-0.2-0.2-0.5-0.3-0.9-0.3c-0.5,0-0.9,0.2-1.1,0.5
					c-0.2,0.3-0.4,0.8-0.4,1.6v2.9h-1.2v-5.8h1l0.2,0.8h0.1c0.2-0.3,0.4-0.5,0.7-0.6c0.3-0.2,0.7-0.2,1.1-0.2c1.4,0,2.1,0.7,2.1,2.1
					V295.9z"/>
				<path class="st0" d="M59.1,296c-0.7,0-1.3-0.3-1.7-0.8c-0.4-0.5-0.6-1.3-0.6-2.2c0-1,0.2-1.7,0.6-2.2s1-0.8,1.7-0.8
					c0.8,0,1.3,0.3,1.7,0.8h0.1c-0.1-0.4-0.1-0.7-0.1-1v-2.1h1.2v8.2h-1l-0.2-0.8h-0.1C60.4,295.7,59.9,296,59.1,296z M59.4,295
					c0.5,0,0.9-0.1,1.1-0.4c0.2-0.3,0.4-0.7,0.4-1.4V293c0-0.7-0.1-1.3-0.4-1.6c-0.2-0.3-0.6-0.5-1.1-0.5c-0.4,0-0.8,0.2-1,0.5
					c-0.2,0.4-0.4,0.9-0.4,1.5c0,0.6,0.1,1.1,0.3,1.5C58.6,294.8,59,295,59.4,295z"/>
				<path class="st0" d="M66.4,296c-0.9,0-1.6-0.3-2.1-0.8c-0.5-0.5-0.8-1.3-0.8-2.2c0-0.9,0.2-1.7,0.7-2.2c0.5-0.5,1.1-0.8,2-0.8
					c0.8,0,1.4,0.2,1.8,0.7c0.4,0.5,0.7,1.1,0.7,1.9v0.7h-3.9c0,0.6,0.2,1,0.5,1.3c0.3,0.3,0.7,0.5,1.2,0.5c0.3,0,0.7,0,1-0.1
					c0.3-0.1,0.6-0.2,1-0.3v1c-0.3,0.1-0.6,0.2-0.9,0.3C67.1,295.9,66.8,296,66.4,296z M66.2,290.9c-0.4,0-0.7,0.1-0.9,0.4
					c-0.2,0.2-0.4,0.6-0.4,1.1h2.6c0-0.5-0.1-0.8-0.3-1.1S66.6,290.9,66.2,290.9z"/>
				<path class="st0" d="M71.3,292.9l-2-2.8h1.4l1.3,2l1.3-2h1.4l-2,2.8l2.1,3h-1.4l-1.4-2.2l-1.4,2.2h-1.4L71.3,292.9z"/>
			</g>
		</g>
	</g>
	<path class="st5" d="M966,251.5H835.8c-12.1,0-21.8,9.9-21.8,21.8l0,0c0,12.1,9.9,21.8,21.8,21.8H966c12.1,0,21.8-9.9,21.8-21.8
		l0,0C987.9,261.2,978.1,251.5,966,251.5z"/>
	<g>
		<g class="st3">
			<path class="st6" d="M840,270h-1.6l-3.9-6.3h0l0,0.4c0.1,0.7,0.1,1.3,0.1,1.9v4.1h-1.2v-8h1.6l3.9,6.3h0c0-0.1,0-0.4,0-0.9
				c0-0.5,0-0.9,0-1.2V262h1.2V270z"/>
			<path class="st6" d="M844.6,270.1c-0.9,0-1.7-0.3-2.2-0.8s-0.8-1.3-0.8-2.3c0-1,0.2-1.8,0.7-2.3c0.5-0.6,1.2-0.8,2-0.8
				c0.8,0,1.4,0.2,1.9,0.7c0.5,0.5,0.7,1.1,0.7,2v0.7h-4c0,0.6,0.2,1,0.5,1.3c0.3,0.3,0.7,0.5,1.3,0.5c0.4,0,0.7,0,1-0.1
				s0.6-0.2,1-0.3v1c-0.3,0.1-0.6,0.3-0.9,0.3C845.4,270,845,270.1,844.6,270.1z M844.4,264.8c-0.4,0-0.7,0.1-1,0.4
				s-0.4,0.6-0.4,1.1h2.7c0-0.5-0.1-0.9-0.4-1.1C845.1,264.9,844.8,264.8,844.4,264.8z"/>
			<path class="st6" d="M853.4,270l-0.8-2.8c-0.1-0.3-0.3-1-0.5-2.1h0c-0.2,1-0.4,1.7-0.5,2.1l-0.8,2.8h-1.4l-1.7-6h1.3l0.8,3
				c0.2,0.7,0.3,1.4,0.4,1.9h0c0-0.3,0.1-0.6,0.2-0.9c0.1-0.3,0.1-0.6,0.2-0.8l0.9-3.2h1.4l0.9,3.2c0.1,0.2,0.1,0.5,0.2,0.8
				c0.1,0.4,0.1,0.7,0.1,0.9h0c0.1-0.4,0.2-1.1,0.4-1.9l0.8-3h1.3l-1.7,6H853.4z"/>
			<path class="st6" d="M865.5,270l-0.8-2.2h-3l-0.8,2.2h-1.4l3-8h1.4l3,8H865.5z M864.4,266.6l-0.7-2.2c-0.1-0.1-0.1-0.4-0.2-0.7
				c-0.1-0.3-0.2-0.5-0.2-0.7c-0.1,0.4-0.2,0.9-0.4,1.5l-0.7,2.1H864.4z"/>
			<path class="st6" d="M872.9,263.9v0.7l-1,0.2c0.1,0.1,0.2,0.3,0.2,0.5c0.1,0.2,0.1,0.4,0.1,0.6c0,0.6-0.2,1.1-0.6,1.5
				s-1,0.5-1.8,0.5c-0.2,0-0.4,0-0.5,0c-0.3,0.2-0.4,0.4-0.4,0.6c0,0.1,0.1,0.2,0.2,0.3c0.1,0.1,0.4,0.1,0.7,0.1h1.1
				c0.7,0,1.2,0.1,1.5,0.4c0.3,0.3,0.5,0.7,0.5,1.2c0,0.7-0.3,1.2-0.8,1.6c-0.6,0.4-1.4,0.6-2.4,0.6c-0.8,0-1.4-0.1-1.9-0.4
				c-0.4-0.3-0.6-0.7-0.6-1.2c0-0.4,0.1-0.7,0.4-0.9c0.2-0.3,0.6-0.4,1-0.5c-0.2-0.1-0.3-0.2-0.4-0.4c-0.1-0.2-0.2-0.3-0.2-0.5
				c0-0.2,0.1-0.4,0.2-0.6c0.1-0.2,0.3-0.3,0.6-0.5c-0.3-0.1-0.6-0.4-0.8-0.7c-0.2-0.3-0.3-0.7-0.3-1.1c0-0.7,0.2-1.2,0.6-1.5
				c0.4-0.4,1-0.5,1.8-0.5c0.2,0,0.4,0,0.5,0c0.2,0,0.3,0,0.4,0.1H872.9z M868.2,270.9c0,0.3,0.1,0.5,0.4,0.6c0.2,0.1,0.6,0.2,1,0.2
				c0.7,0,1.2-0.1,1.6-0.3c0.3-0.2,0.5-0.5,0.5-0.8c0-0.3-0.1-0.4-0.3-0.6c-0.2-0.1-0.5-0.2-1-0.2h-1c-0.4,0-0.7,0.1-0.9,0.3
				S868.2,270.6,868.2,270.9z M868.7,265.9c0,0.4,0.1,0.7,0.3,0.9s0.5,0.3,0.8,0.3c0.7,0,1.1-0.4,1.1-1.2c0-0.4-0.1-0.7-0.3-0.9
				c-0.2-0.2-0.5-0.3-0.8-0.3c-0.4,0-0.7,0.1-0.8,0.3C868.8,265.2,868.7,265.5,868.7,265.9z"/>
			<path class="st6" d="M876.7,270.1c-0.9,0-1.7-0.3-2.2-0.8c-0.5-0.5-0.8-1.3-0.8-2.3c0-1,0.2-1.8,0.7-2.3c0.5-0.6,1.2-0.8,2-0.8
				c0.8,0,1.4,0.2,1.9,0.7c0.5,0.5,0.7,1.1,0.7,2v0.7h-4c0,0.6,0.2,1,0.5,1.3c0.3,0.3,0.7,0.5,1.3,0.5c0.4,0,0.7,0,1-0.1
				s0.6-0.2,1-0.3v1c-0.3,0.1-0.6,0.3-0.9,0.3C877.4,270,877.1,270.1,876.7,270.1z M876.4,264.8c-0.4,0-0.7,0.1-1,0.4
				c-0.2,0.3-0.4,0.6-0.4,1.1h2.7c0-0.5-0.1-0.9-0.4-1.1C877.1,264.9,876.8,264.8,876.4,264.8z"/>
			<path class="st6" d="M888.4,270l-0.8-2.2h-3l-0.8,2.2h-1.4l3-8h1.4l3,8H888.4z M887.3,266.6l-0.7-2.2c-0.1-0.1-0.1-0.4-0.2-0.7
				c-0.1-0.3-0.2-0.5-0.2-0.7c-0.1,0.4-0.2,0.9-0.4,1.5l-0.7,2.1H887.3z"/>
			<path class="st6" d="M892,270h-1.3v-8.5h1.3V270z"/>
			<path class="st6" d="M896.9,270.1c-0.8,0-1.4-0.3-1.8-0.8H895c0.1,0.5,0.1,0.8,0.1,0.9v2.5h-1.3v-8.7h1c0,0.1,0.1,0.4,0.2,0.8
				h0.1c0.4-0.6,1-0.9,1.8-0.9c0.8,0,1.3,0.3,1.8,0.8c0.4,0.5,0.6,1.3,0.6,2.3c0,1-0.2,1.8-0.6,2.3
				C898.2,269.8,897.6,270.1,896.9,270.1z M896.6,264.9c-0.5,0-0.9,0.1-1.1,0.4c-0.2,0.3-0.4,0.8-0.4,1.4v0.2c0,0.7,0.1,1.3,0.3,1.6
				c0.2,0.3,0.6,0.5,1.1,0.5c0.4,0,0.8-0.2,1-0.5c0.2-0.4,0.4-0.9,0.4-1.6c0-0.7-0.1-1.2-0.4-1.5C897.4,265,897,264.9,896.6,264.9z"
				/>
			<path class="st6" d="M906.1,270h-1.3v-3.7c0-0.5-0.1-0.8-0.3-1c-0.2-0.2-0.5-0.3-0.9-0.3c-0.5,0-0.9,0.2-1.2,0.5
				c-0.3,0.3-0.4,0.9-0.4,1.6v3h-1.3v-8.5h1.3v2.2c0,0.3,0,0.7-0.1,1.1h0.1c0.2-0.3,0.4-0.5,0.7-0.7c0.3-0.2,0.7-0.2,1.1-0.2
				c1.5,0,2.2,0.7,2.2,2.2V270z"/>
			<path class="st6" d="M911.6,270l-0.3-0.8h0c-0.3,0.4-0.6,0.6-0.9,0.8c-0.3,0.1-0.7,0.2-1.1,0.2c-0.6,0-1.1-0.2-1.4-0.5
				c-0.3-0.3-0.5-0.8-0.5-1.4c0-0.6,0.2-1.1,0.7-1.4c0.5-0.3,1.2-0.5,2.1-0.5l1,0v-0.3c0-0.4-0.1-0.7-0.3-0.9
				c-0.2-0.2-0.5-0.3-0.8-0.3c-0.3,0-0.6,0-0.9,0.1c-0.3,0.1-0.6,0.2-0.8,0.3l-0.4-0.9c0.3-0.2,0.7-0.3,1.1-0.4
				c0.4-0.1,0.8-0.1,1.1-0.1c0.8,0,1.3,0.2,1.7,0.5c0.4,0.3,0.6,0.9,0.6,1.6v4.1H911.6z M909.7,269.1c0.5,0,0.8-0.1,1.1-0.4
				s0.4-0.6,0.4-1.1v-0.5l-0.8,0c-0.6,0-1,0.1-1.3,0.3c-0.3,0.2-0.4,0.5-0.4,0.8c0,0.3,0.1,0.5,0.2,0.6
				C909.2,269,909.4,269.1,909.7,269.1z"/>
			<path class="st6" d="M923.6,262v5.2c0,0.6-0.1,1.1-0.4,1.5c-0.3,0.4-0.6,0.8-1.1,1c-0.5,0.2-1,0.4-1.7,0.4c-1,0-1.8-0.3-2.3-0.8
				c-0.5-0.5-0.8-1.2-0.8-2.2V262h1.3v5c0,0.7,0.2,1.1,0.5,1.5c0.3,0.3,0.8,0.5,1.4,0.5c1.2,0,1.8-0.6,1.8-1.9v-5H923.6z"/>
			<path class="st6" d="M930.2,267.8c0,0.7-0.3,1.3-0.8,1.7c-0.5,0.4-1.2,0.6-2.1,0.6s-1.6-0.1-2.2-0.4v-1.2
				c0.4,0.2,0.7,0.3,1.2,0.4c0.4,0.1,0.8,0.1,1.1,0.1c0.5,0,0.9-0.1,1.1-0.3c0.2-0.2,0.4-0.5,0.4-0.8c0-0.3-0.1-0.6-0.3-0.8
				c-0.2-0.2-0.7-0.5-1.4-0.7c-0.7-0.3-1.2-0.6-1.5-1c-0.3-0.4-0.4-0.8-0.4-1.4c0-0.7,0.2-1.2,0.7-1.6c0.5-0.4,1.1-0.6,1.9-0.6
				c0.8,0,1.5,0.2,2.3,0.5l-0.4,1.1c-0.7-0.3-1.3-0.4-1.9-0.4c-0.4,0-0.7,0.1-1,0.3c-0.2,0.2-0.3,0.4-0.3,0.7c0,0.2,0,0.4,0.1,0.5
				c0.1,0.1,0.2,0.3,0.4,0.4c0.2,0.1,0.6,0.3,1.1,0.5c0.6,0.2,1,0.5,1.3,0.7c0.3,0.2,0.5,0.4,0.6,0.7
				C930.2,267.1,930.2,267.4,930.2,267.8z"/>
			<path class="st6" d="M938.3,265.9c0,1.3-0.4,2.3-1.1,3c-0.7,0.7-1.8,1-3.2,1h-2.2v-8h2.5c1.3,0,2.3,0.3,3,1
				C937.9,263.7,938.3,264.7,938.3,265.9z M936.9,265.9c0-1.9-0.9-2.9-2.7-2.9h-1.1v5.8h0.9C935.9,268.9,936.9,267.9,936.9,265.9z"
				/>
			<path class="st6" d="M949.1,270h-1.3v-3.6h-3.7v3.6h-1.3v-8h1.3v3.3h3.7V262h1.3V270z"/>
			<path class="st6" d="M951,262.3c0-0.2,0.1-0.4,0.2-0.5c0.1-0.1,0.3-0.2,0.5-0.2c0.2,0,0.4,0.1,0.5,0.2c0.1,0.1,0.2,0.3,0.2,0.5
				c0,0.2-0.1,0.4-0.2,0.5c-0.1,0.1-0.3,0.2-0.5,0.2c-0.2,0-0.4-0.1-0.5-0.2C951.1,262.7,951,262.5,951,262.3z M952.4,270h-1.3v-6
				h1.3V270z"/>
			<path class="st6" d="M959.3,263.9v0.7l-1,0.2c0.1,0.1,0.2,0.3,0.2,0.5c0.1,0.2,0.1,0.4,0.1,0.6c0,0.6-0.2,1.1-0.6,1.5
				c-0.4,0.4-1,0.5-1.8,0.5c-0.2,0-0.4,0-0.5,0c-0.3,0.2-0.4,0.4-0.4,0.6c0,0.1,0.1,0.2,0.2,0.3c0.1,0.1,0.4,0.1,0.7,0.1h1.1
				c0.7,0,1.2,0.1,1.5,0.4c0.3,0.3,0.5,0.7,0.5,1.2c0,0.7-0.3,1.2-0.8,1.6c-0.6,0.4-1.4,0.6-2.4,0.6c-0.8,0-1.4-0.1-1.9-0.4
				c-0.4-0.3-0.6-0.7-0.6-1.2c0-0.4,0.1-0.7,0.4-0.9c0.2-0.3,0.6-0.4,1-0.5c-0.2-0.1-0.3-0.2-0.4-0.4c-0.1-0.2-0.2-0.3-0.2-0.5
				c0-0.2,0.1-0.4,0.2-0.6c0.1-0.2,0.3-0.3,0.6-0.5c-0.3-0.1-0.6-0.4-0.8-0.7c-0.2-0.3-0.3-0.7-0.3-1.1c0-0.7,0.2-1.2,0.6-1.5
				c0.4-0.4,1-0.5,1.8-0.5c0.2,0,0.4,0,0.5,0c0.2,0,0.3,0,0.4,0.1H959.3z M954.6,270.9c0,0.3,0.1,0.5,0.4,0.6c0.2,0.1,0.6,0.2,1,0.2
				c0.7,0,1.2-0.1,1.6-0.3c0.3-0.2,0.5-0.5,0.5-0.8c0-0.3-0.1-0.4-0.3-0.6c-0.2-0.1-0.5-0.2-1-0.2h-1c-0.4,0-0.7,0.1-0.9,0.3
				S954.6,270.6,954.6,270.9z M955.1,265.9c0,0.4,0.1,0.7,0.3,0.9c0.2,0.2,0.5,0.3,0.8,0.3c0.7,0,1.1-0.4,1.1-1.2
				c0-0.4-0.1-0.7-0.3-0.9c-0.2-0.2-0.5-0.3-0.8-0.3c-0.4,0-0.7,0.1-0.8,0.3C955.2,265.2,955.1,265.5,955.1,265.9z"/>
			<path class="st6" d="M965.7,270h-1.3v-3.7c0-0.5-0.1-0.8-0.3-1c-0.2-0.2-0.5-0.3-0.9-0.3c-0.5,0-0.9,0.2-1.2,0.5
				c-0.3,0.3-0.4,0.9-0.4,1.6v3h-1.3v-8.5h1.3v2.2c0,0.3,0,0.7-0.1,1.1h0.1c0.2-0.3,0.4-0.5,0.7-0.7c0.3-0.2,0.7-0.2,1.1-0.2
				c1.5,0,2.2,0.7,2.2,2.2V270z"/>
		</g>
		<g class="st3">
			<path class="st6" d="M830.4,278.8l1.9-3.6h1.4L831,280v3.1h-1.3v-3l-2.6-4.9h1.4L830.4,278.8z"/>
			<path class="st6" d="M834.5,275.5c0-0.2,0.1-0.4,0.2-0.5c0.1-0.1,0.3-0.2,0.5-0.2c0.2,0,0.4,0.1,0.5,0.2c0.1,0.1,0.2,0.3,0.2,0.5
				c0,0.2-0.1,0.4-0.2,0.5c-0.1,0.1-0.3,0.2-0.5,0.2c-0.2,0-0.4-0.1-0.5-0.2C834.6,275.9,834.5,275.7,834.5,275.5z M835.9,283.1
				h-1.3v-6h1.3V283.1z"/>
			<path class="st6" d="M840.3,283.2c-0.9,0-1.7-0.3-2.2-0.8c-0.5-0.5-0.8-1.3-0.8-2.3c0-1,0.2-1.8,0.7-2.3c0.5-0.6,1.2-0.8,2-0.8
				c0.8,0,1.4,0.2,1.9,0.7c0.5,0.5,0.7,1.1,0.7,2v0.7h-4c0,0.6,0.2,1,0.5,1.3c0.3,0.3,0.7,0.5,1.3,0.5c0.4,0,0.7,0,1-0.1
				c0.3-0.1,0.6-0.2,1-0.3v1c-0.3,0.1-0.6,0.3-0.9,0.3C841.1,283.2,840.7,283.2,840.3,283.2z M840.1,277.9c-0.4,0-0.7,0.1-1,0.4
				c-0.2,0.3-0.4,0.6-0.4,1.1h2.7c0-0.5-0.1-0.9-0.4-1.1C840.8,278.1,840.5,277.9,840.1,277.9z"/>
			<path class="st6" d="M845.4,283.1h-1.3v-8.5h1.3V283.1z"/>
			<path class="st6" d="M849.3,283.2c-0.8,0-1.3-0.3-1.8-0.8c-0.4-0.5-0.6-1.3-0.6-2.3c0-1,0.2-1.8,0.6-2.3c0.4-0.5,1-0.8,1.8-0.8
				c0.8,0,1.4,0.3,1.8,0.9h0.1c-0.1-0.4-0.1-0.8-0.1-1v-2.2h1.3v8.5h-1l-0.2-0.8h-0.1C850.7,282.9,850.1,283.2,849.3,283.2z
				 M849.6,282.2c0.5,0,0.9-0.1,1.1-0.4c0.2-0.3,0.4-0.8,0.4-1.4v-0.2c0-0.8-0.1-1.3-0.4-1.6s-0.6-0.5-1.2-0.5c-0.5,0-0.8,0.2-1,0.5
				c-0.2,0.4-0.4,0.9-0.4,1.6c0,0.7,0.1,1.2,0.4,1.5C848.8,282,849.1,282.2,849.6,282.2z"/>
			<path class="st6" d="M860.6,276.1c-0.7,0-1.3,0.3-1.8,0.8c-0.4,0.5-0.6,1.3-0.6,2.2c0,1,0.2,1.7,0.6,2.2c0.4,0.5,1,0.8,1.8,0.8
				c0.3,0,0.7,0,1-0.1c0.3-0.1,0.6-0.2,1-0.3v1.1c-0.6,0.2-1.3,0.4-2.1,0.4c-1.2,0-2.1-0.4-2.7-1.1c-0.6-0.7-0.9-1.7-0.9-3
				c0-0.8,0.2-1.6,0.5-2.2c0.3-0.6,0.7-1.1,1.3-1.4c0.6-0.3,1.2-0.5,2-0.5c0.8,0,1.6,0.2,2.3,0.5l-0.5,1.1c-0.3-0.1-0.6-0.2-0.9-0.3
				S860.9,276.1,860.6,276.1z"/>
			<path class="st6" d="M869.5,280.1c0,1-0.3,1.8-0.8,2.3c-0.5,0.6-1.2,0.8-2.1,0.8c-0.6,0-1.1-0.1-1.5-0.4c-0.4-0.3-0.8-0.6-1-1.1
				c-0.2-0.5-0.3-1-0.3-1.7c0-1,0.3-1.7,0.8-2.3c0.5-0.5,1.2-0.8,2.1-0.8c0.9,0,1.6,0.3,2.1,0.8
				C869.2,278.4,869.5,279.1,869.5,280.1z M865.1,280.1c0,1.4,0.5,2.1,1.5,2.1c1,0,1.5-0.7,1.5-2.1c0-1.4-0.5-2.1-1.5-2.1
				c-0.5,0-0.9,0.2-1.2,0.5C865.2,278.9,865.1,279.4,865.1,280.1z"/>
			<path class="st6" d="M874,277c0.3,0,0.5,0,0.6,0.1l-0.1,1.2c-0.2,0-0.4-0.1-0.6-0.1c-0.5,0-0.9,0.2-1.2,0.5
				c-0.3,0.3-0.5,0.8-0.5,1.3v3.1H871v-6h1l0.2,1.1h0.1c0.2-0.4,0.5-0.6,0.8-0.9C873.3,277.1,873.7,277,874,277z"/>
			<path class="st6" d="M878.8,283.2c-0.8,0-1.4-0.3-1.8-0.8H877c0.1,0.5,0.1,0.8,0.1,0.9v2.5h-1.3v-8.7h1c0,0.1,0.1,0.4,0.2,0.8
				h0.1c0.4-0.6,1-0.9,1.8-0.9c0.8,0,1.3,0.3,1.8,0.8c0.4,0.5,0.6,1.3,0.6,2.3c0,1-0.2,1.8-0.6,2.3
				C880.2,282.9,879.6,283.2,878.8,283.2z M878.5,278c-0.5,0-0.9,0.1-1.1,0.4c-0.2,0.3-0.4,0.8-0.4,1.4v0.2c0,0.7,0.1,1.3,0.3,1.6
				c0.2,0.3,0.6,0.5,1.1,0.5c0.4,0,0.8-0.2,1-0.5c0.2-0.4,0.4-0.9,0.4-1.6c0-0.7-0.1-1.2-0.4-1.5C879.3,278.2,879,278,878.5,278z"/>
			<path class="st6" d="M888.1,280.1c0,1-0.3,1.8-0.8,2.3c-0.5,0.6-1.2,0.8-2.1,0.8c-0.6,0-1.1-0.1-1.5-0.4c-0.4-0.3-0.8-0.6-1-1.1
				c-0.2-0.5-0.3-1-0.3-1.7c0-1,0.2-1.7,0.8-2.3c0.5-0.5,1.2-0.8,2.1-0.8c0.9,0,1.6,0.3,2.1,0.8
				C887.8,278.4,888.1,279.1,888.1,280.1z M883.7,280.1c0,1.4,0.5,2.1,1.5,2.1c1,0,1.5-0.7,1.5-2.1c0-1.4-0.5-2.1-1.5-2.1
				c-0.5,0-0.9,0.2-1.2,0.5C883.8,278.9,883.7,279.4,883.7,280.1z"/>
			<path class="st6" d="M892.6,277c0.3,0,0.5,0,0.6,0.1l-0.1,1.2c-0.2,0-0.4-0.1-0.6-0.1c-0.5,0-0.9,0.2-1.2,0.5
				c-0.3,0.3-0.5,0.8-0.5,1.3v3.1h-1.3v-6h1l0.2,1.1h0.1c0.2-0.4,0.5-0.6,0.8-0.9C891.9,277.1,892.2,277,892.6,277z"/>
			<path class="st6" d="M898.1,283.1l-0.3-0.8h0c-0.3,0.4-0.6,0.6-0.9,0.8s-0.7,0.2-1.1,0.2c-0.6,0-1.1-0.2-1.4-0.5
				c-0.3-0.3-0.5-0.8-0.5-1.4c0-0.6,0.2-1.1,0.7-1.4c0.5-0.3,1.2-0.5,2.1-0.5l1,0v-0.3c0-0.4-0.1-0.7-0.3-0.9
				c-0.2-0.2-0.5-0.3-0.8-0.3c-0.3,0-0.6,0-0.9,0.1c-0.3,0.1-0.6,0.2-0.8,0.3l-0.4-0.9c0.3-0.2,0.7-0.3,1.1-0.4
				c0.4-0.1,0.8-0.1,1.1-0.1c0.8,0,1.3,0.2,1.7,0.5c0.4,0.3,0.6,0.9,0.6,1.6v4.1H898.1z M896.2,282.2c0.5,0,0.8-0.1,1.1-0.4
				s0.4-0.6,0.4-1.1v-0.5l-0.8,0c-0.6,0-1,0.1-1.3,0.3c-0.3,0.2-0.4,0.5-0.4,0.8c0,0.3,0.1,0.5,0.2,0.6
				C895.7,282.1,895.9,282.2,896.2,282.2z"/>
			<path class="st6" d="M903.1,282.2c0.3,0,0.6,0,0.9-0.1v1c-0.1,0.1-0.3,0.1-0.5,0.2c-0.2,0-0.5,0.1-0.7,0.1
				c-1.2,0-1.8-0.6-1.8-1.9V278h-0.8v-0.6l0.9-0.5l0.4-1.3h0.8v1.3h1.7v1h-1.7v3.2c0,0.3,0.1,0.5,0.2,0.7
				C902.6,282.1,902.8,282.2,903.1,282.2z"/>
			<path class="st6" d="M907.8,283.2c-0.9,0-1.7-0.3-2.2-0.8c-0.5-0.5-0.8-1.3-0.8-2.3c0-1,0.2-1.8,0.7-2.3c0.5-0.6,1.2-0.8,2-0.8
				c0.8,0,1.4,0.2,1.9,0.7c0.5,0.5,0.7,1.1,0.7,2v0.7h-4c0,0.6,0.2,1,0.5,1.3c0.3,0.3,0.7,0.5,1.3,0.5c0.4,0,0.7,0,1-0.1
				s0.6-0.2,1-0.3v1c-0.3,0.1-0.6,0.3-0.9,0.3C908.6,283.2,908.2,283.2,907.8,283.2z M907.6,277.9c-0.4,0-0.7,0.1-1,0.4
				c-0.2,0.3-0.4,0.6-0.4,1.1h2.7c0-0.5-0.1-0.9-0.4-1.1C908.3,278.1,908,277.9,907.6,277.9z"/>
			<path class="st6" d="M914.7,275.1h2.4c1.1,0,1.9,0.2,2.4,0.5c0.5,0.3,0.7,0.8,0.7,1.5c0,0.5-0.1,0.9-0.4,1.2
				c-0.2,0.3-0.6,0.5-1,0.6v0.1c0.6,0.1,1,0.3,1.2,0.6s0.4,0.7,0.4,1.3c0,0.7-0.3,1.3-0.8,1.7c-0.5,0.4-1.2,0.6-2.1,0.6h-2.9V275.1z
				 M916,278.4h1.3c0.5,0,0.9-0.1,1.2-0.3c0.3-0.2,0.4-0.5,0.4-0.9c0-0.4-0.1-0.6-0.4-0.8s-0.7-0.3-1.3-0.3H916V278.4z M916,279.5
				v2.5h1.4c0.5,0,1-0.1,1.2-0.3c0.3-0.2,0.4-0.5,0.4-1c0-0.4-0.1-0.7-0.4-0.9c-0.3-0.2-0.7-0.3-1.3-0.3H916z"/>
			<path class="st6" d="M927.2,280.1c0,1-0.3,1.8-0.8,2.3c-0.5,0.6-1.2,0.8-2.1,0.8c-0.6,0-1.1-0.1-1.5-0.4c-0.4-0.3-0.8-0.6-1-1.1
				c-0.2-0.5-0.3-1-0.3-1.7c0-1,0.3-1.7,0.8-2.3c0.5-0.5,1.2-0.8,2.1-0.8c0.9,0,1.6,0.3,2.1,0.8C927,278.4,927.2,279.1,927.2,280.1z
				 M922.9,280.1c0,1.4,0.5,2.1,1.5,2.1c1,0,1.5-0.7,1.5-2.1c0-1.4-0.5-2.1-1.5-2.1c-0.5,0-0.9,0.2-1.2,0.5
				C923,278.9,922.9,279.4,922.9,280.1z"/>
			<path class="st6" d="M934,283.1h-1.3v-3.7c0-0.5-0.1-0.8-0.3-1c-0.2-0.2-0.5-0.3-0.9-0.3c-0.5,0-0.9,0.2-1.2,0.5
				c-0.3,0.3-0.4,0.9-0.4,1.6v3h-1.3v-6h1l0.2,0.8h0.1c0.2-0.3,0.4-0.5,0.8-0.7c0.3-0.2,0.7-0.2,1.1-0.2c1.4,0,2.2,0.7,2.2,2.2
				V283.1z"/>
			<path class="st6" d="M937.8,283.2c-0.8,0-1.3-0.3-1.8-0.8c-0.4-0.5-0.6-1.3-0.6-2.3c0-1,0.2-1.8,0.6-2.3c0.4-0.5,1-0.8,1.8-0.8
				c0.8,0,1.4,0.3,1.8,0.9h0.1c-0.1-0.4-0.1-0.8-0.1-1v-2.2h1.3v8.5h-1l-0.2-0.8h-0.1C939.2,282.9,938.6,283.2,937.8,283.2z
				 M938.2,282.2c0.5,0,0.9-0.1,1.1-0.4c0.2-0.3,0.4-0.8,0.4-1.4v-0.2c0-0.8-0.1-1.3-0.4-1.6s-0.6-0.5-1.2-0.5c-0.5,0-0.8,0.2-1,0.5
				c-0.2,0.4-0.4,0.9-0.4,1.6c0,0.7,0.1,1.2,0.4,1.5S937.7,282.2,938.2,282.2z"/>
			<path class="st6" d="M945.8,283.1v-8h1.3v8H945.8z"/>
			<path class="st6" d="M954.3,283.1h-1.3v-3.7c0-0.5-0.1-0.8-0.3-1c-0.2-0.2-0.5-0.3-0.9-0.3c-0.5,0-0.9,0.2-1.2,0.5
				c-0.3,0.3-0.4,0.9-0.4,1.6v3H949v-6h1l0.2,0.8h0.1c0.2-0.3,0.4-0.5,0.8-0.7c0.3-0.2,0.7-0.2,1.1-0.2c1.4,0,2.2,0.7,2.2,2.2V283.1
				z"/>
			<path class="st6" d="M958.2,283.2c-0.8,0-1.3-0.3-1.8-0.8c-0.4-0.5-0.6-1.3-0.6-2.3c0-1,0.2-1.8,0.6-2.3c0.4-0.5,1-0.8,1.8-0.8
				c0.8,0,1.4,0.3,1.8,0.9h0.1c-0.1-0.4-0.1-0.8-0.1-1v-2.2h1.3v8.5h-1l-0.2-0.8H960C959.6,282.9,959,283.2,958.2,283.2z
				 M958.5,282.2c0.5,0,0.9-0.1,1.1-0.4c0.2-0.3,0.4-0.8,0.4-1.4v-0.2c0-0.8-0.1-1.3-0.4-1.6s-0.6-0.5-1.2-0.5c-0.5,0-0.8,0.2-1,0.5
				c-0.2,0.4-0.4,0.9-0.4,1.6c0,0.7,0.1,1.2,0.4,1.5S958,282.2,958.5,282.2z"/>
			<path class="st6" d="M965.7,283.2c-0.9,0-1.7-0.3-2.2-0.8c-0.5-0.5-0.8-1.3-0.8-2.3c0-1,0.2-1.8,0.7-2.3c0.5-0.6,1.2-0.8,2-0.8
				c0.8,0,1.4,0.2,1.9,0.7c0.5,0.5,0.7,1.1,0.7,2v0.7h-4c0,0.6,0.2,1,0.5,1.3c0.3,0.3,0.7,0.5,1.3,0.5c0.4,0,0.7,0,1-0.1
				c0.3-0.1,0.6-0.2,1-0.3v1c-0.3,0.1-0.6,0.3-0.9,0.3C966.5,283.2,966.1,283.2,965.7,283.2z M965.5,277.9c-0.4,0-0.7,0.1-1,0.4
				c-0.2,0.3-0.4,0.6-0.4,1.1h2.7c0-0.5-0.1-0.9-0.4-1.1C966.2,278.1,965.9,277.9,965.5,277.9z"/>
			<path class="st6" d="M970.8,280l-2-2.9h1.5l1.4,2.1l1.4-2.1h1.4l-2,2.9l2.1,3.1h-1.4l-1.5-2.3l-1.5,2.3h-1.4L970.8,280z"/>
		</g>
	</g>
	<g>
		
			<linearGradient id="SVGID_2_" gradientUnits="userSpaceOnUse" x1="-8894.2051" y1="278.6421" x2="-9051.1338" y2="278.6421" gradientTransform="matrix(-1 0 0 -1 -8262.3359 552)">
			<stop  offset="0" style="stop-color:#A5D421"/>
			<stop  offset="1" style="stop-color:#00B850"/>
		</linearGradient>
		<path class="st7" d="M653.7,295.2H767c12.1,0,21.8-9.9,21.8-21.8l0,0c0-12.1-9.9-21.8-21.8-21.8H653.7c-12.1,0-21.8,9.9-21.8,21.8
			l0,0C631.9,285.4,641.7,295.2,653.7,295.2z"/>
		<g>
			<g class="st3">
				<path class="st0" d="M669.5,267.7c0,0.7-0.3,1.3-0.8,1.7c-0.5,0.4-1.2,0.6-2.1,0.6s-1.6-0.1-2.2-0.4v-1.2
					c0.4,0.2,0.7,0.3,1.2,0.4c0.4,0.1,0.8,0.1,1.1,0.1c0.5,0,0.9-0.1,1.1-0.3s0.4-0.5,0.4-0.8c0-0.3-0.1-0.6-0.3-0.8
					c-0.2-0.2-0.7-0.5-1.4-0.7c-0.7-0.3-1.2-0.6-1.5-1c-0.3-0.4-0.4-0.8-0.4-1.4c0-0.7,0.2-1.2,0.7-1.6c0.5-0.4,1.1-0.6,1.9-0.6
					c0.8,0,1.5,0.2,2.3,0.5l-0.4,1.1c-0.7-0.3-1.3-0.4-1.9-0.4c-0.4,0-0.7,0.1-1,0.3c-0.2,0.2-0.3,0.4-0.3,0.7c0,0.2,0,0.4,0.1,0.5
					c0.1,0.1,0.2,0.3,0.4,0.4c0.2,0.1,0.6,0.3,1.1,0.5c0.6,0.2,1,0.5,1.3,0.7c0.3,0.2,0.5,0.4,0.6,0.7
					C669.4,267,669.5,267.3,669.5,267.7z"/>
				<path class="st0" d="M673.5,270c-0.9,0-1.7-0.3-2.2-0.8c-0.5-0.5-0.8-1.3-0.8-2.3c0-1,0.2-1.8,0.7-2.3c0.5-0.6,1.2-0.8,2-0.8
					c0.8,0,1.4,0.2,1.9,0.7c0.5,0.5,0.7,1.1,0.7,2v0.7h-4c0,0.6,0.2,1,0.5,1.3c0.3,0.3,0.7,0.5,1.3,0.5c0.4,0,0.7,0,1-0.1
					c0.3-0.1,0.6-0.2,1-0.3v1c-0.3,0.1-0.6,0.3-0.9,0.3C674.3,269.9,673.9,270,673.5,270z M673.3,264.7c-0.4,0-0.7,0.1-1,0.4
					c-0.2,0.3-0.4,0.6-0.4,1.1h2.7c0-0.5-0.1-0.9-0.4-1.1C674,264.8,673.7,264.7,673.3,264.7z"/>
				<path class="st0" d="M678.6,269.8h-1.3v-8.5h1.3V269.8z"/>
				<path class="st0" d="M683.1,270c-0.9,0-1.7-0.3-2.2-0.8c-0.5-0.5-0.8-1.3-0.8-2.3c0-1,0.2-1.8,0.7-2.3c0.5-0.6,1.2-0.8,2-0.8
					c0.8,0,1.4,0.2,1.9,0.7c0.5,0.5,0.7,1.1,0.7,2v0.7h-4c0,0.6,0.2,1,0.5,1.3c0.3,0.3,0.7,0.5,1.3,0.5c0.4,0,0.7,0,1-0.1
					c0.3-0.1,0.6-0.2,1-0.3v1c-0.3,0.1-0.6,0.3-0.9,0.3C683.8,269.9,683.5,270,683.1,270z M682.8,264.7c-0.4,0-0.7,0.1-1,0.4
					c-0.2,0.3-0.4,0.6-0.4,1.1h2.7c0-0.5-0.1-0.9-0.4-1.1C683.6,264.8,683.2,264.7,682.8,264.7z"/>
				<path class="st0" d="M689.3,270c-0.9,0-1.6-0.3-2.1-0.8c-0.5-0.5-0.7-1.3-0.7-2.3c0-1,0.2-1.8,0.7-2.3c0.5-0.5,1.2-0.8,2.1-0.8
					c0.6,0,1.2,0.1,1.7,0.4l-0.4,1c-0.5-0.2-1-0.3-1.3-0.3c-1,0-1.6,0.7-1.6,2.1c0,0.7,0.1,1.2,0.4,1.5c0.3,0.3,0.6,0.5,1.1,0.5
					c0.6,0,1.1-0.1,1.6-0.4v1.1c-0.2,0.1-0.5,0.2-0.7,0.3C690,269.9,689.7,270,689.3,270z"/>
				<path class="st0" d="M694.6,268.9c0.3,0,0.6,0,0.9-0.1v1c-0.1,0.1-0.3,0.1-0.5,0.2c-0.2,0-0.5,0.1-0.7,0.1
					c-1.2,0-1.8-0.6-1.8-1.9v-3.2h-0.8v-0.6l0.9-0.5l0.4-1.3h0.8v1.3h1.7v1h-1.7v3.2c0,0.3,0.1,0.5,0.2,0.7
					C694.2,268.8,694.4,268.9,694.6,268.9z"/>
				<path class="st0" d="M703,269.8h-1.3v-5.1c0-0.6,0-1.1,0-1.5c-0.1,0.1-0.2,0.2-0.3,0.3c-0.1,0.1-0.5,0.4-1.2,1l-0.6-0.8l2.3-1.8
					h1.1V269.8z"/>
				<path class="st0" d="M711,269.8h-5.4v-1l2.1-2.1c0.6-0.6,1-1.1,1.2-1.3s0.3-0.5,0.4-0.7c0.1-0.2,0.1-0.5,0.1-0.7
					c0-0.4-0.1-0.6-0.3-0.8c-0.2-0.2-0.5-0.3-0.9-0.3c-0.3,0-0.6,0.1-0.9,0.2c-0.3,0.1-0.6,0.3-1,0.6l-0.7-0.8
					c0.4-0.4,0.9-0.6,1.3-0.8c0.4-0.2,0.9-0.2,1.3-0.2c0.7,0,1.3,0.2,1.8,0.6c0.4,0.4,0.7,0.9,0.7,1.6c0,0.4-0.1,0.7-0.2,1
					c-0.1,0.3-0.3,0.7-0.6,1c-0.3,0.3-0.7,0.8-1.3,1.4l-1.4,1.3v0.1h3.8V269.8z"/>
				<path class="st0" d="M717.4,265.9c0,1.4-0.2,2.4-0.7,3.1c-0.4,0.7-1.1,1-2,1c-0.9,0-1.6-0.3-2-1s-0.7-1.7-0.7-3.1
					c0-1.4,0.2-2.4,0.7-3.1c0.4-0.7,1.1-1,2-1c0.9,0,1.6,0.3,2,1C717.2,263.5,717.4,264.5,717.4,265.9z M713.3,265.9
					c0,1.1,0.1,1.9,0.3,2.3c0.2,0.5,0.6,0.7,1.1,0.7c0.5,0,0.8-0.2,1.1-0.7c0.2-0.5,0.3-1.2,0.3-2.3c0-1.1-0.1-1.8-0.3-2.3
					c-0.2-0.5-0.6-0.7-1.1-0.7c-0.5,0-0.8,0.2-1.1,0.7C713.4,264,713.3,264.8,713.3,265.9z"/>
				<path class="st0" d="M724.8,263.7c0.8,0,1.3,0.3,1.8,0.8c0.4,0.5,0.6,1.3,0.6,2.3c0,1-0.2,1.8-0.6,2.3c-0.4,0.6-1,0.8-1.8,0.8
					c-0.8,0-1.4-0.3-1.8-0.8h-0.1l-0.2,0.7h-1v-8.5h1.3v2c0,0.1,0,0.4,0,0.7c0,0.3,0,0.5,0,0.6h0.1C723.4,264,724,263.7,724.8,263.7
					z M724.4,264.8c-0.5,0-0.9,0.2-1.1,0.5c-0.2,0.3-0.3,0.8-0.4,1.5v0.1c0,0.7,0.1,1.3,0.3,1.6c0.2,0.3,0.6,0.5,1.1,0.5
					c0.5,0,0.8-0.2,1-0.5c0.2-0.4,0.4-0.9,0.4-1.6C725.8,265.4,725.4,264.8,724.4,264.8z"/>
				<path class="st0" d="M734,266.8c0,1-0.3,1.8-0.8,2.3c-0.5,0.6-1.2,0.8-2.1,0.8c-0.6,0-1.1-0.1-1.5-0.4c-0.4-0.3-0.8-0.6-1-1.1
					c-0.2-0.5-0.3-1-0.3-1.7c0-1,0.2-1.7,0.8-2.3c0.5-0.5,1.2-0.8,2.1-0.8c0.9,0,1.6,0.3,2.1,0.8C733.7,265.1,734,265.9,734,266.8z
					 M729.6,266.8c0,1.4,0.5,2.1,1.5,2.1c1,0,1.5-0.7,1.5-2.1c0-1.4-0.5-2.1-1.5-2.1c-0.5,0-0.9,0.2-1.2,0.5
					C729.7,265.6,729.6,266.2,729.6,266.8z"/>
				<path class="st0" d="M740.7,269.8h-1.3v-3.7c0-0.5-0.1-0.8-0.3-1c-0.2-0.2-0.5-0.3-0.9-0.3c-0.5,0-0.9,0.2-1.2,0.5
					s-0.4,0.9-0.4,1.6v3h-1.3v-6h1l0.2,0.8h0.1c0.2-0.3,0.4-0.5,0.8-0.7c0.3-0.2,0.7-0.2,1.1-0.2c1.4,0,2.2,0.7,2.2,2.2V269.8z"/>
				<path class="st0" d="M744.6,270c-0.8,0-1.3-0.3-1.8-0.8c-0.4-0.5-0.6-1.3-0.6-2.3c0-1,0.2-1.8,0.6-2.3c0.4-0.5,1-0.8,1.8-0.8
					c0.8,0,1.4,0.3,1.8,0.9h0.1c-0.1-0.4-0.1-0.8-0.1-1v-2.2h1.3v8.5h-1l-0.2-0.8h-0.1C745.9,269.7,745.3,270,744.6,270z
					 M744.9,268.9c0.5,0,0.9-0.1,1.1-0.4c0.2-0.3,0.4-0.8,0.4-1.4v-0.2c0-0.8-0.1-1.3-0.4-1.6s-0.6-0.5-1.2-0.5
					c-0.5,0-0.8,0.2-1,0.5c-0.2,0.4-0.4,0.9-0.4,1.6c0,0.7,0.1,1.2,0.4,1.5S744.4,268.9,744.9,268.9z"/>
				<path class="st0" d="M753.5,268.1c0,0.6-0.2,1-0.6,1.4c-0.4,0.3-1,0.5-1.8,0.5c-0.8,0-1.4-0.1-1.9-0.4v-1.1
					c0.7,0.3,1.4,0.5,2,0.5c0.8,0,1.2-0.2,1.2-0.7c0-0.2,0-0.3-0.1-0.4c-0.1-0.1-0.2-0.2-0.4-0.3c-0.2-0.1-0.5-0.2-0.8-0.4
					c-0.7-0.3-1.2-0.5-1.4-0.8c-0.2-0.3-0.4-0.6-0.4-1c0-0.5,0.2-0.9,0.6-1.2c0.4-0.3,1-0.4,1.7-0.4c0.7,0,1.4,0.1,2,0.4l-0.4,1
					c-0.6-0.3-1.2-0.4-1.6-0.4c-0.7,0-1,0.2-1,0.6c0,0.2,0.1,0.3,0.3,0.5c0.2,0.1,0.6,0.3,1.2,0.5c0.5,0.2,0.9,0.4,1.1,0.5
					c0.2,0.2,0.4,0.3,0.5,0.6C753.5,267.6,753.5,267.8,753.5,268.1z"/>
			</g>
			<g class="st3">
				<path class="st0" d="M659,283.3l-0.8-2.8c-0.1-0.3-0.3-1-0.5-2.1h0c-0.2,1-0.4,1.7-0.5,2.1l-0.8,2.8h-1.4l-1.7-6h1.3l0.8,3
					c0.2,0.7,0.3,1.4,0.4,1.9h0c0-0.3,0.1-0.6,0.2-0.9c0.1-0.3,0.1-0.6,0.2-0.8l0.9-3.2h1.4l0.9,3.2c0.1,0.2,0.1,0.5,0.2,0.8
					c0.1,0.4,0.1,0.7,0.1,0.9h0c0.1-0.4,0.2-1.1,0.4-1.9l0.8-3h1.3l-1.7,6H659z"/>
				<path class="st0" d="M665.8,283.4c-0.9,0-1.7-0.3-2.2-0.8c-0.5-0.5-0.8-1.3-0.8-2.3c0-1,0.2-1.8,0.7-2.3c0.5-0.6,1.2-0.8,2-0.8
					c0.8,0,1.4,0.2,1.9,0.7c0.5,0.5,0.7,1.1,0.7,2v0.7h-4c0,0.6,0.2,1,0.5,1.3c0.3,0.3,0.7,0.5,1.3,0.5c0.4,0,0.7,0,1-0.1
					c0.3-0.1,0.6-0.2,1-0.3v1c-0.3,0.1-0.6,0.3-0.9,0.3C666.6,283.3,666.2,283.4,665.8,283.4z M665.6,278.1c-0.4,0-0.7,0.1-1,0.4
					c-0.2,0.3-0.4,0.6-0.4,1.1h2.7c0-0.5-0.1-0.9-0.4-1.1C666.3,278.2,666,278.1,665.6,278.1z"/>
				<path class="st0" d="M669.5,275.6c0-0.2,0.1-0.4,0.2-0.5c0.1-0.1,0.3-0.2,0.5-0.2c0.2,0,0.4,0.1,0.5,0.2
					c0.1,0.1,0.2,0.3,0.2,0.5c0,0.2-0.1,0.4-0.2,0.5c-0.1,0.1-0.3,0.2-0.5,0.2c-0.2,0-0.4-0.1-0.5-0.2
					C669.6,276,669.5,275.9,669.5,275.6z M670.9,283.3h-1.3v-6h1.3V283.3z"/>
				<path class="st0" d="M677.8,277.2v0.7l-1,0.2c0.1,0.1,0.2,0.3,0.2,0.5c0.1,0.2,0.1,0.4,0.1,0.6c0,0.6-0.2,1.1-0.6,1.5
					c-0.4,0.4-1,0.5-1.8,0.5c-0.2,0-0.4,0-0.5,0c-0.3,0.2-0.4,0.4-0.4,0.6c0,0.1,0.1,0.2,0.2,0.3c0.1,0.1,0.4,0.1,0.7,0.1h1.1
					c0.7,0,1.2,0.1,1.5,0.4c0.3,0.3,0.5,0.7,0.5,1.2c0,0.7-0.3,1.2-0.8,1.6c-0.6,0.4-1.4,0.6-2.4,0.6c-0.8,0-1.4-0.1-1.9-0.4
					c-0.4-0.3-0.6-0.7-0.6-1.2c0-0.4,0.1-0.7,0.4-0.9c0.2-0.3,0.6-0.4,1-0.5c-0.2-0.1-0.3-0.2-0.4-0.4c-0.1-0.2-0.2-0.3-0.2-0.5
					c0-0.2,0.1-0.4,0.2-0.6c0.1-0.2,0.3-0.3,0.6-0.5c-0.3-0.1-0.6-0.4-0.8-0.7c-0.2-0.3-0.3-0.7-0.3-1.1c0-0.7,0.2-1.2,0.6-1.5
					c0.4-0.4,1-0.5,1.8-0.5c0.2,0,0.4,0,0.5,0c0.2,0,0.3,0,0.4,0.1H677.8z M673.1,284.2c0,0.3,0.1,0.5,0.4,0.6
					c0.2,0.1,0.6,0.2,1,0.2c0.7,0,1.2-0.1,1.6-0.3c0.3-0.2,0.5-0.5,0.5-0.8c0-0.3-0.1-0.4-0.3-0.6c-0.2-0.1-0.5-0.2-1-0.2h-1
					c-0.4,0-0.7,0.1-0.9,0.3C673.2,283.7,673.1,283.9,673.1,284.2z M673.6,279.2c0,0.4,0.1,0.7,0.3,0.9c0.2,0.2,0.5,0.3,0.8,0.3
					c0.7,0,1.1-0.4,1.1-1.2c0-0.4-0.1-0.7-0.3-0.9c-0.2-0.2-0.5-0.3-0.8-0.3c-0.4,0-0.7,0.1-0.8,0.3
					C673.7,278.5,673.6,278.8,673.6,279.2z"/>
				<path class="st0" d="M684.2,283.3h-1.3v-3.7c0-0.5-0.1-0.8-0.3-1c-0.2-0.2-0.5-0.3-0.9-0.3c-0.5,0-0.9,0.2-1.2,0.5
					c-0.3,0.3-0.4,0.9-0.4,1.6v3h-1.3v-8.5h1.3v2.2c0,0.3,0,0.7-0.1,1.1h0.1c0.2-0.3,0.4-0.5,0.7-0.7c0.3-0.2,0.7-0.2,1.1-0.2
					c1.5,0,2.2,0.7,2.2,2.2V283.3z"/>
				<path class="st0" d="M688.2,282.3c0.3,0,0.6,0,0.9-0.1v1c-0.1,0.1-0.3,0.1-0.5,0.2c-0.2,0-0.5,0.1-0.7,0.1
					c-1.2,0-1.8-0.6-1.8-1.9v-3.2h-0.8v-0.6l0.9-0.5l0.4-1.3h0.8v1.3h1.7v1h-1.7v3.2c0,0.3,0.1,0.5,0.2,0.7
					C687.8,282.3,688,282.3,688.2,282.3z"/>
				<path class="st0" d="M693,283.4c-0.9,0-1.7-0.3-2.2-0.8c-0.5-0.5-0.8-1.3-0.8-2.3c0-1,0.2-1.8,0.7-2.3c0.5-0.6,1.2-0.8,2-0.8
					c0.8,0,1.4,0.2,1.9,0.7c0.5,0.5,0.7,1.1,0.7,2v0.7h-4c0,0.6,0.2,1,0.5,1.3c0.3,0.3,0.7,0.5,1.3,0.5c0.4,0,0.7,0,1-0.1
					c0.3-0.1,0.6-0.2,1-0.3v1c-0.3,0.1-0.6,0.3-0.9,0.3C693.8,283.3,693.4,283.4,693,283.4z M692.8,278.1c-0.4,0-0.7,0.1-1,0.4
					c-0.2,0.3-0.4,0.6-0.4,1.1h2.7c0-0.5-0.1-0.9-0.4-1.1C693.5,278.2,693.2,278.1,692.8,278.1z"/>
				<path class="st0" d="M698.8,283.4c-0.8,0-1.3-0.3-1.8-0.8c-0.4-0.5-0.6-1.3-0.6-2.3c0-1,0.2-1.8,0.6-2.3c0.4-0.5,1-0.8,1.8-0.8
					c0.8,0,1.4,0.3,1.8,0.9h0.1c-0.1-0.4-0.1-0.8-0.1-1v-2.2h1.3v8.5h-1l-0.2-0.8h-0.1C700.2,283.1,699.6,283.4,698.8,283.4z
					 M699.2,282.3c0.5,0,0.9-0.1,1.1-0.4c0.2-0.3,0.4-0.8,0.4-1.4v-0.2c0-0.8-0.1-1.3-0.4-1.6c-0.2-0.3-0.6-0.5-1.2-0.5
					c-0.5,0-0.8,0.2-1,0.5c-0.2,0.4-0.4,0.9-0.4,1.6c0,0.7,0.1,1.2,0.4,1.5C698.4,282.2,698.7,282.3,699.2,282.3z"/>
				<path class="st0" d="M709.7,277.1c0.8,0,1.3,0.3,1.8,0.8c0.4,0.5,0.6,1.3,0.6,2.3c0,1-0.2,1.8-0.6,2.3c-0.4,0.6-1,0.8-1.8,0.8
					c-0.8,0-1.4-0.3-1.8-0.8h-0.1l-0.2,0.7h-1v-8.5h1.3v2c0,0.1,0,0.4,0,0.7c0,0.3,0,0.5,0,0.6h0.1
					C708.3,277.4,708.9,277.1,709.7,277.1z M709.4,278.2c-0.5,0-0.9,0.2-1.1,0.5c-0.2,0.3-0.3,0.8-0.4,1.5v0.1
					c0,0.7,0.1,1.3,0.3,1.6c0.2,0.3,0.6,0.5,1.1,0.5c0.5,0,0.8-0.2,1-0.5c0.2-0.4,0.4-0.9,0.4-1.6
					C710.8,278.9,710.3,278.2,709.4,278.2z"/>
				<path class="st0" d="M712.7,277.2h1.4l1.2,3.4c0.2,0.5,0.3,0.9,0.4,1.4h0c0-0.2,0.1-0.4,0.2-0.7c0.1-0.3,0.5-1.6,1.4-4.1h1.4
					l-2.6,6.8c-0.5,1.3-1.2,1.9-2.3,1.9c-0.3,0-0.6,0-0.8-0.1v-1c0.2,0,0.4,0.1,0.7,0.1c0.6,0,1.1-0.4,1.3-1.1l0.2-0.6L712.7,277.2z
					"/>
				<path class="st0" d="M728.9,283.3h-1.3v-3.6h-3.7v3.6h-1.3v-8h1.3v3.3h3.7v-3.3h1.3V283.3z"/>
				<path class="st0" d="M730.3,280.8v-1.1h2.8v1.1H730.3z"/>
				<path class="st0" d="M735.9,283.3h-1.3v-8h4.5v1.1h-3.2v2.5h3v1.1h-3V283.3z"/>
				<path class="st0" d="M744.2,283.3l-0.3-0.8h0c-0.3,0.4-0.6,0.6-0.9,0.8s-0.7,0.2-1.1,0.2c-0.6,0-1.1-0.2-1.4-0.5
					c-0.3-0.3-0.5-0.8-0.5-1.4c0-0.6,0.2-1.1,0.7-1.4c0.5-0.3,1.2-0.5,2.1-0.5l1,0v-0.3c0-0.4-0.1-0.7-0.3-0.9
					c-0.2-0.2-0.5-0.3-0.8-0.3c-0.3,0-0.6,0-0.9,0.1c-0.3,0.1-0.6,0.2-0.8,0.3l-0.4-0.9c0.3-0.2,0.7-0.3,1.1-0.4
					c0.4-0.1,0.8-0.1,1.1-0.1c0.8,0,1.3,0.2,1.7,0.5c0.4,0.3,0.6,0.9,0.6,1.6v4.1H744.2z M742.3,282.4c0.5,0,0.8-0.1,1.1-0.4
					s0.4-0.6,0.4-1.1v-0.5l-0.8,0c-0.6,0-1,0.1-1.3,0.3c-0.3,0.2-0.4,0.5-0.4,0.8c0,0.3,0.1,0.5,0.2,0.6
					C741.7,282.3,741.9,282.4,742.3,282.4z"/>
				<path class="st0" d="M749.3,283.4c-0.9,0-1.6-0.3-2.1-0.8c-0.5-0.5-0.7-1.3-0.7-2.3c0-1,0.2-1.8,0.7-2.3
					c0.5-0.5,1.2-0.8,2.1-0.8c0.6,0,1.2,0.1,1.7,0.4l-0.4,1c-0.5-0.2-1-0.3-1.3-0.3c-1,0-1.6,0.7-1.6,2.1c0,0.7,0.1,1.2,0.4,1.5
					c0.3,0.3,0.6,0.5,1.1,0.5c0.6,0,1.1-0.1,1.6-0.4v1.1c-0.2,0.1-0.5,0.2-0.7,0.3C750,283.3,749.7,283.4,749.3,283.4z"/>
				<path class="st0" d="M754.6,282.3c0.3,0,0.6,0,0.9-0.1v1c-0.1,0.1-0.3,0.1-0.5,0.2c-0.2,0-0.5,0.1-0.7,0.1
					c-1.2,0-1.8-0.6-1.8-1.9v-3.2h-0.8v-0.6l0.9-0.5l0.4-1.3h0.8v1.3h1.7v1h-1.7v3.2c0,0.3,0.1,0.5,0.2,0.7
					C754.2,282.3,754.4,282.3,754.6,282.3z"/>
				<path class="st0" d="M762.1,280.2c0,1-0.3,1.8-0.8,2.3c-0.5,0.6-1.2,0.8-2.1,0.8c-0.6,0-1.1-0.1-1.5-0.4c-0.4-0.3-0.8-0.6-1-1.1
					c-0.2-0.5-0.3-1-0.3-1.7c0-1,0.2-1.7,0.8-2.3c0.5-0.5,1.2-0.8,2.1-0.8c0.9,0,1.6,0.3,2.1,0.8
					C761.9,278.5,762.1,279.3,762.1,280.2z M757.7,280.2c0,1.4,0.5,2.1,1.5,2.1c1,0,1.5-0.7,1.5-2.1c0-1.4-0.5-2.1-1.5-2.1
					c-0.5,0-0.9,0.2-1.2,0.5C757.9,279.1,757.7,279.6,757.7,280.2z"/>
				<path class="st0" d="M766.6,277.1c0.3,0,0.5,0,0.6,0.1l-0.1,1.2c-0.2,0-0.4-0.1-0.6-0.1c-0.5,0-0.9,0.2-1.2,0.5
					c-0.3,0.3-0.5,0.8-0.5,1.3v3.1h-1.3v-6h1l0.2,1.1h0.1c0.2-0.4,0.5-0.6,0.8-0.9C765.9,277.2,766.3,277.1,766.6,277.1z"/>
			</g>
			<g class="st3">
				<path class="st0" d="M771.3,283.3H770v-6.8h-2.3v-1.1h6v1.1h-2.3V283.3z"/>
				<path class="st0" d="M778.3,283.3l-2.3-6.7h0c0.1,1,0.1,1.9,0.1,2.8v3.9h-1.2v-8h1.8l2.2,6.3h0l2.3-6.3h1.8v8h-1.3v-3.9
					c0-0.4,0-0.9,0-1.5c0-0.6,0-1,0.1-1.2h0l-2.4,6.6H778.3z"/>
			</g>
		</g>
	</g>
	
		<linearGradient id="SVGID_3_" gradientUnits="userSpaceOnUse" x1="606.8801" y1="278.6421" x2="469.2283" y2="278.6421" gradientTransform="matrix(1 0 0 -1 0 552)">
		<stop  offset="0" style="stop-color:#5ABAF9"/>
		<stop  offset="1" style="stop-color:#2E4C99"/>
	</linearGradient>
	<path class="st8" d="M491.1,295.2h94c12.1,0,21.8-9.9,21.8-21.8l0,0c0-12.1-9.9-21.8-21.8-21.8h-94c-12.1,0-21.8,9.9-21.8,21.8l0,0
		C469.2,285.4,478.9,295.2,491.1,295.2z"/>
	<g>
		<g class="st3">
			<path class="st0" d="M496.9,266.7v3.2h-1.3v-8h2.2c1,0,1.8,0.2,2.3,0.6c0.5,0.4,0.7,1,0.7,1.7c0,1-0.5,1.7-1.5,2.1l2.2,3.5h-1.5
				l-1.9-3.2H496.9z M496.9,265.6h0.9c0.6,0,1-0.1,1.3-0.3c0.3-0.2,0.4-0.6,0.4-1c0-0.5-0.1-0.8-0.4-1s-0.7-0.3-1.3-0.3h-0.9V265.6z
				"/>
			<path class="st0" d="M505.2,269.9c-0.9,0-1.7-0.3-2.2-0.8s-0.8-1.3-0.8-2.3c0-1,0.2-1.8,0.7-2.3s1.2-0.8,2-0.8
				c0.8,0,1.4,0.2,1.9,0.7c0.5,0.5,0.7,1.1,0.7,2v0.7h-4c0,0.6,0.2,1,0.5,1.3c0.3,0.3,0.7,0.5,1.3,0.5c0.4,0,0.7,0,1-0.1
				c0.3-0.1,0.6-0.2,1-0.3v1c-0.3,0.1-0.6,0.3-0.9,0.3C506,269.9,505.6,269.9,505.2,269.9z M505,264.7c-0.4,0-0.7,0.1-1,0.4
				c-0.2,0.3-0.4,0.6-0.4,1.1h2.7c0-0.5-0.1-0.9-0.4-1.1C505.7,264.8,505.4,264.7,505,264.7z"/>
			<path class="st0" d="M514.1,269.8h-1.3v-3.7c0-0.5-0.1-0.8-0.3-1c-0.2-0.2-0.4-0.3-0.8-0.3c-0.5,0-0.9,0.2-1.1,0.5
				c-0.2,0.3-0.3,0.9-0.3,1.6v3H509v-6h1l0.2,0.8h0.1c0.2-0.3,0.4-0.5,0.7-0.7s0.7-0.2,1-0.2c0.9,0,1.5,0.3,1.8,0.9h0.1
				c0.2-0.3,0.4-0.5,0.8-0.7c0.3-0.2,0.7-0.3,1.1-0.3c0.7,0,1.2,0.2,1.6,0.5c0.3,0.4,0.5,0.9,0.5,1.7v3.9h-1.3v-3.7
				c0-0.5-0.1-0.8-0.3-1c-0.2-0.2-0.4-0.3-0.8-0.3c-0.5,0-0.9,0.2-1.1,0.5c-0.2,0.3-0.3,0.8-0.3,1.4V269.8z"/>
			<path class="st0" d="M525,266.8c0,1-0.3,1.8-0.8,2.3c-0.5,0.6-1.2,0.8-2.1,0.8c-0.6,0-1.1-0.1-1.5-0.4c-0.4-0.3-0.8-0.6-1-1.1
				c-0.2-0.5-0.3-1-0.3-1.7c0-1,0.2-1.7,0.8-2.3c0.5-0.5,1.2-0.8,2.1-0.8c0.9,0,1.6,0.3,2.1,0.8C524.7,265.1,525,265.9,525,266.8z
				 M520.6,266.8c0,1.4,0.5,2.1,1.5,2.1c1,0,1.5-0.7,1.5-2.1c0-1.4-0.5-2.1-1.5-2.1c-0.5,0-0.9,0.2-1.2,0.5
				C520.7,265.6,520.6,266.2,520.6,266.8z"/>
			<path class="st0" d="M527.8,269.8l-2.3-6h1.4l1.2,3.5c0.2,0.6,0.3,1.1,0.4,1.4h0c0-0.3,0.2-0.7,0.4-1.4l1.2-3.5h1.4l-2.3,6H527.8
				z"/>
			<path class="st0" d="M535.1,269.9c-0.9,0-1.7-0.3-2.2-0.8s-0.8-1.3-0.8-2.3c0-1,0.2-1.8,0.7-2.3s1.2-0.8,2-0.8
				c0.8,0,1.4,0.2,1.9,0.7c0.5,0.5,0.7,1.1,0.7,2v0.7h-4c0,0.6,0.2,1,0.5,1.3c0.3,0.3,0.7,0.5,1.3,0.5c0.4,0,0.7,0,1-0.1
				c0.3-0.1,0.6-0.2,1-0.3v1c-0.3,0.1-0.6,0.3-0.9,0.3C535.8,269.9,535.5,269.9,535.1,269.9z M534.8,264.7c-0.4,0-0.7,0.1-1,0.4
				c-0.2,0.3-0.4,0.6-0.4,1.1h2.7c0-0.5-0.1-0.9-0.4-1.1C535.6,264.8,535.2,264.7,534.8,264.7z"/>
			<path class="st0" d="M541.7,262.2c0-0.2,0.1-0.4,0.2-0.5c0.1-0.1,0.3-0.2,0.5-0.2c0.2,0,0.4,0.1,0.5,0.2c0.1,0.1,0.2,0.3,0.2,0.5
				c0,0.2-0.1,0.4-0.2,0.5c-0.1,0.1-0.3,0.2-0.5,0.2c-0.2,0-0.4-0.1-0.5-0.2C541.8,262.6,541.7,262.4,541.7,262.2z M543,269.8h-1.3
				v-6h1.3V269.8z"/>
			<path class="st0" d="M548.9,268.1c0,0.6-0.2,1-0.6,1.4c-0.4,0.3-1,0.5-1.8,0.5c-0.8,0-1.4-0.1-1.9-0.4v-1.1
				c0.7,0.3,1.4,0.5,2,0.5c0.8,0,1.2-0.2,1.2-0.7c0-0.2,0-0.3-0.1-0.4c-0.1-0.1-0.2-0.2-0.4-0.3c-0.2-0.1-0.5-0.2-0.8-0.4
				c-0.7-0.3-1.2-0.5-1.4-0.8c-0.2-0.3-0.4-0.6-0.4-1c0-0.5,0.2-0.9,0.6-1.2c0.4-0.3,1-0.4,1.7-0.4c0.7,0,1.4,0.1,2,0.4l-0.4,1
				c-0.6-0.3-1.2-0.4-1.6-0.4c-0.7,0-1,0.2-1,0.6c0,0.2,0.1,0.3,0.3,0.5c0.2,0.1,0.6,0.3,1.2,0.5c0.5,0.2,0.9,0.4,1.1,0.5
				c0.2,0.2,0.4,0.3,0.5,0.6C548.9,267.6,548.9,267.8,548.9,268.1z"/>
			<path class="st0" d="M554.4,268.1c0,0.6-0.2,1-0.6,1.4c-0.4,0.3-1,0.5-1.8,0.5c-0.8,0-1.4-0.1-1.9-0.4v-1.1
				c0.7,0.3,1.4,0.5,2,0.5c0.8,0,1.2-0.2,1.2-0.7c0-0.2,0-0.3-0.1-0.4c-0.1-0.1-0.2-0.2-0.4-0.3s-0.5-0.2-0.8-0.4
				c-0.7-0.3-1.2-0.5-1.4-0.8c-0.2-0.3-0.4-0.6-0.4-1c0-0.5,0.2-0.9,0.6-1.2c0.4-0.3,1-0.4,1.7-0.4c0.7,0,1.4,0.1,2,0.4l-0.4,1
				c-0.6-0.3-1.2-0.4-1.6-0.4c-0.7,0-1,0.2-1,0.6c0,0.2,0.1,0.3,0.3,0.5c0.2,0.1,0.6,0.3,1.2,0.5c0.5,0.2,0.9,0.4,1.1,0.5
				c0.2,0.2,0.4,0.3,0.5,0.6C554.3,267.6,554.4,267.8,554.4,268.1z"/>
			<path class="st0" d="M560,269.8l-0.2-0.8h-0.1c-0.2,0.3-0.4,0.5-0.8,0.7c-0.3,0.2-0.7,0.2-1.1,0.2c-0.7,0-1.3-0.2-1.6-0.5
				c-0.4-0.4-0.5-0.9-0.5-1.6v-3.9h1.3v3.7c0,0.5,0.1,0.8,0.3,1c0.2,0.2,0.5,0.3,0.9,0.3c0.5,0,0.9-0.2,1.2-0.5
				c0.3-0.3,0.4-0.9,0.4-1.6v-3h1.3v6H560z"/>
			<path class="st0" d="M565.4,269.9c-0.9,0-1.7-0.3-2.2-0.8s-0.8-1.3-0.8-2.3c0-1,0.2-1.8,0.7-2.3s1.2-0.8,2-0.8
				c0.8,0,1.4,0.2,1.9,0.7s0.7,1.1,0.7,2v0.7h-4c0,0.6,0.2,1,0.5,1.3c0.3,0.3,0.7,0.5,1.3,0.5c0.4,0,0.7,0,1-0.1
				c0.3-0.1,0.6-0.2,1-0.3v1c-0.3,0.1-0.6,0.3-0.9,0.3C566.2,269.9,565.9,269.9,565.4,269.9z M565.2,264.7c-0.4,0-0.7,0.1-1,0.4
				c-0.2,0.3-0.4,0.6-0.4,1.1h2.7c0-0.5-0.1-0.9-0.4-1.1C565.9,264.8,565.6,264.7,565.2,264.7z"/>
			<path class="st0" d="M572.3,263.7c0.3,0,0.5,0,0.6,0.1l-0.1,1.2c-0.2,0-0.4-0.1-0.6-0.1c-0.5,0-0.9,0.2-1.2,0.5
				c-0.3,0.3-0.5,0.8-0.5,1.3v3.1h-1.3v-6h1l0.2,1.1h0.1c0.2-0.4,0.5-0.6,0.8-0.9C571.6,263.8,571.9,263.7,572.3,263.7z"/>
			<path class="st0" d="M578.1,268.1c0,0.6-0.2,1-0.6,1.4c-0.4,0.3-1,0.5-1.8,0.5c-0.8,0-1.4-0.1-1.9-0.4v-1.1
				c0.7,0.3,1.4,0.5,2,0.5c0.8,0,1.2-0.2,1.2-0.7c0-0.2,0-0.3-0.1-0.4c-0.1-0.1-0.2-0.2-0.4-0.3c-0.2-0.1-0.5-0.2-0.8-0.4
				c-0.7-0.3-1.2-0.5-1.4-0.8c-0.2-0.3-0.4-0.6-0.4-1c0-0.5,0.2-0.9,0.6-1.2c0.4-0.3,1-0.4,1.7-0.4c0.7,0,1.4,0.1,2,0.4l-0.4,1
				c-0.6-0.3-1.2-0.4-1.6-0.4c-0.7,0-1,0.2-1,0.6c0,0.2,0.1,0.3,0.3,0.5c0.2,0.1,0.6,0.3,1.2,0.5c0.5,0.2,0.9,0.4,1.1,0.5
				c0.2,0.2,0.4,0.3,0.5,0.6C578,267.6,578.1,267.8,578.1,268.1z"/>
		</g>
		<g class="st3">
			<path class="st0" d="M483.4,283.3l-0.8-2.8c-0.1-0.3-0.3-1-0.5-2.1h0c-0.2,1-0.4,1.7-0.5,2.1l-0.8,2.8h-1.4l-1.7-6h1.3l0.8,3
				c0.2,0.7,0.3,1.4,0.4,1.9h0c0-0.3,0.1-0.6,0.2-0.9c0.1-0.3,0.1-0.6,0.2-0.8l0.9-3.2h1.4l0.9,3.2c0.1,0.2,0.1,0.5,0.2,0.8
				c0.1,0.4,0.1,0.7,0.1,0.9h0c0.1-0.4,0.2-1.1,0.4-1.9l0.8-3h1.3l-1.7,6H483.4z"/>
			<path class="st0" d="M487.5,275.6c0-0.2,0.1-0.4,0.2-0.5c0.1-0.1,0.3-0.2,0.5-0.2c0.2,0,0.4,0.1,0.5,0.2c0.1,0.1,0.2,0.3,0.2,0.5
				c0,0.2-0.1,0.4-0.2,0.5c-0.1,0.1-0.3,0.2-0.5,0.2c-0.2,0-0.4-0.1-0.5-0.2C487.5,276,487.5,275.9,487.5,275.6z M488.8,283.3h-1.3
				v-6h1.3V283.3z"/>
			<path class="st0" d="M492.9,282.3c0.3,0,0.6,0,0.9-0.1v1c-0.1,0.1-0.3,0.1-0.5,0.2s-0.5,0.1-0.7,0.1c-1.2,0-1.8-0.6-1.8-1.9v-3.2
				H490v-0.6l0.9-0.5l0.4-1.3h0.8v1.3h1.7v1h-1.7v3.2c0,0.3,0.1,0.5,0.2,0.7C492.5,282.3,492.7,282.3,492.9,282.3z"/>
			<path class="st0" d="M500.3,283.3h-1.3v-3.7c0-0.5-0.1-0.8-0.3-1c-0.2-0.2-0.5-0.3-0.9-0.3c-0.5,0-0.9,0.2-1.2,0.5
				c-0.3,0.3-0.4,0.9-0.4,1.6v3H495v-8.5h1.3v2.2c0,0.3,0,0.7-0.1,1.1h0.1c0.2-0.3,0.4-0.5,0.7-0.7c0.3-0.2,0.7-0.2,1.1-0.2
				c1.5,0,2.2,0.7,2.2,2.2V283.3z"/>
			<path class="st0" d="M510.3,283.3H509v-3.7c0-0.5-0.1-0.8-0.3-1c-0.2-0.2-0.5-0.3-0.9-0.3c-0.5,0-0.9,0.2-1.2,0.5
				c-0.3,0.3-0.4,0.9-0.4,1.6v3H505v-8.5h1.3v2.2c0,0.3,0,0.7-0.1,1.1h0.1c0.2-0.3,0.4-0.5,0.7-0.7c0.3-0.2,0.7-0.2,1.1-0.2
				c1.5,0,2.2,0.7,2.2,2.2V283.3z"/>
			<path class="st0" d="M512,275.6c0-0.2,0.1-0.4,0.2-0.5c0.1-0.1,0.3-0.2,0.5-0.2c0.2,0,0.4,0.1,0.5,0.2c0.1,0.1,0.2,0.3,0.2,0.5
				c0,0.2-0.1,0.4-0.2,0.5c-0.1,0.1-0.3,0.2-0.5,0.2c-0.2,0-0.4-0.1-0.5-0.2C512.1,276,512,275.9,512,275.6z M513.4,283.3h-1.3v-6
				h1.3V283.3z"/>
			<path class="st0" d="M520.3,277.2v0.7l-1,0.2c0.1,0.1,0.2,0.3,0.2,0.5c0.1,0.2,0.1,0.4,0.1,0.6c0,0.6-0.2,1.1-0.6,1.5
				c-0.4,0.4-1,0.5-1.8,0.5c-0.2,0-0.4,0-0.5,0c-0.3,0.2-0.4,0.4-0.4,0.6c0,0.1,0.1,0.2,0.2,0.3c0.1,0.1,0.4,0.1,0.7,0.1h1.1
				c0.7,0,1.2,0.1,1.5,0.4c0.3,0.3,0.5,0.7,0.5,1.2c0,0.7-0.3,1.2-0.8,1.6c-0.6,0.4-1.4,0.6-2.4,0.6c-0.8,0-1.4-0.1-1.9-0.4
				c-0.4-0.3-0.6-0.7-0.6-1.2c0-0.4,0.1-0.7,0.4-0.9c0.2-0.3,0.6-0.4,1-0.5c-0.2-0.1-0.3-0.2-0.4-0.4c-0.1-0.2-0.2-0.3-0.2-0.5
				c0-0.2,0.1-0.4,0.2-0.6c0.1-0.2,0.3-0.3,0.6-0.5c-0.3-0.1-0.6-0.4-0.8-0.7c-0.2-0.3-0.3-0.7-0.3-1.1c0-0.7,0.2-1.2,0.6-1.5
				c0.4-0.4,1-0.5,1.8-0.5c0.2,0,0.4,0,0.5,0c0.2,0,0.3,0,0.4,0.1H520.3z M515.6,284.2c0,0.3,0.1,0.5,0.4,0.6c0.2,0.1,0.6,0.2,1,0.2
				c0.7,0,1.2-0.1,1.6-0.3c0.3-0.2,0.5-0.5,0.5-0.8c0-0.3-0.1-0.4-0.3-0.6c-0.2-0.1-0.5-0.2-1-0.2h-1c-0.4,0-0.7,0.1-0.9,0.3
				C515.7,283.7,515.6,283.9,515.6,284.2z M516.1,279.2c0,0.4,0.1,0.7,0.3,0.9c0.2,0.2,0.5,0.3,0.8,0.3c0.7,0,1.1-0.4,1.1-1.2
				c0-0.4-0.1-0.7-0.3-0.9c-0.2-0.2-0.5-0.3-0.8-0.3c-0.4,0-0.7,0.1-0.8,0.3C516.2,278.5,516.1,278.8,516.1,279.2z"/>
			<path class="st0" d="M526.7,283.3h-1.3v-3.7c0-0.5-0.1-0.8-0.3-1c-0.2-0.2-0.5-0.3-0.9-0.3c-0.5,0-0.9,0.2-1.2,0.5
				c-0.3,0.3-0.4,0.9-0.4,1.6v3h-1.3v-8.5h1.3v2.2c0,0.3,0,0.7-0.1,1.1h0.1c0.2-0.3,0.4-0.5,0.7-0.7c0.3-0.2,0.7-0.2,1.1-0.2
				c1.5,0,2.2,0.7,2.2,2.2V283.3z"/>
			<path class="st0" d="M531.1,283.4c-0.9,0-1.7-0.3-2.2-0.8c-0.5-0.5-0.8-1.3-0.8-2.3c0-1,0.2-1.8,0.7-2.3s1.2-0.8,2-0.8
				c0.8,0,1.4,0.2,1.9,0.7c0.5,0.5,0.7,1.1,0.7,2v0.7h-4c0,0.6,0.2,1,0.5,1.3c0.3,0.3,0.7,0.5,1.3,0.5c0.4,0,0.7,0,1-0.1
				c0.3-0.1,0.6-0.2,1-0.3v1c-0.3,0.1-0.6,0.3-0.9,0.3C531.9,283.3,531.5,283.4,531.1,283.4z M530.9,278.1c-0.4,0-0.7,0.1-1,0.4
				c-0.2,0.3-0.4,0.6-0.4,1.1h2.7c0-0.5-0.1-0.9-0.4-1.1C531.6,278.2,531.3,278.1,530.9,278.1z"/>
			<path class="st0" d="M539,281.5c0,0.6-0.2,1-0.6,1.4c-0.4,0.3-1,0.5-1.8,0.5c-0.8,0-1.4-0.1-1.9-0.4v-1.1c0.7,0.3,1.4,0.5,2,0.5
				c0.8,0,1.2-0.2,1.2-0.7c0-0.2,0-0.3-0.1-0.4c-0.1-0.1-0.2-0.2-0.4-0.3c-0.2-0.1-0.5-0.2-0.8-0.4c-0.7-0.3-1.2-0.5-1.4-0.8
				c-0.2-0.3-0.4-0.6-0.4-1c0-0.5,0.2-0.9,0.6-1.2c0.4-0.3,1-0.4,1.7-0.4c0.7,0,1.4,0.1,2,0.4l-0.4,1c-0.6-0.3-1.2-0.4-1.6-0.4
				c-0.7,0-1,0.2-1,0.6c0,0.2,0.1,0.3,0.3,0.5c0.2,0.1,0.6,0.3,1.2,0.5c0.5,0.2,0.9,0.4,1.1,0.5c0.2,0.2,0.4,0.3,0.5,0.6
				C538.9,281,539,281.3,539,281.5z"/>
			<path class="st0" d="M542.6,282.3c0.3,0,0.6,0,0.9-0.1v1c-0.1,0.1-0.3,0.1-0.5,0.2c-0.2,0-0.5,0.1-0.7,0.1
				c-1.2,0-1.8-0.6-1.8-1.9v-3.2h-0.8v-0.6l0.9-0.5l0.4-1.3h0.8v1.3h1.7v1h-1.7v3.2c0,0.3,0.1,0.5,0.2,0.7
				C542.2,282.3,542.4,282.3,542.6,282.3z"/>
			<path class="st0" d="M554.1,283.3h-1.3v-3.6h-3.7v3.6h-1.3v-8h1.3v3.3h3.7v-3.3h1.3V283.3z"/>
			<path class="st0" d="M557.4,283.3h-1.3v-8h4.5v1.1h-3.2v2.5h3v1.1h-3V283.3z"/>
			<path class="st0" d="M568.9,281.5c0,0.6-0.2,1-0.6,1.4c-0.4,0.3-1,0.5-1.8,0.5c-0.8,0-1.4-0.1-1.9-0.4v-1.1
				c0.7,0.3,1.4,0.5,2,0.5c0.8,0,1.2-0.2,1.2-0.7c0-0.2,0-0.3-0.1-0.4c-0.1-0.1-0.2-0.2-0.4-0.3c-0.2-0.1-0.5-0.2-0.8-0.4
				c-0.7-0.3-1.2-0.5-1.4-0.8c-0.2-0.3-0.4-0.6-0.4-1c0-0.5,0.2-0.9,0.6-1.2c0.4-0.3,1-0.4,1.7-0.4c0.7,0,1.4,0.1,2,0.4l-0.4,1
				c-0.6-0.3-1.2-0.4-1.6-0.4c-0.7,0-1,0.2-1,0.6c0,0.2,0.1,0.3,0.3,0.5c0.2,0.1,0.6,0.3,1.2,0.5c0.5,0.2,0.9,0.4,1.1,0.5
				c0.2,0.2,0.4,0.3,0.5,0.6C568.9,281,568.9,281.3,568.9,281.5z"/>
			<path class="st0" d="M572.7,283.4c-0.9,0-1.6-0.3-2.1-0.8c-0.5-0.5-0.7-1.3-0.7-2.3c0-1,0.2-1.8,0.7-2.3c0.5-0.5,1.2-0.8,2.1-0.8
				c0.6,0,1.2,0.1,1.7,0.4l-0.4,1c-0.5-0.2-1-0.3-1.3-0.3c-1,0-1.6,0.7-1.6,2.1c0,0.7,0.1,1.2,0.4,1.5c0.3,0.3,0.6,0.5,1.1,0.5
				c0.6,0,1.1-0.1,1.6-0.4v1.1c-0.2,0.1-0.5,0.2-0.7,0.3C573.4,283.3,573.1,283.4,572.7,283.4z"/>
			<path class="st0" d="M581.2,280.2c0,1-0.3,1.8-0.8,2.3c-0.5,0.6-1.2,0.8-2.1,0.8c-0.6,0-1.1-0.1-1.5-0.4c-0.4-0.3-0.8-0.6-1-1.1
				c-0.2-0.5-0.3-1-0.3-1.7c0-1,0.2-1.7,0.8-2.3c0.5-0.5,1.2-0.8,2.1-0.8c0.9,0,1.6,0.3,2.1,0.8
				C580.9,278.5,581.2,279.3,581.2,280.2z M576.8,280.2c0,1.4,0.5,2.1,1.5,2.1c1,0,1.5-0.7,1.5-2.1c0-1.4-0.5-2.1-1.5-2.1
				c-0.5,0-0.9,0.2-1.2,0.5C576.9,279.1,576.8,279.6,576.8,280.2z"/>
			<path class="st0" d="M585.7,277.1c0.3,0,0.5,0,0.6,0.1l-0.1,1.2c-0.2,0-0.4-0.1-0.6-0.1c-0.5,0-0.9,0.2-1.2,0.5
				c-0.3,0.3-0.5,0.8-0.5,1.3v3.1h-1.3v-6h1l0.2,1.1h0.1c0.2-0.4,0.5-0.6,0.8-0.9C585,277.2,585.3,277.1,585.7,277.1z"/>
			<path class="st0" d="M590.1,283.4c-0.9,0-1.7-0.3-2.2-0.8s-0.8-1.3-0.8-2.3c0-1,0.2-1.8,0.7-2.3s1.2-0.8,2-0.8
				c0.8,0,1.4,0.2,1.9,0.7c0.5,0.5,0.7,1.1,0.7,2v0.7h-4c0,0.6,0.2,1,0.5,1.3c0.3,0.3,0.7,0.5,1.3,0.5c0.4,0,0.7,0,1-0.1
				c0.3-0.1,0.6-0.2,1-0.3v1c-0.3,0.1-0.6,0.3-0.9,0.3C590.8,283.3,590.5,283.4,590.1,283.4z M589.8,278.1c-0.4,0-0.7,0.1-1,0.4
				c-0.2,0.3-0.4,0.6-0.4,1.1h2.7c0-0.5-0.1-0.9-0.4-1.1C590.6,278.2,590.2,278.1,589.8,278.1z"/>
			<path class="st0" d="M597.9,281.5c0,0.6-0.2,1-0.6,1.4c-0.4,0.3-1,0.5-1.8,0.5c-0.8,0-1.4-0.1-1.9-0.4v-1.1
				c0.7,0.3,1.4,0.5,2,0.5c0.8,0,1.2-0.2,1.2-0.7c0-0.2,0-0.3-0.1-0.4c-0.1-0.1-0.2-0.2-0.4-0.3c-0.2-0.1-0.5-0.2-0.8-0.4
				c-0.7-0.3-1.2-0.5-1.4-0.8c-0.2-0.3-0.4-0.6-0.4-1c0-0.5,0.2-0.9,0.6-1.2c0.4-0.3,1-0.4,1.7-0.4c0.7,0,1.4,0.1,2,0.4l-0.4,1
				c-0.6-0.3-1.2-0.4-1.6-0.4c-0.7,0-1,0.2-1,0.6c0,0.2,0.1,0.3,0.3,0.5c0.2,0.1,0.6,0.3,1.2,0.5c0.5,0.2,0.9,0.4,1.1,0.5
				c0.2,0.2,0.4,0.3,0.5,0.6C597.9,281,597.9,281.3,597.9,281.5z"/>
		</g>
	</g>
	<g>
		
			<linearGradient id="SVGID_4_" gradientUnits="userSpaceOnUse" x1="778.6593" y1="224.0954" x2="642.007" y2="224.0954" gradientTransform="matrix(1 0 0 -1 0 552)">
			<stop  offset="0" style="stop-color:#5ABAF9"/>
			<stop  offset="1" style="stop-color:#2E4C99"/>
		</linearGradient>
		<path class="st9" d="M663.9,349.8h93c12.1,0,21.8-9.9,21.8-21.8l0,0c0-12.1-9.9-21.8-21.8-21.8h-93c-12.1,0-21.8,9.9-21.8,21.8
			l0,0C642,339.9,651.9,349.8,663.9,349.8z"/>
		<g>
			<g class="st3">
				<path class="st0" d="M660.7,328.8l4-1.6l-4-1.9v-1.1l5.3,2.7v0.7l-5.3,2.3V328.8z"/>
				<path class="st0" d="M672.4,326.5c0,1.6-0.3,2.7-0.9,3.5s-1.6,1.2-2.9,1.2c-0.5,0-0.8,0-1-0.1V330c0.3,0.1,0.6,0.1,1,0.1
					c0.9,0,1.5-0.2,1.9-0.7c0.4-0.5,0.7-1.2,0.7-2.2h-0.1c-0.2,0.3-0.5,0.6-0.8,0.7c-0.3,0.1-0.7,0.2-1.1,0.2
					c-0.7,0-1.3-0.2-1.7-0.7c-0.4-0.4-0.6-1-0.6-1.8c0-0.8,0.2-1.5,0.7-2c0.5-0.5,1.1-0.7,1.9-0.7c0.6,0,1.1,0.1,1.5,0.4
					c0.4,0.3,0.7,0.7,1,1.2C672.3,325.1,672.4,325.7,672.4,326.5z M669.7,324c-0.4,0-0.8,0.1-1,0.4c-0.2,0.3-0.4,0.7-0.4,1.2
					c0,0.5,0.1,0.8,0.3,1.1c0.2,0.3,0.6,0.4,1,0.4c0.4,0,0.8-0.1,1.1-0.4c0.3-0.3,0.4-0.6,0.4-0.9c0-0.3-0.1-0.6-0.2-0.9
					c-0.1-0.3-0.3-0.5-0.5-0.7C670.2,324.1,669.9,324,669.7,324z"/>
				<path class="st0" d="M678.8,327.1c0,1.4-0.2,2.4-0.7,3.1c-0.4,0.7-1.1,1-2,1c-0.9,0-1.6-0.3-2-1c-0.5-0.7-0.7-1.7-0.7-3.1
					c0-1.4,0.2-2.4,0.7-3.1c0.4-0.7,1.1-1,2-1c0.9,0,1.6,0.3,2,1C678.6,324.7,678.8,325.7,678.8,327.1z M674.7,327.1
					c0,1.1,0.1,1.9,0.3,2.3c0.2,0.5,0.6,0.7,1.1,0.7c0.5,0,0.8-0.2,1.1-0.7c0.2-0.5,0.3-1.2,0.3-2.3c0-1.1-0.1-1.8-0.3-2.3
					c-0.2-0.5-0.6-0.7-1.1-0.7c-0.5,0-0.8,0.2-1.1,0.7C674.8,325.2,674.7,326,674.7,327.1z"/>
				<path class="st0" d="M687.4,331l-0.2-0.8h-0.1c-0.2,0.3-0.4,0.5-0.8,0.7c-0.3,0.2-0.7,0.2-1.1,0.2c-0.7,0-1.3-0.2-1.6-0.5
					c-0.4-0.4-0.5-0.9-0.5-1.6V325h1.3v3.7c0,0.5,0.1,0.8,0.3,1c0.2,0.2,0.5,0.3,0.9,0.3c0.5,0,0.9-0.2,1.2-0.5
					c0.3-0.3,0.4-0.9,0.4-1.6v-3h1.3v6H687.4z"/>
				<path class="st0" d="M695.5,331h-1.3v-3.7c0-0.5-0.1-0.8-0.3-1c-0.2-0.2-0.5-0.3-0.9-0.3c-0.5,0-0.9,0.2-1.2,0.5
					c-0.3,0.3-0.4,0.9-0.4,1.6v3h-1.3v-6h1l0.2,0.8h0.1c0.2-0.3,0.4-0.5,0.8-0.7c0.3-0.2,0.7-0.2,1.1-0.2c1.4,0,2.2,0.7,2.2,2.2V331
					z"/>
				<path class="st0" d="M697.2,323.4c0-0.2,0.1-0.4,0.2-0.5c0.1-0.1,0.3-0.2,0.5-0.2c0.2,0,0.4,0.1,0.5,0.2
					c0.1,0.1,0.2,0.3,0.2,0.5c0,0.2-0.1,0.4-0.2,0.5c-0.1,0.1-0.3,0.2-0.5,0.2c-0.2,0-0.4-0.1-0.5-0.2
					C697.3,323.8,697.2,323.6,697.2,323.4z M698.5,331h-1.3v-6h1.3V331z"/>
				<path class="st0" d="M702.4,331.1c-0.7,0-1.3-0.3-1.7-0.8c-0.4-0.5-0.6-1.3-0.6-2.3c0-1,0.2-1.7,0.6-2.3c0.4-0.6,1-0.8,1.8-0.8
					c0.4,0,0.7,0.1,1,0.2c0.3,0.1,0.6,0.4,0.8,0.7h0l0.1-0.8h1.1v8.7h-1.3v-2.6c0-0.2,0-0.3,0-0.5c0-0.2,0-0.3,0-0.4h-0.1
					C703.8,330.8,703.2,331.1,702.4,331.1z M702.8,330.1c0.5,0,0.9-0.2,1.2-0.5c0.2-0.3,0.4-0.8,0.4-1.4V328c0-0.7-0.1-1.3-0.4-1.6
					c-0.2-0.3-0.6-0.5-1.2-0.5c-0.5,0-0.8,0.2-1,0.5c-0.2,0.4-0.4,0.9-0.4,1.6C701.3,329.4,701.8,330.1,702.8,330.1z"/>
				<path class="st0" d="M711.6,331l-0.2-0.8h-0.1c-0.2,0.3-0.4,0.5-0.8,0.7c-0.3,0.2-0.7,0.2-1.1,0.2c-0.7,0-1.3-0.2-1.6-0.5
					c-0.4-0.4-0.5-0.9-0.5-1.6V325h1.3v3.7c0,0.5,0.1,0.8,0.3,1c0.2,0.2,0.5,0.3,0.9,0.3c0.5,0,0.9-0.2,1.2-0.5
					c0.3-0.3,0.4-0.9,0.4-1.6v-3h1.3v6H711.6z"/>
				<path class="st0" d="M717,331.1c-0.9,0-1.7-0.3-2.2-0.8c-0.5-0.5-0.8-1.3-0.8-2.3c0-1,0.2-1.8,0.7-2.3c0.5-0.6,1.2-0.8,2-0.8
					c0.8,0,1.4,0.2,1.9,0.7c0.5,0.5,0.7,1.1,0.7,2v0.7h-4c0,0.6,0.2,1,0.5,1.3c0.3,0.3,0.7,0.5,1.3,0.5c0.4,0,0.7,0,1-0.1
					c0.3-0.1,0.6-0.2,1-0.3v1c-0.3,0.1-0.6,0.3-0.9,0.3C717.8,331.1,717.5,331.1,717,331.1z M716.8,325.9c-0.4,0-0.7,0.1-1,0.4
					c-0.2,0.3-0.4,0.6-0.4,1.1h2.7c0-0.5-0.1-0.9-0.4-1.1C717.5,326,717.2,325.9,716.8,325.9z"/>
				<path class="st0" d="M723.7,323.4c0-0.2,0.1-0.4,0.2-0.5c0.1-0.1,0.3-0.2,0.5-0.2c0.2,0,0.4,0.1,0.5,0.2
					c0.1,0.1,0.2,0.3,0.2,0.5c0,0.2-0.1,0.4-0.2,0.5c-0.1,0.1-0.3,0.2-0.5,0.2c-0.2,0-0.4-0.1-0.5-0.2
					C723.7,323.8,723.7,323.6,723.7,323.4z M725,331h-1.3v-6h1.3V331z"/>
				<path class="st0" d="M730.9,329.3c0,0.6-0.2,1-0.6,1.4c-0.4,0.3-1,0.5-1.8,0.5c-0.8,0-1.4-0.1-1.9-0.4v-1.1
					c0.7,0.3,1.4,0.5,2,0.5c0.8,0,1.2-0.2,1.2-0.7c0-0.2,0-0.3-0.1-0.4c-0.1-0.1-0.2-0.2-0.4-0.3c-0.2-0.1-0.5-0.2-0.8-0.4
					c-0.7-0.3-1.2-0.5-1.4-0.8c-0.2-0.3-0.4-0.6-0.4-1c0-0.5,0.2-0.9,0.6-1.2c0.4-0.3,1-0.4,1.7-0.4c0.7,0,1.4,0.1,2,0.4l-0.4,1
					c-0.6-0.3-1.2-0.4-1.6-0.4c-0.7,0-1,0.2-1,0.6c0,0.2,0.1,0.3,0.3,0.5c0.2,0.1,0.6,0.3,1.2,0.5c0.5,0.2,0.9,0.4,1.1,0.5
					c0.2,0.2,0.4,0.3,0.5,0.6C730.8,328.8,730.9,329,730.9,329.3z"/>
				<path class="st0" d="M736.3,329.3c0,0.6-0.2,1-0.6,1.4c-0.4,0.3-1,0.5-1.8,0.5c-0.8,0-1.4-0.1-1.9-0.4v-1.1
					c0.7,0.3,1.4,0.5,2,0.5c0.8,0,1.2-0.2,1.2-0.7c0-0.2,0-0.3-0.1-0.4c-0.1-0.1-0.2-0.2-0.4-0.3c-0.2-0.1-0.5-0.2-0.8-0.4
					c-0.7-0.3-1.2-0.5-1.4-0.8c-0.2-0.3-0.4-0.6-0.4-1c0-0.5,0.2-0.9,0.6-1.2c0.4-0.3,1-0.4,1.7-0.4c0.7,0,1.4,0.1,2,0.4l-0.4,1
					c-0.6-0.3-1.2-0.4-1.6-0.4c-0.7,0-1,0.2-1,0.6c0,0.2,0.1,0.3,0.3,0.5c0.2,0.1,0.6,0.3,1.2,0.5c0.5,0.2,0.9,0.4,1.1,0.5
					c0.2,0.2,0.4,0.3,0.5,0.6C736.3,328.8,736.3,329,736.3,329.3z"/>
				<path class="st0" d="M742,331l-0.2-0.8h-0.1c-0.2,0.3-0.4,0.5-0.8,0.7c-0.3,0.2-0.7,0.2-1.1,0.2c-0.7,0-1.3-0.2-1.6-0.5
					c-0.4-0.4-0.5-0.9-0.5-1.6V325h1.3v3.7c0,0.5,0.1,0.8,0.3,1c0.2,0.2,0.5,0.3,0.9,0.3c0.5,0,0.9-0.2,1.2-0.5
					c0.3-0.3,0.4-0.9,0.4-1.6v-3h1.3v6H742z"/>
				<path class="st0" d="M747.4,331.1c-0.9,0-1.7-0.3-2.2-0.8s-0.8-1.3-0.8-2.3c0-1,0.2-1.8,0.7-2.3c0.5-0.6,1.2-0.8,2-0.8
					c0.8,0,1.4,0.2,1.9,0.7s0.7,1.1,0.7,2v0.7h-4c0,0.6,0.2,1,0.5,1.3c0.3,0.3,0.7,0.5,1.3,0.5c0.4,0,0.7,0,1-0.1
					c0.3-0.1,0.6-0.2,1-0.3v1c-0.3,0.1-0.6,0.3-0.9,0.3C748.2,331.1,747.8,331.1,747.4,331.1z M747.2,325.9c-0.4,0-0.7,0.1-1,0.4
					s-0.4,0.6-0.4,1.1h2.7c0-0.5-0.1-0.9-0.4-1.1C747.9,326,747.6,325.9,747.2,325.9z"/>
				<path class="st0" d="M754.3,324.9c0.3,0,0.5,0,0.6,0.1l-0.1,1.2c-0.2,0-0.4-0.1-0.6-0.1c-0.5,0-0.9,0.2-1.2,0.5
					c-0.3,0.3-0.5,0.8-0.5,1.3v3.1h-1.3v-6h1l0.2,1.1h0.1c0.2-0.4,0.5-0.6,0.8-0.9C753.6,325,753.9,324.9,754.3,324.9z"/>
				<path class="st0" d="M760.1,329.3c0,0.6-0.2,1-0.6,1.4c-0.4,0.3-1,0.5-1.8,0.5c-0.8,0-1.4-0.1-1.9-0.4v-1.1
					c0.7,0.3,1.4,0.5,2,0.5c0.8,0,1.2-0.2,1.2-0.7c0-0.2,0-0.3-0.1-0.4c-0.1-0.1-0.2-0.2-0.4-0.3s-0.5-0.2-0.8-0.4
					c-0.7-0.3-1.2-0.5-1.4-0.8c-0.2-0.3-0.4-0.6-0.4-1c0-0.5,0.2-0.9,0.6-1.2c0.4-0.3,1-0.4,1.7-0.4c0.7,0,1.4,0.1,2,0.4l-0.4,1
					c-0.6-0.3-1.2-0.4-1.6-0.4c-0.7,0-1,0.2-1,0.6c0,0.2,0.1,0.3,0.3,0.5c0.2,0.1,0.6,0.3,1.2,0.5c0.5,0.2,0.9,0.4,1.1,0.5
					c0.2,0.2,0.4,0.3,0.5,0.6C760,328.8,760.1,329,760.1,329.3z"/>
			</g>
		</g>
	</g>
	<g>
		
			<linearGradient id="SVGID_5_" gradientUnits="userSpaceOnUse" x1="778.6593" y1="169.6915" x2="642.007" y2="169.6915" gradientTransform="matrix(1 0 0 -1 0 552)">
			<stop  offset="0" style="stop-color:#5ABAF9"/>
			<stop  offset="1" style="stop-color:#2E4C99"/>
		</linearGradient>
		<path class="st10" d="M663.9,404.2h93c12.1,0,21.8-9.9,21.8-21.8l0,0c0-12.1-9.9-21.8-21.8-21.8h-93c-12.1,0-21.8,9.9-21.8,21.8
			l0,0C642,394.4,651.9,404.2,663.9,404.2z"/>
		<g>
			<g class="st3">
				<path class="st0" d="M657.3,385.5v-8h1.3v6.8h3.4v1.1H657.3z"/>
				<path class="st0" d="M663.1,377.9c0-0.2,0.1-0.4,0.2-0.5c0.1-0.1,0.3-0.2,0.5-0.2c0.2,0,0.4,0.1,0.5,0.2s0.2,0.3,0.2,0.5
					c0,0.2-0.1,0.4-0.2,0.5c-0.1,0.1-0.3,0.2-0.5,0.2c-0.2,0-0.4-0.1-0.5-0.2C663.2,378.3,663.1,378.1,663.1,377.9z M664.5,385.5
					h-1.3v-6h1.3V385.5z"/>
				<path class="st0" d="M671.4,385.5h-1.3v-3.7c0-0.5-0.1-0.8-0.3-1c-0.2-0.2-0.4-0.3-0.8-0.3c-0.5,0-0.9,0.2-1.1,0.5
					c-0.2,0.3-0.3,0.9-0.3,1.6v3h-1.3v-6h1l0.2,0.8h0.1c0.2-0.3,0.4-0.5,0.7-0.7s0.7-0.2,1-0.2c0.9,0,1.5,0.3,1.8,0.9h0.1
					c0.2-0.3,0.4-0.5,0.8-0.7c0.3-0.2,0.7-0.3,1.1-0.3c0.7,0,1.2,0.2,1.6,0.5c0.3,0.4,0.5,0.9,0.5,1.7v3.9h-1.3v-3.7
					c0-0.5-0.1-0.8-0.3-1c-0.2-0.2-0.4-0.3-0.8-0.3c-0.5,0-0.9,0.2-1.1,0.5c-0.2,0.3-0.3,0.8-0.3,1.4V385.5z"/>
				<path class="st0" d="M676.9,377.9c0-0.2,0.1-0.4,0.2-0.5c0.1-0.1,0.3-0.2,0.5-0.2c0.2,0,0.4,0.1,0.5,0.2s0.2,0.3,0.2,0.5
					c0,0.2-0.1,0.4-0.2,0.5c-0.1,0.1-0.3,0.2-0.5,0.2c-0.2,0-0.4-0.1-0.5-0.2C677,378.3,676.9,378.1,676.9,377.9z M678.3,385.5H677
					v-6h1.3V385.5z"/>
				<path class="st0" d="M682.3,384.6c0.3,0,0.6-0.1,0.9-0.1v1c-0.1,0.1-0.3,0.1-0.5,0.2c-0.2,0-0.5,0.1-0.7,0.1
					c-1.2,0-1.8-0.6-1.8-1.9v-3.2h-0.8v-0.6l0.9-0.5l0.4-1.3h0.8v1.3h1.7v1h-1.7v3.2c0,0.3,0.1,0.5,0.2,0.7
					C681.9,384.5,682.1,384.6,682.3,384.6z"/>
				<path class="st0" d="M691.4,383.8c0,0.6-0.2,1-0.6,1.4c-0.4,0.3-1,0.5-1.8,0.5c-0.8,0-1.4-0.1-1.9-0.4v-1.1
					c0.7,0.3,1.4,0.5,2,0.5c0.8,0,1.2-0.2,1.2-0.7c0-0.2,0-0.3-0.1-0.4c-0.1-0.1-0.2-0.2-0.4-0.3c-0.2-0.1-0.5-0.2-0.8-0.4
					c-0.7-0.3-1.2-0.5-1.4-0.8c-0.2-0.3-0.4-0.6-0.4-1c0-0.5,0.2-0.9,0.6-1.2c0.4-0.3,1-0.4,1.7-0.4c0.7,0,1.4,0.1,2,0.4l-0.4,1
					c-0.6-0.3-1.2-0.4-1.6-0.4c-0.7,0-1,0.2-1,0.6c0,0.2,0.1,0.3,0.3,0.5c0.2,0.1,0.6,0.3,1.2,0.5c0.5,0.2,0.9,0.4,1.1,0.5
					c0.2,0.2,0.4,0.3,0.5,0.6S691.4,383.5,691.4,383.8z"/>
				<path class="st0" d="M695.4,385.6c-0.9,0-1.7-0.3-2.2-0.8c-0.5-0.5-0.8-1.3-0.8-2.3c0-1,0.2-1.8,0.7-2.3s1.2-0.8,2-0.8
					c0.8,0,1.4,0.2,1.9,0.7c0.5,0.5,0.7,1.1,0.7,2v0.7h-4c0,0.6,0.2,1,0.5,1.3c0.3,0.3,0.7,0.5,1.3,0.5c0.4,0,0.7,0,1-0.1
					c0.3-0.1,0.6-0.2,1-0.3v1c-0.3,0.2-0.6,0.3-0.9,0.3C696.2,385.6,695.8,385.6,695.4,385.6z M695.2,380.4c-0.4,0-0.7,0.1-1,0.4
					c-0.2,0.3-0.4,0.6-0.4,1.1h2.7c0-0.5-0.1-0.9-0.4-1.1C695.9,380.5,695.6,380.4,695.2,380.4z"/>
				<path class="st0" d="M701.7,385.6c-0.9,0-1.6-0.3-2.1-0.8c-0.5-0.5-0.7-1.3-0.7-2.3c0-1,0.2-1.8,0.7-2.3
					c0.5-0.5,1.2-0.8,2.1-0.8c0.6,0,1.2,0.1,1.7,0.4l-0.4,1c-0.5-0.2-1-0.3-1.3-0.3c-1,0-1.6,0.7-1.6,2.1c0,0.7,0.1,1.2,0.4,1.5
					c0.3,0.3,0.6,0.5,1.1,0.5c0.6,0,1.1-0.1,1.6-0.4v1.1c-0.2,0.1-0.5,0.2-0.7,0.3C702.3,385.6,702,385.6,701.7,385.6z"/>
				<path class="st0" d="M707,384.6c0.3,0,0.6-0.1,0.9-0.1v1c-0.1,0.1-0.3,0.1-0.5,0.2c-0.2,0-0.5,0.1-0.7,0.1
					c-1.2,0-1.8-0.6-1.8-1.9v-3.2H704v-0.6l0.9-0.5l0.4-1.3h0.8v1.3h1.7v1h-1.7v3.2c0,0.3,0.1,0.5,0.2,0.7
					C706.5,384.5,706.7,384.6,707,384.6z"/>
				<path class="st0" d="M714.5,382.5c0,1-0.3,1.8-0.8,2.3c-0.5,0.6-1.2,0.8-2.1,0.8c-0.6,0-1.1-0.1-1.5-0.4c-0.4-0.3-0.8-0.6-1-1.1
					c-0.2-0.5-0.3-1-0.3-1.7c0-1,0.2-1.7,0.8-2.3c0.5-0.5,1.2-0.8,2.1-0.8c0.9,0,1.6,0.3,2.1,0.8
					C714.2,380.8,714.5,381.6,714.5,382.5z M710.1,382.5c0,1.4,0.5,2.1,1.5,2.1c1,0,1.5-0.7,1.5-2.1c0-1.4-0.5-2.1-1.5-2.1
					c-0.5,0-0.9,0.2-1.2,0.5C710.2,381.3,710.1,381.8,710.1,382.5z"/>
				<path class="st0" d="M719,379.4c0.3,0,0.5,0,0.6,0.1l-0.1,1.2c-0.2,0-0.4-0.1-0.6-0.1c-0.5,0-0.9,0.2-1.2,0.5
					c-0.3,0.3-0.5,0.8-0.5,1.3v3.1H716v-6h1l0.2,1.1h0.1c0.2-0.4,0.5-0.6,0.8-0.9C718.3,379.5,718.6,379.4,719,379.4z"/>
				<path class="st0" d="M728.6,385.5l-0.8-2.8c-0.1-0.3-0.3-1-0.5-2.1h0c-0.2,1-0.4,1.7-0.5,2.1l-0.8,2.8h-1.4l-1.7-6h1.3l0.8,3
					c0.2,0.7,0.3,1.4,0.4,1.9h0c0-0.3,0.1-0.6,0.2-0.9c0.1-0.3,0.1-0.6,0.2-0.8l0.9-3.2h1.4l0.9,3.2c0.1,0.2,0.1,0.5,0.2,0.8
					c0.1,0.4,0.1,0.7,0.1,0.9h0c0.1-0.4,0.2-1.1,0.4-1.9l0.8-3h1.3l-1.7,6H728.6z"/>
				<path class="st0" d="M735.4,385.6c-0.9,0-1.7-0.3-2.2-0.8c-0.5-0.5-0.8-1.3-0.8-2.3c0-1,0.2-1.8,0.7-2.3s1.2-0.8,2-0.8
					c0.8,0,1.4,0.2,1.9,0.7c0.5,0.5,0.7,1.1,0.7,2v0.7h-4c0,0.6,0.2,1,0.5,1.3c0.3,0.3,0.7,0.5,1.3,0.5c0.4,0,0.7,0,1-0.1
					c0.3-0.1,0.6-0.2,1-0.3v1c-0.3,0.2-0.6,0.3-0.9,0.3C736.2,385.6,735.8,385.6,735.4,385.6z M735.2,380.4c-0.4,0-0.7,0.1-1,0.4
					c-0.2,0.3-0.4,0.6-0.4,1.1h2.7c0-0.5-0.1-0.9-0.4-1.1C735.9,380.5,735.6,380.4,735.2,380.4z"/>
				<path class="st0" d="M739.1,377.9c0-0.2,0.1-0.4,0.2-0.5c0.1-0.1,0.3-0.2,0.5-0.2c0.2,0,0.4,0.1,0.5,0.2s0.2,0.3,0.2,0.5
					c0,0.2-0.1,0.4-0.2,0.5c-0.1,0.1-0.3,0.2-0.5,0.2c-0.2,0-0.4-0.1-0.5-0.2C739.2,378.3,739.1,378.1,739.1,377.9z M740.5,385.5
					h-1.3v-6h1.3V385.5z"/>
				<path class="st0" d="M747.4,379.5v0.7l-1,0.2c0.1,0.1,0.2,0.3,0.2,0.5c0.1,0.2,0.1,0.4,0.1,0.6c0,0.6-0.2,1.1-0.6,1.5
					c-0.4,0.4-1,0.5-1.8,0.5c-0.2,0-0.4,0-0.5,0c-0.3,0.2-0.4,0.4-0.4,0.6c0,0.1,0.1,0.2,0.2,0.3c0.1,0.1,0.4,0.1,0.7,0.1h1.1
					c0.7,0,1.2,0.1,1.5,0.4c0.3,0.3,0.5,0.7,0.5,1.2c0,0.7-0.3,1.2-0.8,1.6c-0.6,0.4-1.4,0.6-2.4,0.6c-0.8,0-1.4-0.1-1.9-0.4
					c-0.4-0.3-0.6-0.7-0.6-1.2c0-0.4,0.1-0.7,0.4-0.9c0.2-0.3,0.6-0.4,1-0.5c-0.2-0.1-0.3-0.2-0.4-0.4c-0.1-0.2-0.2-0.3-0.2-0.5
					c0-0.2,0.1-0.4,0.2-0.6c0.1-0.2,0.3-0.3,0.6-0.5c-0.3-0.1-0.6-0.4-0.8-0.7c-0.2-0.3-0.3-0.7-0.3-1.1c0-0.7,0.2-1.2,0.6-1.5
					c0.4-0.4,1-0.5,1.8-0.5c0.2,0,0.3,0,0.5,0c0.2,0,0.3,0,0.4,0.1H747.4z M742.7,386.5c0,0.3,0.1,0.5,0.4,0.6
					c0.2,0.2,0.6,0.2,1,0.2c0.7,0,1.2-0.1,1.6-0.3c0.3-0.2,0.5-0.5,0.5-0.8c0-0.3-0.1-0.4-0.3-0.6c-0.2-0.1-0.5-0.2-1-0.2h-1
					c-0.4,0-0.7,0.1-0.9,0.3C742.8,385.9,742.7,386.2,742.7,386.5z M743.2,381.5c0,0.4,0.1,0.7,0.3,0.9c0.2,0.2,0.5,0.3,0.8,0.3
					c0.7,0,1.1-0.4,1.1-1.2c0-0.4-0.1-0.7-0.3-0.9c-0.2-0.2-0.5-0.3-0.8-0.3c-0.4,0-0.7,0.1-0.8,0.3
					C743.3,380.7,743.2,381,743.2,381.5z"/>
				<path class="st0" d="M753.8,385.5h-1.3v-3.7c0-0.5-0.1-0.8-0.3-1c-0.2-0.2-0.5-0.3-0.9-0.3c-0.5,0-0.9,0.2-1.2,0.5
					c-0.3,0.3-0.4,0.9-0.4,1.6v3h-1.3v-8.5h1.3v2.2c0,0.3,0,0.7-0.1,1.1h0.1c0.2-0.3,0.4-0.5,0.7-0.7c0.3-0.2,0.7-0.2,1.1-0.2
					c1.5,0,2.2,0.7,2.2,2.2V385.5z"/>
				<path class="st0" d="M757.8,384.6c0.3,0,0.6-0.1,0.9-0.1v1c-0.1,0.1-0.3,0.1-0.5,0.2c-0.2,0-0.5,0.1-0.7,0.1
					c-1.2,0-1.8-0.6-1.8-1.9v-3.2h-0.8v-0.6l0.9-0.5l0.4-1.3h0.8v1.3h1.7v1H757v3.2c0,0.3,0.1,0.5,0.2,0.7
					C757.4,384.5,757.6,384.6,757.8,384.6z"/>
				<path class="st0" d="M764,383.8c0,0.6-0.2,1-0.6,1.4s-1,0.5-1.8,0.5c-0.8,0-1.4-0.1-1.9-0.4v-1.1c0.7,0.3,1.4,0.5,2,0.5
					c0.8,0,1.2-0.2,1.2-0.7c0-0.2,0-0.3-0.1-0.4c-0.1-0.1-0.2-0.2-0.4-0.3s-0.5-0.2-0.8-0.4c-0.7-0.3-1.2-0.5-1.4-0.8
					c-0.2-0.3-0.4-0.6-0.4-1c0-0.5,0.2-0.9,0.6-1.2c0.4-0.3,1-0.4,1.7-0.4c0.7,0,1.4,0.1,2,0.4l-0.4,1c-0.6-0.3-1.2-0.4-1.6-0.4
					c-0.7,0-1,0.2-1,0.6c0,0.2,0.1,0.3,0.3,0.5c0.2,0.1,0.6,0.3,1.2,0.5c0.5,0.2,0.9,0.4,1.1,0.5c0.2,0.2,0.4,0.3,0.5,0.6
					S764,383.5,764,383.8z"/>
			</g>
		</g>
	</g>
	<path class="st5" d="M208.9,401.2L208.9,401.2c-34.6,0-62.5-28-62.5-62.5V208.4c0-34.6,28-62.5,62.5-62.5l0,0
		c34.6,0,62.5,28,62.5,62.5v130.4C271.5,373.2,243.5,401.2,208.9,401.2z"/>
	<g>
		<g class="st3">
			<path class="st4" d="M185.2,207.1v-8h1.3v6.8h3.4v1.1H185.2z"/>
			<path class="st4" d="M191,199.5c0-0.2,0.1-0.4,0.2-0.5c0.1-0.1,0.3-0.2,0.5-0.2c0.2,0,0.4,0.1,0.5,0.2c0.1,0.1,0.2,0.3,0.2,0.5
				c0,0.2-0.1,0.4-0.2,0.5c-0.1,0.1-0.3,0.2-0.5,0.2c-0.2,0-0.4-0.1-0.5-0.2C191.1,199.9,191,199.7,191,199.5z M192.4,207.1h-1.3v-6
				h1.3V207.1z"/>
			<path class="st4" d="M196.2,207.2c-0.7,0-1.3-0.3-1.7-0.8s-0.6-1.3-0.6-2.3c0-1,0.2-1.7,0.6-2.3c0.4-0.6,1-0.8,1.8-0.8
				c0.4,0,0.7,0.1,1,0.2s0.6,0.4,0.8,0.7h0l0.1-0.8h1.1v8.7h-1.3v-2.6c0-0.2,0-0.3,0-0.5c0-0.2,0-0.3,0-0.4H198
				C197.7,206.9,197.1,207.2,196.2,207.2z M196.6,206.2c0.5,0,0.9-0.2,1.2-0.5c0.2-0.3,0.4-0.8,0.4-1.4v-0.2c0-0.7-0.1-1.3-0.4-1.6
				c-0.2-0.3-0.6-0.5-1.2-0.5c-0.5,0-0.8,0.2-1,0.5c-0.2,0.4-0.4,0.9-0.4,1.6C195.2,205.5,195.7,206.2,196.6,206.2z"/>
			<path class="st4" d="M205.4,207.1l-0.2-0.8h-0.1c-0.2,0.3-0.4,0.5-0.8,0.7c-0.3,0.2-0.7,0.2-1.1,0.2c-0.7,0-1.3-0.2-1.6-0.5
				c-0.4-0.4-0.5-0.9-0.5-1.6v-3.9h1.3v3.7c0,0.5,0.1,0.8,0.3,1c0.2,0.2,0.5,0.3,0.9,0.3c0.5,0,0.9-0.2,1.2-0.5
				c0.3-0.3,0.4-0.9,0.4-1.6v-3h1.3v6H205.4z"/>
			<path class="st4" d="M208.2,199.5c0-0.2,0.1-0.4,0.2-0.5c0.1-0.1,0.3-0.2,0.5-0.2c0.2,0,0.4,0.1,0.5,0.2c0.1,0.1,0.2,0.3,0.2,0.5
				c0,0.2-0.1,0.4-0.2,0.5s-0.3,0.2-0.5,0.2c-0.2,0-0.4-0.1-0.5-0.2C208.2,199.9,208.2,199.7,208.2,199.5z M209.5,207.1h-1.3v-6h1.3
				V207.1z"/>
			<path class="st4" d="M213.4,207.2c-0.8,0-1.3-0.3-1.8-0.8c-0.4-0.5-0.6-1.3-0.6-2.3c0-1,0.2-1.8,0.6-2.3c0.4-0.5,1-0.8,1.8-0.8
				c0.8,0,1.4,0.3,1.8,0.9h0.1c-0.1-0.4-0.1-0.8-0.1-1v-2.2h1.3v8.5h-1l-0.2-0.8h-0.1C214.8,206.9,214.2,207.2,213.4,207.2z
				 M213.7,206.2c0.5,0,0.9-0.1,1.1-0.4c0.2-0.3,0.4-0.8,0.4-1.4v-0.2c0-0.8-0.1-1.3-0.4-1.6c-0.2-0.3-0.6-0.5-1.2-0.5
				c-0.5,0-0.8,0.2-1,0.5c-0.2,0.4-0.4,0.9-0.4,1.6c0,0.7,0.1,1.2,0.4,1.5C212.9,206,213.3,206.2,213.7,206.2z"/>
			<path class="st4" d="M218.2,199.5c0-0.2,0.1-0.4,0.2-0.5c0.1-0.1,0.3-0.2,0.5-0.2c0.2,0,0.4,0.1,0.5,0.2c0.1,0.1,0.2,0.3,0.2,0.5
				c0,0.2-0.1,0.4-0.2,0.5s-0.3,0.2-0.5,0.2c-0.2,0-0.4-0.1-0.5-0.2C218.3,199.9,218.2,199.7,218.2,199.5z M219.6,207.1h-1.3v-6h1.3
				V207.1z"/>
			<path class="st4" d="M223.7,206.2c0.3,0,0.6,0,0.9-0.1v1c-0.1,0.1-0.3,0.1-0.5,0.2c-0.2,0-0.5,0.1-0.7,0.1
				c-1.2,0-1.8-0.6-1.8-1.9v-3.2h-0.8v-0.6l0.9-0.5l0.4-1.3h0.8v1.3h1.7v1h-1.7v3.2c0,0.3,0.1,0.5,0.2,0.7
				C223.2,206.1,223.4,206.2,223.7,206.2z"/>
			<path class="st4" d="M224.9,201.1h1.4l1.2,3.4c0.2,0.5,0.3,0.9,0.4,1.4h0c0-0.2,0.1-0.4,0.2-0.7c0.1-0.3,0.5-1.6,1.4-4.1h1.4
				l-2.6,6.8c-0.5,1.3-1.2,1.9-2.3,1.9c-0.3,0-0.6,0-0.8-0.1v-1c0.2,0,0.4,0.1,0.7,0.1c0.6,0,1.1-0.4,1.3-1.1l0.2-0.6L224.9,201.1z"
				/>
		</g>
		<g class="st3">
			<path class="st4" d="M193.4,221.1c0,0.6-0.2,1-0.6,1.4c-0.4,0.3-1,0.5-1.8,0.5c-0.8,0-1.4-0.1-1.9-0.4v-1.1
				c0.7,0.3,1.4,0.5,2,0.5c0.8,0,1.2-0.2,1.2-0.7c0-0.2,0-0.3-0.1-0.4c-0.1-0.1-0.2-0.2-0.4-0.3c-0.2-0.1-0.5-0.2-0.8-0.4
				c-0.7-0.3-1.2-0.5-1.4-0.8c-0.2-0.3-0.4-0.6-0.4-1c0-0.5,0.2-0.9,0.6-1.2c0.4-0.3,1-0.4,1.7-0.4c0.7,0,1.4,0.1,2,0.4l-0.4,1
				c-0.6-0.3-1.2-0.4-1.6-0.4c-0.7,0-1,0.2-1,0.6c0,0.2,0.1,0.3,0.3,0.5c0.2,0.1,0.6,0.3,1.2,0.5c0.5,0.2,0.9,0.4,1.1,0.5
				c0.2,0.2,0.4,0.3,0.5,0.6C193.3,220.6,193.4,220.8,193.4,221.1z"/>
			<path class="st4" d="M197.2,222.9c-0.9,0-1.6-0.3-2.1-0.8c-0.5-0.5-0.7-1.3-0.7-2.3c0-1,0.2-1.8,0.7-2.3c0.5-0.5,1.2-0.8,2.1-0.8
				c0.6,0,1.2,0.1,1.7,0.4l-0.4,1c-0.5-0.2-1-0.3-1.3-0.3c-1,0-1.6,0.7-1.6,2.1c0,0.7,0.1,1.2,0.4,1.5c0.3,0.3,0.6,0.5,1.1,0.5
				c0.6,0,1.1-0.1,1.6-0.4v1.1c-0.2,0.1-0.5,0.2-0.7,0.3C197.9,222.9,197.6,222.9,197.2,222.9z"/>
			<path class="st4" d="M203.4,216.7c0.3,0,0.5,0,0.6,0.1l-0.1,1.2c-0.2,0-0.4-0.1-0.6-0.1c-0.5,0-0.9,0.2-1.2,0.5
				c-0.3,0.3-0.5,0.8-0.5,1.3v3.1h-1.3v-6h1l0.2,1.1h0.1c0.2-0.4,0.5-0.6,0.8-0.9C202.6,216.8,203,216.7,203.4,216.7z"/>
			<path class="st4" d="M207.7,222.9c-0.9,0-1.7-0.3-2.2-0.8c-0.5-0.5-0.8-1.3-0.8-2.3c0-1,0.2-1.8,0.7-2.3c0.5-0.6,1.2-0.8,2-0.8
				c0.8,0,1.4,0.2,1.9,0.7c0.5,0.5,0.7,1.1,0.7,2v0.7h-4c0,0.6,0.2,1,0.5,1.3c0.3,0.3,0.7,0.5,1.3,0.5c0.4,0,0.7,0,1-0.1
				s0.6-0.2,1-0.3v1c-0.3,0.1-0.6,0.3-0.9,0.3C208.5,222.9,208.1,222.9,207.7,222.9z M207.5,217.7c-0.4,0-0.7,0.1-1,0.4
				c-0.2,0.3-0.4,0.6-0.4,1.1h2.7c0-0.5-0.1-0.9-0.4-1.1C208.2,217.8,207.9,217.7,207.5,217.7z"/>
			<path class="st4" d="M214.2,222.9c-0.9,0-1.7-0.3-2.2-0.8c-0.5-0.5-0.8-1.3-0.8-2.3c0-1,0.2-1.8,0.7-2.3c0.5-0.6,1.2-0.8,2-0.8
				c0.8,0,1.4,0.2,1.9,0.7c0.5,0.5,0.7,1.1,0.7,2v0.7h-4c0,0.6,0.2,1,0.5,1.3c0.3,0.3,0.7,0.5,1.3,0.5c0.4,0,0.7,0,1-0.1
				c0.3-0.1,0.6-0.2,1-0.3v1c-0.3,0.1-0.6,0.3-0.9,0.3C214.9,222.9,214.6,222.9,214.2,222.9z M213.9,217.7c-0.4,0-0.7,0.1-1,0.4
				c-0.2,0.3-0.4,0.6-0.4,1.1h2.7c0-0.5-0.1-0.9-0.4-1.1C214.7,217.8,214.3,217.7,213.9,217.7z"/>
			<path class="st4" d="M223.3,222.8H222v-3.7c0-0.5-0.1-0.8-0.3-1c-0.2-0.2-0.5-0.3-0.9-0.3c-0.5,0-0.9,0.2-1.2,0.5
				c-0.3,0.3-0.4,0.9-0.4,1.6v3H218v-6h1l0.2,0.8h0.1c0.2-0.3,0.4-0.5,0.8-0.7c0.3-0.2,0.7-0.2,1.1-0.2c1.4,0,2.2,0.7,2.2,2.2V222.8
				z"/>
			<path class="st4" d="M229.1,221.1c0,0.6-0.2,1-0.6,1.4c-0.4,0.3-1,0.5-1.8,0.5c-0.8,0-1.4-0.1-1.9-0.4v-1.1
				c0.7,0.3,1.4,0.5,2,0.5c0.8,0,1.2-0.2,1.2-0.7c0-0.2,0-0.3-0.1-0.4c-0.1-0.1-0.2-0.2-0.4-0.3c-0.2-0.1-0.5-0.2-0.8-0.4
				c-0.7-0.3-1.2-0.5-1.4-0.8c-0.2-0.3-0.4-0.6-0.4-1c0-0.5,0.2-0.9,0.6-1.2c0.4-0.3,1-0.4,1.7-0.4c0.7,0,1.4,0.1,2,0.4l-0.4,1
				c-0.6-0.3-1.2-0.4-1.6-0.4c-0.7,0-1,0.2-1,0.6c0,0.2,0.1,0.3,0.3,0.5c0.2,0.1,0.6,0.3,1.2,0.5c0.5,0.2,0.9,0.4,1.1,0.5
				c0.2,0.2,0.4,0.3,0.5,0.6C229,220.6,229.1,220.8,229.1,221.1z"/>
		</g>
		<g class="st3">
			<path class="st4" d="M200.5,255.5c0,0.8-0.3,1.5-0.8,1.9c-0.5,0.4-1.3,0.7-2.3,0.7h-0.8v3h-1.3v-8h2.3c1,0,1.7,0.2,2.2,0.6
				C200.2,254.1,200.5,254.7,200.5,255.5z M196.5,257h0.7c0.7,0,1.2-0.1,1.5-0.3c0.3-0.2,0.5-0.6,0.5-1.1c0-0.5-0.1-0.8-0.4-1
				c-0.3-0.2-0.7-0.3-1.3-0.3h-0.9V257z"/>
			<path class="st4" d="M205,254.9c0.3,0,0.5,0,0.6,0.1l-0.1,1.2c-0.2,0-0.4-0.1-0.6-0.1c-0.5,0-0.9,0.2-1.2,0.5
				c-0.3,0.3-0.5,0.8-0.5,1.3v3.1h-1.3v-6h1l0.2,1.1h0.1c0.2-0.4,0.5-0.6,0.8-0.9C204.3,255,204.6,254.9,205,254.9z"/>
			<path class="st4" d="M206.7,253.4c0-0.2,0.1-0.4,0.2-0.5c0.1-0.1,0.3-0.2,0.5-0.2c0.2,0,0.4,0.1,0.5,0.2c0.1,0.1,0.2,0.3,0.2,0.5
				c0,0.2-0.1,0.4-0.2,0.5s-0.3,0.2-0.5,0.2c-0.2,0-0.4-0.1-0.5-0.2C206.7,253.8,206.7,253.7,206.7,253.4z M208,261.1h-1.3v-6h1.3
				V261.1z"/>
			<path class="st4" d="M212.3,261.2c-0.9,0-1.6-0.3-2.1-0.8c-0.5-0.5-0.7-1.3-0.7-2.3c0-1,0.2-1.8,0.7-2.3c0.5-0.5,1.2-0.8,2.1-0.8
				c0.6,0,1.2,0.1,1.7,0.4l-0.4,1c-0.5-0.2-1-0.3-1.3-0.3c-1,0-1.6,0.7-1.6,2.1c0,0.7,0.1,1.2,0.4,1.5c0.3,0.3,0.6,0.5,1.1,0.5
				c0.6,0,1.1-0.1,1.6-0.4v1.1c-0.2,0.1-0.5,0.2-0.7,0.3C213,261.1,212.6,261.2,212.3,261.2z"/>
			<path class="st4" d="M218,261.2c-0.9,0-1.7-0.3-2.2-0.8c-0.5-0.5-0.8-1.3-0.8-2.3c0-1,0.2-1.8,0.7-2.3c0.5-0.6,1.2-0.8,2-0.8
				c0.8,0,1.4,0.2,1.9,0.7c0.5,0.5,0.7,1.1,0.7,2v0.7h-4c0,0.6,0.2,1,0.5,1.3c0.3,0.3,0.7,0.5,1.3,0.5c0.4,0,0.7,0,1-0.1
				c0.3-0.1,0.6-0.2,1-0.3v1c-0.3,0.1-0.6,0.3-0.9,0.3C218.8,261.1,218.4,261.2,218,261.2z M217.8,255.9c-0.4,0-0.7,0.1-1,0.4
				c-0.2,0.3-0.4,0.6-0.4,1.1h2.7c0-0.5-0.1-0.9-0.4-1.1C218.5,256,218.2,255.9,217.8,255.9z"/>
		</g>
		<g class="st3">
			<path class="st4" d="M193.4,275.1c0,0.6-0.2,1-0.6,1.4c-0.4,0.3-1,0.5-1.8,0.5c-0.8,0-1.4-0.1-1.9-0.4v-1.1
				c0.7,0.3,1.4,0.5,2,0.5c0.8,0,1.2-0.2,1.2-0.7c0-0.2,0-0.3-0.1-0.4c-0.1-0.1-0.2-0.2-0.4-0.3c-0.2-0.1-0.5-0.2-0.8-0.4
				c-0.7-0.3-1.2-0.5-1.4-0.8c-0.2-0.3-0.4-0.6-0.4-1c0-0.5,0.2-0.9,0.6-1.2c0.4-0.3,1-0.4,1.7-0.4c0.7,0,1.4,0.1,2,0.4l-0.4,1
				c-0.6-0.3-1.2-0.4-1.6-0.4c-0.7,0-1,0.2-1,0.6c0,0.2,0.1,0.3,0.3,0.5c0.2,0.1,0.6,0.3,1.2,0.5c0.5,0.2,0.9,0.4,1.1,0.5
				s0.4,0.3,0.5,0.6C193.3,274.5,193.4,274.8,193.4,275.1z"/>
			<path class="st4" d="M197.2,276.9c-0.9,0-1.6-0.3-2.1-0.8c-0.5-0.5-0.7-1.3-0.7-2.3c0-1,0.2-1.8,0.7-2.3c0.5-0.5,1.2-0.8,2.1-0.8
				c0.6,0,1.2,0.1,1.7,0.4l-0.4,1c-0.5-0.2-1-0.3-1.3-0.3c-1,0-1.6,0.7-1.6,2.1c0,0.7,0.1,1.2,0.4,1.5c0.3,0.3,0.6,0.5,1.1,0.5
				c0.6,0,1.1-0.1,1.6-0.4v1.1c-0.2,0.1-0.5,0.2-0.7,0.3C197.9,276.9,197.6,276.9,197.2,276.9z"/>
			<path class="st4" d="M203.4,270.6c0.3,0,0.5,0,0.6,0.1l-0.1,1.2c-0.2,0-0.4-0.1-0.6-0.1c-0.5,0-0.9,0.2-1.2,0.5
				c-0.3,0.3-0.5,0.8-0.5,1.3v3.1h-1.3v-6h1l0.2,1.1h0.1c0.2-0.4,0.5-0.6,0.8-0.9C202.6,270.7,203,270.6,203.4,270.6z"/>
			<path class="st4" d="M207.7,276.9c-0.9,0-1.7-0.3-2.2-0.8c-0.5-0.5-0.8-1.3-0.8-2.3c0-1,0.2-1.8,0.7-2.3c0.5-0.6,1.2-0.8,2-0.8
				c0.8,0,1.4,0.2,1.9,0.7c0.5,0.5,0.7,1.1,0.7,2v0.7h-4c0,0.6,0.2,1,0.5,1.3c0.3,0.3,0.7,0.5,1.3,0.5c0.4,0,0.7,0,1-0.1
				c0.3-0.1,0.6-0.2,1-0.3v1c-0.3,0.1-0.6,0.3-0.9,0.3C208.5,276.8,208.1,276.9,207.7,276.9z M207.5,271.6c-0.4,0-0.7,0.1-1,0.4
				c-0.2,0.3-0.4,0.6-0.4,1.1h2.7c0-0.5-0.1-0.9-0.4-1.1C208.2,271.7,207.9,271.6,207.5,271.6z"/>
			<path class="st4" d="M214.2,276.9c-0.9,0-1.7-0.3-2.2-0.8c-0.5-0.5-0.8-1.3-0.8-2.3c0-1,0.2-1.8,0.7-2.3c0.5-0.6,1.2-0.8,2-0.8
				c0.8,0,1.4,0.2,1.9,0.7c0.5,0.5,0.7,1.1,0.7,2v0.7h-4c0,0.6,0.2,1,0.5,1.3c0.3,0.3,0.7,0.5,1.3,0.5c0.4,0,0.7,0,1-0.1
				c0.3-0.1,0.6-0.2,1-0.3v1c-0.3,0.1-0.6,0.3-0.9,0.3C214.9,276.8,214.6,276.9,214.2,276.9z M213.9,271.6c-0.4,0-0.7,0.1-1,0.4
				c-0.2,0.3-0.4,0.6-0.4,1.1h2.7c0-0.5-0.1-0.9-0.4-1.1C214.7,271.7,214.3,271.6,213.9,271.6z"/>
			<path class="st4" d="M223.3,276.8H222v-3.7c0-0.5-0.1-0.8-0.3-1s-0.5-0.3-0.9-0.3c-0.5,0-0.9,0.2-1.2,0.5
				c-0.3,0.3-0.4,0.9-0.4,1.6v3H218v-6h1l0.2,0.8h0.1c0.2-0.3,0.4-0.5,0.8-0.7c0.3-0.2,0.7-0.2,1.1-0.2c1.4,0,2.2,0.7,2.2,2.2V276.8
				z"/>
			<path class="st4" d="M229.1,275.1c0,0.6-0.2,1-0.6,1.4c-0.4,0.3-1,0.5-1.8,0.5c-0.8,0-1.4-0.1-1.9-0.4v-1.1
				c0.7,0.3,1.4,0.5,2,0.5c0.8,0,1.2-0.2,1.2-0.7c0-0.2,0-0.3-0.1-0.4c-0.1-0.1-0.2-0.2-0.4-0.3c-0.2-0.1-0.5-0.2-0.8-0.4
				c-0.7-0.3-1.2-0.5-1.4-0.8c-0.2-0.3-0.4-0.6-0.4-1c0-0.5,0.2-0.9,0.6-1.2c0.4-0.3,1-0.4,1.7-0.4c0.7,0,1.4,0.1,2,0.4l-0.4,1
				c-0.6-0.3-1.2-0.4-1.6-0.4c-0.7,0-1,0.2-1,0.6c0,0.2,0.1,0.3,0.3,0.5c0.2,0.1,0.6,0.3,1.2,0.5c0.5,0.2,0.9,0.4,1.1,0.5
				s0.4,0.3,0.5,0.6C229,274.5,229.1,274.8,229.1,275.1z"/>
		</g>
		<g class="st3">
			<path class="st4" d="M190,315h-4.5v-8h4.5v1.1h-3.2v2.2h3v1.1h-3v2.5h3.2V315z"/>
			<path class="st4" d="M194.6,309.9h-1.5v5.1h-1.3v-5.1h-1v-0.6l1-0.4v-0.4c0-0.7,0.2-1.2,0.5-1.6c0.3-0.3,0.8-0.5,1.5-0.5
				c0.5,0,0.9,0.1,1.3,0.2l-0.3,1c-0.3-0.1-0.6-0.2-0.9-0.2c-0.3,0-0.5,0.1-0.6,0.3c-0.1,0.2-0.2,0.5-0.2,0.8v0.4h1.5V309.9z
				 M198.6,309.9h-1.5v5.1h-1.3v-5.1h-1v-0.6l1-0.4v-0.4c0-0.7,0.2-1.2,0.5-1.6c0.3-0.3,0.8-0.5,1.5-0.5c0.5,0,0.9,0.1,1.3,0.2
				l-0.3,1c-0.3-0.1-0.6-0.2-0.9-0.2c-0.3,0-0.5,0.1-0.6,0.3c-0.1,0.2-0.2,0.5-0.2,0.8v0.4h1.5V309.9z"/>
			<path class="st4" d="M202.3,315.1c-0.9,0-1.7-0.3-2.2-0.8c-0.5-0.5-0.8-1.3-0.8-2.3c0-1,0.2-1.8,0.7-2.3c0.5-0.6,1.2-0.8,2-0.8
				c0.8,0,1.4,0.2,1.9,0.7c0.5,0.5,0.7,1.1,0.7,2v0.7h-4c0,0.6,0.2,1,0.5,1.3c0.3,0.3,0.7,0.5,1.3,0.5c0.4,0,0.7,0,1-0.1
				c0.3-0.1,0.6-0.2,1-0.3v1c-0.3,0.1-0.6,0.3-0.9,0.3C203.1,315.1,202.7,315.1,202.3,315.1z M202.1,309.8c-0.4,0-0.7,0.1-1,0.4
				c-0.2,0.3-0.4,0.6-0.4,1.1h2.7c0-0.5-0.1-0.9-0.4-1.1C202.8,310,202.5,309.8,202.1,309.8z"/>
			<path class="st4" d="M208.5,315.1c-0.9,0-1.6-0.3-2.1-0.8c-0.5-0.5-0.7-1.3-0.7-2.3c0-1,0.2-1.8,0.7-2.3c0.5-0.5,1.2-0.8,2.1-0.8
				c0.6,0,1.2,0.1,1.7,0.4l-0.4,1c-0.5-0.2-1-0.3-1.3-0.3c-1,0-1.6,0.7-1.6,2.1c0,0.7,0.1,1.2,0.4,1.5c0.3,0.3,0.6,0.5,1.1,0.5
				c0.6,0,1.1-0.1,1.6-0.4v1.1c-0.2,0.1-0.5,0.2-0.7,0.3C209.2,315.1,208.9,315.1,208.5,315.1z"/>
			<path class="st4" d="M213.9,314.1c0.3,0,0.6,0,0.9-0.1v1c-0.1,0.1-0.3,0.1-0.5,0.2s-0.5,0.1-0.7,0.1c-1.2,0-1.8-0.6-1.8-1.9v-3.2
				h-0.8v-0.6l0.9-0.5l0.4-1.3h0.8v1.3h1.7v1H213v3.2c0,0.3,0.1,0.5,0.2,0.7C213.4,314,213.6,314.1,213.9,314.1z"/>
			<path class="st4" d="M215.9,307.4c0-0.2,0.1-0.4,0.2-0.5c0.1-0.1,0.3-0.2,0.5-0.2c0.2,0,0.4,0.1,0.5,0.2c0.1,0.1,0.2,0.3,0.2,0.5
				c0,0.2-0.1,0.4-0.2,0.5c-0.1,0.1-0.3,0.2-0.5,0.2c-0.2,0-0.4-0.1-0.5-0.2C216,307.8,215.9,307.6,215.9,307.4z M217.3,315H216v-6
				h1.3V315z"/>
			<path class="st4" d="M220.5,315l-2.3-6h1.4l1.2,3.5c0.2,0.6,0.3,1.1,0.4,1.4h0c0-0.3,0.2-0.7,0.4-1.4l1.2-3.5h1.4l-2.3,6H220.5z"
				/>
			<path class="st4" d="M227.7,315.1c-0.9,0-1.7-0.3-2.2-0.8c-0.5-0.5-0.8-1.3-0.8-2.3c0-1,0.2-1.8,0.7-2.3c0.5-0.6,1.2-0.8,2-0.8
				c0.8,0,1.4,0.2,1.9,0.7c0.5,0.5,0.7,1.1,0.7,2v0.7h-4c0,0.6,0.2,1,0.5,1.3c0.3,0.3,0.7,0.5,1.3,0.5c0.4,0,0.7,0,1-0.1
				c0.3-0.1,0.6-0.2,1-0.3v1c-0.3,0.1-0.6,0.3-0.9,0.3C228.5,315.1,228.1,315.1,227.7,315.1z M227.5,309.8c-0.4,0-0.7,0.1-1,0.4
				c-0.2,0.3-0.4,0.6-0.4,1.1h2.7c0-0.5-0.1-0.9-0.4-1.1C228.2,310,227.9,309.8,227.5,309.8z"/>
		</g>
		<g class="st3">
			<path class="st4" d="M181.5,330.8c-0.8,0-1.3-0.3-1.8-0.8c-0.4-0.5-0.6-1.3-0.6-2.3c0-1,0.2-1.8,0.6-2.3c0.4-0.5,1-0.8,1.8-0.8
				c0.8,0,1.4,0.3,1.8,0.9h0.1c-0.1-0.4-0.1-0.8-0.1-1v-2.2h1.3v8.5h-1l-0.2-0.8h-0.1C182.9,330.5,182.3,330.8,181.5,330.8z
				 M181.9,329.8c0.5,0,0.9-0.1,1.1-0.4c0.2-0.3,0.4-0.8,0.4-1.4v-0.2c0-0.8-0.1-1.3-0.4-1.6c-0.2-0.3-0.6-0.5-1.2-0.5
				c-0.5,0-0.8,0.2-1,0.5s-0.4,0.9-0.4,1.6c0,0.7,0.1,1.2,0.4,1.5C181,329.6,181.4,329.8,181.9,329.8z"/>
			<path class="st4" d="M190.7,330.7l-0.2-0.8h-0.1c-0.2,0.3-0.4,0.5-0.8,0.7c-0.3,0.2-0.7,0.2-1.1,0.2c-0.7,0-1.3-0.2-1.6-0.5
				c-0.4-0.4-0.5-0.9-0.5-1.6v-3.9h1.3v3.7c0,0.5,0.1,0.8,0.3,1c0.2,0.2,0.5,0.3,0.9,0.3c0.5,0,0.9-0.2,1.2-0.5
				c0.3-0.3,0.4-0.9,0.4-1.6v-3h1.3v6H190.7z"/>
			<path class="st4" d="M196.6,324.6c0.3,0,0.5,0,0.6,0.1l-0.1,1.2c-0.2,0-0.4-0.1-0.6-0.1c-0.5,0-0.9,0.2-1.2,0.5
				c-0.3,0.3-0.5,0.8-0.5,1.3v3.1h-1.3v-6h1l0.2,1.1h0.1c0.2-0.4,0.5-0.6,0.8-0.9C195.9,324.7,196.2,324.6,196.6,324.6z"/>
			<path class="st4" d="M202.1,330.7l-0.3-0.8h0c-0.3,0.4-0.6,0.6-0.9,0.8s-0.7,0.2-1.1,0.2c-0.6,0-1.1-0.2-1.4-0.5
				c-0.3-0.3-0.5-0.8-0.5-1.4c0-0.6,0.2-1.1,0.7-1.4c0.5-0.3,1.2-0.5,2.1-0.5l1,0v-0.3c0-0.4-0.1-0.7-0.3-0.9
				c-0.2-0.2-0.5-0.3-0.8-0.3c-0.3,0-0.6,0-0.9,0.1c-0.3,0.1-0.6,0.2-0.8,0.3l-0.4-0.9c0.3-0.2,0.7-0.3,1.1-0.4s0.8-0.1,1.1-0.1
				c0.8,0,1.3,0.2,1.7,0.5c0.4,0.3,0.6,0.9,0.6,1.6v4.1H202.1z M200.2,329.8c0.5,0,0.8-0.1,1.1-0.4s0.4-0.6,0.4-1.1v-0.5l-0.8,0
				c-0.6,0-1,0.1-1.3,0.3c-0.3,0.2-0.4,0.5-0.4,0.8c0,0.3,0.1,0.5,0.2,0.6C199.6,329.8,199.9,329.8,200.2,329.8z"/>
			<path class="st4" d="M207,329.8c0.3,0,0.6,0,0.9-0.1v1c-0.1,0.1-0.3,0.1-0.5,0.2c-0.2,0-0.5,0.1-0.7,0.1c-1.2,0-1.8-0.6-1.8-1.9
				v-3.2h-0.8v-0.6l0.9-0.5l0.4-1.3h0.8v1.3h1.7v1h-1.7v3.2c0,0.3,0.1,0.5,0.2,0.7C206.6,329.7,206.8,329.8,207,329.8z"/>
			<path class="st4" d="M209.1,323.1c0-0.2,0.1-0.4,0.2-0.5c0.1-0.1,0.3-0.2,0.5-0.2c0.2,0,0.4,0.1,0.5,0.2c0.1,0.1,0.2,0.3,0.2,0.5
				c0,0.2-0.1,0.4-0.2,0.5s-0.3,0.2-0.5,0.2c-0.2,0-0.4-0.1-0.5-0.2C209.2,323.5,209.1,323.3,209.1,323.1z M210.5,330.7h-1.3v-6h1.3
				V330.7z"/>
			<path class="st4" d="M217.6,327.7c0,1-0.3,1.8-0.8,2.3c-0.5,0.6-1.2,0.8-2.1,0.8c-0.6,0-1.1-0.1-1.5-0.4c-0.4-0.3-0.8-0.6-1-1.1
				c-0.2-0.5-0.3-1-0.3-1.7c0-1,0.3-1.7,0.8-2.3c0.5-0.5,1.2-0.8,2.1-0.8c0.9,0,1.6,0.3,2.1,0.8C217.4,326,217.6,326.7,217.6,327.7z
				 M213.3,327.7c0,1.4,0.5,2.1,1.5,2.1c1,0,1.5-0.7,1.5-2.1c0-1.4-0.5-2.1-1.5-2.1c-0.5,0-0.9,0.2-1.2,0.5
				C213.4,326.5,213.3,327,213.3,327.7z"/>
			<path class="st4" d="M224.4,330.7h-1.3V327c0-0.5-0.1-0.8-0.3-1s-0.5-0.3-0.9-0.3c-0.5,0-0.9,0.2-1.2,0.5
				c-0.3,0.3-0.4,0.9-0.4,1.6v3h-1.3v-6h1l0.2,0.8h0.1c0.2-0.3,0.4-0.5,0.8-0.7s0.7-0.2,1.1-0.2c1.4,0,2.2,0.7,2.2,2.2V330.7z"/>
			<path class="st4" d="M228.7,328.6c0-0.5,0.1-0.9,0.3-1.2s0.7-0.7,1.3-1.1c-0.3-0.4-0.6-0.7-0.7-1c-0.1-0.3-0.2-0.6-0.2-0.9
				c0-0.6,0.2-1,0.6-1.3s0.9-0.5,1.6-0.5c0.6,0,1.1,0.2,1.5,0.5c0.4,0.3,0.6,0.7,0.6,1.3c0,0.4-0.1,0.8-0.4,1.1
				c-0.2,0.3-0.7,0.7-1.2,1l1.9,1.8c0.3-0.4,0.5-1,0.7-1.7h1.3c-0.3,1-0.7,1.9-1.2,2.5l1.6,1.6h-1.7l-0.8-0.8
				c-0.4,0.3-0.8,0.5-1.2,0.7c-0.4,0.2-0.9,0.2-1.4,0.2c-0.8,0-1.5-0.2-2-0.6C228.9,329.8,228.7,329.3,228.7,328.6z M231.4,329.7
				c0.7,0,1.2-0.2,1.7-0.6l-2.1-2.1c-0.4,0.2-0.7,0.5-0.8,0.7c-0.1,0.2-0.2,0.5-0.2,0.7c0,0.4,0.1,0.6,0.4,0.9
				C230.7,329.6,231,329.7,231.4,329.7z M230.6,324.5c0,0.2,0.1,0.4,0.2,0.6c0.1,0.2,0.3,0.4,0.5,0.6c0.4-0.2,0.7-0.4,0.9-0.7
				c0.2-0.2,0.2-0.4,0.2-0.7c0-0.2-0.1-0.4-0.2-0.6c-0.2-0.1-0.4-0.2-0.6-0.2c-0.3,0-0.5,0.1-0.7,0.2
				C230.7,324,230.6,324.2,230.6,324.5z"/>
		</g>
		<g class="st3">
			<path class="st4" d="M169.4,346.3h-1.3v-3.7c0-0.5-0.1-0.8-0.3-1c-0.2-0.2-0.4-0.3-0.8-0.3c-0.5,0-0.9,0.2-1.1,0.5
				c-0.2,0.3-0.3,0.9-0.3,1.6v3h-1.3v-6h1l0.2,0.8h0.1c0.2-0.3,0.4-0.5,0.7-0.7c0.3-0.2,0.7-0.2,1-0.2c0.9,0,1.5,0.3,1.8,0.9h0.1
				c0.2-0.3,0.4-0.5,0.8-0.7c0.3-0.2,0.7-0.3,1.1-0.3c0.7,0,1.2,0.2,1.6,0.5c0.3,0.4,0.5,0.9,0.5,1.7v3.9h-1.3v-3.7
				c0-0.5-0.1-0.8-0.3-1c-0.2-0.2-0.4-0.3-0.8-0.3c-0.5,0-0.9,0.2-1.1,0.5c-0.2,0.3-0.3,0.8-0.3,1.4V346.3z"/>
			<path class="st4" d="M178.8,346.3l-0.3-0.8h0c-0.3,0.4-0.6,0.6-0.9,0.8c-0.3,0.1-0.7,0.2-1.1,0.2c-0.6,0-1.1-0.2-1.4-0.5
				c-0.3-0.3-0.5-0.8-0.5-1.4c0-0.6,0.2-1.1,0.7-1.4c0.5-0.3,1.2-0.5,2.1-0.5l1,0v-0.3c0-0.4-0.1-0.7-0.3-0.9
				c-0.2-0.2-0.5-0.3-0.8-0.3c-0.3,0-0.6,0-0.9,0.1c-0.3,0.1-0.6,0.2-0.8,0.3l-0.4-0.9c0.3-0.2,0.7-0.3,1.1-0.4
				c0.4-0.1,0.8-0.1,1.1-0.1c0.8,0,1.3,0.2,1.7,0.5c0.4,0.3,0.6,0.9,0.6,1.6v4.1H178.8z M176.9,345.4c0.5,0,0.8-0.1,1.1-0.4
				c0.3-0.3,0.4-0.6,0.4-1.1v-0.5l-0.8,0c-0.6,0-1,0.1-1.3,0.3c-0.3,0.2-0.4,0.5-0.4,0.8c0,0.3,0.1,0.5,0.2,0.6
				C176.3,345.3,176.6,345.4,176.9,345.4z"/>
			<path class="st4" d="M183.7,345.3c0.3,0,0.6,0,0.9-0.1v1c-0.1,0.1-0.3,0.1-0.5,0.2c-0.2,0-0.5,0.1-0.7,0.1
				c-1.2,0-1.8-0.6-1.8-1.9v-3.2h-0.8v-0.6l0.9-0.5l0.4-1.3h0.8v1.3h1.7v1h-1.7v3.2c0,0.3,0.1,0.5,0.2,0.7
				C183.3,345.3,183.5,345.3,183.7,345.3z"/>
			<path class="st4" d="M190.1,346.3l-0.2-0.8h-0.1c-0.2,0.3-0.4,0.5-0.8,0.7c-0.3,0.2-0.7,0.2-1.1,0.2c-0.7,0-1.3-0.2-1.6-0.5
				c-0.4-0.4-0.5-0.9-0.5-1.6v-3.9h1.3v3.7c0,0.5,0.1,0.8,0.3,1c0.2,0.2,0.5,0.3,0.9,0.3c0.5,0,0.9-0.2,1.2-0.5
				c0.3-0.3,0.4-0.9,0.4-1.6v-3h1.3v6H190.1z"/>
			<path class="st4" d="M196,340.1c0.3,0,0.5,0,0.6,0.1l-0.1,1.2c-0.2,0-0.4-0.1-0.6-0.1c-0.5,0-0.9,0.2-1.2,0.5
				c-0.3,0.3-0.5,0.8-0.5,1.3v3.1H193v-6h1l0.2,1.1h0.1c0.2-0.4,0.5-0.6,0.8-0.9C195.3,340.2,195.6,340.1,196,340.1z"/>
			<path class="st4" d="M197.7,338.7c0-0.2,0.1-0.4,0.2-0.5c0.1-0.1,0.3-0.2,0.5-0.2c0.2,0,0.4,0.1,0.5,0.2c0.1,0.1,0.2,0.3,0.2,0.5
				c0,0.2-0.1,0.4-0.2,0.5c-0.1,0.1-0.3,0.2-0.5,0.2c-0.2,0-0.4-0.1-0.5-0.2C197.7,339,197.7,338.9,197.7,338.7z M199,346.3h-1.3v-6
				h1.3V346.3z"/>
			<path class="st4" d="M203.1,345.3c0.3,0,0.6,0,0.9-0.1v1c-0.1,0.1-0.3,0.1-0.5,0.2s-0.5,0.1-0.7,0.1c-1.2,0-1.8-0.6-1.8-1.9v-3.2
				h-0.8v-0.6l0.9-0.5l0.4-1.3h0.8v1.3h1.7v1h-1.7v3.2c0,0.3,0.1,0.5,0.2,0.7C202.7,345.3,202.9,345.3,203.1,345.3z"/>
			<path class="st4" d="M204.3,340.2h1.4l1.2,3.4c0.2,0.5,0.3,0.9,0.4,1.4h0c0-0.2,0.1-0.4,0.2-0.7c0.1-0.3,0.5-1.6,1.4-4.1h1.4
				l-2.6,6.8c-0.5,1.3-1.2,1.9-2.3,1.9c-0.3,0-0.6,0-0.8-0.1v-1c0.2,0,0.4,0.1,0.7,0.1c0.6,0,1.1-0.4,1.3-1.1l0.2-0.6L204.3,340.2z"
				/>
			<path class="st4" d="M218.2,344.6c0,0.6-0.2,1-0.6,1.4c-0.4,0.3-1,0.5-1.8,0.5c-0.8,0-1.4-0.1-1.9-0.4v-1.1
				c0.7,0.3,1.4,0.5,2,0.5c0.8,0,1.2-0.2,1.2-0.7c0-0.2,0-0.3-0.1-0.4c-0.1-0.1-0.2-0.2-0.4-0.3c-0.2-0.1-0.5-0.2-0.8-0.4
				c-0.7-0.3-1.2-0.5-1.4-0.8c-0.2-0.3-0.4-0.6-0.4-1c0-0.5,0.2-0.9,0.6-1.2c0.4-0.3,1-0.4,1.7-0.4c0.7,0,1.4,0.1,2,0.4l-0.4,1
				c-0.6-0.3-1.2-0.4-1.6-0.4c-0.7,0-1,0.2-1,0.6c0,0.2,0.1,0.3,0.3,0.5c0.2,0.1,0.6,0.3,1.2,0.5c0.5,0.2,0.9,0.4,1.1,0.5
				c0.2,0.2,0.4,0.3,0.5,0.6C218.1,344,218.2,344.3,218.2,344.6z"/>
			<path class="st4" d="M222,346.4c-0.9,0-1.6-0.3-2.1-0.8c-0.5-0.5-0.7-1.3-0.7-2.3c0-1,0.2-1.8,0.7-2.3c0.5-0.5,1.2-0.8,2.1-0.8
				c0.6,0,1.2,0.1,1.7,0.4l-0.4,1c-0.5-0.2-1-0.3-1.3-0.3c-1,0-1.6,0.7-1.6,2.1c0,0.7,0.1,1.2,0.4,1.5c0.3,0.3,0.6,0.5,1.1,0.5
				c0.6,0,1.1-0.1,1.6-0.4v1.1c-0.2,0.1-0.5,0.2-0.7,0.3C222.7,346.4,222.4,346.4,222,346.4z"/>
			<path class="st4" d="M228.1,340.1c0.3,0,0.5,0,0.6,0.1l-0.1,1.2c-0.2,0-0.4-0.1-0.6-0.1c-0.5,0-0.9,0.2-1.2,0.5
				c-0.3,0.3-0.5,0.8-0.5,1.3v3.1h-1.3v-6h1l0.2,1.1h0.1c0.2-0.4,0.5-0.6,0.8-0.9C227.4,340.2,227.8,340.1,228.1,340.1z"/>
			<path class="st4" d="M232.5,346.4c-0.9,0-1.7-0.3-2.2-0.8c-0.5-0.5-0.8-1.3-0.8-2.3c0-1,0.2-1.8,0.7-2.3c0.5-0.6,1.2-0.8,2-0.8
				c0.8,0,1.4,0.2,1.9,0.7s0.7,1.1,0.7,2v0.7h-4c0,0.6,0.2,1,0.5,1.3c0.3,0.3,0.7,0.5,1.3,0.5c0.4,0,0.7,0,1-0.1
				c0.3-0.1,0.6-0.2,1-0.3v1c-0.3,0.1-0.6,0.3-0.9,0.3C233.3,346.3,232.9,346.4,232.5,346.4z M232.3,341.1c-0.4,0-0.7,0.1-1,0.4
				c-0.2,0.3-0.4,0.6-0.4,1.1h2.7c0-0.5-0.1-0.9-0.4-1.1C233,341.2,232.7,341.1,232.3,341.1z"/>
			<path class="st4" d="M239,346.4c-0.9,0-1.7-0.3-2.2-0.8c-0.5-0.5-0.8-1.3-0.8-2.3c0-1,0.2-1.8,0.7-2.3c0.5-0.6,1.2-0.8,2-0.8
				c0.8,0,1.4,0.2,1.9,0.7c0.5,0.5,0.7,1.1,0.7,2v0.7h-4c0,0.6,0.2,1,0.5,1.3c0.3,0.3,0.7,0.5,1.3,0.5c0.4,0,0.7,0,1-0.1
				s0.6-0.2,1-0.3v1c-0.3,0.1-0.6,0.3-0.9,0.3C239.7,346.3,239.4,346.4,239,346.4z M238.7,341.1c-0.4,0-0.7,0.1-1,0.4
				c-0.2,0.3-0.4,0.6-0.4,1.1h2.7c0-0.5-0.1-0.9-0.4-1.1C239.5,341.2,239.1,341.1,238.7,341.1z"/>
			<path class="st4" d="M248.1,346.3h-1.3v-3.7c0-0.5-0.1-0.8-0.3-1c-0.2-0.2-0.5-0.3-0.9-0.3c-0.5,0-0.9,0.2-1.2,0.5
				s-0.4,0.9-0.4,1.6v3h-1.3v-6h1l0.2,0.8h0.1c0.2-0.3,0.4-0.5,0.8-0.7c0.3-0.2,0.7-0.2,1.1-0.2c1.4,0,2.2,0.7,2.2,2.2V346.3z"/>
			<path class="st4" d="M253.9,344.6c0,0.6-0.2,1-0.6,1.4c-0.4,0.3-1,0.5-1.8,0.5c-0.8,0-1.4-0.1-1.9-0.4v-1.1
				c0.7,0.3,1.4,0.5,2,0.5c0.8,0,1.2-0.2,1.2-0.7c0-0.2,0-0.3-0.1-0.4c-0.1-0.1-0.2-0.2-0.4-0.3c-0.2-0.1-0.5-0.2-0.8-0.4
				c-0.7-0.3-1.2-0.5-1.4-0.8c-0.2-0.3-0.4-0.6-0.4-1c0-0.5,0.2-0.9,0.6-1.2c0.4-0.3,1-0.4,1.7-0.4c0.7,0,1.4,0.1,2,0.4l-0.4,1
				c-0.6-0.3-1.2-0.4-1.6-0.4c-0.7,0-1,0.2-1,0.6c0,0.2,0.1,0.3,0.3,0.5c0.2,0.1,0.6,0.3,1.2,0.5c0.5,0.2,0.9,0.4,1.1,0.5
				c0.2,0.2,0.4,0.3,0.5,0.6C253.8,344,253.9,344.3,253.9,344.6z"/>
		</g>
	</g>
</g>
</svg>
