<?xml version="1.0" encoding="utf-8"?>
<!-- Generator: Adobe Illustrator 24.3.0, SVG Export Plug-In . SVG Version: 6.00 Build 0)  -->
<svg version="1.1" id="Layer_1" xmlns="http://www.w3.org/2000/svg" xmlns:xlink="http://www.w3.org/1999/xlink" x="0px" y="0px"
	 viewBox="0 0 1000 550" style="enable-background:new 0 0 1000 550;" xml:space="preserve">
<style type="text/css">
	.st0{fill:#FFFFFF;}
	.st1{fill:none;stroke:#00B9EE;stroke-width:1.4415;stroke-linecap:round;stroke-linejoin:round;stroke-miterlimit:10;}
	.st2{fill:#284D95;}
	.st3{enable-background:new    ;}
	.st4{fill:url(#SVGID_1_);}
	.st5{fill:url(#SVGID_2_);}
	.st6{fill:#D1D8DD;}
</style>
<rect class="st0" width="1000" height="550"/>
<g>
	<g>
		<line class="st1" x1="395.1" y1="275" x2="800.8" y2="275"/>
	</g>
	<g>
		<circle class="st2" cx="81" cy="275" r="68.9"/>
		<polygon class="st2" points="194.5,275 172.4,267.1 172.4,283 		"/>
		<g>
			<path class="st2" d="M179.8,276.8h-18.9c-0.9,0-1.8-0.8-1.8-1.8c0-0.9,0.8-1.8,1.8-1.8h18.9c0.9,0,1.8,0.8,1.8,1.8
				C181.6,275.9,180.7,276.8,179.8,276.8z"/>
		</g>
		<g class="st3">
			<path class="st0" d="M68.7,266.1c0,1.3-0.5,2.4-1.4,3.1c-0.9,0.7-2.2,1.1-3.9,1.1c-1.7,0-3-0.2-4-0.8v-2.2
				c0.7,0.4,1.4,0.6,2.1,0.7c0.7,0.2,1.4,0.2,2.1,0.2c0.9,0,1.7-0.2,2.1-0.6c0.5-0.4,0.7-0.8,0.7-1.4c0-0.6-0.2-1.1-0.6-1.4
				c-0.4-0.4-1.3-0.8-2.6-1.3c-1.3-0.6-2.2-1.2-2.8-1.9s-0.8-1.5-0.8-2.5c0-1.2,0.5-2.1,1.3-2.8c0.8-0.7,2-1.1,3.4-1.1
				c1.4,0,2.8,0.4,4.1,0.9l-0.7,1.9c-1.3-0.6-2.5-0.8-3.4-0.8c-0.8,0-1.3,0.1-1.8,0.5c-0.4,0.4-0.6,0.8-0.6,1.3
				c0,0.4,0.1,0.7,0.2,0.9c0.1,0.2,0.5,0.5,0.8,0.7c0.4,0.2,1.1,0.6,2,0.9c1.1,0.5,1.9,0.8,2.4,1.3c0.5,0.4,0.8,0.8,1.1,1.3
				C68.6,264.8,68.7,265.4,68.7,266.1z"/>
			<path class="st0" d="M70.5,266.2c0-0.8,0.2-1.7,0.6-2.2c0.5-0.6,1.2-1.3,2.4-1.9c-0.6-0.7-1.1-1.4-1.3-1.9
				c-0.2-0.5-0.4-1.1-0.4-1.5c0-1.1,0.4-1.8,1.1-2.4c0.7-0.6,1.7-0.8,3-0.8c1.2,0,2.1,0.2,2.7,0.8c0.7,0.6,1.1,1.3,1.1,2.2
				c0,0.7-0.2,1.4-0.7,2c-0.5,0.6-1.2,1.2-2.2,1.9l3.4,3.3c0.6-0.7,0.9-1.8,1.3-3.2h2.4c-0.5,1.9-1.2,3.4-2.2,4.6l3,3h-2.7l-1.5-1.4
				c-0.7,0.6-1.4,0.9-2.1,1.2c-0.8,0.2-1.7,0.5-2.6,0.5c-1.5,0-2.7-0.4-3.6-1.1C71,268.5,70.5,267.4,70.5,266.2z M75.6,268.3
				c1.2,0,2.2-0.4,3.1-1.1l-3.8-3.8c-0.7,0.5-1.2,0.8-1.4,1.3c-0.2,0.5-0.4,0.8-0.4,1.3c0,0.7,0.2,1.2,0.7,1.5
				C74.2,268,74.8,268.3,75.6,268.3z M74.1,258.7c0,0.5,0.1,0.8,0.4,1.2c0.2,0.4,0.6,0.8,0.9,1.2c0.7-0.5,1.3-0.8,1.5-1.2
				c0.4-0.4,0.5-0.8,0.5-1.3s-0.1-0.8-0.5-1.1c-0.2-0.2-0.7-0.4-1.2-0.4c-0.5,0-0.9,0.1-1.3,0.4C74.3,257.8,74.1,258.2,74.1,258.7z"
				/>
			<path class="st0" d="M96.3,259.8c0,1.5-0.5,2.7-1.5,3.6c-0.9,0.8-2.4,1.2-4.3,1.2H89v5.4h-2.4v-14.6h4.3c1.8,0,3.2,0.4,4.1,1.1
				C96,257.4,96.3,258.4,96.3,259.8z M89.1,262.6h1.3c1.2,0,2.1-0.2,2.7-0.6c0.6-0.5,0.8-1.1,0.8-2c0-0.8-0.2-1.4-0.8-1.9
				c-0.5-0.4-1.3-0.6-2.4-0.6h-1.7V262.6z"/>
		</g>
		<g class="st3">
			<path class="st0" d="M63.9,285.5c1.4,0,2.6,0.4,3.6,1.2c0.8,0.8,1.3,1.9,1.3,3.2c0,1.5-0.5,2.7-1.4,3.7c-0.9,0.8-2.4,1.3-4.1,1.3
				c-1.7,0-3-0.2-3.9-0.8v-2.1c0.6,0.4,1.2,0.6,1.9,0.7c0.7,0.1,1.3,0.2,1.9,0.2c1.1,0,1.9-0.2,2.4-0.7c0.6-0.5,0.8-1.2,0.8-2.1
				c0-1.8-1.1-2.6-3.3-2.6c-0.4,0-0.7,0-1.2,0.1c-0.5,0.1-0.8,0.1-1.2,0.2l-1.1-0.6l0.6-7.1h7.6v2.1h-5.6l-0.4,3.7
				c0.2,0,0.5-0.1,0.8-0.1C62.9,285.5,63.4,285.5,63.9,285.5z"/>
			<path class="st0" d="M80.5,287.3c0,2.5-0.4,4.4-1.2,5.7c-0.8,1.2-2,1.9-3.8,1.9c-1.7,0-2.8-0.6-3.7-1.9c-0.8-1.3-1.3-3.2-1.3-5.6
				c0-2.6,0.4-4.5,1.2-5.7s2-1.8,3.8-1.8c1.7,0,2.8,0.6,3.7,1.9C80.1,283,80.5,284.8,80.5,287.3z M73,287.3c0,2,0.2,3.4,0.6,4.3
				s1.1,1.3,2,1.3c0.9,0,1.5-0.5,2-1.3c0.5-0.8,0.6-2.2,0.6-4.3c0-2-0.2-3.4-0.6-4.3c-0.5-0.8-1.1-1.3-2-1.3c-0.9,0-1.5,0.5-2,1.3
				C73.1,283.9,73,285.3,73,287.3z"/>
			<path class="st0" d="M92.2,287.3c0,2.5-0.4,4.4-1.2,5.7c-0.8,1.2-2,1.9-3.8,1.9c-1.7,0-2.8-0.6-3.7-1.9c-0.8-1.3-1.3-3.2-1.3-5.6
				c0-2.6,0.4-4.5,1.2-5.7s2-1.8,3.8-1.8c1.7,0,2.8,0.6,3.7,1.9C91.8,283,92.2,284.8,92.2,287.3z M84.6,287.3c0,2,0.2,3.4,0.6,4.3
				s1.1,1.3,2,1.3c0.9,0,1.5-0.5,2-1.3c0.5-0.8,0.6-2.2,0.6-4.3c0-2-0.2-3.4-0.6-4.3c-0.5-0.8-1.1-1.3-2-1.3c-0.9,0-1.5,0.5-2,1.3
				C84.8,283.9,84.6,285.3,84.6,287.3z"/>
		</g>
		<g class="st3">
			<path class="st0" d="M93.7,283.5c0-0.8,0.2-1.5,0.6-2.1c0.4-0.7,0.9-1.2,1.7-1.7c0.7-0.4,1.4-0.6,2.2-0.6c0.8,0,1.5,0.2,2.1,0.6
				c0.7,0.4,1.2,0.9,1.7,1.7c0.4,0.7,0.6,1.4,0.6,2.2c0,0.7-0.2,1.5-0.6,2.1c-0.4,0.7-0.9,1.2-1.5,1.7c-0.7,0.4-1.4,0.6-2.2,0.6
				c-0.8,0-1.5-0.2-2.2-0.6c-0.7-0.4-1.2-0.9-1.5-1.7C93.8,285.1,93.7,284.4,93.7,283.5z M94.4,283.5c0,0.7,0.1,1.3,0.5,1.9
				c0.4,0.6,0.8,1.1,1.3,1.3c0.6,0.4,1.2,0.5,1.8,0.5c0.7,0,1.3-0.1,1.9-0.5c0.6-0.4,1.1-0.8,1.3-1.3c0.2-0.5,0.5-1.2,0.5-1.8
				c0-0.7-0.1-1.3-0.5-1.8c-0.4-0.6-0.8-1.1-1.3-1.3c-0.6-0.4-1.2-0.5-1.8-0.5c-0.7,0-1.3,0.1-1.8,0.5c-0.6,0.4-1.1,0.7-1.3,1.3
				C94.5,282.3,94.4,282.9,94.4,283.5z M99.9,282.6c0,0.7-0.4,1.1-0.9,1.3l1.4,2.4h-1.2l-1.1-2h-0.5v2h-1.1V281h1.5
				c0.7,0,1.2,0.1,1.5,0.4C99.6,281.6,99.9,282,99.9,282.6z M97.4,283.3h0.4c0.2,0,0.5-0.1,0.7-0.2c0.1-0.1,0.2-0.4,0.2-0.6
				s-0.1-0.5-0.2-0.6c-0.1-0.1-0.4-0.1-0.7-0.1h-0.4V283.3z"/>
		</g>
	</g>
	<g>
		
			<linearGradient id="SVGID_1_" gradientUnits="userSpaceOnUse" x1="-7245.436" y1="1313.5082" x2="-7497.9438" y2="1313.5082" gradientTransform="matrix(-1 0 0 1 -6809.8359 -1038.8633)">
			<stop  offset="0" style="stop-color:#95D700"/>
			<stop  offset="1" style="stop-color:#00BC3F"/>
		</linearGradient>
		<path class="st4" d="M466.7,305.8H657c17.2,0,31.1-14,31.1-31.1l0,0c0-17.2-14-31.1-31.1-31.1H466.7c-17.2,0-31.1,14-31.1,31.1
			l0,0C435.6,291.9,449.6,305.8,466.7,305.8z"/>
		<g>
			<path class="st0" d="M463.4,265.3c0,0.9-0.4,1.8-1.1,2.2c-0.7,0.6-1.7,0.8-3,0.8c-1.3,0-2.2-0.2-3.1-0.6v-1.7
				c0.5,0.2,1.1,0.5,1.5,0.6c0.6,0.1,1.1,0.2,1.5,0.2c0.7,0,1.2-0.1,1.5-0.4c0.4-0.2,0.5-0.6,0.5-1.1c0-0.4-0.1-0.7-0.5-1.1
				c-0.4-0.4-0.9-0.6-1.9-1.1c-0.9-0.4-1.7-0.8-2.1-1.4c-0.5-0.6-0.6-1.2-0.6-1.9c0-0.9,0.4-1.7,0.9-2.1c0.6-0.5,1.5-0.8,2.6-0.8
				c1.1,0,2.1,0.2,3.2,0.7l-0.6,1.4c-0.9-0.4-1.9-0.6-2.6-0.6c-0.6,0-1.1,0.1-1.3,0.4c-0.2,0.2-0.5,0.6-0.5,0.9
				c0,0.2,0.1,0.5,0.2,0.7c0.1,0.2,0.4,0.4,0.6,0.6c0.2,0.2,0.8,0.5,1.5,0.7c0.8,0.4,1.4,0.6,1.8,0.9s0.7,0.6,0.8,0.9
				C463.3,264.3,463.4,264.8,463.4,265.3z"/>
			<path class="st0" d="M469,268.4c-1.3,0-2.2-0.4-3.1-1.2c-0.7-0.7-1.1-1.8-1.1-3.1c0-1.3,0.4-2.4,1.1-3.2c0.7-0.8,1.7-1.2,2.8-1.2
				c1.1,0,2,0.4,2.6,0.9c0.6,0.7,0.9,1.5,0.9,2.7v0.9h-5.6c0,0.8,0.2,1.4,0.7,1.9c0.5,0.5,0.9,0.6,1.8,0.6c0.5,0,0.9,0,1.4-0.1
				s0.8-0.2,1.4-0.5v1.4c-0.5,0.2-0.8,0.4-1.3,0.5C470,268.4,469.6,268.4,469,268.4z M468.6,261.1c-0.6,0-1.1,0.2-1.3,0.6
				c-0.4,0.4-0.6,0.8-0.6,1.5h3.8c0-0.7-0.1-1.2-0.5-1.5C469.7,261.3,469.2,261.1,468.6,261.1z"/>
			<path class="st0" d="M476,268.3h-1.8v-11.7h1.8V268.3z"/>
			<path class="st0" d="M482.1,268.4c-1.3,0-2.2-0.4-3.1-1.2c-0.7-0.7-1.1-1.8-1.1-3.1c0-1.3,0.4-2.4,1.1-3.2
				c0.7-0.8,1.7-1.2,2.8-1.2c1.1,0,2,0.4,2.6,0.9c0.6,0.7,0.9,1.5,0.9,2.7v0.9h-5.6c0,0.8,0.2,1.4,0.7,1.9c0.5,0.5,0.9,0.6,1.8,0.6
				c0.5,0,0.9,0,1.4-0.1c0.5-0.1,0.8-0.2,1.4-0.5v1.4c-0.5,0.2-0.8,0.4-1.3,0.5C483.2,268.4,482.7,268.4,482.1,268.4z M481.9,261.1
				c-0.6,0-1.1,0.2-1.3,0.6c-0.4,0.4-0.6,0.8-0.6,1.5h3.8c0-0.7-0.1-1.2-0.5-1.5C482.8,261.3,482.4,261.1,481.9,261.1z"/>
			<path class="st0" d="M490.8,268.4c-1.3,0-2.2-0.4-2.8-1.1c-0.7-0.7-0.9-1.8-0.9-3.2s0.4-2.5,1.1-3.2s1.7-1.2,3-1.2
				c0.8,0,1.7,0.1,2.4,0.5l-0.6,1.4c-0.7-0.2-1.4-0.5-1.9-0.5c-1.4,0-2.1,0.9-2.1,2.8c0,0.9,0.2,1.7,0.6,2.1
				c0.4,0.5,0.8,0.7,1.5,0.7c0.8,0,1.5-0.2,2.2-0.6v1.5c-0.4,0.2-0.7,0.4-1.1,0.4C491.7,268.1,491.2,268.4,490.8,268.4z"/>
			<path class="st0" d="M498.1,267c0.5,0,0.8-0.1,1.3-0.2v1.3c-0.2,0.1-0.5,0.1-0.7,0.2c-0.4,0-0.6,0.1-0.9,0.1
				c-1.7,0-2.5-0.8-2.5-2.6v-4.5h-1.2v-0.8l1.2-0.6l0.6-1.8h1.1v1.9h2.4v1.3h-2.4v4.5c0,0.5,0.1,0.7,0.4,0.9
				C497.5,266.8,497.8,267,498.1,267z"/>
			<path class="st0" d="M512,268.3h-7.5V267l2.8-2.8c0.8-0.8,1.4-1.4,1.7-1.8c0.2-0.4,0.5-0.7,0.6-1.1c0.1-0.4,0.2-0.7,0.2-1.1
				c0-0.5-0.1-0.9-0.5-1.2c-0.4-0.2-0.7-0.5-1.2-0.5c-0.5,0-0.8,0.1-1.2,0.2s-0.8,0.5-1.4,0.8l-0.9-1.2c0.6-0.5,1.2-0.8,1.8-1.1
				c0.6-0.2,1.2-0.4,1.9-0.4c1.1,0,1.9,0.2,2.5,0.8c0.6,0.6,0.9,1.3,0.9,2.1c0,0.5-0.1,0.9-0.2,1.4c-0.1,0.5-0.5,0.9-0.8,1.4
				c-0.4,0.5-0.9,1.1-1.9,1.9l-1.9,1.9v0.1h5.2v1.5H512z"/>
			<path class="st0" d="M520.7,262.8c0,1.9-0.4,3.3-0.9,4.3s-1.5,1.4-2.8,1.4c-1.2,0-2.1-0.5-2.7-1.4c-0.6-0.9-0.9-2.4-0.9-4.3
				c0-1.9,0.4-3.3,0.9-4.3c0.6-0.9,1.5-1.4,2.8-1.4c1.2,0,2.1,0.5,2.8,1.4C520.6,259.5,520.7,260.9,520.7,262.8z M515,262.8
				c0,1.5,0.1,2.6,0.5,3.2c0.4,0.6,0.8,0.9,1.4,0.9c0.6,0,1.2-0.4,1.5-0.9c0.4-0.6,0.5-1.7,0.5-3.2c0-1.4-0.1-2.5-0.5-3.2
				c-0.4-0.7-0.8-0.9-1.5-0.9c-0.7,0-1.2,0.4-1.4,0.9C515.2,260.2,515,261.3,515,262.8z"/>
			<path class="st0" d="M532.2,265.9c0,0.8-0.2,1.4-0.8,1.9c-0.6,0.5-1.4,0.6-2.5,0.6s-2-0.1-2.7-0.5v-1.5c0.9,0.5,1.9,0.7,2.7,0.7
				c1.1,0,1.7-0.4,1.7-0.9c0-0.2-0.1-0.4-0.2-0.5c-0.1-0.1-0.4-0.2-0.6-0.5c-0.2-0.1-0.7-0.4-1.2-0.5c-0.9-0.4-1.7-0.7-1.9-1.1
				c-0.4-0.4-0.5-0.8-0.5-1.4c0-0.7,0.2-1.3,0.8-1.7c0.6-0.4,1.3-0.6,2.4-0.6c0.9,0,1.9,0.2,2.7,0.6l-0.6,1.3
				c-0.9-0.4-1.7-0.6-2.2-0.6c-0.9,0-1.4,0.2-1.4,0.8c0,0.2,0.1,0.5,0.4,0.7c0.2,0.2,0.8,0.5,1.5,0.7s1.2,0.5,1.5,0.7
				c0.4,0.2,0.6,0.5,0.7,0.7C532.1,265.2,532.2,265.5,532.2,265.9z"/>
			<path class="st0" d="M537.2,267c0.5,0,0.8-0.1,1.3-0.2v1.3c-0.2,0.1-0.5,0.1-0.7,0.2c-0.4,0-0.6,0.1-0.9,0.1
				c-1.7,0-2.5-0.8-2.5-2.6v-4.5h-1.2v-0.8l1.2-0.6l0.6-1.8h1.1v1.9h2.4v1.3H536v4.5c0,0.5,0.1,0.7,0.4,0.9
				C536.6,266.8,536.9,267,537.2,267z"/>
			<path class="st0" d="M547.6,264.1c0,1.3-0.4,2.4-1.1,3.2c-0.7,0.7-1.7,1.2-3,1.2c-0.8,0-1.4-0.1-2-0.5s-1.1-0.8-1.4-1.5
				c-0.4-0.7-0.5-1.4-0.5-2.2c0-1.3,0.4-2.4,1.1-3.2c0.7-0.7,1.7-1.2,3-1.2c1.2,0,2.1,0.4,2.8,1.2
				C547.2,261.7,547.6,262.8,547.6,264.1z M541.6,264.1c0,1.9,0.7,2.8,2.1,2.8s2.1-0.9,2.1-2.8s-0.7-2.8-2.1-2.8
				c-0.7,0-1.3,0.2-1.7,0.7C541.7,262.5,541.6,263.2,541.6,264.1z"/>
			<path class="st0" d="M552.9,268.4c-1.3,0-2.2-0.4-2.8-1.1c-0.7-0.7-0.9-1.8-0.9-3.2s0.4-2.5,1.1-3.2c0.7-0.7,1.7-1.2,3-1.2
				c0.8,0,1.7,0.1,2.4,0.5l-0.6,1.4c-0.7-0.2-1.4-0.5-1.9-0.5c-1.4,0-2.1,0.9-2.1,2.8c0,0.9,0.2,1.7,0.6,2.1
				c0.4,0.5,0.8,0.7,1.5,0.7c0.8,0,1.5-0.2,2.2-0.6v1.5c-0.4,0.2-0.7,0.4-1.1,0.4C553.9,268.1,553.4,268.4,552.9,268.4z"/>
			<path class="st0" d="M559,263.9l0.9-1.3l2.5-2.7h2l-3.3,3.6l3.6,4.7h-2.1l-2.7-3.7l-0.9,0.8v2.8h-1.8v-11.7h1.8v5.7L559,263.9
				L559,263.9z"/>
			<path class="st0" d="M571.6,265.9c0,0.8-0.2,1.4-0.8,1.9s-1.4,0.6-2.5,0.6c-1.1,0-2-0.1-2.7-0.5v-1.5c0.9,0.5,1.9,0.7,2.7,0.7
				c1.1,0,1.7-0.4,1.7-0.9c0-0.2-0.1-0.4-0.2-0.5c-0.1-0.1-0.4-0.2-0.6-0.5c-0.2-0.1-0.7-0.4-1.2-0.5c-0.9-0.4-1.7-0.7-1.9-1.1
				c-0.4-0.4-0.5-0.8-0.5-1.4c0-0.7,0.2-1.3,0.8-1.7c0.6-0.4,1.3-0.6,2.4-0.6c0.9,0,1.9,0.2,2.7,0.6l-0.6,1.3
				c-0.9-0.4-1.7-0.6-2.2-0.6c-0.9,0-1.4,0.2-1.4,0.8c0,0.2,0.1,0.5,0.4,0.7c0.2,0.2,0.8,0.5,1.5,0.7s1.2,0.5,1.5,0.7
				c0.4,0.2,0.6,0.5,0.7,0.7S571.6,265.5,571.6,265.9z"/>
			<path class="st0" d="M584.3,268.3l-1.1-3.9c-0.1-0.4-0.4-1.4-0.7-2.8l0,0c-0.2,1.3-0.5,2.4-0.7,2.8l-1.1,3.9h-2l-2.4-8.3h1.8
				l1.1,4.1c0.2,1.1,0.4,1.9,0.5,2.6l0,0c0-0.4,0.1-0.8,0.2-1.3c0.1-0.5,0.2-0.8,0.2-1.1l1.3-4.4h1.9l1.2,4.4
				c0.1,0.2,0.1,0.6,0.2,1.2c0.1,0.5,0.2,0.9,0.2,1.2h0.1c0.1-0.6,0.2-1.4,0.5-2.6l1.1-4.1h1.8l-2.4,8.3H584.3z"/>
			<path class="st0" d="M590,257.7c0-0.4,0.1-0.6,0.2-0.7c0.1-0.1,0.5-0.2,0.7-0.2c0.4,0,0.6,0.1,0.7,0.2s0.2,0.4,0.2,0.7
				c0,0.4-0.1,0.6-0.2,0.7c-0.1,0.1-0.5,0.2-0.7,0.2c-0.4,0-0.6-0.1-0.7-0.2C590.1,258.3,590,258.1,590,257.7z M591.9,268.3h-1.8
				V260h1.8V268.3z"/>
			<path class="st0" d="M597.4,267c0.5,0,0.8-0.1,1.3-0.2v1.3c-0.2,0.1-0.5,0.1-0.7,0.2c-0.4,0-0.6,0.1-0.9,0.1
				c-1.7,0-2.5-0.8-2.5-2.6v-4.5h-1.2v-0.8l1.2-0.6l0.6-1.8h1.1v1.9h2.4v1.3h-2.4v4.5c0,0.5,0.1,0.7,0.4,0.9
				C596.8,266.8,597.1,267,597.4,267z"/>
			<path class="st0" d="M607.7,268.3H606v-5.1c0-0.6-0.1-1.1-0.4-1.4c-0.2-0.4-0.7-0.5-1.2-0.5c-0.7,0-1.3,0.2-1.7,0.7
				c-0.4,0.5-0.5,1.2-0.5,2.2v4.1h-1.8v-11.7h1.8v3c0,0.5,0,0.9-0.1,1.5h0.1c0.2-0.4,0.6-0.7,0.9-0.9c0.5-0.2,0.9-0.4,1.5-0.4
				c2,0,3.1,1.1,3.1,3.1v5.3H607.7z"/>
			<path class="st0" d="M621.5,268.3h-1.8v-5.1c0-0.6-0.1-1.1-0.4-1.4c-0.2-0.4-0.7-0.5-1.2-0.5c-0.7,0-1.3,0.2-1.7,0.7
				c-0.4,0.5-0.5,1.2-0.5,2.2v4.1h-1.8v-11.7h1.8v3c0,0.5,0,0.9-0.1,1.5h0.1c0.2-0.4,0.6-0.7,0.9-0.9c0.5-0.2,0.9-0.4,1.5-0.4
				c2,0,3.1,1.1,3.1,3.1v5.3H621.5z"/>
			<path class="st0" d="M623.8,257.7c0-0.4,0.1-0.6,0.2-0.7c0.1-0.1,0.5-0.2,0.7-0.2c0.4,0,0.6,0.1,0.7,0.2c0.1,0.1,0.2,0.4,0.2,0.7
				c0,0.4-0.1,0.6-0.2,0.7c-0.1,0.1-0.5,0.2-0.7,0.2c-0.4,0-0.6-0.1-0.7-0.2C623.9,258.3,623.8,258.1,623.8,257.7z M625.7,268.3
				h-1.8V260h1.8V268.3z"/>
			<path class="st0" d="M635.2,260v0.9l-1.4,0.2c0.1,0.1,0.2,0.4,0.4,0.6s0.1,0.5,0.1,0.8c0,0.8-0.4,1.5-0.8,2
				c-0.6,0.5-1.4,0.7-2.5,0.7c-0.2,0-0.5,0-0.7-0.1c-0.4,0.2-0.6,0.5-0.6,0.8c0,0.2,0.1,0.4,0.2,0.5c0.1,0.1,0.5,0.1,0.9,0.1h1.4
				c0.9,0,1.7,0.2,2.1,0.6s0.7,0.9,0.7,1.7c0,0.9-0.4,1.7-1.2,2.1s-1.9,0.7-3.3,0.7c-1.2,0-2-0.2-2.6-0.6s-0.9-0.9-0.9-1.7
				c0-0.5,0.1-0.9,0.5-1.3c0.4-0.4,0.8-0.6,1.3-0.7c-0.2-0.1-0.5-0.2-0.6-0.5c-0.1-0.2-0.2-0.5-0.2-0.7c0-0.4,0.1-0.6,0.2-0.8
				c0.1-0.2,0.5-0.5,0.8-0.6c-0.5-0.2-0.8-0.5-1.1-0.9c-0.2-0.5-0.4-0.9-0.4-1.4c0-0.9,0.2-1.7,0.8-2.1c0.6-0.5,1.4-0.7,2.5-0.7
				c0.2,0,0.5,0,0.7,0s0.5,0.1,0.6,0.1h3V260z M628.7,269.6c0,0.4,0.1,0.7,0.5,0.8c0.4,0.2,0.8,0.4,1.4,0.4c0.9,0,1.7-0.1,2.1-0.4
				c0.5-0.2,0.7-0.6,0.7-1.1c0-0.4-0.1-0.6-0.4-0.8c-0.2-0.1-0.7-0.2-1.4-0.2h-1.3c-0.5,0-0.9,0.1-1.2,0.4
				C628.9,268.8,628.7,269.2,628.7,269.6z M629.5,262.7c0,0.5,0.1,0.9,0.4,1.2c0.2,0.2,0.7,0.5,1.2,0.5c1.1,0,1.5-0.6,1.5-1.7
				c0-0.6-0.1-0.9-0.4-1.3c-0.2-0.2-0.6-0.5-1.2-0.5c-0.5,0-0.9,0.1-1.2,0.5C629.6,261.6,629.5,262.1,629.5,262.7z"/>
			<path class="st0" d="M644.1,268.3h-1.8v-5.1c0-0.6-0.1-1.1-0.4-1.4c-0.2-0.4-0.7-0.5-1.2-0.5c-0.7,0-1.3,0.2-1.7,0.7
				c-0.4,0.5-0.5,1.2-0.5,2.2v4.1h-1.8v-11.7h1.8v3c0,0.5,0,0.9-0.1,1.5h0.1c0.2-0.4,0.6-0.7,0.9-0.9c0.5-0.2,0.9-0.4,1.5-0.4
				c2,0,3.1,1.1,3.1,3.1v5.3H644.1z"/>
			<path class="st0" d="M650.2,268.4c-1.3,0-2.2-0.4-3.1-1.2c-0.7-0.7-1.1-1.8-1.1-3.1c0-1.3,0.4-2.4,1.1-3.2
				c0.7-0.8,1.7-1.2,2.8-1.2c1.1,0,2,0.4,2.6,0.9c0.6,0.7,0.9,1.5,0.9,2.7v0.9H648c0,0.8,0.2,1.4,0.7,1.9c0.4,0.5,0.9,0.6,1.8,0.6
				c0.5,0,0.9,0,1.4-0.1c0.5-0.1,0.8-0.2,1.4-0.5v1.4c-0.5,0.2-0.8,0.4-1.3,0.5C651.3,268.4,650.7,268.4,650.2,268.4z M649.9,261.1
				c-0.6,0-1.1,0.2-1.3,0.6c-0.4,0.4-0.6,0.8-0.6,1.5h3.8c0-0.7-0.1-1.2-0.5-1.5C650.8,261.3,650.5,261.1,649.9,261.1z"/>
			<path class="st0" d="M661,265.9c0,0.8-0.2,1.4-0.8,1.9c-0.6,0.5-1.4,0.6-2.5,0.6s-2-0.1-2.7-0.5v-1.5c0.9,0.5,1.9,0.7,2.7,0.7
				c1.1,0,1.7-0.4,1.7-0.9c0-0.2-0.1-0.4-0.2-0.5c-0.1-0.1-0.4-0.2-0.6-0.5c-0.2-0.1-0.7-0.4-1.2-0.5c-0.9-0.4-1.7-0.7-1.9-1.1
				c-0.4-0.4-0.5-0.8-0.5-1.4c0-0.7,0.2-1.3,0.8-1.7s1.3-0.6,2.4-0.6c0.9,0,1.9,0.2,2.7,0.6l-0.6,1.3c-0.9-0.4-1.7-0.6-2.2-0.6
				c-0.9,0-1.4,0.2-1.4,0.8c0,0.2,0.1,0.5,0.4,0.7c0.2,0.2,0.8,0.5,1.5,0.7s1.2,0.5,1.5,0.7c0.4,0.2,0.6,0.5,0.7,0.7
				S661,265.5,661,265.9z"/>
			<path class="st0" d="M666,267c0.5,0,0.8-0.1,1.3-0.2v1.3c-0.2,0.1-0.5,0.1-0.7,0.2c-0.4,0-0.6,0.1-0.9,0.1
				c-1.7,0-2.5-0.8-2.5-2.6v-4.5h-1.2v-0.8l1.2-0.6l0.6-1.8h1.1v1.9h2.4v1.3h-2.4v4.5c0,0.5,0.1,0.7,0.4,0.9
				C665.4,266.8,665.6,267,666,267z"/>
			<path class="st0" d="M481.7,278.6c0-0.4,0.1-0.6,0.2-0.7c0.1-0.1,0.5-0.2,0.7-0.2c0.4,0,0.6,0.1,0.7,0.2c0.1,0.1,0.2,0.4,0.2,0.7
				c0,0.4-0.1,0.6-0.2,0.7c-0.1,0.1-0.5,0.2-0.7,0.2c-0.4,0-0.6-0.1-0.7-0.2C481.8,279.1,481.7,278.9,481.7,278.6z M483.5,289.1
				h-1.8v-8.3h1.8V289.1z"/>
			<path class="st0" d="M488.9,289.2c-1.1,0-1.9-0.4-2.5-1.2c-0.6-0.7-0.8-1.8-0.8-3.2s0.2-2.4,0.8-3.2c0.6-0.7,1.4-1.2,2.5-1.2
				s1.9,0.4,2.5,1.2h0.1c-0.1-0.6-0.1-1.1-0.1-1.4v-3.1h1.8v11.7h-1.4l-0.4-1.1l0,0C490.8,288.9,489.9,289.2,488.9,289.2z
				 M489.3,287.8c0.7,0,1.3-0.2,1.5-0.6c0.2-0.4,0.5-1.1,0.5-2v-0.2c0-1.1-0.1-1.8-0.5-2.2c-0.4-0.5-0.8-0.7-1.7-0.7
				c-0.6,0-1.1,0.2-1.4,0.7c-0.4,0.5-0.5,1.2-0.5,2.1c0,0.9,0.1,1.7,0.5,2.1C488.2,287.5,488.8,287.8,489.3,287.8z"/>
			<path class="st0" d="M495.6,278.6c0-0.4,0.1-0.6,0.2-0.7c0.1-0.1,0.5-0.2,0.7-0.2c0.4,0,0.6,0.1,0.7,0.2c0.1,0.1,0.2,0.4,0.2,0.7
				c0,0.4-0.1,0.6-0.2,0.7c-0.1,0.1-0.5,0.2-0.7,0.2c-0.4,0-0.6-0.1-0.7-0.2C495.6,279.1,495.6,278.9,495.6,278.6z M497.4,289.1
				h-1.8v-8.3h1.8V289.1z"/>
			<path class="st0" d="M507.3,284.9c0,1.3-0.4,2.4-1.1,3.2c-0.7,0.7-1.7,1.2-3,1.2c-0.8,0-1.4-0.1-2-0.5c-0.6-0.4-1.1-0.8-1.4-1.5
				c-0.4-0.7-0.5-1.4-0.5-2.2c0-1.3,0.4-2.4,1.1-3.2c0.7-0.7,1.7-1.2,3-1.2c1.2,0,2.1,0.4,2.8,1.2
				C507,282.6,507.3,283.6,507.3,284.9z M501.3,284.9c0,1.9,0.7,2.8,2.1,2.8c1.4,0,2.1-0.9,2.1-2.8s-0.7-2.8-2.1-2.8
				c-0.7,0-1.3,0.2-1.7,0.7S501.3,284,501.3,284.9z"/>
			<path class="st0" d="M514.9,286.7c0,0.8-0.4,1.4-0.8,1.9c-0.6,0.5-1.4,0.6-2.5,0.6c-1.1,0-2-0.1-2.7-0.5v-1.5
				c0.9,0.5,1.9,0.7,2.7,0.7c1.1,0,1.7-0.4,1.7-0.9c0-0.2-0.1-0.4-0.2-0.5c-0.1-0.1-0.4-0.2-0.6-0.5c-0.2-0.1-0.7-0.4-1.2-0.5
				c-0.9-0.4-1.7-0.7-1.9-1.1c-0.4-0.4-0.5-0.8-0.5-1.4c0-0.7,0.2-1.3,0.8-1.7c0.6-0.4,1.3-0.6,2.4-0.6c0.9,0,1.9,0.2,2.7,0.6
				l-0.6,1.3c-0.9-0.4-1.7-0.6-2.2-0.6c-0.9,0-1.4,0.2-1.4,0.8c0,0.2,0.1,0.5,0.4,0.7c0.2,0.2,0.8,0.5,1.5,0.7s1.2,0.5,1.5,0.7
				c0.4,0.2,0.6,0.5,0.7,0.7C514.8,286,514.9,286.4,514.9,286.7z"/>
			<path class="st0" d="M515.6,280.8h1.9l1.7,4.7c0.2,0.7,0.5,1.3,0.5,1.9h0.1c0-0.2,0.1-0.6,0.2-0.9c0.1-0.4,0.7-2.2,1.9-5.6h1.9
				l-3.6,9.5c-0.6,1.8-1.8,2.6-3.2,2.6c-0.4,0-0.8,0-1.2-0.1v-1.4c0.2,0.1,0.6,0.1,0.9,0.1c0.8,0,1.4-0.5,1.8-1.5l0.4-0.8
				L515.6,280.8z"/>
			<path class="st0" d="M532.4,289.1h-1.8V284c0-0.6-0.1-1.1-0.4-1.4c-0.2-0.4-0.7-0.5-1.2-0.5c-0.7,0-1.3,0.2-1.7,0.7
				c-0.4,0.5-0.5,1.2-0.5,2.2v4.1h-1.8v-8.3h1.4l0.2,1.1h0.1c0.2-0.4,0.6-0.7,1.1-0.9s0.9-0.4,1.5-0.4c2,0,3,1.1,3,3.1v5.3H532.4z"
				/>
			<path class="st0" d="M538.2,289.2c-1.3,0-2.2-0.4-2.8-1.1c-0.7-0.7-0.9-1.8-0.9-3.2s0.4-2.5,1.1-3.2c0.7-0.7,1.7-1.2,3-1.2
				c0.8,0,1.7,0.1,2.4,0.5l-0.6,1.4c-0.7-0.2-1.4-0.5-1.9-0.5c-1.4,0-2.1,0.9-2.1,2.8c0,0.9,0.2,1.7,0.6,2.1
				c0.4,0.5,0.8,0.7,1.5,0.7c0.8,0,1.5-0.2,2.2-0.6v1.5c-0.4,0.2-0.7,0.4-1.1,0.4C539.2,289.2,538.7,289.2,538.2,289.2z"/>
			<path class="st0" d="M546.8,280.7c0.4,0,0.6,0,0.8,0.1l-0.1,1.7c-0.2-0.1-0.5-0.1-0.8-0.1c-0.7,0-1.3,0.2-1.8,0.7
				c-0.5,0.5-0.7,1.1-0.7,1.8v4.4h-1.8v-8.3h1.4l0.2,1.4h0.1c0.2-0.5,0.6-0.9,1.1-1.2C545.7,280.8,546.2,280.7,546.8,280.7z"/>
			<path class="st0" d="M554.3,289.1l-0.4-1.2h-0.1c-0.4,0.5-0.8,0.8-1.2,1.1c-0.4,0.2-0.9,0.2-1.5,0.2c-0.8,0-1.4-0.2-1.9-0.7
				c-0.5-0.5-0.7-1.1-0.7-1.9c0-0.8,0.4-1.5,0.9-1.9c0.6-0.5,1.7-0.7,3-0.7h1.4v-0.5c0-0.5-0.1-0.9-0.4-1.2
				c-0.2-0.2-0.6-0.4-1.2-0.4c-0.5,0-0.8,0.1-1.2,0.2c-0.4,0.1-0.7,0.2-1.2,0.5l-0.6-1.3c0.5-0.2,0.9-0.5,1.5-0.6
				c0.6-0.1,1.1-0.2,1.5-0.2c1.1,0,1.9,0.2,2.4,0.7c0.6,0.5,0.8,1.2,0.8,2.1v5.6h-1.3V289.1z M551.7,287.9c0.6,0,1.2-0.2,1.5-0.6
				c0.4-0.4,0.6-0.8,0.6-1.5v-0.7h-1.1c-0.8,0-1.4,0.1-1.8,0.5c-0.4,0.2-0.6,0.6-0.6,1.2c0,0.4,0.1,0.7,0.4,0.8
				C550.9,287.8,551.3,287.9,551.7,287.9z"/>
			<path class="st0" d="M561.2,287.8c0.5,0,0.8-0.1,1.3-0.2v1.3c-0.2,0.1-0.5,0.1-0.7,0.2c-0.4,0-0.6,0.1-0.9,0.1
				c-1.7,0-2.5-0.8-2.5-2.6v-4.5h-1.2v-0.8l1.2-0.6l0.6-1.8h1.1v1.9h2.4v1.3H560v4.5c0,0.5,0.1,0.7,0.4,0.9
				C560.5,287.7,560.8,287.8,561.2,287.8z"/>
			<path class="st0" d="M564,278.6c0-0.4,0.1-0.6,0.2-0.7c0.1-0.1,0.5-0.2,0.7-0.2c0.4,0,0.6,0.1,0.7,0.2c0.1,0.1,0.2,0.4,0.2,0.7
				c0,0.4-0.1,0.6-0.2,0.7c-0.1,0.1-0.5,0.2-0.7,0.2c-0.4,0-0.6-0.1-0.7-0.2C564,279.1,564,278.9,564,278.6z M565.8,289.1H564v-8.3
				h1.8V289.1z"/>
			<path class="st0" d="M571.7,289.2c-1.3,0-2.2-0.4-2.8-1.1c-0.7-0.7-0.9-1.8-0.9-3.2s0.4-2.5,1.1-3.2c0.7-0.7,1.7-1.2,3-1.2
				c0.8,0,1.7,0.1,2.4,0.5l-0.6,1.4c-0.7-0.2-1.4-0.5-1.9-0.5c-1.4,0-2.1,0.9-2.1,2.8c0,0.9,0.2,1.7,0.6,2.1
				c0.4,0.5,0.8,0.7,1.5,0.7c0.8,0,1.5-0.2,2.2-0.6v1.5c-0.4,0.2-0.7,0.4-1.1,0.4C572.7,289,572.2,289.2,571.7,289.2z"/>
			<path class="st0" d="M581.9,289.1l-3.2-8.3h1.9l1.7,4.9c0.2,0.8,0.5,1.4,0.5,2h0.1c0-0.4,0.2-1.1,0.5-2l1.7-4.9h1.9l-3.2,8.3
				H581.9z"/>
			<path class="st0" d="M595.7,284.9c0,1.3-0.4,2.4-1.1,3.2c-0.7,0.7-1.7,1.2-3,1.2c-0.8,0-1.4-0.1-2-0.5c-0.6-0.4-1.1-0.8-1.4-1.5
				c-0.4-0.7-0.5-1.4-0.5-2.2c0-1.3,0.4-2.4,1.1-3.2c0.7-0.7,1.7-1.2,3-1.2c1.2,0,2.1,0.4,2.8,1.2
				C595.3,282.6,595.7,283.6,595.7,284.9z M589.6,284.9c0,1.9,0.7,2.8,2.1,2.8s2.1-0.9,2.1-2.8s-0.7-2.8-2.1-2.8
				c-0.7,0-1.3,0.2-1.7,0.7C589.7,283.3,589.6,284,589.6,284.9z"/>
			<path class="st0" d="M599.4,289.1h-1.8v-11.7h1.8V289.1z"/>
			<path class="st0" d="M607.1,289.1l-0.4-1.2h-0.1c-0.4,0.5-0.8,0.8-1.2,1.1c-0.4,0.2-0.9,0.2-1.5,0.2c-0.8,0-1.4-0.2-1.9-0.7
				c-0.5-0.5-0.7-1.1-0.7-1.9c0-0.8,0.4-1.5,0.9-1.9c0.6-0.5,1.7-0.7,3-0.7h1.4v-0.5c0-0.5-0.1-0.9-0.4-1.2
				c-0.2-0.2-0.6-0.4-1.2-0.4c-0.5,0-0.8,0.1-1.2,0.2c-0.4,0.1-0.7,0.2-1.2,0.5l-0.6-1.3c0.5-0.2,0.9-0.5,1.5-0.6
				c0.6-0.1,1.1-0.2,1.5-0.2c1.1,0,1.9,0.2,2.4,0.7c0.6,0.5,0.8,1.2,0.8,2.1v5.6h-1.3V289.1z M604.5,287.9c0.6,0,1.2-0.2,1.5-0.6
				s0.6-0.8,0.6-1.5v-0.7h-1.1c-0.8,0-1.4,0.1-1.8,0.5c-0.4,0.2-0.6,0.6-0.6,1.2c0,0.4,0.1,0.7,0.4,0.8
				C603.7,287.8,604.1,287.9,604.5,287.9z"/>
			<path class="st0" d="M614,287.8c0.5,0,0.8-0.1,1.3-0.2v1.3c-0.2,0.1-0.5,0.1-0.7,0.2c-0.4,0-0.6,0.1-0.9,0.1
				c-1.7,0-2.5-0.8-2.5-2.6v-4.5H610v-0.8l1.2-0.6l0.6-1.8h1.1v1.9h2.4v1.3h-2.4v4.5c0,0.5,0.1,0.7,0.4,0.9
				C613.3,287.7,613.6,287.8,614,287.8z"/>
			<path class="st0" d="M616.8,278.6c0-0.4,0.1-0.6,0.2-0.7c0.1-0.1,0.5-0.2,0.7-0.2c0.4,0,0.6,0.1,0.7,0.2c0.1,0.1,0.2,0.4,0.2,0.7
				c0,0.4-0.1,0.6-0.2,0.7c-0.1,0.1-0.5,0.2-0.7,0.2c-0.4,0-0.6-0.1-0.7-0.2C616.8,279.1,616.8,278.9,616.8,278.6z M618.7,289.1H617
				v-8.3h1.8V289.1z"/>
			<path class="st0" d="M623,289.1h-1.8v-11.7h1.8V289.1z"/>
			<path class="st0" d="M625.4,278.6c0-0.4,0.1-0.6,0.2-0.7c0.1-0.1,0.5-0.2,0.7-0.2c0.4,0,0.6,0.1,0.7,0.2c0.1,0.1,0.2,0.4,0.2,0.7
				c0,0.4-0.1,0.6-0.2,0.7c-0.1,0.1-0.5,0.2-0.7,0.2c-0.4,0-0.6-0.1-0.7-0.2C625.5,279.1,625.4,278.9,625.4,278.6z M627.3,289.1
				h-1.8v-8.3h1.8V289.1z"/>
			<path class="st0" d="M632.9,287.8c0.5,0,0.8-0.1,1.3-0.2v1.3c-0.2,0.1-0.5,0.1-0.7,0.2c-0.4,0-0.6,0.1-0.9,0.1
				c-1.7,0-2.5-0.8-2.5-2.6v-4.5h-1.2v-0.8l1.2-0.6l0.6-1.8h1.1v1.9h2.4v1.3h-2.4v4.5c0,0.5,0.1,0.7,0.4,0.9
				C632.2,287.7,632.6,287.8,632.9,287.8z"/>
			<path class="st0" d="M634.6,280.8h1.9l1.7,4.7c0.2,0.7,0.5,1.3,0.5,1.9h0.1c0-0.2,0.1-0.6,0.2-0.9s0.7-2.2,1.9-5.6h1.9l-3.6,9.5
				c-0.6,1.8-1.8,2.6-3.2,2.6c-0.4,0-0.8,0-1.2-0.1v-1.4c0.2,0.1,0.6,0.1,0.9,0.1c0.8,0,1.4-0.5,1.8-1.5l0.4-0.8L634.6,280.8z"/>
		</g>
	</g>
	<g>
		
			<linearGradient id="SVGID_2_" gradientUnits="userSpaceOnUse" x1="398.7835" y1="1313.5082" x2="204.0462" y2="1313.5082" gradientTransform="matrix(1 0 0 1 0 -1038.8633)">
			<stop  offset="0" style="stop-color:#00BEFF"/>
			<stop  offset="1" style="stop-color:#054BA4"/>
		</linearGradient>
		<path class="st5" d="M235.2,305.8h132.5c17.2,0,31.1-14,31.1-31.1l0,0c0-17.2-14-31.1-31.1-31.1H235.2c-17.2,0-31.1,14-31.1,31.1
			l0,0C204,291.8,217.9,305.8,235.2,305.8z"/>
		<g>
			<path class="st0" d="M230.1,267.5c0,0.9-0.4,1.7-0.9,2.1s-1.5,0.8-2.7,0.8c-1.2,0-2.1-0.2-2.8-0.6v-1.5c0.5,0.2,0.9,0.4,1.4,0.5
				c0.5,0.1,0.9,0.2,1.4,0.2c0.7,0,1.2-0.1,1.4-0.4c0.2-0.2,0.5-0.6,0.5-0.9c0-0.4-0.1-0.7-0.5-0.9c-0.4-0.2-0.8-0.6-1.8-0.9
				c-0.9-0.4-1.5-0.8-2-1.3c-0.5-0.5-0.6-1.1-0.6-1.8c0-0.8,0.4-1.5,0.9-2c0.6-0.5,1.4-0.7,2.4-0.7s1.9,0.2,2.8,0.6l-0.5,1.3
				c-0.9-0.4-1.7-0.6-2.4-0.6c-0.6,0-0.9,0.1-1.2,0.4c-0.2,0.2-0.5,0.6-0.5,0.9c0,0.2,0,0.5,0.1,0.7c0.1,0.2,0.2,0.4,0.6,0.5
				c0.4,0.1,0.7,0.4,1.4,0.7c0.7,0.4,1.3,0.6,1.7,0.8c0.4,0.2,0.6,0.6,0.7,0.9C229.7,266.7,230.1,267.1,230.1,267.5z"/>
			<path class="st0" d="M235.3,270.4c-1.2,0-2.1-0.4-2.8-1.1s-1.1-1.7-1.1-2.8c0-1.3,0.4-2.2,0.9-3c0.6-0.7,1.5-1.1,2.6-1.1
				c1.1,0,1.8,0.4,2.4,0.9c0.6,0.6,0.8,1.4,0.8,2.5v0.8H233c0,0.7,0.2,1.3,0.6,1.8s0.9,0.6,1.7,0.6c0.5,0,0.8,0,1.3-0.1
				c0.5-0.1,0.8-0.2,1.3-0.5v1.3c-0.4,0.2-0.8,0.4-1.2,0.4S235.8,270.4,235.3,270.4z M234.9,263.8c-0.5,0-0.9,0.1-1.3,0.5
				c-0.4,0.4-0.5,0.8-0.6,1.4h3.4c0-0.6-0.1-1.1-0.5-1.4S235.4,263.8,234.9,263.8z"/>
			<path class="st0" d="M241.7,270.3H240v-10.8h1.7V270.3z"/>
			<path class="st0" d="M247.4,270.4c-1.2,0-2.1-0.4-2.8-1.1c-0.7-0.7-1.1-1.7-1.1-2.8c0-1.3,0.4-2.2,0.9-3s1.5-1.1,2.6-1.1
				s1.8,0.4,2.4,0.9c0.6,0.6,0.8,1.4,0.8,2.5v0.8h-5.1c0,0.7,0.2,1.3,0.6,1.8s0.9,0.6,1.7,0.6c0.5,0,0.8,0,1.3-0.1
				c0.5-0.1,0.8-0.2,1.3-0.5v1.3c-0.4,0.2-0.8,0.4-1.2,0.4S248,270.4,247.4,270.4z M247.1,263.8c-0.5,0-0.9,0.1-1.3,0.5
				c-0.4,0.4-0.5,0.8-0.6,1.4h3.4c0-0.6-0.1-1.1-0.5-1.4C247.8,263.9,247.6,263.8,247.1,263.8z"/>
			<path class="st0" d="M255.3,270.4c-1.2,0-2-0.4-2.6-1.1s-0.9-1.7-0.9-3c0-1.3,0.4-2.2,0.9-3s1.5-1.1,2.7-1.1
				c0.8,0,1.5,0.1,2.1,0.5l-0.5,1.3c-0.7-0.2-1.3-0.4-1.7-0.4c-1.3,0-2,0.8-2,2.6c0,0.8,0.1,1.5,0.5,1.9c0.4,0.4,0.8,0.6,1.4,0.6
				c0.7,0,1.4-0.2,2-0.6v1.4c-0.2,0.1-0.6,0.2-0.9,0.4C256,270.1,255.8,270.4,255.3,270.4z"/>
			<path class="st0" d="M262.2,269.1c0.4,0,0.8-0.1,1.2-0.2v1.2c-0.2,0.1-0.4,0.1-0.7,0.2c-0.4,0.1-0.6,0.1-0.8,0.1
				c-1.5,0-2.4-0.8-2.4-2.5v-4.1h-1.1V263l1.1-0.6l0.6-1.7h0.9v1.7h2.1v1.2H261v4.1c0,0.4,0.1,0.7,0.2,0.8
				C261.3,268.7,261.8,269.1,262.2,269.1z"/>
			<path class="st0" d="M278.5,270.3h-6.9v-1.2l2.6-2.6c0.8-0.8,1.3-1.3,1.5-1.7c0.2-0.4,0.5-0.6,0.6-0.9c0.1-0.4,0.1-0.6,0.1-0.9
				c0-0.5-0.1-0.8-0.4-1.1c-0.2-0.2-0.7-0.4-1.2-0.4c-0.4,0-0.7,0.1-1.2,0.2c-0.5,0.1-0.8,0.4-1.3,0.8l-0.8-1.1
				c0.6-0.5,1.1-0.8,1.7-1.1c0.6-0.2,1.1-0.4,1.7-0.4c0.9,0,1.7,0.2,2.2,0.7c0.6,0.5,0.8,1.2,0.8,2c0,0.5-0.1,0.9-0.2,1.3
				c-0.1,0.4-0.5,0.8-0.7,1.3c-0.2,0.5-0.9,1.1-1.7,1.8l-1.8,1.7v0.1h4.9V270.3z"/>
			<path class="st0" d="M286.7,265.2c0,1.8-0.2,3.1-0.8,3.9c-0.6,0.8-1.4,1.3-2.6,1.3s-2-0.5-2.6-1.3c-0.6-0.8-0.8-2.1-0.8-3.9
				s0.2-3.1,0.8-3.9c0.6-0.8,1.4-1.3,2.6-1.3s2,0.5,2.6,1.3C286.4,262.1,286.7,263.5,286.7,265.2z M281.5,265.2c0,1.4,0.1,2.4,0.5,3
				c0.4,0.6,0.7,0.9,1.4,0.9s1.1-0.4,1.4-0.9c0.4-0.6,0.5-1.5,0.5-3c0-1.3-0.1-2.4-0.5-3s-0.7-0.9-1.4-0.9s-1.1,0.4-1.4,0.9
				C281.6,262.8,281.5,263.9,281.5,265.2z"/>
			<path class="st0" d="M292.4,263.2c0,1.1-0.2,1.9-0.6,2.4s-0.9,0.8-1.7,0.8s-1.3-0.2-1.7-0.8s-0.6-1.3-0.6-2.4
				c0-2.1,0.7-3.2,2.2-3.2c0.7,0,1.3,0.2,1.7,0.8S292.4,262.2,292.4,263.2z M289.2,263.2c0,0.7,0.1,1.2,0.2,1.5s0.4,0.5,0.7,0.5
				c0.6,0,0.9-0.7,0.9-2c0-1.3-0.4-2-0.9-2c-0.4,0-0.5,0.1-0.7,0.5S289.2,262.5,289.2,263.2z M296.9,260.2l-5.7,10.2h-1.3l5.7-10.2
				H296.9z M299,267.2c0,1.1-0.2,1.9-0.6,2.4s-0.9,0.8-1.7,0.8s-1.3-0.2-1.7-0.8s-0.6-1.3-0.6-2.4c0-2.1,0.7-3.2,2.2-3.2
				c0.7,0,1.3,0.2,1.7,0.8C298.8,265.4,299,266.2,299,267.2z M295.8,267.2c0,0.7,0.1,1.2,0.2,1.5c0.1,0.4,0.4,0.5,0.7,0.5
				c0.6,0,0.9-0.7,0.9-2c0-1.3-0.4-2-0.9-2c-0.4,0-0.5,0.1-0.7,0.5C295.8,266,295.8,266.6,295.8,267.2z"/>
			<path class="st0" d="M309.5,268.1c0,0.7-0.2,1.3-0.8,1.8s-1.3,0.6-2.4,0.6c-1.1,0-1.9-0.1-2.5-0.5v-1.4c0.9,0.5,1.8,0.6,2.5,0.6
				c0.9,0,1.5-0.4,1.5-0.9c0-0.2,0-0.4-0.1-0.5c-0.1-0.1-0.2-0.2-0.6-0.4c-0.4-0.1-0.6-0.4-1.1-0.5c-0.8-0.4-1.5-0.7-1.8-1.1
				s-0.5-0.8-0.5-1.3c0-0.7,0.2-1.2,0.8-1.5c0.6-0.4,1.3-0.6,2.1-0.6c0.9,0,1.8,0.2,2.6,0.6l-0.5,1.2c-0.8-0.4-1.5-0.5-2.1-0.5
				c-0.8,0-1.3,0.2-1.3,0.7c0,0.2,0.1,0.5,0.4,0.6c0.2,0.1,0.7,0.4,1.4,0.7c0.6,0.2,1.1,0.5,1.4,0.7s0.5,0.5,0.6,0.7
				C309.4,267.4,309.5,267.8,309.5,268.1z"/>
			<path class="st0" d="M314.1,269.1c0.4,0,0.8-0.1,1.2-0.2v1.2c-0.2,0.1-0.4,0.1-0.7,0.2c-0.4,0.1-0.6,0.1-0.8,0.1
				c-1.5,0-2.4-0.8-2.4-2.5v-4.1h-1.1V263l1.1-0.6l0.6-1.7h0.9v1.7h2.1v1.2H313v4.1c0,0.4,0.1,0.7,0.2,0.8
				C313.3,268.7,313.8,269.1,314.1,269.1z"/>
			<path class="st0" d="M323.7,266.5c0,1.3-0.4,2.2-0.9,3c-0.6,0.7-1.5,1.1-2.7,1.1c-0.7,0-1.3-0.1-1.9-0.5s-0.9-0.8-1.3-1.4
				c-0.4-0.6-0.5-1.3-0.5-2.1c0-1.3,0.4-2.2,0.9-3c0.6-0.7,1.5-1.1,2.7-1.1c1.1,0,2,0.4,2.6,1.1
				C323.3,264.2,323.7,265.3,323.7,266.5z M318,266.5c0,1.8,0.7,2.6,2,2.6c1.3,0,1.9-0.8,1.9-2.6c0-1.8-0.7-2.6-2-2.6
				c-0.7,0-1.2,0.2-1.5,0.7C318,265.1,318,265.6,318,266.5z"/>
			<path class="st0" d="M328.7,270.4c-1.2,0-2-0.4-2.6-1.1c-0.6-0.7-0.9-1.7-0.9-3c0-1.3,0.4-2.2,0.9-3c0.6-0.7,1.5-1.1,2.7-1.1
				c0.8,0,1.5,0.1,2.1,0.5l-0.5,1.3c-0.7-0.2-1.3-0.4-1.7-0.4c-1.3,0-2,0.8-2,2.6c0,0.8,0.1,1.5,0.5,1.9c0.4,0.4,0.8,0.6,1.4,0.6
				c0.7,0,1.4-0.2,2-0.6v1.4c-0.2,0.1-0.6,0.2-0.9,0.4C329.4,270.1,329.2,270.4,328.7,270.4z"/>
			<path class="st0" d="M334.1,266.2l0.9-1.2l2.4-2.5h1.9l-3.1,3.3l3.3,4.4h-1.9l-2.6-3.3l-0.9,0.7v2.6h-1.7v-10.8h1.7v5.2V266.2
				L334.1,266.2z"/>
			<path class="st0" d="M345.9,268.1c0,0.7-0.2,1.3-0.8,1.8s-1.3,0.6-2.4,0.6c-1.1,0-1.9-0.1-2.5-0.5v-1.4c0.9,0.5,1.8,0.6,2.5,0.6
				c0.9,0,1.5-0.4,1.5-0.9c0-0.2,0-0.4-0.1-0.5c-0.1-0.1-0.2-0.2-0.6-0.4c-0.4-0.1-0.6-0.4-1.1-0.5c-0.8-0.4-1.5-0.7-1.8-1.1
				s-0.5-0.8-0.5-1.3c0-0.7,0.2-1.2,0.8-1.5c0.6-0.4,1.3-0.6,2.1-0.6c0.9,0,1.8,0.2,2.6,0.6l-0.5,1.2c-0.8-0.4-1.5-0.5-2.1-0.5
				c-0.8,0-1.3,0.2-1.3,0.7c0,0.2,0.1,0.5,0.4,0.6c0.2,0.1,0.7,0.4,1.4,0.7c0.6,0.2,1.1,0.5,1.4,0.7s0.5,0.5,0.6,0.7
				C345.7,267.4,345.9,267.8,345.9,268.1z"/>
			<path class="st0" d="M357.6,270.3l-0.9-3.6c-0.1-0.4-0.4-1.3-0.7-2.6h-0.1c-0.2,1.3-0.5,2.1-0.6,2.6l-1.1,3.6h-1.8l-2.1-7.7h1.7
				l0.9,3.8c0.2,0.9,0.4,1.8,0.5,2.4l0,0c0-0.4,0.1-0.7,0.2-1.2c0.1-0.5,0.1-0.7,0.2-0.9l1.2-4h1.8l1.2,4c0.1,0.2,0.1,0.6,0.2,1.1
				c0.1,0.5,0.1,0.8,0.2,1.1l0,0c0.1-0.6,0.2-1.4,0.5-2.4l0.9-3.8h1.7l-2.1,7.7H357.6z"/>
			<path class="st0" d="M362.8,260.6c0-0.2,0.1-0.5,0.2-0.7c0.1-0.2,0.4-0.2,0.7-0.2c0.2,0,0.5,0.1,0.7,0.2c0.2,0.1,0.2,0.4,0.2,0.7
				c0,0.2-0.1,0.5-0.2,0.7c-0.1,0.2-0.4,0.2-0.7,0.2c-0.4,0-0.5-0.1-0.7-0.2C362.8,261.1,362.8,260.9,362.8,260.6z M364.6,270.3
				h-1.7v-7.7h1.7V270.3z"/>
			<path class="st0" d="M369.8,269.1c0.4,0,0.8-0.1,1.2-0.2v1.2c-0.2,0.1-0.4,0.1-0.7,0.2c-0.4,0.1-0.6,0.1-0.8,0.1
				c-1.5,0-2.4-0.8-2.4-2.5v-4.1H366V263l1.1-0.6l0.6-1.7h0.9v1.7h2.1v1.2h-2.1v4.1c0,0.4,0.1,0.7,0.2,0.8
				C369,268.7,369.4,269.1,369.8,269.1z"/>
			<path class="st0" d="M379.3,270.3h-1.7v-4.7c0-0.6-0.1-1.1-0.4-1.3c-0.2-0.2-0.6-0.5-1.2-0.5c-0.7,0-1.2,0.2-1.5,0.6
				s-0.5,1.1-0.5,2v3.8h-1.7v-10.8h1.7v2.7c0,0.5,0,0.9-0.1,1.4h0.1c0.2-0.4,0.5-0.7,0.9-0.8c0.5-0.1,0.8-0.4,1.4-0.4
				c1.9,0,2.8,0.9,2.8,2.8L379.3,270.3L379.3,270.3z"/>
			<path class="st0" d="M237.1,288.5c0.4,0,0.8-0.1,1.2-0.2v1.2c-0.2,0.1-0.4,0.1-0.7,0.2c-0.4,0.1-0.6,0.1-0.8,0.1
				c-1.5,0-2.4-0.8-2.4-2.5v-4.1h-1.1v-0.7l1.1-0.6l0.6-1.7h0.9v1.7h2.1v1.2h-2.1v4.1c0,0.4,0.1,0.7,0.2,0.8
				C236.2,288.1,236.7,288.5,237.1,288.5z"/>
			<path class="st0" d="M246.5,289.7h-1.7v-4.7c0-0.6-0.1-1.1-0.4-1.3c-0.2-0.2-0.6-0.5-1.2-0.5c-0.7,0-1.2,0.2-1.5,0.6
				s-0.5,1.1-0.5,2v3.8h-1.7v-10.8h1.7v2.7c0,0.5,0,0.9-0.1,1.4h0.1c0.2-0.4,0.5-0.7,0.9-0.8c0.5-0.1,0.8-0.4,1.4-0.4
				c1.9,0,2.8,0.9,2.8,2.8V289.7z"/>
			<path class="st0" d="M252.1,289.8c-1.2,0-2.1-0.4-2.8-1.1c-0.7-0.7-1.1-1.7-1.1-2.8c0-1.3,0.4-2.2,0.9-3s1.5-1.1,2.6-1.1
				s1.8,0.4,2.4,0.9s0.8,1.4,0.8,2.5v0.8h-5.1c0,0.7,0.2,1.3,0.6,1.8s0.9,0.6,1.7,0.6c0.5,0,0.8,0,1.3-0.1c0.5-0.1,0.8-0.2,1.3-0.5
				v1.3c-0.4,0.2-0.8,0.4-1.2,0.4S252.7,289.8,252.1,289.8z M251.9,283.2c-0.5,0-0.9,0.1-1.3,0.5s-0.5,0.8-0.6,1.4h3.4
				c0-0.6-0.1-1.1-0.5-1.4S252.3,283.2,251.9,283.2z"/>
			<path class="st0" d="M262.3,289.7h-1.7v-10.8h1.7V289.7z"/>
			<path class="st0" d="M271.4,285.9c0,1.3-0.4,2.2-0.9,3c-0.6,0.7-1.5,1.1-2.7,1.1c-0.7,0-1.3-0.1-1.9-0.5s-0.9-0.8-1.3-1.4
				s-0.5-1.3-0.5-2.1c0-1.3,0.4-2.2,0.9-3c0.6-0.7,1.5-1.1,2.7-1.1c1.1,0,2,0.4,2.6,1.1S271.4,284.7,271.4,285.9z M265.8,285.9
				c0,1.8,0.7,2.6,2,2.6c1.3,0,1.9-0.8,1.9-2.6c0-1.8-0.7-2.6-2-2.6c-0.7,0-1.2,0.2-1.5,0.7S265.8,285.1,265.8,285.9z"/>
			<path class="st0" d="M279.6,289.7l-0.9-3.6c-0.1-0.4-0.4-1.3-0.7-2.6h-0.1c-0.2,1.3-0.5,2.1-0.6,2.6l-1.1,3.6h-1.8l-2.1-7.7h1.7
				l0.9,3.8c0.2,0.9,0.4,1.8,0.5,2.4l0,0c0-0.4,0.1-0.7,0.2-1.2c0.1-0.5,0.1-0.7,0.2-0.9l1.2-4h1.8l1.2,4c0.1,0.2,0.1,0.6,0.2,1.1
				s0.1,0.8,0.2,1.1l0,0c0.1-0.6,0.2-1.4,0.5-2.4l0.9-3.8h1.7l-2.1,7.7H279.6z"/>
			<path class="st0" d="M288.2,289.8c-1.2,0-2.1-0.4-2.8-1.1s-1.1-1.7-1.1-2.8c0-1.3,0.4-2.2,0.9-3c0.6-0.7,1.5-1.1,2.6-1.1
				c1.1,0,1.8,0.4,2.4,0.9s0.8,1.4,0.8,2.5v0.8H286c0,0.7,0.2,1.3,0.6,1.8s0.9,0.6,1.7,0.6c0.5,0,0.8,0,1.3-0.1
				c0.5-0.1,0.8-0.2,1.3-0.5v1.3c-0.4,0.2-0.8,0.4-1.2,0.4C289.3,289.6,288.8,289.8,288.2,289.8z M288,283.2c-0.5,0-0.9,0.1-1.3,0.5
				s-0.5,0.8-0.6,1.4h3.4c0-0.6-0.1-1.1-0.5-1.4S288.5,283.2,288,283.2z"/>
			<path class="st0" d="M298.3,287.5c0,0.7-0.2,1.3-0.8,1.8c-0.6,0.5-1.3,0.6-2.4,0.6s-1.9-0.1-2.5-0.5V288c0.9,0.5,1.8,0.6,2.5,0.6
				c0.9,0,1.5-0.4,1.5-0.9c0-0.2,0-0.4-0.1-0.5c-0.1-0.1-0.2-0.2-0.6-0.4s-0.6-0.4-1.1-0.5c-0.8-0.4-1.5-0.7-1.8-1.1
				c-0.2-0.4-0.5-0.8-0.5-1.3c0-0.7,0.2-1.2,0.8-1.5c0.6-0.4,1.3-0.6,2.1-0.6c0.9,0,1.8,0.2,2.6,0.6l-0.5,1.2
				c-0.8-0.4-1.5-0.5-2.1-0.5c-0.8,0-1.3,0.2-1.3,0.7c0,0.2,0.1,0.5,0.4,0.6c0.2,0.1,0.7,0.4,1.4,0.7c0.6,0.2,1.1,0.5,1.4,0.7
				c0.4,0.2,0.5,0.5,0.6,0.7C298.2,286.8,298.3,287.2,298.3,287.5z"/>
			<path class="st0" d="M302.9,288.5c0.4,0,0.8-0.1,1.2-0.2v1.2c-0.2,0.1-0.4,0.1-0.7,0.2c-0.4,0.1-0.6,0.1-0.8,0.1
				c-1.5,0-2.4-0.8-2.4-2.5v-4.1h-1.1v-0.7l1.1-0.6l0.6-1.7h0.9v1.7h2.1v1.2h-2.1v4.1c0,0.4,0.1,0.7,0.2,0.8
				C302.1,288.1,302.5,288.5,302.9,288.5z"/>
			<path class="st0" d="M317.5,289.7h-1.7v-4.6h-4.6v4.6h-1.7v-10.2h1.7v4.1h4.6v-4.1h1.7V289.7z"/>
			<path class="st0" d="M321.8,289.7h-1.7v-10.2h5.7v1.4h-4v3.2h3.8v1.4h-3.8V289.7z"/>
			<path class="st0" d="M336.4,287.5c0,0.7-0.2,1.3-0.8,1.8c-0.6,0.5-1.3,0.6-2.4,0.6s-1.9-0.1-2.5-0.5V288c0.9,0.5,1.8,0.6,2.5,0.6
				c0.9,0,1.5-0.4,1.5-0.9c0-0.2,0-0.4-0.1-0.5c-0.1-0.1-0.2-0.2-0.6-0.4s-0.6-0.4-1.1-0.5c-0.8-0.4-1.5-0.7-1.8-1.1
				s-0.5-0.8-0.5-1.3c0-0.7,0.2-1.2,0.8-1.5c0.6-0.4,1.3-0.6,2.1-0.6c0.9,0,1.8,0.2,2.6,0.6l-0.5,1.2c-0.8-0.4-1.5-0.5-2.1-0.5
				c-0.8,0-1.3,0.2-1.3,0.7c0,0.2,0.1,0.5,0.4,0.6c0.2,0.1,0.7,0.4,1.4,0.7c0.6,0.2,1.1,0.5,1.4,0.7c0.4,0.2,0.5,0.5,0.6,0.7
				C336.3,286.8,336.4,287.2,336.4,287.5z"/>
			<path class="st0" d="M341.3,289.8c-1.2,0-2-0.4-2.6-1.1c-0.6-0.7-0.9-1.7-0.9-3s0.4-2.2,0.9-3c0.6-0.7,1.5-1.1,2.7-1.1
				c0.8,0,1.5,0.1,2.1,0.5l-0.5,1.3c-0.7-0.2-1.3-0.4-1.7-0.4c-1.3,0-2,0.8-2,2.6c0,0.8,0.1,1.5,0.5,1.9c0.4,0.4,0.8,0.6,1.4,0.6
				c0.7,0,1.4-0.2,2-0.6v1.4c-0.2,0.1-0.6,0.2-0.9,0.4C342,289.6,341.7,289.8,341.3,289.8z"/>
			<path class="st0" d="M352,285.9c0,1.3-0.4,2.2-0.9,3c-0.6,0.7-1.5,1.1-2.7,1.1c-0.7,0-1.3-0.1-1.9-0.5c-0.6-0.4-0.9-0.8-1.3-1.4
				s-0.5-1.3-0.5-2.1c0-1.3,0.4-2.2,0.9-3c0.6-0.7,1.5-1.1,2.7-1.1c1.1,0,2,0.4,2.6,1.1S352,284.7,352,285.9z M346.3,285.9
				c0,1.8,0.7,2.6,2,2.6s1.9-0.8,1.9-2.6c0-1.8-0.7-2.6-2-2.6c-0.7,0-1.2,0.2-1.5,0.7C346.3,284.5,346.3,285.1,346.3,285.9z"/>
			<path class="st0" d="M357.7,281.9c0.4,0,0.6,0,0.8,0.1l-0.1,1.5c-0.2,0-0.5-0.1-0.7-0.1c-0.7,0-1.2,0.2-1.5,0.6s-0.6,0.9-0.6,1.7
				v4h-1.7V282h1.3l0.2,1.3h0.1c0.2-0.5,0.6-0.8,0.9-1.1C356.9,282,357.2,281.9,357.7,281.9z"/>
			<path class="st0" d="M363.3,289.8c-1.2,0-2.1-0.4-2.8-1.1s-1.1-1.7-1.1-2.8c0-1.3,0.4-2.2,0.9-3c0.6-0.7,1.5-1.1,2.6-1.1
				c1.1,0,1.8,0.4,2.4,0.9s0.8,1.4,0.8,2.5v0.8h-5c0,0.7,0.2,1.3,0.6,1.8s0.9,0.6,1.7,0.6c0.5,0,0.8,0,1.3-0.1
				c0.5-0.1,0.8-0.2,1.3-0.5v1.3c-0.4,0.2-0.8,0.4-1.2,0.4S363.9,289.8,363.3,289.8z M363,283.2c-0.5,0-0.9,0.1-1.3,0.5
				s-0.5,0.8-0.6,1.4h3.4c0-0.6-0.1-1.1-0.5-1.4S363.5,283.2,363,283.2z"/>
			<path class="st0" d="M373.3,287.5c0,0.7-0.2,1.3-0.8,1.8c-0.6,0.5-1.3,0.6-2.4,0.6s-1.9-0.1-2.5-0.5V288c0.9,0.5,1.8,0.6,2.5,0.6
				c0.9,0,1.5-0.4,1.5-0.9c0-0.2,0-0.4-0.1-0.5c-0.1-0.1-0.2-0.2-0.6-0.4s-0.6-0.4-1.1-0.5c-0.8-0.4-1.5-0.7-1.8-1.1
				c-0.2-0.4-0.5-0.8-0.5-1.3c0-0.7,0.2-1.2,0.8-1.5c0.6-0.4,1.3-0.6,2.1-0.6c0.9,0,1.8,0.2,2.6,0.6l-0.5,1.2
				c-0.8-0.4-1.5-0.5-2.1-0.5c-0.8,0-1.3,0.2-1.3,0.7c0,0.2,0.1,0.5,0.4,0.6c0.2,0.1,0.7,0.4,1.4,0.7c0.6,0.2,1.1,0.5,1.4,0.7
				c0.4,0.2,0.5,0.5,0.6,0.7C373.2,286.8,373.3,287.2,373.3,287.5z"/>
		</g>
	</g>
	<g>
		<path class="st6" d="M956.7,243.5H756.1c-17.2,0-31.1,14-31.1,31.1l0,0c0,17.2,14,31.1,31.1,31.1h200.7c17.2,0,31.1-14,31.1-31.1
			l0,0C988,257.5,974,243.5,956.7,243.5z"/>
		<g>
			<path class="st2" d="M794.3,267.1H792l-5.4-8.8h-0.1v0.5c0.1,0.9,0.1,1.8,0.1,2.6v5.7h-1.7v-11h2.1l5.4,8.8l0,0
				c0-0.1,0-0.6-0.1-1.3s0-1.3,0-1.7v-5.8h1.7v11H794.3z"/>
			<path class="st2" d="M800.6,267.2c-1.3,0-2.2-0.4-3.1-1.2c-0.7-0.7-1.1-1.8-1.1-3.1s0.4-2.4,1.1-3.2c0.7-0.8,1.7-1.2,2.8-1.2
				c1.1,0,2,0.4,2.6,0.9c0.6,0.7,0.9,1.5,0.9,2.7v0.9h-5.6c0,0.8,0.2,1.4,0.7,1.9c0.4,0.5,0.9,0.6,1.8,0.6c0.5,0,0.9,0,1.4-0.1
				c0.5-0.1,0.8-0.2,1.4-0.5v1.4c-0.5,0.2-0.8,0.4-1.3,0.5C801.6,267.2,801.2,267.2,800.6,267.2z M800.3,260c-0.6,0-1.1,0.2-1.3,0.6
				c-0.4,0.4-0.6,0.8-0.6,1.5h3.8c0-0.7-0.1-1.2-0.5-1.5C801.3,260.1,800.8,260,800.3,260z"/>
			<path class="st2" d="M812.6,267.1l-1.1-3.9c-0.1-0.4-0.4-1.4-0.7-2.8h-0.1c-0.2,1.3-0.5,2.4-0.7,2.8l-1.1,3.9h-2l-2.4-8.3h1.8
				l1.1,4.1c0.2,1.1,0.4,1.9,0.5,2.6l0,0c0-0.4,0.1-0.8,0.2-1.3c0.1-0.5,0.2-0.8,0.2-1.1l1.3-4.4h1.9l1.2,4.4
				c0.1,0.2,0.1,0.6,0.2,1.2c0.1,0.5,0.2,0.9,0.2,1.2h0.1c0.1-0.6,0.2-1.4,0.5-2.6l1.1-4.1h1.8l-2.4,8.3H812.6z"/>
			<path class="st2" d="M829.5,267.1l-1.1-3.1h-4.1l-1.1,3.1h-1.9l4.1-11h2l4.1,11H829.5z M827.9,262.5l-1.1-3
				c-0.1-0.2-0.2-0.5-0.4-0.9c-0.1-0.5-0.2-0.7-0.2-0.9c-0.1,0.6-0.4,1.3-0.6,2l-0.9,2.8L827.9,262.5L827.9,262.5z"/>
			<path class="st2" d="M839.6,258.8v0.9l-1.4,0.2c0.1,0.1,0.2,0.4,0.4,0.6c0.1,0.2,0.1,0.5,0.1,0.8c0,0.8-0.2,1.5-0.8,2
				s-1.4,0.7-2.5,0.7c-0.2,0-0.5,0-0.7-0.1c-0.4,0.2-0.6,0.5-0.6,0.8c0,0.2,0.1,0.4,0.2,0.5c0.1,0.1,0.5,0.1,0.9,0.1h1.4
				c0.9,0,1.7,0.2,2.1,0.6c0.5,0.4,0.7,0.9,0.7,1.7c0,0.9-0.4,1.7-1.2,2.1s-1.9,0.7-3.3,0.7c-1.2,0-2-0.2-2.6-0.6
				c-0.6-0.4-0.9-0.9-0.9-1.7c0-0.5,0.1-0.9,0.5-1.3c0.4-0.4,0.8-0.6,1.3-0.7c-0.2-0.1-0.5-0.2-0.6-0.5c-0.1-0.2-0.2-0.5-0.2-0.7
				c0-0.4,0.1-0.6,0.2-0.8c0.1-0.2,0.5-0.5,0.8-0.6c-0.5-0.2-0.8-0.5-1.1-0.9c-0.2-0.5-0.4-0.9-0.4-1.4c0-0.9,0.2-1.7,0.8-2.1
				c0.6-0.5,1.4-0.7,2.5-0.7c0.2,0,0.5,0,0.7,0c0.2,0,0.5,0.1,0.6,0.1h3V258.8z M833.1,268.4c0,0.4,0.1,0.7,0.5,0.8
				c0.4,0.2,0.8,0.4,1.4,0.4c0.9,0,1.7-0.1,2.1-0.4c0.5-0.2,0.7-0.6,0.7-1.1c0-0.4-0.1-0.6-0.4-0.8c-0.2-0.2-0.7-0.2-1.4-0.2h-1.3
				c-0.5,0-0.9,0.1-1.2,0.4C833.4,267.7,833.1,268,833.1,268.4z M833.8,261.5c0,0.5,0.1,0.9,0.4,1.2c0.2,0.2,0.7,0.5,1.2,0.5
				c1.1,0,1.5-0.6,1.5-1.7c0-0.6-0.1-0.9-0.4-1.3c-0.2-0.2-0.6-0.5-1.2-0.5c-0.5,0-0.9,0.1-1.2,0.5
				C834,260.4,833.8,260.9,833.8,261.5z"/>
			<path class="st2" d="M844.8,267.2c-1.3,0-2.2-0.4-3.1-1.2c-0.7-0.7-1.1-1.8-1.1-3.1s0.4-2.4,1.1-3.2c0.7-0.8,1.7-1.2,2.8-1.2
				c1.1,0,2,0.4,2.6,0.9c0.6,0.7,0.9,1.5,0.9,2.7v0.9h-5.6c0,0.8,0.2,1.4,0.7,1.9c0.4,0.5,0.9,0.6,1.8,0.6c0.5,0,0.9,0,1.4-0.1
				c0.5-0.1,0.8-0.2,1.4-0.5v1.4c-0.5,0.2-0.8,0.4-1.3,0.5C845.9,267.2,845.3,267.2,844.8,267.2z M844.5,260c-0.6,0-1.1,0.2-1.3,0.6
				c-0.4,0.4-0.6,0.8-0.6,1.5h3.8c0-0.7-0.1-1.2-0.5-1.5C845.4,260.1,845.1,260,844.5,260z"/>
			<path class="st2" d="M861.1,267.1L860,264h-4.1l-1.1,3.1h-1.9l4.1-11h2l4.1,11H861.1z M859.4,262.5l-1.1-3
				c-0.1-0.2-0.2-0.5-0.4-0.9c-0.1-0.5-0.2-0.7-0.2-0.9c-0.1,0.6-0.4,1.3-0.6,2l-0.9,2.8L859.4,262.5L859.4,262.5z"/>
			<path class="st2" d="M865.9,267.1h-1.8v-11.7h1.8V267.1z"/>
			<path class="st2" d="M872.7,267.2c-1.1,0-1.9-0.4-2.5-1.2l0,0c0.1,0.7,0.1,1.2,0.1,1.3v3.4h-1.8v-12h1.4c0,0.1,0.1,0.5,0.2,1.1
				h0.1c0.6-0.8,1.4-1.3,2.5-1.3c1.1,0,1.9,0.4,2.4,1.2c0.6,0.7,0.8,1.8,0.8,3.2c0,1.3-0.2,2.4-0.8,3.2
				C874.6,267,873.7,267.2,872.7,267.2z M872.3,260.1c-0.7,0-1.2,0.2-1.5,0.6c-0.4,0.4-0.5,1.1-0.5,2v0.2c0,1.1,0.1,1.8,0.5,2.2
				c0.4,0.5,0.8,0.7,1.5,0.7c0.6,0,1.1-0.2,1.4-0.7c0.4-0.5,0.5-1.2,0.5-2.1c0-0.9-0.1-1.7-0.5-2.1
				C873.4,260.4,872.9,260.1,872.3,260.1z"/>
			<path class="st2" d="M885.3,267.1h-1.8V262c0-0.6-0.1-1.1-0.4-1.4c-0.2-0.4-0.7-0.5-1.2-0.5c-0.7,0-1.3,0.2-1.7,0.7
				c-0.4,0.5-0.5,1.2-0.5,2.2v4.1h-1.8v-11.7h1.8v3c0,0.5,0,0.9-0.1,1.5h0.1c0.2-0.4,0.6-0.7,0.9-0.9c0.5-0.2,0.9-0.4,1.5-0.4
				c2,0,3.1,1.1,3.1,3.1v5.3H885.3z"/>
			<path class="st2" d="M893,267.1l-0.4-1.2l0,0c-0.4,0.5-0.8,0.8-1.2,1.1c-0.4,0.2-0.9,0.2-1.5,0.2c-0.8,0-1.4-0.2-1.9-0.7
				c-0.5-0.5-0.7-1.1-0.7-1.9c0-0.8,0.4-1.5,0.9-1.9c0.6-0.5,1.7-0.7,3-0.7h1.4v-0.5c0-0.5-0.1-0.9-0.4-1.2
				c-0.2-0.2-0.6-0.4-1.2-0.4c-0.5,0-0.8,0.1-1.2,0.2c-0.4,0.1-0.7,0.2-1.2,0.5l-0.6-1.3c0.5-0.2,0.9-0.5,1.5-0.6
				c0.6-0.1,1.1-0.2,1.5-0.2c1.1,0,1.9,0.2,2.4,0.7s0.8,1.2,0.8,2.1v5.6H893V267.1z M890.4,265.9c0.6,0,1.2-0.2,1.5-0.6
				c0.4-0.4,0.6-0.8,0.6-1.5V263h-1.1c-0.8,0-1.4,0.1-1.8,0.5c-0.4,0.2-0.6,0.6-0.6,1.2c0,0.4,0.1,0.7,0.4,0.8
				C889.6,265.8,889.9,265.9,890.4,265.9z"/>
			<path class="st2" d="M909.6,256.1v7.1c0,0.8-0.1,1.5-0.5,2.1c-0.4,0.6-0.8,1.1-1.5,1.4s-1.4,0.5-2.4,0.5c-1.4,0-2.4-0.4-3.2-1.1
				c-0.7-0.7-1.2-1.7-1.2-3v-7.1h1.8v7c0,0.9,0.2,1.5,0.6,2c0.4,0.5,1.1,0.6,1.9,0.6c1.7,0,2.5-0.9,2.5-2.7v-7h2V256.1z"/>
			<path class="st2" d="M912,266.1c0-0.4,0.1-0.6,0.2-0.8c0.2-0.2,0.5-0.2,0.8-0.2c0.4,0,0.6,0.1,0.8,0.4c0.2,0.2,0.2,0.5,0.2,0.8
				c0,0.4-0.1,0.6-0.2,0.8c-0.1,0.2-0.5,0.4-0.8,0.4c-0.4,0-0.6-0.1-0.8-0.4C912,266.8,912,266.5,912,266.1z"/>
			<path class="st2" d="M923,264.1c0,0.9-0.4,1.8-1.1,2.2c-0.7,0.6-1.7,0.8-3,0.8s-2.2-0.2-3.1-0.6v-1.7c0.5,0.2,1.1,0.5,1.5,0.6
				c0.6,0.1,1.1,0.2,1.5,0.2c0.7,0,1.2-0.1,1.5-0.4c0.4-0.2,0.5-0.6,0.5-1.1c0-0.4-0.1-0.7-0.5-1.1c-0.4-0.2-0.9-0.6-1.9-1.1
				c-0.9-0.4-1.7-0.8-2.1-1.4c-0.4-0.5-0.6-1.2-0.6-1.9c0-0.9,0.4-1.7,0.9-2.1c0.6-0.5,1.5-0.8,2.6-0.8c1.1,0,2.1,0.2,3.2,0.7
				l-0.6,1.4c-0.9-0.4-1.9-0.6-2.6-0.6c-0.6,0-1.1,0.1-1.3,0.4c-0.2,0.2-0.5,0.6-0.5,0.9c0,0.2,0.1,0.5,0.2,0.7
				c0.1,0.2,0.4,0.4,0.6,0.6c0.2,0.2,0.8,0.5,1.5,0.7c0.8,0.4,1.4,0.6,1.8,0.9c0.4,0.2,0.6,0.6,0.8,0.9
				C922.9,263.2,923,263.6,923,264.1z"/>
			<path class="st2" d="M924.6,266.1c0-0.4,0.1-0.6,0.2-0.8c0.2-0.2,0.5-0.2,0.8-0.2c0.4,0,0.6,0.1,0.8,0.4c0.2,0.2,0.2,0.5,0.2,0.8
				c0,0.4-0.1,0.6-0.2,0.8c-0.1,0.2-0.5,0.4-0.8,0.4c-0.4,0-0.6-0.1-0.8-0.4C924.8,266.8,924.6,266.5,924.6,266.1z"/>
			<path class="st2" d="M777.2,290.3v-11h1.8v9.5h4.6v1.5H777.2z"/>
			<path class="st2" d="M790.5,290.3l-0.4-1.2H790c-0.4,0.5-0.8,0.8-1.2,1.1c-0.4,0.2-0.9,0.2-1.5,0.2c-0.8,0-1.4-0.2-1.9-0.7
				c-0.5-0.5-0.7-1.1-0.7-1.9c0-0.8,0.4-1.5,0.9-1.9c0.6-0.5,1.7-0.7,3-0.7h1.4v-0.5c0-0.5-0.1-0.9-0.4-1.2s-0.6-0.4-1.2-0.4
				c-0.5,0-0.8,0.1-1.2,0.2c-0.4,0.1-0.7,0.2-1.2,0.5l-0.6-1.3c0.5-0.2,0.9-0.5,1.5-0.6c0.6-0.1,1.1-0.2,1.5-0.2
				c1.1,0,1.9,0.2,2.4,0.7c0.5,0.5,0.8,1.2,0.8,2.1v5.6h-1.3V290.3z M787.9,289.1c0.6,0,1.2-0.2,1.5-0.6c0.4-0.4,0.6-0.8,0.6-1.5
				v-0.7H789c-0.8,0-1.4,0.1-1.8,0.5c-0.4,0.2-0.6,0.6-0.6,1.2c0,0.4,0.1,0.7,0.4,0.8C787.2,289,787.5,289.1,787.9,289.1z"/>
			<path class="st2" d="M798.6,281.9c0.4,0,0.6,0,0.8,0.1l-0.1,1.7c-0.2-0.1-0.5-0.1-0.8-0.1c-0.7,0-1.3,0.2-1.8,0.7
				s-0.7,1.1-0.7,1.8v4.4h-1.8v-8.3h1.4l0.2,1.4h0.1c0.2-0.5,0.6-0.9,1.1-1.2C797.5,282,798,281.9,798.6,281.9z"/>
			<path class="st2" d="M807.9,282v0.9l-1.4,0.2c0.1,0.1,0.2,0.4,0.4,0.6c0.1,0.2,0.1,0.5,0.1,0.8c0,0.8-0.2,1.5-0.8,2
				c-0.6,0.5-1.4,0.7-2.5,0.7c-0.2,0-0.5,0-0.7-0.1c-0.4,0.2-0.6,0.5-0.6,0.8c0,0.2,0.1,0.4,0.2,0.5c0.1,0.1,0.5,0.1,0.9,0.1h1.4
				c0.9,0,1.7,0.2,2.1,0.6c0.5,0.4,0.7,0.9,0.7,1.7c0,0.9-0.4,1.7-1.2,2.1c-0.8,0.5-1.9,0.7-3.3,0.7c-1.2,0-2-0.2-2.6-0.6
				c-0.6-0.4-0.9-0.9-0.9-1.7c0-0.5,0.1-0.9,0.5-1.3c0.4-0.4,0.8-0.6,1.3-0.7c-0.2-0.1-0.5-0.2-0.6-0.5c-0.1-0.2-0.2-0.5-0.2-0.7
				c0-0.4,0.1-0.6,0.2-0.8c0.1-0.2,0.5-0.5,0.8-0.6c-0.5-0.2-0.8-0.5-1.1-0.9c-0.2-0.5-0.4-0.9-0.4-1.4c0-0.9,0.2-1.7,0.8-2.1
				s1.4-0.7,2.5-0.7c0.2,0,0.5,0,0.7,0c0.2,0,0.5,0.1,0.6,0.1h3V282z M801.4,291.6c0,0.4,0.1,0.7,0.5,0.8c0.4,0.2,0.8,0.4,1.4,0.4
				c0.9,0,1.7-0.1,2.1-0.4c0.5-0.2,0.7-0.6,0.7-1.1c0-0.4-0.1-0.6-0.4-0.8c-0.2-0.2-0.7-0.2-1.4-0.2h-1.3c-0.5,0-0.9,0.1-1.2,0.4
				C801.6,290.9,801.4,291.2,801.4,291.6z M802.2,284.7c0,0.5,0.1,0.9,0.4,1.2c0.2,0.2,0.7,0.5,1.2,0.5c1.1,0,1.5-0.6,1.5-1.7
				c0-0.6-0.1-0.9-0.4-1.3c-0.2-0.2-0.6-0.5-1.2-0.5c-0.5,0-0.9,0.1-1.2,0.5C802.3,283.6,802.2,284.1,802.2,284.7z"/>
			<path class="st2" d="M813.1,290.4c-1.3,0-2.2-0.4-3.1-1.2c-0.7-0.7-1.1-1.8-1.1-3.1c0-1.3,0.4-2.4,1.1-3.2
				c0.7-0.8,1.7-1.2,2.8-1.2c1.1,0,2,0.4,2.6,0.9c0.6,0.7,0.9,1.5,0.9,2.7v0.9h-5.6c0,0.8,0.2,1.4,0.7,1.9c0.4,0.5,0.9,0.6,1.8,0.6
				c0.5,0,0.9,0,1.4-0.1c0.5-0.1,0.8-0.2,1.4-0.5v1.4c-0.5,0.2-0.8,0.4-1.3,0.5C814.2,290.4,813.7,290.4,813.1,290.4z M812.8,283.2
				c-0.6,0-1.1,0.2-1.3,0.6c-0.4,0.4-0.6,0.8-0.6,1.5h3.8c0-0.7-0.1-1.2-0.5-1.5C813.8,283.3,813.4,283.2,812.8,283.2z"/>
			<path class="st2" d="M817.6,287v-1.5h3.9v1.5H817.6z"/>
			<path class="st2" d="M828.2,280.7c-1.1,0-1.9,0.4-2.5,1.1c-0.6,0.7-0.9,1.8-0.9,3.1c0,1.3,0.2,2.4,0.8,3.1
				c0.6,0.7,1.4,1.1,2.5,1.1c0.5,0,0.9,0,1.3-0.1c0.5-0.1,0.9-0.2,1.3-0.4v1.5c-0.8,0.4-1.9,0.5-3,0.5c-1.7,0-2.8-0.5-3.7-1.4
				c-0.8-0.9-1.3-2.4-1.3-4.1c0-1.2,0.2-2.1,0.6-3c0.4-0.8,1.1-1.5,1.8-2c0.7-0.5,1.8-0.7,2.8-0.7c1.1,0,2.1,0.2,3.1,0.7l-0.6,1.5
				c-0.4-0.1-0.7-0.4-1.2-0.5C829.1,280.7,828.6,280.7,828.2,280.7z"/>
			<path class="st2" d="M838.2,290.3l-0.4-1.2h-0.1c-0.4,0.5-0.8,0.8-1.2,1.1c-0.4,0.2-0.9,0.2-1.5,0.2c-0.8,0-1.4-0.2-1.9-0.7
				c-0.5-0.5-0.7-1.1-0.7-1.9c0-0.8,0.4-1.5,0.9-1.9c0.6-0.5,1.7-0.7,3-0.7h1.4v-0.5c0-0.5-0.1-0.9-0.4-1.2
				c-0.2-0.2-0.6-0.4-1.2-0.4c-0.5,0-0.8,0.1-1.2,0.2c-0.4,0.1-0.7,0.2-1.2,0.5l-0.6-1.3c0.5-0.2,0.9-0.5,1.5-0.6
				c0.6-0.1,1.1-0.2,1.5-0.2c1.1,0,1.9,0.2,2.4,0.7c0.5,0.5,0.8,1.2,0.8,2.1v5.6h-1.3V290.3z M835.6,289.1c0.6,0,1.2-0.2,1.5-0.6
				c0.4-0.4,0.6-0.8,0.6-1.5v-0.7h-1.1c-0.8,0-1.4,0.1-1.8,0.5c-0.4,0.2-0.6,0.6-0.6,1.2c0,0.4,0.1,0.7,0.4,0.8
				C834.9,289,835.1,289.1,835.6,289.1z"/>
			<path class="st2" d="M846.1,290.4c-1.1,0-1.9-0.4-2.5-1.2h-0.1c0.1,0.7,0.1,1.2,0.1,1.3v3.4h-1.8v-12h1.4c0,0.1,0.1,0.5,0.2,1.1
				h0.1c0.6-0.8,1.4-1.3,2.5-1.3c1.1,0,1.9,0.4,2.4,1.2c0.6,0.7,0.8,1.8,0.8,3.2c0,1.3-0.2,2.4-0.8,3.2
				C847.9,290.2,847.2,290.4,846.1,290.4z M845.8,283.3c-0.7,0-1.2,0.2-1.5,0.6c-0.4,0.4-0.5,1.1-0.5,2v0.2c0,1.1,0.1,1.8,0.5,2.2
				c0.4,0.5,0.8,0.7,1.5,0.7c0.6,0,1.1-0.2,1.4-0.7c0.4-0.5,0.5-1.2,0.5-2.1c0-0.9-0.1-1.7-0.5-2.1
				C846.9,283.6,846.4,283.3,845.8,283.3z"/>
			<path class="st2" d="M855.7,290.3v-11h1.8v9.5h4.6v1.5H855.7z"/>
			<path class="st2" d="M871.2,286.1c0,1.3-0.4,2.4-1.1,3.2s-1.7,1.2-3,1.2c-0.8,0-1.4-0.1-2-0.5s-1.1-0.8-1.4-1.5
				c-0.4-0.7-0.5-1.4-0.5-2.2c0-1.3,0.4-2.4,1.1-3.2c0.7-0.7,1.7-1.2,3-1.2c1.2,0,2.1,0.4,2.8,1.2
				C870.9,283.8,871.2,284.8,871.2,286.1z M865.2,286.1c0,1.9,0.7,2.8,2.1,2.8s2.1-0.9,2.1-2.8s-0.7-2.8-2.1-2.8
				c-0.7,0-1.3,0.2-1.7,0.7C865.3,284.5,865.2,285.2,865.2,286.1z"/>
			<path class="st2" d="M880.6,290.3h-1.8v-5.1c0-0.6-0.1-1.1-0.4-1.4c-0.2-0.4-0.7-0.5-1.2-0.5c-0.7,0-1.3,0.2-1.7,0.7
				c-0.4,0.5-0.5,1.2-0.5,2.2v4.1h-1.8v-8.3h1.4l0.2,1.1h0.1c0.2-0.4,0.6-0.7,1.1-0.9c0.5-0.2,0.9-0.4,1.5-0.4c2,0,3,1.1,3,3.1v5.3
				H880.6z"/>
			<path class="st2" d="M890.1,282v0.9l-1.4,0.2c0.1,0.1,0.2,0.4,0.4,0.6c0.1,0.2,0.1,0.5,0.1,0.8c0,0.8-0.2,1.5-0.8,2
				c-0.6,0.5-1.4,0.7-2.5,0.7c-0.2,0-0.5,0-0.7-0.1c-0.4,0.2-0.6,0.5-0.6,0.8c0,0.2,0.1,0.4,0.2,0.5c0.1,0.1,0.5,0.1,0.9,0.1h1.4
				c0.9,0,1.7,0.2,2.1,0.6c0.5,0.4,0.7,0.9,0.7,1.7c0,0.9-0.4,1.7-1.2,2.1s-1.9,0.7-3.3,0.7c-1.2,0-2-0.2-2.6-0.6s-0.9-0.9-0.9-1.7
				c0-0.5,0.1-0.9,0.5-1.3c0.4-0.4,0.8-0.6,1.3-0.7c-0.2-0.1-0.5-0.2-0.6-0.5c-0.1-0.2-0.2-0.5-0.2-0.7c0-0.4,0.1-0.6,0.2-0.8
				c0.1-0.2,0.5-0.5,0.8-0.6c-0.5-0.2-0.8-0.5-1.1-0.9c-0.2-0.5-0.4-0.9-0.4-1.4c0-0.9,0.2-1.7,0.8-2.1s1.4-0.7,2.5-0.7
				c0.2,0,0.5,0,0.7,0s0.5,0.1,0.6,0.1h3V282z M883.6,291.6c0,0.4,0.1,0.7,0.5,0.8c0.4,0.2,0.8,0.4,1.4,0.4c0.9,0,1.7-0.1,2.1-0.4
				c0.5-0.2,0.7-0.6,0.7-1.1c0-0.4-0.1-0.6-0.4-0.8c-0.2-0.2-0.7-0.2-1.4-0.2h-1.3c-0.5,0-0.9,0.1-1.2,0.4
				C883.8,290.9,883.6,291.2,883.6,291.6z M884.4,284.7c0,0.5,0.1,0.9,0.4,1.2c0.2,0.2,0.7,0.5,1.2,0.5c1.1,0,1.5-0.6,1.5-1.7
				c0-0.6-0.1-0.9-0.4-1.3c-0.2-0.2-0.6-0.5-1.2-0.5c-0.5,0-0.9,0.1-1.2,0.5C884.5,283.6,884.4,284.1,884.4,284.7z"/>
			<path class="st2" d="M895.9,290.3v-11h1.8v11H895.9z"/>
			<path class="st2" d="M907.6,290.3h-1.8v-5.1c0-0.6-0.1-1.1-0.4-1.4c-0.2-0.4-0.7-0.5-1.2-0.5c-0.7,0-1.3,0.2-1.7,0.7
				c-0.4,0.5-0.5,1.2-0.5,2.2v4.1h-1.8v-8.3h1.4l0.2,1.1h0.1c0.2-0.4,0.6-0.7,1.1-0.9c0.5-0.2,0.9-0.4,1.5-0.4c2,0,3,1.1,3,3.1v5.3
				H907.6z"/>
			<path class="st2" d="M912.9,290.4c-1.1,0-1.9-0.4-2.4-1.2c-0.5-0.8-0.8-1.8-0.8-3.2c0-1.4,0.2-2.4,0.8-3.2
				c0.6-0.7,1.4-1.2,2.5-1.2c1.1,0,1.9,0.4,2.5,1.2h0.1c-0.1-0.6-0.1-1.1-0.1-1.4v-3.1h1.8V290h-1.4l-0.4-1.1h-0.1
				C914.8,290,914,290.4,912.9,290.4z M913.4,289c0.7,0,1.3-0.2,1.5-0.6c0.2-0.4,0.5-1.1,0.5-2v-0.2c0-1.1-0.1-1.8-0.5-2.2
				s-0.8-0.7-1.7-0.7c-0.6,0-1.1,0.2-1.4,0.7c-0.4,0.5-0.5,1.2-0.5,2.1c0,0.9,0.1,1.7,0.5,2.1C912.2,288.7,912.7,289,913.4,289z"/>
			<path class="st2" d="M923.3,290.4c-1.3,0-2.2-0.4-3.1-1.2c-0.7-0.7-1.1-1.8-1.1-3.1c0-1.3,0.4-2.4,1.1-3.2
				c0.7-0.8,1.7-1.2,2.8-1.2c1.1,0,2,0.4,2.6,0.9c0.6,0.7,0.9,1.5,0.9,2.7v0.9h-5.6c0,0.8,0.2,1.4,0.7,1.9c0.4,0.5,0.9,0.6,1.8,0.6
				c0.5,0,0.9,0,1.4-0.1c0.5-0.1,0.8-0.2,1.4-0.5v1.4c-0.5,0.2-0.8,0.4-1.3,0.5C924.4,290.4,923.9,290.4,923.3,290.4z M923,283.2
				c-0.6,0-1.1,0.2-1.3,0.6c-0.4,0.4-0.6,0.8-0.6,1.5h3.8c0-0.7-0.1-1.2-0.5-1.5C924,283.3,923.6,283.2,923,283.2z"/>
			<path class="st2" d="M930.4,286l-2.8-4h2l1.9,3l1.9-3h2l-2.8,4l3,4.3h-2l-2-3.1l-2,3.1h-2L930.4,286z"/>
		</g>
	</g>
</g>
</svg>
