<?xml version="1.0" encoding="utf-8"?>
<!-- Generator: Adobe Illustrator 24.2.1, SVG Export Plug-In . SVG Version: 6.00 Build 0)  -->
<svg version="1.1" id="Layer_1" xmlns="http://www.w3.org/2000/svg" xmlns:xlink="http://www.w3.org/1999/xlink" x="0px" y="0px"
	 viewBox="0 0 1000 550" style="enable-background:new 0 0 1000 550;" xml:space="preserve">
<style type="text/css">
	.st0{fill:#FFFFFF;}
	.st1{fill:#054BA4;}
	.st2{fill:url(#SVGID_1_);}
	.st3{fill:none;stroke:#00B9EE;stroke-width:1.4429;stroke-linecap:round;stroke-linejoin:round;stroke-miterlimit:10;}
	.st4{fill:#284D95;}
	.st5{fill:#D1D8DD;}
	.st6{enable-background:new    ;}
	.st7{fill:#314D91;}
</style>
<rect class="st0" width="1000" height="550"/>
<g>
	<g>
		<g>
			<path class="st1" d="M488.1,232.7c0,0.7-0.2,1.3-0.8,1.8c-0.6,0.5-1.3,0.6-2.3,0.6s-1.8-0.1-2.4-0.5v-1.3
				c0.4,0.2,0.8,0.4,1.2,0.5c0.5,0.1,0.8,0.1,1.2,0.1c0.6,0,1-0.1,1.2-0.4c0.2-0.2,0.4-0.5,0.4-0.8s-0.1-0.6-0.4-0.8
				c-0.2-0.2-0.7-0.5-1.5-0.8c-0.8-0.4-1.3-0.7-1.7-1.1c-0.4-0.4-0.5-1-0.5-1.5c0-0.7,0.2-1.3,0.7-1.7c0.5-0.4,1.2-0.6,2.1-0.6
				s1.7,0.2,2.4,0.6l-0.5,1.2c-0.7-0.4-1.5-0.5-2.1-0.5c-0.5,0-0.8,0.1-1.1,0.2c-0.2,0.2-0.4,0.5-0.4,0.8c0,0.2,0,0.4,0.1,0.6
				c0.1,0.1,0.2,0.4,0.5,0.5c0.2,0.1,0.6,0.4,1.2,0.6c0.6,0.2,1.1,0.5,1.5,0.7c0.2,0.2,0.5,0.5,0.6,0.7
				C488.1,232,488.1,232.3,488.1,232.7z"/>
			<path class="st1" d="M492.4,235.2c-1,0-1.8-0.2-2.4-0.8c-0.6-0.6-0.8-1.5-0.8-2.4c0-1.1,0.2-1.9,0.8-2.5c0.5-0.6,1.2-1,2.2-1
				c0.8,0,1.6,0.2,2.1,0.8c0.5,0.5,0.7,1.2,0.7,2.2v0.7h-4.4c0,0.6,0.2,1.1,0.5,1.5c0.4,0.4,0.7,0.5,1.3,0.5c0.4,0,0.7,0,1.1-0.1
				s0.7-0.2,1.1-0.4v1.1c-0.4,0.1-0.7,0.2-1,0.4C493.3,235.2,492.9,235.2,492.4,235.2z M492.2,229.4c-0.5,0-0.8,0.1-1.1,0.5
				c-0.2,0.2-0.5,0.7-0.5,1.2h3c0-0.6-0.1-1-0.4-1.2C493,229.5,492.7,229.4,492.2,229.4z"/>
			<path class="st1" d="M498,235.1h-1.3v-9.3h1.3V235.1z"/>
			<path class="st1" d="M502.8,235.2c-1,0-1.8-0.2-2.4-0.8c-0.6-0.6-0.8-1.5-0.8-2.4c0-1.1,0.2-1.9,0.8-2.5c0.5-0.6,1.2-1,2.2-1
				c0.8,0,1.6,0.2,2.1,0.8c0.5,0.5,0.7,1.2,0.7,2.2v0.7H501c0,0.6,0.2,1.1,0.5,1.5c0.4,0.4,0.7,0.5,1.3,0.5c0.4,0,0.7,0,1.1-0.1
				s0.7-0.2,1.1-0.4v1.1c-0.4,0.1-0.7,0.2-1,0.4C503.7,235.2,503.2,235.2,502.8,235.2z M502.6,229.4c-0.5,0-0.8,0.1-1.1,0.5
				c-0.2,0.2-0.5,0.7-0.5,1.2h3c0-0.6-0.1-1-0.4-1.2C503.3,229.5,503,229.4,502.6,229.4z"/>
			<path class="st1" d="M509.6,235.2c-1,0-1.7-0.2-2.3-0.8c-0.5-0.6-0.7-1.5-0.7-2.5c0-1.1,0.2-1.9,0.8-2.5c0.5-0.6,1.3-0.8,2.3-0.8
				c0.7,0,1.3,0.1,1.8,0.4l-0.4,1.1c-0.6-0.2-1.1-0.4-1.5-0.4c-1.1,0-1.7,0.7-1.7,2.3c0,0.7,0.1,1.3,0.4,1.7
				c0.2,0.4,0.7,0.6,1.2,0.6c0.6,0,1.2-0.1,1.7-0.5v1.2c-0.2,0.1-0.5,0.2-0.8,0.4C510.4,235.2,510,235.2,509.6,235.2z"/>
			<path class="st1" d="M515.3,234.1c0.4,0,0.7,0,1-0.1v1.1c-0.1,0.1-0.4,0.1-0.6,0.1c-0.2,0-0.5,0.1-0.7,0.1
				c-1.3,0-1.9-0.7-1.9-2.1v-3.5h-0.8v-0.8l1-0.5l0.5-1.5h0.8v1.5h1.8v1.1h-1.8v3.5c0,0.4,0.1,0.6,0.2,0.7
				C514.9,234,515.1,234.1,515.3,234.1z"/>
			<path class="st1" d="M523.3,229.7c0.8,0,1.6,0.2,2.1,0.7c0.5,0.5,0.7,1.1,0.7,1.9c0,1-0.2,1.7-0.8,2.2c-0.6,0.5-1.5,0.7-2.4,0.7
				c-1,0-1.7-0.1-2.3-0.5v-1.3c0.4,0.2,0.7,0.4,1.1,0.5c0.4,0.1,0.8,0.1,1.2,0.1c0.6,0,1.1-0.1,1.5-0.5c0.4-0.2,0.5-0.7,0.5-1.2
				c0-1.1-0.6-1.6-1.9-1.6c-0.2,0-0.4,0-0.7,0c-0.2,0-0.5,0.1-0.7,0.1l-0.6-0.4l0.4-4.2h4.5v1.2h-3.3l-0.2,2.2c0.1,0,0.4,0,0.5-0.1
				C522.9,229.7,523.1,229.7,523.3,229.7z"/>
			<path class="st1" d="M533.2,230.8c0,1.6-0.2,2.7-0.7,3.4s-1.2,1.1-2.2,1.1s-1.7-0.4-2.2-1.1c-0.5-0.7-0.7-1.8-0.7-3.4
				c0-1.6,0.2-2.7,0.7-3.4s1.2-1.1,2.2-1.1s1.7,0.4,2.2,1.1C532.9,228.2,533.2,229.3,533.2,230.8z M528.7,230.8
				c0,1.2,0.1,2.1,0.4,2.5c0.2,0.5,0.6,0.7,1.2,0.7c0.5,0,1-0.2,1.2-0.7c0.2-0.5,0.4-1.3,0.4-2.5c0-1.2-0.1-2.1-0.4-2.5
				c-0.2-0.5-0.6-0.7-1.2-0.7c-0.5,0-1,0.2-1.2,0.7C528.8,228.7,528.7,229.5,528.7,230.8z"/>
			<path class="st1" d="M542.2,233.2c0,0.6-0.2,1.1-0.7,1.5c-0.5,0.4-1.1,0.5-1.9,0.5c-0.8,0-1.6-0.1-2.1-0.4v-1.2
				c0.7,0.4,1.5,0.5,2.2,0.5c0.8,0,1.3-0.2,1.3-0.7c0-0.1,0-0.4-0.1-0.4c-0.1-0.1-0.2-0.2-0.5-0.4c-0.2-0.1-0.5-0.2-0.8-0.4
				c-0.7-0.2-1.2-0.6-1.6-0.8c-0.2-0.2-0.4-0.7-0.4-1.1c0-0.6,0.2-1,0.7-1.3s1.1-0.5,1.8-0.5c0.7,0,1.5,0.1,2.2,0.5l-0.5,1.1
				c-0.7-0.2-1.3-0.5-1.8-0.5c-0.7,0-1.1,0.2-1.1,0.6c0,0.2,0.1,0.4,0.2,0.5c0.2,0.1,0.6,0.4,1.2,0.6c0.5,0.2,1,0.4,1.2,0.6
				c0.2,0.1,0.5,0.4,0.5,0.6C542.2,232.7,542.2,232.9,542.2,233.2z"/>
			<path class="st1" d="M546.2,234.1c0.4,0,0.7,0,1-0.1v1.1c-0.1,0.1-0.4,0.1-0.6,0.1c-0.2,0-0.5,0.1-0.7,0.1
				c-1.3,0-1.9-0.7-1.9-2.1v-3.5h-0.8v-0.8l1-0.5l0.5-1.5h0.8v1.5h1.8v1.1h-1.8v3.5c0,0.4,0.1,0.6,0.2,0.7
				C545.6,234,545.9,234.1,546.2,234.1z"/>
			<path class="st1" d="M554.4,231.8c0,1.1-0.2,1.9-0.8,2.5c-0.6,0.6-1.3,0.8-2.3,0.8c-0.6,0-1.2-0.1-1.6-0.4
				c-0.5-0.2-0.8-0.7-1.1-1.2c-0.2-0.5-0.4-1.1-0.4-1.8c0-1.1,0.2-1.9,0.8-2.5c0.5-0.6,1.3-0.8,2.3-0.8c1,0,1.7,0.4,2.3,1
				C554,229.9,554.4,230.8,554.4,231.8z M549.5,231.8c0,1.6,0.6,2.3,1.7,2.3s1.7-0.7,1.7-2.3c0-1.5-0.6-2.3-1.7-2.3
				c-0.6,0-1,0.2-1.2,0.6C549.6,230.5,549.5,231.1,549.5,231.8z"/>
			<path class="st1" d="M558.6,235.2c-1,0-1.7-0.2-2.3-0.8c-0.5-0.6-0.7-1.5-0.7-2.5c0-1.1,0.2-1.9,0.8-2.5c0.5-0.6,1.3-0.8,2.3-0.8
				c0.7,0,1.3,0.1,1.8,0.4l-0.4,1.1c-0.6-0.2-1.1-0.4-1.5-0.4c-1.1,0-1.7,0.7-1.7,2.3c0,0.7,0.1,1.3,0.4,1.7
				c0.2,0.4,0.7,0.6,1.2,0.6c0.6,0,1.2-0.1,1.7-0.5v1.2c-0.2,0.1-0.5,0.2-0.8,0.4C559.3,235.2,559,235.2,558.6,235.2z"/>
			<path class="st1" d="M563.2,231.6l0.7-1l1.9-2.2h1.6l-2.4,2.9l2.8,3.8h-1.6l-2.1-2.9l-0.7,0.6v2.3h-1.3v-9.3h1.3v4.5L563.2,231.6
				L563.2,231.6z"/>
			<path class="st1" d="M573.3,233.2c0,0.6-0.2,1.1-0.7,1.5c-0.5,0.4-1.1,0.5-1.9,0.5s-1.6-0.1-2.1-0.4v-1.2
				c0.7,0.4,1.5,0.5,2.2,0.5c0.8,0,1.3-0.2,1.3-0.7c0-0.1,0-0.4-0.1-0.4s-0.2-0.2-0.5-0.4c-0.2-0.1-0.5-0.2-0.8-0.4
				c-0.7-0.2-1.2-0.6-1.6-0.8c-0.2-0.2-0.4-0.7-0.4-1.1c0-0.6,0.2-1,0.7-1.3c0.5-0.4,1.1-0.5,1.8-0.5c0.7,0,1.5,0.1,2.2,0.5
				l-0.5,1.1c-0.7-0.2-1.3-0.5-1.8-0.5c-0.7,0-1.1,0.2-1.1,0.6c0,0.2,0.1,0.4,0.2,0.5c0.2,0.1,0.6,0.4,1.2,0.6
				c0.5,0.2,1,0.4,1.2,0.6c0.2,0.1,0.5,0.4,0.5,0.6C573.2,232.7,573.3,232.9,573.3,233.2z"/>
			<path class="st1" d="M583.2,235.1l-0.8-3c-0.1-0.4-0.2-1.1-0.6-2.3l0,0c-0.2,1.1-0.4,1.8-0.5,2.3l-0.8,3h-1.6l-1.8-6.7h1.5
				l0.8,3.3c0.2,0.8,0.4,1.5,0.4,2.1l0,0c0-0.2,0.1-0.6,0.1-1c0.1-0.4,0.1-0.6,0.2-0.8l1-3.5h1.6l1,3.5c0,0.2,0.1,0.5,0.2,0.8
				c0.1,0.4,0.1,0.7,0.1,1l0,0c0-0.5,0.2-1.2,0.4-2.1l0.8-3.3h1.5l-1.8,6.7H583.2z"/>
			<path class="st1" d="M587.7,226.8c0-0.2,0.1-0.5,0.2-0.6c0.1-0.1,0.4-0.2,0.6-0.2c0.2,0,0.5,0.1,0.6,0.2c0.1,0.1,0.2,0.4,0.2,0.6
				c0,0.2-0.1,0.5-0.2,0.6c-0.1,0.1-0.4,0.2-0.6,0.2c-0.2,0-0.5-0.1-0.6-0.2C587.8,227.2,587.7,227,587.7,226.8z M589.2,235.1h-1.3
				v-6.7h1.3V235.1z"/>
			<path class="st1" d="M593.6,234.1c0.4,0,0.7,0,1-0.1v1.1c-0.1,0.1-0.4,0.1-0.6,0.1s-0.5,0.1-0.7,0.1c-1.3,0-1.9-0.7-1.9-2.1v-3.5
				h-0.8v-0.8l1-0.5l0.5-1.5h0.8v1.5h1.8v1.1h-1.8v3.5c0,0.4,0.1,0.6,0.2,0.7C593.2,234,593.4,234.1,593.6,234.1z"/>
			<path class="st1" d="M601.7,235.1h-1.5V231c0-0.5-0.1-0.8-0.4-1.1c-0.2-0.2-0.5-0.4-1-0.4c-0.6,0-1,0.1-1.3,0.5
				c-0.2,0.4-0.4,1-0.4,1.8v3.3h-1.3v-9.3h1.3v2.3c0,0.4,0,0.7-0.1,1.2h0.1c0.2-0.4,0.5-0.6,0.8-0.7c0.4-0.1,0.7-0.2,1.2-0.2
				c1.6,0,2.4,0.8,2.4,2.4L601.7,235.1L601.7,235.1z"/>
			<path class="st1" d="M608.2,235.1h-1.3v-9.3h1.3V235.1z"/>
			<path class="st1" d="M616,231.8c0,1.1-0.2,1.9-0.8,2.5c-0.6,0.6-1.3,0.8-2.3,0.8c-0.6,0-1.2-0.1-1.6-0.4
				c-0.5-0.2-0.8-0.7-1.1-1.2c-0.2-0.5-0.4-1.1-0.4-1.8c0-1.1,0.2-1.9,0.8-2.5c0.5-0.6,1.3-0.8,2.3-0.8c1,0,1.7,0.4,2.3,1
				C615.7,229.9,616,230.8,616,231.8z M611.2,231.8c0,1.6,0.6,2.3,1.7,2.3c1.1,0,1.7-0.7,1.7-2.3c0-1.5-0.6-2.3-1.7-2.3
				c-0.6,0-1,0.2-1.2,0.6C611.3,230.5,611.2,231.1,611.2,231.8z"/>
			<path class="st1" d="M623,235.1l-0.8-3c-0.1-0.4-0.2-1.1-0.6-2.3l0,0c-0.2,1.1-0.4,1.8-0.5,2.3l-0.8,3h-1.6l-1.8-6.7h1.5l0.8,3.3
				c0.2,0.8,0.4,1.5,0.4,2.1l0,0c0-0.2,0.1-0.6,0.1-1c0.1-0.4,0.1-0.6,0.2-0.8l1-3.5h1.6l1,3.5c0,0.2,0.1,0.5,0.2,0.8
				c0.1,0.4,0.1,0.7,0.1,1l0,0c0-0.5,0.2-1.2,0.4-2.1l0.8-3.3h1.5l-1.8,6.7H623z"/>
			<path class="st1" d="M630.4,235.2c-1,0-1.8-0.2-2.4-0.8c-0.6-0.6-0.8-1.5-0.8-2.4c0-1.1,0.2-1.9,0.8-2.5c0.5-0.6,1.2-1,2.2-1
				c0.8,0,1.6,0.2,2.1,0.8c0.5,0.5,0.7,1.2,0.7,2.2v0.7h-4.4c0,0.6,0.2,1.1,0.5,1.5c0.4,0.4,0.7,0.5,1.3,0.5c0.4,0,0.7,0,1.1-0.1
				c0.4-0.1,0.7-0.2,1.1-0.4v1.1c-0.4,0.1-0.7,0.2-1,0.4C631.2,235.2,630.7,235.2,630.4,235.2z M630.1,229.4c-0.5,0-0.8,0.1-1.1,0.5
				c-0.2,0.2-0.5,0.7-0.5,1.2h3c0-0.6-0.1-1-0.4-1.2C630.9,229.5,630.5,229.4,630.1,229.4z"/>
			<path class="st1" d="M638.9,233.2c0,0.6-0.2,1.1-0.7,1.5c-0.5,0.4-1.1,0.5-1.9,0.5c-0.8,0-1.6-0.1-2.1-0.4v-1.2
				c0.7,0.4,1.5,0.5,2.2,0.5c0.8,0,1.3-0.2,1.3-0.7c0-0.1,0-0.4-0.1-0.4c-0.1,0-0.2-0.2-0.5-0.4c-0.2-0.1-0.5-0.2-0.8-0.4
				c-0.7-0.2-1.2-0.6-1.6-0.8c-0.2-0.2-0.4-0.7-0.4-1.1c0-0.6,0.2-1,0.7-1.3c0.5-0.4,1.1-0.5,1.8-0.5c0.7,0,1.5,0.1,2.2,0.5
				l-0.5,1.1c-0.7-0.2-1.3-0.5-1.8-0.5c-0.7,0-1.1,0.2-1.1,0.6c0,0.2,0.1,0.4,0.2,0.5c0.2,0.1,0.6,0.4,1.2,0.6
				c0.5,0.2,1,0.4,1.2,0.6c0.2,0.1,0.5,0.4,0.5,0.6C638.7,232.7,638.9,232.9,638.9,233.2z"/>
			<path class="st1" d="M642.7,234.1c0.4,0,0.7,0,1-0.1v1.1c-0.1,0.1-0.4,0.1-0.6,0.1c-0.2,0-0.5,0.1-0.7,0.1
				c-1.3,0-1.9-0.7-1.9-2.1v-3.5h-0.8v-0.8l1-0.5l0.5-1.5h0.8v1.5h1.8v1.1h-1.8v3.5c0,0.4,0.1,0.6,0.2,0.7
				C642.3,234,642.5,234.1,642.7,234.1z"/>
			<path class="st1" d="M464.4,246.1v5.7c0,0.6-0.1,1.2-0.4,1.7c-0.2,0.5-0.7,0.8-1.2,1.1c-0.5,0.2-1.1,0.4-1.8,0.4
				c-1.1,0-1.9-0.2-2.5-0.8c-0.6-0.6-0.8-1.3-0.8-2.4v-5.6h1.5v5.6c0,0.7,0.1,1.2,0.5,1.6s0.8,0.5,1.6,0.5c1.3,0,2.1-0.7,2.1-2.2
				V246h1.2V246.1z"/>
			<path class="st1" d="M468.1,251.5v3.5h-1.5v-8.7h2.4c1.1,0,1.9,0.2,2.4,0.6c0.5,0.4,0.8,1.1,0.8,1.9c0,1.1-0.6,1.8-1.7,2.3
				l2.4,3.9h-1.6l-2.1-3.5H468.1z M468.1,250.3h1c0.6,0,1.1-0.1,1.5-0.4c0.2-0.2,0.5-0.6,0.5-1.1s-0.1-0.8-0.5-1.1
				c-0.4-0.2-0.8-0.4-1.5-0.4h-1V250.3z"/>
			<path class="st1" d="M482.6,252.6c0,0.7-0.2,1.3-0.8,1.8c-0.6,0.5-1.3,0.6-2.3,0.6s-1.8-0.1-2.4-0.5v-1.3
				c0.4,0.2,0.8,0.4,1.2,0.5c0.5,0.1,0.8,0.1,1.2,0.1c0.6,0,1-0.1,1.2-0.4c0.2-0.2,0.4-0.5,0.4-0.8s-0.1-0.6-0.4-0.8
				c-0.2-0.2-0.7-0.5-1.5-0.8c-0.8-0.4-1.3-0.7-1.7-1.1c-0.4-0.4-0.5-1-0.5-1.5c0-0.7,0.2-1.3,0.7-1.7c0.5-0.4,1.2-0.6,2.1-0.6
				s1.7,0.2,2.4,0.6l-0.5,1.2c-0.7-0.4-1.5-0.5-2.1-0.5c-0.5,0-0.8,0.1-1.1,0.2c-0.2,0.2-0.4,0.5-0.4,0.8c0,0.2,0,0.4,0.1,0.6
				c0.1,0.1,0.2,0.4,0.5,0.5c0.2,0.1,0.6,0.4,1.2,0.6c0.6,0.2,1.1,0.5,1.5,0.7c0.2,0.2,0.5,0.5,0.6,0.7
				C482.5,251.8,482.6,252.2,482.6,252.6z"/>
			<path class="st1" d="M486.7,255c-1,0-1.7-0.2-2.3-0.8c-0.5-0.6-0.7-1.5-0.7-2.5c0-1.1,0.2-1.9,0.8-2.5c0.5-0.6,1.3-0.8,2.3-0.8
				c0.7,0,1.3,0.1,1.8,0.4l-0.4,1.1c-0.6-0.2-1.1-0.4-1.5-0.4c-1.1,0-1.7,0.7-1.7,2.3c0,0.7,0.1,1.3,0.4,1.7
				c0.2,0.4,0.7,0.6,1.2,0.6c0.6,0,1.2-0.1,1.7-0.5v1.2c-0.2,0.1-0.5,0.2-0.8,0.4C487.5,255,487.1,255,486.7,255z"/>
			<path class="st1" d="M495.9,251.6c0,1.1-0.2,1.9-0.8,2.5c-0.6,0.6-1.3,0.8-2.3,0.8c-0.6,0-1.2-0.1-1.6-0.4
				c-0.5-0.2-0.8-0.7-1.1-1.2c-0.2-0.5-0.4-1.1-0.4-1.8c0-1.1,0.2-1.9,0.8-2.5c0.5-0.6,1.3-0.8,2.3-0.8s1.7,0.4,2.3,1
				C495.6,249.8,495.9,250.5,495.9,251.6z M491.1,251.6c0,1.6,0.6,2.3,1.7,2.3s1.7-0.7,1.7-2.3c0-1.5-0.6-2.3-1.7-2.3
				c-0.6,0-1,0.2-1.2,0.6C491.2,250.3,491.1,250.9,491.1,251.6z"/>
			<path class="st1" d="M500.8,248.2c0.2,0,0.5,0,0.7,0l-0.1,1.3c-0.2,0-0.4-0.1-0.6-0.1c-0.6,0-1,0.2-1.3,0.6
				c-0.4,0.4-0.5,0.8-0.5,1.5v3.5h-1.3v-6.7h1.1l0.2,1.2h0.1c0.2-0.4,0.5-0.7,0.8-1C500.1,248.3,500.4,248.2,500.8,248.2z"/>
			<path class="st1" d="M505.5,255c-1,0-1.8-0.2-2.4-0.8c-0.6-0.6-0.8-1.5-0.8-2.4c0-1.1,0.2-1.9,0.8-2.5c0.5-0.6,1.2-1,2.2-1
				c0.8,0,1.6,0.2,2.1,0.8c0.5,0.5,0.7,1.2,0.7,2.2v0.7h-4.4c0,0.6,0.2,1.1,0.5,1.5c0.4,0.4,0.7,0.5,1.3,0.5c0.4,0,0.7,0,1.1-0.1
				c0.4-0.1,0.7-0.2,1.1-0.4v1.1c-0.4,0.1-0.7,0.2-1,0.4C506.4,255,506,255,505.5,255z M505.3,249.3c-0.5,0-0.8,0.1-1.1,0.5
				c-0.2,0.2-0.5,0.7-0.5,1.2h3c0-0.6-0.1-1-0.4-1.2C506.1,249.4,505.8,249.3,505.3,249.3z"/>
			<path class="st1" d="M514.1,253.1c0,0.6-0.2,1.1-0.7,1.5c-0.5,0.4-1.1,0.5-1.9,0.5c-0.8,0-1.6-0.1-2.1-0.4v-1.2
				c0.7,0.4,1.5,0.5,2.2,0.5c0.8,0,1.3-0.2,1.3-0.7c0-0.1,0-0.4-0.1-0.4c-0.1-0.1-0.2-0.2-0.5-0.4c-0.2-0.1-0.5-0.2-0.8-0.4
				c-0.7-0.2-1.2-0.6-1.6-0.8c-0.2-0.2-0.4-0.7-0.4-1.1c0-0.6,0.2-1,0.7-1.3c0.5-0.4,1.1-0.5,1.8-0.5c0.7,0,1.5,0.1,2.2,0.5
				l-0.5,1.1c-0.7-0.2-1.3-0.5-1.8-0.5c-0.7,0-1.1,0.2-1.1,0.6c0,0.2,0.1,0.4,0.2,0.5c0.2,0.1,0.6,0.4,1.2,0.6
				c0.5,0.2,1,0.4,1.2,0.6c0.2,0.1,0.5,0.4,0.5,0.6C514,252.5,514.1,252.7,514.1,253.1z"/>
			<path class="st1" d="M517,253.7c-0.2,0.7-0.5,1.7-1.1,2.9h-1c0.2-1.1,0.5-2.1,0.6-3h1.3L517,253.7z"/>
			<path class="st1" d="M527.3,254.9l-0.8-3c-0.1-0.4-0.2-1.1-0.6-2.3l0,0c-0.2,1.1-0.4,1.8-0.5,2.3l-0.8,3H523l-1.8-6.7h1.5
				l0.8,3.3c0.2,0.8,0.4,1.5,0.4,2.1l0,0c0-0.2,0.1-0.6,0.1-1c0.1-0.4,0.1-0.6,0.2-0.8l1-3.5h1.6l1,3.5c0,0.2,0.1,0.5,0.2,0.8
				c0.1,0.4,0.1,0.7,0.1,1l0,0c0-0.5,0.2-1.2,0.4-2.1l0.8-3.3h1.5l-1.8,6.7H527.3z"/>
			<path class="st1" d="M534.7,255c-1,0-1.8-0.2-2.4-0.8c-0.6-0.6-0.8-1.5-0.8-2.4c0-1.1,0.2-1.9,0.8-2.5c0.5-0.6,1.2-1,2.2-1
				c0.8,0,1.6,0.2,2.1,0.8c0.5,0.5,0.7,1.2,0.7,2.2v0.7h-4.4c0,0.6,0.2,1.1,0.5,1.5c0.4,0.4,0.7,0.5,1.3,0.5c0.4,0,0.7,0,1.1-0.1
				c0.4-0.1,0.7-0.2,1.1-0.4v1.1c-0.4,0.1-0.7,0.2-1,0.4C535.6,255,535.2,255,534.7,255z M534.5,249.3c-0.5,0-0.8,0.1-1.1,0.5
				c-0.2,0.2-0.5,0.7-0.5,1.2h3c0-0.6-0.1-1-0.4-1.2C535.3,249.4,535,249.3,534.5,249.3z"/>
			<path class="st1" d="M538.7,246.5c0-0.2,0.1-0.5,0.2-0.6c0.1-0.1,0.4-0.2,0.6-0.2c0.2,0,0.5,0.1,0.6,0.2c0.1,0.1,0.2,0.4,0.2,0.6
				c0,0.2-0.1,0.5-0.2,0.6c-0.1,0.1-0.4,0.2-0.6,0.2c-0.2,0-0.5-0.1-0.6-0.2C538.9,247,538.7,246.8,538.7,246.5z M540.3,254.9H539
				v-6.5h1.3V254.9z"/>
			<path class="st1" d="M547.8,248.3v0.7l-1.1,0.2c0.1,0.1,0.2,0.4,0.2,0.5c0.1,0.2,0.1,0.4,0.1,0.6c0,0.7-0.2,1.2-0.7,1.6
				c-0.5,0.4-1.1,0.6-1.9,0.6c-0.2,0-0.4,0-0.6,0c-0.2,0.2-0.5,0.4-0.5,0.6c0,0.1,0.1,0.2,0.2,0.4c0.1,0.1,0.4,0.1,0.7,0.1h1.1
				c0.7,0,1.2,0.1,1.7,0.5c0.4,0.4,0.6,0.7,0.6,1.3c0,0.7-0.4,1.3-1,1.7c-0.6,0.4-1.5,0.6-2.7,0.6c-0.8,0-1.6-0.1-2.1-0.5
				c-0.5-0.4-0.7-0.7-0.7-1.3c0-0.4,0.1-0.7,0.4-1c0.2-0.2,0.6-0.5,1.1-0.6c-0.2-0.1-0.4-0.2-0.5-0.4c-0.1-0.1-0.1-0.4-0.1-0.6
				c0-0.2,0.1-0.5,0.2-0.6c0.1-0.1,0.4-0.4,0.6-0.5c-0.4-0.1-0.6-0.4-0.8-0.7c-0.2-0.4-0.4-0.7-0.4-1.2c0-0.7,0.2-1.3,0.7-1.7
				c0.5-0.4,1.1-0.6,1.9-0.6c0.2,0,0.4,0,0.6,0s0.4,0,0.5,0.1L547.8,248.3L547.8,248.3z M542.6,256c0,0.4,0.1,0.5,0.4,0.7
				c0.2,0.1,0.6,0.2,1.1,0.2c0.7,0,1.3-0.1,1.7-0.4c0.4-0.2,0.6-0.5,0.6-0.8c0-0.2-0.1-0.5-0.4-0.6c-0.2-0.1-0.6-0.2-1.1-0.2h-1.1
				c-0.4,0-0.7,0.1-1,0.2C542.7,255.4,542.6,255.6,542.6,256z M543.2,250.4c0,0.4,0.1,0.7,0.4,1c0.2,0.2,0.5,0.4,0.8,0.4
				c0.8,0,1.2-0.5,1.2-1.3c0-0.5-0.1-0.7-0.2-1c-0.2-0.2-0.5-0.4-0.8-0.4s-0.7,0.1-1,0.4S543.2,250,543.2,250.4z"/>
			<path class="st1" d="M554.7,254.9h-1.5v-4.1c0-0.5-0.1-0.8-0.4-1.1c-0.2-0.2-0.5-0.4-1-0.4c-0.6,0-1,0.1-1.3,0.5
				c-0.2,0.4-0.4,1-0.4,1.8v3.3h-1.3v-9.3h1.3v2.3c0,0.4,0,0.7-0.1,1.2h0.1c0.2-0.4,0.5-0.6,0.8-0.7c0.4-0.1,0.7-0.2,1.2-0.2
				c1.6,0,2.4,0.8,2.4,2.4L554.7,254.9L554.7,254.9z"/>
			<path class="st1" d="M559.1,253.9c0.4,0,0.7,0,1-0.1v1.1c-0.1,0.1-0.4,0.1-0.6,0.1c-0.2,0-0.5,0.1-0.7,0.1
				c-1.3,0-1.9-0.7-1.9-2.1v-3.5h-0.8v-0.6l1-0.5l0.5-1.5h0.8v1.5h1.8v1.1h-1.8v3.5c0,0.4,0.1,0.6,0.2,0.7
				C558.6,253.8,558.9,253.9,559.1,253.9z"/>
			<path class="st1" d="M564.3,255c-1,0-1.8-0.2-2.4-0.8c-0.6-0.6-0.8-1.5-0.8-2.4c0-1.1,0.2-1.9,0.8-2.5c0.5-0.6,1.2-1,2.2-1
				c0.8,0,1.6,0.2,2.1,0.8c0.5,0.5,0.7,1.2,0.7,2.2v0.7h-4.4c0,0.6,0.2,1.1,0.5,1.5c0.4,0.4,0.7,0.5,1.3,0.5c0.4,0,0.7,0,1.1-0.1
				c0.4-0.1,0.7-0.2,1.1-0.4v1.1c-0.4,0.1-0.7,0.2-1,0.4C565.2,255,564.8,255,564.3,255z M564.1,249.3c-0.5,0-0.8,0.1-1.1,0.5
				c-0.2,0.2-0.5,0.7-0.5,1.2h3c0-0.6-0.1-1-0.4-1.2C564.8,249.4,564.6,249.3,564.1,249.3z"/>
			<path class="st1" d="M570.6,255c-0.8,0-1.5-0.2-1.9-0.8c-0.5-0.6-0.7-1.5-0.7-2.5c0-1.1,0.2-1.9,0.7-2.5c0.5-0.6,1.1-0.8,1.9-0.8
				s1.6,0.4,1.9,1h0.1c-0.1-0.5-0.1-0.8-0.1-1.1v-2.4h1.5v9.3h-1.1l-0.2-0.8h-0.1C572.2,254.8,571.5,255,570.6,255z M571,253.9
				c0.6,0,1-0.1,1.2-0.5c0.2-0.4,0.4-0.8,0.4-1.6v-0.2c0-0.8-0.1-1.5-0.4-1.8c-0.2-0.4-0.7-0.5-1.2-0.5s-0.8,0.2-1.1,0.6
				c-0.2,0.4-0.4,1-0.4,1.7c0,0.7,0.1,1.3,0.4,1.7S570.5,253.9,571,253.9z"/>
			<path class="st1" d="M582.5,248.2c0.8,0,1.5,0.2,1.9,0.8c0.5,0.6,0.7,1.5,0.7,2.5c0,1.1-0.2,1.9-0.7,2.5
				c-0.5,0.6-1.1,0.8-1.9,0.8c-0.8,0-1.5-0.2-1.9-0.8h-0.1l-0.2,0.7h-1.1v-9.3h1.3v2.2c0,0.1,0,0.4,0,0.7s0,0.5,0,0.6l0,0
				C580.9,248.6,581.6,248.2,582.5,248.2z M582.1,249.3c-0.6,0-1,0.1-1.2,0.5c-0.2,0.4-0.4,0.8-0.4,1.7v0.1c0,0.8,0.1,1.3,0.4,1.7
				c0.2,0.4,0.6,0.5,1.2,0.5c0.5,0,0.8-0.2,1.1-0.6s0.4-1,0.4-1.7C583.7,250.1,583.1,249.3,582.1,249.3z"/>
			<path class="st1" d="M585.6,248.3h1.5l1.3,3.8c0.2,0.5,0.4,1.1,0.4,1.5l0,0c0-0.2,0.1-0.5,0.2-0.8c0.1-0.4,0.6-1.8,1.5-4.5h1.5
				l-2.8,7.5c-0.5,1.3-1.3,2.1-2.5,2.1c-0.4,0-0.6,0-0.8-0.1v-1.1c0.2,0,0.5,0.1,0.7,0.1c0.7,0,1.1-0.4,1.5-1.2l0.2-0.6L585.6,248.3
				z"/>
			<path class="st1" d="M600,254.9h-1.3v-5.7c0-0.7,0-1.2,0-1.6c-0.1,0.1-0.2,0.2-0.4,0.4c-0.1,0.1-0.6,0.5-1.3,1.1l-0.7-0.8
				l2.5-2.1h1.2L600,254.9L600,254.9z"/>
			<path class="st1" d="M602.7,252.2v-1.1h5.1v1.1H602.7z"/>
			<path class="st1" d="M619.4,246.1v5.7c0,0.6-0.1,1.2-0.4,1.7c-0.2,0.5-0.7,0.8-1.2,1.1c-0.5,0.2-1.1,0.4-1.8,0.4
				c-1.1,0-1.9-0.2-2.5-0.8c-0.6-0.6-0.8-1.3-0.8-2.4v-5.6h1.5v5.6c0,0.7,0.1,1.2,0.5,1.6c0.4,0.4,0.8,0.5,1.6,0.5
				c1.3,0,2.1-0.7,2.1-2.2V246h1.2L619.4,246.1L619.4,246.1z"/>
			<path class="st1" d="M623,251.5v3.5h-1.5v-8.7h2.4c1.1,0,1.9,0.2,2.4,0.6c0.5,0.4,0.8,1.1,0.8,1.9c0,1.1-0.6,1.8-1.7,2.3l2.4,3.9
				h-1.6l-2.1-3.5H623z M623,250.3h1c0.6,0,1.1-0.1,1.5-0.4c0.2-0.2,0.5-0.6,0.5-1.1s-0.1-0.8-0.5-1.1c-0.4-0.2-0.8-0.4-1.5-0.4h-1
				V250.3z"/>
			<path class="st1" d="M637.5,252.6c0,0.7-0.2,1.3-0.8,1.8c-0.6,0.5-1.3,0.6-2.3,0.6s-1.8-0.1-2.4-0.5v-1.3
				c0.4,0.2,0.8,0.4,1.2,0.5c0.5,0.1,0.8,0.1,1.2,0.1c0.6,0,1-0.1,1.2-0.4c0.2-0.2,0.4-0.5,0.4-0.8s-0.1-0.6-0.4-0.8
				s-0.7-0.5-1.5-0.8c-0.8-0.4-1.3-0.7-1.7-1.1c-0.4-0.4-0.5-1-0.5-1.5c0-0.7,0.2-1.3,0.7-1.7c0.5-0.4,1.2-0.6,2.1-0.6
				s1.7,0.2,2.4,0.6l-0.5,1.2c-0.7-0.4-1.5-0.5-2.1-0.5c-0.5,0-0.8,0.1-1.1,0.2c-0.2,0.2-0.4,0.5-0.4,0.8c0,0.2,0,0.4,0.1,0.6
				c0.1,0.1,0.2,0.4,0.5,0.5c0.2,0.1,0.6,0.4,1.2,0.6c0.6,0.2,1.1,0.5,1.5,0.7c0.2,0.2,0.5,0.5,0.6,0.7
				C637.4,251.8,637.5,252.2,637.5,252.6z"/>
			<path class="st1" d="M641.7,255c-1,0-1.7-0.2-2.3-0.8c-0.6-0.6-0.7-1.5-0.7-2.5c0-1.1,0.2-1.9,0.8-2.5c0.5-0.6,1.3-0.8,2.3-0.8
				c0.7,0,1.3,0.1,1.8,0.4l-0.4,1.1c-0.6-0.2-1.1-0.4-1.5-0.4c-1.1,0-1.7,0.7-1.7,2.3c0,0.7,0.1,1.3,0.4,1.7
				c0.2,0.4,0.7,0.6,1.2,0.6c0.6,0,1.2-0.1,1.7-0.5v1.2c-0.2,0.1-0.5,0.2-0.8,0.4C642.4,255,642,255,641.7,255z"/>
			<path class="st1" d="M650.9,251.6c0,1.1-0.2,1.9-0.8,2.5c-0.6,0.6-1.3,0.8-2.3,0.8c-0.6,0-1.2-0.1-1.6-0.4
				c-0.5-0.2-0.8-0.7-1.1-1.2c-0.2-0.5-0.4-1.1-0.4-1.8c0-1.1,0.2-1.9,0.8-2.5c0.5-0.6,1.3-0.8,2.3-0.8c1,0,1.7,0.4,2.3,1
				C650.5,249.8,650.9,250.5,650.9,251.6z M646,251.6c0,1.6,0.6,2.3,1.7,2.3c1.1,0,1.7-0.7,1.7-2.3c0-1.5-0.6-2.3-1.7-2.3
				c-0.6,0-1,0.2-1.2,0.6C646.1,250.3,646,250.9,646,251.6z"/>
			<path class="st1" d="M655.7,248.2c0.2,0,0.5,0,0.7,0l-0.1,1.3c-0.2,0-0.4-0.1-0.6-0.1c-0.6,0-1,0.2-1.3,0.6
				c-0.4,0.4-0.5,0.8-0.5,1.5v3.5h-1.3v-6.7h1.1l0.2,1.2h0.1c0.2-0.4,0.5-0.7,0.8-1C655,248.3,655.4,248.2,655.7,248.2z"/>
			<path class="st1" d="M660.6,255c-1,0-1.8-0.2-2.4-0.8c-0.6-0.6-0.8-1.5-0.8-2.4c0-1.1,0.2-1.9,0.8-2.5c0.5-0.6,1.2-1,2.2-1
				c0.8,0,1.6,0.2,2.1,0.8c0.5,0.5,0.7,1.2,0.7,2.2v0.7h-4.4c0,0.6,0.2,1.1,0.5,1.5c0.4,0.4,0.7,0.5,1.3,0.5c0.4,0,0.7,0,1.1-0.1
				c0.4-0.1,0.7-0.2,1.1-0.4v1.1c-0.4,0.1-0.7,0.2-1,0.4C661.3,255,660.9,255,660.6,255z M660.2,249.3c-0.5,0-0.8,0.1-1.1,0.5
				c-0.2,0.2-0.5,0.7-0.5,1.2h3c0-0.6-0.1-1-0.4-1.2C661.1,249.4,660.7,249.3,660.2,249.3z"/>
			<path class="st1" d="M669.1,253.1c0,0.6-0.2,1.1-0.7,1.5c-0.5,0.4-1.1,0.5-1.9,0.5c-0.8,0-1.6-0.1-2.1-0.4v-1.2
				c0.7,0.4,1.5,0.5,2.2,0.5c0.8,0,1.3-0.2,1.3-0.7c0-0.1,0-0.4-0.1-0.4c-0.1-0.1-0.2-0.2-0.5-0.4c-0.2-0.1-0.5-0.2-0.8-0.4
				c-0.7-0.2-1.2-0.6-1.6-0.8c-0.2-0.2-0.4-0.7-0.4-1.1c0-0.6,0.2-1,0.7-1.3c0.5-0.4,1.1-0.5,1.8-0.5c0.7,0,1.5,0.1,2.2,0.5
				l-0.5,1.1c-0.7-0.2-1.3-0.5-1.8-0.5c-0.7,0-1.1,0.2-1.1,0.6c0,0.2,0.1,0.4,0.2,0.5c0.2,0.1,0.6,0.4,1.2,0.6
				c0.5,0.2,1,0.4,1.2,0.6c0.2,0.1,0.5,0.4,0.5,0.6C668.9,252.5,669.1,252.7,669.1,253.1z"/>
		</g>
	</g>
	<g>
		
			<linearGradient id="SVGID_1_" gradientUnits="userSpaceOnUse" x1="408.4104" y1="1043.1368" x2="208.8659" y2="1043.1368" gradientTransform="matrix(1 0 0 1 0 -768.1368)">
			<stop  offset="0" style="stop-color:#00BEFF"/>
			<stop  offset="1" style="stop-color:#054BA4"/>
		</linearGradient>
		<path class="st2" d="M240.7,306.9h135.8c17.7,0,31.9-14.3,31.9-31.9l0,0c0-17.7-14.3-31.9-31.9-31.9H240.7
			c-17.7,0-31.9,14.3-31.9,31.9l0,0C208.9,292.7,223.2,306.9,240.7,306.9z"/>
		<g>
			<path class="st0" d="M245.7,280.7v-11.3h1.8v9.7h4.7v1.6H245.7z"/>
			<path class="st0" d="M253.8,269.9c0-0.4,0.1-0.6,0.2-0.7c0.1-0.1,0.5-0.2,0.7-0.2c0.4,0,0.6,0.1,0.7,0.2c0.1,0.1,0.2,0.4,0.2,0.7
				c0,0.4-0.1,0.6-0.2,0.7c-0.1,0.1-0.4,0.2-0.7,0.2s-0.6-0.1-0.7-0.2C254,270.5,253.8,270.3,253.8,269.9z M255.8,280.7H254v-8.5
				h1.8V280.7z"/>
			<path class="st0" d="M261.2,280.8c-1.1,0-1.8-0.4-2.4-1.2c-0.6-0.7-0.8-1.8-0.8-3.3c0-1.3,0.2-2.4,0.8-3.3
				c0.6-0.7,1.5-1.2,2.5-1.2c0.5,0,1,0.1,1.5,0.2c0.4,0.2,0.8,0.5,1.1,1h0.1l0.2-1.1h1.5v12.2h-1.8v-3.6c0-0.2,0-0.5,0-0.7
				c0-0.2,0-0.5,0-0.6h-0.1C263.3,280.5,262.4,280.8,261.2,280.8z M261.7,279.4c0.7,0,1.3-0.2,1.6-0.6c0.4-0.5,0.5-1.1,0.5-1.9v-0.2
				c0-1.1-0.1-1.8-0.5-2.3c-0.4-0.5-0.8-0.7-1.7-0.7c-0.6,0-1.1,0.2-1.5,0.7c-0.4,0.5-0.5,1.2-0.5,2.2
				C259.8,278.4,260.4,279.4,261.7,279.4z"/>
			<path class="st0" d="M274.2,280.7l-0.2-1.1h-0.1c-0.2,0.4-0.6,0.7-1.1,1c-0.5,0.2-1,0.4-1.6,0.4c-1.1,0-1.8-0.2-2.3-0.7
				c-0.5-0.5-0.7-1.3-0.7-2.3v-5.6h1.8v5.2c0,0.6,0.1,1.1,0.4,1.5c0.2,0.4,0.7,0.5,1.2,0.5c0.7,0,1.3-0.2,1.7-0.7
				c0.4-0.5,0.5-1.2,0.5-2.3v-4.2h1.8v8.5L274.2,280.7L274.2,280.7z"/>
			<path class="st0" d="M278.1,269.9c0-0.4,0.1-0.6,0.2-0.7c0.1-0.1,0.5-0.2,0.7-0.2c0.4,0,0.6,0.1,0.7,0.2c0.1,0.1,0.2,0.4,0.2,0.7
				c0,0.4-0.1,0.6-0.2,0.7c-0.1,0.1-0.4,0.2-0.7,0.2c-0.4,0-0.6-0.1-0.7-0.2C278.2,270.5,278.1,270.3,278.1,269.9z M280,280.7h-1.8
				v-8.5h1.8V280.7z"/>
			<path class="st0" d="M285.5,280.8c-1.1,0-1.9-0.4-2.4-1.2c-0.6-0.7-0.8-1.8-0.8-3.3c0-1.3,0.2-2.4,0.8-3.3
				c0.6-0.7,1.5-1.2,2.5-1.2s1.9,0.4,2.5,1.2h0.1c-0.1-0.6-0.1-1.1-0.1-1.5v-3.2h1.8v12h-1.5l-0.4-1.1H288
				C287.4,280.5,286.6,280.8,285.5,280.8z M286,279.4c0.7,0,1.3-0.2,1.6-0.6c0.4-0.4,0.5-1.1,0.5-2.1v-0.2c0-1.1-0.1-1.8-0.5-2.3
				c-0.4-0.5-0.8-0.7-1.7-0.7c-0.6,0-1.1,0.2-1.5,0.7c-0.4,0.5-0.5,1.2-0.5,2.2c0,1,0.1,1.7,0.5,2.2
				C284.8,279.1,285.2,279.4,286,279.4z"/>
			<path class="st0" d="M292.3,269.9c0-0.4,0.1-0.6,0.2-0.7c0.1-0.1,0.5-0.2,0.7-0.2c0.4,0,0.6,0.1,0.7,0.2c0.1,0.1,0.2,0.4,0.2,0.7
				c0,0.4-0.1,0.6-0.2,0.7c-0.1,0.1-0.5,0.2-0.7,0.2c-0.4,0-0.6-0.1-0.7-0.2C292.4,270.5,292.3,270.3,292.3,269.9z M294.2,280.7
				h-1.8v-8.5h1.8V280.7z"/>
			<path class="st0" d="M299.9,279.4c0.5,0,0.8-0.1,1.3-0.2v1.3c-0.2,0.1-0.5,0.1-0.7,0.2c-0.4,0-0.6,0.1-1,0.1
				c-1.7,0-2.5-0.8-2.5-2.7v-4.6h-1.2v-0.8l1.2-0.6l0.6-1.8h1.1v1.9h2.4v1.3h-2.4v4.6c0,0.5,0.1,0.7,0.4,1
				C299.3,279.2,299.5,279.4,299.9,279.4z"/>
			<path class="st0" d="M301.7,272.2h1.9l1.7,4.8c0.2,0.7,0.5,1.3,0.5,1.9h0.1c0-0.2,0.1-0.6,0.2-1s0.7-2.3,1.9-5.7h1.9l-3.6,9.6
				c-0.6,1.8-1.8,2.7-3.3,2.7c-0.4,0-0.8,0-1.2-0.1V283c0.2,0.1,0.6,0.1,1,0.1c0.8,0,1.5-0.5,1.8-1.5l0.4-0.8L301.7,272.2z"/>
			<path class="st0" d="M322.2,277.7c0,1-0.4,1.8-1.1,2.3c-0.7,0.6-1.7,0.8-3,0.8c-1.2,0-2.3-0.2-3.2-0.6v-1.7
				c0.5,0.2,1.1,0.5,1.6,0.6c0.6,0.1,1.1,0.2,1.6,0.2c0.7,0,1.2-0.1,1.6-0.4c0.4-0.2,0.5-0.6,0.5-1.1c0-0.4-0.1-0.7-0.5-1.1
				c-0.4-0.2-1-0.6-1.9-1.1c-1-0.4-1.7-0.8-2.2-1.5c-0.4-0.5-0.6-1.2-0.6-1.9c0-1,0.4-1.7,1-2.2c0.6-0.5,1.6-0.8,2.7-0.8
				c1.1,0,2.2,0.2,3.3,0.7l-0.6,1.5c-1-0.4-1.9-0.6-2.7-0.6c-0.6,0-1.1,0.1-1.3,0.4c-0.4,0.2-0.5,0.6-0.5,1c0,0.2,0.1,0.5,0.2,0.7
				c0.1,0.2,0.4,0.4,0.6,0.6c0.2,0.2,0.8,0.5,1.6,0.7c0.8,0.4,1.5,0.6,1.8,1c0.4,0.2,0.6,0.6,0.8,1
				C322.1,276.7,322.2,277.2,322.2,277.7z"/>
			<path class="st0" d="M327.6,280.8c-1.3,0-2.3-0.4-2.9-1.1c-0.7-0.7-1-1.8-1-3.3s0.4-2.5,1.1-3.3s1.7-1.2,3-1.2
				c0.8,0,1.7,0.1,2.4,0.5l-0.5,1.5c-0.7-0.2-1.3-0.5-1.9-0.5c-1.5,0-2.2,1-2.2,2.9c0,1,0.2,1.7,0.6,2.2c0.4,0.5,0.8,0.7,1.6,0.7
				c0.8,0,1.6-0.2,2.3-0.6v1.6c-0.4,0.2-0.7,0.4-1.1,0.4C328.5,280.8,328.2,280.8,327.6,280.8z"/>
			<path class="st0" d="M336.3,272.1c0.4,0,0.6,0,0.8,0.1l-0.1,1.7c-0.2-0.1-0.5-0.1-0.8-0.1c-0.7,0-1.3,0.2-1.7,0.7
				c-0.5,0.5-0.7,1.1-0.7,1.8v4.5h-1.8v-8.5h1.5l0.2,1.5h0.1c0.2-0.5,0.6-1,1.1-1.2C335.2,272.2,335.7,272.1,336.3,272.1z"/>
			<path class="st0" d="M342.5,280.8c-1.3,0-2.3-0.4-3.2-1.2c-0.8-0.8-1.1-1.8-1.1-3.2s0.4-2.4,1.1-3.3s1.7-1.2,2.9-1.2
				c1.1,0,2.1,0.4,2.7,1c0.6,0.7,1,1.6,1,2.8v1h-5.7c0,0.8,0.2,1.5,0.7,1.9c0.4,0.5,1,0.6,1.8,0.6c0.5,0,1,0,1.5-0.1
				c0.5-0.1,0.8-0.2,1.5-0.5v1.5c-0.5,0.2-0.8,0.4-1.3,0.5C343.6,280.8,343.1,280.8,342.5,280.8z M342.1,273.4
				c-0.6,0-1.1,0.2-1.3,0.6c-0.4,0.4-0.6,0.8-0.6,1.6h3.9c0-0.7-0.1-1.2-0.5-1.6C343.2,273.5,342.7,273.4,342.1,273.4z"/>
			<path class="st0" d="M351.6,280.8c-1.3,0-2.3-0.4-3.2-1.2c-0.7-0.7-1.1-1.8-1.1-3.2s0.4-2.4,1.1-3.3s1.7-1.2,2.9-1.2
				c1.1,0,2.1,0.4,2.7,1c0.6,0.7,1,1.6,1,2.8v1h-5.7c0,0.8,0.2,1.5,0.7,1.9c0.4,0.5,1,0.6,1.8,0.6c0.5,0,1,0,1.5-0.1
				c0.5-0.1,0.8-0.2,1.5-0.5v1.5c-0.5,0.2-0.8,0.4-1.3,0.5C352.6,280.8,352,280.8,351.6,280.8z M351.2,273.4c-0.6,0-1.1,0.2-1.3,0.6
				c-0.4,0.4-0.6,0.8-0.6,1.6h3.9c0-0.7-0.1-1.2-0.5-1.6C352.2,273.5,351.8,273.4,351.2,273.4z"/>
			<path class="st0" d="M364.4,280.7h-1.8v-5.2c0-0.6-0.1-1.1-0.4-1.5c-0.2-0.4-0.7-0.5-1.2-0.5c-0.7,0-1.3,0.2-1.7,0.7
				c-0.4,0.5-0.5,1.2-0.5,2.3v4.2H357v-8.5h1.5l0.2,1.1h0.1c0.2-0.4,0.6-0.7,1.1-1c0.5-0.2,1-0.4,1.6-0.4c2.1,0,3,1.1,3,3.2v5.5
				L364.4,280.7L364.4,280.7z"/>
			<path class="st0" d="M372.5,278.3c0,0.8-0.2,1.5-0.8,1.9c-0.6,0.5-1.5,0.6-2.5,0.6s-2.1-0.1-2.8-0.5v-1.6c1,0.5,1.9,0.7,2.8,0.7
				c1.1,0,1.7-0.4,1.7-1c0-0.2-0.1-0.4-0.2-0.5c-0.1-0.1-0.4-0.2-0.6-0.5c-0.2-0.1-0.7-0.4-1.2-0.5c-1-0.4-1.7-0.7-1.9-1.1
				c-0.4-0.4-0.5-0.8-0.5-1.5c0-0.7,0.2-1.3,0.8-1.7c0.6-0.4,1.3-0.6,2.4-0.6c1,0,1.9,0.2,2.8,0.6l-0.6,1.3c-1-0.4-1.7-0.6-2.3-0.6
				c-1,0-1.5,0.2-1.5,0.8c0,0.2,0.1,0.5,0.4,0.7c0.2,0.2,0.8,0.5,1.6,0.7c0.7,0.2,1.2,0.5,1.6,0.7c0.4,0.2,0.6,0.5,0.7,0.7
				C372.5,277.5,372.5,277.9,372.5,278.3z"/>
		</g>
	</g>
	<g>
		<line class="st3" x1="404.7" y1="275" x2="735.7" y2="275"/>
	</g>
	<g>
		<circle class="st4" cx="82.8" cy="275" r="70.7"/>
		<polygon class="st4" points="199,275 176.5,266.8 176.5,283.2 		"/>
		<g>
			<path class="st4" d="M184,276.8h-19.5c-1,0-1.8-0.8-1.8-1.8c0-1,0.8-1.8,1.8-1.8H184c1,0,1.8,0.8,1.8,1.8
				C185.8,276,185,276.8,184,276.8z"/>
		</g>
		<g>
			<path class="st0" d="M70.2,265.8c0,1.3-0.5,2.4-1.5,3.2c-1,0.7-2.3,1.1-4,1.1s-3-0.2-4.1-0.8v-2.3c0.7,0.4,1.5,0.6,2.2,0.7
				c0.7,0.2,1.5,0.2,2.2,0.2c1,0,1.7-0.2,2.2-0.6c0.5-0.4,0.7-0.8,0.7-1.5s-0.2-1.1-0.6-1.5s-1.3-0.8-2.7-1.3
				c-1.3-0.6-2.3-1.2-2.9-1.9c-0.6-0.7-0.8-1.6-0.8-2.5c0-1.2,0.5-2.2,1.3-2.9c0.8-0.7,2.1-1.1,3.6-1.1c1.5,0,2.9,0.4,4.2,1
				l-0.7,1.9c-1.3-0.6-2.5-0.8-3.5-0.8c-0.8,0-1.3,0.1-1.8,0.5c-0.4,0.4-0.6,0.8-0.6,1.3c0,0.4,0.1,0.7,0.2,1s0.5,0.5,0.8,0.7
				c0.4,0.2,1.1,0.6,2.1,1c1.1,0.5,1.9,0.8,2.4,1.3c0.5,0.4,0.8,0.8,1.1,1.3C70.1,264.6,70.2,265.2,70.2,265.8z"/>
			<path class="st0" d="M72.1,265.9c0-0.8,0.2-1.7,0.6-2.3c0.5-0.6,1.2-1.3,2.4-1.9c-0.6-0.7-1.1-1.5-1.3-1.9s-0.4-1.1-0.4-1.6
				c0-1.1,0.4-1.8,1.1-2.4s1.7-0.8,3-0.8c1.2,0,2.2,0.2,2.9,0.8s1.1,1.3,1.1,2.3c0,0.7-0.2,1.5-0.7,2.1c-0.5,0.6-1.2,1.2-2.3,1.9
				l3.5,3.4c0.6-0.7,1-1.8,1.3-3.3h2.4c-0.5,1.9-1.2,3.5-2.3,4.7l3,3h-3.2l-1.6-1.5c-0.7,0.6-1.5,1-2.2,1.2
				c-0.8,0.2-1.7,0.5-2.7,0.5c-1.6,0-2.8-0.4-3.8-1.1C72.5,268.2,72.1,267.2,72.1,265.9z M77.2,268.1c1.2,0,2.3-0.4,3.2-1.1
				l-3.9-3.9c-0.7,0.5-1.2,0.8-1.5,1.3c-0.2,0.4-0.4,0.8-0.4,1.3c0,0.7,0.2,1.2,0.7,1.6C75.8,267.8,76.5,268.1,77.2,268.1z
				 M75.8,258.1c0,0.5,0.1,0.8,0.4,1.2c0.2,0.4,0.6,0.8,1,1.2c0.7-0.5,1.3-0.8,1.6-1.2c0.4-0.4,0.5-0.8,0.5-1.3
				c0-0.5-0.1-0.8-0.5-1.1c-0.2-0.2-0.7-0.4-1.2-0.4s-1,0.1-1.3,0.4C75.9,257.3,75.8,257.7,75.8,258.1z"/>
			<path class="st0" d="M98.5,259.5c0,1.6-0.5,2.8-1.6,3.6c-1,0.8-2.4,1.2-4.4,1.2H91v5.6h-2.4v-15H93c1.8,0,3.3,0.4,4.2,1.1
				C98.1,256.8,98.5,257.9,98.5,259.5z M91,262.3h1.3c1.2,0,2.2-0.2,2.8-0.6c0.6-0.5,0.8-1.1,0.8-2.1c0-0.8-0.2-1.5-0.8-1.9
				c-0.5-0.4-1.3-0.6-2.4-0.6H91V262.3z"/>
			<path class="st0" d="M60.1,288.7c0-5.8,2.4-8.8,7.2-8.8c0.7,0,1.3,0,1.9,0.1v2.1c-0.5-0.1-1.1-0.2-1.8-0.2
				c-1.6,0-2.8,0.5-3.6,1.3c-0.8,0.8-1.2,2.2-1.3,4.1h0.1c0.4-0.6,0.7-1,1.3-1.3c0.6-0.4,1.2-0.5,2.1-0.5c1.3,0,2.4,0.4,3.2,1.2
				c0.7,0.8,1.1,1.9,1.1,3.4c0,1.6-0.5,2.8-1.3,3.8c-0.8,1-2.1,1.3-3.6,1.3c-1.1,0-2.1-0.2-2.8-0.7c-0.8-0.5-1.5-1.2-1.8-2.3
				C60.4,291.2,60.1,290,60.1,288.7z M65.5,293.3c0.8,0,1.5-0.2,1.9-0.8c0.5-0.5,0.7-1.3,0.7-2.3c0-0.8-0.2-1.6-0.6-2.1
				c-0.4-0.5-1.1-0.7-1.9-0.7c-0.5,0-1,0.1-1.5,0.4c-0.5,0.2-0.7,0.5-1.1,1c-0.2,0.4-0.4,0.7-0.4,1.2c0,1,0.2,1.8,0.7,2.4
				C63.9,292.9,64.6,293.3,65.5,293.3z"/>
			<path class="st0" d="M82.3,287.6c0,2.5-0.4,4.5-1.2,5.8c-0.8,1.2-2.1,1.9-3.9,1.9c-1.7,0-2.9-0.6-3.8-1.9
				c-0.8-1.3-1.3-3.3-1.3-5.7c0-2.7,0.4-4.6,1.2-5.8c0.8-1.2,2.1-1.9,3.9-1.9c1.7,0,2.9,0.6,3.8,1.9
				C81.8,283.1,82.3,285.1,82.3,287.6z M74.5,287.6c0,2.1,0.2,3.5,0.6,4.4s1.1,1.3,2.1,1.3c1,0,1.6-0.5,2.1-1.3
				c0.5-0.8,0.6-2.3,0.6-4.4c0-2.1-0.2-3.5-0.6-4.4c-0.5-0.8-1.1-1.3-2.1-1.3c-1,0-1.6,0.5-2.1,1.3
				C74.8,284.1,74.5,285.5,74.5,287.6z"/>
			<path class="st0" d="M94.3,287.6c0,2.5-0.4,4.5-1.2,5.8c-0.8,1.2-2.1,1.9-3.9,1.9c-1.7,0-2.9-0.6-3.8-1.9
				c-0.8-1.3-1.3-3.3-1.3-5.7c0-2.7,0.4-4.6,1.2-5.8c0.8-1.2,2.1-1.9,3.9-1.9c1.7,0,2.9,0.6,3.8,1.9
				C93.8,283.1,94.3,285.1,94.3,287.6z M86.5,287.6c0,2.1,0.2,3.5,0.6,4.4s1.1,1.3,2.1,1.3c1,0,1.6-0.5,2.1-1.3
				c0.5-0.8,0.6-2.3,0.6-4.4c0-2.1-0.2-3.5-0.6-4.4c-0.5-0.8-1.1-1.3-2.1-1.3c-1,0-1.6,0.5-2.1,1.3
				C86.7,284.1,86.5,285.5,86.5,287.6z"/>
			<path class="st0" d="M95.8,283.7c0-0.8,0.2-1.6,0.6-2.2c0.4-0.7,1-1.2,1.7-1.7s1.5-0.6,2.3-0.6s1.6,0.2,2.2,0.6
				c0.7,0.4,1.2,1,1.7,1.7c0.4,0.7,0.6,1.5,0.6,2.3c0,0.7-0.2,1.6-0.6,2.2c-0.4,0.6-1,1.2-1.6,1.7s-1.5,0.6-2.3,0.6
				c-0.8,0-1.6-0.2-2.3-0.6s-1.2-1-1.6-1.7C96,285.3,95.8,284.6,95.8,283.7z M96.5,283.7c0,0.7,0.1,1.3,0.5,1.9
				c0.4,0.6,0.8,1.1,1.3,1.3c0.6,0.4,1.2,0.5,1.8,0.5c0.7,0,1.3-0.1,1.9-0.5c0.6-0.4,1.1-0.8,1.3-1.3c0.4-0.6,0.5-1.2,0.5-1.8
				c0-0.7-0.1-1.3-0.5-1.9c-0.4-0.6-0.8-1.1-1.3-1.3c-0.6-0.4-1.2-0.5-1.8-0.5c-0.7,0-1.3,0.1-1.8,0.5c-0.6,0.4-1.1,0.7-1.3,1.3
				C96.6,282.4,96.5,283,96.5,283.7z M102.1,282.6c0,0.7-0.4,1.1-1,1.3l1.5,2.4h-1.2l-1.1-2.1h-0.5v2.1h-1.1v-5.3h1.6
				c0.7,0,1.2,0.1,1.6,0.4C101.9,281.7,102.1,282.2,102.1,282.6z M99.6,283.5h0.4c0.2,0,0.5-0.1,0.7-0.2c0.1-0.1,0.2-0.4,0.2-0.6
				s-0.1-0.5-0.2-0.6c-0.1-0.1-0.4-0.1-0.7-0.1h-0.4V283.5z"/>
		</g>
	</g>
	<path class="st5" d="M956.1,243.1H750.3c-17.7,0-31.9,14.3-31.9,31.9l0,0c0,17.7,14.3,31.9,31.9,31.9H956
		c17.7,0,31.9-14.3,31.9-31.9l0,0C988,257.4,973.7,243.1,956.1,243.1z"/>
	<g class="st6">
		<path class="st7" d="M750.2,266h-2.3l-5.6-9h-0.1v0.5c0.1,1,0.1,1.8,0.1,2.7v5.8h-1.7v-11.3h2.2l5.6,9l0,0c0-0.1,0-0.6-0.1-1.3
			c-0.1-0.7,0-1.3,0-1.7v-5.9h1.7V266H750.2z"/>
		<path class="st7" d="M756.6,266.2c-1.3,0-2.3-0.4-3.2-1.2c-0.7-0.7-1.1-1.8-1.1-3.2s0.4-2.4,1.1-3.3c0.7-0.8,1.7-1.2,2.9-1.2
			c1.1,0,2.1,0.4,2.7,1c0.6,0.7,1,1.6,1,2.8v1h-5.7c0,0.8,0.2,1.5,0.7,1.9c0.5,0.5,1,0.6,1.8,0.6c0.5,0,1,0,1.5-0.1
			c0.5-0.1,0.8-0.2,1.5-0.5v1.5c-0.5,0.2-0.8,0.4-1.3,0.5C757.7,266.2,757.2,266.2,756.6,266.2z M756.3,258.8
			c-0.6,0-1.1,0.2-1.3,0.6c-0.4,0.4-0.6,0.8-0.6,1.6h3.9c0-0.7-0.1-1.2-0.5-1.6C757.3,258.9,756.8,258.8,756.3,258.8z"/>
		<path class="st7" d="M768.9,266l-1.1-4c-0.1-0.4-0.4-1.5-0.7-2.9H767c-0.2,1.3-0.5,2.4-0.7,2.9l-1.1,4h-2.1l-2.4-8.5h1.8l1.1,4.2
			c0.2,1.1,0.4,1.9,0.5,2.7l0,0c0-0.4,0.1-0.8,0.2-1.3c0.1-0.5,0.2-0.8,0.2-1.1l1.3-4.5h1.9l1.2,4.5c0.1,0.2,0.1,0.6,0.2,1.2
			c0.1,0.5,0.2,1,0.2,1.2h0.1c0.1-0.6,0.2-1.5,0.5-2.7l1.1-4.2h1.8l-2.4,8.5L768.9,266L768.9,266z"/>
		<path class="st7" d="M786.2,266l-1.1-3.2h-4.2l-1.1,3.2h-1.9l4.2-11.3h2.1l4.2,11.3H786.2z M784.5,261.3l-1.1-3
			c-0.1-0.2-0.2-0.5-0.4-1c-0.1-0.5-0.2-0.7-0.2-1c-0.1,0.6-0.4,1.3-0.6,2.1l-1,2.9L784.5,261.3L784.5,261.3z"/>
		<path class="st7" d="M796.6,257.4v1l-1.5,0.2c0.1,0.1,0.2,0.4,0.4,0.6s0.1,0.5,0.1,0.8c0,0.8-0.2,1.6-0.8,2.1s-1.5,0.7-2.5,0.7
			c-0.2,0-0.5,0-0.7-0.1c-0.4,0.2-0.6,0.5-0.6,0.8c0,0.2,0.1,0.4,0.2,0.5s0.5,0.1,1,0.1h1.5c1,0,1.7,0.2,2.2,0.6
			c0.5,0.4,0.7,1,0.7,1.7c0,1-0.4,1.7-1.2,2.2c-0.8,0.5-1.9,0.7-3.4,0.7c-1.2,0-2.1-0.2-2.7-0.6s-1-1-1-1.7c0-0.5,0.1-1,0.5-1.3
			c0.4-0.4,0.8-0.6,1.3-0.7c-0.2-0.1-0.5-0.2-0.6-0.5c-0.1-0.2-0.2-0.5-0.2-0.7c0-0.4,0.1-0.6,0.2-0.8s0.5-0.5,0.8-0.6
			c-0.5-0.2-0.8-0.5-1.1-1c-0.2-0.5-0.4-1-0.4-1.5c0-1,0.2-1.7,0.8-2.2s1.5-0.7,2.5-0.7c0.2,0,0.5,0,0.7,0c0.2,0,0.5,0.1,0.6,0.1h3
			V257.4z M789.9,267.4c0,0.4,0.1,0.7,0.5,0.8c0.4,0.2,0.8,0.4,1.5,0.4c1,0,1.7-0.1,2.2-0.4c0.5-0.2,0.7-0.6,0.7-1.1
			c0-0.4-0.1-0.6-0.4-0.8c-0.2-0.1-0.7-0.2-1.5-0.2h-1.3c-0.5,0-1,0.1-1.2,0.4C790,266.5,789.9,266.9,789.9,267.4z M790.6,260.2
			c0,0.5,0.1,1,0.4,1.2c0.2,0.2,0.7,0.5,1.2,0.5c1.1,0,1.6-0.6,1.6-1.7c0-0.6-0.1-1-0.4-1.3c-0.2-0.2-0.6-0.5-1.2-0.5
			c-0.5,0-1,0.1-1.2,0.5C790.8,259.2,790.6,259.7,790.6,260.2z"/>
		<path class="st7" d="M801.8,266.2c-1.3,0-2.3-0.4-3.2-1.2c-0.8-0.8-1.1-1.8-1.1-3.2s0.4-2.4,1.1-3.3c0.7-0.8,1.7-1.2,2.9-1.2
			c1.1,0,2.1,0.4,2.7,1c0.6,0.7,1,1.6,1,2.8v1h-5.7c0,0.8,0.2,1.5,0.7,1.9c0.5,0.5,1,0.6,1.8,0.6c0.5,0,1,0,1.5-0.1
			c0.5-0.1,0.8-0.2,1.5-0.5v1.5c-0.5,0.2-0.8,0.4-1.3,0.5C802.9,266.2,802.4,266.2,801.8,266.2z M801.6,258.8
			c-0.6,0-1.1,0.2-1.3,0.6c-0.4,0.4-0.6,0.8-0.6,1.6h3.9c0-0.7-0.1-1.2-0.5-1.6C802.5,258.9,802,258.8,801.6,258.8z"/>
		<path class="st7" d="M818.5,266l-1.1-3.2h-4.2l-1.1,3.2h-1.9l4.2-11.3h2.1l4.2,11.3H818.5z M816.8,261.3l-1.1-3
			c-0.1-0.2-0.2-0.5-0.4-1c-0.1-0.5-0.2-0.7-0.2-1c-0.1,0.6-0.4,1.3-0.6,2.1l-1,2.9L816.8,261.3L816.8,261.3z"/>
		<path class="st7" d="M823.5,266h-1.8v-12h1.8V266z"/>
		<path class="st7" d="M830.4,266.2c-1.1,0-1.9-0.4-2.5-1.2h-0.1c0.1,0.7,0.1,1.2,0.1,1.3v3.5H826v-12.2h1.5c0,0.1,0.1,0.5,0.2,1.1
			h0.1c0.6-0.8,1.5-1.3,2.5-1.3s1.9,0.4,2.4,1.2c0.6,0.7,0.8,1.8,0.8,3.3c0,1.3-0.2,2.4-0.8,3.3
			C832.4,265.8,831.5,266.2,830.4,266.2z M830,258.8c-0.7,0-1.2,0.2-1.6,0.6c-0.4,0.4-0.5,1.1-0.5,2.1v0.2c0,1.1,0.1,1.8,0.5,2.3
			s0.8,0.7,1.6,0.7c0.6,0,1.1-0.2,1.5-0.7c0.4-0.5,0.5-1.2,0.5-2.2c0-1-0.1-1.7-0.5-2.2C831.1,259,830.7,258.8,830,258.8z"/>
		<path class="st7" d="M843.4,266h-1.8v-5.2c0-0.6-0.1-1.1-0.4-1.5c-0.2-0.4-0.7-0.5-1.2-0.5c-0.7,0-1.3,0.2-1.7,0.7
			s-0.5,1.2-0.5,2.3v4.2H836v-12h1.8v3c0,0.5,0,1-0.1,1.6h0.1c0.2-0.4,0.6-0.7,1-1c0.5-0.2,1-0.4,1.6-0.4c2.1,0,3.2,1.1,3.2,3.2v5.5
			H843.4z"/>
		<path class="st7" d="M851.3,266l-0.4-1.2h-0.1c-0.4,0.5-0.8,0.8-1.2,1.1c-0.4,0.2-1,0.2-1.6,0.2c-0.8,0-1.5-0.2-1.9-0.7
			c-0.5-0.5-0.7-1.1-0.7-1.9c0-0.8,0.4-1.6,1-1.9c0.6-0.5,1.7-0.7,3-0.7h1.5v-0.5c0-0.5-0.1-1-0.4-1.2c-0.2-0.2-0.6-0.4-1.2-0.4
			c-0.5,0-0.8,0.1-1.2,0.2c-0.4,0.1-0.7,0.2-1.2,0.5l-0.6-1.3c0.5-0.2,1-0.5,1.6-0.6c0.6-0.1,1.1-0.2,1.6-0.2c1.1,0,1.9,0.2,2.4,0.7
			c0.6,0.5,0.8,1.2,0.8,2.2v5.7h-1.3V266z M848.6,264.8c0.6,0,1.2-0.2,1.6-0.6c0.4-0.4,0.6-0.8,0.6-1.6v-0.7h-1.1
			c-0.8,0-1.5,0.1-1.8,0.5c-0.4,0.2-0.6,0.6-0.6,1.2c0,0.4,0.1,0.7,0.4,0.8C847.7,264.7,848.1,264.8,848.6,264.8z"/>
		<path class="st7" d="M868.2,254.8v7.3c0,0.8-0.1,1.6-0.5,2.2c-0.4,0.6-0.8,1.1-1.6,1.5c-0.7,0.4-1.5,0.5-2.4,0.5
			c-1.5,0-2.4-0.4-3.3-1.1c-0.7-0.7-1.2-1.7-1.2-3v-7.3h1.8v7.2c0,1,0.2,1.6,0.6,2.1c0.4,0.5,1.1,0.6,1.9,0.6c1.7,0,2.5-1,2.5-2.8
			v-7.2h2.1V254.8z"/>
		<path class="st7" d="M870.7,265.1c0-0.4,0.1-0.6,0.2-0.8c0.2-0.2,0.5-0.2,0.8-0.2c0.4,0,0.6,0.1,0.8,0.4s0.2,0.5,0.2,0.8
			c0,0.4-0.1,0.6-0.2,0.8c-0.1,0.2-0.5,0.4-0.8,0.4c-0.4,0-0.6-0.1-0.8-0.4C870.7,265.7,870.7,265.4,870.7,265.1z"/>
		<path class="st7" d="M881.9,262.9c0,1-0.4,1.8-1.1,2.3c-0.7,0.6-1.7,0.8-3,0.8c-1.2,0-2.3-0.2-3.2-0.6v-1.7
			c0.5,0.2,1.1,0.5,1.6,0.6c0.6,0.1,1.1,0.2,1.6,0.2c0.7,0,1.2-0.1,1.6-0.4c0.4-0.2,0.5-0.6,0.5-1.1c0-0.4-0.1-0.7-0.5-1.1
			c-0.4-0.4-1-0.6-1.9-1.1c-1-0.4-1.7-0.8-2.2-1.5c-0.5-0.6-0.6-1.2-0.6-1.9c0-1,0.4-1.7,1-2.2c0.6-0.5,1.6-0.8,2.7-0.8
			c1.1,0,2.2,0.2,3.3,0.7l-0.6,1.5c-1-0.4-1.9-0.6-2.7-0.6c-0.6,0-1.1,0.1-1.3,0.4c-0.2,0.2-0.5,0.6-0.5,1c0,0.2,0.1,0.5,0.2,0.7
			c0.1,0.2,0.4,0.4,0.6,0.6c0.2,0.2,0.8,0.5,1.6,0.7c0.8,0.4,1.5,0.6,1.8,1c0.4,0.4,0.6,0.6,0.8,1
			C881.8,262,881.9,262.4,881.9,262.9z"/>
		<path class="st7" d="M883.6,265.1c0-0.4,0.1-0.6,0.2-0.8c0.2-0.2,0.5-0.2,0.8-0.2c0.4,0,0.6,0.1,0.8,0.4s0.2,0.5,0.2,0.8
			c0,0.4-0.1,0.6-0.2,0.8c-0.2,0.2-0.5,0.4-0.8,0.4c-0.4,0-0.6-0.1-0.8-0.4C883.6,265.8,883.6,265.4,883.6,265.1z"/>
		<path class="st7" d="M899,262.9c0,1-0.4,1.8-1.1,2.3c-0.7,0.6-1.7,0.8-3,0.8s-2.3-0.2-3.2-0.6v-1.7c0.5,0.2,1.1,0.5,1.6,0.6
			c0.6,0.1,1.1,0.2,1.6,0.2c0.7,0,1.2-0.1,1.6-0.4c0.4-0.2,0.5-0.6,0.5-1.1c0-0.4-0.1-0.7-0.5-1.1c-0.4-0.2-1-0.6-1.9-1.1
			c-1-0.4-1.7-0.8-2.2-1.5c-0.4-0.5-0.6-1.2-0.6-1.9c0-1,0.4-1.7,1-2.2c0.6-0.5,1.6-0.8,2.7-0.8c1.1,0,2.2,0.2,3.3,0.7l-0.6,1.5
			c-1-0.4-1.9-0.6-2.7-0.6c-0.6,0-1.1,0.1-1.3,0.4c-0.2,0.2-0.5,0.6-0.5,1c0,0.2,0.1,0.5,0.2,0.7c0.1,0.2,0.4,0.4,0.6,0.6
			s0.8,0.5,1.6,0.7c0.8,0.4,1.5,0.6,1.8,1c0.4,0.2,0.6,0.6,0.8,1C898.9,262,899,262.4,899,262.9z"/>
		<path class="st7" d="M908.1,266h-1.8v-5.2c0-0.6-0.1-1.1-0.4-1.5c-0.2-0.4-0.6-0.5-1.2-0.5c-0.7,0-1.2,0.2-1.6,0.7
			c-0.4,0.5-0.5,1.2-0.5,2.3v4.2h-1.8v-8.5h1.5l0.2,1.1h0.1c0.2-0.4,0.6-0.7,1-1c0.5-0.2,1-0.4,1.5-0.4c1.3,0,2.2,0.5,2.5,1.3h0.1
			c0.2-0.4,0.6-0.7,1.1-1c0.5-0.2,1-0.4,1.6-0.4c1,0,1.7,0.2,2.2,0.7c0.5,0.5,0.7,1.3,0.7,2.3v5.6h-1.6v-5.2c0-0.6-0.1-1.1-0.4-1.5
			c-0.2-0.4-0.6-0.5-1.2-0.5c-0.7,0-1.2,0.2-1.6,0.6c-0.4,0.5-0.5,1.1-0.5,2.1V266z"/>
		<path class="st7" d="M921.3,266l-0.4-1.2h-0.1c-0.4,0.5-0.8,0.8-1.2,1.1c-0.4,0.2-1,0.2-1.6,0.2c-0.8,0-1.5-0.2-1.9-0.7
			c-0.5-0.5-0.7-1.1-0.7-1.9c0-0.8,0.4-1.6,1-1.9c0.6-0.5,1.7-0.7,3-0.7h1.5v-0.5c0-0.5-0.1-1-0.4-1.2c-0.2-0.2-0.6-0.4-1.2-0.4
			c-0.5,0-0.8,0.1-1.2,0.2c-0.4,0.1-0.7,0.2-1.2,0.5l-0.6-1.3c0.5-0.2,1-0.5,1.6-0.6c0.6-0.1,1.1-0.2,1.6-0.2c1.1,0,1.9,0.2,2.4,0.7
			c0.6,0.5,0.8,1.2,0.8,2.2v5.7h-1.3V266z M918.7,264.8c0.6,0,1.2-0.2,1.6-0.6c0.4-0.4,0.6-0.8,0.6-1.6v-0.7h-1.1
			c-0.8,0-1.5,0.1-1.8,0.5c-0.4,0.2-0.6,0.6-0.6,1.2c0,0.4,0.1,0.7,0.4,0.8C917.9,264.7,918.2,264.8,918.7,264.8z"/>
		<path class="st7" d="M927,266h-1.8v-12h1.8V266z"/>
		<path class="st7" d="M931.4,266h-1.8v-12h1.8V266z"/>
		<path class="st7" d="M933.2,262.5v-1.6h4v1.6H933.2z"/>
		<path class="st7" d="M944,256.2c-1.1,0-1.9,0.4-2.5,1.1c-0.6,0.7-0.8,1.8-0.8,3.2c0,1.3,0.2,2.4,0.8,3.2c0.6,0.7,1.5,1.1,2.5,1.1
			c0.5,0,1,0,1.3-0.1c0.4-0.1,1-0.2,1.3-0.4v1.6c-0.8,0.4-1.9,0.5-3,0.5c-1.7,0-2.9-0.5-3.8-1.5c-0.8-1-1.3-2.4-1.3-4.2
			c0-1.2,0.2-2.2,0.6-3c0.4-0.8,1.1-1.6,1.8-2.1c0.8-0.5,1.8-0.7,2.9-0.7c1.1,0,2.2,0.2,3.2,0.7l-0.6,1.6c-0.4-0.1-0.7-0.4-1.2-0.5
			C944.7,256.5,944.5,256.2,944,256.2z"/>
		<path class="st7" d="M954.3,266l-0.4-1.2h-0.1c-0.4,0.5-0.8,0.8-1.2,1.1s-1,0.2-1.6,0.2c-0.8,0-1.5-0.2-1.9-0.7
			c-0.5-0.5-0.7-1.1-0.7-1.9c0-0.8,0.4-1.6,1-1.9c0.6-0.5,1.7-0.7,3-0.7h1.5v-0.5c0-0.5-0.1-1-0.4-1.2c-0.2-0.2-0.6-0.4-1.2-0.4
			c-0.5,0-0.8,0.1-1.2,0.2c-0.4,0.1-0.7,0.2-1.2,0.5l-0.5-1.5c0.5-0.2,1-0.5,1.6-0.6s1.1-0.2,1.6-0.2c1.1,0,1.9,0.2,2.4,0.7
			c0.6,0.5,0.8,1.2,0.8,2.2v5.7h-1.5V266z M951.6,264.8c0.6,0,1.2-0.2,1.6-0.6c0.4-0.4,0.6-0.8,0.6-1.6v-0.7h-1.1
			c-0.8,0-1.5,0.1-1.8,0.5c-0.4,0.2-0.6,0.6-0.6,1.2c0,0.4,0.1,0.7,0.4,0.8C950.9,264.7,951.2,264.8,951.6,264.8z"/>
		<path class="st7" d="M962.4,266.2c-1.1,0-1.9-0.4-2.5-1.2h-0.1c0.1,0.7,0.1,1.2,0.1,1.3v3.5h-1.8v-12.2h1.5c0,0.1,0.1,0.5,0.2,1.1
			h0.1c0.6-0.8,1.5-1.3,2.5-1.3c1.1,0,1.9,0.4,2.4,1.2s0.8,1.8,0.8,3.3c0,1.3-0.2,2.4-0.8,3.3C964.4,265.8,963.5,266.2,962.4,266.2z
			 M962.1,258.8c-0.7,0-1.2,0.2-1.6,0.6c-0.4,0.4-0.5,1.1-0.5,2.1v0.2c0,1.1,0.1,1.8,0.5,2.3s0.8,0.7,1.6,0.7c0.6,0,1.1-0.2,1.5-0.7
			c0.4-0.5,0.5-1.2,0.5-2.2c0-1-0.1-1.7-0.5-2.2C963.2,259,962.7,258.8,962.1,258.8z"/>
		<path class="st7" d="M788.2,292.2v-11.3h1.8v9.7h4.7v1.6H788.2z"/>
		<path class="st7" d="M800.3,292.3c-1.3,0-2.3-0.4-3.2-1.2c-0.7-0.7-1.1-1.8-1.1-3.2s0.4-2.4,1.1-3.3c0.7-0.8,1.7-1.2,2.9-1.2
			c1.1,0,2.1,0.4,2.7,1c0.6,0.7,1,1.6,1,2.8v1H798c0,0.8,0.2,1.5,0.7,1.9c0.4,0.5,1,0.6,1.8,0.6c0.5,0,1,0,1.5-0.1
			c0.5-0.1,0.8-0.2,1.5-0.5v1.5c-0.5,0.2-0.8,0.4-1.3,0.5C801.4,292.3,801,292.3,800.3,292.3z M800,284.9c-0.6,0-1.1,0.2-1.3,0.6
			c-0.4,0.4-0.6,0.8-0.6,1.6h3.9c0-0.7-0.1-1.2-0.5-1.6C801.1,285.1,800.6,284.9,800,284.9z"/>
		<path class="st7" d="M811,292.2l-0.4-1.2h-0.1c-0.4,0.5-0.8,0.8-1.2,1.1c-0.4,0.2-1,0.2-1.6,0.2c-0.8,0-1.5-0.2-1.9-0.7
			c-0.5-0.5-0.7-1.1-0.7-1.9c0-0.8,0.4-1.6,1-1.9c0.6-0.5,1.7-0.7,3-0.7h1.5v-0.5c0-0.5-0.1-1-0.4-1.2c-0.2-0.2-0.6-0.4-1.2-0.4
			c-0.5,0-0.8,0.1-1.2,0.2c-0.4,0.1-0.7,0.2-1.2,0.5l-0.6-1.3c0.5-0.2,1-0.5,1.6-0.6s1.1-0.2,1.6-0.2c1.1,0,1.9,0.2,2.4,0.7
			c0.5,0.5,0.8,1.2,0.8,2.2v5.7H811V292.2z M808.3,291c0.6,0,1.2-0.2,1.6-0.6c0.4-0.4,0.6-0.8,0.6-1.6v-0.7h-1.1
			c-0.8,0-1.5,0.1-1.8,0.5c-0.4,0.2-0.6,0.6-0.6,1.2c0,0.4,0.1,0.7,0.4,0.8C807.5,290.9,807.9,291,808.3,291z"/>
		<path class="st7" d="M817.7,292.3c-1.1,0-1.9-0.4-2.5-1.2c-0.6-0.8-0.8-1.8-0.8-3.3s0.2-2.4,0.8-3.3c0.6-0.7,1.5-1.2,2.5-1.2
			c1.1,0,1.9,0.4,2.5,1.2h0.1c-0.1-0.6-0.1-1.1-0.1-1.5V280h1.8v12h-1.5l-0.4-1.1h-0.1C819.6,291.9,818.8,292.3,817.7,292.3z
			 M818.2,290.9c0.7,0,1.3-0.2,1.6-0.6c0.2-0.4,0.5-1.1,0.5-2.1V288c0-1.1-0.1-1.8-0.5-2.3c-0.4-0.5-0.8-0.7-1.7-0.7
			c-0.6,0-1.1,0.2-1.5,0.7c-0.4,0.5-0.5,1.2-0.5,2.2c0,1,0.1,1.7,0.5,2.2C817.1,290.6,817.6,290.9,818.2,290.9z"/>
		<path class="st7" d="M824.6,281.4c0-0.4,0.1-0.6,0.2-0.7c0.1-0.1,0.5-0.2,0.7-0.2c0.4,0,0.6,0.1,0.7,0.2c0.1,0.1,0.2,0.4,0.2,0.7
			c0,0.4-0.1,0.6-0.2,0.7c-0.1,0.1-0.5,0.2-0.7,0.2c-0.4,0-0.6-0.1-0.7-0.2C824.6,281.9,824.6,281.7,824.6,281.4z M826.4,292.2h-1.8
			v-8.5h1.8V292.2z"/>
		<path class="st7" d="M836.6,292.2h-1.8V287c0-0.6-0.1-1.1-0.4-1.5c-0.2-0.4-0.7-0.5-1.2-0.5c-0.7,0-1.3,0.2-1.7,0.7
			c-0.4,0.5-0.5,1.2-0.5,2.3v4.2h-1.8v-8.5h1.5l0.2,1.1h0.1c0.2-0.4,0.6-0.7,1.1-1c0.5-0.2,1-0.4,1.6-0.4c2.1,0,3,1.1,3,3.2v5.5
			H836.6z"/>
		<path class="st7" d="M846.3,283.6v1l-1.5,0.2c0.1,0.1,0.2,0.4,0.4,0.6c0.1,0.2,0.1,0.5,0.1,0.8c0,0.8-0.2,1.6-0.8,2.1
			s-1.5,0.7-2.5,0.7c-0.2,0-0.5,0-0.7-0.1c-0.4,0.2-0.6,0.5-0.6,0.8c0,0.2,0.1,0.4,0.2,0.5s0.5,0.1,1,0.1h1.5c1,0,1.7,0.2,2.2,0.6
			s0.7,1,0.7,1.7c0,1-0.4,1.7-1.2,2.2c-0.8,0.5-1.9,0.7-3.4,0.7c-1.2,0-2.1-0.2-2.7-0.6s-1-1-1-1.7c0-0.5,0.1-1,0.5-1.3
			c0.4-0.4,0.8-0.6,1.3-0.7c-0.2-0.1-0.5-0.2-0.6-0.5c-0.1-0.2-0.2-0.5-0.2-0.7c0-0.4,0.1-0.6,0.2-0.8s0.5-0.5,0.8-0.6
			c-0.5-0.2-0.8-0.5-1.1-1c-0.2-0.5-0.4-1-0.4-1.5c0-1,0.2-1.7,0.8-2.2c0.6-0.5,1.5-0.7,2.5-0.7c0.2,0,0.5,0,0.7,0
			c0.2,0,0.5,0.1,0.6,0.1h3V283.6z M839.5,293.5c0,0.4,0.1,0.7,0.5,0.8c0.4,0.2,0.8,0.4,1.5,0.4c1,0,1.7-0.1,2.2-0.4
			c0.5-0.2,0.7-0.6,0.7-1.1c0-0.4-0.1-0.6-0.4-0.8c-0.2-0.1-0.7-0.2-1.5-0.2h-1.3c-0.5,0-1,0.1-1.2,0.4
			C839.7,292.8,839.5,293.1,839.5,293.5z M840.4,286.4c0,0.5,0.1,1,0.4,1.2c0.2,0.2,0.7,0.5,1.2,0.5c1.1,0,1.6-0.6,1.6-1.7
			c0-0.6-0.1-1-0.4-1.3c-0.2-0.2-0.6-0.5-1.2-0.5c-0.5,0-1,0.1-1.2,0.5C840.5,285.4,840.4,285.9,840.4,286.4z"/>
		<path class="st7" d="M855.1,285.2c1.1,0,2.1,0.2,2.7,0.8c0.6,0.6,1,1.5,1,2.4c0,1.2-0.4,2.2-1.1,2.8c-0.7,0.7-1.8,1-3.2,1
			c-1.2,0-2.3-0.2-2.9-0.6v-1.7c0.4,0.2,0.8,0.4,1.5,0.6c0.5,0.1,1.1,0.2,1.5,0.2c0.8,0,1.5-0.2,1.8-0.6c0.5-0.4,0.6-0.8,0.6-1.6
			c0-1.3-0.8-2.1-2.5-2.1c-0.2,0-0.5,0-0.8,0.1c-0.4,0-0.6,0.1-1,0.1l-0.8-0.5l0.5-5.5h5.8v1.6h-4.2l-0.2,2.8c0.1,0,0.4-0.1,0.6-0.1
			C854.4,285.2,854.8,285.2,855.1,285.2z"/>
		<path class="st7" d="M867.9,286.5c0,1.9-0.4,3.4-1,4.4c-0.6,1-1.6,1.5-2.9,1.5c-1.2,0-2.2-0.5-2.8-1.5c-0.6-1-1-2.4-1-4.4
			c0-1.9,0.4-3.4,1-4.4c0.6-1,1.6-1.5,2.9-1.5c1.2,0,2.2,0.5,2.9,1.5C867.8,283.1,867.9,284.7,867.9,286.5z M862.2,286.5
			c0,1.6,0.1,2.7,0.5,3.3c0.4,0.6,0.8,1,1.5,1c0.7,0,1.2-0.4,1.6-1c0.4-0.6,0.5-1.7,0.5-3.3c0-1.5-0.1-2.5-0.5-3.3s-0.8-1-1.6-1
			s-1.2,0.4-1.5,1C862.3,284,862.2,285.1,862.2,286.5z"/>
		<path class="st7" d="M874.2,292.2v-11.3h1.8v11.3H874.2z"/>
		<path class="st7" d="M886.3,292.2h-1.8V287c0-0.6-0.1-1.1-0.4-1.5c-0.2-0.4-0.7-0.5-1.2-0.5c-0.7,0-1.3,0.2-1.7,0.7
			c-0.4,0.5-0.5,1.2-0.5,2.3v4.2h-1.8v-8.5h1.5l0.2,1.1h0.1c0.2-0.4,0.6-0.7,1.1-1c0.5-0.2,1-0.4,1.6-0.4c2.1,0,3,1.1,3,3.2v5.5
			H886.3z"/>
		<path class="st7" d="M891.6,292.3c-1.1,0-1.9-0.4-2.5-1.2c-0.6-0.7-0.8-1.8-0.8-3.3s0.2-2.4,0.8-3.3c0.6-0.7,1.5-1.2,2.5-1.2
			s1.9,0.4,2.5,1.2h0.1c-0.1-0.6-0.1-1.1-0.1-1.5V280h1.8v12h-1.5l-0.4-1.1h-0.1C893.7,291.9,892.8,292.3,891.6,292.3z M892.1,290.9
			c0.7,0,1.3-0.2,1.6-0.6c0.2-0.4,0.5-1.1,0.5-2.1V288c0-1.1-0.1-1.8-0.5-2.3c-0.4-0.5-0.8-0.7-1.7-0.7c-0.6,0-1.1,0.2-1.5,0.7
			c-0.4,0.5-0.5,1.2-0.5,2.2c0,1,0.1,1.7,0.5,2.2C890.9,290.5,891.5,290.9,892.1,290.9z"/>
		<path class="st7" d="M902.3,292.3c-1.3,0-2.3-0.4-3.2-1.2c-0.8-0.8-1.1-1.8-1.1-3.2s0.4-2.4,1.1-3.3c0.7-0.8,1.7-1.2,2.9-1.2
			c1.1,0,2.1,0.4,2.7,1c0.6,0.7,1,1.6,1,2.8v1H900c0,0.8,0.2,1.5,0.7,1.9c0.5,0.5,1,0.6,1.8,0.6c0.5,0,1,0,1.5-0.1
			c0.5-0.1,0.8-0.2,1.5-0.5v1.5c-0.5,0.2-0.8,0.4-1.3,0.5C903.4,292.3,902.9,292.3,902.3,292.3z M902.1,284.9
			c-0.6,0-1.1,0.2-1.3,0.6c-0.4,0.4-0.6,0.8-0.6,1.6h3.9c0-0.7-0.1-1.2-0.5-1.6C903,285.1,902.5,284.9,902.1,284.9z"/>
		<path class="st7" d="M909.6,287.9l-2.9-4.1h2.1l1.9,3l1.9-3h2.1l-2.9,4.1l3,4.4h-2.1l-2.1-3.2l-2.1,3.2h-2.1L909.6,287.9z"/>
	</g>
</g>
</svg>
