<?xml version="1.0" encoding="utf-8"?>
<!-- Generator: Adobe Illustrator 24.0.2, SVG Export Plug-In . SVG Version: 6.00 Build 0)  -->
<svg version="1.1" id="Layer_1" focusable="false" xmlns="http://www.w3.org/2000/svg" xmlns:xlink="http://www.w3.org/1999/xlink"
	 x="0px" y="0px" viewBox="0 0 320 512" style="enable-background:new 0 0 320 512;" xml:space="preserve">
<style type="text/css">
	.st0{fill:#DADEE2;}
	.st1{fill:#495057;}
</style>
<g>
	<path class="st0" d="M144,255.8L15.9,383.9c-8.9,8.9-8.9,23.2,0,31.9l21.3,21.3c8.9,8.9,23.2,8.9,31.9,0l90.8-90.8l90.8,90.8
		c8.9,8.9,23.2,8.9,31.9,0l21.5-21.2c8.9-8.9,8.9-23.2,0-31.9L176,255.9C167.2,246.9,152.8,246.9,144,255.8L144,255.8z"/>
	<path class="st1" d="M176,74.9L304.1,203c8.9,8.9,8.9,23.2,0,31.9l-21.3,21.3c-8.9,8.9-23.2,8.9-31.9,0L160,165.5l-90.8,90.8
		c-8.9,8.9-23.2,8.9-31.9,0L15.9,235c-8.9-8.9-8.9-23.2,0-31.9L144,75C152.8,66,167.2,66,176,74.9z"/>
</g>
</svg>
