<?xml version="1.0" encoding="utf-8"?>
<!-- Generator: Adobe Illustrator 24.1.1, SVG Export Plug-In . SVG Version: 6.00 Build 0)  -->
<svg version="1.1" id="Layer_1" xmlns="http://www.w3.org/2000/svg" xmlns:xlink="http://www.w3.org/1999/xlink" x="0px" y="0px"
	 viewBox="0 0 148 55" style="enable-background:new 0 0 148 55;" xml:space="preserve">
<style type="text/css">
	.st0{fill:none;stroke:#2E4C99;stroke-width:1.7;stroke-miterlimit:10;}
	.st1{fill:#2E4C99;}
</style>
<g>
	<polyline class="st0" points="62.9,3.5 146.2,3.5 146.2,54 1.8,54 1.8,3.5 10.2,3.5 	"/>
	<g>
		<path class="st1" d="M15.3,21.8c0,0.9,0.3,1.5,0.8,1.9c0.5,0.4,1.2,0.6,2,0.6c0.9,0,1.5-0.2,1.9-0.6c0.4-0.3,0.5-0.7,0.5-1.2
			c0-0.4-0.1-0.8-0.3-1c-0.2-0.2-0.4-0.4-0.6-0.4c-0.7-0.3-1.9-0.6-3.4-1c-0.9-0.3-1.6-0.7-2-1.2c-0.4-0.5-0.5-1.1-0.5-1.7
			c0-1.2,0.5-2,1.3-2.6c0.8-0.5,1.7-0.8,2.8-0.8c1.2,0,2.2,0.3,3.1,0.9c0.8,0.6,1.2,1.5,1.3,2.8h-2c-0.1-0.7-0.3-1.3-0.7-1.6
			c-0.4-0.3-1-0.5-1.7-0.5c-0.2,0-0.5,0-0.7,0.1c-0.2,0-0.5,0.1-0.7,0.2c-0.2,0.1-0.4,0.3-0.5,0.5c-0.1,0.2-0.2,0.5-0.2,0.7
			c0,0.4,0.1,0.7,0.4,1c0.2,0.2,0.6,0.4,1,0.5c0.9,0.2,2,0.5,3.2,0.9c0.7,0.2,1.3,0.6,1.7,1.2c0.4,0.5,0.5,1.1,0.5,1.8
			c0,1.3-0.5,2.2-1.4,2.8c-0.9,0.6-1.9,0.8-3.1,0.8c-1.3,0-2.4-0.3-3.3-1c-0.9-0.7-1.4-1.7-1.4-3.1H15.3z"/>
		<path class="st1" d="M30.5,24.3c-0.8,1-1.9,1.5-3.1,1.5c-1,0-1.9-0.3-2.5-0.9c-0.7-0.6-1-1.4-1-2.5c0-0.8,0.3-1.5,0.8-2
			c0.5-0.5,1.1-1,1.8-1.3c-0.3-0.4-0.6-0.8-0.8-1.2c-0.2-0.4-0.4-0.8-0.4-1.3c0-0.9,0.3-1.5,0.8-2c0.5-0.5,1.2-0.7,1.9-0.7
			c0.8,0,1.4,0.2,1.9,0.7c0.6,0.5,0.8,1.2,0.8,2.1c0,0.7-0.2,1.3-0.6,1.7c-0.4,0.5-0.9,0.9-1.4,1.2l1.7,2.2c0.1-0.2,0.1-0.4,0.2-0.6
			c0.1-0.2,0.1-0.5,0.1-0.9h1.6c-0.1,1-0.4,2-0.9,2.8l2.2,2.7h-2.2L30.5,24.3z M27.3,20.3c-0.2,0.1-0.3,0.2-0.5,0.3
			c-0.2,0.1-0.4,0.2-0.6,0.4c-0.2,0.2-0.3,0.3-0.4,0.6c-0.1,0.2-0.2,0.5-0.2,0.9c0,0.6,0.2,1.1,0.5,1.4c0.3,0.3,0.8,0.5,1.3,0.5
			c0.3,0,0.6-0.1,0.9-0.2c0.2-0.1,0.4-0.2,0.6-0.3c0.3-0.3,0.5-0.6,0.7-0.8L27.3,20.3z M28.1,15.1c-0.3,0-0.6,0.1-0.8,0.3
			c-0.2,0.2-0.4,0.5-0.4,0.9c0,0.2,0,0.4,0.1,0.5c0.1,0.2,0.2,0.3,0.3,0.5c0.2,0.3,0.4,0.6,0.7,0.9c0.4-0.2,0.7-0.5,0.9-0.8
			c0.3-0.3,0.4-0.7,0.4-1.1c0-0.4-0.1-0.7-0.3-1C28.7,15.3,28.4,15.1,28.1,15.1z"/>
		<path class="st1" d="M35,14H40c0.8,0,1.4,0.1,2,0.3c0.5,0.2,0.9,0.5,1.2,0.9c0.3,0.4,0.5,0.7,0.6,1.1c0.1,0.4,0.1,0.8,0.1,1.2
			c0,0.4,0,0.7-0.1,1.1c-0.1,0.4-0.3,0.8-0.6,1.2c-0.3,0.4-0.7,0.7-1.2,0.9c-0.5,0.2-1.2,0.4-2,0.4h-3v4.4h-2V14z M37,19.5h2.9
			c0.2,0,0.5,0,0.7-0.1c0.2-0.1,0.4-0.2,0.6-0.3c0.2-0.1,0.4-0.3,0.5-0.6c0.1-0.2,0.2-0.5,0.2-0.9c0-0.7-0.2-1.3-0.6-1.5
			c-0.2-0.1-0.4-0.2-0.6-0.3c-0.2,0-0.5-0.1-0.8-0.1H37V19.5z"/>
		<path class="st1" d="M50.3,14H55c1.7,0,3,0.6,3.8,1.7c0.8,1.1,1.2,2.5,1.2,4.1c0,1.6-0.4,3-1.2,4.1c-0.8,1.1-2.1,1.7-3.8,1.7h-4.6
			V14z M52.3,24h1.9c1.5,0,2.5-0.4,3-1.2c0.3-0.4,0.5-0.8,0.6-1.3c0.1-0.2,0.1-0.5,0.1-0.8c0-0.3,0-0.6,0-0.8c0-1.2-0.2-2.2-0.7-3
			c-0.3-0.4-0.6-0.7-1.1-0.9c-0.5-0.2-1.1-0.3-1.9-0.3h-1.9V24z"/>
		<path class="st1" d="M65.5,25.8c-1.3,0-2.3-0.4-3-1.3c-0.7-0.8-1.1-1.8-1.1-3.1c0-1.3,0.4-2.4,1.1-3.2c0.7-0.8,1.7-1.2,3-1.2
			c1.3,0,2.3,0.4,3,1.2c0.7,0.8,1.1,1.9,1.1,3.2c0,1.3-0.4,2.3-1.1,3.1C67.8,25.4,66.8,25.8,65.5,25.8z M65.5,24.4
			c0.8,0,1.4-0.3,1.8-0.9c0.4-0.6,0.5-1.3,0.5-2c0-0.8-0.2-1.4-0.5-2c-0.4-0.6-1-0.9-1.8-0.9c-0.8,0-1.4,0.3-1.7,0.9
			c-0.4,0.6-0.6,1.3-0.6,2c0,0.8,0.2,1.4,0.6,2C64.1,24,64.7,24.4,65.5,24.4z"/>
		<path class="st1" d="M70.6,17.2h2l1.6,6.3h0l1.6-6.3h1.9l1.5,6.3h0l1.7-6.3h1.9l-2.6,8.4h-1.9l-1.5-6.2h0l-1.5,6.2h-1.9L70.6,17.2
			z"/>
		<path class="st1" d="M94.7,21.9c0,0.5,0,1-0.1,1.5c-0.1,0.5-0.3,0.9-0.5,1.3c-0.3,0.4-0.6,0.7-1.1,0.9c-0.5,0.2-1.1,0.3-2,0.4
			c-1.2,0-2-0.4-2.5-1.1c-0.5-0.7-0.8-1.6-0.8-2.6v-0.6h2v0.6c0,0.6,0.1,1.2,0.3,1.5c0.2,0.4,0.6,0.6,1.2,0.6c0.6,0,1.1-0.2,1.3-0.6
			c0.2-0.4,0.3-0.9,0.3-1.6v-8h2V21.9z"/>
		<path class="st1" d="M100.9,25.8c-1.3,0-2.3-0.4-3-1.3c-0.7-0.8-1.1-1.8-1.1-3.1c0-1.3,0.4-2.4,1.1-3.2c0.7-0.8,1.7-1.2,3-1.2
			c1.3,0,2.3,0.4,3,1.2c0.7,0.8,1.1,1.9,1.1,3.2c0,1.3-0.4,2.3-1.1,3.1C103.2,25.4,102.2,25.8,100.9,25.8z M100.9,24.4
			c0.8,0,1.4-0.3,1.8-0.9c0.4-0.6,0.5-1.3,0.5-2c0-0.8-0.2-1.4-0.5-2c-0.4-0.6-1-0.9-1.8-0.9c-0.8,0-1.4,0.3-1.7,0.9
			c-0.4,0.6-0.6,1.3-0.6,2c0,0.8,0.2,1.4,0.6,2C99.5,24,100.1,24.4,100.9,24.4z"/>
		<path class="st1" d="M106.8,17.2h1.7v1.3l0,0c0.6-1,1.4-1.5,2.5-1.5c1.9,0,2.8,1,2.9,2.8v5.7h-1.8v-5.2c0-1.3-0.5-1.9-1.6-1.9
			c-0.6,0-1.1,0.2-1.4,0.6c-0.4,0.4-0.6,0.9-0.6,1.6v4.9h-1.8V17.2z"/>
		<path class="st1" d="M117.4,21.9c0,0.7,0.2,1.2,0.5,1.7c0.4,0.5,0.9,0.8,1.6,0.8c1,0,1.7-0.5,2-1.4h1.7c-0.2,0.9-0.6,1.6-1.3,2.1
			c-0.7,0.5-1.5,0.7-2.4,0.8c-1.3,0-2.3-0.4-2.9-1.2c-0.7-0.8-1-1.8-1-3.1c0-1.2,0.4-2.3,1.1-3.1c0.7-0.8,1.6-1.3,2.9-1.3
			c1.3,0,2.3,0.5,3,1.5c0.7,0.9,1,2.1,0.8,3.4H117.4z M121.6,20.7c0-0.6-0.2-1.1-0.6-1.5s-0.8-0.6-1.5-0.7c-0.6,0-1.1,0.2-1.5,0.6
			c-0.4,0.4-0.6,0.9-0.6,1.6H121.6z"/>
		<path class="st1" d="M126.4,22.9c0.1,0.5,0.3,0.9,0.6,1.1c0.3,0.2,0.8,0.4,1.2,0.3c0.4,0,0.8-0.1,1.2-0.2c0.4-0.1,0.6-0.4,0.6-0.9
			c0-0.2-0.1-0.4-0.2-0.6c-0.2-0.1-0.4-0.3-0.6-0.4c-0.5-0.2-1.1-0.3-1.8-0.4c-0.3-0.1-0.6-0.2-0.9-0.3c-0.3-0.1-0.6-0.3-0.8-0.4
			c-0.2-0.2-0.4-0.4-0.6-0.7c-0.2-0.3-0.2-0.6-0.2-1.1c0-0.5,0.1-0.9,0.3-1.2c0.2-0.3,0.5-0.6,0.8-0.7c0.3-0.2,0.7-0.3,1.1-0.4
			c0.4-0.1,0.8-0.1,1.1-0.1c0.9,0,1.6,0.2,2.2,0.6c0.6,0.4,1,1.1,1.1,2h-1.9c-0.1-0.4-0.3-0.7-0.6-0.9c-0.3-0.1-0.7-0.2-1.1-0.2
			c-0.3,0-0.6,0-0.9,0.1c-0.4,0.1-0.5,0.4-0.6,0.7c0,0.2,0.1,0.4,0.2,0.5c0.1,0.1,0.3,0.3,0.6,0.4c0.5,0.2,1.1,0.3,1.8,0.5
			c0.3,0.1,0.7,0.2,1,0.3c0.3,0.1,0.6,0.3,0.8,0.5c0.3,0.2,0.4,0.4,0.6,0.7c0.1,0.3,0.2,0.6,0.2,1.1c0,1-0.4,1.7-1.2,2.1
			c-0.7,0.4-1.5,0.6-2.5,0.6c-1,0-1.9-0.2-2.5-0.7c-0.7-0.5-1-1.2-1.1-2.2H126.4z"/>
		<path class="st1" d="M14,31.7h2v11.6h-2V31.7z"/>
		<path class="st1" d="M18.3,34.9H20v1.3l0,0c0.6-1,1.4-1.5,2.5-1.5c1.9,0,2.8,1,2.9,2.8v5.7h-1.8V38c0-1.3-0.5-1.9-1.6-1.9
			c-0.6,0-1.1,0.2-1.4,0.6c-0.4,0.4-0.6,0.9-0.6,1.6v4.9h-1.8V34.9z"/>
		<path class="st1" d="M35.2,43.3h-1.7v-1.1h0c-0.2,0.5-0.6,0.8-1,1c-0.4,0.2-0.9,0.3-1.5,0.3c-1.3,0-2.2-0.5-2.8-1.3
			c-0.6-0.8-1-1.9-1-3.2c0-1.5,0.4-2.6,1.1-3.3c0.7-0.7,1.5-1,2.4-1c0.5,0,1,0.1,1.5,0.3c0.5,0.2,0.9,0.5,1.2,1h0v-4.3h1.8V43.3z
			 M29,39.2c0,0.7,0.2,1.4,0.6,2c0.4,0.6,0.9,0.9,1.7,0.9c0.8,0,1.4-0.3,1.8-0.9c0.3-0.6,0.5-1.3,0.5-2c0-1.9-0.8-2.9-2.2-2.9
			c-0.8,0-1.4,0.3-1.8,0.9C29.1,37.7,28.9,38.4,29,39.2z"/>
		<path class="st1" d="M37.5,31.7h1.8v1.7h-1.8V31.7z M37.5,34.9h1.8v8.4h-1.8V34.9z"/>
		<path class="st1" d="M46.8,37.7c-0.2-1-0.8-1.6-1.9-1.6c-0.2,0-0.5,0-0.7,0.1c-0.3,0.1-0.5,0.2-0.7,0.5c-0.2,0.2-0.4,0.5-0.6,0.9
			c-0.2,0.4-0.2,0.9-0.2,1.6c0,0.7,0.2,1.4,0.5,1.9c0.3,0.6,0.9,0.9,1.6,0.9c1.1,0,1.7-0.7,1.9-1.9h1.8c-0.4,2.2-1.6,3.3-3.7,3.4
			c-1.3,0-2.2-0.4-2.9-1.2c-0.7-0.8-1-1.8-1-3.1c0-1.3,0.3-2.4,1-3.2c0.7-0.8,1.7-1.3,3-1.3c1,0,1.8,0.2,2.5,0.7
			c0.7,0.5,1.1,1.3,1.2,2.3H46.8z"/>
		<path class="st1" d="M51.8,39.6c0,0.7,0.2,1.2,0.5,1.7c0.4,0.5,0.9,0.8,1.6,0.8c1,0,1.7-0.5,2-1.4h1.7c-0.2,0.9-0.6,1.6-1.3,2.1
			c-0.7,0.5-1.5,0.7-2.4,0.8c-1.3,0-2.3-0.4-2.9-1.2c-0.7-0.8-1-1.8-1-3.1c0-1.2,0.4-2.3,1.1-3.1c0.7-0.8,1.6-1.3,2.9-1.3
			c1.3,0,2.3,0.5,3,1.5c0.7,0.9,1,2.1,0.8,3.4H51.8z M55.9,38.3c0-0.6-0.2-1.1-0.6-1.5c-0.4-0.4-0.8-0.6-1.5-0.7
			c-0.6,0-1.1,0.2-1.5,0.6c-0.4,0.4-0.6,0.9-0.6,1.6H55.9z"/>
		<path class="st1" d="M60.7,40.6c0.1,0.5,0.3,0.9,0.6,1.1c0.3,0.2,0.8,0.4,1.2,0.3c0.4,0,0.8-0.1,1.2-0.2c0.4-0.1,0.6-0.4,0.6-0.9
			c0-0.2-0.1-0.4-0.2-0.6c-0.2-0.1-0.4-0.3-0.6-0.4c-0.5-0.2-1.1-0.3-1.8-0.4c-0.3-0.1-0.6-0.2-0.9-0.3c-0.3-0.1-0.6-0.3-0.8-0.4
			c-0.2-0.2-0.4-0.4-0.6-0.7c-0.2-0.3-0.2-0.6-0.2-1.1c0-0.5,0.1-0.9,0.3-1.2c0.2-0.3,0.5-0.6,0.8-0.7c0.3-0.2,0.7-0.3,1.1-0.4
			c0.4-0.1,0.8-0.1,1.1-0.1c0.9,0,1.6,0.2,2.2,0.6c0.6,0.4,1,1.1,1.1,2H64c-0.1-0.4-0.3-0.7-0.6-0.9c-0.3-0.1-0.7-0.2-1.1-0.2
			c-0.3,0-0.6,0-0.9,0.1c-0.4,0.1-0.5,0.4-0.6,0.7c0,0.2,0.1,0.4,0.2,0.5c0.1,0.1,0.3,0.3,0.6,0.4c0.5,0.2,1.1,0.3,1.8,0.5
			c0.3,0.1,0.7,0.2,1,0.3c0.3,0.1,0.6,0.3,0.8,0.5c0.3,0.2,0.4,0.4,0.6,0.7c0.1,0.3,0.2,0.6,0.2,1.1c0,1-0.4,1.7-1.2,2.1
			c-0.7,0.4-1.5,0.6-2.5,0.6c-1,0-1.9-0.2-2.5-0.7c-0.7-0.5-1-1.2-1.1-2.2H60.7z"/>
	</g>
	<g>
		<path class="st1" d="M17.6,2.8c-0.1-0.3-0.2-0.5-0.4-0.7c-0.2-0.2-0.5-0.3-0.8-0.3c-0.5,0-0.9,0.2-1.2,0.6
			c-0.2,0.4-0.4,0.8-0.4,1.4c0,0.5,0.1,1,0.4,1.3c0.2,0.4,0.6,0.6,1.2,0.6c0.4,0,0.7-0.1,0.9-0.4c0.2-0.3,0.3-0.6,0.4-1h0.9
			c0,0.6-0.3,1.1-0.6,1.5c-0.4,0.4-0.9,0.6-1.5,0.6c-0.7,0-1.3-0.3-1.8-0.8C14.2,5.1,14,4.5,14,3.8c0-0.8,0.2-1.4,0.6-1.9
			c0.4-0.5,1-0.8,1.8-0.8c0.6,0,1.1,0.2,1.4,0.5s0.6,0.7,0.7,1.3H17.6z"/>
		<path class="st1" d="M22.4,5.5c0,0.2,0.1,0.3,0.2,0.3c0,0,0.1,0,0.2,0v0.6c-0.2,0.1-0.3,0.1-0.5,0.1c-0.2,0-0.3,0-0.4-0.1
			c-0.1-0.1-0.2-0.2-0.2-0.4c-0.2,0.2-0.4,0.3-0.6,0.3c-0.2,0.1-0.5,0.1-0.7,0.1c-0.3,0-0.6-0.1-0.9-0.3c-0.2-0.2-0.4-0.5-0.4-0.8
			c0-0.2,0-0.4,0.1-0.6c0.1-0.1,0.2-0.3,0.3-0.3c0.1-0.1,0.3-0.1,0.4-0.2c0.2,0,0.3-0.1,0.5-0.1c0.1,0,0.3-0.1,0.4-0.1
			c0.1,0,0.2,0,0.3-0.1c0.2,0,0.3-0.2,0.3-0.4c0-0.2-0.1-0.3-0.2-0.4c-0.2-0.1-0.3-0.1-0.5-0.1c-0.2,0-0.4,0-0.5,0.1
			c-0.1,0.1-0.2,0.3-0.3,0.4h-0.8c0-0.2,0.1-0.4,0.2-0.6c0.1-0.2,0.2-0.3,0.4-0.4c0.3-0.2,0.7-0.3,1.1-0.2c0.4,0,0.7,0.1,1,0.2
			c0.3,0.2,0.4,0.4,0.5,0.8V5.5z M21.6,4.5c-0.1,0.1-0.3,0.1-0.4,0.1c-0.2,0-0.4,0-0.5,0.1c-0.2,0-0.3,0.1-0.4,0.2
			c-0.1,0.1-0.2,0.2-0.2,0.5c0,0.2,0.1,0.3,0.3,0.4c0.2,0.1,0.3,0.1,0.5,0.1c0.1,0,0.2,0,0.3,0c0.1,0,0.2-0.1,0.3-0.1
			c0.1-0.1,0.2-0.1,0.2-0.2c0.1-0.1,0.1-0.2,0.1-0.3V4.5z"/>
		<path class="st1" d="M23.4,1.2h0.8v5.1h-0.8V1.2z"/>
		<path class="st1" d="M27.5,3.9c-0.1-0.5-0.4-0.7-0.8-0.7c-0.1,0-0.2,0-0.3,0c-0.1,0-0.2,0.1-0.3,0.2c-0.1,0.1-0.2,0.2-0.2,0.4
			c-0.1,0.2-0.1,0.4-0.1,0.7c0,0.3,0.1,0.6,0.2,0.9c0.1,0.3,0.4,0.4,0.7,0.4c0.5,0,0.8-0.3,0.9-0.8h0.8c-0.2,1-0.7,1.5-1.7,1.5
			c-0.6,0-1-0.2-1.3-0.6c-0.3-0.4-0.5-0.8-0.5-1.4c0-0.6,0.2-1,0.5-1.4c0.3-0.4,0.7-0.6,1.3-0.6c0.4,0,0.8,0.1,1.1,0.3
			c0.3,0.2,0.5,0.6,0.5,1H27.5z"/>
		<path class="st1" d="M32.3,6.3h-0.8V5.8h0C31.4,6,31.2,6.1,31,6.3c-0.2,0.1-0.4,0.2-0.6,0.2c-0.9,0-1.4-0.5-1.3-1.5V2.6h0.8v2.3
			c0,0.3,0.1,0.6,0.2,0.7c0.1,0.1,0.3,0.2,0.5,0.2c0.3,0,0.6-0.1,0.7-0.3c0.1-0.2,0.2-0.4,0.2-0.7V2.6h0.8V6.3z"/>
		<path class="st1" d="M33.2,1.2H34v5.1h-0.8V1.2z"/>
		<path class="st1" d="M38,5.5c0,0.2,0.1,0.3,0.2,0.3c0,0,0.1,0,0.2,0v0.6c-0.2,0.1-0.3,0.1-0.5,0.1c-0.2,0-0.3,0-0.4-0.1
			c-0.1-0.1-0.2-0.2-0.2-0.4c-0.2,0.2-0.4,0.3-0.6,0.3c-0.2,0.1-0.5,0.1-0.7,0.1c-0.3,0-0.6-0.1-0.9-0.3c-0.2-0.2-0.4-0.5-0.4-0.8
			c0-0.2,0-0.4,0.1-0.6c0.1-0.1,0.2-0.3,0.3-0.3c0.1-0.1,0.3-0.1,0.4-0.2c0.2,0,0.3-0.1,0.5-0.1c0.1,0,0.3-0.1,0.4-0.1
			c0.1,0,0.2,0,0.3-0.1c0.2,0,0.3-0.2,0.3-0.4c0-0.2-0.1-0.3-0.2-0.4c-0.2-0.1-0.3-0.1-0.5-0.1c-0.2,0-0.4,0-0.5,0.1
			c-0.1,0.1-0.2,0.3-0.3,0.4h-0.8c0-0.2,0.1-0.4,0.2-0.6c0.1-0.2,0.2-0.3,0.4-0.4c0.3-0.2,0.7-0.3,1.1-0.2c0.4,0,0.7,0.1,1,0.2
			C37.8,2.9,38,3.2,38,3.6V5.5z M37.2,4.5c-0.1,0.1-0.3,0.1-0.4,0.1c-0.2,0-0.4,0-0.5,0.1c-0.2,0-0.3,0.1-0.4,0.2
			c-0.1,0.1-0.2,0.2-0.2,0.5c0,0.2,0.1,0.3,0.3,0.4c0.2,0.1,0.3,0.1,0.5,0.1c0.1,0,0.2,0,0.3,0c0.1,0,0.2-0.1,0.3-0.1
			C37,5.6,37,5.5,37.1,5.4c0.1-0.1,0.1-0.2,0.1-0.3V4.5z"/>
		<path class="st1" d="M38.6,2.6h0.6V1.5H40v1.1h0.7v0.6H40v2c0,0.2,0,0.3,0.1,0.4c0,0.1,0.2,0.1,0.3,0.1c0.1,0,0.2,0,0.3,0v0.6
			c-0.2,0-0.3,0-0.5,0c-0.4,0-0.7-0.1-0.8-0.2c-0.1-0.2-0.2-0.4-0.2-0.7V3.2h-0.6V2.6z"/>
		<path class="st1" d="M42,4.7c0,0.3,0.1,0.6,0.2,0.8c0.2,0.2,0.4,0.3,0.7,0.3c0.5,0,0.7-0.2,0.9-0.6h0.8c-0.1,0.4-0.3,0.7-0.6,0.9
			c-0.3,0.2-0.6,0.3-1.1,0.3c-0.6,0-1-0.2-1.3-0.6c-0.3-0.4-0.5-0.8-0.5-1.4c0-0.5,0.2-1,0.5-1.4c0.3-0.4,0.7-0.6,1.3-0.6
			c0.6,0,1,0.2,1.3,0.7c0.3,0.4,0.4,0.9,0.4,1.5H42z M43.8,4.1c0-0.3-0.1-0.5-0.3-0.7c-0.2-0.2-0.4-0.3-0.6-0.3
			c-0.3,0-0.5,0.1-0.7,0.3C42.1,3.6,42,3.9,42,4.1H43.8z"/>
		<path class="st1" d="M48.8,6.3H48V5.8h0c-0.1,0.2-0.3,0.4-0.5,0.5c-0.2,0.1-0.4,0.2-0.7,0.2c-0.6,0-1-0.2-1.3-0.6
			c-0.3-0.4-0.4-0.8-0.4-1.4c0-0.7,0.2-1.2,0.5-1.5c0.3-0.3,0.7-0.5,1.1-0.5c0.2,0,0.5,0,0.7,0.1c0.2,0.1,0.4,0.2,0.5,0.4h0V1.2h0.8
			V6.3z M46,4.5c0,0.3,0.1,0.6,0.2,0.9c0.2,0.3,0.4,0.4,0.8,0.4c0.4,0,0.6-0.1,0.8-0.4C47.9,5.1,48,4.8,48,4.5c0-0.9-0.3-1.3-1-1.3
			c-0.4,0-0.6,0.1-0.8,0.4C46.1,3.8,46,4.2,46,4.5z"/>
		<path class="st1" d="M51.8,1.2h0.8v1.9h0c0.1-0.2,0.3-0.3,0.5-0.4c0.2-0.1,0.4-0.2,0.6-0.2c0.6,0,1,0.2,1.3,0.6
			c0.3,0.4,0.4,0.8,0.4,1.4c0,0.5-0.1,1-0.4,1.3c-0.3,0.4-0.7,0.6-1.2,0.6c-0.3,0-0.5,0-0.7-0.1c-0.2-0.1-0.4-0.2-0.5-0.5h0v0.5
			h-0.8V1.2z M54.6,4.5c0-0.4-0.1-0.7-0.3-0.9c-0.2-0.3-0.4-0.4-0.7-0.4c-0.3,0-0.6,0.1-0.8,0.4c-0.2,0.2-0.3,0.6-0.3,1
			c0,0.4,0.1,0.7,0.3,0.9c0.2,0.2,0.4,0.4,0.7,0.4c0.4,0,0.6-0.1,0.8-0.4c0.1-0.1,0.1-0.3,0.2-0.4C54.5,4.8,54.6,4.6,54.6,4.5z"/>
		<path class="st1" d="M55.8,2.6h0.9l0.9,2.8h0l0.9-2.8h0.8l-1.4,3.9c-0.1,0.2-0.1,0.3-0.2,0.5c-0.1,0.1-0.1,0.3-0.2,0.4
			c-0.1,0.1-0.2,0.2-0.3,0.3c-0.1,0.1-0.3,0.1-0.5,0.1c-0.2,0-0.4,0-0.6,0V7.1c0.1,0,0.3,0,0.4,0c0.2,0,0.3,0,0.4-0.1
			C56.9,6.9,57,6.8,57,6.6l0.1-0.3L55.8,2.6z"/>
	</g>
</g>
</svg>
