<?xml version="1.0" encoding="utf-8"?>
<!-- Generator: Adobe Illustrator 24.2.0, SVG Export Plug-In . SVG Version: 6.00 Build 0)  -->
<svg version="1.1" id="Layer_1" xmlns="http://www.w3.org/2000/svg" xmlns:xlink="http://www.w3.org/1999/xlink" x="0px" y="0px"
	 viewBox="0 0 905 530" style="enable-background:new 0 0 905 530;" xml:space="preserve">
<style type="text/css">
	.st0{fill:none;}
	.st1{enable-background:new    ;}
	.st2{fill:#054BA4;}
	.st3{fill:url(#SVGID_1_);}
	.st4{fill:#FFFFFF;}
	.st5{fill:none;stroke:#00B9EE;stroke-width:1.443;stroke-linecap:round;stroke-linejoin:round;stroke-miterlimit:10;}
	.st6{fill:#284D95;}
	.st7{fill:#D1D8DD;}
</style>
<g>
	<rect x="374.4" y="224.4" class="st0" width="246.8" height="30.8"/>
	<g class="st1">
		<path class="st2" d="M382.6,232.1v-7.5h1.2v7.5H382.6z"/>
		<path class="st2" d="M390.7,232.1h-1.2v-3.5c0-0.4-0.1-0.8-0.3-1c-0.2-0.2-0.5-0.3-0.8-0.3c-0.5,0-0.9,0.2-1.1,0.5
			s-0.4,0.8-0.4,1.5v2.8h-1.2v-5.7h0.9l0.2,0.7h0.1c0.2-0.3,0.4-0.5,0.7-0.6c0.3-0.1,0.7-0.2,1-0.2c1.4,0,2,0.7,2,2.1L390.7,232.1
			L390.7,232.1z"/>
		<path class="st2" d="M397.5,232.2c-0.9,0-1.6-0.3-2.1-0.8s-0.7-1.2-0.7-2.1c0-0.9,0.2-1.7,0.7-2.2s1.1-0.8,1.9-0.8
			c0.7,0,1.3,0.2,1.8,0.7c0.4,0.5,0.6,1.1,0.6,1.9v0.7H396c0,0.6,0.2,1,0.4,1.3c0.3,0.3,0.7,0.4,1.2,0.4c0.3,0,0.6,0,0.9-0.1
			s0.6-0.2,0.9-0.3v1c-0.3,0.1-0.6,0.2-0.9,0.3C398.3,232.2,397.9,232.2,397.5,232.2z M397.3,227.2c-0.4,0-0.7,0.1-0.9,0.4
			c-0.2,0.2-0.4,0.6-0.4,1.1h2.6c0-0.5-0.1-0.8-0.3-1.1C398,227.3,397.7,227.2,397.3,227.2z"/>
		<path class="st2" d="M404.6,232.1l-0.2-0.8l0,0c-0.3,0.3-0.5,0.6-0.8,0.7c-0.3,0.1-0.6,0.2-1.1,0.2c-0.6,0-1-0.2-1.3-0.5
			s-0.5-0.7-0.5-1.3s0.2-1,0.6-1.3s1.1-0.5,2-0.5h1v-0.3c0-0.4-0.1-0.6-0.3-0.8c-0.2-0.2-0.4-0.3-0.8-0.3c-0.3,0-0.6,0-0.8,0.1
			c-0.3,0.1-0.5,0.2-0.8,0.3l-0.4-0.9c0.3-0.2,0.6-0.3,1-0.4c0.4-0.1,0.7-0.1,1-0.1c0.7,0,1.3,0.2,1.6,0.5c0.4,0.3,0.5,0.8,0.5,1.5
			v3.8h-0.7V232.1z M402.8,231.3c0.4,0,0.8-0.1,1.1-0.4c0.3-0.2,0.4-0.6,0.4-1v-0.5h-0.7c-0.6,0-1,0.1-1.2,0.3
			c-0.3,0.2-0.4,0.4-0.4,0.8c0,0.3,0.1,0.5,0.2,0.6C402.3,231.2,402.5,231.3,402.8,231.3z"/>
		<path class="st2" d="M409.4,232.2c-0.9,0-1.5-0.3-1.9-0.8s-0.7-1.2-0.7-2.2s0.2-1.7,0.7-2.2s1.1-0.8,2-0.8c0.6,0,1.1,0.1,1.6,0.3
			l-0.4,1c-0.5-0.2-0.9-0.3-1.3-0.3c-1,0-1.5,0.7-1.5,2c0,0.6,0.1,1.1,0.4,1.4c0.2,0.3,0.6,0.5,1.1,0.5s1-0.1,1.5-0.4v1.1
			c-0.2,0.1-0.4,0.2-0.7,0.3S409.8,232.2,409.4,232.2z"/>
		<path class="st2" d="M417.3,232.1h-1.2v-3.5c0-0.4-0.1-0.8-0.3-1c-0.2-0.2-0.5-0.3-0.8-0.3c-0.5,0-0.9,0.2-1.1,0.5
			s-0.4,0.8-0.4,1.5v2.8h-1.2v-8h1.2v2c0,0.3,0,0.7-0.1,1h0.1c0.2-0.3,0.4-0.5,0.7-0.6c0.3-0.2,0.6-0.2,1-0.2c1.4,0,2.1,0.7,2.1,2.1
			L417.3,232.1L417.3,232.1z"/>
		<path class="st2" d="M424.2,232.2c-0.9,0-1.6-0.3-2.1-0.8s-0.7-1.2-0.7-2.1c0-0.9,0.2-1.7,0.7-2.2s1.1-0.8,1.9-0.8
			c0.7,0,1.3,0.2,1.8,0.7c0.4,0.5,0.6,1.1,0.6,1.9v0.7h-3.8c0,0.6,0.2,1,0.4,1.3c0.3,0.3,0.7,0.4,1.2,0.4c0.3,0,0.6,0,0.9-0.1
			s0.6-0.2,0.9-0.3v1c-0.3,0.1-0.6,0.2-0.9,0.3C424.9,232.2,424.6,232.2,424.2,232.2z M424,227.2c-0.4,0-0.7,0.1-0.9,0.4
			c-0.2,0.2-0.4,0.6-0.4,1.1h2.6c0-0.5-0.1-0.8-0.3-1.1C424.6,227.3,424.3,227.2,424,227.2z"/>
		<path class="st2" d="M428.9,232.1h-1.2v-8h1.2V232.1z"/>
		<path class="st2" d="M430.6,224.9c0-0.2,0.1-0.4,0.2-0.5s0.3-0.2,0.5-0.2s0.4,0.1,0.5,0.2c0.1,0.1,0.2,0.3,0.2,0.5
			s-0.1,0.4-0.2,0.5s-0.3,0.2-0.5,0.2s-0.4-0.1-0.5-0.2C430.6,225.2,430.6,225.1,430.6,224.9z M431.9,232.1h-1.2v-5.7h1.2V232.1z"/>
		<path class="st2" d="M438.3,226.4v0.7l-1,0.2c0.1,0.1,0.2,0.3,0.2,0.4c0.1,0.2,0.1,0.4,0.1,0.6c0,0.6-0.2,1.1-0.6,1.4
			c-0.4,0.3-1,0.5-1.7,0.5c-0.2,0-0.3,0-0.5,0c-0.3,0.2-0.4,0.4-0.4,0.6c0,0.1,0.1,0.2,0.2,0.3s0.3,0.1,0.7,0.1h1
			c0.6,0,1.1,0.1,1.4,0.4s0.5,0.7,0.5,1.2c0,0.6-0.3,1.1-0.8,1.5s-1.3,0.5-2.3,0.5c-0.8,0-1.4-0.1-1.8-0.4c-0.4-0.3-0.6-0.7-0.6-1.2
			c0-0.4,0.1-0.6,0.3-0.9c0.2-0.2,0.5-0.4,0.9-0.5c-0.2-0.1-0.3-0.2-0.4-0.3c-0.1-0.2-0.2-0.3-0.2-0.5s0.1-0.4,0.2-0.5
			s0.3-0.3,0.5-0.4c-0.3-0.1-0.5-0.3-0.7-0.6s-0.3-0.6-0.3-1c0-0.6,0.2-1.1,0.6-1.4c0.4-0.3,0.9-0.5,1.7-0.5c0.2,0,0.3,0,0.5,0
			s0.3,0,0.4,0.1h2.1V226.4z M433.9,233c0,0.3,0.1,0.5,0.4,0.6c0.2,0.1,0.6,0.2,1,0.2c0.7,0,1.1-0.1,1.5-0.3
			c0.3-0.2,0.5-0.4,0.5-0.8c0-0.2-0.1-0.4-0.3-0.5c-0.2-0.1-0.5-0.2-1-0.2h-1c-0.3,0-0.6,0.1-0.8,0.2
			C434,232.5,433.9,232.7,433.9,233z M434.4,228.2c0,0.4,0.1,0.6,0.3,0.8s0.4,0.3,0.8,0.3c0.7,0,1-0.4,1-1.1c0-0.4-0.1-0.7-0.3-0.9
			c-0.2-0.2-0.4-0.3-0.8-0.3c-0.3,0-0.6,0.1-0.8,0.3C434.5,227.6,434.4,227.9,434.4,228.2z"/>
		<path class="st2" d="M439.3,224.9c0-0.2,0.1-0.4,0.2-0.5s0.3-0.2,0.5-0.2s0.4,0.1,0.5,0.2c0.1,0.1,0.2,0.3,0.2,0.5
			s-0.1,0.4-0.2,0.5s-0.3,0.2-0.5,0.2s-0.4-0.1-0.5-0.2C439.4,225.2,439.3,225.1,439.3,224.9z M440.6,232.1h-1.2v-5.7h1.2V232.1z"/>
		<path class="st2" d="M445.2,226.3c0.7,0,1.3,0.3,1.6,0.8c0.4,0.5,0.6,1.2,0.6,2.2c0,0.9-0.2,1.7-0.6,2.2s-1,0.8-1.7,0.8
			s-1.3-0.3-1.7-0.8h-0.1l-0.2,0.7h-0.9v-8h1.2v1.9c0,0.1,0,0.4,0,0.6c0,0.3,0,0.5,0,0.5h0.1C443.9,226.6,444.5,226.3,445.2,226.3z
			 M444.9,227.3c-0.5,0-0.8,0.1-1,0.4c-0.2,0.3-0.3,0.8-0.3,1.4v0.1c0,0.7,0.1,1.2,0.3,1.5c0.2,0.3,0.6,0.5,1.1,0.5
			c0.4,0,0.7-0.2,1-0.5c0.2-0.3,0.3-0.8,0.3-1.5C446.2,227.9,445.8,227.3,444.9,227.3z"/>
		<path class="st2" d="M450,232.1h-1.2v-8h1.2V232.1z"/>
		<path class="st2" d="M454.2,232.2c-0.9,0-1.6-0.3-2.1-0.8s-0.7-1.2-0.7-2.1c0-0.9,0.2-1.7,0.7-2.2s1.1-0.8,1.9-0.8
			c0.7,0,1.3,0.2,1.8,0.7c0.4,0.5,0.6,1.1,0.6,1.9v0.7h-3.8c0,0.6,0.2,1,0.4,1.3c0.3,0.3,0.7,0.4,1.2,0.4c0.3,0,0.6,0,0.9-0.1
			s0.6-0.2,0.9-0.3v1c-0.3,0.1-0.6,0.2-0.9,0.3C454.9,232.2,454.6,232.2,454.2,232.2z M454,227.2c-0.4,0-0.7,0.1-0.9,0.4
			c-0.2,0.2-0.4,0.6-0.4,1.1h2.6c0-0.5-0.1-0.8-0.3-1.1C454.7,227.3,454.4,227.2,454,227.2z"/>
		<path class="st2" d="M462.8,232.2c-0.9,0-1.5-0.3-1.9-0.8s-0.7-1.2-0.7-2.2s0.2-1.7,0.7-2.2s1.1-0.8,2-0.8c0.6,0,1.1,0.1,1.6,0.3
			l-0.4,1c-0.5-0.2-0.9-0.3-1.3-0.3c-1,0-1.5,0.7-1.5,2c0,0.6,0.1,1.1,0.4,1.4c0.2,0.3,0.6,0.5,1.1,0.5s1-0.1,1.5-0.4v1.1
			c-0.2,0.1-0.4,0.2-0.7,0.3S463.1,232.2,462.8,232.2z"/>
		<path class="st2" d="M470.7,229.2c0,0.9-0.2,1.7-0.7,2.2s-1.1,0.8-2,0.8c-0.5,0-1-0.1-1.4-0.4c-0.4-0.2-0.7-0.6-0.9-1
			c-0.2-0.5-0.3-1-0.3-1.6c0-0.9,0.2-1.6,0.7-2.2c0.5-0.5,1.1-0.8,2-0.8c0.8,0,1.5,0.3,1.9,0.8C470.5,227.6,470.7,228.3,470.7,229.2
			z M466.6,229.2c0,1.3,0.5,2,1.4,2c1,0,1.4-0.7,1.4-2s-0.5-2-1.4-2c-0.5,0-0.9,0.2-1.1,0.5S466.6,228.6,466.6,229.2z"/>
		<path class="st2" d="M476.1,232.1l-0.2-0.7h-0.1c-0.2,0.3-0.4,0.5-0.7,0.6c-0.3,0.2-0.7,0.2-1.1,0.2c-0.7,0-1.2-0.2-1.5-0.5
			s-0.5-0.9-0.5-1.6v-3.7h1.2v3.5c0,0.4,0.1,0.8,0.3,1c0.2,0.2,0.5,0.3,0.8,0.3c0.5,0,0.9-0.2,1.1-0.5s0.4-0.8,0.4-1.5v-2.8h1.2v5.7
			H476.1z"/>
		<path class="st2" d="M483.7,232.1h-1.2v-3.5c0-0.4-0.1-0.8-0.3-1c-0.2-0.2-0.5-0.3-0.8-0.3c-0.5,0-0.9,0.2-1.1,0.5
			s-0.4,0.8-0.4,1.5v2.8h-1.2v-5.7h0.9l0.2,0.7h0.1c0.2-0.3,0.4-0.5,0.7-0.6c0.3-0.1,0.7-0.2,1-0.2c1.4,0,2,0.7,2,2.1L483.7,232.1
			L483.7,232.1z"/>
		<path class="st2" d="M487.5,231.2c0.3,0,0.6,0,0.9-0.1v0.9c-0.1,0.1-0.3,0.1-0.5,0.1s-0.4,0.1-0.7,0.1c-1.1,0-1.7-0.6-1.7-1.8
			v-3.1h-0.8v-0.5l0.8-0.4l0.4-1.2h0.7v1.3h1.6v0.9h-1.6v3.1c0,0.3,0.1,0.5,0.2,0.6C487,231.2,487.2,231.2,487.5,231.2z"/>
		<path class="st2" d="M492.3,226.3c0.2,0,0.4,0,0.6,0.1l-0.1,1.1c-0.2,0-0.3-0.1-0.5-0.1c-0.5,0-0.9,0.2-1.2,0.5
			c-0.3,0.3-0.4,0.7-0.4,1.2v3h-1.2v-5.7h0.9l0.2,1h0.1c0.2-0.3,0.4-0.6,0.7-0.8C491.7,226.4,492,226.3,492.3,226.3z"/>
		<path class="st2" d="M493.1,226.4h1.3l1.1,3.2c0.2,0.5,0.3,0.9,0.3,1.3l0,0c0-0.2,0.1-0.4,0.2-0.7s0.5-1.6,1.3-3.8h1.3l-2.4,6.5
			c-0.4,1.2-1.2,1.8-2.2,1.8c-0.3,0-0.5,0-0.8-0.1v-1c0.2,0,0.4,0.1,0.6,0.1c0.6,0,1-0.3,1.2-1l0.2-0.5L493.1,226.4z"/>
		<path class="st2" d="M500.9,231c-0.2,0.6-0.5,1.5-0.9,2.5h-0.9c0.2-0.9,0.4-1.8,0.5-2.6h1.2L500.9,231z"/>
		<path class="st2" d="M509.6,230c0,0.7-0.2,1.2-0.7,1.6c-0.5,0.4-1.1,0.6-2,0.6c-0.8,0-1.5-0.1-2.1-0.4v-1.2
			c0.3,0.2,0.7,0.3,1.1,0.4c0.4,0.1,0.7,0.1,1.1,0.1c0.5,0,0.8-0.1,1.1-0.3c0.2-0.2,0.3-0.4,0.3-0.7s-0.1-0.5-0.3-0.7
			c-0.2-0.2-0.6-0.4-1.3-0.7c-0.7-0.3-1.2-0.6-1.4-1c-0.3-0.4-0.4-0.8-0.4-1.3c0-0.6,0.2-1.1,0.7-1.5c0.4-0.4,1-0.5,1.8-0.5
			c0.7,0,1.4,0.2,2.1,0.5l-0.4,1c-0.7-0.3-1.3-0.4-1.8-0.4c-0.4,0-0.7,0.1-0.9,0.3c-0.2,0.2-0.3,0.4-0.3,0.7c0,0.2,0,0.4,0.1,0.5
			s0.2,0.3,0.4,0.4c0.2,0.1,0.5,0.3,1,0.5s1,0.4,1.2,0.6c0.3,0.2,0.4,0.4,0.6,0.7C509.5,229.4,509.6,229.7,509.6,230z"/>
		<path class="st2" d="M513.3,232.2c-0.9,0-1.6-0.3-2.1-0.8s-0.7-1.2-0.7-2.1c0-0.9,0.2-1.7,0.7-2.2s1.1-0.8,1.9-0.8
			c0.7,0,1.3,0.2,1.8,0.7c0.4,0.5,0.6,1.1,0.6,1.9v0.7h-3.8c0,0.6,0.2,1,0.4,1.3c0.3,0.3,0.7,0.4,1.2,0.4c0.3,0,0.6,0,0.9-0.1
			c0.3-0.1,0.6-0.2,0.9-0.3v1c-0.3,0.1-0.6,0.2-0.9,0.3C514.1,232.2,513.7,232.2,513.3,232.2z M513.1,227.2c-0.4,0-0.7,0.1-0.9,0.4
			c-0.2,0.2-0.4,0.6-0.4,1.1h2.6c0-0.5-0.1-0.8-0.3-1.1C513.8,227.3,513.5,227.2,513.1,227.2z"/>
		<path class="st2" d="M518.1,232.1h-1.2v-8h1.2V232.1z"/>
		<path class="st2" d="M522.3,232.2c-0.9,0-1.6-0.3-2.1-0.8s-0.7-1.2-0.7-2.1c0-0.9,0.2-1.7,0.7-2.2s1.1-0.8,1.9-0.8
			c0.7,0,1.3,0.2,1.8,0.7c0.4,0.5,0.6,1.1,0.6,1.9v0.7h-3.8c0,0.6,0.2,1,0.4,1.3c0.3,0.3,0.7,0.4,1.2,0.4c0.3,0,0.6,0,0.9-0.1
			c0.3-0.1,0.6-0.2,0.9-0.3v1c-0.3,0.1-0.6,0.2-0.9,0.3C523,232.2,522.7,232.2,522.3,232.2z M522.1,227.2c-0.4,0-0.7,0.1-0.9,0.4
			c-0.2,0.2-0.4,0.6-0.4,1.1h2.6c0-0.5-0.1-0.8-0.3-1.1C522.8,227.3,522.5,227.2,522.1,227.2z"/>
		<path class="st2" d="M528.1,232.2c-0.9,0-1.5-0.3-1.9-0.8s-0.7-1.2-0.7-2.2s0.2-1.7,0.7-2.2s1.1-0.8,2-0.8c0.6,0,1.1,0.1,1.6,0.3
			l-0.4,1c-0.5-0.2-0.9-0.3-1.3-0.3c-1,0-1.5,0.7-1.5,2c0,0.6,0.1,1.1,0.4,1.4c0.2,0.3,0.6,0.5,1.1,0.5s1-0.1,1.5-0.4v1.1
			c-0.2,0.1-0.4,0.2-0.7,0.3C528.8,232.2,528.5,232.2,528.1,232.2z"/>
		<path class="st2" d="M533.1,231.2c0.3,0,0.6,0,0.9-0.1v0.9c-0.1,0.1-0.3,0.1-0.5,0.1s-0.4,0.1-0.7,0.1c-1.1,0-1.7-0.6-1.7-1.8
			v-3.1h-0.8v-0.5l0.8-0.4l0.4-1.2h0.7v1.3h1.6v0.9h-1.6v3.1c0,0.3,0.1,0.5,0.2,0.6C532.7,231.2,532.9,231.2,533.1,231.2z"/>
		<path class="st2" d="M541,232.1h-1.2v-4.9c0-0.6,0-1,0-1.4c-0.1,0.1-0.2,0.2-0.3,0.3s-0.5,0.4-1.1,0.9l-0.6-0.8l2.2-1.7h1
			L541,232.1L541,232.1z"/>
		<path class="st2" d="M548.5,228.3c0,1.3-0.2,2.3-0.6,2.9c-0.4,0.6-1.1,1-1.9,1c-0.8,0-1.5-0.3-1.9-1s-0.6-1.6-0.6-2.9
			c0-1.3,0.2-2.3,0.6-2.9c0.4-0.6,1.1-0.9,1.9-0.9c0.8,0,1.5,0.3,1.9,1C548.3,226.1,548.5,227.1,548.5,228.3z M544.7,228.3
			c0,1,0.1,1.8,0.3,2.2s0.5,0.7,1,0.7s0.8-0.2,1-0.7c0.2-0.4,0.3-1.2,0.3-2.2s-0.1-1.7-0.3-2.2s-0.5-0.7-1-0.7s-0.8,0.2-1,0.7
			S544.7,227.3,544.7,228.3z"/>
		<path class="st2" d="M554.5,228.3c0,1.3-0.2,2.3-0.6,2.9c-0.4,0.6-1.1,1-1.9,1c-0.8,0-1.5-0.3-1.9-1s-0.6-1.6-0.6-2.9
			c0-1.3,0.2-2.3,0.6-2.9c0.4-0.6,1.1-0.9,1.9-0.9c0.8,0,1.5,0.3,1.9,1C554.3,226.1,554.5,227.1,554.5,228.3z M550.6,228.3
			c0,1,0.1,1.8,0.3,2.2s0.5,0.7,1,0.7s0.8-0.2,1-0.7c0.2-0.4,0.3-1.2,0.3-2.2s-0.1-1.7-0.3-2.2s-0.5-0.7-1-0.7s-0.8,0.2-1,0.7
			C550.7,226.6,550.6,227.3,550.6,228.3z"/>
		<path class="st2" d="M558.1,229.2c0-0.9,0.1-1.8,0.4-2.6c0.3-0.8,0.6-1.5,1.1-2.1h1c-0.5,0.6-0.8,1.4-1.1,2.2s-0.4,1.6-0.4,2.5
			c0,0.8,0.1,1.7,0.4,2.4c0.3,0.8,0.6,1.5,1.1,2.1h-1c-0.5-0.6-0.9-1.3-1.1-2C558.2,230.9,558.1,230.1,558.1,229.2z"/>
		<path class="st2" d="M566.8,229.2c0,0.9-0.2,1.7-0.7,2.2s-1.1,0.8-2,0.8c-0.5,0-1-0.1-1.4-0.4c-0.4-0.2-0.7-0.6-0.9-1
			c-0.2-0.5-0.3-1-0.3-1.6c0-0.9,0.2-1.6,0.7-2.2c0.5-0.5,1.1-0.8,2-0.8c0.8,0,1.5,0.3,1.9,0.8C566.6,227.6,566.8,228.3,566.8,229.2
			z M562.7,229.2c0,1.3,0.5,2,1.4,2c1,0,1.4-0.7,1.4-2s-0.5-2-1.4-2c-0.5,0-0.9,0.2-1.1,0.5C562.8,228.1,562.7,228.6,562.7,229.2z"
			/>
		<path class="st2" d="M571.1,226.3c0.2,0,0.4,0,0.6,0.1l-0.1,1.1c-0.2,0-0.3-0.1-0.5-0.1c-0.5,0-0.9,0.2-1.2,0.5s-0.4,0.7-0.4,1.2
			v3h-1.2v-5.7h0.9l0.2,1h0.1c0.2-0.3,0.4-0.6,0.7-0.8C570.4,226.4,570.7,226.3,571.1,226.3z"/>
		<path class="st2" d="M580.1,232.1H575v-0.9l1.9-2c0.6-0.6,0.9-1,1.1-1.3c0.2-0.2,0.3-0.5,0.4-0.7c0.1-0.2,0.1-0.4,0.1-0.7
			s-0.1-0.6-0.3-0.8s-0.5-0.3-0.8-0.3s-0.6,0.1-0.8,0.2c-0.3,0.1-0.6,0.3-0.9,0.6l-0.6-0.8c0.4-0.4,0.8-0.6,1.2-0.8
			c0.4-0.1,0.8-0.2,1.3-0.2c0.7,0,1.3,0.2,1.7,0.6c0.4,0.4,0.6,0.9,0.6,1.5c0,0.3-0.1,0.7-0.2,1c-0.1,0.3-0.3,0.6-0.6,0.9
			c-0.3,0.3-0.7,0.8-1.2,1.3l-1.3,1.3v0.1h3.5L580.1,232.1L580.1,232.1z"/>
		<path class="st2" d="M586.1,228.3c0,1.3-0.2,2.3-0.6,2.9c-0.4,0.6-1.1,1-1.9,1c-0.8,0-1.5-0.3-1.9-1s-0.6-1.6-0.6-2.9
			c0-1.3,0.2-2.3,0.6-2.9c0.4-0.6,1.1-0.9,1.9-0.9c0.8,0,1.5,0.3,1.9,1S586.1,227.1,586.1,228.3z M582.2,228.3c0,1,0.1,1.8,0.3,2.2
			s0.5,0.7,1,0.7s0.8-0.2,1-0.7c0.2-0.4,0.3-1.2,0.3-2.2s-0.1-1.7-0.3-2.2s-0.5-0.7-1-0.7s-0.8,0.2-1,0.7S582.2,227.3,582.2,228.3z"
			/>
		<path class="st2" d="M590.3,226.8c0,0.8-0.1,1.4-0.4,1.8c-0.3,0.4-0.7,0.6-1.2,0.6s-0.9-0.2-1.2-0.6c-0.3-0.4-0.4-1-0.4-1.8
			c0-1.6,0.5-2.4,1.6-2.4c0.5,0,0.9,0.2,1.2,0.6C590.1,225.5,590.3,226,590.3,226.8z M588,226.8c0,0.5,0,0.9,0.1,1.1
			s0.3,0.4,0.5,0.4c0.4,0,0.7-0.5,0.7-1.5s-0.2-1.5-0.7-1.5c-0.2,0-0.4,0.1-0.5,0.4C588,225.9,588,226.3,588,226.8z M593.6,224.6
			l-4.1,7.5h-1l4.1-7.5H593.6z M595.1,229.8c0,0.8-0.1,1.4-0.4,1.8c-0.3,0.4-0.7,0.6-1.2,0.6s-0.9-0.2-1.2-0.6
			c-0.3-0.4-0.4-1-0.4-1.8c0-1.6,0.5-2.4,1.6-2.4c0.5,0,0.9,0.2,1.2,0.6C595,228.5,595.1,229.1,595.1,229.8z M592.8,229.8
			c0,0.5,0.1,0.9,0.2,1.2c0.1,0.3,0.3,0.4,0.5,0.4c0.4,0,0.7-0.5,0.7-1.5s-0.2-1.5-0.7-1.5c-0.2,0-0.4,0.1-0.5,0.4
			C592.9,228.9,592.8,229.3,592.8,229.8z"/>
		<path class="st2" d="M598.5,229.2c0,0.9-0.1,1.7-0.4,2.5c-0.3,0.8-0.6,1.5-1.1,2h-1c0.5-0.6,0.8-1.4,1.1-2.1
			c0.3-0.8,0.4-1.6,0.4-2.4c0-0.8-0.1-1.7-0.4-2.5c-0.3-0.8-0.6-1.5-1.1-2.2h1c0.5,0.6,0.9,1.3,1.1,2.1
			C598.3,227.4,598.5,228.3,598.5,229.2z"/>
		<path class="st2" d="M606.3,230.5c0,0.6-0.2,1-0.6,1.3c-0.4,0.3-1,0.4-1.7,0.4c-0.8,0-1.4-0.1-1.8-0.3v-1c0.7,0.3,1.3,0.5,1.9,0.5
			c0.7,0,1.1-0.2,1.1-0.7c0-0.1,0-0.3-0.1-0.4c-0.1-0.1-0.2-0.2-0.4-0.3s-0.4-0.2-0.8-0.4c-0.7-0.3-1.1-0.5-1.3-0.8s-0.3-0.6-0.3-1
			c0-0.5,0.2-0.9,0.6-1.1c0.4-0.3,0.9-0.4,1.6-0.4c0.7,0,1.3,0.1,1.9,0.4l-0.4,0.9c-0.6-0.3-1.1-0.4-1.5-0.4c-0.6,0-1,0.2-1,0.5
			c0,0.2,0.1,0.3,0.2,0.5c0.2,0.1,0.5,0.3,1.1,0.5c0.5,0.2,0.8,0.3,1,0.5s0.4,0.3,0.5,0.5C606.2,230,606.3,230.2,606.3,230.5z"/>
		<path class="st2" d="M609.7,231.2c0.3,0,0.6,0,0.9-0.1v0.9c-0.1,0.1-0.3,0.1-0.5,0.1s-0.4,0.1-0.7,0.1c-1.1,0-1.7-0.6-1.7-1.8
			v-3.1h-0.8v-0.5l0.8-0.4l0.4-1.2h0.7v1.3h1.6v0.9h-1.6v3.1c0,0.3,0.1,0.5,0.2,0.6C609.2,231.2,609.4,231.2,609.7,231.2z"/>
		<path class="st2" d="M616.7,229.2c0,0.9-0.2,1.7-0.7,2.2s-1.1,0.8-2,0.8c-0.5,0-1-0.1-1.4-0.4c-0.4-0.2-0.7-0.6-0.9-1
			c-0.2-0.5-0.3-1-0.3-1.6c0-0.9,0.2-1.6,0.7-2.2c0.5-0.5,1.1-0.8,2-0.8c0.8,0,1.5,0.3,1.9,0.8C616.4,227.6,616.7,228.3,616.7,229.2
			z M612.6,229.2c0,1.3,0.5,2,1.4,2c1,0,1.4-0.7,1.4-2s-0.5-2-1.4-2c-0.5,0-0.9,0.2-1.1,0.5C612.7,228.1,612.6,228.6,612.6,229.2z"
			/>
		<path class="st2" d="M620.3,232.2c-0.9,0-1.5-0.3-1.9-0.8s-0.7-1.2-0.7-2.2s0.2-1.7,0.7-2.2s1.1-0.8,2-0.8c0.6,0,1.1,0.1,1.6,0.3
			l-0.4,1c-0.5-0.2-0.9-0.3-1.3-0.3c-1,0-1.5,0.7-1.5,2c0,0.6,0.1,1.1,0.4,1.4c0.2,0.3,0.6,0.5,1.1,0.5s1-0.1,1.5-0.4v1.1
			c-0.2,0.1-0.4,0.2-0.7,0.3C621,232.2,620.7,232.2,620.3,232.2z"/>
		<path class="st2" d="M624.4,229.1l0.7-0.9l1.7-1.8h1.4l-2.3,2.5l2.4,3.3h-1.4l-1.8-2.5l-0.7,0.5v2h-1.2v-8h1.2v3.9L624.4,229.1
			L624.4,229.1z"/>
		<path class="st2" d="M633,230.5c0,0.6-0.2,1-0.6,1.3c-0.4,0.3-1,0.4-1.7,0.4c-0.8,0-1.4-0.1-1.8-0.3v-1c0.7,0.3,1.3,0.5,1.9,0.5
			c0.7,0,1.1-0.2,1.1-0.7c0-0.1,0-0.3-0.1-0.4c-0.1-0.1-0.2-0.2-0.4-0.3s-0.4-0.2-0.8-0.4c-0.7-0.3-1.1-0.5-1.3-0.8s-0.3-0.6-0.3-1
			c0-0.5,0.2-0.9,0.6-1.1c0.4-0.3,0.9-0.4,1.6-0.4c0.7,0,1.3,0.1,1.9,0.4l-0.4,0.9c-0.6-0.3-1.1-0.4-1.5-0.4c-0.6,0-1,0.2-1,0.5
			c0,0.2,0.1,0.3,0.2,0.5c0.2,0.1,0.5,0.3,1.1,0.5c0.5,0.2,0.8,0.3,1,0.5s0.4,0.3,0.5,0.5C633,230,633,230.2,633,230.5z"/>
	</g>
	<g class="st1">
		<path class="st2" d="M432.5,248.4l-0.7-2.7c-0.1-0.3-0.2-0.9-0.5-2l0,0c-0.2,0.9-0.4,1.6-0.5,2l-0.8,2.7h-1.3l-1.6-5.7h1.2
			l0.7,2.8c0.2,0.7,0.3,1.3,0.3,1.8l0,0c0-0.3,0.1-0.5,0.2-0.9c0.1-0.3,0.1-0.6,0.2-0.7l0.9-3h1.3l0.8,3c0.1,0.2,0.1,0.4,0.2,0.8
			c0.1,0.3,0.1,0.6,0.1,0.8l0,0c0.1-0.4,0.2-1,0.4-1.8l0.7-2.8h1.2l-1.6,5.7L432.5,248.4L432.5,248.4z"/>
		<path class="st2" d="M436.4,241.2c0-0.2,0.1-0.4,0.2-0.5s0.3-0.2,0.5-0.2s0.4,0.1,0.5,0.2c0.1,0.1,0.2,0.3,0.2,0.5
			s-0.1,0.4-0.2,0.5s-0.3,0.2-0.5,0.2s-0.4-0.1-0.5-0.2C436.4,241.6,436.4,241.4,436.4,241.2z M437.7,248.4h-1.2v-5.7h1.2V248.4z"/>
		<path class="st2" d="M441.5,247.5c0.3,0,0.6,0,0.9-0.1v0.9c-0.1,0.1-0.3,0.1-0.5,0.1s-0.4,0.1-0.7,0.1c-1.1,0-1.7-0.6-1.7-1.8
			v-3.1h-0.8v-0.5l0.8-0.4l0.4-1.2h0.7v1.3h1.6v0.9h-1.6v3.1c0,0.3,0.1,0.5,0.2,0.6C441.1,247.5,441.2,247.5,441.5,247.5z"/>
		<path class="st2" d="M448.5,248.4h-1.2v-3.5c0-0.4-0.1-0.8-0.3-1c-0.2-0.2-0.5-0.3-0.8-0.3c-0.5,0-0.9,0.2-1.1,0.5
			s-0.4,0.8-0.4,1.5v2.8h-1.2v-8h1.2v2c0,0.3,0,0.7-0.1,1h0.1c0.2-0.3,0.4-0.5,0.7-0.6c0.3-0.2,0.6-0.2,1-0.2c1.4,0,2.1,0.7,2.1,2.1
			L448.5,248.4L448.5,248.4z"/>
		<path class="st2" d="M455,247.5c0.3,0,0.6,0,0.9-0.1v0.9c-0.1,0.1-0.3,0.1-0.5,0.1s-0.4,0.1-0.7,0.1c-1.1,0-1.7-0.6-1.7-1.8v-3.1
			h-0.8v-0.5l0.8-0.4l0.4-1.2h0.7v1.3h1.6v0.9h-1.6v3.1c0,0.3,0.1,0.5,0.2,0.6C454.5,247.5,454.7,247.5,455,247.5z"/>
		<path class="st2" d="M461.9,248.4h-1.2v-3.5c0-0.4-0.1-0.8-0.3-1c-0.2-0.2-0.5-0.3-0.8-0.3c-0.5,0-0.9,0.2-1.1,0.5
			s-0.4,0.8-0.4,1.5v2.8H457v-8h1.2v2c0,0.3,0,0.7-0.1,1h0.1c0.2-0.3,0.4-0.5,0.7-0.6c0.3-0.2,0.6-0.2,1-0.2c1.4,0,2.1,0.7,2.1,2.1
			v3.7H461.9z"/>
		<path class="st2" d="M466.1,248.5c-0.9,0-1.6-0.3-2.1-0.8s-0.7-1.2-0.7-2.1c0-0.9,0.2-1.7,0.7-2.2s1.1-0.8,1.9-0.8
			c0.7,0,1.3,0.2,1.8,0.7c0.4,0.5,0.6,1.1,0.6,1.9v0.7h-3.8c0,0.6,0.2,1,0.4,1.3c0.3,0.3,0.7,0.4,1.2,0.4c0.3,0,0.6,0,0.9-0.1
			s0.6-0.2,0.9-0.3v1c-0.3,0.1-0.6,0.2-0.9,0.3C466.8,248.5,466.5,248.5,466.1,248.5z M465.9,243.5c-0.4,0-0.7,0.1-0.9,0.4
			c-0.2,0.2-0.4,0.6-0.4,1.1h2.6c0-0.5-0.1-0.8-0.3-1.1C466.5,243.6,466.2,243.5,465.9,243.5z"/>
		<path class="st2" d="M473.6,248.4h-1.2v-8h1.2V248.4z"/>
		<path class="st2" d="M480.3,245.5c0,0.9-0.2,1.7-0.7,2.2s-1.1,0.8-2,0.8c-0.5,0-1-0.1-1.4-0.4c-0.4-0.2-0.7-0.6-0.9-1
			c-0.2-0.5-0.3-1-0.3-1.6c0-0.9,0.2-1.6,0.7-2.2c0.5-0.5,1.1-0.8,2-0.8c0.8,0,1.5,0.3,1.9,0.8C480.1,243.9,480.3,244.6,480.3,245.5
			z M476.2,245.5c0,1.3,0.5,2,1.4,2c1,0,1.4-0.7,1.4-2s-0.5-2-1.4-2c-0.5,0-0.9,0.2-1.1,0.5C476.3,244.4,476.2,244.9,476.2,245.5z"
			/>
		<path class="st2" d="M486.3,248.4l-0.7-2.7c-0.1-0.3-0.2-0.9-0.5-2l0,0c-0.2,0.9-0.4,1.6-0.5,2l-0.8,2.7h-1.3l-1.6-5.7h1.2
			l0.7,2.8c0.2,0.7,0.3,1.3,0.3,1.8l0,0c0-0.3,0.1-0.5,0.2-0.9c0.1-0.3,0.1-0.6,0.2-0.7l0.9-3h1.3l0.8,3c0.1,0.2,0.1,0.4,0.2,0.8
			c0.1,0.3,0.1,0.6,0.1,0.8l0,0c0.1-0.4,0.2-1,0.4-1.8l0.7-2.8h1.2l-1.6,5.7L486.3,248.4L486.3,248.4z"/>
		<path class="st2" d="M492.7,248.5c-0.9,0-1.6-0.3-2.1-0.8s-0.7-1.2-0.7-2.1c0-0.9,0.2-1.7,0.7-2.2s1.1-0.8,1.9-0.8
			c0.7,0,1.3,0.2,1.8,0.7c0.4,0.5,0.6,1.1,0.6,1.9v0.7h-3.8c0,0.6,0.2,1,0.4,1.3c0.3,0.3,0.7,0.4,1.2,0.4c0.3,0,0.6,0,0.9-0.1
			s0.6-0.2,0.9-0.3v1c-0.3,0.1-0.6,0.2-0.9,0.3C493.4,248.5,493.1,248.5,492.7,248.5z M492.5,243.5c-0.4,0-0.7,0.1-0.9,0.4
			s-0.4,0.6-0.4,1.1h2.6c0-0.5-0.1-0.8-0.3-1.1C493.2,243.6,492.9,243.5,492.5,243.5z"/>
		<path class="st2" d="M500.1,246.8c0,0.6-0.2,1-0.6,1.3s-1,0.4-1.7,0.4c-0.8,0-1.4-0.1-1.8-0.3v-1c0.7,0.3,1.3,0.5,1.9,0.5
			c0.7,0,1.1-0.2,1.1-0.7c0-0.1,0-0.3-0.1-0.4c-0.1-0.1-0.2-0.2-0.4-0.3c-0.2-0.1-0.4-0.2-0.8-0.4c-0.7-0.3-1.1-0.5-1.3-0.8
			c-0.2-0.3-0.3-0.6-0.3-1c0-0.5,0.2-0.9,0.6-1.1c0.4-0.3,0.9-0.4,1.6-0.4s1.3,0.1,1.9,0.4l-0.4,0.9c-0.6-0.3-1.1-0.4-1.5-0.4
			c-0.6,0-1,0.2-1,0.5c0,0.2,0.1,0.3,0.2,0.5c0.2,0.1,0.5,0.3,1.1,0.5c0.5,0.2,0.8,0.3,1,0.5s0.4,0.3,0.5,0.5
			C500,246.3,500.1,246.5,500.1,246.8z"/>
		<path class="st2" d="M503.5,247.5c0.3,0,0.6,0,0.9-0.1v0.9c-0.1,0.1-0.3,0.1-0.5,0.1s-0.4,0.1-0.7,0.1c-1.1,0-1.7-0.6-1.7-1.8
			v-3.1h-0.8v-0.5l0.8-0.4l0.4-1.2h0.7v1.3h1.6v0.9h-1.6v3.1c0,0.3,0.1,0.5,0.2,0.6C503,247.5,503.2,247.5,503.5,247.5z"/>
		<path class="st2" d="M514.2,248.4H513V245h-3.4v3.4h-1.2v-7.5h1.2v3.1h3.4v-3.1h1.2V248.4z"/>
		<path class="st2" d="M515.6,246.1v-1h2.6v1H515.6z"/>
		<path class="st2" d="M520.8,248.4h-1.2v-7.5h4.2v1h-3v2.4h2.8v1h-2.8V248.4z"/>
		<path class="st2" d="M528.5,248.4l-0.2-0.8l0,0c-0.3,0.3-0.5,0.6-0.8,0.7c-0.3,0.1-0.6,0.2-1.1,0.2c-0.6,0-1-0.2-1.3-0.5
			s-0.5-0.7-0.5-1.3s0.2-1,0.6-1.3c0.4-0.3,1.1-0.5,2-0.5h1v-0.3c0-0.4-0.1-0.6-0.3-0.8s-0.4-0.3-0.8-0.3c-0.3,0-0.6,0-0.8,0.1
			c-0.3,0.1-0.5,0.2-0.8,0.3l-0.4-0.9c0.3-0.2,0.6-0.3,1-0.4c0.4-0.1,0.7-0.1,1-0.1c0.7,0,1.3,0.2,1.6,0.5c0.4,0.3,0.5,0.8,0.5,1.5
			v3.8h-0.7V248.4z M526.7,247.6c0.4,0,0.8-0.1,1.1-0.4c0.3-0.2,0.4-0.6,0.4-1v-0.5h-0.7c-0.6,0-1,0.1-1.2,0.3
			c-0.3,0.2-0.4,0.4-0.4,0.8c0,0.3,0.1,0.5,0.2,0.6C526.2,247.5,526.4,247.6,526.7,247.6z"/>
		<path class="st2" d="M533.3,248.5c-0.9,0-1.5-0.3-1.9-0.8s-0.7-1.2-0.7-2.2s0.2-1.7,0.7-2.2s1.1-0.8,2-0.8c0.6,0,1.1,0.1,1.6,0.3
			l-0.4,1c-0.5-0.2-0.9-0.3-1.3-0.3c-1,0-1.5,0.7-1.5,2c0,0.6,0.1,1.1,0.4,1.4c0.2,0.3,0.6,0.5,1.1,0.5s1-0.1,1.5-0.4v1.1
			c-0.2,0.1-0.4,0.2-0.7,0.3C534,248.5,533.7,248.5,533.3,248.5z"/>
		<path class="st2" d="M538.3,247.5c0.3,0,0.6,0,0.9-0.1v0.9c-0.1,0.1-0.3,0.1-0.5,0.1s-0.4,0.1-0.7,0.1c-1.1,0-1.7-0.6-1.7-1.8
			v-3.1h-0.8v-0.5l0.8-0.4l0.4-1.2h0.7v1.3h1.6v0.9h-1.6v3.1c0,0.3,0.1,0.5,0.2,0.6C537.9,247.5,538.1,247.5,538.3,247.5z"/>
		<path class="st2" d="M545.4,245.5c0,0.9-0.2,1.7-0.7,2.2s-1.1,0.8-2,0.8c-0.5,0-1-0.1-1.4-0.4c-0.4-0.2-0.7-0.6-0.9-1
			c-0.2-0.5-0.3-1-0.3-1.6c0-0.9,0.2-1.6,0.7-2.2c0.5-0.5,1.1-0.8,2-0.8c0.8,0,1.5,0.3,1.9,0.8C545.1,243.9,545.4,244.6,545.4,245.5
			z M541.3,245.5c0,1.3,0.5,2,1.4,2c1,0,1.4-0.7,1.4-2s-0.5-2-1.4-2c-0.5,0-0.9,0.2-1.1,0.5C541.4,244.4,541.3,244.9,541.3,245.5z"
			/>
		<path class="st2" d="M549.6,242.6c0.2,0,0.4,0,0.6,0.1l-0.1,1.1c-0.2,0-0.3-0.1-0.5-0.1c-0.5,0-0.9,0.2-1.2,0.5s-0.4,0.7-0.4,1.2
			v3h-1.2v-5.7h0.9l0.2,1h0.1c0.2-0.3,0.4-0.6,0.7-0.8C548.9,242.7,549.3,242.6,549.6,242.6z"/>
		<path class="st2" d="M558.4,246.4c0,0.7-0.2,1.2-0.7,1.6c-0.5,0.4-1.1,0.6-2,0.6c-0.8,0-1.5-0.1-2.1-0.4V247
			c0.3,0.2,0.7,0.3,1.1,0.4c0.4,0.1,0.7,0.1,1.1,0.1c0.5,0,0.8-0.1,1.1-0.3c0.2-0.2,0.3-0.4,0.3-0.7s-0.1-0.5-0.3-0.7
			s-0.6-0.4-1.3-0.7s-1.2-0.6-1.4-1c-0.3-0.4-0.4-0.8-0.4-1.3c0-0.6,0.2-1.1,0.7-1.5c0.4-0.4,1-0.5,1.8-0.5c0.7,0,1.4,0.2,2.1,0.5
			l-0.4,1c-0.7-0.3-1.3-0.4-1.8-0.4c-0.4,0-0.7,0.1-0.9,0.3s-0.3,0.4-0.3,0.7c0,0.2,0,0.4,0.1,0.5s0.2,0.3,0.4,0.4
			c0.2,0.1,0.5,0.3,1,0.5s1,0.4,1.2,0.6s0.4,0.4,0.6,0.7C558.4,245.7,558.4,246,558.4,246.4z"/>
		<path class="st2" d="M562,248.5c-0.9,0-1.5-0.3-1.9-0.8s-0.7-1.2-0.7-2.2s0.2-1.7,0.7-2.2s1.1-0.8,2-0.8c0.6,0,1.1,0.1,1.6,0.3
			l-0.4,1c-0.5-0.2-0.9-0.3-1.3-0.3c-1,0-1.5,0.7-1.5,2c0,0.6,0.1,1.1,0.4,1.4c0.2,0.3,0.6,0.5,1.1,0.5s1-0.1,1.5-0.4v1.1
			c-0.2,0.1-0.4,0.2-0.7,0.3C562.7,248.5,562.4,248.5,562,248.5z"/>
		<path class="st2" d="M569.9,245.5c0,0.9-0.2,1.7-0.7,2.2s-1.1,0.8-2,0.8c-0.5,0-1-0.1-1.4-0.4c-0.4-0.2-0.7-0.6-0.9-1
			c-0.2-0.5-0.3-1-0.3-1.6c0-0.9,0.2-1.6,0.7-2.2c0.5-0.5,1.1-0.8,2-0.8c0.8,0,1.5,0.3,1.9,0.8C569.7,243.9,569.9,244.6,569.9,245.5
			z M565.8,245.5c0,1.3,0.5,2,1.4,2c1,0,1.4-0.7,1.4-2s-0.5-2-1.4-2c-0.5,0-0.9,0.2-1.1,0.5C565.9,244.4,565.8,244.9,565.8,245.5z"
			/>
		<path class="st2" d="M574.2,242.6c0.2,0,0.4,0,0.6,0.1l-0.1,1.1c-0.2,0-0.3-0.1-0.5-0.1c-0.5,0-0.9,0.2-1.2,0.5s-0.4,0.7-0.4,1.2
			v3h-1.2v-5.7h0.9l0.2,1h0.1c0.2-0.3,0.4-0.6,0.7-0.8C573.5,242.7,573.8,242.6,574.2,242.6z"/>
		<path class="st2" d="M578.3,248.5c-0.9,0-1.6-0.3-2.1-0.8s-0.7-1.2-0.7-2.1c0-0.9,0.2-1.7,0.7-2.2s1.1-0.8,1.9-0.8
			c0.7,0,1.3,0.2,1.8,0.7c0.4,0.5,0.6,1.1,0.6,1.9v0.7h-3.8c0,0.6,0.2,1,0.4,1.3c0.3,0.3,0.7,0.4,1.2,0.4c0.3,0,0.6,0,0.9-0.1
			c0.3-0.1,0.6-0.2,0.9-0.3v1c-0.3,0.1-0.6,0.2-0.9,0.3C579,248.5,578.7,248.5,578.3,248.5z M578.1,243.5c-0.4,0-0.7,0.1-0.9,0.4
			s-0.4,0.6-0.4,1.1h2.6c0-0.5-0.1-0.8-0.3-1.1C578.8,243.6,578.5,243.5,578.1,243.5z"/>
	</g>
</g>
<g>
	
		<linearGradient id="SVGID_1_" gradientUnits="userSpaceOnUse" x1="376.9" y1="1068" x2="212.2" y2="1068" gradientTransform="matrix(1 0 0 1 0 -803)">
		<stop  offset="0" style="stop-color:#00BEFF"/>
		<stop  offset="1" style="stop-color:#054BA4"/>
	</linearGradient>
	<path class="st3" d="M238.5,291.3h112.1c14.6,0,26.3-11.8,26.3-26.3l0,0c0-14.6-11.8-26.3-26.3-26.3H238.5
		c-14.6,0-26.3,11.8-26.3,26.3l0,0C212.2,279.6,224,291.3,238.5,291.3z"/>
	<g class="st1">
		<path class="st4" d="M242.6,269.7v-9.3h1.5v8h3.9v1.3H242.6z"/>
		<path class="st4" d="M249.4,260.8c0-0.3,0.1-0.5,0.2-0.6c0.1-0.1,0.4-0.2,0.6-0.2c0.3,0,0.5,0.1,0.6,0.2s0.2,0.3,0.2,0.6
			c0,0.3-0.1,0.5-0.2,0.6c-0.1,0.1-0.3,0.2-0.6,0.2s-0.5-0.1-0.6-0.2C249.4,261.3,249.4,261.1,249.4,260.8z M250.9,269.7h-1.5v-7
			h1.5V269.7z"/>
		<path class="st4" d="M255.4,269.8c-0.9,0-1.5-0.3-2-1c-0.5-0.6-0.7-1.5-0.7-2.7c0-1.1,0.2-2,0.7-2.7c0.5-0.6,1.2-1,2.1-1
			c0.4,0,0.8,0.1,1.2,0.2c0.3,0.2,0.7,0.4,0.9,0.8h0.1l0.2-0.9h1.2v10.1h-1.5v-3c0-0.2,0-0.4,0-0.6s0-0.4,0-0.5h-0.1
			C257.1,269.5,256.4,269.8,255.4,269.8z M255.8,268.6c0.6,0,1.1-0.2,1.3-0.5c0.3-0.4,0.4-0.9,0.4-1.6v-0.2c0-0.9-0.1-1.5-0.4-1.9
			s-0.7-0.6-1.4-0.6c-0.5,0-0.9,0.2-1.2,0.6s-0.4,1-0.4,1.8C254.2,267.8,254.7,268.6,255.8,268.6z"/>
		<path class="st4" d="M266.1,269.7l-0.2-0.9h-0.1c-0.2,0.3-0.5,0.6-0.9,0.8c-0.4,0.2-0.8,0.3-1.3,0.3c-0.9,0-1.5-0.2-1.9-0.6
			s-0.6-1.1-0.6-1.9v-4.6h1.5v4.3c0,0.5,0.1,0.9,0.3,1.2c0.2,0.3,0.6,0.4,1,0.4c0.6,0,1.1-0.2,1.4-0.6s0.4-1,0.4-1.9v-3.5h1.5v7
			L266.1,269.7L266.1,269.7z"/>
		<path class="st4" d="M269.3,260.8c0-0.3,0.1-0.5,0.2-0.6s0.4-0.2,0.6-0.2c0.3,0,0.5,0.1,0.6,0.2s0.2,0.3,0.2,0.6
			c0,0.3-0.1,0.5-0.2,0.6s-0.3,0.2-0.6,0.2c-0.3,0-0.5-0.1-0.6-0.2S269.3,261.1,269.3,260.8z M270.9,269.7h-1.5v-7h1.5V269.7z"/>
		<path class="st4" d="M275.4,269.8c-0.9,0-1.6-0.3-2-1c-0.5-0.6-0.7-1.5-0.7-2.7c0-1.1,0.2-2,0.7-2.7c0.5-0.6,1.2-1,2.1-1
			s1.6,0.3,2.1,1h0.1c-0.1-0.5-0.1-0.9-0.1-1.2v-2.6h1.5v9.9h-1.2l-0.3-0.9h-0.1C277,269.5,276.3,269.8,275.4,269.8z M275.8,268.6
			c0.6,0,1.1-0.2,1.3-0.5c0.3-0.3,0.4-0.9,0.4-1.7v-0.2c0-0.9-0.1-1.5-0.4-1.9s-0.7-0.6-1.4-0.6c-0.5,0-0.9,0.2-1.2,0.6
			c-0.3,0.4-0.4,1-0.4,1.8s0.1,1.4,0.4,1.8S275.2,268.6,275.8,268.6z"/>
		<path class="st4" d="M281,260.8c0-0.3,0.1-0.5,0.2-0.6s0.4-0.2,0.6-0.2c0.3,0,0.5,0.1,0.6,0.2s0.2,0.3,0.2,0.6
			c0,0.3-0.1,0.5-0.2,0.6s-0.4,0.2-0.6,0.2c-0.3,0-0.5-0.1-0.6-0.2S281,261.1,281,260.8z M282.6,269.7h-1.5v-7h1.5V269.7z"/>
		<path class="st4" d="M287.3,268.6c0.4,0,0.7-0.1,1.1-0.2v1.1c-0.2,0.1-0.4,0.1-0.6,0.2c-0.3,0-0.5,0.1-0.8,0.1
			c-1.4,0-2.1-0.7-2.1-2.2v-3.8h-1v-0.7l1-0.5l0.5-1.5h0.9v1.6h2v1.1h-2v3.8c0,0.4,0.1,0.6,0.3,0.8
			C286.8,268.5,287.1,268.6,287.3,268.6z"/>
		<path class="st4" d="M288.8,262.7h1.6l1.4,4c0.2,0.6,0.4,1.1,0.4,1.6h0.1c0-0.2,0.1-0.5,0.2-0.8s0.6-1.9,1.6-4.7h1.6l-3,7.9
			c-0.5,1.5-1.5,2.2-2.7,2.2c-0.3,0-0.7,0-1-0.1v-1.2c0.2,0.1,0.5,0.1,0.8,0.1c0.7,0,1.2-0.4,1.5-1.2l0.3-0.7L288.8,262.7z"/>
		<path class="st4" d="M305.7,267.2c0,0.8-0.3,1.5-0.9,1.9c-0.6,0.5-1.4,0.7-2.5,0.7c-1,0-1.9-0.2-2.6-0.5v-1.4
			c0.4,0.2,0.9,0.4,1.3,0.5c0.5,0.1,0.9,0.2,1.3,0.2c0.6,0,1-0.1,1.3-0.3c0.3-0.2,0.4-0.5,0.4-0.9c0-0.3-0.1-0.6-0.4-0.9
			c-0.3-0.2-0.8-0.5-1.6-0.9c-0.8-0.3-1.4-0.7-1.8-1.2c-0.3-0.4-0.5-1-0.5-1.6c0-0.8,0.3-1.4,0.8-1.8s1.3-0.7,2.2-0.7
			c0.9,0,1.8,0.2,2.7,0.6l-0.5,1.2c-0.8-0.3-1.6-0.5-2.2-0.5c-0.5,0-0.9,0.1-1.1,0.3c-0.3,0.2-0.4,0.5-0.4,0.8
			c0,0.2,0.1,0.4,0.2,0.6s0.3,0.3,0.5,0.5s0.7,0.4,1.3,0.6c0.7,0.3,1.2,0.5,1.5,0.8c0.3,0.2,0.5,0.5,0.7,0.8
			C305.6,266.4,305.7,266.8,305.7,267.2z"/>
		<path class="st4" d="M310.1,269.8c-1.1,0-1.9-0.3-2.4-0.9c-0.6-0.6-0.8-1.5-0.8-2.7s0.3-2.1,0.9-2.7s1.4-1,2.5-1
			c0.7,0,1.4,0.1,2,0.4l-0.4,1.2c-0.6-0.2-1.1-0.4-1.6-0.4c-1.2,0-1.8,0.8-1.8,2.4c0,0.8,0.2,1.4,0.5,1.8s0.7,0.6,1.3,0.6
			c0.7,0,1.3-0.2,1.9-0.5v1.3c-0.3,0.2-0.6,0.3-0.9,0.3C310.9,269.8,310.6,269.8,310.1,269.8z"/>
		<path class="st4" d="M317.3,262.6c0.3,0,0.5,0,0.7,0.1l-0.1,1.4c-0.2-0.1-0.4-0.1-0.7-0.1c-0.6,0-1.1,0.2-1.4,0.6
			c-0.4,0.4-0.6,0.9-0.6,1.5v3.7h-1.5v-7h1.2l0.2,1.2h0.1c0.2-0.4,0.5-0.8,0.9-1C316.5,262.7,316.9,262.6,317.3,262.6z"/>
		<path class="st4" d="M322.4,269.8c-1.1,0-1.9-0.3-2.6-1c-0.6-0.6-0.9-1.5-0.9-2.6s0.3-2,0.9-2.7s1.4-1,2.4-1
			c0.9,0,1.7,0.3,2.2,0.8s0.8,1.3,0.8,2.3v0.8h-4.7c0,0.7,0.2,1.2,0.6,1.6c0.3,0.4,0.8,0.5,1.5,0.5c0.4,0,0.8,0,1.2-0.1
			c0.4-0.1,0.7-0.2,1.2-0.4v1.2c-0.4,0.2-0.7,0.3-1.1,0.4C323.3,269.8,322.9,269.8,322.4,269.8z M322.1,263.7
			c-0.5,0-0.9,0.2-1.1,0.5c-0.3,0.3-0.5,0.7-0.5,1.3h3.2c0-0.6-0.1-1-0.4-1.3C323,263.8,322.6,263.7,322.1,263.7z"/>
		<path class="st4" d="M329.9,269.8c-1.1,0-1.9-0.3-2.6-1c-0.6-0.6-0.9-1.5-0.9-2.6s0.3-2,0.9-2.7s1.4-1,2.4-1
			c0.9,0,1.7,0.3,2.2,0.8s0.8,1.3,0.8,2.3v0.8H328c0,0.7,0.2,1.2,0.6,1.6c0.3,0.4,0.8,0.5,1.5,0.5c0.4,0,0.8,0,1.2-0.1
			c0.4-0.1,0.7-0.2,1.2-0.4v1.2c-0.4,0.2-0.7,0.3-1.1,0.4C330.8,269.8,330.4,269.8,329.9,269.8z M329.6,263.7
			c-0.5,0-0.9,0.2-1.1,0.5c-0.3,0.3-0.5,0.7-0.5,1.3h3.2c0-0.6-0.1-1-0.4-1.3C330.5,263.8,330.1,263.7,329.6,263.7z"/>
		<path class="st4" d="M340.5,269.7H339v-4.3c0-0.5-0.1-0.9-0.3-1.2c-0.2-0.3-0.6-0.4-1-0.4c-0.6,0-1.1,0.2-1.4,0.6s-0.4,1-0.4,1.9
			v3.5h-1.5v-7h1.2l0.2,0.9h0.1c0.2-0.3,0.5-0.6,0.9-0.8c0.4-0.2,0.8-0.3,1.3-0.3c1.7,0,2.5,0.9,2.5,2.6v4.5H340.5z"/>
		<path class="st4" d="M347.3,267.7c0,0.7-0.2,1.2-0.7,1.6s-1.2,0.5-2.1,0.5s-1.7-0.1-2.3-0.4v-1.3c0.8,0.4,1.6,0.6,2.3,0.6
			c0.9,0,1.4-0.3,1.4-0.8c0-0.2-0.1-0.3-0.2-0.4s-0.3-0.2-0.5-0.4c-0.2-0.1-0.6-0.3-1-0.4c-0.8-0.3-1.4-0.6-1.6-0.9
			c-0.3-0.3-0.4-0.7-0.4-1.2c0-0.6,0.2-1.1,0.7-1.4s1.1-0.5,2-0.5c0.8,0,1.6,0.2,2.3,0.5l-0.5,1.1c-0.8-0.3-1.4-0.5-1.9-0.5
			c-0.8,0-1.2,0.2-1.2,0.7c0,0.2,0.1,0.4,0.3,0.6c0.2,0.2,0.7,0.4,1.3,0.6c0.6,0.2,1,0.4,1.3,0.6s0.5,0.4,0.6,0.6
			C347.2,267.1,347.3,267.4,347.3,267.7z"/>
	</g>
</g>
<g>
	<line class="st5" x1="373.8" y1="265" x2="646.8" y2="265"/>
</g>
<g>
	<circle class="st6" cx="108.2" cy="265" r="58.3"/>
	<polygon class="st6" points="204.1,265 185.5,258.2 185.5,271.8 	"/>
	<g>
		<path class="st6" d="M191.7,266.5h-16.1c-0.8,0-1.5-0.7-1.5-1.5s0.7-1.5,1.5-1.5h16.1c0.8,0,1.5,0.7,1.5,1.5
			S192.5,266.5,191.7,266.5z"/>
	</g>
	<g class="st1">
		<path class="st4" d="M97.8,257.4c0,1.1-0.4,2-1.2,2.6c-0.8,0.6-1.9,0.9-3.3,0.9s-2.5-0.2-3.4-0.7v-1.9c0.6,0.3,1.2,0.5,1.8,0.6
			c0.6,0.2,1.2,0.2,1.8,0.2c0.8,0,1.4-0.2,1.8-0.5s0.6-0.7,0.6-1.2s-0.2-0.9-0.5-1.2c-0.3-0.3-1.1-0.7-2.2-1.1
			c-1.1-0.5-1.9-1-2.4-1.6s-0.7-1.3-0.7-2.1c0-1,0.4-1.8,1.1-2.4c0.7-0.6,1.7-0.9,3-0.9c1.2,0,2.4,0.3,3.5,0.8l-0.6,1.6
			c-1.1-0.5-2.1-0.7-2.9-0.7c-0.7,0-1.2,0.1-1.5,0.4c-0.3,0.3-0.5,0.7-0.5,1.1c0,0.3,0.1,0.6,0.2,0.8s0.4,0.4,0.7,0.6
			c0.3,0.2,0.9,0.5,1.7,0.8c0.9,0.4,1.6,0.7,2,1.1c0.4,0.3,0.7,0.7,0.9,1.1C97.7,256.4,97.8,256.9,97.8,257.4z"/>
		<path class="st4" d="M99.4,257.5c0-0.7,0.2-1.4,0.5-1.9c0.4-0.5,1-1.1,2-1.6c-0.5-0.6-0.9-1.2-1.1-1.6c-0.2-0.4-0.3-0.9-0.3-1.3
			c0-0.9,0.3-1.5,0.9-2s1.4-0.7,2.5-0.7c1,0,1.8,0.2,2.4,0.7s0.9,1.1,0.9,1.9c0,0.6-0.2,1.2-0.6,1.7s-1,1-1.9,1.6l2.9,2.8
			c0.5-0.6,0.8-1.5,1.1-2.7h2c-0.4,1.6-1,2.9-1.9,3.9l2.5,2.5h-2.6l-1.3-1.2c-0.6,0.5-1.2,0.8-1.8,1c-0.7,0.2-1.4,0.4-2.2,0.4
			c-1.3,0-2.3-0.3-3.1-0.9C99.7,259.4,99.4,258.6,99.4,257.5z M103.6,259.3c1,0,1.9-0.3,2.6-0.9l-3.2-3.2c-0.6,0.4-1,0.7-1.2,1.1
			c-0.2,0.3-0.3,0.7-0.3,1.1c0,0.6,0.2,1,0.6,1.3C102.4,259.1,103,259.3,103.6,259.3z M102.4,251.1c0,0.4,0.1,0.7,0.3,1
			c0.2,0.3,0.5,0.7,0.8,1c0.6-0.4,1.1-0.7,1.3-1c0.3-0.3,0.4-0.7,0.4-1.1c0-0.4-0.1-0.7-0.4-0.9c-0.2-0.2-0.6-0.3-1-0.3
			s-0.8,0.1-1.1,0.3C102.5,250.4,102.4,250.7,102.4,251.1z"/>
		<path class="st4" d="M121.2,252.2c0,1.3-0.4,2.3-1.3,3c-0.8,0.7-2,1-3.6,1H115v4.6h-2v-12.4h3.6c1.5,0,2.7,0.3,3.5,0.9
			C120.8,250,121.2,250.9,121.2,252.2z M115,254.5h1.1c1,0,1.8-0.2,2.3-0.5c0.5-0.4,0.7-0.9,0.7-1.7c0-0.7-0.2-1.2-0.7-1.6
			c-0.4-0.3-1.1-0.5-2-0.5H115V254.5z"/>
	</g>
	<g class="st1">
		<path class="st4" d="M87.9,281.6h-7v-12.4h7v1.7h-5v3.4h4.7v1.7h-4.7v3.9h5V281.6z"/>
		<path class="st4" d="M92.4,276.8l-3.1-4.6h2.3l2.1,3.3l2.1-3.3H98l-3.1,4.6l3.3,4.8H96l-2.3-3.5l-2.3,3.5h-2.2L92.4,276.8z"/>
		<path class="st4" d="M99,277.8v-1.7h4.3v1.7H99z"/>
		<path class="st4" d="M115.3,269.2v8c0,0.9-0.2,1.7-0.6,2.4c-0.4,0.7-1,1.2-1.7,1.6s-1.6,0.6-2.7,0.6c-1.5,0-2.7-0.4-3.6-1.2
			c-0.9-0.8-1.3-1.9-1.3-3.3v-8h2v7.8c0,1,0.2,1.8,0.7,2.3s1.2,0.7,2.2,0.7c1.9,0,2.9-1,2.9-3v-7.8h2.1V269.2z"/>
		<path class="st4" d="M127.9,281.6h-2.3l-3.9-5.6l-1.2,1v4.6h-2v-12.4h2v5.9c0.6-0.7,1.1-1.3,1.6-2l3.3-3.9h2.3
			c-2.2,2.5-3.7,4.3-4.6,5.4L127.9,281.6z"/>
	</g>
	<g class="st1">
		<path class="st4" d="M128.4,272.2c0-0.7,0.2-1.3,0.5-1.8c0.3-0.6,0.8-1,1.4-1.4c0.6-0.3,1.2-0.5,1.9-0.5s1.3,0.2,1.8,0.5
			c0.6,0.3,1,0.8,1.4,1.4c0.3,0.6,0.5,1.2,0.5,1.9c0,0.6-0.2,1.3-0.5,1.8s-0.8,1-1.3,1.4c-0.6,0.3-1.2,0.5-1.9,0.5s-1.3-0.2-1.9-0.5
			c-0.6-0.3-1-0.8-1.3-1.4C128.6,273.5,128.4,272.9,128.4,272.2z M129,272.2c0,0.6,0.1,1.1,0.4,1.6c0.3,0.5,0.7,0.9,1.1,1.1
			c0.5,0.3,1,0.4,1.5,0.4c0.6,0,1.1-0.1,1.6-0.4s0.9-0.7,1.1-1.1c0.3-0.5,0.4-1,0.4-1.5c0-0.6-0.1-1.1-0.4-1.6
			c-0.3-0.5-0.7-0.9-1.1-1.1c-0.5-0.3-1-0.4-1.5-0.4c-0.6,0-1.1,0.1-1.5,0.4c-0.5,0.3-0.9,0.6-1.1,1.1
			C129.2,271.1,129,271.6,129,272.2z M133.6,271.3c0,0.6-0.3,0.9-0.8,1.1l1.2,2h-1l-0.9-1.7h-0.4v1.7h-0.9V270h1.3
			c0.6,0,1,0.1,1.3,0.3C133.5,270.5,133.6,270.9,133.6,271.3z M131.6,272h0.3c0.2,0,0.4-0.1,0.6-0.2c0.1-0.1,0.2-0.3,0.2-0.5
			s-0.1-0.4-0.2-0.5c-0.1-0.1-0.3-0.1-0.6-0.1h-0.3V272z"/>
	</g>
</g>
<path class="st7" d="M828.6,238.7H658.8c-14.6,0-26.3,11.8-26.3,26.3l0,0c0,14.6,11.8,26.3,26.3,26.3h169.8
	c14.6,0,26.3-11.8,26.3-26.3l0,0C855,250.4,843.2,238.7,828.6,238.7z"/>
<g class="st1">
	<path class="st6" d="M660.4,259.7h-1.9l-4.6-7.4h0.1v0.4c0.1,0.8,0.1,1.5,0.1,2.2v4.8h-1.4v-9.3h1.8l4.5,7.3l0,0
		c0-0.1,0-0.5-0.1-1.1c0-0.6,0-1.1,0-1.4v-4.9h1.4v9.4H660.4z"/>
	<path class="st6" d="M665.8,259.8c-1.1,0-1.9-0.3-2.6-1c-0.6-0.6-0.9-1.5-0.9-2.6s0.3-2,0.9-2.7c0.6-0.7,1.4-1,2.4-1
		c0.9,0,1.7,0.3,2.2,0.8c0.5,0.6,0.8,1.3,0.8,2.3v0.8h-4.7c0,0.7,0.2,1.2,0.6,1.6c0.3,0.4,0.8,0.5,1.5,0.5c0.4,0,0.8,0,1.2-0.1
		s0.7-0.2,1.2-0.4v1.2c-0.4,0.2-0.7,0.3-1.1,0.4C666.7,259.8,666.3,259.8,665.8,259.8z M665.5,253.7c-0.5,0-0.9,0.2-1.1,0.5
		c-0.3,0.3-0.5,0.7-0.5,1.3h3.2c0-0.6-0.1-1-0.4-1.3C666.4,253.8,666,253.7,665.5,253.7z"/>
	<path class="st6" d="M676,259.7l-0.9-3.3c-0.1-0.3-0.3-1.2-0.6-2.4h-0.1c-0.2,1.1-0.4,2-0.6,2.4l-0.9,3.3h-1.6l-2-7h1.5l0.9,3.5
		c0.2,0.9,0.3,1.6,0.4,2.2l0,0c0-0.3,0.1-0.7,0.2-1.1c0.1-0.4,0.2-0.7,0.2-0.9l1.1-3.7h1.6l1,3.7c0.1,0.2,0.1,0.5,0.2,1
		c0.1,0.4,0.2,0.8,0.2,1h0.1c0.1-0.5,0.2-1.2,0.4-2.2l0.9-3.5h1.5l-2,7H676z"/>
	<path class="st6" d="M690.1,259.7l-0.9-2.6h-3.5l-0.9,2.6h-1.6l3.5-9.3h1.6l3.5,9.3H690.1z M688.8,255.8l-0.9-2.5
		c-0.1-0.2-0.2-0.4-0.3-0.8c-0.1-0.4-0.2-0.6-0.2-0.8c-0.1,0.5-0.3,1.1-0.5,1.7l-0.8,2.4L688.8,255.8L688.8,255.8z"/>
	<path class="st6" d="M698.7,252.7v0.8l-1.2,0.2c0.1,0.1,0.2,0.3,0.3,0.5s0.1,0.4,0.1,0.7c0,0.7-0.2,1.3-0.7,1.7
		c-0.5,0.4-1.2,0.6-2.1,0.6c-0.2,0-0.4,0-0.6-0.1c-0.3,0.2-0.5,0.4-0.5,0.7c0,0.2,0.1,0.3,0.2,0.4s0.4,0.1,0.8,0.1h1.2
		c0.8,0,1.4,0.2,1.8,0.5c0.4,0.3,0.6,0.8,0.6,1.4c0,0.8-0.3,1.4-1,1.8s-1.6,0.6-2.8,0.6c-1,0-1.7-0.2-2.2-0.5s-0.8-0.8-0.8-1.4
		c0-0.4,0.1-0.8,0.4-1.1c0.3-0.3,0.7-0.5,1.1-0.6c-0.2-0.1-0.4-0.2-0.5-0.4c-0.1-0.2-0.2-0.4-0.2-0.6c0-0.3,0.1-0.5,0.2-0.7
		c0.1-0.2,0.4-0.4,0.7-0.5c-0.4-0.2-0.7-0.4-0.9-0.8c-0.2-0.4-0.3-0.8-0.3-1.2c0-0.8,0.2-1.4,0.7-1.8c0.5-0.4,1.2-0.6,2.1-0.6
		c0.2,0,0.4,0,0.6,0c0.2,0,0.4,0.1,0.5,0.1h2.5V252.7z M693.2,260.8c0,0.3,0.1,0.6,0.4,0.7c0.3,0.2,0.7,0.3,1.2,0.3
		c0.8,0,1.4-0.1,1.8-0.3c0.4-0.2,0.6-0.5,0.6-0.9c0-0.3-0.1-0.5-0.3-0.6s-0.6-0.2-1.2-0.2h-1.1c-0.4,0-0.8,0.1-1,0.3
		C693.3,260.2,693.2,260.5,693.2,260.8z M693.8,255c0,0.4,0.1,0.8,0.3,1c0.2,0.2,0.6,0.4,1,0.4c0.9,0,1.3-0.5,1.3-1.4
		c0-0.5-0.1-0.8-0.3-1.1c-0.2-0.2-0.5-0.4-1-0.4c-0.4,0-0.8,0.1-1,0.4C694,254.1,693.8,254.5,693.8,255z"/>
	<path class="st6" d="M703.1,259.8c-1.1,0-1.9-0.3-2.6-1c-0.6-0.6-0.9-1.5-0.9-2.6s0.3-2,0.9-2.7c0.6-0.7,1.4-1,2.4-1
		c0.9,0,1.7,0.3,2.2,0.8c0.5,0.6,0.8,1.3,0.8,2.3v0.8h-4.7c0,0.7,0.2,1.2,0.6,1.6c0.3,0.4,0.8,0.5,1.5,0.5c0.4,0,0.8,0,1.2-0.1
		s0.7-0.2,1.2-0.4v1.2c-0.4,0.2-0.7,0.3-1.1,0.4C704,259.8,703.6,259.8,703.1,259.8z M702.8,253.7c-0.5,0-0.9,0.2-1.1,0.5
		c-0.3,0.3-0.5,0.7-0.5,1.3h3.2c0-0.6-0.1-1-0.4-1.3C703.6,253.8,703.3,253.7,702.8,253.7z"/>
	<path class="st6" d="M716.8,259.7l-0.9-2.6h-3.5l-0.9,2.6h-1.6l3.5-9.3h1.6l3.5,9.3H716.8z M715.5,255.8l-0.9-2.5
		c-0.1-0.2-0.2-0.4-0.3-0.8c-0.1-0.4-0.2-0.6-0.2-0.8c-0.1,0.5-0.3,1.1-0.5,1.7l-0.8,2.4L715.5,255.8L715.5,255.8z"/>
	<path class="st6" d="M720.9,259.7h-1.5v-9.9h1.5V259.7z"/>
	<path class="st6" d="M726.6,259.8c-0.9,0-1.6-0.3-2.1-1h-0.1c0.1,0.6,0.1,1,0.1,1.1v2.9H723v-10.1h1.2c0,0.1,0.1,0.4,0.2,0.9h0.1
		c0.5-0.7,1.2-1.1,2.1-1.1c0.9,0,1.6,0.3,2,1s0.7,1.5,0.7,2.7c0,1.1-0.2,2-0.7,2.7S727.5,259.8,726.6,259.8z M726.3,253.8
		c-0.6,0-1,0.2-1.3,0.5s-0.4,0.9-0.4,1.7v0.2c0,0.9,0.1,1.5,0.4,1.9c0.3,0.4,0.7,0.6,1.3,0.6c0.5,0,0.9-0.2,1.2-0.6s0.4-1,0.4-1.8
		c0-0.8-0.1-1.4-0.4-1.8C727.2,254,726.8,253.8,726.3,253.8z"/>
	<path class="st6" d="M737.3,259.7h-1.5v-4.3c0-0.5-0.1-0.9-0.3-1.2s-0.6-0.4-1-0.4c-0.6,0-1.1,0.2-1.4,0.6c-0.3,0.4-0.4,1-0.4,1.9
		v3.5h-1.5v-9.9h1.5v2.5c0,0.4,0,0.8-0.1,1.3h0.1c0.2-0.3,0.5-0.6,0.8-0.8c0.4-0.2,0.8-0.3,1.3-0.3c1.7,0,2.5,0.9,2.5,2.6
		L737.3,259.7L737.3,259.7z"/>
	<path class="st6" d="M743.8,259.7l-0.3-1h-0.1c-0.3,0.4-0.7,0.7-1,0.9c-0.3,0.2-0.8,0.2-1.3,0.2c-0.7,0-1.2-0.2-1.6-0.6
		c-0.4-0.4-0.6-0.9-0.6-1.6s0.3-1.3,0.8-1.6c0.5-0.4,1.4-0.6,2.5-0.6h1.2V255c0-0.4-0.1-0.8-0.3-1s-0.5-0.3-1-0.3
		c-0.4,0-0.7,0.1-1,0.2c-0.3,0.1-0.6,0.2-1,0.4l-0.5-1.1c0.4-0.2,0.8-0.4,1.2-0.5c0.5-0.1,0.9-0.2,1.3-0.2c0.9,0,1.6,0.2,2,0.6
		c0.5,0.4,0.7,1,0.7,1.8v4.7h-1V259.7z M741.6,258.7c0.5,0,1-0.2,1.3-0.5s0.5-0.7,0.5-1.3v-0.6h-0.9c-0.7,0-1.2,0.1-1.5,0.4
		c-0.3,0.2-0.5,0.5-0.5,1c0,0.3,0.1,0.6,0.3,0.7S741.2,258.7,741.6,258.7z"/>
	<path class="st6" d="M755.7,259.7h-5.2v-9.3h5.2v1.3H752v2.5h3.5v1.3H752v2.9h3.7V259.7z"/>
	<path class="st6" d="M762.5,259.7l-0.2-0.9h-0.1c-0.2,0.3-0.5,0.6-0.9,0.8c-0.4,0.2-0.8,0.3-1.3,0.3c-0.9,0-1.5-0.2-1.9-0.6
		s-0.6-1.1-0.6-1.9v-4.6h1.5v4.3c0,0.5,0.1,0.9,0.3,1.2c0.2,0.3,0.6,0.4,1,0.4c0.6,0,1.1-0.2,1.4-0.6c0.3-0.4,0.4-1,0.4-1.9v-3.5
		h1.5v7L762.5,259.7L762.5,259.7z"/>
	<path class="st6" d="M769.4,252.6c0.3,0,0.5,0,0.7,0.1L770,254c-0.2-0.1-0.4-0.1-0.7-0.1c-0.6,0-1.1,0.2-1.4,0.6
		c-0.4,0.4-0.6,0.9-0.6,1.5v3.7h-1.5v-7h1.2l0.2,1.2h0.1c0.2-0.4,0.5-0.8,0.9-1C768.5,252.7,768.9,252.6,769.4,252.6z"/>
	<path class="st6" d="M777.6,256.2c0,1.1-0.3,2-0.9,2.7s-1.4,1-2.5,1c-0.7,0-1.2-0.1-1.7-0.4s-0.9-0.7-1.2-1.3
		c-0.3-0.6-0.4-1.2-0.4-1.9c0-1.1,0.3-2,0.9-2.7c0.6-0.6,1.4-1,2.5-1c1,0,1.8,0.3,2.4,1C777.3,254.2,777.6,255.1,777.6,256.2z
		 M772.5,256.2c0,1.6,0.6,2.4,1.8,2.4s1.8-0.8,1.8-2.4s-0.6-2.4-1.8-2.4c-0.6,0-1.1,0.2-1.4,0.6S772.5,255.4,772.5,256.2z"/>
	<path class="st6" d="M782.9,259.8c-0.9,0-1.6-0.3-2.1-1h-0.1c0.1,0.6,0.1,1,0.1,1.1v2.9h-1.5v-10.1h1.2c0,0.1,0.1,0.4,0.2,0.9h0.1
		c0.5-0.7,1.2-1.1,2.1-1.1c0.9,0,1.6,0.3,2,1c0.5,0.6,0.7,1.5,0.7,2.7c0,1.1-0.2,2-0.7,2.7C784.5,259.5,783.8,259.8,782.9,259.8z
		 M782.5,253.8c-0.6,0-1,0.2-1.3,0.5s-0.4,0.9-0.4,1.7v0.2c0,0.9,0.1,1.5,0.4,1.9c0.3,0.4,0.7,0.6,1.3,0.6c0.5,0,0.9-0.2,1.2-0.6
		s0.4-1,0.4-1.8c0-0.8-0.1-1.4-0.4-1.8S783.1,253.8,782.5,253.8z"/>
	<path class="st6" d="M790.5,259.8c-1.1,0-1.9-0.3-2.6-1c-0.6-0.6-0.9-1.5-0.9-2.6s0.3-2,0.9-2.7c0.6-0.7,1.4-1,2.4-1
		c0.9,0,1.7,0.3,2.2,0.8c0.5,0.6,0.8,1.3,0.8,2.3v0.8h-4.7c0,0.7,0.2,1.2,0.6,1.6c0.3,0.4,0.8,0.5,1.5,0.5c0.4,0,0.8,0,1.2-0.1
		s0.7-0.2,1.2-0.4v1.2c-0.4,0.2-0.7,0.3-1.1,0.4C791.4,259.8,791,259.8,790.5,259.8z M790.2,253.7c-0.5,0-0.9,0.2-1.1,0.5
		c-0.3,0.3-0.5,0.7-0.5,1.3h3.2c0-0.6-0.1-1-0.4-1.3C791.1,253.8,790.7,253.7,790.2,253.7z"/>
	<path class="st6" d="M803.7,259.7h-5.2v-9.3h5.2v1.3H800v2.5h3.5v1.3H800v2.9h3.7V259.7z"/>
	<path class="st6" d="M807.1,256.1l-2.4-3.4h1.7l1.6,2.5l1.6-2.5h1.7l-2.4,3.4l2.5,3.6h-1.7l-1.7-2.6l-1.7,2.6h-1.7L807.1,256.1z"/>
	<path class="st6" d="M812.1,256.9v-1.3h3.3v1.3H812.1z"/>
	<path class="st6" d="M824.3,250.4v6c0,0.7-0.1,1.3-0.4,1.8c-0.3,0.5-0.7,0.9-1.3,1.2c-0.6,0.3-1.2,0.4-2,0.4c-1.2,0-2-0.3-2.7-0.9
		c-0.6-0.6-1-1.4-1-2.5v-6h1.5v5.9c0,0.8,0.2,1.3,0.5,1.7c0.4,0.4,0.9,0.5,1.6,0.5c1.4,0,2.1-0.8,2.1-2.3v-5.9L824.3,250.4
		L824.3,250.4z"/>
	<path class="st6" d="M833.7,259.7H832l-2.9-4.2l-0.9,0.7v3.5h-1.5v-9.3h1.5v4.4c0.4-0.5,0.8-1,1.2-1.5l2.5-3h1.7
		c-1.6,1.9-2.8,3.3-3.5,4.1L833.7,259.7z"/>
</g>
<g class="st1">
	<path class="st6" d="M701.8,281.1v-9.3h1.5v8h3.9v1.3H701.8z"/>
	<path class="st6" d="M711.7,281.2c-1.1,0-1.9-0.3-2.6-1c-0.6-0.6-0.9-1.5-0.9-2.6s0.3-2,0.9-2.7c0.6-0.7,1.4-1,2.4-1
		c0.9,0,1.7,0.3,2.2,0.8c0.5,0.6,0.8,1.3,0.8,2.3v0.8h-4.7c0,0.7,0.2,1.2,0.6,1.6c0.3,0.4,0.8,0.5,1.5,0.5c0.4,0,0.8,0,1.2-0.1
		s0.7-0.2,1.2-0.4v1.2c-0.4,0.2-0.7,0.3-1.1,0.4C712.6,281.2,712.2,281.2,711.7,281.2z M711.4,275c-0.5,0-0.9,0.2-1.1,0.5
		c-0.3,0.3-0.5,0.7-0.5,1.3h3.2c0-0.6-0.1-1-0.4-1.3S711.9,275,711.4,275z"/>
	<path class="st6" d="M720.5,281.1l-0.3-1h-0.1c-0.3,0.4-0.7,0.7-1,0.9c-0.3,0.2-0.8,0.2-1.3,0.2c-0.7,0-1.2-0.2-1.6-0.6
		c-0.4-0.4-0.6-0.9-0.6-1.6s0.3-1.3,0.8-1.6c0.5-0.4,1.4-0.6,2.5-0.6h1.2v-0.4c0-0.4-0.1-0.8-0.3-1s-0.5-0.3-1-0.3
		c-0.4,0-0.7,0.1-1,0.2s-0.6,0.2-1,0.4l-0.5-1.1c0.4-0.2,0.8-0.4,1.2-0.5c0.5-0.1,0.9-0.2,1.3-0.2c0.9,0,1.6,0.2,2,0.6
		c0.5,0.4,0.7,1,0.7,1.8v4.7h-1V281.1z M718.3,280c0.5,0,1-0.2,1.3-0.5s0.5-0.7,0.5-1.3v-0.6h-0.9c-0.7,0-1.2,0.1-1.5,0.4
		c-0.3,0.2-0.5,0.5-0.5,1c0,0.3,0.1,0.6,0.3,0.7C717.6,280,717.9,280,718.3,280z"/>
	<path class="st6" d="M726,281.2c-0.9,0-1.6-0.3-2-1c-0.5-0.6-0.7-1.5-0.7-2.7c0-1.1,0.2-2,0.7-2.7c0.5-0.6,1.2-1,2.1-1
		c0.9,0,1.6,0.3,2.1,1h0.1c-0.1-0.5-0.1-0.9-0.1-1.2V271h1.5v9.9h-1.2l-0.3-0.9h-0.1C727.6,280.8,726.9,281.2,726,281.2z M726.4,280
		c0.6,0,1.1-0.2,1.3-0.5c0.3-0.3,0.4-0.9,0.4-1.7v-0.2c0-0.9-0.1-1.5-0.4-1.9c-0.3-0.4-0.7-0.6-1.4-0.6c-0.5,0-0.9,0.2-1.2,0.6
		s-0.4,1-0.4,1.8s0.1,1.4,0.4,1.8S725.9,280,726.4,280z"/>
	<path class="st6" d="M731.7,272.2c0-0.3,0.1-0.5,0.2-0.6c0.1-0.1,0.4-0.2,0.6-0.2c0.3,0,0.5,0.1,0.6,0.2s0.2,0.3,0.2,0.6
		c0,0.3-0.1,0.5-0.2,0.6c-0.1,0.1-0.3,0.2-0.6,0.2s-0.5-0.1-0.6-0.2C731.7,272.6,731.7,272.4,731.7,272.2z M733.2,281.1h-1.5v-7h1.5
		V281.1z"/>
	<path class="st6" d="M741.5,281.1H740v-4.3c0-0.5-0.1-0.9-0.3-1.2c-0.2-0.3-0.6-0.4-1-0.4c-0.6,0-1.1,0.2-1.4,0.6
		c-0.3,0.4-0.4,1-0.4,1.9v3.5h-1.5v-7h1.2l0.2,0.9h0.1c0.2-0.3,0.5-0.6,0.9-0.8c0.4-0.2,0.8-0.3,1.3-0.3c1.7,0,2.5,0.9,2.5,2.6
		L741.5,281.1L741.5,281.1z"/>
	<path class="st6" d="M749.5,274v0.8l-1.2,0.2c0.1,0.1,0.2,0.3,0.3,0.5s0.1,0.4,0.1,0.7c0,0.7-0.2,1.3-0.7,1.7
		c-0.5,0.4-1.2,0.6-2.1,0.6c-0.2,0-0.4,0-0.6-0.1c-0.3,0.2-0.5,0.4-0.5,0.7c0,0.2,0.1,0.3,0.2,0.4c0.1,0.1,0.4,0.1,0.8,0.1h1.2
		c0.8,0,1.4,0.2,1.8,0.5c0.4,0.3,0.6,0.8,0.6,1.4c0,0.8-0.3,1.4-1,1.8s-1.6,0.6-2.8,0.6c-1,0-1.7-0.2-2.2-0.5s-0.8-0.8-0.8-1.4
		c0-0.4,0.1-0.8,0.4-1.1c0.3-0.3,0.7-0.5,1.1-0.6c-0.2-0.1-0.4-0.2-0.5-0.4c-0.1-0.2-0.2-0.4-0.2-0.6c0-0.3,0.1-0.5,0.2-0.7
		c0.1-0.2,0.4-0.4,0.7-0.5c-0.4-0.2-0.7-0.4-0.9-0.8s-0.3-0.8-0.3-1.2c0-0.8,0.2-1.4,0.7-1.8s1.2-0.6,2.1-0.6c0.2,0,0.4,0,0.6,0
		c0.2,0,0.4,0.1,0.5,0.1h2.5V274z M744,282.1c0,0.3,0.1,0.6,0.4,0.7c0.3,0.2,0.7,0.3,1.2,0.3c0.8,0,1.4-0.1,1.8-0.3
		c0.4-0.2,0.6-0.5,0.6-0.9c0-0.3-0.1-0.5-0.3-0.6s-0.6-0.2-1.2-0.2h-1.1c-0.4,0-0.8,0.1-1,0.3C744.2,281.5,744,281.8,744,282.1z
		 M744.7,276.3c0,0.4,0.1,0.8,0.3,1s0.6,0.4,1,0.4c0.9,0,1.3-0.5,1.3-1.4c0-0.5-0.1-0.8-0.3-1.1c-0.2-0.2-0.5-0.4-1-0.4
		c-0.4,0-0.8,0.1-1,0.4C744.8,275.5,744.7,275.8,744.7,276.3z"/>
	<path class="st6" d="M754.4,281.1v-9.3h1.5v9.3H754.4z"/>
	<path class="st6" d="M764.3,281.1h-1.5v-4.3c0-0.5-0.1-0.9-0.3-1.2c-0.2-0.3-0.6-0.4-1-0.4c-0.6,0-1.1,0.2-1.4,0.6
		c-0.3,0.4-0.4,1-0.4,1.9v3.5h-1.5v-7h1.2l0.2,0.9h0.1c0.2-0.3,0.5-0.6,0.9-0.8c0.4-0.2,0.8-0.3,1.3-0.3c1.7,0,2.5,0.9,2.5,2.6
		L764.3,281.1L764.3,281.1z"/>
	<path class="st6" d="M768.8,281.2c-0.9,0-1.6-0.3-2-1c-0.5-0.6-0.7-1.5-0.7-2.7c0-1.1,0.2-2,0.7-2.7c0.5-0.6,1.2-1,2.1-1
		c0.9,0,1.6,0.3,2.1,1h0.1c-0.1-0.5-0.1-0.9-0.1-1.2V271h1.5v9.9h-1.2L771,280h-0.1C770.4,280.8,769.7,281.2,768.8,281.2z
		 M769.2,280c0.6,0,1.1-0.2,1.3-0.5c0.3-0.3,0.4-0.9,0.4-1.7v-0.2c0-0.9-0.1-1.5-0.4-1.9c-0.3-0.4-0.7-0.6-1.4-0.6
		c-0.5,0-0.9,0.2-1.2,0.6s-0.4,1-0.4,1.8s0.1,1.4,0.4,1.8S768.6,280,769.2,280z"/>
	<path class="st6" d="M777.6,281.2c-1.1,0-1.9-0.3-2.6-1c-0.6-0.6-0.9-1.5-0.9-2.6s0.3-2,0.9-2.7c0.6-0.7,1.4-1,2.4-1
		c0.9,0,1.7,0.3,2.2,0.8c0.5,0.6,0.8,1.3,0.8,2.3v0.8h-4.7c0,0.7,0.2,1.2,0.6,1.6c0.3,0.4,0.8,0.5,1.5,0.5c0.4,0,0.8,0,1.2-0.1
		s0.7-0.2,1.2-0.4v1.2c-0.4,0.2-0.7,0.3-1.1,0.4C778.5,281.2,778,281.2,777.6,281.2z M777.3,275c-0.5,0-0.9,0.2-1.1,0.5
		c-0.3,0.3-0.5,0.7-0.5,1.3h3.2c0-0.6-0.1-1-0.4-1.3C778.1,275.2,777.8,275,777.3,275z"/>
	<path class="st6" d="M783.6,277.5l-2.4-3.4h1.7l1.6,2.5l1.6-2.5h1.7l-2.4,3.4l2.5,3.6h-1.7l-1.7-2.6l-1.7,2.6h-1.7L783.6,277.5z"/>
</g>
<rect y="-231.4" class="st2" width="50" height="52.8"/>
<rect x="855" y="-231.4" class="st2" width="50" height="52.8"/>
<g>
	<path class="st2" d="M190.2,309.7c0-0.5,0.1-0.9,0.4-1.1s0.6-0.4,1-0.4c0.4,0,0.8,0.1,1,0.4c0.2,0.3,0.4,0.6,0.4,1.1
		c0,0.5-0.1,0.9-0.4,1.1c-0.2,0.3-0.6,0.4-1,0.4c-0.4,0-0.8-0.1-1-0.4C190.3,310.6,190.2,310.2,190.2,309.7z"/>
	<path class="st2" d="M197.1,313.8v-7.9h1.3v7.9H197.1z"/>
	<path class="st2" d="M205.3,313.8h-1.3v-3.7c0-0.5-0.1-0.8-0.3-1c-0.2-0.2-0.5-0.3-0.9-0.3c-0.5,0-0.9,0.2-1.2,0.5
		s-0.4,0.8-0.4,1.6v3h-1.2v-5.9h1l0.2,0.8h0.1c0.2-0.3,0.4-0.5,0.8-0.7c0.3-0.2,0.7-0.2,1.1-0.2c1.4,0,2.1,0.7,2.1,2.2V313.8z"/>
	<path class="st2" d="M208.9,313.9c-0.7,0-1.3-0.3-1.7-0.8s-0.6-1.3-0.6-2.3c0-1,0.2-1.7,0.6-2.3c0.4-0.5,1-0.8,1.7-0.8
		c0.8,0,1.4,0.3,1.8,0.9h0.1c-0.1-0.4-0.1-0.8-0.1-1v-2.2h1.3v8.4h-1l-0.2-0.8h-0.1C210.3,313.6,209.7,313.9,208.9,313.9z
		 M209.2,312.8c0.5,0,0.9-0.1,1.1-0.4c0.2-0.3,0.4-0.8,0.4-1.4v-0.2c0-0.7-0.1-1.3-0.4-1.6c-0.2-0.3-0.6-0.5-1.1-0.5
		c-0.4,0-0.8,0.2-1,0.5c-0.2,0.4-0.4,0.9-0.4,1.5c0,0.7,0.1,1.2,0.3,1.5S208.8,312.8,209.2,312.8z"/>
	<path class="st2" d="M213.5,306.2c0-0.2,0.1-0.4,0.2-0.5c0.1-0.1,0.3-0.2,0.5-0.2c0.2,0,0.4,0.1,0.5,0.2c0.1,0.1,0.2,0.3,0.2,0.5
		c0,0.2-0.1,0.4-0.2,0.5c-0.1,0.1-0.3,0.2-0.5,0.2c-0.2,0-0.4-0.1-0.5-0.2C213.5,306.6,213.5,306.5,213.5,306.2z M214.8,313.8h-1.2
		v-5.9h1.2V313.8z"/>
	<path class="st2" d="M217.8,313.8l-2.2-5.9h1.3l1.2,3.5c0.2,0.6,0.3,1,0.4,1.4h0c0-0.3,0.2-0.7,0.4-1.4l1.2-3.5h1.3l-2.2,5.9H217.8
		z"/>
	<path class="st2" d="M222,306.2c0-0.2,0.1-0.4,0.2-0.5c0.1-0.1,0.3-0.2,0.5-0.2c0.2,0,0.4,0.1,0.5,0.2c0.1,0.1,0.2,0.3,0.2,0.5
		c0,0.2-0.1,0.4-0.2,0.5c-0.1,0.1-0.3,0.2-0.5,0.2c-0.2,0-0.4-0.1-0.5-0.2C222.1,306.6,222,306.5,222,306.2z M223.4,313.8h-1.2v-5.9
		h1.2V313.8z"/>
	<path class="st2" d="M227,313.9c-0.7,0-1.3-0.3-1.7-0.8s-0.6-1.3-0.6-2.3c0-1,0.2-1.7,0.6-2.3c0.4-0.5,1-0.8,1.7-0.8
		c0.8,0,1.4,0.3,1.8,0.9h0.1c-0.1-0.4-0.1-0.8-0.1-1v-2.2h1.3v8.4h-1l-0.2-0.8h-0.1C228.3,313.6,227.8,313.9,227,313.9z
		 M227.3,312.8c0.5,0,0.9-0.1,1.1-0.4c0.2-0.3,0.4-0.8,0.4-1.4v-0.2c0-0.7-0.1-1.3-0.4-1.6c-0.2-0.3-0.6-0.5-1.1-0.5
		c-0.4,0-0.8,0.2-1,0.5c-0.2,0.4-0.4,0.9-0.4,1.5c0,0.7,0.1,1.2,0.3,1.5S226.9,312.8,227.3,312.8z"/>
	<path class="st2" d="M235.8,313.8l-0.2-0.8h-0.1c-0.2,0.3-0.4,0.5-0.7,0.7c-0.3,0.2-0.7,0.2-1.1,0.2c-0.7,0-1.2-0.2-1.6-0.5
		c-0.4-0.4-0.5-0.9-0.5-1.6v-3.9h1.3v3.7c0,0.5,0.1,0.8,0.3,1c0.2,0.2,0.5,0.3,0.9,0.3c0.5,0,0.9-0.2,1.2-0.5
		c0.2-0.3,0.4-0.8,0.4-1.6v-3h1.3v5.9H235.8z"/>
	<path class="st2" d="M242.1,313.8l-0.2-0.8h0c-0.3,0.4-0.6,0.6-0.9,0.7s-0.7,0.2-1.1,0.2c-0.6,0-1-0.2-1.4-0.5
		c-0.3-0.3-0.5-0.8-0.5-1.3c0-0.6,0.2-1.1,0.7-1.4c0.5-0.3,1.1-0.5,2.1-0.5l1,0v-0.3c0-0.4-0.1-0.7-0.3-0.9
		c-0.2-0.2-0.4-0.3-0.8-0.3c-0.3,0-0.6,0-0.9,0.1c-0.3,0.1-0.5,0.2-0.8,0.3l-0.4-0.9c0.3-0.2,0.7-0.3,1-0.4s0.7-0.1,1.1-0.1
		c0.7,0,1.3,0.2,1.7,0.5c0.4,0.3,0.6,0.8,0.6,1.6v4H242.1z M240.2,312.9c0.5,0,0.8-0.1,1.1-0.4c0.3-0.3,0.4-0.6,0.4-1.1v-0.5l-0.8,0
		c-0.6,0-1,0.1-1.3,0.3c-0.3,0.2-0.4,0.4-0.4,0.8c0,0.3,0.1,0.5,0.2,0.6C239.7,312.8,239.9,312.9,240.2,312.9z"/>
	<path class="st2" d="M245.8,313.8h-1.2v-8.4h1.2V313.8z"/>
	<path class="st2" d="M254.1,312.1c0,0.6-0.2,1-0.6,1.3c-0.4,0.3-1,0.5-1.8,0.5c-0.8,0-1.4-0.1-1.9-0.4v-1.1
		c0.7,0.3,1.3,0.5,1.9,0.5c0.8,0,1.2-0.2,1.2-0.7c0-0.2,0-0.3-0.1-0.4c-0.1-0.1-0.2-0.2-0.4-0.3c-0.2-0.1-0.5-0.2-0.8-0.4
		c-0.7-0.3-1.1-0.5-1.4-0.8c-0.2-0.3-0.4-0.6-0.4-1c0-0.5,0.2-0.9,0.6-1.2s1-0.4,1.7-0.4c0.7,0,1.3,0.1,2,0.4l-0.4,1
		c-0.6-0.3-1.2-0.4-1.6-0.4c-0.7,0-1,0.2-1,0.6c0,0.2,0.1,0.3,0.3,0.5s0.5,0.3,1.1,0.5c0.5,0.2,0.8,0.4,1.1,0.5s0.4,0.3,0.5,0.5
		S254.1,311.8,254.1,312.1z"/>
	<path class="st2" d="M257.5,312.8c0.3,0,0.6,0,0.9-0.1v1c-0.1,0.1-0.3,0.1-0.5,0.2c-0.2,0-0.4,0.1-0.7,0.1c-1.2,0-1.8-0.6-1.8-1.9
		v-3.2h-0.8v-0.6l0.9-0.5l0.4-1.3h0.8v1.3h1.7v1h-1.7v3.2c0,0.3,0.1,0.5,0.2,0.7C257,312.8,257.2,312.8,257.5,312.8z"/>
	<path class="st2" d="M264.6,310.8c0,1-0.2,1.7-0.7,2.3s-1.2,0.8-2.1,0.8c-0.5,0-1-0.1-1.5-0.4c-0.4-0.3-0.7-0.6-1-1.1
		c-0.2-0.5-0.3-1-0.3-1.6c0-1,0.2-1.7,0.7-2.3c0.5-0.5,1.2-0.8,2.1-0.8c0.9,0,1.5,0.3,2,0.8C264.4,309.1,264.6,309.8,264.6,310.8z
		 M260.3,310.8c0,1.4,0.5,2.1,1.5,2.1c1,0,1.5-0.7,1.5-2.1c0-1.4-0.5-2-1.5-2c-0.5,0-0.9,0.2-1.1,0.5S260.3,310.1,260.3,310.8z"/>
	<path class="st2" d="M268.3,313.9c-0.9,0-1.6-0.3-2-0.8c-0.5-0.5-0.7-1.3-0.7-2.3c0-1,0.2-1.8,0.7-2.3s1.2-0.8,2.1-0.8
		c0.6,0,1.2,0.1,1.7,0.3l-0.4,1c-0.5-0.2-1-0.3-1.3-0.3c-1,0-1.5,0.7-1.5,2c0,0.7,0.1,1.2,0.4,1.5s0.6,0.5,1.1,0.5
		c0.6,0,1.1-0.1,1.6-0.4v1.1c-0.2,0.1-0.5,0.2-0.7,0.3S268.6,313.9,268.3,313.9z"/>
	<path class="st2" d="M272.3,310.6l0.7-0.9l1.8-1.9h1.4l-2.4,2.6l2.5,3.4h-1.5l-1.9-2.6l-0.7,0.6v2h-1.2v-8.4h1.2v4.1L272.3,310.6
		L272.3,310.6z"/>
	<path class="st2" d="M281.2,312.1c0,0.6-0.2,1-0.6,1.3c-0.4,0.3-1,0.5-1.8,0.5c-0.8,0-1.4-0.1-1.9-0.4v-1.1
		c0.7,0.3,1.3,0.5,1.9,0.5c0.8,0,1.2-0.2,1.2-0.7c0-0.2,0-0.3-0.1-0.4c-0.1-0.1-0.2-0.2-0.4-0.3c-0.2-0.1-0.5-0.2-0.8-0.4
		c-0.7-0.3-1.1-0.5-1.4-0.8c-0.2-0.3-0.4-0.6-0.4-1c0-0.5,0.2-0.9,0.6-1.2s1-0.4,1.7-0.4c0.7,0,1.3,0.1,2,0.4l-0.4,1
		c-0.6-0.3-1.2-0.4-1.6-0.4c-0.7,0-1,0.2-1,0.6c0,0.2,0.1,0.3,0.3,0.5s0.5,0.3,1.1,0.5c0.5,0.2,0.8,0.4,1.1,0.5s0.4,0.3,0.5,0.5
		S281.2,311.8,281.2,312.1z"/>
	<path class="st2" d="M290,313.8h-1.3v-3.7c0-0.5-0.1-0.8-0.3-1c-0.2-0.2-0.4-0.3-0.8-0.3c-0.5,0-0.8,0.2-1.1,0.5
		c-0.2,0.3-0.3,0.8-0.3,1.6v3H285v-5.9h1l0.2,0.8h0.1c0.2-0.3,0.4-0.5,0.7-0.7c0.3-0.2,0.7-0.2,1-0.2c0.9,0,1.5,0.3,1.8,0.9h0.1
		c0.2-0.3,0.4-0.5,0.7-0.7s0.7-0.2,1.1-0.2c0.7,0,1.2,0.2,1.5,0.5s0.5,0.9,0.5,1.6v3.9h-1.2v-3.7c0-0.5-0.1-0.8-0.3-1
		s-0.4-0.3-0.8-0.3c-0.5,0-0.8,0.2-1.1,0.5c-0.2,0.3-0.3,0.8-0.3,1.4V313.8z"/>
	<path class="st2" d="M299.4,313.8l-0.2-0.8h-0.1c-0.2,0.3-0.4,0.5-0.7,0.7c-0.3,0.2-0.7,0.2-1.1,0.2c-0.7,0-1.2-0.2-1.6-0.5
		c-0.4-0.4-0.5-0.9-0.5-1.6v-3.9h1.3v3.7c0,0.5,0.1,0.8,0.3,1c0.2,0.2,0.5,0.3,0.9,0.3c0.5,0,0.9-0.2,1.2-0.5
		c0.2-0.3,0.4-0.8,0.4-1.6v-3h1.3v5.9H299.4z"/>
	<path class="st2" d="M306,312.1c0,0.6-0.2,1-0.6,1.3c-0.4,0.3-1,0.5-1.8,0.5c-0.8,0-1.4-0.1-1.9-0.4v-1.1c0.7,0.3,1.3,0.5,1.9,0.5
		c0.8,0,1.2-0.2,1.2-0.7c0-0.2,0-0.3-0.1-0.4c-0.1-0.1-0.2-0.2-0.4-0.3c-0.2-0.1-0.5-0.2-0.8-0.4c-0.7-0.3-1.1-0.5-1.4-0.8
		c-0.2-0.3-0.4-0.6-0.4-1c0-0.5,0.2-0.9,0.6-1.2s1-0.4,1.7-0.4c0.7,0,1.3,0.1,2,0.4l-0.4,1c-0.6-0.3-1.2-0.4-1.6-0.4
		c-0.7,0-1,0.2-1,0.6c0,0.2,0.1,0.3,0.3,0.5s0.5,0.3,1.1,0.5c0.5,0.2,0.8,0.4,1.1,0.5s0.4,0.3,0.5,0.5S306,311.8,306,312.1z"/>
	<path class="st2" d="M309.4,312.8c0.3,0,0.6,0,0.9-0.1v1c-0.1,0.1-0.3,0.1-0.5,0.2c-0.2,0-0.4,0.1-0.7,0.1c-1.2,0-1.8-0.6-1.8-1.9
		v-3.2h-0.8v-0.6l0.9-0.5l0.4-1.3h0.8v1.3h1.7v1h-1.7v3.2c0,0.3,0.1,0.5,0.2,0.7C308.9,312.8,309.1,312.8,309.4,312.8z"/>
	<path class="st2" d="M319.2,313.8h-1.3v-3.7c0-0.5-0.1-0.8-0.3-1c-0.2-0.2-0.5-0.3-0.9-0.3c-0.5,0-0.9,0.2-1.2,0.5
		c-0.2,0.3-0.4,0.8-0.4,1.6v2.9H314v-8.4h1.2v2.1c0,0.3,0,0.7-0.1,1.1h0.1c0.2-0.3,0.4-0.5,0.7-0.7s0.7-0.2,1.1-0.2
		c1.4,0,2.1,0.7,2.1,2.2V313.8z"/>
	<path class="st2" d="M324.4,313.8l-0.2-0.8h0c-0.3,0.4-0.6,0.6-0.9,0.7s-0.7,0.2-1.1,0.2c-0.6,0-1-0.2-1.4-0.5
		c-0.3-0.3-0.5-0.8-0.5-1.3c0-0.6,0.2-1.1,0.7-1.4c0.5-0.3,1.1-0.5,2.1-0.5l1,0v-0.3c0-0.4-0.1-0.7-0.3-0.9
		c-0.2-0.2-0.4-0.3-0.8-0.3c-0.3,0-0.6,0-0.9,0.1c-0.3,0.1-0.5,0.2-0.8,0.3l-0.4-0.9c0.3-0.2,0.7-0.3,1-0.4s0.7-0.1,1.1-0.1
		c0.7,0,1.3,0.2,1.7,0.5c0.4,0.3,0.6,0.8,0.6,1.6v4H324.4z M322.6,312.9c0.5,0,0.8-0.1,1.1-0.4c0.3-0.3,0.4-0.6,0.4-1.1v-0.5l-0.8,0
		c-0.6,0-1,0.1-1.3,0.3c-0.3,0.2-0.4,0.4-0.4,0.8c0,0.3,0.1,0.5,0.2,0.6C322,312.8,322.3,312.9,322.6,312.9z"/>
	<path class="st2" d="M328.3,313.8l-2.2-5.9h1.3l1.2,3.5c0.2,0.6,0.3,1,0.4,1.4h0c0-0.3,0.2-0.7,0.4-1.4l1.2-3.5h1.3l-2.2,5.9H328.3
		z"/>
	<path class="st2" d="M335.2,313.9c-0.9,0-1.6-0.3-2.1-0.8c-0.5-0.5-0.8-1.3-0.8-2.2c0-1,0.2-1.7,0.7-2.3c0.5-0.6,1.1-0.8,2-0.8
		c0.8,0,1.4,0.2,1.8,0.7c0.5,0.5,0.7,1.1,0.7,2v0.7h-3.9c0,0.6,0.2,1,0.5,1.3c0.3,0.3,0.7,0.5,1.2,0.5c0.3,0,0.7,0,1-0.1
		c0.3-0.1,0.6-0.2,1-0.3v1c-0.3,0.1-0.6,0.3-0.9,0.3C335.9,313.8,335.6,313.9,335.2,313.9z M334.9,308.7c-0.4,0-0.7,0.1-1,0.4
		c-0.2,0.3-0.4,0.6-0.4,1.1h2.7c0-0.5-0.1-0.9-0.4-1.1C335.6,308.8,335.3,308.7,334.9,308.7z"/>
	<path class="st2" d="M345.1,313.8l-0.2-0.8h0c-0.3,0.4-0.6,0.6-0.9,0.7s-0.7,0.2-1.1,0.2c-0.6,0-1-0.2-1.4-0.5
		c-0.3-0.3-0.5-0.8-0.5-1.3c0-0.6,0.2-1.1,0.7-1.4c0.5-0.3,1.1-0.5,2.1-0.5l1,0v-0.3c0-0.4-0.1-0.7-0.3-0.9
		c-0.2-0.2-0.4-0.3-0.8-0.3c-0.3,0-0.6,0-0.9,0.1c-0.3,0.1-0.5,0.2-0.8,0.3l-0.4-0.9c0.3-0.2,0.7-0.3,1-0.4s0.7-0.1,1.1-0.1
		c0.7,0,1.3,0.2,1.7,0.5c0.4,0.3,0.6,0.8,0.6,1.6v4H345.1z M343.2,312.9c0.5,0,0.8-0.1,1.1-0.4c0.3-0.3,0.4-0.6,0.4-1.1v-0.5l-0.8,0
		c-0.6,0-1,0.1-1.3,0.3c-0.3,0.2-0.4,0.4-0.4,0.8c0,0.3,0.1,0.5,0.2,0.6C342.7,312.8,342.9,312.9,343.2,312.9z"/>
	<path class="st2" d="M355.2,313.8h-1.3v-3.7c0-0.5-0.1-0.8-0.3-1c-0.2-0.2-0.4-0.3-0.8-0.3c-0.5,0-0.8,0.2-1.1,0.5
		c-0.2,0.3-0.3,0.8-0.3,1.6v3h-1.2v-5.9h1l0.2,0.8h0.1c0.2-0.3,0.4-0.5,0.7-0.7c0.3-0.2,0.7-0.2,1-0.2c0.9,0,1.5,0.3,1.8,0.9h0.1
		c0.2-0.3,0.4-0.5,0.7-0.7s0.7-0.2,1.1-0.2c0.7,0,1.2,0.2,1.5,0.5s0.5,0.9,0.5,1.6v3.9h-1.2v-3.7c0-0.5-0.1-0.8-0.3-1
		s-0.4-0.3-0.8-0.3c-0.5,0-0.8,0.2-1.1,0.5c-0.2,0.3-0.3,0.8-0.3,1.4V313.8z"/>
	<path class="st2" d="M360.4,306.2c0-0.2,0.1-0.4,0.2-0.5c0.1-0.1,0.3-0.2,0.5-0.2c0.2,0,0.4,0.1,0.5,0.2c0.1,0.1,0.2,0.3,0.2,0.5
		c0,0.2-0.1,0.4-0.2,0.5c-0.1,0.1-0.3,0.2-0.5,0.2c-0.2,0-0.4-0.1-0.5-0.2C360.5,306.6,360.4,306.5,360.4,306.2z M361.7,313.8h-1.2
		v-5.9h1.2V313.8z"/>
	<path class="st2" d="M368.6,313.8h-1.3v-3.7c0-0.5-0.1-0.8-0.3-1c-0.2-0.2-0.5-0.3-0.9-0.3c-0.5,0-0.9,0.2-1.2,0.5
		s-0.4,0.8-0.4,1.6v3h-1.2v-5.9h1l0.2,0.8h0.1c0.2-0.3,0.4-0.5,0.8-0.7c0.3-0.2,0.7-0.2,1.1-0.2c1.4,0,2.1,0.7,2.1,2.2V313.8z"/>
	<path class="st2" d="M370.1,306.2c0-0.2,0.1-0.4,0.2-0.5c0.1-0.1,0.3-0.2,0.5-0.2c0.2,0,0.4,0.1,0.5,0.2c0.1,0.1,0.2,0.3,0.2,0.5
		c0,0.2-0.1,0.4-0.2,0.5c-0.1,0.1-0.3,0.2-0.5,0.2c-0.2,0-0.4-0.1-0.5-0.2C370.1,306.6,370.1,306.5,370.1,306.2z M371.4,313.8h-1.2
		v-5.9h1.2V313.8z"/>
	<path class="st2" d="M378,313.8h-1.3v-3.7c0-0.5-0.1-0.8-0.3-1c-0.2-0.2-0.4-0.3-0.8-0.3c-0.5,0-0.8,0.2-1.1,0.5
		c-0.2,0.3-0.3,0.8-0.3,1.6v3H373v-5.9h1l0.2,0.8h0.1c0.2-0.3,0.4-0.5,0.7-0.7c0.3-0.2,0.7-0.2,1-0.2c0.9,0,1.5,0.3,1.8,0.9h0.1
		c0.2-0.3,0.4-0.5,0.7-0.7s0.7-0.2,1.1-0.2c0.7,0,1.2,0.2,1.5,0.5s0.5,0.9,0.5,1.6v3.9h-1.2v-3.7c0-0.5-0.1-0.8-0.3-1
		s-0.4-0.3-0.8-0.3c-0.5,0-0.8,0.2-1.1,0.5c-0.2,0.3-0.3,0.8-0.3,1.4V313.8z"/>
	<path class="st2" d="M387.4,313.8l-0.2-0.8h-0.1c-0.2,0.3-0.4,0.5-0.7,0.7c-0.3,0.2-0.7,0.2-1.1,0.2c-0.7,0-1.2-0.2-1.6-0.5
		c-0.4-0.4-0.5-0.9-0.5-1.6v-3.9h1.3v3.7c0,0.5,0.1,0.8,0.3,1c0.2,0.2,0.5,0.3,0.9,0.3c0.5,0,0.9-0.2,1.2-0.5
		c0.2-0.3,0.4-0.8,0.4-1.6v-3h1.3v5.9H387.4z"/>
	<path class="st2" d="M395,313.8h-1.3v-3.7c0-0.5-0.1-0.8-0.3-1c-0.2-0.2-0.4-0.3-0.8-0.3c-0.5,0-0.8,0.2-1.1,0.5
		c-0.2,0.3-0.3,0.8-0.3,1.6v3H390v-5.9h1l0.2,0.8h0.1c0.2-0.3,0.4-0.5,0.7-0.7c0.3-0.2,0.7-0.2,1-0.2c0.9,0,1.5,0.3,1.8,0.9h0.1
		c0.2-0.3,0.4-0.5,0.7-0.7s0.7-0.2,1.1-0.2c0.7,0,1.2,0.2,1.5,0.5s0.5,0.9,0.5,1.6v3.9h-1.2v-3.7c0-0.5-0.1-0.8-0.3-1
		s-0.4-0.3-0.8-0.3c-0.5,0-0.8,0.2-1.1,0.5c-0.2,0.3-0.3,0.8-0.3,1.4V313.8z"/>
	<path class="st2" d="M210.7,326.8c0,1-0.2,1.7-0.7,2.3s-1.2,0.8-2.1,0.8c-0.5,0-1-0.1-1.5-0.4c-0.4-0.3-0.7-0.6-1-1.1
		c-0.2-0.5-0.3-1-0.3-1.6c0-1,0.2-1.7,0.7-2.3c0.5-0.5,1.2-0.8,2.1-0.8c0.9,0,1.5,0.3,2,0.8C210.5,325.1,210.7,325.8,210.7,326.8z
		 M206.5,326.8c0,1.4,0.5,2.1,1.5,2.1c1,0,1.5-0.7,1.5-2.1c0-1.4-0.5-2-1.5-2c-0.5,0-0.9,0.2-1.1,0.5S206.5,326.1,206.5,326.8z"/>
	<path class="st2" d="M215,324.8h-1.4v5h-1.3v-5h-1v-0.6l1-0.4v-0.4c0-0.7,0.2-1.2,0.5-1.6c0.3-0.3,0.8-0.5,1.5-0.5
		c0.4,0,0.9,0.1,1.3,0.2l-0.3,1c-0.3-0.1-0.6-0.2-0.9-0.2c-0.3,0-0.5,0.1-0.6,0.3c-0.1,0.2-0.2,0.4-0.2,0.8v0.4h1.4V324.8z"/>
	<path class="st2" d="M223.3,327.3c0,0.5-0.2,0.9-0.6,1.3c-0.4,0.3-0.9,0.5-1.6,0.6v1.2h-0.7v-1.1c-0.9,0-1.6-0.2-2.2-0.4v-1.1
		c0.3,0.2,0.7,0.3,1.1,0.4c0.4,0.1,0.8,0.2,1.1,0.2v-2l-0.4-0.2c-0.6-0.2-1-0.5-1.3-0.8s-0.4-0.7-0.4-1.2c0-0.5,0.2-0.9,0.6-1.2
		c0.4-0.3,0.9-0.5,1.5-0.6v-0.9h0.7v0.9c0.7,0,1.4,0.2,2,0.4l-0.4,1c-0.6-0.2-1.1-0.4-1.7-0.4v2l0.4,0.2c0.7,0.3,1.1,0.5,1.4,0.8
		C223.1,326.6,223.3,326.9,223.3,327.3z M219.5,324.1c0,0.2,0.1,0.4,0.2,0.5c0.1,0.1,0.4,0.3,0.7,0.4v-1.7c-0.3,0-0.5,0.1-0.6,0.3
		C219.6,323.7,219.5,323.9,219.5,324.1z M222,327.4c0-0.2-0.1-0.4-0.2-0.5c-0.1-0.1-0.4-0.3-0.7-0.4v1.7
		C221.7,328.1,222,327.9,222,327.4z"/>
	<path class="st2" d="M227.8,329.8h-1.2v-5.1c0-0.6,0-1.1,0-1.4c-0.1,0.1-0.2,0.2-0.3,0.3c-0.1,0.1-0.5,0.4-1.2,1l-0.6-0.8l2.3-1.8
		h1V329.8z"/>
	<path class="st2" d="M238.3,329.8H237v-3.7c0-0.5-0.1-0.8-0.3-1c-0.2-0.2-0.4-0.3-0.8-0.3c-0.5,0-0.8,0.2-1.1,0.5
		c-0.2,0.3-0.3,0.8-0.3,1.6v3h-1.2v-5.9h1l0.2,0.8h0.1c0.2-0.3,0.4-0.5,0.7-0.7c0.3-0.2,0.7-0.2,1-0.2c0.9,0,1.5,0.3,1.8,0.9h0.1
		c0.2-0.3,0.4-0.5,0.7-0.7s0.7-0.2,1.1-0.2c0.7,0,1.2,0.2,1.5,0.5s0.5,0.9,0.5,1.6v3.9h-1.2v-3.7c0-0.5-0.1-0.8-0.3-1
		s-0.4-0.3-0.8-0.3c-0.5,0-0.8,0.2-1.1,0.5c-0.2,0.3-0.3,0.8-0.3,1.4V329.8z"/>
	<path class="st2" d="M243.5,322.2c0-0.2,0.1-0.4,0.2-0.5c0.1-0.1,0.3-0.2,0.5-0.2c0.2,0,0.4,0.1,0.5,0.2c0.1,0.1,0.2,0.3,0.2,0.5
		c0,0.2-0.1,0.4-0.2,0.5c-0.1,0.1-0.3,0.2-0.5,0.2c-0.2,0-0.4-0.1-0.5-0.2C243.5,322.6,243.5,322.5,243.5,322.2z M244.8,329.8h-1.2
		v-5.9h1.2V329.8z"/>
	<path class="st2" d="M247.7,329.8h-1.2v-8.4h1.2V329.8z"/>
	<path class="st2" d="M250.6,329.8h-1.2v-8.4h1.2V329.8z"/>
	<path class="st2" d="M252.1,322.2c0-0.2,0.1-0.4,0.2-0.5c0.1-0.1,0.3-0.2,0.5-0.2c0.2,0,0.4,0.1,0.5,0.2c0.1,0.1,0.2,0.3,0.2,0.5
		c0,0.2-0.1,0.4-0.2,0.5c-0.1,0.1-0.3,0.2-0.5,0.2c-0.2,0-0.4-0.1-0.5-0.2C252.2,322.6,252.1,322.5,252.1,322.2z M253.5,329.8h-1.2
		v-5.9h1.2V329.8z"/>
	<path class="st2" d="M260.3,326.8c0,1-0.2,1.7-0.7,2.3s-1.2,0.8-2.1,0.8c-0.5,0-1-0.1-1.5-0.4c-0.4-0.3-0.7-0.6-1-1.1
		c-0.2-0.5-0.3-1-0.3-1.6c0-1,0.2-1.7,0.7-2.3c0.5-0.5,1.2-0.8,2.1-0.8c0.9,0,1.5,0.3,2,0.8C260.1,325.1,260.3,325.8,260.3,326.8z
		 M256,326.8c0,1.4,0.5,2.1,1.5,2.1c1,0,1.5-0.7,1.5-2.1c0-1.4-0.5-2-1.5-2c-0.5,0-0.9,0.2-1.1,0.5S256,326.1,256,326.8z"/>
	<path class="st2" d="M266.8,329.8h-1.3v-3.7c0-0.5-0.1-0.8-0.3-1c-0.2-0.2-0.5-0.3-0.9-0.3c-0.5,0-0.9,0.2-1.2,0.5
		s-0.4,0.8-0.4,1.6v3h-1.2v-5.9h1l0.2,0.8h0.1c0.2-0.3,0.4-0.5,0.8-0.7c0.3-0.2,0.7-0.2,1.1-0.2c1.4,0,2.1,0.7,2.1,2.2V329.8z"/>
	<path class="st2" d="M270.6,326.4c0-3.1,1.2-4.6,3.7-4.6c0.4,0,0.7,0,1,0.1v1.1c-0.3-0.1-0.6-0.1-0.9-0.1c-0.8,0-1.5,0.2-1.9,0.7
		c-0.4,0.5-0.6,1.2-0.7,2.2h0.1c0.2-0.3,0.4-0.5,0.7-0.7s0.7-0.2,1.1-0.2c0.7,0,1.3,0.2,1.6,0.7c0.4,0.4,0.6,1,0.6,1.8
		c0,0.8-0.2,1.5-0.7,2c-0.5,0.5-1.1,0.7-1.9,0.7c-0.6,0-1-0.1-1.5-0.4s-0.7-0.7-0.9-1.2S270.6,327.1,270.6,326.4z M273.3,328.8
		c0.4,0,0.8-0.1,1-0.4c0.2-0.3,0.3-0.7,0.3-1.2c0-0.5-0.1-0.8-0.3-1.1c-0.2-0.3-0.5-0.4-1-0.4c-0.3,0-0.5,0.1-0.7,0.2
		c-0.2,0.1-0.4,0.3-0.5,0.5c-0.1,0.2-0.2,0.4-0.2,0.6c0,0.5,0.1,0.9,0.4,1.3C272.6,328.7,272.9,328.8,273.3,328.8z"/>
	<path class="st2" d="M276.6,327.3v-1.1h2.7v1.1H276.6z"/>
	<path class="st2" d="M285.4,329.8h-1.3v-3.7c0-0.5-0.1-0.8-0.3-1c-0.2-0.2-0.4-0.3-0.8-0.3c-0.5,0-0.8,0.2-1.1,0.5
		c-0.2,0.3-0.3,0.8-0.3,1.6v3h-1.2v-5.9h1l0.2,0.8h0.1c0.2-0.3,0.4-0.5,0.7-0.7c0.3-0.2,0.7-0.2,1-0.2c0.9,0,1.5,0.3,1.8,0.9h0.1
		c0.2-0.3,0.4-0.5,0.7-0.7s0.7-0.2,1.1-0.2c0.7,0,1.2,0.2,1.5,0.5s0.5,0.9,0.5,1.6v3.9h-1.2v-3.7c0-0.5-0.1-0.8-0.3-1
		s-0.4-0.3-0.8-0.3c-0.5,0-0.8,0.2-1.1,0.5c-0.2,0.3-0.3,0.8-0.3,1.4V329.8z"/>
	<path class="st2" d="M295.9,326.8c0,1-0.2,1.7-0.7,2.3s-1.2,0.8-2.1,0.8c-0.5,0-1-0.1-1.5-0.4c-0.4-0.3-0.7-0.6-1-1.1
		c-0.2-0.5-0.3-1-0.3-1.6c0-1,0.2-1.7,0.7-2.3c0.5-0.5,1.2-0.8,2.1-0.8c0.9,0,1.5,0.3,2,0.8C295.7,325.1,295.9,325.8,295.9,326.8z
		 M291.6,326.8c0,1.4,0.5,2.1,1.5,2.1c1,0,1.5-0.7,1.5-2.1c0-1.4-0.5-2-1.5-2c-0.5,0-0.9,0.2-1.1,0.5S291.6,326.1,291.6,326.8z"/>
	<path class="st2" d="M302.4,329.8h-1.3v-3.7c0-0.5-0.1-0.8-0.3-1c-0.2-0.2-0.5-0.3-0.9-0.3c-0.5,0-0.9,0.2-1.2,0.5
		s-0.4,0.8-0.4,1.6v3h-1.2v-5.9h1l0.2,0.8h0.1c0.2-0.3,0.4-0.5,0.8-0.7c0.3-0.2,0.7-0.2,1.1-0.2c1.4,0,2.1,0.7,2.1,2.2V329.8z"/>
	<path class="st2" d="M306.2,328.8c0.3,0,0.6,0,0.9-0.1v1c-0.1,0.1-0.3,0.1-0.5,0.2c-0.2,0-0.4,0.1-0.7,0.1c-1.2,0-1.8-0.6-1.8-1.9
		v-3.2h-0.8v-0.6l0.9-0.5l0.4-1.3h0.8v1.3h1.7v1h-1.7v3.2c0,0.3,0.1,0.5,0.2,0.7C305.7,328.8,305.9,328.8,306.2,328.8z"/>
	<path class="st2" d="M313.3,329.8H312v-3.7c0-0.5-0.1-0.8-0.3-1c-0.2-0.2-0.5-0.3-0.9-0.3c-0.5,0-0.9,0.2-1.2,0.5
		c-0.2,0.3-0.4,0.8-0.4,1.6v2.9h-1.2v-8.4h1.2v2.1c0,0.3,0,0.7-0.1,1.1h0.1c0.2-0.3,0.4-0.5,0.7-0.7s0.7-0.2,1.1-0.2
		c1.4,0,2.1,0.7,2.1,2.2V329.8z"/>
	<path class="st2" d="M321.2,329.8l-0.2-0.8h0c-0.3,0.4-0.6,0.6-0.9,0.7s-0.7,0.2-1.1,0.2c-0.6,0-1-0.2-1.4-0.5
		c-0.3-0.3-0.5-0.8-0.5-1.3c0-0.6,0.2-1.1,0.7-1.4c0.5-0.3,1.1-0.5,2.1-0.5l1,0v-0.3c0-0.4-0.1-0.7-0.3-0.9
		c-0.2-0.2-0.4-0.3-0.8-0.3c-0.3,0-0.6,0-0.9,0.1c-0.3,0.1-0.5,0.2-0.8,0.3l-0.4-0.9c0.3-0.2,0.7-0.3,1-0.4s0.7-0.1,1.1-0.1
		c0.7,0,1.3,0.2,1.7,0.5c0.4,0.3,0.6,0.8,0.6,1.6v4H321.2z M319.3,328.9c0.5,0,0.8-0.1,1.1-0.4c0.3-0.3,0.4-0.6,0.4-1.1v-0.5l-0.8,0
		c-0.6,0-1,0.1-1.3,0.3c-0.3,0.2-0.4,0.4-0.4,0.8c0,0.3,0.1,0.5,0.2,0.6C318.8,328.8,319,328.9,319.3,328.9z"/>
	<path class="st2" d="M325,329.8l-2.2-5.9h1.3l1.2,3.5c0.2,0.6,0.3,1,0.4,1.4h0c0-0.3,0.2-0.7,0.4-1.4l1.2-3.5h1.3l-2.2,5.9H325z"/>
	<path class="st2" d="M331.9,329.9c-0.9,0-1.6-0.3-2.1-0.8c-0.5-0.5-0.8-1.3-0.8-2.2c0-1,0.2-1.7,0.7-2.3c0.5-0.6,1.1-0.8,2-0.8
		c0.8,0,1.4,0.2,1.8,0.7c0.5,0.5,0.7,1.1,0.7,2v0.7h-3.9c0,0.6,0.2,1,0.5,1.3c0.3,0.3,0.7,0.5,1.2,0.5c0.3,0,0.7,0,1-0.1
		c0.3-0.1,0.6-0.2,1-0.3v1c-0.3,0.1-0.6,0.3-0.9,0.3C332.7,329.8,332.3,329.9,331.9,329.9z M331.7,324.7c-0.4,0-0.7,0.1-1,0.4
		c-0.2,0.3-0.4,0.6-0.4,1.1h2.7c0-0.5-0.1-0.9-0.4-1.1C332.4,324.8,332.1,324.7,331.7,324.7z"/>
	<path class="st2" d="M338.5,323.7c0.3,0,0.5,0,0.6,0.1l-0.1,1.2c-0.2,0-0.4-0.1-0.6-0.1c-0.5,0-0.9,0.2-1.2,0.5
		c-0.3,0.3-0.5,0.8-0.5,1.3v3.1h-1.2v-5.9h1l0.2,1h0.1c0.2-0.4,0.4-0.6,0.8-0.8C337.8,323.8,338.1,323.7,338.5,323.7z"/>
	<path class="st2" d="M343.7,329.8l-0.2-0.8h0c-0.3,0.4-0.6,0.6-0.9,0.7s-0.7,0.2-1.1,0.2c-0.6,0-1-0.2-1.4-0.5
		c-0.3-0.3-0.5-0.8-0.5-1.3c0-0.6,0.2-1.1,0.7-1.4c0.5-0.3,1.1-0.5,2.1-0.5l1,0v-0.3c0-0.4-0.1-0.7-0.3-0.9
		c-0.2-0.2-0.4-0.3-0.8-0.3c-0.3,0-0.6,0-0.9,0.1c-0.3,0.1-0.5,0.2-0.8,0.3l-0.4-0.9c0.3-0.2,0.7-0.3,1-0.4s0.7-0.1,1.1-0.1
		c0.7,0,1.3,0.2,1.7,0.5c0.4,0.3,0.6,0.8,0.6,1.6v4H343.7z M341.8,328.9c0.5,0,0.8-0.1,1.1-0.4c0.3-0.3,0.4-0.6,0.4-1.1v-0.5l-0.8,0
		c-0.6,0-1,0.1-1.3,0.3c-0.3,0.2-0.4,0.4-0.4,0.8c0,0.3,0.1,0.5,0.2,0.6C341.3,328.8,341.5,328.9,341.8,328.9z"/>
	<path class="st2" d="M351.2,323.8v0.7l-1,0.2c0.1,0.1,0.2,0.3,0.2,0.5c0.1,0.2,0.1,0.4,0.1,0.6c0,0.6-0.2,1.1-0.6,1.4
		c-0.4,0.4-1,0.5-1.7,0.5c-0.2,0-0.4,0-0.5,0c-0.3,0.2-0.4,0.4-0.4,0.6c0,0.1,0.1,0.2,0.2,0.3s0.4,0.1,0.7,0.1h1
		c0.6,0,1.1,0.1,1.5,0.4c0.3,0.3,0.5,0.7,0.5,1.2c0,0.7-0.3,1.2-0.8,1.6s-1.3,0.5-2.4,0.5c-0.8,0-1.4-0.1-1.8-0.4s-0.6-0.7-0.6-1.2
		c0-0.4,0.1-0.7,0.3-0.9s0.5-0.4,1-0.5c-0.2-0.1-0.3-0.2-0.4-0.3c-0.1-0.2-0.2-0.3-0.2-0.5c0-0.2,0.1-0.4,0.2-0.6
		c0.1-0.2,0.3-0.3,0.6-0.5c-0.3-0.1-0.6-0.3-0.7-0.6c-0.2-0.3-0.3-0.6-0.3-1c0-0.6,0.2-1.1,0.6-1.5c0.4-0.4,1-0.5,1.7-0.5
		c0.2,0,0.3,0,0.5,0s0.3,0,0.4,0.1H351.2z M346.5,330.7c0,0.3,0.1,0.5,0.4,0.6c0.2,0.1,0.6,0.2,1,0.2c0.7,0,1.2-0.1,1.5-0.3
		c0.3-0.2,0.5-0.5,0.5-0.8c0-0.3-0.1-0.4-0.3-0.6s-0.5-0.2-1-0.2h-0.9c-0.4,0-0.6,0.1-0.9,0.3S346.5,330.4,346.5,330.7z
		 M347.1,325.7c0,0.4,0.1,0.7,0.3,0.9c0.2,0.2,0.5,0.3,0.8,0.3c0.7,0,1.1-0.4,1.1-1.2c0-0.4-0.1-0.7-0.3-0.9
		c-0.2-0.2-0.5-0.3-0.8-0.3c-0.4,0-0.6,0.1-0.8,0.3C347.2,325,347.1,325.3,347.1,325.7z"/>
	<path class="st2" d="M354.7,329.9c-0.9,0-1.6-0.3-2.1-0.8c-0.5-0.5-0.8-1.3-0.8-2.2c0-1,0.2-1.7,0.7-2.3c0.5-0.6,1.1-0.8,2-0.8
		c0.8,0,1.4,0.2,1.8,0.7c0.5,0.5,0.7,1.1,0.7,2v0.7H353c0,0.6,0.2,1,0.5,1.3c0.3,0.3,0.7,0.5,1.2,0.5c0.3,0,0.7,0,1-0.1
		c0.3-0.1,0.6-0.2,1-0.3v1c-0.3,0.1-0.6,0.3-0.9,0.3C355.4,329.8,355.1,329.9,354.7,329.9z M354.4,324.7c-0.4,0-0.7,0.1-1,0.4
		c-0.2,0.3-0.4,0.6-0.4,1.1h2.7c0-0.5-0.1-0.9-0.4-1.1C355.1,324.8,354.8,324.7,354.4,324.7z"/>
	<path class="st2" d="M362.9,329.9c-0.7,0-1.3-0.3-1.7-0.8s-0.6-1.3-0.6-2.3c0-1,0.2-1.7,0.6-2.3c0.4-0.5,1-0.8,1.7-0.8
		c0.8,0,1.4,0.3,1.8,0.9h0.1c-0.1-0.4-0.1-0.8-0.1-1v-2.2h1.3v8.4h-1l-0.2-0.8h-0.1C364.2,329.6,363.7,329.9,362.9,329.9z
		 M363.2,328.8c0.5,0,0.9-0.1,1.1-0.4c0.2-0.3,0.4-0.8,0.4-1.4v-0.2c0-0.7-0.1-1.3-0.4-1.6c-0.2-0.3-0.6-0.5-1.1-0.5
		c-0.4,0-0.8,0.2-1,0.5c-0.2,0.4-0.4,0.9-0.4,1.5c0,0.7,0.1,1.2,0.3,1.5S362.8,328.8,363.2,328.8z"/>
	<path class="st2" d="M371.2,329.8l-0.2-0.8h0c-0.3,0.4-0.6,0.6-0.9,0.7s-0.7,0.2-1.1,0.2c-0.6,0-1-0.2-1.4-0.5
		c-0.3-0.3-0.5-0.8-0.5-1.3c0-0.6,0.2-1.1,0.7-1.4c0.5-0.3,1.1-0.5,2.1-0.5l1,0v-0.3c0-0.4-0.1-0.7-0.3-0.9
		c-0.2-0.2-0.4-0.3-0.8-0.3c-0.3,0-0.6,0-0.9,0.1c-0.3,0.1-0.5,0.2-0.8,0.3l-0.4-0.9c0.3-0.2,0.7-0.3,1-0.4s0.7-0.1,1.1-0.1
		c0.7,0,1.3,0.2,1.7,0.5c0.4,0.3,0.6,0.8,0.6,1.6v4H371.2z M369.3,328.9c0.5,0,0.8-0.1,1.1-0.4c0.3-0.3,0.4-0.6,0.4-1.1v-0.5l-0.8,0
		c-0.6,0-1,0.1-1.3,0.3c-0.3,0.2-0.4,0.4-0.4,0.8c0,0.3,0.1,0.5,0.2,0.6C368.8,328.8,369,328.9,369.3,328.9z"/>
	<path class="st2" d="M373.6,322.2c0-0.2,0.1-0.4,0.2-0.5c0.1-0.1,0.3-0.2,0.5-0.2c0.2,0,0.4,0.1,0.5,0.2c0.1,0.1,0.2,0.3,0.2,0.5
		c0,0.2-0.1,0.4-0.2,0.5c-0.1,0.1-0.3,0.2-0.5,0.2c-0.2,0-0.4-0.1-0.5-0.2C373.7,322.6,373.6,322.5,373.6,322.2z M374.9,329.8h-1.2
		v-5.9h1.2V329.8z"/>
	<path class="st2" d="M377.8,329.8h-1.2v-8.4h1.2V329.8z"/>
	<path class="st2" d="M378.6,323.8h1.4l1.2,3.4c0.2,0.5,0.3,0.9,0.4,1.4h0c0-0.2,0.1-0.4,0.2-0.7s0.5-1.6,1.4-4h1.4l-2.5,6.7
		c-0.5,1.2-1.2,1.9-2.3,1.9c-0.3,0-0.5,0-0.8-0.1v-1c0.2,0,0.4,0.1,0.6,0.1c0.6,0,1-0.4,1.3-1.1l0.2-0.6L378.6,323.8z"/>
	<path class="st2" d="M226,344.8c0.3,0,0.6,0,0.9-0.1v1c-0.1,0.1-0.3,0.1-0.5,0.2c-0.2,0-0.4,0.1-0.7,0.1c-1.2,0-1.8-0.6-1.8-1.9
		v-3.2h-0.8v-0.6l0.9-0.5l0.4-1.3h0.8v1.3h1.7v1h-1.7v3.2c0,0.3,0.1,0.5,0.2,0.7C225.6,344.8,225.8,344.8,226,344.8z"/>
	<path class="st2" d="M230.9,339.7c0.3,0,0.5,0,0.6,0.1l-0.1,1.2c-0.2,0-0.4-0.1-0.6-0.1c-0.5,0-0.9,0.2-1.2,0.5
		c-0.3,0.3-0.5,0.8-0.5,1.3v3.1H228v-5.9h1l0.2,1h0.1c0.2-0.4,0.4-0.6,0.8-0.8C230.2,339.8,230.6,339.7,230.9,339.7z"/>
	<path class="st2" d="M236.2,345.8l-0.2-0.8h0c-0.3,0.4-0.6,0.6-0.9,0.7s-0.7,0.2-1.1,0.2c-0.6,0-1-0.2-1.4-0.5
		c-0.3-0.3-0.5-0.8-0.5-1.3c0-0.6,0.2-1.1,0.7-1.4c0.5-0.3,1.1-0.5,2.1-0.5l1,0v-0.3c0-0.4-0.1-0.7-0.3-0.9
		c-0.2-0.2-0.4-0.3-0.8-0.3c-0.3,0-0.6,0-0.9,0.1c-0.3,0.1-0.5,0.2-0.8,0.3l-0.4-0.9c0.3-0.2,0.7-0.3,1-0.4s0.7-0.1,1.1-0.1
		c0.7,0,1.3,0.2,1.7,0.5c0.4,0.3,0.6,0.8,0.6,1.6v4H236.2z M234.3,344.9c0.5,0,0.8-0.1,1.1-0.4c0.3-0.3,0.4-0.6,0.4-1.1v-0.5l-0.8,0
		c-0.6,0-1,0.1-1.3,0.3c-0.3,0.2-0.4,0.4-0.4,0.8c0,0.3,0.1,0.5,0.2,0.6C233.8,344.8,234,344.9,234.3,344.9z"/>
	<path class="st2" d="M240.6,345.9c-0.7,0-1.3-0.3-1.7-0.8s-0.6-1.3-0.6-2.3c0-1,0.2-1.7,0.6-2.3c0.4-0.5,1-0.8,1.7-0.8
		c0.8,0,1.4,0.3,1.8,0.9h0.1c-0.1-0.4-0.1-0.8-0.1-1v-2.2h1.3v8.4h-1l-0.2-0.8h-0.1C242,345.6,241.4,345.9,240.6,345.9z M241,344.8
		c0.5,0,0.9-0.1,1.1-0.4c0.2-0.3,0.4-0.8,0.4-1.4v-0.2c0-0.7-0.1-1.3-0.4-1.6c-0.2-0.3-0.6-0.5-1.1-0.5c-0.4,0-0.8,0.2-1,0.5
		c-0.2,0.4-0.4,0.9-0.4,1.5c0,0.7,0.1,1.2,0.3,1.5S240.5,344.8,241,344.8z"/>
	<path class="st2" d="M245.2,338.2c0-0.2,0.1-0.4,0.2-0.5c0.1-0.1,0.3-0.2,0.5-0.2c0.2,0,0.4,0.1,0.5,0.2c0.1,0.1,0.2,0.3,0.2,0.5
		c0,0.2-0.1,0.4-0.2,0.5c-0.1,0.1-0.3,0.2-0.5,0.2c-0.2,0-0.4-0.1-0.5-0.2C245.3,338.6,245.2,338.5,245.2,338.2z M246.5,345.8h-1.2
		v-5.9h1.2V345.8z"/>
	<path class="st2" d="M253.4,345.8h-1.3v-3.7c0-0.5-0.1-0.8-0.3-1c-0.2-0.2-0.5-0.3-0.9-0.3c-0.5,0-0.9,0.2-1.2,0.5
		s-0.4,0.8-0.4,1.6v3h-1.2v-5.9h1l0.2,0.8h0.1c0.2-0.3,0.4-0.5,0.8-0.7c0.3-0.2,0.7-0.2,1.1-0.2c1.4,0,2.1,0.7,2.1,2.2V345.8z"/>
	<path class="st2" d="M259.9,339.8v0.7l-1,0.2c0.1,0.1,0.2,0.3,0.2,0.5c0.1,0.2,0.1,0.4,0.1,0.6c0,0.6-0.2,1.1-0.6,1.4
		c-0.4,0.4-1,0.5-1.7,0.5c-0.2,0-0.4,0-0.5,0c-0.3,0.2-0.4,0.4-0.4,0.6c0,0.1,0.1,0.2,0.2,0.3s0.4,0.1,0.7,0.1h1
		c0.6,0,1.1,0.1,1.5,0.4c0.3,0.3,0.5,0.7,0.5,1.2c0,0.7-0.3,1.2-0.8,1.6s-1.3,0.5-2.4,0.5c-0.8,0-1.4-0.1-1.8-0.4s-0.6-0.7-0.6-1.2
		c0-0.4,0.1-0.7,0.3-0.9s0.5-0.4,1-0.5c-0.2-0.1-0.3-0.2-0.4-0.3c-0.1-0.2-0.2-0.3-0.2-0.5c0-0.2,0.1-0.4,0.2-0.6
		c0.1-0.2,0.3-0.3,0.6-0.5c-0.3-0.1-0.6-0.3-0.7-0.6c-0.2-0.3-0.3-0.6-0.3-1c0-0.6,0.2-1.1,0.6-1.5c0.4-0.4,1-0.5,1.7-0.5
		c0.2,0,0.3,0,0.5,0s0.3,0,0.4,0.1H259.9z M255.3,346.7c0,0.3,0.1,0.5,0.4,0.6c0.2,0.1,0.6,0.2,1,0.2c0.7,0,1.2-0.1,1.5-0.3
		c0.3-0.2,0.5-0.5,0.5-0.8c0-0.3-0.1-0.4-0.3-0.6s-0.5-0.2-1-0.2h-0.9c-0.4,0-0.6,0.1-0.9,0.3S255.3,346.4,255.3,346.7z
		 M255.8,341.7c0,0.4,0.1,0.7,0.3,0.9c0.2,0.2,0.5,0.3,0.8,0.3c0.7,0,1.1-0.4,1.1-1.2c0-0.4-0.1-0.7-0.3-0.9
		c-0.2-0.2-0.5-0.3-0.8-0.3c-0.4,0-0.6,0.1-0.8,0.3C255.9,341,255.8,341.3,255.8,341.7z"/>
	<path class="st2" d="M264.9,345.8l-2.2-5.9h1.3l1.2,3.5c0.2,0.6,0.3,1,0.4,1.4h0c0-0.3,0.2-0.7,0.4-1.4l1.2-3.5h1.3l-2.2,5.9H264.9
		z"/>
	<path class="st2" d="M272.9,345.8l-0.2-0.8h0c-0.3,0.4-0.6,0.6-0.9,0.7s-0.7,0.2-1.1,0.2c-0.6,0-1-0.2-1.4-0.5
		c-0.3-0.3-0.5-0.8-0.5-1.3c0-0.6,0.2-1.1,0.7-1.4c0.5-0.3,1.1-0.5,2.1-0.5l1,0v-0.3c0-0.4-0.1-0.7-0.3-0.9
		c-0.2-0.2-0.4-0.3-0.8-0.3c-0.3,0-0.6,0-0.9,0.1c-0.3,0.1-0.5,0.2-0.8,0.3l-0.4-0.9c0.3-0.2,0.7-0.3,1-0.4s0.7-0.1,1.1-0.1
		c0.7,0,1.3,0.2,1.7,0.5c0.4,0.3,0.6,0.8,0.6,1.6v4H272.9z M271,344.9c0.5,0,0.8-0.1,1.1-0.4c0.3-0.3,0.4-0.6,0.4-1.1v-0.5l-0.8,0
		c-0.6,0-1,0.1-1.3,0.3c-0.3,0.2-0.4,0.4-0.4,0.8c0,0.3,0.1,0.5,0.2,0.6C270.5,344.8,270.7,344.9,271,344.9z"/>
	<path class="st2" d="M276.6,345.8h-1.2v-8.4h1.2V345.8z"/>
	<path class="st2" d="M282.4,345.8l-0.2-0.8h-0.1c-0.2,0.3-0.4,0.5-0.7,0.7c-0.3,0.2-0.7,0.2-1.1,0.2c-0.7,0-1.2-0.2-1.6-0.5
		c-0.4-0.4-0.5-0.9-0.5-1.6v-3.9h1.3v3.7c0,0.5,0.1,0.8,0.3,1c0.2,0.2,0.5,0.3,0.9,0.3c0.5,0,0.9-0.2,1.2-0.5
		c0.2-0.3,0.4-0.8,0.4-1.6v-3h1.3v5.9H282.4z"/>
	<path class="st2" d="M287.6,345.9c-0.9,0-1.6-0.3-2.1-0.8c-0.5-0.5-0.8-1.3-0.8-2.2c0-1,0.2-1.7,0.7-2.3c0.5-0.6,1.1-0.8,2-0.8
		c0.8,0,1.4,0.2,1.8,0.7c0.5,0.5,0.7,1.1,0.7,2v0.7h-3.9c0,0.6,0.2,1,0.5,1.3c0.3,0.3,0.7,0.5,1.2,0.5c0.3,0,0.7,0,1-0.1
		c0.3-0.1,0.6-0.2,1-0.3v1c-0.3,0.1-0.6,0.3-0.9,0.3C288.3,345.8,288,345.9,287.6,345.9z M287.3,340.7c-0.4,0-0.7,0.1-1,0.4
		c-0.2,0.3-0.4,0.6-0.4,1.1h2.7c0-0.5-0.1-0.9-0.4-1.1C288.1,340.8,287.7,340.7,287.3,340.7z"/>
	<path class="st2" d="M295.1,344.1c0,0.6-0.2,1-0.6,1.3c-0.4,0.3-1,0.5-1.8,0.5c-0.8,0-1.4-0.1-1.9-0.4v-1.1
		c0.7,0.3,1.3,0.5,1.9,0.5c0.8,0,1.2-0.2,1.2-0.7c0-0.2,0-0.3-0.1-0.4c-0.1-0.1-0.2-0.2-0.4-0.3c-0.2-0.1-0.5-0.2-0.8-0.4
		c-0.7-0.3-1.1-0.5-1.4-0.8c-0.2-0.3-0.4-0.6-0.4-1c0-0.5,0.2-0.9,0.6-1.2s1-0.4,1.7-0.4c0.7,0,1.3,0.1,2,0.4l-0.4,1
		c-0.6-0.3-1.2-0.4-1.6-0.4c-0.7,0-1,0.2-1,0.6c0,0.2,0.1,0.3,0.3,0.5s0.5,0.3,1.1,0.5c0.5,0.2,0.8,0.4,1.1,0.5s0.4,0.3,0.5,0.5
		S295.1,343.8,295.1,344.1z"/>
	<path class="st2" d="M301.1,344.8c0.3,0,0.6,0,0.9-0.1v1c-0.1,0.1-0.3,0.1-0.5,0.2c-0.2,0-0.4,0.1-0.7,0.1c-1.2,0-1.8-0.6-1.8-1.9
		v-3.2h-0.8v-0.6l0.9-0.5l0.4-1.3h0.8v1.3h1.7v1h-1.7v3.2c0,0.3,0.1,0.5,0.2,0.7C300.7,344.8,300.9,344.8,301.1,344.8z"/>
	<path class="st2" d="M308.3,342.8c0,1-0.2,1.7-0.7,2.3s-1.2,0.8-2.1,0.8c-0.5,0-1-0.1-1.5-0.4c-0.4-0.3-0.7-0.6-1-1.1
		c-0.2-0.5-0.3-1-0.3-1.6c0-1,0.2-1.7,0.7-2.3c0.5-0.5,1.2-0.8,2.1-0.8c0.9,0,1.5,0.3,2,0.8C308,341.1,308.3,341.8,308.3,342.8z
		 M304,342.8c0,1.4,0.5,2.1,1.5,2.1c1,0,1.5-0.7,1.5-2.1c0-1.4-0.5-2-1.5-2c-0.5,0-0.9,0.2-1.1,0.5S304,342.1,304,342.8z"/>
	<path class="st2" d="M315.3,339.7c0.7,0,1.3,0.3,1.7,0.8c0.4,0.5,0.6,1.3,0.6,2.3c0,1-0.2,1.7-0.6,2.3c-0.4,0.5-1,0.8-1.7,0.8
		c-0.7,0-1.3-0.3-1.7-0.8h-0.1l-0.2,0.7h-0.9v-8.4h1.2v2c0,0.1,0,0.4,0,0.7s0,0.5,0,0.6h0.1C313.9,340,314.5,339.7,315.3,339.7z
		 M314.9,340.7c-0.5,0-0.9,0.1-1.1,0.4s-0.3,0.8-0.3,1.5v0.1c0,0.7,0.1,1.2,0.3,1.6c0.2,0.3,0.6,0.5,1.1,0.5c0.4,0,0.8-0.2,1-0.5
		c0.2-0.4,0.3-0.9,0.3-1.5C316.3,341.4,315.8,340.7,314.9,340.7z"/>
	<path class="st2" d="M321.5,345.9c-0.9,0-1.6-0.3-2.1-0.8c-0.5-0.5-0.8-1.3-0.8-2.2c0-1,0.2-1.7,0.7-2.3c0.5-0.6,1.1-0.8,2-0.8
		c0.8,0,1.4,0.2,1.8,0.7c0.5,0.5,0.7,1.1,0.7,2v0.7h-3.9c0,0.6,0.2,1,0.5,1.3c0.3,0.3,0.7,0.5,1.2,0.5c0.3,0,0.7,0,1-0.1
		c0.3-0.1,0.6-0.2,1-0.3v1c-0.3,0.1-0.6,0.3-0.9,0.3C322.2,345.8,321.9,345.9,321.5,345.9z M321.2,340.7c-0.4,0-0.7,0.1-1,0.4
		c-0.2,0.3-0.4,0.6-0.4,1.1h2.7c0-0.5-0.1-0.9-0.4-1.1C321.9,340.8,321.6,340.7,321.2,340.7z"/>
	<path class="st2" d="M330.3,345.9c-0.9,0-1.6-0.3-2.1-0.8c-0.5-0.5-0.8-1.3-0.8-2.2c0-1,0.2-1.7,0.7-2.3c0.5-0.6,1.1-0.8,2-0.8
		c0.8,0,1.4,0.2,1.8,0.7c0.5,0.5,0.7,1.1,0.7,2v0.7h-3.9c0,0.6,0.2,1,0.5,1.3c0.3,0.3,0.7,0.5,1.2,0.5c0.3,0,0.7,0,1-0.1
		c0.3-0.1,0.6-0.2,1-0.3v1c-0.3,0.1-0.6,0.3-0.9,0.3C331,345.8,330.7,345.9,330.3,345.9z M330,340.7c-0.4,0-0.7,0.1-1,0.4
		c-0.2,0.3-0.4,0.6-0.4,1.1h2.7c0-0.5-0.1-0.9-0.4-1.1C330.7,340.8,330.4,340.7,330,340.7z"/>
	<path class="st2" d="M335.1,345.8h-1.2v-8.4h1.2V345.8z"/>
	<path class="st2" d="M336.6,338.2c0-0.2,0.1-0.4,0.2-0.5c0.1-0.1,0.3-0.2,0.5-0.2c0.2,0,0.4,0.1,0.5,0.2c0.1,0.1,0.2,0.3,0.2,0.5
		c0,0.2-0.1,0.4-0.2,0.5c-0.1,0.1-0.3,0.2-0.5,0.2c-0.2,0-0.4-0.1-0.5-0.2C336.7,338.6,336.6,338.5,336.6,338.2z M337.9,345.8h-1.2
		v-5.9h1.2V345.8z"/>
	<path class="st2" d="M344.5,339.8v0.7l-1,0.2c0.1,0.1,0.2,0.3,0.2,0.5c0.1,0.2,0.1,0.4,0.1,0.6c0,0.6-0.2,1.1-0.6,1.4
		c-0.4,0.4-1,0.5-1.7,0.5c-0.2,0-0.4,0-0.5,0c-0.3,0.2-0.4,0.4-0.4,0.6c0,0.1,0.1,0.2,0.2,0.3s0.4,0.1,0.7,0.1h1
		c0.6,0,1.1,0.1,1.5,0.4c0.3,0.3,0.5,0.7,0.5,1.2c0,0.7-0.3,1.2-0.8,1.6s-1.3,0.5-2.4,0.5c-0.8,0-1.4-0.1-1.8-0.4s-0.6-0.7-0.6-1.2
		c0-0.4,0.1-0.7,0.3-0.9s0.5-0.4,1-0.5c-0.2-0.1-0.3-0.2-0.4-0.3c-0.1-0.2-0.2-0.3-0.2-0.5c0-0.2,0.1-0.4,0.2-0.6
		c0.1-0.2,0.3-0.3,0.6-0.5c-0.3-0.1-0.6-0.3-0.7-0.6c-0.2-0.3-0.3-0.6-0.3-1c0-0.6,0.2-1.1,0.6-1.5c0.4-0.4,1-0.5,1.7-0.5
		c0.2,0,0.3,0,0.5,0s0.3,0,0.4,0.1H344.5z M339.9,346.7c0,0.3,0.1,0.5,0.4,0.6c0.2,0.1,0.6,0.2,1,0.2c0.7,0,1.2-0.1,1.5-0.3
		c0.3-0.2,0.5-0.5,0.5-0.8c0-0.3-0.1-0.4-0.3-0.6s-0.5-0.2-1-0.2h-0.9c-0.4,0-0.6,0.1-0.9,0.3S339.9,346.4,339.9,346.7z
		 M340.5,341.7c0,0.4,0.1,0.7,0.3,0.9c0.2,0.2,0.5,0.3,0.8,0.3c0.7,0,1.1-0.4,1.1-1.2c0-0.4-0.1-0.7-0.3-0.9
		c-0.2-0.2-0.5-0.3-0.8-0.3c-0.4,0-0.6,0.1-0.8,0.3C340.6,341,340.5,341.3,340.5,341.7z"/>
	<path class="st2" d="M345.4,338.2c0-0.2,0.1-0.4,0.2-0.5c0.1-0.1,0.3-0.2,0.5-0.2c0.2,0,0.4,0.1,0.5,0.2c0.1,0.1,0.2,0.3,0.2,0.5
		c0,0.2-0.1,0.4-0.2,0.5c-0.1,0.1-0.3,0.2-0.5,0.2c-0.2,0-0.4-0.1-0.5-0.2C345.5,338.6,345.4,338.5,345.4,338.2z M346.7,345.8h-1.2
		v-5.9h1.2V345.8z"/>
	<path class="st2" d="M351.4,339.7c0.7,0,1.3,0.3,1.7,0.8c0.4,0.5,0.6,1.3,0.6,2.3c0,1-0.2,1.7-0.6,2.3c-0.4,0.5-1,0.8-1.7,0.8
		c-0.7,0-1.3-0.3-1.7-0.8h-0.1l-0.2,0.7h-0.9v-8.4h1.2v2c0,0.1,0,0.4,0,0.7s0,0.5,0,0.6h0.1C350,340,350.6,339.7,351.4,339.7z
		 M351,340.7c-0.5,0-0.9,0.1-1.1,0.4s-0.3,0.8-0.3,1.5v0.1c0,0.7,0.1,1.2,0.3,1.6c0.2,0.3,0.6,0.5,1.1,0.5c0.4,0,0.8-0.2,1-0.5
		c0.2-0.4,0.3-0.9,0.3-1.5C352.4,341.4,352,340.7,351,340.7z"/>
	<path class="st2" d="M356.2,345.8H355v-8.4h1.2V345.8z"/>
	<path class="st2" d="M360.4,345.9c-0.9,0-1.6-0.3-2.1-0.8c-0.5-0.5-0.8-1.3-0.8-2.2c0-1,0.2-1.7,0.7-2.3c0.5-0.6,1.1-0.8,2-0.8
		c0.8,0,1.4,0.2,1.8,0.7c0.5,0.5,0.7,1.1,0.7,2v0.7h-3.9c0,0.6,0.2,1,0.5,1.3c0.3,0.3,0.7,0.5,1.2,0.5c0.3,0,0.7,0,1-0.1
		c0.3-0.1,0.6-0.2,1-0.3v1c-0.3,0.1-0.6,0.3-0.9,0.3C361.2,345.8,360.8,345.9,360.4,345.9z M360.2,340.7c-0.4,0-0.7,0.1-1,0.4
		c-0.2,0.3-0.4,0.6-0.4,1.1h2.7c0-0.5-0.1-0.9-0.4-1.1C360.9,340.8,360.6,340.7,360.2,340.7z"/>
	<path class="st2" d="M363.8,345.1c0-0.3,0.1-0.5,0.2-0.6c0.1-0.1,0.3-0.2,0.6-0.2c0.3,0,0.5,0.1,0.6,0.2c0.1,0.1,0.2,0.3,0.2,0.6
		c0,0.3-0.1,0.5-0.2,0.6c-0.1,0.1-0.3,0.2-0.6,0.2s-0.5-0.1-0.6-0.2S363.8,345.3,363.8,345.1z"/>
	<path class="st2" d="M190.2,373.7c0-0.5,0.1-0.9,0.4-1.1s0.6-0.4,1-0.4c0.4,0,0.8,0.1,1,0.4c0.2,0.3,0.4,0.6,0.4,1.1
		c0,0.5-0.1,0.9-0.4,1.1c-0.2,0.3-0.6,0.4-1,0.4c-0.4,0-0.8-0.1-1-0.4C190.3,374.6,190.2,374.2,190.2,373.7z"/>
	<path class="st2" d="M197.1,377.8v-7.9h1.3v7.9H197.1z"/>
	<path class="st2" d="M205.3,377.8h-1.3v-3.7c0-0.5-0.1-0.8-0.3-1c-0.2-0.2-0.5-0.3-0.9-0.3c-0.5,0-0.9,0.2-1.2,0.5
		s-0.4,0.8-0.4,1.6v3h-1.2v-5.9h1l0.2,0.8h0.1c0.2-0.3,0.4-0.5,0.8-0.7c0.3-0.2,0.7-0.2,1.1-0.2c1.4,0,2.1,0.7,2.1,2.2V377.8z"/>
	<path class="st2" d="M208.9,377.9c-0.7,0-1.3-0.3-1.7-0.8s-0.6-1.3-0.6-2.3c0-1,0.2-1.7,0.6-2.3c0.4-0.5,1-0.8,1.7-0.8
		c0.8,0,1.4,0.3,1.8,0.9h0.1c-0.1-0.4-0.1-0.8-0.1-1v-2.2h1.3v8.4h-1l-0.2-0.8h-0.1C210.3,377.6,209.7,377.9,208.9,377.9z
		 M209.2,376.8c0.5,0,0.9-0.1,1.1-0.4c0.2-0.3,0.4-0.8,0.4-1.4v-0.2c0-0.7-0.1-1.3-0.4-1.6c-0.2-0.3-0.6-0.5-1.1-0.5
		c-0.4,0-0.8,0.2-1,0.5c-0.2,0.4-0.4,0.9-0.4,1.5c0,0.7,0.1,1.2,0.3,1.5S208.8,376.8,209.2,376.8z"/>
	<path class="st2" d="M213.5,370.2c0-0.2,0.1-0.4,0.2-0.5c0.1-0.1,0.3-0.2,0.5-0.2c0.2,0,0.4,0.1,0.5,0.2c0.1,0.1,0.2,0.3,0.2,0.5
		c0,0.2-0.1,0.4-0.2,0.5c-0.1,0.1-0.3,0.2-0.5,0.2c-0.2,0-0.4-0.1-0.5-0.2C213.5,370.6,213.5,370.5,213.5,370.2z M214.8,377.8h-1.2
		v-5.9h1.2V377.8z"/>
	<path class="st2" d="M217.8,377.8l-2.2-5.9h1.3l1.2,3.5c0.2,0.6,0.3,1,0.4,1.4h0c0-0.3,0.2-0.7,0.4-1.4l1.2-3.5h1.3l-2.2,5.9H217.8
		z"/>
	<path class="st2" d="M222,370.2c0-0.2,0.1-0.4,0.2-0.5c0.1-0.1,0.3-0.2,0.5-0.2c0.2,0,0.4,0.1,0.5,0.2c0.1,0.1,0.2,0.3,0.2,0.5
		c0,0.2-0.1,0.4-0.2,0.5c-0.1,0.1-0.3,0.2-0.5,0.2c-0.2,0-0.4-0.1-0.5-0.2C222.1,370.6,222,370.5,222,370.2z M223.4,377.8h-1.2v-5.9
		h1.2V377.8z"/>
	<path class="st2" d="M227,377.9c-0.7,0-1.3-0.3-1.7-0.8s-0.6-1.3-0.6-2.3c0-1,0.2-1.7,0.6-2.3c0.4-0.5,1-0.8,1.7-0.8
		c0.8,0,1.4,0.3,1.8,0.9h0.1c-0.1-0.4-0.1-0.8-0.1-1v-2.2h1.3v8.4h-1l-0.2-0.8h-0.1C228.3,377.6,227.8,377.9,227,377.9z
		 M227.3,376.8c0.5,0,0.9-0.1,1.1-0.4c0.2-0.3,0.4-0.8,0.4-1.4v-0.2c0-0.7-0.1-1.3-0.4-1.6c-0.2-0.3-0.6-0.5-1.1-0.5
		c-0.4,0-0.8,0.2-1,0.5c-0.2,0.4-0.4,0.9-0.4,1.5c0,0.7,0.1,1.2,0.3,1.5S226.9,376.8,227.3,376.8z"/>
	<path class="st2" d="M235.8,377.8l-0.2-0.8h-0.1c-0.2,0.3-0.4,0.5-0.7,0.7c-0.3,0.2-0.7,0.2-1.1,0.2c-0.7,0-1.2-0.2-1.6-0.5
		c-0.4-0.4-0.5-0.9-0.5-1.6v-3.9h1.3v3.7c0,0.5,0.1,0.8,0.3,1c0.2,0.2,0.5,0.3,0.9,0.3c0.5,0,0.9-0.2,1.2-0.5
		c0.2-0.3,0.4-0.8,0.4-1.6v-3h1.3v5.9H235.8z"/>
	<path class="st2" d="M242.1,377.8l-0.2-0.8h0c-0.3,0.4-0.6,0.6-0.9,0.7s-0.7,0.2-1.1,0.2c-0.6,0-1-0.2-1.4-0.5
		c-0.3-0.3-0.5-0.8-0.5-1.3c0-0.6,0.2-1.1,0.7-1.4c0.5-0.3,1.1-0.5,2.1-0.5l1,0v-0.3c0-0.4-0.1-0.7-0.3-0.9
		c-0.2-0.2-0.4-0.3-0.8-0.3c-0.3,0-0.6,0-0.9,0.1c-0.3,0.1-0.5,0.2-0.8,0.3l-0.4-0.9c0.3-0.2,0.7-0.3,1-0.4s0.7-0.1,1.1-0.1
		c0.7,0,1.3,0.2,1.7,0.5c0.4,0.3,0.6,0.8,0.6,1.6v4H242.1z M240.2,376.9c0.5,0,0.8-0.1,1.1-0.4c0.3-0.3,0.4-0.6,0.4-1.1v-0.5l-0.8,0
		c-0.6,0-1,0.1-1.3,0.3c-0.3,0.2-0.4,0.4-0.4,0.8c0,0.3,0.1,0.5,0.2,0.6C239.7,376.8,239.9,376.9,240.2,376.9z"/>
	<path class="st2" d="M245.8,377.8h-1.2v-8.4h1.2V377.8z"/>
	<path class="st2" d="M254.1,376.1c0,0.6-0.2,1-0.6,1.3c-0.4,0.3-1,0.5-1.8,0.5c-0.8,0-1.4-0.1-1.9-0.4v-1.1
		c0.7,0.3,1.3,0.5,1.9,0.5c0.8,0,1.2-0.2,1.2-0.7c0-0.2,0-0.3-0.1-0.4c-0.1-0.1-0.2-0.2-0.4-0.3c-0.2-0.1-0.5-0.2-0.8-0.4
		c-0.7-0.3-1.1-0.5-1.4-0.8c-0.2-0.3-0.4-0.6-0.4-1c0-0.5,0.2-0.9,0.6-1.2s1-0.4,1.7-0.4c0.7,0,1.3,0.1,2,0.4l-0.4,1
		c-0.6-0.3-1.2-0.4-1.6-0.4c-0.7,0-1,0.2-1,0.6c0,0.2,0.1,0.3,0.3,0.5s0.5,0.3,1.1,0.5c0.5,0.2,0.8,0.4,1.1,0.5s0.4,0.3,0.5,0.5
		S254.1,375.8,254.1,376.1z"/>
	<path class="st2" d="M257.5,376.8c0.3,0,0.6,0,0.9-0.1v1c-0.1,0.1-0.3,0.1-0.5,0.2c-0.2,0-0.4,0.1-0.7,0.1c-1.2,0-1.8-0.6-1.8-1.9
		v-3.2h-0.8v-0.6l0.9-0.5l0.4-1.3h0.8v1.3h1.7v1h-1.7v3.2c0,0.3,0.1,0.5,0.2,0.7C257,376.8,257.2,376.8,257.5,376.8z"/>
	<path class="st2" d="M264.6,374.8c0,1-0.2,1.7-0.7,2.3s-1.2,0.8-2.1,0.8c-0.5,0-1-0.1-1.5-0.4c-0.4-0.3-0.7-0.6-1-1.1
		c-0.2-0.5-0.3-1-0.3-1.6c0-1,0.2-1.7,0.7-2.3c0.5-0.5,1.2-0.8,2.1-0.8c0.9,0,1.5,0.3,2,0.8C264.4,373.1,264.6,373.8,264.6,374.8z
		 M260.3,374.8c0,1.4,0.5,2.1,1.5,2.1c1,0,1.5-0.7,1.5-2.1c0-1.4-0.5-2-1.5-2c-0.5,0-0.9,0.2-1.1,0.5S260.3,374.1,260.3,374.8z"/>
	<path class="st2" d="M268.3,377.9c-0.9,0-1.6-0.3-2-0.8c-0.5-0.5-0.7-1.3-0.7-2.3c0-1,0.2-1.8,0.7-2.3s1.2-0.8,2.1-0.8
		c0.6,0,1.2,0.1,1.7,0.3l-0.4,1c-0.5-0.2-1-0.3-1.3-0.3c-1,0-1.5,0.7-1.5,2c0,0.7,0.1,1.2,0.4,1.5s0.6,0.5,1.1,0.5
		c0.6,0,1.1-0.1,1.6-0.4v1.1c-0.2,0.1-0.5,0.2-0.7,0.3S268.6,377.9,268.3,377.9z"/>
	<path class="st2" d="M272.3,374.6l0.7-0.9l1.8-1.9h1.4l-2.4,2.6l2.5,3.4h-1.5l-1.9-2.6l-0.7,0.6v2h-1.2v-8.4h1.2v4.1L272.3,374.6
		L272.3,374.6z"/>
	<path class="st2" d="M281.2,376.1c0,0.6-0.2,1-0.6,1.3c-0.4,0.3-1,0.5-1.8,0.5c-0.8,0-1.4-0.1-1.9-0.4v-1.1
		c0.7,0.3,1.3,0.5,1.9,0.5c0.8,0,1.2-0.2,1.2-0.7c0-0.2,0-0.3-0.1-0.4c-0.1-0.1-0.2-0.2-0.4-0.3c-0.2-0.1-0.5-0.2-0.8-0.4
		c-0.7-0.3-1.1-0.5-1.4-0.8c-0.2-0.3-0.4-0.6-0.4-1c0-0.5,0.2-0.9,0.6-1.2s1-0.4,1.7-0.4c0.7,0,1.3,0.1,2,0.4l-0.4,1
		c-0.6-0.3-1.2-0.4-1.6-0.4c-0.7,0-1,0.2-1,0.6c0,0.2,0.1,0.3,0.3,0.5s0.5,0.3,1.1,0.5c0.5,0.2,0.8,0.4,1.1,0.5s0.4,0.3,0.5,0.5
		S281.2,375.8,281.2,376.1z"/>
	<path class="st2" d="M290,377.8h-1.3v-3.7c0-0.5-0.1-0.8-0.3-1c-0.2-0.2-0.4-0.3-0.8-0.3c-0.5,0-0.8,0.2-1.1,0.5
		c-0.2,0.3-0.3,0.8-0.3,1.6v3H285v-5.9h1l0.2,0.8h0.1c0.2-0.3,0.4-0.5,0.7-0.7c0.3-0.2,0.7-0.2,1-0.2c0.9,0,1.5,0.3,1.8,0.9h0.1
		c0.2-0.3,0.4-0.5,0.7-0.7s0.7-0.2,1.1-0.2c0.7,0,1.2,0.2,1.5,0.5s0.5,0.9,0.5,1.6v3.9h-1.2v-3.7c0-0.5-0.1-0.8-0.3-1
		s-0.4-0.3-0.8-0.3c-0.5,0-0.8,0.2-1.1,0.5c-0.2,0.3-0.3,0.8-0.3,1.4V377.8z"/>
	<path class="st2" d="M299.4,377.8l-0.2-0.8h-0.1c-0.2,0.3-0.4,0.5-0.7,0.7c-0.3,0.2-0.7,0.2-1.1,0.2c-0.7,0-1.2-0.2-1.6-0.5
		c-0.4-0.4-0.5-0.9-0.5-1.6v-3.9h1.3v3.7c0,0.5,0.1,0.8,0.3,1c0.2,0.2,0.5,0.3,0.9,0.3c0.5,0,0.9-0.2,1.2-0.5
		c0.2-0.3,0.4-0.8,0.4-1.6v-3h1.3v5.9H299.4z"/>
	<path class="st2" d="M306,376.1c0,0.6-0.2,1-0.6,1.3c-0.4,0.3-1,0.5-1.8,0.5c-0.8,0-1.4-0.1-1.9-0.4v-1.1c0.7,0.3,1.3,0.5,1.9,0.5
		c0.8,0,1.2-0.2,1.2-0.7c0-0.2,0-0.3-0.1-0.4c-0.1-0.1-0.2-0.2-0.4-0.3c-0.2-0.1-0.5-0.2-0.8-0.4c-0.7-0.3-1.1-0.5-1.4-0.8
		c-0.2-0.3-0.4-0.6-0.4-1c0-0.5,0.2-0.9,0.6-1.2s1-0.4,1.7-0.4c0.7,0,1.3,0.1,2,0.4l-0.4,1c-0.6-0.3-1.2-0.4-1.6-0.4
		c-0.7,0-1,0.2-1,0.6c0,0.2,0.1,0.3,0.3,0.5s0.5,0.3,1.1,0.5c0.5,0.2,0.8,0.4,1.1,0.5s0.4,0.3,0.5,0.5S306,375.8,306,376.1z"/>
	<path class="st2" d="M309.4,376.8c0.3,0,0.6,0,0.9-0.1v1c-0.1,0.1-0.3,0.1-0.5,0.2c-0.2,0-0.4,0.1-0.7,0.1c-1.2,0-1.8-0.6-1.8-1.9
		v-3.2h-0.8v-0.6l0.9-0.5l0.4-1.3h0.8v1.3h1.7v1h-1.7v3.2c0,0.3,0.1,0.5,0.2,0.7C308.9,376.8,309.1,376.8,309.4,376.8z"/>
	<path class="st2" d="M319.2,377.8h-1.3v-3.7c0-0.5-0.1-0.8-0.3-1c-0.2-0.2-0.5-0.3-0.9-0.3c-0.5,0-0.9,0.2-1.2,0.5
		c-0.2,0.3-0.4,0.8-0.4,1.6v2.9H314v-8.4h1.2v2.1c0,0.3,0,0.7-0.1,1.1h0.1c0.2-0.3,0.4-0.5,0.7-0.7s0.7-0.2,1.1-0.2
		c1.4,0,2.1,0.7,2.1,2.2V377.8z"/>
	<path class="st2" d="M324.4,377.8l-0.2-0.8h0c-0.3,0.4-0.6,0.6-0.9,0.7s-0.7,0.2-1.1,0.2c-0.6,0-1-0.2-1.4-0.5
		c-0.3-0.3-0.5-0.8-0.5-1.3c0-0.6,0.2-1.1,0.7-1.4c0.5-0.3,1.1-0.5,2.1-0.5l1,0v-0.3c0-0.4-0.1-0.7-0.3-0.9
		c-0.2-0.2-0.4-0.3-0.8-0.3c-0.3,0-0.6,0-0.9,0.1c-0.3,0.1-0.5,0.2-0.8,0.3l-0.4-0.9c0.3-0.2,0.7-0.3,1-0.4s0.7-0.1,1.1-0.1
		c0.7,0,1.3,0.2,1.7,0.5c0.4,0.3,0.6,0.8,0.6,1.6v4H324.4z M322.6,376.9c0.5,0,0.8-0.1,1.1-0.4c0.3-0.3,0.4-0.6,0.4-1.1v-0.5l-0.8,0
		c-0.6,0-1,0.1-1.3,0.3c-0.3,0.2-0.4,0.4-0.4,0.8c0,0.3,0.1,0.5,0.2,0.6C322,376.8,322.3,376.9,322.6,376.9z"/>
	<path class="st2" d="M328.3,377.8l-2.2-5.9h1.3l1.2,3.5c0.2,0.6,0.3,1,0.4,1.4h0c0-0.3,0.2-0.7,0.4-1.4l1.2-3.5h1.3l-2.2,5.9H328.3
		z"/>
	<path class="st2" d="M335.2,377.9c-0.9,0-1.6-0.3-2.1-0.8c-0.5-0.5-0.8-1.3-0.8-2.2c0-1,0.2-1.7,0.7-2.3c0.5-0.6,1.1-0.8,2-0.8
		c0.8,0,1.4,0.2,1.8,0.7c0.5,0.5,0.7,1.1,0.7,2v0.7h-3.9c0,0.6,0.2,1,0.5,1.3c0.3,0.3,0.7,0.5,1.2,0.5c0.3,0,0.7,0,1-0.1
		c0.3-0.1,0.6-0.2,1-0.3v1c-0.3,0.1-0.6,0.3-0.9,0.3C335.9,377.8,335.6,377.9,335.2,377.9z M334.9,372.7c-0.4,0-0.7,0.1-1,0.4
		c-0.2,0.3-0.4,0.6-0.4,1.1h2.7c0-0.5-0.1-0.9-0.4-1.1C335.6,372.8,335.3,372.7,334.9,372.7z"/>
	<path class="st2" d="M345.1,377.8l-0.2-0.8h0c-0.3,0.4-0.6,0.6-0.9,0.7s-0.7,0.2-1.1,0.2c-0.6,0-1-0.2-1.4-0.5
		c-0.3-0.3-0.5-0.8-0.5-1.3c0-0.6,0.2-1.1,0.7-1.4c0.5-0.3,1.1-0.5,2.1-0.5l1,0v-0.3c0-0.4-0.1-0.7-0.3-0.9
		c-0.2-0.2-0.4-0.3-0.8-0.3c-0.3,0-0.6,0-0.9,0.1c-0.3,0.1-0.5,0.2-0.8,0.3l-0.4-0.9c0.3-0.2,0.7-0.3,1-0.4s0.7-0.1,1.1-0.1
		c0.7,0,1.3,0.2,1.7,0.5c0.4,0.3,0.6,0.8,0.6,1.6v4H345.1z M343.2,376.9c0.5,0,0.8-0.1,1.1-0.4c0.3-0.3,0.4-0.6,0.4-1.1v-0.5l-0.8,0
		c-0.6,0-1,0.1-1.3,0.3c-0.3,0.2-0.4,0.4-0.4,0.8c0,0.3,0.1,0.5,0.2,0.6C342.7,376.8,342.9,376.9,343.2,376.9z"/>
	<path class="st2" d="M355.2,377.8h-1.3v-3.7c0-0.5-0.1-0.8-0.3-1c-0.2-0.2-0.4-0.3-0.8-0.3c-0.5,0-0.8,0.2-1.1,0.5
		c-0.2,0.3-0.3,0.8-0.3,1.6v3h-1.2v-5.9h1l0.2,0.8h0.1c0.2-0.3,0.4-0.5,0.7-0.7c0.3-0.2,0.7-0.2,1-0.2c0.9,0,1.5,0.3,1.8,0.9h0.1
		c0.2-0.3,0.4-0.5,0.7-0.7s0.7-0.2,1.1-0.2c0.7,0,1.2,0.2,1.5,0.5s0.5,0.9,0.5,1.6v3.9h-1.2v-3.7c0-0.5-0.1-0.8-0.3-1
		s-0.4-0.3-0.8-0.3c-0.5,0-0.8,0.2-1.1,0.5c-0.2,0.3-0.3,0.8-0.3,1.4V377.8z"/>
	<path class="st2" d="M360.4,370.2c0-0.2,0.1-0.4,0.2-0.5c0.1-0.1,0.3-0.2,0.5-0.2c0.2,0,0.4,0.1,0.5,0.2c0.1,0.1,0.2,0.3,0.2,0.5
		c0,0.2-0.1,0.4-0.2,0.5c-0.1,0.1-0.3,0.2-0.5,0.2c-0.2,0-0.4-0.1-0.5-0.2C360.5,370.6,360.4,370.5,360.4,370.2z M361.7,377.8h-1.2
		v-5.9h1.2V377.8z"/>
	<path class="st2" d="M368.6,377.8h-1.3v-3.7c0-0.5-0.1-0.8-0.3-1c-0.2-0.2-0.5-0.3-0.9-0.3c-0.5,0-0.9,0.2-1.2,0.5
		s-0.4,0.8-0.4,1.6v3h-1.2v-5.9h1l0.2,0.8h0.1c0.2-0.3,0.4-0.5,0.8-0.7c0.3-0.2,0.7-0.2,1.1-0.2c1.4,0,2.1,0.7,2.1,2.2V377.8z"/>
	<path class="st2" d="M370.1,370.2c0-0.2,0.1-0.4,0.2-0.5c0.1-0.1,0.3-0.2,0.5-0.2c0.2,0,0.4,0.1,0.5,0.2c0.1,0.1,0.2,0.3,0.2,0.5
		c0,0.2-0.1,0.4-0.2,0.5c-0.1,0.1-0.3,0.2-0.5,0.2c-0.2,0-0.4-0.1-0.5-0.2C370.1,370.6,370.1,370.5,370.1,370.2z M371.4,377.8h-1.2
		v-5.9h1.2V377.8z"/>
	<path class="st2" d="M378,377.8h-1.3v-3.7c0-0.5-0.1-0.8-0.3-1c-0.2-0.2-0.4-0.3-0.8-0.3c-0.5,0-0.8,0.2-1.1,0.5
		c-0.2,0.3-0.3,0.8-0.3,1.6v3H373v-5.9h1l0.2,0.8h0.1c0.2-0.3,0.4-0.5,0.7-0.7c0.3-0.2,0.7-0.2,1-0.2c0.9,0,1.5,0.3,1.8,0.9h0.1
		c0.2-0.3,0.4-0.5,0.7-0.7s0.7-0.2,1.1-0.2c0.7,0,1.2,0.2,1.5,0.5s0.5,0.9,0.5,1.6v3.9h-1.2v-3.7c0-0.5-0.1-0.8-0.3-1
		s-0.4-0.3-0.8-0.3c-0.5,0-0.8,0.2-1.1,0.5c-0.2,0.3-0.3,0.8-0.3,1.4V377.8z"/>
	<path class="st2" d="M387.4,377.8l-0.2-0.8h-0.1c-0.2,0.3-0.4,0.5-0.7,0.7c-0.3,0.2-0.7,0.2-1.1,0.2c-0.7,0-1.2-0.2-1.6-0.5
		c-0.4-0.4-0.5-0.9-0.5-1.6v-3.9h1.3v3.7c0,0.5,0.1,0.8,0.3,1c0.2,0.2,0.5,0.3,0.9,0.3c0.5,0,0.9-0.2,1.2-0.5
		c0.2-0.3,0.4-0.8,0.4-1.6v-3h1.3v5.9H387.4z"/>
	<path class="st2" d="M395,377.8h-1.3v-3.7c0-0.5-0.1-0.8-0.3-1c-0.2-0.2-0.4-0.3-0.8-0.3c-0.5,0-0.8,0.2-1.1,0.5
		c-0.2,0.3-0.3,0.8-0.3,1.6v3H390v-5.9h1l0.2,0.8h0.1c0.2-0.3,0.4-0.5,0.7-0.7c0.3-0.2,0.7-0.2,1-0.2c0.9,0,1.5,0.3,1.8,0.9h0.1
		c0.2-0.3,0.4-0.5,0.7-0.7s0.7-0.2,1.1-0.2c0.7,0,1.2,0.2,1.5,0.5s0.5,0.9,0.5,1.6v3.9h-1.2v-3.7c0-0.5-0.1-0.8-0.3-1
		s-0.4-0.3-0.8-0.3c-0.5,0-0.8,0.2-1.1,0.5c-0.2,0.3-0.3,0.8-0.3,1.4V377.8z"/>
	<path class="st2" d="M197.5,390.8c0,1-0.2,1.7-0.7,2.3s-1.2,0.8-2.1,0.8c-0.5,0-1-0.1-1.5-0.4c-0.4-0.3-0.7-0.6-1-1.1
		c-0.2-0.5-0.3-1-0.3-1.6c0-1,0.2-1.7,0.7-2.3c0.5-0.5,1.2-0.8,2.1-0.8c0.9,0,1.5,0.3,2,0.8C197.2,389.1,197.5,389.8,197.5,390.8z
		 M193.2,390.8c0,1.4,0.5,2.1,1.5,2.1c1,0,1.5-0.7,1.5-2.1c0-1.4-0.5-2-1.5-2c-0.5,0-0.9,0.2-1.1,0.5S193.2,390.1,193.2,390.8z"/>
	<path class="st2" d="M201.7,388.8h-1.4v5H199v-5h-1v-0.6l1-0.4v-0.4c0-0.7,0.2-1.2,0.5-1.6c0.3-0.3,0.8-0.5,1.5-0.5
		c0.4,0,0.9,0.1,1.3,0.2l-0.3,1c-0.3-0.1-0.6-0.2-0.9-0.2c-0.3,0-0.5,0.1-0.6,0.3c-0.1,0.2-0.2,0.4-0.2,0.8v0.4h1.4V388.8z"/>
	<path class="st2" d="M210,391.3c0,0.5-0.2,0.9-0.6,1.3c-0.4,0.3-0.9,0.5-1.6,0.6v1.2h-0.7v-1.1c-0.9,0-1.6-0.2-2.2-0.4v-1.1
		c0.3,0.2,0.7,0.3,1.1,0.4c0.4,0.1,0.8,0.2,1.1,0.2v-2l-0.4-0.2c-0.6-0.2-1-0.5-1.3-0.8s-0.4-0.7-0.4-1.2c0-0.5,0.2-0.9,0.6-1.2
		c0.4-0.3,0.9-0.5,1.5-0.6v-0.9h0.7v0.9c0.7,0,1.4,0.2,2,0.4l-0.4,1c-0.6-0.2-1.1-0.4-1.7-0.4v2l0.4,0.2c0.7,0.3,1.1,0.5,1.4,0.8
		C209.8,390.6,210,390.9,210,391.3z M206.2,388.1c0,0.2,0.1,0.4,0.2,0.5c0.1,0.1,0.4,0.3,0.7,0.4v-1.7c-0.3,0-0.5,0.1-0.6,0.3
		C206.3,387.7,206.2,387.9,206.2,388.1z M208.7,391.4c0-0.2-0.1-0.4-0.2-0.5c-0.1-0.1-0.4-0.3-0.7-0.4v1.7
		C208.4,392.1,208.7,391.9,208.7,391.4z"/>
	<path class="st2" d="M214.5,393.8h-1.2v-5.1c0-0.6,0-1.1,0-1.4c-0.1,0.1-0.2,0.2-0.3,0.3c-0.1,0.1-0.5,0.4-1.2,1l-0.6-0.8l2.3-1.8
		h1V393.8z"/>
	<path class="st2" d="M222.2,389.8c0,1.4-0.2,2.4-0.7,3c-0.4,0.7-1.1,1-2,1c-0.9,0-1.5-0.3-2-1c-0.4-0.7-0.7-1.7-0.7-3
		c0-1.4,0.2-2.4,0.7-3.1c0.4-0.7,1.1-1,2-1c0.9,0,1.5,0.3,2,1S222.2,388.5,222.2,389.8z M218.2,389.8c0,1.1,0.1,1.8,0.3,2.3
		c0.2,0.5,0.6,0.7,1,0.7s0.8-0.2,1.1-0.7c0.2-0.5,0.3-1.2,0.3-2.3c0-1.1-0.1-1.8-0.3-2.3c-0.2-0.5-0.6-0.7-1.1-0.7s-0.8,0.2-1,0.7
		C218.3,388,218.2,388.8,218.2,389.8z"/>
	<path class="st2" d="M228.3,389.8c0,1.4-0.2,2.4-0.7,3c-0.4,0.7-1.1,1-2,1c-0.9,0-1.5-0.3-2-1c-0.4-0.7-0.7-1.7-0.7-3
		c0-1.4,0.2-2.4,0.7-3.1c0.4-0.7,1.1-1,2-1c0.9,0,1.5,0.3,2,1S228.3,388.5,228.3,389.8z M224.2,389.8c0,1.1,0.1,1.8,0.3,2.3
		c0.2,0.5,0.6,0.7,1,0.7s0.8-0.2,1.1-0.7c0.2-0.5,0.3-1.2,0.3-2.3c0-1.1-0.1-1.8-0.3-2.3c-0.2-0.5-0.6-0.7-1.1-0.7s-0.8,0.2-1,0.7
		C224.3,388,224.2,388.8,224.2,389.8z"/>
	<path class="st2" d="M237.1,393.8h-1.3v-3.7c0-0.5-0.1-0.8-0.3-1c-0.2-0.2-0.4-0.3-0.8-0.3c-0.5,0-0.8,0.2-1.1,0.5
		c-0.2,0.3-0.3,0.8-0.3,1.6v3h-1.2v-5.9h1l0.2,0.8h0.1c0.2-0.3,0.4-0.5,0.7-0.7c0.3-0.2,0.7-0.2,1-0.2c0.9,0,1.5,0.3,1.8,0.9h0.1
		c0.2-0.3,0.4-0.5,0.7-0.7s0.7-0.2,1.1-0.2c0.7,0,1.2,0.2,1.5,0.5s0.5,0.9,0.5,1.6v3.9h-1.2v-3.7c0-0.5-0.1-0.8-0.3-1
		s-0.4-0.3-0.8-0.3c-0.5,0-0.8,0.2-1.1,0.5c-0.2,0.3-0.3,0.8-0.3,1.4V393.8z"/>
	<path class="st2" d="M242.3,386.2c0-0.2,0.1-0.4,0.2-0.5c0.1-0.1,0.3-0.2,0.5-0.2c0.2,0,0.4,0.1,0.5,0.2c0.1,0.1,0.2,0.3,0.2,0.5
		c0,0.2-0.1,0.4-0.2,0.5c-0.1,0.1-0.3,0.2-0.5,0.2c-0.2,0-0.4-0.1-0.5-0.2C242.4,386.6,242.3,386.5,242.3,386.2z M243.6,393.8h-1.2
		v-5.9h1.2V393.8z"/>
	<path class="st2" d="M246.5,393.8h-1.2v-8.4h1.2V393.8z"/>
	<path class="st2" d="M249.4,393.8h-1.2v-8.4h1.2V393.8z"/>
	<path class="st2" d="M251,386.2c0-0.2,0.1-0.4,0.2-0.5c0.1-0.1,0.3-0.2,0.5-0.2c0.2,0,0.4,0.1,0.5,0.2c0.1,0.1,0.2,0.3,0.2,0.5
		c0,0.2-0.1,0.4-0.2,0.5c-0.1,0.1-0.3,0.2-0.5,0.2c-0.2,0-0.4-0.1-0.5-0.2C251,386.6,251,386.5,251,386.2z M252.3,393.8H251v-5.9
		h1.2V393.8z"/>
	<path class="st2" d="M259.1,390.8c0,1-0.2,1.7-0.7,2.3s-1.2,0.8-2.1,0.8c-0.5,0-1-0.1-1.5-0.4c-0.4-0.3-0.7-0.6-1-1.1
		c-0.2-0.5-0.3-1-0.3-1.6c0-1,0.2-1.7,0.7-2.3c0.5-0.5,1.2-0.8,2.1-0.8c0.9,0,1.5,0.3,2,0.8C258.9,389.1,259.1,389.8,259.1,390.8z
		 M254.9,390.8c0,1.4,0.5,2.1,1.5,2.1c1,0,1.5-0.7,1.5-2.1c0-1.4-0.5-2-1.5-2c-0.5,0-0.9,0.2-1.1,0.5S254.9,390.1,254.9,390.8z"/>
	<path class="st2" d="M265.6,393.8h-1.3v-3.7c0-0.5-0.1-0.8-0.3-1c-0.2-0.2-0.5-0.3-0.9-0.3c-0.5,0-0.9,0.2-1.2,0.5
		s-0.4,0.8-0.4,1.6v3h-1.2v-5.9h1l0.2,0.8h0.1c0.2-0.3,0.4-0.5,0.8-0.7c0.3-0.2,0.7-0.2,1.1-0.2c1.4,0,2.1,0.7,2.1,2.2V393.8z"/>
	<path class="st2" d="M274.8,393.8h-1.3v-3.7c0-0.5-0.1-0.8-0.3-1c-0.2-0.2-0.4-0.3-0.8-0.3c-0.5,0-0.8,0.2-1.1,0.5
		c-0.2,0.3-0.3,0.8-0.3,1.6v3h-1.2v-5.9h1l0.2,0.8h0.1c0.2-0.3,0.4-0.5,0.7-0.7c0.3-0.2,0.7-0.2,1-0.2c0.9,0,1.5,0.3,1.8,0.9h0.1
		c0.2-0.3,0.4-0.5,0.7-0.7s0.7-0.2,1.1-0.2c0.7,0,1.2,0.2,1.5,0.5s0.5,0.9,0.5,1.6v3.9h-1.2v-3.7c0-0.5-0.1-0.8-0.3-1
		s-0.4-0.3-0.8-0.3c-0.5,0-0.8,0.2-1.1,0.5c-0.2,0.3-0.3,0.8-0.3,1.4V393.8z"/>
	<path class="st2" d="M283.8,393.8l-0.2-0.8h0c-0.3,0.4-0.6,0.6-0.9,0.7s-0.7,0.2-1.1,0.2c-0.6,0-1-0.2-1.4-0.5
		c-0.3-0.3-0.5-0.8-0.5-1.3c0-0.6,0.2-1.1,0.7-1.4c0.5-0.3,1.1-0.5,2.1-0.5l1,0v-0.3c0-0.4-0.1-0.7-0.3-0.9
		c-0.2-0.2-0.4-0.3-0.8-0.3c-0.3,0-0.6,0-0.9,0.1c-0.3,0.1-0.5,0.2-0.8,0.3l-0.4-0.9c0.3-0.2,0.7-0.3,1-0.4s0.7-0.1,1.1-0.1
		c0.7,0,1.3,0.2,1.7,0.5c0.4,0.3,0.6,0.8,0.6,1.6v4H283.8z M281.9,392.9c0.5,0,0.8-0.1,1.1-0.4c0.3-0.3,0.4-0.6,0.4-1.1v-0.5l-0.8,0
		c-0.6,0-1,0.1-1.3,0.3c-0.3,0.2-0.4,0.4-0.4,0.8c0,0.3,0.1,0.5,0.2,0.6C281.4,392.8,281.6,392.9,281.9,392.9z"/>
	<path class="st2" d="M289.3,387.7c0.3,0,0.5,0,0.6,0.1l-0.1,1.2c-0.2,0-0.4-0.1-0.6-0.1c-0.5,0-0.9,0.2-1.2,0.5
		c-0.3,0.3-0.5,0.8-0.5,1.3v3.1h-1.2v-5.9h1l0.2,1h0.1c0.2-0.4,0.4-0.6,0.8-0.8C288.6,387.8,288.9,387.7,289.3,387.7z"/>
	<path class="st2" d="M292,390.6l0.7-0.9l1.8-1.9h1.4l-2.4,2.6l2.5,3.4h-1.5l-1.9-2.6l-0.7,0.6v2h-1.2v-8.4h1.2v4.1L292,390.6
		L292,390.6z"/>
	<path class="st2" d="M299.5,393.9c-0.9,0-1.6-0.3-2.1-0.8c-0.5-0.5-0.8-1.3-0.8-2.2c0-1,0.2-1.7,0.7-2.3c0.5-0.6,1.1-0.8,2-0.8
		c0.8,0,1.4,0.2,1.8,0.7c0.5,0.5,0.7,1.1,0.7,2v0.7h-3.9c0,0.6,0.2,1,0.5,1.3c0.3,0.3,0.7,0.5,1.2,0.5c0.3,0,0.7,0,1-0.1
		c0.3-0.1,0.6-0.2,1-0.3v1c-0.3,0.1-0.6,0.3-0.9,0.3C300.2,393.8,299.9,393.9,299.5,393.9z M299.2,388.7c-0.4,0-0.7,0.1-1,0.4
		c-0.2,0.3-0.4,0.6-0.4,1.1h2.7c0-0.5-0.1-0.9-0.4-1.1C300,388.8,299.6,388.7,299.2,388.7z"/>
	<path class="st2" d="M305.2,392.8c0.3,0,0.6,0,0.9-0.1v1c-0.1,0.1-0.3,0.1-0.5,0.2c-0.2,0-0.4,0.1-0.7,0.1c-1.2,0-1.8-0.6-1.8-1.9
		v-3.2h-0.8v-0.6l0.9-0.5l0.4-1.3h0.8v1.3h1.7v1h-1.7v3.2c0,0.3,0.1,0.5,0.2,0.7C304.8,392.8,305,392.8,305.2,392.8z"/>
	<path class="st2" d="M312.2,393.9c-0.9,0-1.6-0.3-2-0.8c-0.5-0.5-0.7-1.3-0.7-2.3c0-1,0.2-1.8,0.7-2.3s1.2-0.8,2.1-0.8
		c0.6,0,1.2,0.1,1.7,0.3l-0.4,1c-0.5-0.2-1-0.3-1.3-0.3c-1,0-1.5,0.7-1.5,2c0,0.7,0.1,1.2,0.4,1.5s0.6,0.5,1.1,0.5
		c0.6,0,1.1-0.1,1.6-0.4v1.1c-0.2,0.1-0.5,0.2-0.7,0.3S312.6,393.9,312.2,393.9z"/>
	<path class="st2" d="M318.8,393.8l-0.2-0.8h0c-0.3,0.4-0.6,0.6-0.9,0.7s-0.7,0.2-1.1,0.2c-0.6,0-1-0.2-1.4-0.5
		c-0.3-0.3-0.5-0.8-0.5-1.3c0-0.6,0.2-1.1,0.7-1.4c0.5-0.3,1.1-0.5,2.1-0.5l1,0v-0.3c0-0.4-0.1-0.7-0.3-0.9
		c-0.2-0.2-0.4-0.3-0.8-0.3c-0.3,0-0.6,0-0.9,0.1c-0.3,0.1-0.5,0.2-0.8,0.3l-0.4-0.9c0.3-0.2,0.7-0.3,1-0.4s0.7-0.1,1.1-0.1
		c0.7,0,1.3,0.2,1.7,0.5c0.4,0.3,0.6,0.8,0.6,1.6v4H318.8z M316.9,392.9c0.5,0,0.8-0.1,1.1-0.4c0.3-0.3,0.4-0.6,0.4-1.1v-0.5l-0.8,0
		c-0.6,0-1,0.1-1.3,0.3c-0.3,0.2-0.4,0.4-0.4,0.8c0,0.3,0.1,0.5,0.2,0.6C316.3,392.8,316.6,392.9,316.9,392.9z"/>
	<path class="st2" d="M324.2,393.9c-0.7,0-1.3-0.3-1.7-0.8h-0.1c0,0.5,0.1,0.8,0.1,0.9v2.4h-1.2v-8.6h1c0,0.1,0.1,0.4,0.2,0.8h0.1
		c0.4-0.6,1-0.9,1.8-0.9c0.7,0,1.3,0.3,1.7,0.8c0.4,0.5,0.6,1.3,0.6,2.3c0,1-0.2,1.7-0.6,2.3C325.5,393.6,325,393.9,324.2,393.9z
		 M323.9,388.7c-0.5,0-0.9,0.1-1.1,0.4s-0.3,0.8-0.3,1.4v0.2c0,0.7,0.1,1.2,0.3,1.6c0.2,0.3,0.6,0.5,1.1,0.5c0.4,0,0.8-0.2,1-0.5
		s0.4-0.9,0.4-1.5c0-0.7-0.1-1.2-0.3-1.5C324.7,388.9,324.4,388.7,323.9,388.7z"/>
	<path class="st2" d="M332.7,392.8c0.3,0,0.6,0,0.9-0.1v1c-0.1,0.1-0.3,0.1-0.5,0.2c-0.2,0-0.4,0.1-0.7,0.1c-1.2,0-1.8-0.6-1.8-1.9
		v-3.2h-0.8v-0.6l0.9-0.5l0.4-1.3h0.8v1.3h1.7v1h-1.7v3.2c0,0.3,0.1,0.5,0.2,0.7C332.3,392.8,332.5,392.8,332.7,392.8z"/>
	<path class="st2" d="M339.9,390.8c0,1-0.2,1.7-0.7,2.3s-1.2,0.8-2.1,0.8c-0.5,0-1-0.1-1.5-0.4c-0.4-0.3-0.7-0.6-1-1.1
		c-0.2-0.5-0.3-1-0.3-1.6c0-1,0.2-1.7,0.7-2.3c0.5-0.5,1.2-0.8,2.1-0.8c0.9,0,1.5,0.3,2,0.8C339.6,389.1,339.9,389.8,339.9,390.8z
		 M335.6,390.8c0,1.4,0.5,2.1,1.5,2.1c1,0,1.5-0.7,1.5-2.1c0-1.4-0.5-2-1.5-2c-0.5,0-0.9,0.2-1.1,0.5S335.6,390.1,335.6,390.8z"/>
	<path class="st2" d="M346.9,387.7c0.7,0,1.3,0.3,1.7,0.8c0.4,0.5,0.6,1.3,0.6,2.3c0,1-0.2,1.7-0.6,2.3c-0.4,0.5-1,0.8-1.7,0.8
		c-0.7,0-1.3-0.3-1.7-0.8H345l-0.2,0.7h-0.9v-8.4h1.2v2c0,0.1,0,0.4,0,0.7s0,0.5,0,0.6h0.1C345.5,388,346.1,387.7,346.9,387.7z
		 M346.5,388.7c-0.5,0-0.9,0.1-1.1,0.4s-0.3,0.8-0.3,1.5v0.1c0,0.7,0.1,1.2,0.3,1.6c0.2,0.3,0.6,0.5,1.1,0.5c0.4,0,0.8-0.2,1-0.5
		c0.2-0.4,0.3-0.9,0.3-1.5C347.9,389.4,347.4,388.7,346.5,388.7z"/>
	<path class="st2" d="M353,393.9c-0.9,0-1.6-0.3-2.1-0.8c-0.5-0.5-0.8-1.3-0.8-2.2c0-1,0.2-1.7,0.7-2.3c0.5-0.6,1.1-0.8,2-0.8
		c0.8,0,1.4,0.2,1.8,0.7c0.5,0.5,0.7,1.1,0.7,2v0.7h-3.9c0,0.6,0.2,1,0.5,1.3c0.3,0.3,0.7,0.5,1.2,0.5c0.3,0,0.7,0,1-0.1
		c0.3-0.1,0.6-0.2,1-0.3v1c-0.3,0.1-0.6,0.3-0.9,0.3C353.8,393.8,353.5,393.9,353,393.9z M352.8,388.7c-0.4,0-0.7,0.1-1,0.4
		c-0.2,0.3-0.4,0.6-0.4,1.1h2.7c0-0.5-0.1-0.9-0.4-1.1C353.5,388.8,353.2,388.7,352.8,388.7z"/>
	<path class="st2" d="M361.8,393.9c-0.9,0-1.6-0.3-2.1-0.8c-0.5-0.5-0.8-1.3-0.8-2.2c0-1,0.2-1.7,0.7-2.3c0.5-0.6,1.1-0.8,2-0.8
		c0.8,0,1.4,0.2,1.8,0.7c0.5,0.5,0.7,1.1,0.7,2v0.7h-3.9c0,0.6,0.2,1,0.5,1.3c0.3,0.3,0.7,0.5,1.2,0.5c0.3,0,0.7,0,1-0.1
		c0.3-0.1,0.6-0.2,1-0.3v1c-0.3,0.1-0.6,0.3-0.9,0.3C362.6,393.8,362.2,393.9,361.8,393.9z M361.6,388.7c-0.4,0-0.7,0.1-1,0.4
		c-0.2,0.3-0.4,0.6-0.4,1.1h2.7c0-0.5-0.1-0.9-0.4-1.1C362.3,388.8,362,388.7,361.6,388.7z"/>
	<path class="st2" d="M366.7,393.8h-1.2v-8.4h1.2V393.8z"/>
	<path class="st2" d="M368.2,386.2c0-0.2,0.1-0.4,0.2-0.5c0.1-0.1,0.3-0.2,0.5-0.2c0.2,0,0.4,0.1,0.5,0.2c0.1,0.1,0.2,0.3,0.2,0.5
		c0,0.2-0.1,0.4-0.2,0.5c-0.1,0.1-0.3,0.2-0.5,0.2c-0.2,0-0.4-0.1-0.5-0.2C368.3,386.6,368.2,386.5,368.2,386.2z M369.5,393.8h-1.2
		v-5.9h1.2V393.8z"/>
	<path class="st2" d="M376.1,387.8v0.7l-1,0.2c0.1,0.1,0.2,0.3,0.2,0.5c0.1,0.2,0.1,0.4,0.1,0.6c0,0.6-0.2,1.1-0.6,1.4
		c-0.4,0.4-1,0.5-1.7,0.5c-0.2,0-0.4,0-0.5,0c-0.3,0.2-0.4,0.4-0.4,0.6c0,0.1,0.1,0.2,0.2,0.3s0.4,0.1,0.7,0.1h1
		c0.6,0,1.1,0.1,1.5,0.4c0.3,0.3,0.5,0.7,0.5,1.2c0,0.7-0.3,1.2-0.8,1.6s-1.3,0.5-2.4,0.5c-0.8,0-1.4-0.1-1.8-0.4s-0.6-0.7-0.6-1.2
		c0-0.4,0.1-0.7,0.3-0.9s0.5-0.4,1-0.5c-0.2-0.1-0.3-0.2-0.4-0.3c-0.1-0.2-0.2-0.3-0.2-0.5c0-0.2,0.1-0.4,0.2-0.6
		c0.1-0.2,0.3-0.3,0.6-0.5c-0.3-0.1-0.6-0.3-0.7-0.6c-0.2-0.3-0.3-0.6-0.3-1c0-0.6,0.2-1.1,0.6-1.5c0.4-0.4,1-0.5,1.7-0.5
		c0.2,0,0.3,0,0.5,0s0.3,0,0.4,0.1H376.1z M371.5,394.7c0,0.3,0.1,0.5,0.4,0.6c0.2,0.1,0.6,0.2,1,0.2c0.7,0,1.2-0.1,1.5-0.3
		c0.3-0.2,0.5-0.5,0.5-0.8c0-0.3-0.1-0.4-0.3-0.6s-0.5-0.2-1-0.2h-0.9c-0.4,0-0.6,0.1-0.9,0.3S371.5,394.4,371.5,394.7z
		 M372.1,389.7c0,0.4,0.1,0.7,0.3,0.9c0.2,0.2,0.5,0.3,0.8,0.3c0.7,0,1.1-0.4,1.1-1.2c0-0.4-0.1-0.7-0.3-0.9
		c-0.2-0.2-0.5-0.3-0.8-0.3c-0.4,0-0.6,0.1-0.8,0.3C372.1,389,372.1,389.3,372.1,389.7z"/>
	<path class="st2" d="M377,386.2c0-0.2,0.1-0.4,0.2-0.5c0.1-0.1,0.3-0.2,0.5-0.2c0.2,0,0.4,0.1,0.5,0.2c0.1,0.1,0.2,0.3,0.2,0.5
		c0,0.2-0.1,0.4-0.2,0.5c-0.1,0.1-0.3,0.2-0.5,0.2c-0.2,0-0.4-0.1-0.5-0.2C377.1,386.6,377,386.5,377,386.2z M378.3,393.8h-1.2v-5.9
		h1.2V393.8z"/>
	<path class="st2" d="M383,387.7c0.7,0,1.3,0.3,1.7,0.8c0.4,0.5,0.6,1.3,0.6,2.3c0,1-0.2,1.7-0.6,2.3c-0.4,0.5-1,0.8-1.7,0.8
		c-0.7,0-1.3-0.3-1.7-0.8h-0.1l-0.2,0.7H380v-8.4h1.2v2c0,0.1,0,0.4,0,0.7s0,0.5,0,0.6h0.1C381.6,388,382.2,387.7,383,387.7z
		 M382.6,388.7c-0.5,0-0.9,0.1-1.1,0.4s-0.3,0.8-0.3,1.5v0.1c0,0.7,0.1,1.2,0.3,1.6c0.2,0.3,0.6,0.5,1.1,0.5c0.4,0,0.8-0.2,1-0.5
		c0.2-0.4,0.3-0.9,0.3-1.5C384,389.4,383.6,388.7,382.6,388.7z"/>
	<path class="st2" d="M387.8,393.8h-1.2v-8.4h1.2V393.8z"/>
	<path class="st2" d="M392,393.9c-0.9,0-1.6-0.3-2.1-0.8c-0.5-0.5-0.8-1.3-0.8-2.2c0-1,0.2-1.7,0.7-2.3c0.5-0.6,1.1-0.8,2-0.8
		c0.8,0,1.4,0.2,1.8,0.7c0.5,0.5,0.7,1.1,0.7,2v0.7h-3.9c0,0.6,0.2,1,0.5,1.3c0.3,0.3,0.7,0.5,1.2,0.5c0.3,0,0.7,0,1-0.1
		c0.3-0.1,0.6-0.2,1-0.3v1c-0.3,0.1-0.6,0.3-0.9,0.3C392.8,393.8,392.4,393.9,392,393.9z M391.8,388.7c-0.4,0-0.7,0.1-1,0.4
		c-0.2,0.3-0.4,0.6-0.4,1.1h2.7c0-0.5-0.1-0.9-0.4-1.1C392.5,388.8,392.2,388.7,391.8,388.7z"/>
	<path class="st2" d="M395.4,393.1c0-0.3,0.1-0.5,0.2-0.6c0.1-0.1,0.3-0.2,0.6-0.2c0.3,0,0.5,0.1,0.6,0.2c0.1,0.1,0.2,0.3,0.2,0.6
		c0,0.3-0.1,0.5-0.2,0.6c-0.1,0.1-0.3,0.2-0.6,0.2s-0.5-0.1-0.6-0.2S395.4,393.3,395.4,393.1z"/>
</g>
</svg>
