<?xml version="1.0" encoding="utf-8"?>
<!-- Generator: Adobe Illustrator 24.3.0, SVG Export Plug-In . SVG Version: 6.00 Build 0)  -->
<svg version="1.1" id="Layer_1" xmlns="http://www.w3.org/2000/svg" xmlns:xlink="http://www.w3.org/1999/xlink" x="0px" y="0px"
	 viewBox="0 0 100 100" style="enable-background:new 0 0 100 100;" xml:space="preserve">
<style type="text/css">
	.st0{fill:none;stroke:#FFFFFF;stroke-width:4;stroke-linecap:round;stroke-linejoin:round;stroke-miterlimit:10;}
</style>
<g>
	<polyline class="st0" points="5.6,18.4 5.6,94 79.5,94 	"/>
	<polyline class="st0" points="17.9,93.1 17.9,68.7 25.3,68.7 25.3,93.1 	"/>
	<polyline class="st0" points="33.1,93.1 33.1,57.7 40.4,57.7 40.4,93.1 	"/>
	<polyline class="st0" points="48.4,93.1 48.4,64.7 55.7,64.7 55.7,93.1 	"/>
	<polyline class="st0" points="63.8,93.1 63.8,50.7 71.1,50.7 71.1,93.1 	"/>
	<line class="st0" x1="23.5" y1="51.6" x2="29.9" y2="43.2"/>
	<polyline class="st0" points="52.5,42.9 70.3,21.3 59.9,23.8 	"/>
	<line class="st0" x1="43.8" y1="44.4" x2="37.6" y2="40.5"/>
	<circle class="st0" cx="20.5" cy="55.4" r="4"/>
	<circle class="st0" cx="33.1" cy="38.7" r="4"/>
	<circle class="st0" cx="49" cy="47.3" r="4"/>
	<line class="st0" x1="71.1" y1="32.1" x2="70.3" y2="21.3"/>
	<circle class="st0" cx="68.1" cy="24.2" r="18.2"/>
	<path class="st0" d="M94.1,60.5l-8.7-15.1l-9.1,4.9l8.4,15.6c0,0,2.2,3.4,6.6,1.8C94.8,66.5,94.8,62,94.1,60.5z"/>
	<line class="st0" x1="77" y1="41.1" x2="80" y2="46.6"/>
</g>
</svg>
