<svg id="Layer_1" data-name="Layer 1" xmlns="http://www.w3.org/2000/svg" xmlns:xlink="http://www.w3.org/1999/xlink" viewBox="0 0 776.16 291.82"><defs><style>.cls-1{fill:#83bdf0;}.cls-2{fill:#f9bf64;}.cls-3{fill:#e6eff6;}.cls-4{clip-path:url(#clip-path);}.cls-5{fill:#529ada;}.cls-6{fill:#b8dff8;}.cls-7{fill:#fcaa16;}.cls-8{clip-path:url(#clip-path-2);}.cls-9{fill:#fc7e14;}.cls-10{fill:url(#linear-gradient);}.cls-11{fill:url(#linear-gradient-2);}.cls-12{fill:url(#linear-gradient-3);}.cls-13{fill:url(#linear-gradient-4);}.cls-14{fill:url(#linear-gradient-5);}.cls-15{fill:url(#linear-gradient-6);}.cls-16{fill:url(#linear-gradient-7);}.cls-17{fill:url(#linear-gradient-8);}.cls-18{fill:#fff;opacity:0.3;}.cls-19{fill:#0569bd;}</style><clipPath id="clip-path" transform="translate(-84.42 -282.09)"><rect class="cls-1" x="592.22" y="384.93" width="54.64" height="46.61" rx="2.57"/></clipPath><clipPath id="clip-path-2" transform="translate(-84.42 -282.09)"><rect class="cls-2" x="295.6" y="384.93" width="54.64" height="46.61" rx="2.57"/></clipPath><linearGradient id="linear-gradient" x1="778.21" y1="120.74" x2="595.59" y2="120.74" gradientUnits="userSpaceOnUse"><stop offset="0" stop-color="#fff" stop-opacity="0"/><stop offset="1" stop-color="#e6eff6"/></linearGradient><linearGradient id="linear-gradient-2" x1="0" y1="120.74" x2="182.63" y2="120.74" xlink:href="#linear-gradient"/><linearGradient id="linear-gradient-3" x1="19.54" y1="118.03" x2="83.6" y2="118.03" xlink:href="#linear-gradient"/><linearGradient id="linear-gradient-4" x1="19.54" y1="132.43" x2="99.08" y2="132.43" xlink:href="#linear-gradient"/><linearGradient id="linear-gradient-5" x1="19.54" y1="146.83" x2="106.3" y2="146.83" xlink:href="#linear-gradient"/><linearGradient id="linear-gradient-6" x1="680.86" y1="118.03" x2="616.8" y2="118.03" gradientUnits="userSpaceOnUse"><stop offset="0" stop-color="#fff" stop-opacity="0"/><stop offset="0.1" stop-color="#fdfeff" stop-opacity="0.02"/><stop offset="0.22" stop-color="#f9fcfe" stop-opacity="0.09"/><stop offset="0.37" stop-color="#f1f9fe" stop-opacity="0.2"/><stop offset="0.52" stop-color="#e6f4fd" stop-opacity="0.35"/><stop offset="0.69" stop-color="#d8eefb" stop-opacity="0.54"/><stop offset="0.85" stop-color="#c8e6fa" stop-opacity="0.78"/><stop offset="1" stop-color="#b8dff8"/></linearGradient><linearGradient id="linear-gradient-7" x1="694.54" y1="132.43" x2="615" y2="132.43" gradientUnits="userSpaceOnUse"><stop offset="0" stop-color="#fff" stop-opacity="0"/><stop offset="0.09" stop-color="#fbfdff" stop-opacity="0.05"/><stop offset="0.27" stop-color="#f1f9fe" stop-opacity="0.2"/><stop offset="0.5" stop-color="#e0f1fc" stop-opacity="0.43"/><stop offset="0.79" stop-color="#cae7fa" stop-opacity="0.75"/><stop offset="1" stop-color="#b8dff8"/></linearGradient><linearGradient id="linear-gradient-8" x1="702.82" y1="146.83" x2="616.06" y2="146.83" gradientUnits="userSpaceOnUse"><stop offset="0" stop-color="#fff" stop-opacity="0"/><stop offset="0.07" stop-color="#f6fbfe" stop-opacity="0.13"/><stop offset="0.21" stop-color="#e6f4fc" stop-opacity="0.36"/><stop offset="0.35" stop-color="#d8edfb" stop-opacity="0.55"/><stop offset="0.49" stop-color="#cce8fa" stop-opacity="0.71"/><stop offset="0.63" stop-color="#c3e4f9" stop-opacity="0.84"/><stop offset="0.76" stop-color="#bde1f9" stop-opacity="0.93"/><stop offset="0.89" stop-color="#b9e0f8" stop-opacity="0.98"/><stop offset="1" stop-color="#b8dff8"/></linearGradient></defs><rect class="cls-3" x="392.65" y="59.11" width="182.63" height="123.27" rx="6.08"/><rect class="cls-1" x="507.8" y="102.85" width="54.64" height="46.61" rx="2.57"/><g class="cls-4"><polygon class="cls-5" points="546.82 131.28 538.76 139.77 527.03 123.73 507.8 149.15 562.44 149.46 546.82 131.28"/><path class="cls-5" d="M624,407.07a4.31,4.31,0,1,0-4.28-4.33A4.3,4.3,0,0,0,624,407.07Z" transform="translate(-84.42 -282.09)"/></g><rect class="cls-6" x="414.64" y="115.41" width="64.06" height="5.25" rx="2.63"/><rect class="cls-6" x="414.64" y="129.81" width="79.54" height="5.25" rx="2.63"/><rect class="cls-6" x="414.64" y="144.21" width="86.76" height="5.25" rx="2.63"/><rect class="cls-7" x="194.04" y="59.11" width="182.63" height="123.27" rx="6.08"/><rect class="cls-2" x="211.18" y="102.85" width="54.64" height="46.61" rx="2.57"/><g class="cls-8"><polygon class="cls-9" points="250.2 131.28 242.14 139.77 230.41 123.73 211.18 149.15 265.82 149.46 250.2 131.28"/><path class="cls-9" d="M327.36,407.07a4.31,4.31,0,1,0-4.28-4.33A4.3,4.3,0,0,0,327.36,407.07Z" transform="translate(-84.42 -282.09)"/></g><rect class="cls-10" x="593.53" y="59.11" width="182.63" height="123.27" rx="6.08"/><rect class="cls-11" y="59.11" width="182.63" height="123.27" rx="6.08"/><rect class="cls-9" x="275.9" y="115.41" width="86.76" height="5.25" rx="2.63"/><rect class="cls-9" x="275.9" y="129.81" width="86.76" height="5.25" rx="2.63"/><rect class="cls-9" x="275.9" y="144.21" width="86.76" height="5.25" rx="2.63"/><rect class="cls-12" x="19.54" y="115.41" width="64.06" height="5.25" rx="2.63"/><rect class="cls-13" x="19.54" y="129.81" width="79.54" height="5.25" rx="2.63"/><rect class="cls-14" x="19.54" y="144.21" width="86.76" height="5.25" rx="2.63"/><rect class="cls-15" x="615.7" y="115.41" width="64.06" height="5.25" rx="2.63"/><rect class="cls-16" x="615.7" y="129.81" width="79.54" height="5.25" rx="2.63"/><rect class="cls-17" x="615.7" y="144.21" width="86.76" height="5.25" rx="2.63"/><circle class="cls-18" cx="320.12" cy="119.06" r="100.58"/><path class="cls-19" d="M529.61,547.35c5.11,5.24,10.17,10.38,15.4,15.54l7.73,7.73a10.55,10.55,0,0,0,4.93,2.8,15.22,15.22,0,0,0,7.73,0,16.21,16.21,0,0,0,12.18-12.26,15.41,15.41,0,0,0,0-7.75,10.61,10.61,0,0,0-2.82-4.91L567,540.79c-5.16-5.15-10.38-10.23-15.61-15.31l-32.18-27.64c-5.46-4.87-11-9.63-16.56-14.36a8.42,8.42,0,0,1-1.37-11.42,119.47,119.47,0,1,0-25.47,25.59A8.43,8.43,0,0,1,487.2,499q7.16,8.32,14.45,16.5m-30-47.43,0,0a94.24,94.24,0,0,1-133.27.37h0A94.25,94.25,0,1,1,471.65,468Z" transform="translate(-84.42 -282.09)"/></svg>