<?xml version="1.0" encoding="utf-8"?>
<!-- Generator: Adobe Illustrator 24.2.0, SVG Export Plug-In . SVG Version: 6.00 Build 0)  -->
<svg version="1.1" id="Layer_1" xmlns="http://www.w3.org/2000/svg" xmlns:xlink="http://www.w3.org/1999/xlink" x="0px" y="0px"
	 viewBox="0 0 750 1591" style="enable-background:new 0 0 750 1591;" xml:space="preserve">
<style type="text/css">
	.st0{fill:#103579;}
	.st1{opacity:0.4;fill:url(#SVGID_1_);}
	.st2{opacity:0.4;fill:url(#SVGID_2_);}
	.st3{opacity:0.4;fill:url(#SVGID_3_);}
	.st4{opacity:0.4;fill:url(#SVGID_4_);}
</style>
<g>
	<rect x="-5.4" y="-1.6" class="st0" width="760.9" height="1592.9"/>
	<linearGradient id="SVGID_1_" gradientUnits="userSpaceOnUse" x1="375" y1="-1.5556" x2="375" y2="606.3424">
		<stop  offset="0" style="stop-color:#054BA4"/>
		<stop  offset="0.1571" style="stop-color:#094292"/>
		<stop  offset="0.3445" style="stop-color:#0C3B84"/>
		<stop  offset="0.5785" style="stop-color:#0E377C"/>
		<stop  offset="1" style="stop-color:#0E3679"/>
	</linearGradient>
	<rect x="-5.7" y="-1.6" class="st1" width="761.4" height="607.9"/>
	<g>
		
			<linearGradient id="SVGID_2_" gradientUnits="userSpaceOnUse" x1="-5562.5273" y1="39.5331" x2="-5562.5273" y2="670.3482" gradientTransform="matrix(-1 0 0 1 -5186.8525 0)">
			<stop  offset="0" style="stop-color:#054BA4"/>
			<stop  offset="0.1571" style="stop-color:#094292"/>
			<stop  offset="0.3445" style="stop-color:#0C3B84"/>
			<stop  offset="0.5785" style="stop-color:#0E377C"/>
			<stop  offset="1" style="stop-color:#0E3679"/>
		</linearGradient>
		<path class="st2" d="M-4.2,39.5C13.9,42.4,34,44,56.8,44c179.5,0,185,119.4,379.1,119.7v-0.3c159.1,0,181.5,93.8,319.7,115.3
			v391.5H-4.2V39.5z"/>
	</g>
	<g>
		
			<linearGradient id="SVGID_3_" gradientUnits="userSpaceOnUse" x1="7876.5488" y1="501.0812" x2="7876.5488" y2="1131.8964" gradientTransform="matrix(1 0 0 1 -7500.8745 0)">
			<stop  offset="0" style="stop-color:#054BA4"/>
			<stop  offset="0.1571" style="stop-color:#094292"/>
			<stop  offset="0.3445" style="stop-color:#0C3B84"/>
			<stop  offset="0.5785" style="stop-color:#0E377C"/>
			<stop  offset="1" style="stop-color:#0E3679"/>
		</linearGradient>
		<path class="st3" d="M755.6,501.1c-18.1,2.9-38.3,4.5-61,4.5c-179.5,0-185,119.4-379.1,119.7V625c-159.1,0-181.5,93.8-319.7,115.3
			v391.5h759.8V501.1z"/>
	</g>
	<g>
		
			<linearGradient id="SVGID_4_" gradientUnits="userSpaceOnUse" x1="-5562.5273" y1="962.6293" x2="-5562.5273" y2="1593.4445" gradientTransform="matrix(-1 0 0 1 -5186.8525 0)">
			<stop  offset="0" style="stop-color:#054BA4"/>
			<stop  offset="0.1571" style="stop-color:#094292"/>
			<stop  offset="0.3445" style="stop-color:#0C3B84"/>
			<stop  offset="0.5785" style="stop-color:#0E377C"/>
			<stop  offset="1" style="stop-color:#0E3679"/>
		</linearGradient>
		<path class="st4" d="M-4.2,962.6c18.1,2.9,38.3,4.5,61,4.5c179.5,0,185,119.4,379.1,119.7v-0.3c159.1,0,181.5,93.8,319.7,115.3
			v391.5H-4.2V962.6z"/>
	</g>
</g>
</svg>
