<?xml version="1.0" encoding="utf-8"?>
<!-- Generator: Adobe Illustrator 24.0.1, SVG Export Plug-In . SVG Version: 6.00 Build 0)  -->
<svg version="1.1" id="Layer_1" xmlns="http://www.w3.org/2000/svg" xmlns:xlink="http://www.w3.org/1999/xlink" x="0px" y="0px"
	 viewBox="0 0 30 30" style="enable-background:new 0 0 30 30;" xml:space="preserve">
<style type="text/css">
	.st0{fill:#FFFFFF;}
</style>
<path class="st0" d="M20.1,15.8c2.1-1.5,3.4-4,3.4-6.8c0-4.7-3.8-8.5-8.5-8.5S6.5,4.3,6.5,9c0,2.8,1.3,5.2,3.4,6.8
	c-5.5,2.1-9.4,7.4-9.4,13.6h2.6c0-6.6,5.3-11.9,11.9-11.9s11.9,5.3,11.9,11.9h2.6C29.5,23.2,25.6,17.9,20.1,15.8z M9.2,9.1
	c0-3.2,2.6-5.8,5.8-5.8s5.8,2.6,5.8,5.8s-2.6,5.8-5.8,5.8S9.2,12.3,9.2,9.1z"/>
<g id="Layer_2_1_">
</g>
</svg>
