<?xml version="1.0" encoding="utf-8"?>
<!-- Generator: Adobe Illustrator 24.3.0, SVG Export Plug-In . SVG Version: 6.00 Build 0)  -->
<svg version="1.1" id="Layer_1" xmlns="http://www.w3.org/2000/svg" xmlns:xlink="http://www.w3.org/1999/xlink" x="0px" y="0px"
	 viewBox="0 0 54 54" style="enable-background:new 0 0 54 54;" xml:space="preserve">
<style type="text/css">
	.st0{fill:#2AB8F2;}
	.st1{fill:#F1F3F4;}
</style>
<g>
	
		<ellipse transform="matrix(0.9989 -4.760429e-02 4.760429e-02 0.9989 -1.2547 1.3159)" class="st0" cx="27" cy="27" rx="26.6" ry="26.6"/>
	<g>
		<g>
			<path class="st1" d="M17.9,32c0-0.5,0.4-0.9,0.9-0.9l16.4,0c0.5,0,0.9,0.4,0.9,0.9c0,0.5-0.4,0.9-0.9,0.9l-16.4,0
				C18.3,32.9,17.9,32.5,17.9,32z"/>
		</g>
		<g>
			<path class="st1" d="M17.9,36.3c0-0.5,0.4-0.9,0.9-0.9l16.4,0c0.5,0,0.9,0.4,0.9,0.9c0,0.5-0.4,0.9-0.9,0.9l-16.4,0
				C18.3,37.1,17.9,36.7,17.9,36.3z"/>
		</g>
		<g>
			<path class="st1" d="M17.9,27.8c0-0.5,0.4-0.9,0.9-0.9l16.4,0c0.5,0,0.9,0.4,0.9,0.9s-0.4,0.9-0.9,0.9l-16.4,0
				C18.3,28.7,17.9,28.3,17.9,27.8z"/>
		</g>
		<path class="st1" d="M38.8,17.5c-0.5,0-0.9,0.4-0.9,0.9l0,14.7c0,0,0,0,0,0v6.3l-21.8,0l0-6.3l0-14.7c0-0.5-0.4-0.9-0.9-0.9
			c-0.5,0-0.9,0.4-0.9,0.9h0l0,21.9c0,0.5,0.4,0.9,0.9,0.9l23.5,0c0.5,0,0.9-0.4,0.9-0.9l0-21.9C39.7,17.9,39.3,17.5,38.8,17.5z"/>
		<path class="st1" d="M27,11.1L27,11.1c-3.9,0-7.1,3.2-7.1,7.1c0,3.9,3.2,7.1,7.1,7.1h0c3.9,0,7.1-3.2,7.1-7.1
			C34.1,14.3,30.9,11.1,27,11.1z M31.9,17.6L27.5,22c-0.1,0.1-0.3,0.2-0.5,0.2c-0.2,0-0.3-0.1-0.5-0.2l-4.4-4.4
			c-0.3-0.3-0.3-0.7,0-1c0.3-0.3,0.7-0.3,1,0l3.3,3.3l0-5.4c0-0.3,0.3-0.6,0.6-0.6c0.3,0,0.6,0.3,0.6,0.6l0,5.4l3.3-3.3
			c0.3-0.3,0.7-0.3,1,0C32.1,16.9,32.1,17.4,31.9,17.6z"/>
	</g>
</g>
</svg>
