<?xml version="1.0" encoding="utf-8"?>
<!-- Generator: Adobe Illustrator 24.3.0, SVG Export Plug-In . SVG Version: 6.00 Build 0)  -->
<svg version="1.1" id="Layer_1" xmlns="http://www.w3.org/2000/svg" xmlns:xlink="http://www.w3.org/1999/xlink" x="0px" y="0px"
	 viewBox="0 0 2732 2048" style="enable-background:new 0 0 2732 2048;" xml:space="preserve">
<style type="text/css">
	.st0{fill:#1C3675;}
	.st1{opacity:0.4;fill:url(#SVGID_1_);}
	.st2{opacity:0.4;fill:url(#SVGID_2_);}
	.st3{opacity:0.4;fill:url(#SVGID_3_);}
	.st4{opacity:0.4;fill:url(#SVGID_4_);}
	.st5{opacity:0.4;fill:url(#SVGID_5_);}
</style>
<g>
	<rect x="0" class="st0" width="2732" height="5718.7"/>
	<linearGradient id="SVGID_1_" gradientUnits="userSpaceOnUse" x1="1365.9194" y1="-9.094947e-13" x2="1365.9194" y2="2189.7507">
		<stop  offset="0" style="stop-color:#224B9E"/>
		<stop  offset="0.1486" style="stop-color:#1F438D"/>
		<stop  offset="0.3379" style="stop-color:#1D3C80"/>
		<stop  offset="0.5742" style="stop-color:#1C3877"/>
		<stop  offset="1" style="stop-color:#1C3675"/>
	</linearGradient>
	<rect x="-0.2" class="st1" width="2732.2" height="2189.8"/>
	
		<linearGradient id="SVGID_2_" gradientUnits="userSpaceOnUse" x1="-4571.9819" y1="121.2802" x2="-4571.9819" y2="2393.5825" gradientTransform="matrix(-1 0 0 1 -3204.8528 0)">
		<stop  offset="0" style="stop-color:#224B9E"/>
		<stop  offset="0.1486" style="stop-color:#1F438D"/>
		<stop  offset="0.3379" style="stop-color:#1D3C80"/>
		<stop  offset="0.5742" style="stop-color:#1C3877"/>
		<stop  offset="1" style="stop-color:#1C3675"/>
	</linearGradient>
	<path class="st2" d="M-1.3,121.3c65.3,10.4,137.9,16.2,219.7,16.2c646.5,0,666.6,430.2,1365.6,431.2v-1
		c573,0,653.9,337.9,1151.6,415.5v1410.4H-1.3L-1.3,121.3z"/>
	
		<linearGradient id="SVGID_3_" gradientUnits="userSpaceOnUse" x1="4197.959" y1="1400.7396" x2="4197.959" y2="3673.0417" gradientTransform="matrix(1 0 0 1 -2830.8301 0)">
		<stop  offset="0" style="stop-color:#224B9E"/>
		<stop  offset="0.1486" style="stop-color:#1F438D"/>
		<stop  offset="0.3379" style="stop-color:#1D3C80"/>
		<stop  offset="0.5742" style="stop-color:#1C3877"/>
		<stop  offset="1" style="stop-color:#1C3675"/>
	</linearGradient>
	<path class="st3" d="M2735.6,1400.7c-65.3,10.4-137.9,16.2-219.7,16.2c-646.5,0-666.6,430.2-1365.6,431.2v-1
		c-573,0-653.9,337.9-1151.6,415.5V3673h2736.9V1400.7z"/>
</g>
</svg>
