<?xml version="1.0" encoding="utf-8"?>
<!-- Generator: Adobe Illustrator 24.2.1, SVG Export Plug-In . SVG Version: 6.00 Build 0)  -->
<svg version="1.1" id="Layer_1" xmlns="http://www.w3.org/2000/svg" xmlns:xlink="http://www.w3.org/1999/xlink" x="0px" y="0px"
	 viewBox="0 0 1000 550" style="enable-background:new 0 0 1000 550;" xml:space="preserve">
<style type="text/css">
	.st0{fill:#FFFFFF;}
	.st1{fill:#054BA4;}
	.st2{fill:url(#SVGID_1_);}
	.st3{fill:none;stroke:#00B9EE;stroke-width:1.4429;stroke-linecap:round;stroke-linejoin:round;stroke-miterlimit:10;}
	.st4{fill:#284D95;}
	.st5{fill:#D1D8DD;}
	.st6{enable-background:new    ;}
	.st7{fill:#314D91;}
</style>
<rect class="st0" width="1000" height="550"/>
<g>
	<g>
		<g>
			<path class="st1" d="M478.1,232.7c0,0.7-0.2,1.3-0.8,1.8c-0.6,0.5-1.3,0.6-2.3,0.6c-1,0-1.8-0.1-2.4-0.5v-1.3
				c0.4,0.2,0.8,0.4,1.2,0.5c0.5,0.1,0.8,0.1,1.2,0.1c0.6,0,1-0.1,1.2-0.4s0.4-0.5,0.4-0.8s-0.1-0.6-0.4-0.8
				c-0.2-0.2-0.7-0.5-1.5-0.8c-0.8-0.4-1.3-0.7-1.7-1.1c-0.4-0.4-0.5-1-0.5-1.5c0-0.7,0.2-1.3,0.7-1.7c0.5-0.4,1.2-0.6,2.1-0.6
				c0.8,0,1.7,0.2,2.4,0.6l-0.5,1.2c-0.7-0.4-1.5-0.5-2.1-0.5c-0.5,0-0.8,0.1-1.1,0.2c-0.2,0.2-0.4,0.5-0.4,0.8c0,0.2,0,0.4,0.1,0.6
				c0.1,0.1,0.2,0.4,0.5,0.5c0.2,0.1,0.6,0.4,1.2,0.6c0.6,0.2,1.1,0.5,1.5,0.7c0.2,0.2,0.5,0.5,0.6,0.7
				C478.1,232,478.1,232.3,478.1,232.7z"/>
			<path class="st1" d="M482.5,235.2c-1,0-1.8-0.2-2.4-0.8c-0.6-0.6-0.8-1.5-0.8-2.4c0-1.1,0.2-1.9,0.8-2.5c0.5-0.6,1.2-1,2.2-1
				c0.8,0,1.6,0.2,2.1,0.8c0.5,0.5,0.7,1.2,0.7,2.2v0.7h-4.4c0,0.6,0.2,1.1,0.5,1.5c0.4,0.4,0.7,0.5,1.3,0.5c0.4,0,0.7,0,1.1-0.1
				c0.4-0.1,0.7-0.2,1.1-0.4v1.1c-0.4,0.1-0.7,0.2-1,0.4C483.3,235.2,483,235.2,482.5,235.2z M482.2,229.4c-0.5,0-0.8,0.1-1.1,0.5
				c-0.2,0.2-0.5,0.7-0.5,1.2h3c0-0.6-0.1-1-0.4-1.2C483.1,229.5,482.7,229.4,482.2,229.4z"/>
			<path class="st1" d="M488.1,235.1h-1.3v-9.3h1.3V235.1z"/>
			<path class="st1" d="M492.9,235.2c-1,0-1.8-0.2-2.4-0.8c-0.6-0.6-0.8-1.5-0.8-2.4c0-1.1,0.2-1.9,0.8-2.5c0.5-0.6,1.2-1,2.2-1
				c0.8,0,1.6,0.2,2.1,0.8c0.5,0.5,0.7,1.2,0.7,2.2v0.7h-4.4c0,0.6,0.2,1.1,0.5,1.5c0.4,0.4,0.7,0.5,1.3,0.5c0.4,0,0.7,0,1.1-0.1
				c0.4-0.1,0.7-0.2,1.1-0.4v1.1c-0.4,0.1-0.7,0.2-1,0.4C493.8,235.2,493.3,235.2,492.9,235.2z M492.7,229.4c-0.5,0-0.8,0.1-1.1,0.5
				c-0.2,0.2-0.5,0.7-0.5,1.2h3c0-0.6-0.1-1-0.4-1.2C493.4,229.5,493,229.4,492.7,229.4z"/>
			<path class="st1" d="M499.7,235.2c-1,0-1.7-0.2-2.3-0.8c-0.5-0.6-0.7-1.5-0.7-2.5c0-1.1,0.2-1.9,0.8-2.5c0.5-0.6,1.3-0.8,2.3-0.8
				c0.7,0,1.3,0.1,1.8,0.4l-0.4,1.1c-0.6-0.2-1.1-0.4-1.5-0.4c-1.1,0-1.7,0.7-1.7,2.3c0,0.7,0.1,1.3,0.4,1.7
				c0.2,0.4,0.7,0.6,1.2,0.6c0.6,0,1.2-0.1,1.7-0.5v1.2c-0.2,0.1-0.5,0.2-0.8,0.4C500.4,235.2,500.1,235.2,499.7,235.2z"/>
			<path class="st1" d="M505.4,234.1c0.4,0,0.7,0,1-0.1v1.1c-0.1,0.1-0.4,0.1-0.6,0.1c-0.2,0-0.5,0.1-0.7,0.1
				c-1.3,0-1.9-0.7-1.9-2.1v-3.5h-0.8v-0.8l1-0.5l0.5-1.5h0.8v1.5h1.8v1.1h-1.8v3.5c0,0.4,0.1,0.6,0.2,0.7
				C504.9,234,505.2,234.1,505.4,234.1z"/>
			<path class="st1" d="M513.4,229.7c0.8,0,1.6,0.2,2.1,0.7c0.5,0.5,0.7,1.1,0.7,1.9c0,1-0.2,1.7-0.8,2.2c-0.6,0.5-1.5,0.7-2.4,0.7
				c-1,0-1.7-0.1-2.3-0.5v-1.3c0.4,0.2,0.7,0.4,1.1,0.5c0.4,0.1,0.8,0.1,1.2,0.1c0.6,0,1.1-0.1,1.5-0.5c0.4-0.2,0.5-0.7,0.5-1.2
				c0-1.1-0.6-1.6-1.9-1.6c-0.2,0-0.4,0-0.7,0c-0.2,0-0.5,0.1-0.7,0.1l-0.6-0.4l0.4-4.2h4.5v1.2h-3.3l-0.2,2.2c0.1,0,0.4,0,0.5-0.1
				C512.9,229.7,513.2,229.7,513.4,229.7z"/>
			<path class="st1" d="M523.2,230.8c0,1.6-0.2,2.7-0.7,3.4s-1.2,1.1-2.2,1.1c-1,0-1.7-0.4-2.2-1.1c-0.5-0.7-0.7-1.8-0.7-3.4
				c0-1.6,0.2-2.7,0.7-3.4s1.2-1.1,2.2-1.1c1,0,1.7,0.4,2.2,1.1C523,228.2,523.2,229.3,523.2,230.8z M518.7,230.8
				c0,1.2,0.1,2.1,0.4,2.5c0.2,0.5,0.6,0.7,1.2,0.7c0.5,0,1-0.2,1.2-0.7c0.2-0.5,0.4-1.3,0.4-2.5c0-1.2-0.1-2.1-0.4-2.5
				c-0.2-0.5-0.6-0.7-1.2-0.7c-0.5,0-1,0.2-1.2,0.7C518.9,228.7,518.7,229.5,518.7,230.8z"/>
			<path class="st1" d="M532.3,233.2c0,0.6-0.2,1.1-0.7,1.5s-1.1,0.5-1.9,0.5s-1.6-0.1-2.1-0.4v-1.2c0.7,0.4,1.5,0.5,2.2,0.5
				c0.8,0,1.3-0.2,1.3-0.7c0-0.1,0-0.4-0.1-0.4c-0.1-0.1-0.2-0.2-0.5-0.4c-0.2-0.1-0.5-0.2-0.8-0.4c-0.7-0.2-1.2-0.6-1.6-0.8
				c-0.2-0.2-0.4-0.7-0.4-1.1c0-0.6,0.2-1,0.7-1.3s1.1-0.5,1.8-0.5c0.7,0,1.5,0.1,2.2,0.5l-0.5,1.1c-0.7-0.2-1.3-0.5-1.8-0.5
				c-0.7,0-1.1,0.2-1.1,0.6c0,0.2,0.1,0.4,0.2,0.5c0.2,0.1,0.6,0.4,1.2,0.6c0.5,0.2,1,0.4,1.2,0.6c0.2,0.1,0.5,0.4,0.5,0.6
				C532.2,232.7,532.3,232.9,532.3,233.2z"/>
			<path class="st1" d="M536.2,234.1c0.4,0,0.7,0,1-0.1v1.1c-0.1,0.1-0.4,0.1-0.6,0.1c-0.2,0-0.5,0.1-0.7,0.1
				c-1.3,0-1.9-0.7-1.9-2.1v-3.5H533v-0.8l1-0.5l0.5-1.5h0.8v1.5h1.8v1.1h-1.8v3.5c0,0.4,0.1,0.6,0.2,0.7
				C535.7,234,535.9,234.1,536.2,234.1z"/>
			<path class="st1" d="M544.4,231.8c0,1.1-0.2,1.9-0.8,2.5c-0.6,0.6-1.3,0.8-2.3,0.8c-0.6,0-1.2-0.1-1.6-0.4
				c-0.5-0.2-0.8-0.7-1.1-1.2c-0.2-0.5-0.4-1.1-0.4-1.8c0-1.1,0.2-1.9,0.8-2.5c0.5-0.6,1.3-0.8,2.3-0.8c1,0,1.7,0.4,2.3,1
				C544.1,229.9,544.4,230.8,544.4,231.8z M539.6,231.8c0,1.6,0.6,2.3,1.7,2.3s1.7-0.7,1.7-2.3c0-1.5-0.6-2.3-1.7-2.3
				c-0.6,0-1,0.2-1.2,0.6C539.7,230.5,539.6,231.1,539.6,231.8z"/>
			<path class="st1" d="M548.7,235.2c-1,0-1.7-0.2-2.3-0.8c-0.5-0.6-0.7-1.5-0.7-2.5c0-1.1,0.2-1.9,0.8-2.5c0.5-0.6,1.3-0.8,2.3-0.8
				c0.7,0,1.3,0.1,1.8,0.4l-0.4,1.1c-0.6-0.2-1.1-0.4-1.5-0.4c-1.1,0-1.7,0.7-1.7,2.3c0,0.7,0.1,1.3,0.4,1.7
				c0.2,0.4,0.7,0.6,1.2,0.6c0.6,0,1.2-0.1,1.7-0.5v1.2c-0.2,0.1-0.5,0.2-0.8,0.4C549.4,235.2,549,235.2,548.7,235.2z"/>
			<path class="st1" d="M553.3,231.6l0.7-1l1.9-2.2h1.6l-2.7,2.8l2.8,3.8h-1.6l-2.1-2.9l-0.7,0.6v2.3h-1.3v-9.3h1.3v4.5V231.6
				L553.3,231.6z"/>
			<path class="st1" d="M563.3,233.2c0,0.6-0.2,1.1-0.7,1.5c-0.5,0.4-1.1,0.5-1.9,0.5s-1.6-0.1-2.1-0.4v-1.2
				c0.7,0.4,1.5,0.5,2.2,0.5c0.8,0,1.3-0.2,1.3-0.7c0-0.1,0-0.4-0.1-0.4c-0.1-0.1-0.2-0.2-0.5-0.4c-0.2-0.1-0.5-0.2-0.8-0.4
				c-0.7-0.2-1.2-0.6-1.6-0.8c-0.2-0.2-0.4-0.7-0.4-1.1c0-0.6,0.2-1,0.7-1.3c0.5-0.4,1.1-0.5,1.8-0.5c0.7,0,1.5,0.1,2.2,0.5L563,230
				c-0.7-0.2-1.3-0.5-1.8-0.5c-0.7,0-1.1,0.2-1.1,0.6c0,0.2,0.1,0.4,0.2,0.5c0.2,0.1,0.6,0.4,1.2,0.6c0.5,0.2,1,0.4,1.2,0.6
				c0.2,0.1,0.5,0.4,0.5,0.6C563.2,232.7,563.3,232.9,563.3,233.2z"/>
			<path class="st1" d="M573.3,235.1l-0.8-3c-0.1-0.4-0.2-1.1-0.6-2.3l0,0c-0.2,1.1-0.4,1.8-0.5,2.3l-0.8,3h-1.6l-1.8-6.7h1.5
				l0.8,3.3c0.2,0.8,0.4,1.5,0.4,2.1l0,0c0-0.2,0.1-0.6,0.1-1s0.1-0.6,0.2-0.8l1-3.5h1.6l1,3.5c0,0.2,0.1,0.5,0.2,0.8
				c0.1,0.4,0.1,0.7,0.1,1l0,0c0-0.5,0.2-1.2,0.4-2.1l0.8-3.3h1.5l-1.8,6.7H573.3z"/>
			<path class="st1" d="M577.8,226.8c0-0.2,0.1-0.5,0.2-0.6c0.1-0.1,0.4-0.2,0.6-0.2c0.2,0,0.5,0.1,0.6,0.2c0.1,0.1,0.2,0.4,0.2,0.6
				c0,0.2-0.1,0.5-0.2,0.6c-0.1,0.1-0.4,0.2-0.6,0.2c-0.2,0-0.5-0.1-0.6-0.2C577.9,227.2,577.8,227,577.8,226.8z M579.2,235.1h-1.3
				v-6.7h1.3V235.1z"/>
			<path class="st1" d="M583.7,234.1c0.4,0,0.7,0,1-0.1v1.1c-0.1,0.1-0.4,0.1-0.6,0.1c-0.2,0-0.5,0.1-0.7,0.1
				c-1.3,0-1.9-0.7-1.9-2.1v-3.5h-0.8v-0.8l1-0.5l0.5-1.5h0.8v1.5h1.8v1.1h-1.8v3.5c0,0.4,0.1,0.6,0.2,0.7
				C583.2,234,583.3,234.1,583.7,234.1z"/>
			<path class="st1" d="M591.7,235.1h-1.5V231c0-0.5-0.1-0.8-0.4-1.1c-0.2-0.2-0.5-0.4-1-0.4c-0.6,0-1,0.1-1.3,0.5
				c-0.2,0.4-0.4,1-0.4,1.8v3.3h-1.3v-9.3h1.3v2.3c0,0.4,0,0.7-0.1,1.2h0.1c0.2-0.4,0.5-0.6,0.8-0.7c0.4-0.1,0.7-0.2,1.2-0.2
				c1.6,0,2.4,0.8,2.4,2.4L591.7,235.1L591.7,235.1z"/>
			<path class="st1" d="M598.3,235.1h-1.3v-9.3h1.3V235.1z"/>
			<path class="st1" d="M606,231.8c0,1.1-0.2,1.9-0.8,2.5c-0.6,0.6-1.3,0.8-2.3,0.8c-0.6,0-1.2-0.1-1.6-0.4
				c-0.5-0.2-0.8-0.7-1.1-1.2s-0.4-1.1-0.4-1.8c0-1.1,0.2-1.9,0.8-2.5c0.5-0.6,1.3-0.8,2.3-0.8s1.7,0.4,2.3,1
				C605.8,229.9,606,230.8,606,231.8z M601.3,231.8c0,1.6,0.6,2.3,1.7,2.3c1.1,0,1.7-0.7,1.7-2.3c0-1.5-0.6-2.3-1.7-2.3
				c-0.6,0-1,0.2-1.2,0.6C601.4,230.5,601.3,231.1,601.3,231.8z"/>
			<path class="st1" d="M613,235.1l-0.8-3c-0.1-0.4-0.2-1.1-0.6-2.3l0,0c-0.2,1.1-0.4,1.8-0.5,2.3l-0.8,3h-1.6l-1.8-6.7h1.5l0.8,3.3
				c0.2,0.8,0.4,1.5,0.4,2.1l0,0c0-0.2,0.1-0.6,0.1-1s0.1-0.6,0.2-0.8l1-3.5h1.6l1,3.5c0,0.2,0.1,0.5,0.2,0.8c0.1,0.4,0.1,0.7,0.1,1
				l0,0c0-0.5,0.2-1.2,0.4-2.1l0.8-3.3h1.5l-1.8,6.7H613z"/>
			<path class="st1" d="M620.4,235.2c-1,0-1.8-0.2-2.4-0.8c-0.6-0.6-0.8-1.5-0.8-2.4c0-1.1,0.2-1.9,0.8-2.5c0.5-0.6,1.2-1,2.2-1
				c0.8,0,1.6,0.2,2.1,0.8c0.5,0.5,0.7,1.2,0.7,2.2v0.7h-4.4c0,0.6,0.2,1.1,0.5,1.5c0.4,0.4,0.7,0.5,1.3,0.5c0.4,0,0.7,0,1.1-0.1
				c0.4-0.1,0.7-0.2,1.1-0.4v1.1c-0.4,0.1-0.7,0.2-1,0.4C621.3,235.2,620.8,235.2,620.4,235.2z M620.1,229.4c-0.5,0-0.8,0.1-1.1,0.5
				c-0.2,0.2-0.5,0.7-0.5,1.2h3c0-0.6-0.1-1-0.4-1.2C620.9,229.5,620.6,229.4,620.1,229.4z"/>
			<path class="st1" d="M628.9,233.2c0,0.6-0.2,1.1-0.7,1.5c-0.5,0.4-1.1,0.5-1.9,0.5c-0.8,0-1.6-0.1-2.1-0.4v-1.2
				c0.7,0.4,1.5,0.5,2.2,0.5c0.8,0,1.3-0.2,1.3-0.7c0-0.1,0-0.4-0.1-0.4c-0.1-0.1-0.2-0.2-0.5-0.4c-0.2-0.1-0.5-0.2-0.8-0.4
				c-0.7-0.2-1.2-0.6-1.6-0.8c-0.2-0.2-0.4-0.7-0.4-1.1c0-0.6,0.2-1,0.7-1.3c0.5-0.4,1.1-0.5,1.8-0.5s1.5,0.1,2.2,0.5l-0.5,1.1
				c-0.7-0.2-1.3-0.5-1.8-0.5c-0.7,0-1.1,0.2-1.1,0.6c0,0.2,0.1,0.4,0.2,0.5c0.2,0.1,0.6,0.4,1.2,0.6c0.5,0.2,1,0.4,1.2,0.6
				c0.2,0.1,0.5,0.4,0.5,0.6C628.8,232.7,628.9,232.9,628.9,233.2z"/>
			<path class="st1" d="M632.8,234.1c0.4,0,0.7,0,1-0.1v1.1c-0.1,0.1-0.4,0.1-0.6,0.1c-0.2,0-0.5,0.1-0.7,0.1
				c-1.3,0-1.9-0.7-1.9-2.1v-3.5h-0.8v-0.8l1-0.5l0.5-1.5h0.8v1.5h1.8v1.1H632v3.5c0,0.4,0.1,0.6,0.2,0.7
				C632.3,234,632.6,234.1,632.8,234.1z"/>
			<path class="st1" d="M645.3,226.4v5.7c0,0.6-0.1,1.2-0.4,1.7c-0.2,0.5-0.7,0.8-1.2,1.1c-0.5,0.2-1.1,0.4-1.8,0.4
				c-1.1,0-1.9-0.2-2.5-0.8s-0.8-1.3-0.8-2.4v-5.6h1.5v5.6c0,0.7,0.1,1.2,0.5,1.6c0.4,0.4,0.8,0.5,1.6,0.5c1.3,0,2.1-0.7,2.1-2.2
				v-5.6h1.2L645.3,226.4L645.3,226.4z"/>
			<path class="st1" d="M648.9,231.6v3.5h-1.5v-8.7h2.4c1.1,0,1.9,0.2,2.4,0.6s0.8,1.1,0.8,1.9c0,1.1-0.6,1.8-1.7,2.3l2.4,3.9h-1.6
				l-2.1-3.5H648.9z M648.9,230.4h1c0.6,0,1.1-0.1,1.5-0.4c0.2-0.2,0.5-0.6,0.5-1.1c0-0.5-0.1-0.8-0.5-1.1c-0.4-0.2-0.8-0.4-1.5-0.4
				h-1V230.4z"/>
			<path class="st1" d="M472.7,252.6c0,0.7-0.2,1.3-0.8,1.8s-1.3,0.6-2.3,0.6c-1,0-1.8-0.1-2.4-0.5v-1.3c0.4,0.2,0.8,0.4,1.2,0.5
				c0.5,0.1,0.8,0.1,1.2,0.1c0.6,0,1-0.1,1.2-0.4c0.2-0.2,0.4-0.5,0.4-0.8s-0.1-0.6-0.4-0.8c-0.2-0.2-0.7-0.5-1.5-0.8
				c-0.8-0.4-1.3-0.7-1.7-1.1s-0.5-1-0.5-1.5c0-0.7,0.2-1.3,0.7-1.7c0.5-0.4,1.2-0.6,2.1-0.6c0.8,0,1.7,0.2,2.4,0.6l-0.5,1.2
				c-0.7-0.4-1.5-0.5-2.1-0.5c-0.5,0-0.8,0.1-1.1,0.2c-0.2,0.2-0.4,0.5-0.4,0.8c0,0.2,0,0.4,0.1,0.6c0.1,0.1,0.2,0.4,0.5,0.5
				c0.2,0.1,0.6,0.4,1.2,0.6c0.6,0.2,1.1,0.5,1.5,0.7c0.2,0.2,0.5,0.5,0.6,0.7C472.5,251.8,472.7,252.2,472.7,252.6z"/>
			<path class="st1" d="M476.8,255c-1,0-1.7-0.2-2.3-0.8c-0.5-0.6-0.7-1.5-0.7-2.5c0-1.1,0.2-1.9,0.8-2.5c0.5-0.6,1.3-0.8,2.3-0.8
				c0.7,0,1.3,0.1,1.8,0.4l-0.4,1.1c-0.6-0.2-1.1-0.4-1.5-0.4c-1.1,0-1.7,0.7-1.7,2.3c0,0.7,0.1,1.3,0.4,1.7
				c0.2,0.4,0.7,0.6,1.2,0.6c0.6,0,1.2-0.1,1.7-0.5v1.2c-0.2,0.1-0.5,0.2-0.8,0.4C477.5,255,477.1,255,476.8,255z"/>
			<path class="st1" d="M486,251.6c0,1.1-0.2,1.9-0.8,2.5c-0.6,0.6-1.3,0.8-2.3,0.8c-0.6,0-1.2-0.1-1.6-0.4
				c-0.5-0.2-0.8-0.7-1.1-1.2c-0.2-0.5-0.4-1.1-0.4-1.8c0-1.1,0.2-1.9,0.8-2.5c0.5-0.6,1.3-0.8,2.3-0.8c1,0,1.7,0.4,2.3,1
				S486,250.5,486,251.6z M481.1,251.6c0,1.6,0.6,2.3,1.7,2.3c1.1,0,1.7-0.7,1.7-2.3c0-1.5-0.6-2.3-1.7-2.3c-0.6,0-1,0.2-1.2,0.6
				C481.3,250.3,481.1,250.9,481.1,251.6z"/>
			<path class="st1" d="M490.8,248.2c0.2,0,0.5,0,0.7,0l-0.1,1.3c-0.2,0-0.4-0.1-0.6-0.1c-0.6,0-1,0.2-1.3,0.6
				c-0.4,0.4-0.5,0.8-0.5,1.5v3.5h-1.3v-6.7h1.1l0.2,1.2h0.1c0.2-0.4,0.5-0.7,0.8-1C490.1,248.3,490.5,248.2,490.8,248.2z"/>
			<path class="st1" d="M495.6,255c-1,0-1.8-0.2-2.4-0.8c-0.6-0.6-0.8-1.5-0.8-2.4c0-1.1,0.2-1.9,0.8-2.5c0.5-0.6,1.2-1,2.2-1
				c0.8,0,1.6,0.2,2.1,0.8c0.5,0.5,0.7,1.2,0.7,2.2v0.7h-4.4c0,0.6,0.2,1.1,0.5,1.5c0.4,0.4,0.7,0.5,1.3,0.5c0.4,0,0.7,0,1.1-0.1
				c0.4-0.1,0.7-0.2,1.1-0.4v1.1c-0.4,0.1-0.7,0.2-1,0.4C496.4,255,496.1,255,495.6,255z M495.3,249.3c-0.5,0-0.8,0.1-1.1,0.5
				c-0.2,0.2-0.5,0.7-0.5,1.2h3c0-0.6-0.1-1-0.4-1.2C496.2,249.4,495.8,249.3,495.3,249.3z"/>
			<path class="st1" d="M504.2,253.1c0,0.6-0.2,1.1-0.7,1.5c-0.5,0.4-1.1,0.5-1.9,0.5c-0.8,0-1.6-0.1-2.1-0.4v-1.2
				c0.7,0.4,1.5,0.5,2.2,0.5c0.8,0,1.3-0.2,1.3-0.7c0-0.1,0-0.4-0.1-0.4c-0.1-0.1-0.2-0.2-0.5-0.4c-0.2-0.1-0.5-0.2-0.8-0.4
				c-0.7-0.2-1.2-0.6-1.6-0.8c-0.2-0.2-0.4-0.7-0.4-1.1c0-0.6,0.2-1,0.7-1.3s1.1-0.5,1.8-0.5s1.5,0.1,2.2,0.5l-0.5,1.1
				c-0.7-0.2-1.3-0.5-1.8-0.5c-0.7,0-1.1,0.2-1.1,0.6c0,0.2,0.1,0.4,0.2,0.5c0.2,0.1,0.6,0.4,1.2,0.6c0.5,0.2,1,0.4,1.2,0.6
				c0.2,0.1,0.5,0.4,0.5,0.6C504.1,252.5,504.2,252.7,504.2,253.1z"/>
			<path class="st1" d="M507.1,253.7c-0.2,0.7-0.5,1.7-1.1,2.9h-1c0.2-1.1,0.5-2.1,0.6-3h1.3L507.1,253.7z"/>
			<path class="st1" d="M517.4,254.9l-0.8-3c-0.1-0.4-0.2-1.1-0.6-2.3l0,0c-0.2,1.1-0.4,1.8-0.5,2.3l-0.8,3H513l-1.8-6.7h1.5
				l0.8,3.3c0.2,0.8,0.4,1.5,0.4,2.1l0,0c0-0.2,0.1-0.6,0.1-1c0.1-0.4,0.1-0.6,0.2-0.8l1-3.5h1.6l1,3.5c0,0.2,0.1,0.5,0.2,0.8
				c0.1,0.4,0.1,0.7,0.1,1l0,0c0-0.5,0.2-1.2,0.4-2.1l0.8-3.3h1.5l-1.8,6.7H517.4z"/>
			<path class="st1" d="M524.8,255c-1,0-1.8-0.2-2.4-0.8c-0.6-0.6-0.8-1.5-0.8-2.4c0-1.1,0.2-1.9,0.8-2.5c0.5-0.6,1.2-1,2.2-1
				c0.8,0,1.6,0.2,2.1,0.8c0.5,0.5,0.7,1.2,0.7,2.2v0.7H523c0,0.6,0.2,1.1,0.5,1.5c0.4,0.4,0.7,0.5,1.3,0.5c0.4,0,0.7,0,1.1-0.1
				c0.4-0.1,0.7-0.2,1.1-0.4v1.1c-0.4,0.1-0.7,0.2-1,0.4C525.6,255,525.3,255,524.8,255z M524.5,249.3c-0.5,0-0.8,0.1-1.1,0.5
				c-0.2,0.2-0.5,0.7-0.5,1.2h3c0-0.6-0.1-1-0.4-1.2C525.3,249.4,525,249.3,524.5,249.3z"/>
			<path class="st1" d="M528.8,246.5c0-0.2,0.1-0.5,0.2-0.6c0.1-0.1,0.4-0.2,0.6-0.2s0.5,0.1,0.6,0.2c0.1,0.1,0.2,0.4,0.2,0.6
				c0,0.2-0.1,0.5-0.2,0.6c-0.1,0.1-0.4,0.2-0.6,0.2s-0.5-0.1-0.6-0.2C528.9,247,528.8,246.8,528.8,246.5z M530.4,254.9H529v-6.5
				h1.3V254.9z"/>
			<path class="st1" d="M537.9,248.3v0.7l-1.1,0.2c0.1,0.1,0.2,0.4,0.2,0.5c0.1,0.2,0.1,0.4,0.1,0.6c0,0.7-0.2,1.2-0.7,1.6
				s-1.1,0.6-1.9,0.6c-0.2,0-0.4,0-0.6,0c-0.2,0.2-0.5,0.4-0.5,0.6c0,0.1,0.1,0.2,0.2,0.4c0.1,0.1,0.4,0.1,0.7,0.1h1.1
				c0.7,0,1.2,0.1,1.7,0.5c0.4,0.4,0.6,0.7,0.6,1.3c0,0.7-0.4,1.3-1,1.7c-0.6,0.4-1.5,0.6-2.7,0.6c-0.8,0-1.6-0.1-2.1-0.5
				s-0.7-0.7-0.7-1.3c0-0.4,0.1-0.7,0.4-1c0.2-0.2,0.6-0.5,1.1-0.6c-0.2-0.1-0.4-0.2-0.5-0.4c-0.1-0.1-0.1-0.4-0.1-0.6
				c0-0.2,0.1-0.5,0.2-0.6c0.1-0.1,0.4-0.4,0.6-0.5c-0.4-0.1-0.6-0.4-0.8-0.7c-0.2-0.4-0.4-0.7-0.4-1.2c0-0.7,0.2-1.3,0.7-1.7
				c0.5-0.4,1.1-0.6,1.9-0.6c0.2,0,0.4,0,0.6,0c0.2,0,0.4,0,0.5,0.1L537.9,248.3L537.9,248.3z M532.7,256c0,0.4,0.1,0.5,0.4,0.7
				c0.2,0.1,0.6,0.2,1.1,0.2c0.7,0,1.3-0.1,1.7-0.4c0.4-0.2,0.6-0.5,0.6-0.8c0-0.2-0.1-0.5-0.4-0.6c-0.2-0.1-0.6-0.2-1.1-0.2h-1.1
				c-0.4,0-0.7,0.1-1,0.2C532.8,255.4,532.7,255.6,532.7,256z M533.3,250.4c0,0.4,0.1,0.7,0.4,1s0.5,0.4,0.8,0.4
				c0.8,0,1.2-0.5,1.2-1.3c0-0.5-0.1-0.7-0.2-1c-0.2-0.2-0.5-0.4-0.8-0.4c-0.4,0-0.7,0.1-1,0.4S533.3,250,533.3,250.4z"/>
			<path class="st1" d="M544.8,254.9h-1.5v-4.1c0-0.5-0.1-0.8-0.4-1.1c-0.2-0.2-0.5-0.4-1-0.4c-0.6,0-1,0.1-1.3,0.5
				c-0.4,0.4-0.4,1-0.4,1.8v3.3H539v-9.3h1.3v2.3c0,0.4,0,0.7-0.1,1.2h0.1c0.2-0.4,0.5-0.6,0.8-0.7c0.4-0.1,0.7-0.2,1.2-0.2
				c1.6,0,2.4,0.8,2.4,2.4L544.8,254.9L544.8,254.9z"/>
			<path class="st1" d="M549.2,253.9c0.4,0,0.7,0,1-0.1v1.1c-0.1,0.1-0.4,0.1-0.6,0.1s-0.5,0.1-0.7,0.1c-1.3,0-1.9-0.7-1.9-2.1v-3.5
				H546v-0.6l1-0.5l0.5-1.5h0.8v1.5h1.8v1.1h-1.8v3.5c0,0.4,0.1,0.6,0.2,0.7C548.7,253.8,548.9,253.9,549.2,253.9z"/>
			<path class="st1" d="M554.4,255c-1,0-1.8-0.2-2.4-0.8c-0.6-0.6-0.8-1.5-0.8-2.4c0-1.1,0.2-1.9,0.8-2.5c0.5-0.6,1.2-1,2.2-1
				c0.8,0,1.6,0.2,2.1,0.8c0.5,0.5,0.7,1.2,0.7,2.2v0.7h-4.4c0,0.6,0.2,1.1,0.5,1.5c0.4,0.4,0.7,0.5,1.3,0.5c0.4,0,0.7,0,1.1-0.1
				c0.4-0.1,0.7-0.2,1.1-0.4v1.1c-0.4,0.1-0.7,0.2-1,0.4C555.2,255,554.9,255,554.4,255z M554.1,249.3c-0.5,0-0.8,0.1-1.1,0.5
				c-0.2,0.2-0.5,0.7-0.5,1.2h3c0-0.6-0.1-1-0.4-1.2C554.9,249.4,554.5,249.3,554.1,249.3z"/>
			<path class="st1" d="M560.7,255c-0.8,0-1.5-0.2-1.9-0.8c-0.5-0.6-0.7-1.5-0.7-2.5c0-1.1,0.2-1.9,0.7-2.5c0.5-0.6,1.1-0.8,1.9-0.8
				s1.6,0.4,1.9,1h0.1c-0.1-0.5-0.1-0.8-0.1-1.1v-2.4h1.5v9.3H563l-0.2-0.8h-0.1C562.3,254.8,561.5,255,560.7,255z M561,253.9
				c0.6,0,1-0.1,1.2-0.5c0.2-0.4,0.4-0.8,0.4-1.6v-0.2c0-0.8-0.1-1.5-0.4-1.8c-0.2-0.4-0.7-0.5-1.2-0.5s-0.8,0.2-1.1,0.6
				c-0.2,0.4-0.4,1-0.4,1.7c0,0.7,0.1,1.3,0.4,1.7S560.6,253.9,561,253.9z"/>
			<path class="st1" d="M572.6,248.2c0.8,0,1.5,0.2,1.9,0.8c0.5,0.6,0.7,1.5,0.7,2.5c0,1.1-0.2,1.9-0.7,2.5
				c-0.5,0.6-1.1,0.8-1.9,0.8c-0.8,0-1.5-0.2-1.9-0.8h-0.1l-0.2,0.7h-1.1v-9.3h1.3v2.2c0,0.1,0,0.4,0,0.7s0,0.5,0,0.6l0,0
				C571,248.6,571.7,248.2,572.6,248.2z M572.2,249.3c-0.6,0-1,0.1-1.2,0.5c-0.2,0.4-0.4,0.8-0.4,1.7v0.1c0,0.8,0.1,1.3,0.4,1.7
				c0.2,0.4,0.6,0.5,1.2,0.5c0.5,0,0.8-0.2,1.1-0.6c0.2-0.4,0.4-1,0.4-1.7C573.6,250.1,573.2,249.3,572.2,249.3z"/>
			<path class="st1" d="M575.7,248.3h1.5l1.3,3.8c0.2,0.5,0.4,1.1,0.4,1.5l0,0c0-0.2,0.1-0.5,0.2-0.8c0.1-0.4,0.6-1.8,1.5-4.5h1.5
				l-2.8,7.5c-0.5,1.3-1.3,2.1-2.5,2.1c-0.4,0-0.6,0-0.8-0.1v-1.1c0.2,0,0.5,0.1,0.7,0.1c0.7,0,1.1-0.4,1.5-1.2l0.2-0.6L575.7,248.3
				z"/>
			<path class="st1" d="M590,254.9h-1.3v-5.7c0-0.7,0-1.2,0-1.6c-0.1,0.1-0.2,0.2-0.4,0.4c-0.1,0.1-0.6,0.5-1.3,1.1l-0.7-0.8
				l2.5-2.1h1.2L590,254.9L590,254.9z"/>
			<path class="st1" d="M592.8,252.2v-1.1h5.1v1.1H592.8z"/>
			<path class="st1" d="M609.4,246.1v5.7c0,0.6-0.1,1.2-0.4,1.7c-0.2,0.5-0.7,0.8-1.2,1.1c-0.5,0.2-1.1,0.4-1.8,0.4
				c-1.1,0-1.9-0.2-2.5-0.8c-0.6-0.6-0.8-1.3-0.8-2.4v-5.6h1.5v5.6c0,0.7,0.1,1.2,0.5,1.6s0.8,0.5,1.6,0.5c1.3,0,2.1-0.7,2.1-2.2
				V246h1.2L609.4,246.1L609.4,246.1z"/>
			<path class="st1" d="M613,251.5v3.5h-1.5v-8.7h2.4c1.1,0,1.9,0.2,2.4,0.6c0.5,0.4,0.8,1.1,0.8,1.9c0,1.1-0.6,1.8-1.7,2.3l2.4,3.9
				h-1.6l-2.1-3.5H613z M613,250.3h1c0.6,0,1.1-0.1,1.5-0.4c0.2-0.2,0.5-0.6,0.5-1.1s-0.1-0.8-0.5-1.1c-0.4-0.2-0.8-0.4-1.5-0.4h-1
				V250.3z"/>
			<path class="st1" d="M627.6,252.6c0,0.7-0.2,1.3-0.8,1.8c-0.6,0.5-1.3,0.6-2.3,0.6c-1,0-1.8-0.1-2.4-0.5v-1.3
				c0.4,0.2,0.8,0.4,1.2,0.5c0.5,0.1,0.8,0.1,1.2,0.1c0.6,0,1-0.1,1.2-0.4c0.2-0.2,0.4-0.5,0.4-0.8s-0.1-0.6-0.4-0.8
				c-0.2-0.2-0.7-0.5-1.5-0.8c-0.8-0.4-1.3-0.7-1.7-1.1c-0.4-0.4-0.5-1-0.5-1.5c0-0.7,0.2-1.3,0.7-1.7c0.5-0.4,1.2-0.6,2.1-0.6
				s1.7,0.2,2.4,0.6l-0.5,1.2c-0.7-0.4-1.5-0.5-2.1-0.5c-0.5,0-0.8,0.1-1.1,0.2c-0.2,0.2-0.4,0.5-0.4,0.8c0,0.2,0,0.4,0.1,0.6
				c0.1,0.1,0.2,0.4,0.5,0.5c0.2,0.1,0.6,0.4,1.2,0.6c0.6,0.2,1.1,0.5,1.5,0.7c0.2,0.2,0.5,0.5,0.6,0.7
				C627.5,251.8,627.6,252.2,627.6,252.6z"/>
			<path class="st1" d="M631.7,255c-1,0-1.7-0.2-2.3-0.8c-0.5-0.6-0.7-1.5-0.7-2.5c0-1.1,0.2-1.9,0.8-2.5c0.5-0.6,1.3-0.8,2.3-0.8
				c0.7,0,1.3,0.1,1.8,0.4l-0.4,1.1c-0.6-0.2-1.1-0.4-1.5-0.4c-1.1,0-1.7,0.7-1.7,2.3c0,0.7,0.1,1.3,0.4,1.7
				c0.2,0.4,0.7,0.6,1.2,0.6c0.6,0,1.2-0.1,1.7-0.5v1.2c-0.2,0.1-0.5,0.2-0.8,0.4C632.4,255,632.1,255,631.7,255z"/>
			<path class="st1" d="M640.9,251.6c0,1.1-0.2,1.9-0.8,2.5c-0.6,0.6-1.3,0.8-2.3,0.8c-0.6,0-1.2-0.1-1.6-0.4
				c-0.5-0.2-0.8-0.7-1.1-1.2c-0.2-0.5-0.4-1.1-0.4-1.8c0-1.1,0.2-1.9,0.8-2.5c0.5-0.6,1.3-0.8,2.3-0.8c1,0,1.7,0.4,2.3,1
				C640.6,249.8,640.9,250.5,640.9,251.6z M636.1,251.6c0,1.6,0.6,2.3,1.7,2.3c1.1,0,1.7-0.7,1.7-2.3c0-1.5-0.6-2.3-1.7-2.3
				c-0.6,0-1,0.2-1.2,0.6C636.2,250.3,636.1,250.9,636.1,251.6z"/>
			<path class="st1" d="M645.8,248.2c0.2,0,0.5,0,0.7,0l-0.1,1.3c-0.2,0-0.4-0.1-0.6-0.1c-0.6,0-1,0.2-1.3,0.6
				c-0.4,0.4-0.5,0.8-0.5,1.5v3.5h-1.3v-6.7h1.1l0.2,1.2h0.1c0.2-0.4,0.5-0.7,0.8-1C645.1,248.3,645.4,248.2,645.8,248.2z"/>
			<path class="st1" d="M650.5,255c-1,0-1.8-0.2-2.4-0.8c-0.6-0.6-0.8-1.5-0.8-2.4c0-1.1,0.2-1.9,0.8-2.5c0.5-0.6,1.2-1,2.2-1
				c0.8,0,1.6,0.2,2.1,0.8c0.5,0.5,0.7,1.2,0.7,2.2v0.7h-4.4c0,0.6,0.2,1.1,0.5,1.5c0.4,0.4,0.7,0.5,1.3,0.5c0.4,0,0.7,0,1.1-0.1
				c0.4-0.1,0.7-0.2,1.1-0.4v1.1c-0.4,0.1-0.7,0.2-1,0.4C651.4,255,651,255,650.5,255z M650.3,249.3c-0.5,0-0.8,0.1-1.1,0.5
				c-0.2,0.2-0.5,0.7-0.5,1.2h3c0-0.6-0.1-1-0.4-1.2C651.1,249.4,650.7,249.3,650.3,249.3z"/>
			<path class="st1" d="M659.1,253.1c0,0.6-0.2,1.1-0.7,1.5c-0.5,0.4-1.1,0.5-1.9,0.5c-0.8,0-1.6-0.1-2.1-0.4v-1.2
				c0.7,0.4,1.5,0.5,2.2,0.5c0.8,0,1.3-0.2,1.3-0.7c0-0.1,0-0.4-0.1-0.4c-0.1-0.1-0.2-0.2-0.5-0.4c-0.2-0.1-0.5-0.2-0.8-0.4
				c-0.7-0.2-1.2-0.6-1.6-0.8c-0.2-0.2-0.4-0.7-0.4-1.1c0-0.6,0.2-1,0.7-1.3c0.5-0.4,1.1-0.5,1.8-0.5s1.5,0.1,2.2,0.5l-0.5,1.1
				c-0.7-0.2-1.3-0.5-1.8-0.5c-0.7,0-1.1,0.2-1.1,0.6c0,0.2,0.1,0.4,0.2,0.5c0.2,0.1,0.6,0.4,1.2,0.6c0.5,0.2,1,0.4,1.2,0.6
				c0.2,0.1,0.5,0.4,0.5,0.6C659,252.5,659.1,252.7,659.1,253.1z"/>
		</g>
	</g>
	<g>
		
			<linearGradient id="SVGID_1_" gradientUnits="userSpaceOnUse" x1="408.4104" y1="1043.1368" x2="208.8659" y2="1043.1368" gradientTransform="matrix(1 0 0 1 0 -768.1368)">
			<stop  offset="0" style="stop-color:#00BEFF"/>
			<stop  offset="1" style="stop-color:#054BA4"/>
		</linearGradient>
		<path class="st2" d="M240.7,306.9h135.8c17.7,0,31.9-14.3,31.9-31.9l0,0c0-17.7-14.3-31.9-31.9-31.9H240.7
			c-17.7,0-31.9,14.3-31.9,31.9l0,0C208.9,292.7,223.2,306.9,240.7,306.9z"/>
		<g>
			<path class="st0" d="M245.7,280.7v-11.3h1.8v9.7h4.7v1.6H245.7z"/>
			<path class="st0" d="M253.8,269.9c0-0.4,0.1-0.6,0.2-0.7c0.1-0.1,0.5-0.2,0.7-0.2c0.4,0,0.6,0.1,0.7,0.2c0.1,0.1,0.2,0.4,0.2,0.7
				c0,0.4-0.1,0.6-0.2,0.7c-0.1,0.1-0.4,0.2-0.7,0.2s-0.6-0.1-0.7-0.2C254,270.5,253.8,270.3,253.8,269.9z M255.8,280.7H254v-8.5
				h1.8V280.7z"/>
			<path class="st0" d="M261.2,280.8c-1.1,0-1.8-0.4-2.4-1.2c-0.6-0.7-0.8-1.8-0.8-3.3c0-1.3,0.2-2.4,0.8-3.3
				c0.6-0.7,1.5-1.2,2.5-1.2c0.5,0,1,0.1,1.5,0.2c0.4,0.2,0.8,0.5,1.1,1h0.1l0.2-1.1h1.5v12.2h-1.8v-3.6c0-0.2,0-0.5,0-0.7
				c0-0.2,0-0.5,0-0.6h-0.1C263.3,280.5,262.4,280.8,261.2,280.8z M261.7,279.4c0.7,0,1.3-0.2,1.6-0.6c0.4-0.5,0.5-1.1,0.5-1.9v-0.2
				c0-1.1-0.1-1.8-0.5-2.3c-0.4-0.5-0.8-0.7-1.7-0.7c-0.6,0-1.1,0.2-1.5,0.7c-0.4,0.5-0.5,1.2-0.5,2.2
				C259.8,278.4,260.4,279.4,261.7,279.4z"/>
			<path class="st0" d="M274.2,280.7l-0.2-1.1h-0.1c-0.2,0.4-0.6,0.7-1.1,1c-0.5,0.2-1,0.4-1.6,0.4c-1,0-1.8-0.2-2.3-0.7
				c-0.5-0.5-0.7-1.3-0.7-2.3v-5.6h1.8v5.2c0,0.6,0.1,1.1,0.4,1.5c0.2,0.4,0.7,0.5,1.2,0.5c0.7,0,1.3-0.2,1.7-0.7
				c0.4-0.5,0.5-1.2,0.5-2.3v-4.2h1.8v8.5L274.2,280.7L274.2,280.7z"/>
			<path class="st0" d="M278.1,269.9c0-0.4,0.1-0.6,0.2-0.7c0.1-0.1,0.5-0.2,0.7-0.2c0.4,0,0.6,0.1,0.7,0.2c0.1,0.1,0.2,0.4,0.2,0.7
				c0,0.4-0.1,0.6-0.2,0.7c-0.1,0.1-0.4,0.2-0.7,0.2c-0.4,0-0.6-0.1-0.7-0.2C278.2,270.5,278.1,270.3,278.1,269.9z M280,280.7h-1.8
				v-8.5h1.8V280.7z"/>
			<path class="st0" d="M285.5,280.8c-1.1,0-1.9-0.4-2.4-1.2c-0.6-0.7-0.8-1.8-0.8-3.3c0-1.3,0.2-2.4,0.8-3.3
				c0.6-0.7,1.5-1.2,2.5-1.2s1.9,0.4,2.5,1.2h0.1c-0.1-0.6-0.1-1.1-0.1-1.5v-3.2h1.8v12h-1.5l-0.4-1.1H288
				C287.4,280.5,286.6,280.8,285.5,280.8z M286,279.4c0.7,0,1.3-0.2,1.6-0.6c0.4-0.4,0.5-1.1,0.5-2.1v-0.2c0-1.1-0.1-1.8-0.5-2.3
				c-0.4-0.5-0.8-0.7-1.7-0.7c-0.6,0-1.1,0.2-1.5,0.7c-0.4,0.5-0.5,1.2-0.5,2.2c0,1,0.1,1.7,0.5,2.2
				C284.8,279,285.2,279.4,286,279.4z"/>
			<path class="st0" d="M292.3,269.9c0-0.4,0.1-0.6,0.2-0.7c0.1-0.1,0.5-0.2,0.7-0.2c0.4,0,0.6,0.1,0.7,0.2c0.1,0.1,0.2,0.4,0.2,0.7
				c0,0.4-0.1,0.6-0.2,0.7c-0.1,0.1-0.4,0.2-0.7,0.2c-0.4,0-0.6-0.1-0.7-0.2C292.4,270.5,292.3,270.3,292.3,269.9z M294.2,280.7
				h-1.8v-8.5h1.8V280.7z"/>
			<path class="st0" d="M299.9,279.4c0.5,0,0.8-0.1,1.3-0.2v1.3c-0.2,0.1-0.5,0.1-0.7,0.2c-0.4,0-0.6,0.1-1,0.1
				c-1.7,0-2.5-0.8-2.5-2.7v-4.6h-1.2v-0.8l1.2-0.6l0.6-1.8h1.1v1.9h2.4v1.3h-2.4v4.6c0,0.5,0.1,0.7,0.4,1S299.5,279.4,299.9,279.4z
				"/>
			<path class="st0" d="M301.7,272.2h1.9l1.7,4.8c0.2,0.7,0.5,1.3,0.5,1.9h0.1c0-0.2,0.1-0.6,0.2-1s0.7-2.3,1.9-5.7h1.9l-3.6,9.6
				c-0.6,1.8-1.8,2.7-3.3,2.7c-0.4,0-0.8,0-1.2-0.1V283c0.2,0.1,0.6,0.1,1,0.1c0.8,0,1.5-0.5,1.8-1.5l0.4-0.8L301.7,272.2z"/>
			<path class="st0" d="M322.2,277.7c0,1-0.4,1.8-1.1,2.3c-0.7,0.6-1.7,0.8-3,0.8c-1.2,0-2.3-0.2-3.2-0.6v-1.7
				c0.5,0.2,1.1,0.5,1.6,0.6c0.6,0.1,1.1,0.2,1.6,0.2c0.7,0,1.2-0.1,1.6-0.4c0.4-0.2,0.5-0.6,0.5-1.1c0-0.4-0.1-0.7-0.5-1.1
				c-0.4-0.2-1-0.6-1.9-1.1c-1-0.4-1.7-0.8-2.2-1.5c-0.4-0.5-0.6-1.2-0.6-1.9c0-1,0.4-1.7,1-2.2c0.6-0.5,1.6-0.8,2.7-0.8
				c1.1,0,2.2,0.2,3.3,0.7l-0.6,1.5c-1-0.4-1.9-0.6-2.7-0.6c-0.6,0-1.1,0.1-1.3,0.4c-0.4,0.2-0.5,0.6-0.5,1c0,0.2,0.1,0.5,0.2,0.7
				c0.1,0.2,0.4,0.4,0.6,0.6c0.2,0.2,0.8,0.5,1.6,0.7c0.8,0.4,1.5,0.6,1.8,1c0.4,0.2,0.6,0.6,0.8,1
				C322.1,276.7,322.2,277.2,322.2,277.7z"/>
			<path class="st0" d="M327.6,280.8c-1.3,0-2.3-0.4-2.9-1.1c-0.7-0.7-1-1.8-1-3.3s0.4-2.5,1.1-3.3s1.7-1.2,3-1.2
				c0.8,0,1.7,0.1,2.4,0.5l-0.6,1.5c-0.7-0.2-1.3-0.5-1.9-0.5c-1.5,0-2.2,1-2.2,2.9c0,1,0.2,1.7,0.6,2.2c0.4,0.5,0.8,0.7,1.6,0.7
				c0.8,0,1.6-0.2,2.3-0.6v1.6c-0.4,0.2-0.7,0.4-1.1,0.4C328.5,280.8,328.2,280.8,327.6,280.8z"/>
			<path class="st0" d="M336.3,272.1c0.4,0,0.6,0,0.8,0.1l-0.1,1.7c-0.2-0.1-0.5-0.1-0.8-0.1c-0.7,0-1.3,0.2-1.7,0.7
				c-0.5,0.5-0.7,1.1-0.7,1.8v4.5h-1.8v-8.5h1.5l0.2,1.5h0.1c0.2-0.5,0.6-1,1.1-1.2C335.2,272.2,335.7,272.1,336.3,272.1z"/>
			<path class="st0" d="M342.5,280.8c-1.3,0-2.3-0.4-3.2-1.2c-0.7-0.7-1.1-1.8-1.1-3.2s0.4-2.4,1.1-3.3s1.7-1.2,2.9-1.2
				c1.1,0,2.1,0.4,2.7,1c0.6,0.7,1,1.6,1,2.8v1h-5.7c0,0.8,0.2,1.5,0.7,1.9c0.4,0.5,1,0.6,1.8,0.6c0.5,0,1,0,1.5-0.1
				c0.5-0.1,0.8-0.2,1.5-0.5v1.5c-0.5,0.2-0.8,0.4-1.3,0.5C343.6,280.8,343.1,280.8,342.5,280.8z M342.1,273.4
				c-0.6,0-1.1,0.2-1.3,0.6c-0.4,0.4-0.6,0.8-0.6,1.6h3.9c0-0.7-0.1-1.2-0.5-1.6C343.2,273.5,342.7,273.4,342.1,273.4z"/>
			<path class="st0" d="M351.6,280.8c-1.3,0-2.3-0.4-3.2-1.2c-0.7-0.7-1.1-1.8-1.1-3.2s0.4-2.4,1.1-3.3s1.7-1.2,2.9-1.2
				c1.1,0,2.1,0.4,2.7,1c0.6,0.7,1,1.6,1,2.8v1h-5.7c0,0.8,0.2,1.5,0.7,1.9c0.4,0.5,1,0.6,1.8,0.6c0.5,0,1,0,1.5-0.1
				c0.5-0.1,0.8-0.2,1.5-0.5v1.5c-0.5,0.2-0.8,0.4-1.3,0.5C352.6,280.8,352,280.8,351.6,280.8z M351.2,273.4c-0.6,0-1.1,0.2-1.3,0.6
				c-0.4,0.4-0.6,0.8-0.6,1.6h3.9c0-0.7-0.1-1.2-0.5-1.6C352.2,273.5,351.8,273.4,351.2,273.4z"/>
			<path class="st0" d="M364.4,280.7h-1.8v-5.2c0-0.6-0.1-1.1-0.4-1.5c-0.2-0.4-0.7-0.5-1.2-0.5c-0.7,0-1.3,0.2-1.7,0.7
				c-0.4,0.5-0.5,1.2-0.5,2.3v4.2H357v-8.5h1.5l0.2,1.1h0.1c0.2-0.4,0.6-0.7,1.1-1c0.5-0.2,1-0.4,1.6-0.4c2.1,0,3,1.1,3,3.2v5.5
				L364.4,280.7L364.4,280.7z"/>
			<path class="st0" d="M372.5,278.3c0,0.8-0.2,1.5-0.8,1.9c-0.6,0.5-1.5,0.6-2.5,0.6s-2.1-0.1-2.8-0.5v-1.6c1,0.5,1.9,0.7,2.8,0.7
				c1.1,0,1.7-0.4,1.7-1c0-0.2-0.1-0.4-0.2-0.5c-0.1-0.1-0.4-0.2-0.6-0.5c-0.2-0.1-0.7-0.4-1.2-0.5c-1-0.4-1.7-0.7-1.9-1.1
				c-0.4-0.4-0.5-0.8-0.5-1.5c0-0.7,0.2-1.3,0.8-1.7c0.6-0.4,1.3-0.6,2.4-0.6c1,0,1.9,0.2,2.8,0.6l-0.6,1.3c-1-0.4-1.7-0.6-2.3-0.6
				c-1,0-1.5,0.2-1.5,0.8c0,0.2,0.1,0.5,0.4,0.7c0.2,0.2,0.8,0.5,1.6,0.7c0.7,0.2,1.2,0.5,1.6,0.7c0.4,0.2,0.6,0.5,0.7,0.7
				C372.4,277.5,372.5,277.9,372.5,278.3z"/>
		</g>
	</g>
	<g>
		<line class="st3" x1="404.7" y1="275" x2="735.7" y2="275"/>
	</g>
	<g>
		<circle class="st4" cx="82.8" cy="275" r="70.7"/>
		<polygon class="st4" points="199,275 176.5,266.8 176.5,283.2 		"/>
		<g>
			<path class="st4" d="M184,276.8h-19.5c-1,0-1.8-0.8-1.8-1.8c0-1,0.8-1.8,1.8-1.8H184c1,0,1.8,0.8,1.8,1.8
				C185.8,276,185,276.8,184,276.8z"/>
		</g>
		<g>
			<path class="st0" d="M70.2,265.8c0,1.3-0.5,2.4-1.5,3.2c-1,0.7-2.3,1.1-4,1.1s-3-0.2-4.1-0.8v-2.3c0.7,0.4,1.5,0.6,2.2,0.7
				c0.7,0.2,1.5,0.2,2.2,0.2c1,0,1.7-0.2,2.2-0.6c0.5-0.4,0.7-0.8,0.7-1.5s-0.2-1.1-0.6-1.5s-1.3-0.8-2.7-1.3
				c-1.3-0.6-2.3-1.2-2.9-1.9c-0.6-0.7-0.8-1.6-0.8-2.5c0-1.2,0.5-2.2,1.3-2.9c0.8-0.7,2.1-1.1,3.6-1.1c1.5,0,2.9,0.4,4.2,1
				l-0.7,1.9c-1.3-0.6-2.5-0.8-3.5-0.8c-0.8,0-1.3,0.1-1.8,0.5c-0.4,0.4-0.6,0.8-0.6,1.3c0,0.4,0.1,0.7,0.2,1s0.5,0.5,0.8,0.7
				c0.4,0.2,1.1,0.6,2.1,1c1.1,0.5,1.9,0.8,2.4,1.3c0.5,0.4,0.8,0.8,1.1,1.3C70.1,264.6,70.2,265.2,70.2,265.8z"/>
			<path class="st0" d="M72.1,265.9c0-0.8,0.2-1.7,0.6-2.3c0.5-0.6,1.2-1.3,2.4-1.9c-0.6-0.7-1.1-1.5-1.3-1.9s-0.4-1.1-0.4-1.6
				c0-1.1,0.4-1.8,1.1-2.4s1.7-0.8,3-0.8c1.2,0,2.2,0.2,2.9,0.8s1.1,1.3,1.1,2.3c0,0.7-0.2,1.5-0.7,2.1c-0.5,0.6-1.2,1.2-2.3,1.9
				l3.5,3.4c0.6-0.7,1-1.8,1.3-3.3h2.4c-0.5,1.9-1.2,3.5-2.3,4.7l3,3h-3.2l-1.6-1.5c-0.7,0.6-1.5,1-2.2,1.2
				c-0.8,0.2-1.7,0.5-2.7,0.5c-1.6,0-2.8-0.4-3.8-1.1C72.5,268.2,72.1,267.2,72.1,265.9z M77.2,268.1c1.2,0,2.3-0.4,3.2-1.1
				l-3.9-3.9c-0.7,0.5-1.2,0.8-1.5,1.3c-0.2,0.4-0.4,0.8-0.4,1.3c0,0.7,0.2,1.2,0.7,1.6C75.8,267.8,76.5,268.1,77.2,268.1z
				 M75.8,258.1c0,0.5,0.1,0.8,0.4,1.2c0.2,0.4,0.6,0.8,1,1.2c0.7-0.5,1.3-0.8,1.6-1.2c0.4-0.4,0.5-0.8,0.5-1.3
				c0-0.5-0.1-0.8-0.5-1.1c-0.2-0.2-0.7-0.4-1.2-0.4s-1,0.1-1.3,0.4C75.9,257.3,75.8,257.7,75.8,258.1z"/>
			<path class="st0" d="M98.5,259.5c0,1.6-0.5,2.8-1.6,3.6c-1,0.8-2.4,1.2-4.4,1.2H91v5.6h-2.4v-15H93c1.8,0,3.3,0.4,4.2,1.1
				C98.1,256.8,98.5,257.9,98.5,259.5z M91,262.3h1.3c1.2,0,2.2-0.2,2.8-0.6c0.6-0.5,0.8-1.1,0.8-2.1c0-0.8-0.2-1.5-0.8-1.9
				c-0.5-0.4-1.3-0.6-2.4-0.6H91V262.3z"/>
			<path class="st0" d="M65.2,285.8c1.5,0,2.7,0.4,3.6,1.2c0.8,0.8,1.3,1.9,1.3,3.3c0,1.6-0.5,2.8-1.5,3.8c-1,0.8-2.4,1.3-4.2,1.3
				c-1.7,0-3-0.2-4-0.8v-2.2c0.6,0.4,1.2,0.6,1.9,0.7c0.7,0.1,1.3,0.2,1.9,0.2c1.1,0,1.9-0.2,2.4-0.7c0.6-0.5,0.8-1.2,0.8-2.2
				c0-1.8-1.1-2.7-3.4-2.7c-0.4,0-0.7,0-1.2,0.1c-0.5,0.1-0.8,0.1-1.2,0.2l-1.1-0.6l0.6-7.3h7.8v2.2h-5.7l-0.4,3.8
				c0.2,0,0.5-0.1,0.8-0.1C64.2,285.8,64.7,285.8,65.2,285.8z"/>
			<path class="st0" d="M82.3,287.6c0,2.5-0.4,4.5-1.2,5.8c-0.8,1.2-2.1,1.9-3.9,1.9c-1.7,0-2.9-0.6-3.8-1.9
				c-0.8-1.3-1.3-3.3-1.3-5.7c0-2.7,0.4-4.6,1.2-5.8c0.8-1.2,2.1-1.9,3.9-1.9c1.7,0,2.9,0.6,3.8,1.9
				C81.8,283.2,82.3,285.1,82.3,287.6z M74.5,287.6c0,2.1,0.2,3.5,0.6,4.4s1.1,1.3,2.1,1.3c1,0,1.6-0.5,2.1-1.3
				c0.5-0.8,0.6-2.3,0.6-4.4c0-2.1-0.2-3.5-0.6-4.4c-0.5-0.8-1.1-1.3-2.1-1.3c-1,0-1.6,0.5-2.1,1.3
				C74.8,284.1,74.5,285.5,74.5,287.6z"/>
			<path class="st0" d="M94.3,287.6c0,2.5-0.4,4.5-1.2,5.8c-0.8,1.2-2.1,1.9-3.9,1.9c-1.7,0-2.9-0.6-3.8-1.9
				c-0.8-1.3-1.3-3.3-1.3-5.7c0-2.7,0.4-4.6,1.2-5.8c0.8-1.2,2.1-1.9,3.9-1.9c1.7,0,2.9,0.6,3.8,1.9
				C93.8,283.1,94.3,285.1,94.3,287.6z M86.5,287.6c0,2.1,0.2,3.5,0.6,4.4s1.1,1.3,2.1,1.3c1,0,1.6-0.5,2.1-1.3
				c0.5-0.8,0.6-2.3,0.6-4.4c0-2.1-0.2-3.5-0.6-4.4c-0.5-0.8-1.1-1.3-2.1-1.3c-1,0-1.6,0.5-2.1,1.3
				C86.7,284.1,86.5,285.5,86.5,287.6z"/>
			<path class="st0" d="M95.8,283.7c0-0.8,0.2-1.6,0.6-2.2c0.4-0.7,1-1.2,1.7-1.7c0.7-0.4,1.5-0.6,2.3-0.6s1.6,0.2,2.2,0.6
				c0.7,0.4,1.2,1,1.7,1.7c0.4,0.7,0.6,1.5,0.6,2.3c0,0.7-0.2,1.6-0.6,2.2c-0.4,0.7-1,1.2-1.6,1.7s-1.5,0.6-2.3,0.6
				c-0.8,0-1.6-0.2-2.3-0.6s-1.2-1-1.6-1.7C96,285.3,95.8,284.6,95.8,283.7z M96.5,283.7c0,0.7,0.1,1.3,0.5,1.9
				c0.4,0.6,0.8,1.1,1.3,1.3c0.6,0.4,1.2,0.5,1.8,0.5c0.7,0,1.3-0.1,1.9-0.5c0.6-0.4,1.1-0.8,1.3-1.3c0.4-0.6,0.5-1.2,0.5-1.8
				c0-0.7-0.1-1.3-0.5-1.9c-0.4-0.6-0.8-1.1-1.3-1.3c-0.6-0.4-1.2-0.5-1.8-0.5c-0.7,0-1.3,0.1-1.8,0.5c-0.6,0.4-1.1,0.7-1.3,1.3
				C96.6,282.4,96.5,283,96.5,283.7z M102.1,282.6c0,0.7-0.4,1.1-1,1.3l1.5,2.4h-1.2l-1.1-2.1h-0.5v2.1h-1.1v-5.3h1.6
				c0.7,0,1.2,0.1,1.6,0.4C101.9,281.7,102.1,282.2,102.1,282.6z M99.6,283.5h0.4c0.2,0,0.5-0.1,0.7-0.2c0.1-0.1,0.2-0.4,0.2-0.6
				s-0.1-0.5-0.2-0.6c-0.1-0.1-0.4-0.1-0.7-0.1h-0.4V283.5z"/>
		</g>
	</g>
	<path class="st5" d="M956.1,243.1H750.3c-17.7,0-31.9,14.3-31.9,31.9l0,0c0,17.7,14.3,31.9,31.9,31.9H956
		c17.7,0,31.9-14.3,31.9-31.9l0,0C988,257.4,973.7,243.1,956.1,243.1z"/>
	<g class="st6">
		<path class="st7" d="M750,265.7h-2.3l-5.6-9H742v0.5c0.1,1,0.1,1.8,0.1,2.7v5.8h-1.7v-11.3h2.2l5.6,9l0,0c0-0.1,0-0.6-0.1-1.3
			s0-1.3,0-1.7v-5.9h1.7v11.3H750z"/>
		<path class="st7" d="M756.6,265.8c-1.3,0-2.3-0.4-3.2-1.2c-0.7-0.7-1.1-1.8-1.1-3.2s0.4-2.4,1.1-3.3c0.7-0.8,1.7-1.2,2.9-1.2
			c1.1,0,2.1,0.4,2.7,1c0.6,0.7,1,1.6,1,2.8v1h-5.7c0,0.8,0.2,1.5,0.7,1.9c0.4,0.5,1,0.6,1.8,0.6c0.5,0,1,0,1.5-0.1
			c0.5-0.1,0.8-0.2,1.5-0.5v1.5c-0.5,0.2-0.8,0.4-1.3,0.5C757.7,265.8,757.2,265.8,756.6,265.8z M756.2,258.4
			c-0.6,0-1.1,0.2-1.3,0.6c-0.4,0.4-0.6,0.8-0.6,1.6h3.9c0-0.7-0.1-1.2-0.5-1.6C757.3,258.5,756.8,258.4,756.2,258.4z"/>
		<path class="st7" d="M768.9,265.7l-1.1-4c-0.1-0.4-0.4-1.5-0.7-2.9H767c-0.2,1.3-0.5,2.4-0.7,2.9l-1.1,4h-2.1l-2.4-8.5h1.8
			l1.1,4.2c0.2,1.1,0.4,1.9,0.5,2.7l0,0c0-0.4,0.1-0.8,0.2-1.3c0.1-0.5,0.2-0.8,0.2-1.1l1.3-4.5h1.9l1.2,4.5
			c0.1,0.2,0.1,0.6,0.2,1.2c0.1,0.5,0.2,1,0.2,1.2h0.1c0.1-0.6,0.2-1.5,0.5-2.7l1.1-4.2h1.8l-2.4,8.5H768.9z"/>
		<path class="st7" d="M786,265.7l-1.1-3.2h-4.2l-1.1,3.2h-1.9l4.2-11.3h2.1l4.2,11.3H786z M784.5,260.9l-1.1-3
			c-0.1-0.2-0.2-0.5-0.4-1c-0.1-0.5-0.2-0.7-0.2-1c-0.1,0.6-0.4,1.3-0.6,2.1l-1,2.9H784.5L784.5,260.9z"/>
		<path class="st7" d="M796.5,257.2v1l-1.5,0.2c0.1,0.1,0.2,0.4,0.4,0.6c0.1,0.2,0.1,0.5,0.1,0.8c0,0.8-0.4,1.6-0.8,2.1
			c-0.6,0.5-1.5,0.7-2.5,0.7c-0.2,0-0.5,0-0.7-0.1c-0.4,0.2-0.6,0.5-0.6,0.8c0,0.2,0.1,0.4,0.2,0.5c0.1,0.1,0.5,0.1,1,0.1h1.5
			c1,0,1.7,0.2,2.2,0.6c0.5,0.4,0.7,1,0.7,1.7c0,1-0.4,1.7-1.2,2.2c-0.8,0.5-1.9,0.7-3.4,0.7c-1.2,0-2.1-0.2-2.7-0.6s-1-1-1-1.7
			c0-0.5,0.1-1,0.5-1.3c0.4-0.4,0.8-0.6,1.3-0.7c-0.2-0.1-0.5-0.2-0.6-0.5c-0.1-0.2-0.2-0.5-0.2-0.7c0-0.4,0.1-0.6,0.2-0.8
			c0.1-0.2,0.5-0.5,0.8-0.6c-0.5-0.2-0.8-0.5-1.1-1c-0.2-0.5-0.4-1-0.4-1.5c0-1,0.2-1.7,0.8-2.2c0.6-0.5,1.5-0.7,2.5-0.7
			c0.2,0,0.5,0,0.7,0c0.2,0,0.5,0.1,0.6,0.1h3V257.2z M789.8,267c0,0.4,0.1,0.7,0.5,0.8c0.4,0.2,0.8,0.4,1.5,0.4
			c1,0,1.7-0.1,2.2-0.4c0.5-0.2,0.7-0.6,0.7-1.1c0-0.4-0.1-0.6-0.4-0.8c-0.2-0.1-0.7-0.2-1.5-0.2h-1.3c-0.5,0-1,0.1-1.2,0.4
			C790,266.3,789.8,266.5,789.8,267z M790.6,259.8c0,0.5,0.1,1,0.4,1.2c0.2,0.2,0.7,0.5,1.2,0.5c1.1,0,1.6-0.6,1.6-1.7
			c0-0.6-0.1-1-0.4-1.3c-0.2-0.2-0.6-0.5-1.2-0.5c-0.5,0-1,0.1-1.2,0.5C790.8,258.9,790.6,259.4,790.6,259.8z"/>
		<path class="st7" d="M801.8,265.8c-1.3,0-2.3-0.4-3.2-1.2c-0.7-0.7-1.1-1.8-1.1-3.2s0.4-2.4,1.1-3.3c0.7-0.8,1.7-1.2,2.9-1.2
			c1.1,0,2.1,0.4,2.7,1c0.6,0.7,1,1.6,1,2.8v1h-5.7c0,0.8,0.2,1.5,0.7,1.9c0.4,0.5,1,0.6,1.8,0.6c0.5,0,1,0,1.5-0.1
			c0.5-0.1,0.8-0.2,1.5-0.5v1.5c-0.5,0.2-0.8,0.4-1.3,0.5C802.9,265.8,802.4,265.8,801.8,265.8z M801.4,258.4
			c-0.6,0-1.1,0.2-1.3,0.6c-0.4,0.4-0.6,0.8-0.6,1.6h3.9c0-0.7-0.1-1.2-0.5-1.6C802.5,258.5,802,258.4,801.4,258.4z"/>
		<path class="st7" d="M818.4,265.7l-1.1-3.2h-4.2l-1.1,3.2h-2.1l4.2-11.3h2.1l4.2,11.3H818.4z M816.8,260.9l-1.1-3
			c-0.1-0.2-0.2-0.5-0.4-1c-0.1-0.5-0.2-0.7-0.2-1c-0.1,0.6-0.4,1.3-0.6,2.1l-1,2.9H816.8L816.8,260.9z"/>
		<path class="st7" d="M823.5,265.7h-1.8v-12h1.8V265.7z"/>
		<path class="st7" d="M830.4,265.8c-1.1,0-1.9-0.4-2.5-1.2h-0.1c0.1,0.7,0.1,1.2,0.1,1.3v3.5H826v-12.2h1.5c0,0.1,0.1,0.5,0.2,1.1
			h0.1c0.6-0.8,1.5-1.3,2.5-1.3s1.9,0.4,2.4,1.2c0.6,0.7,0.8,1.8,0.8,3.3c0,1.3-0.2,2.4-0.8,3.3
			C832.2,265.5,831.5,265.8,830.4,265.8z M829.9,258.5c-0.7,0-1.2,0.2-1.6,0.6c-0.4,0.4-0.5,1.1-0.5,2.1v0.2c0,1.1,0.1,1.8,0.5,2.3
			c0.4,0.5,0.8,0.7,1.6,0.7c0.6,0,1.1-0.2,1.5-0.7c0.4-0.5,0.5-1.2,0.5-2.2s-0.1-1.7-0.5-2.2C831.1,258.8,830.7,258.5,829.9,258.5z"
			/>
		<path class="st7" d="M843.4,265.7h-1.8v-5.2c0-0.6-0.1-1.1-0.4-1.5c-0.2-0.4-0.7-0.5-1.2-0.5c-0.7,0-1.3,0.2-1.7,0.7
			c-0.4,0.5-0.5,1.2-0.5,2.3v4.2H836v-12h1.8v3c0,0.5,0,1-0.1,1.6h0.1c0.2-0.4,0.6-0.7,1-1c0.5-0.2,1-0.4,1.6-0.4
			c2.1,0,3.2,1.1,3.2,3.2v5.5H843.4z"/>
		<path class="st7" d="M851.3,265.7l-0.4-1.2h-0.1c-0.4,0.5-0.8,0.8-1.2,1.1c-0.4,0.2-1,0.2-1.6,0.2c-0.8,0-1.5-0.2-1.9-0.7
			c-0.5-0.5-0.7-1.1-0.7-1.9c0-0.8,0.4-1.6,1-1.9c0.6-0.5,1.7-0.7,3-0.7h1.5V260c0-0.5-0.1-1-0.4-1.2s-0.6-0.4-1.2-0.4
			c-0.5,0-0.8,0.1-1.2,0.2c-0.4,0.1-0.7,0.2-1.2,0.5l-0.6-1.3c0.5-0.2,1-0.5,1.6-0.6c0.6-0.1,1.1-0.2,1.6-0.2c1.1,0,1.9,0.2,2.4,0.7
			c0.6,0.5,0.8,1.2,0.8,2.2v5.7h-1.3V265.7z M848.6,264.5c0.6,0,1.2-0.2,1.6-0.6c0.4-0.4,0.6-0.8,0.6-1.6v-0.7h-1.1
			c-0.8,0-1.5,0.1-1.8,0.5c-0.4,0.2-0.6,0.6-0.6,1.2c0,0.4,0.1,0.7,0.4,0.8C847.7,264.3,848.1,264.5,848.6,264.5z"/>
		<path class="st7" d="M868.1,254.4v7.3c0,0.8-0.1,1.6-0.5,2.2c-0.4,0.6-0.8,1.1-1.6,1.5s-1.5,0.5-2.4,0.5c-1.5,0-2.4-0.4-3.3-1.1
			c-0.7-0.7-1.2-1.7-1.2-3v-7.3h1.8v7.2c0,1,0.2,1.6,0.6,2.1c0.4,0.5,1.1,0.6,1.9,0.6c1.7,0,2.5-1,2.5-2.8v-7H868.1z"/>
		<path class="st7" d="M870.5,264.7c0-0.4,0.1-0.6,0.2-0.8c0.2-0.2,0.5-0.2,0.8-0.2c0.4,0,0.6,0.1,0.8,0.4c0.2,0.2,0.2,0.5,0.2,0.8
			s-0.1,0.6-0.2,0.8c-0.1,0.2-0.5,0.4-0.8,0.4c-0.4,0-0.6-0.1-0.8-0.4C870.7,265.3,870.5,265.1,870.5,264.7z"/>
		<path class="st7" d="M881.8,262.6c0,1-0.4,1.8-1.1,2.3c-0.7,0.6-1.7,0.8-3,0.8c-1.2,0-2.3-0.2-3.2-0.6v-1.7
			c0.5,0.2,1.1,0.5,1.6,0.6c0.6,0.1,1.1,0.2,1.6,0.2c0.7,0,1.2-0.1,1.6-0.4c0.4-0.2,0.5-0.6,0.5-1.1c0-0.4-0.1-0.7-0.5-1.1
			c-0.4-0.2-1-0.6-1.9-1.1c-1-0.4-1.7-0.8-2.2-1.5c-0.4-0.5-0.6-1.2-0.6-1.9c0-1,0.4-1.7,1-2.2c0.7-0.5,1.6-0.8,2.7-0.8
			c1.1,0,2.2,0.2,3.3,0.7l-0.6,1.5c-1-0.4-1.9-0.6-2.7-0.6c-0.6,0-1.1,0.1-1.3,0.4c-0.2,0.2-0.5,0.6-0.5,1c0,0.2,0.1,0.5,0.2,0.7
			c0.1,0.2,0.4,0.4,0.6,0.6c0.2,0.2,0.8,0.5,1.6,0.7c0.8,0.4,1.5,0.6,1.8,1c0.4,0.4,0.7,0.6,0.8,1
			C881.8,261.7,881.8,262.1,881.8,262.6z"/>
		<path class="st7" d="M883.6,264.7c0-0.4,0.1-0.6,0.2-0.8c0.2-0.2,0.5-0.2,0.8-0.2c0.4,0,0.6,0.1,0.8,0.4c0.2,0.2,0.2,0.5,0.2,0.8
			s-0.1,0.6-0.2,0.8c-0.2,0.2-0.5,0.4-0.8,0.4c-0.4,0-0.6-0.1-0.8-0.4C883.6,265.3,883.6,265.1,883.6,264.7z"/>
		<path class="st7" d="M892.5,265.7v-11.3h1.8v9.7h4.7v1.6H892.5z"/>
		<path class="st7" d="M906.2,265.7l-0.4-1.2h-0.1c-0.4,0.5-0.8,0.8-1.2,1.1c-0.4,0.2-1,0.2-1.6,0.2c-0.8,0-1.5-0.2-1.9-0.7
			c-0.5-0.5-0.7-1.1-0.7-1.9c0-0.8,0.4-1.6,1-1.9c0.6-0.5,1.7-0.7,3-0.7h1.5V260c0-0.5-0.1-1-0.4-1.2s-0.6-0.4-1.2-0.4
			c-0.5,0-0.8,0.1-1.2,0.2c-0.4,0.1-0.7,0.2-1.2,0.5l-0.6-1.3c0.5-0.2,1-0.5,1.6-0.6c0.6-0.1,1.1-0.2,1.6-0.2c1.1,0,1.9,0.2,2.4,0.7
			c0.6,0.5,0.8,1.2,0.8,2.2v5.7h-1.3V265.7z M903.4,264.5c0.6,0,1.2-0.2,1.6-0.6s0.6-0.8,0.6-1.6v-0.7h-1.1c-0.8,0-1.5,0.1-1.8,0.5
			c-0.4,0.2-0.6,0.6-0.6,1.2c0,0.4,0.1,0.7,0.4,0.8C902.7,264.3,903,264.5,903.4,264.5z"/>
		<path class="st7" d="M914.3,256.9c0.4,0,0.6,0,0.8,0.1l-0.1,1.7c-0.2-0.1-0.5-0.1-0.8-0.1c-0.7,0-1.3,0.2-1.8,0.7
			c-0.5,0.5-0.7,1.1-0.7,1.8v4.5h-1.8v-8.5h1.5l0.2,1.5h0.1c0.2-0.5,0.6-1,1.1-1.2C913.2,257.2,913.7,256.9,914.3,256.9z"/>
		<path class="st7" d="M923.9,257.2v1l-1.5,0.2c0.1,0.1,0.2,0.4,0.4,0.6c0.1,0.2,0.1,0.5,0.1,0.8c0,0.8-0.2,1.6-0.8,2.1
			c-0.6,0.5-1.5,0.7-2.5,0.7c-0.2,0-0.5,0-0.7-0.1c-0.4,0.2-0.6,0.5-0.6,0.8c0,0.2,0.1,0.4,0.2,0.5c0.1,0.1,0.5,0.1,1,0.1h1.5
			c1,0,1.7,0.2,2.2,0.6c0.5,0.4,0.7,1,0.7,1.7c0,1-0.4,1.7-1.2,2.2c-0.8,0.5-1.9,0.7-3.4,0.7c-1.2,0-2.1-0.2-2.7-0.6s-1-1-1-1.7
			c0-0.5,0.1-1,0.5-1.3c0.4-0.4,0.8-0.6,1.3-0.7c-0.2-0.1-0.5-0.2-0.6-0.5c-0.1-0.2-0.2-0.5-0.2-0.7c0-0.4,0.1-0.6,0.2-0.8
			c0.1-0.2,0.5-0.5,0.8-0.6c-0.5-0.2-0.8-0.5-1.1-1s-0.4-1-0.4-1.5c0-1,0.2-1.7,0.8-2.2c0.6-0.5,1.5-0.7,2.5-0.7c0.2,0,0.5,0,0.7,0
			s0.5,0.1,0.6,0.1h3V257.2z M917.2,267c0,0.4,0.1,0.7,0.5,0.8c0.4,0.2,0.8,0.4,1.5,0.4c1,0,1.7-0.1,2.2-0.4
			c0.5-0.2,0.7-0.6,0.7-1.1c0-0.4-0.1-0.6-0.4-0.8c-0.2-0.2-0.7-0.2-1.5-0.2h-1.3c-0.5,0-1,0.1-1.2,0.4
			C917.5,266.3,917.2,266.5,917.2,267z M918.1,259.8c0,0.5,0.1,1,0.4,1.2c0.2,0.2,0.7,0.5,1.2,0.5c1.1,0,1.6-0.6,1.6-1.7
			c0-0.6-0.1-1-0.4-1.3c-0.2-0.2-0.6-0.5-1.2-0.5c-0.5,0-1,0.1-1.2,0.5C918.2,258.9,918.1,259.4,918.1,259.8z"/>
		<path class="st7" d="M929.2,265.8c-1.3,0-2.3-0.4-3.2-1.2c-0.7-0.7-1.1-1.8-1.1-3.2s0.4-2.4,1.1-3.3c0.7-0.8,1.7-1.2,2.9-1.2
			c1.1,0,2.1,0.4,2.7,1c0.6,0.7,1,1.6,1,2.8v1h-5.7c0,0.8,0.2,1.5,0.7,1.9c0.4,0.5,1,0.6,1.8,0.6c0.5,0,1,0,1.5-0.1
			c0.5-0.1,0.8-0.2,1.5-0.5v1.5c-0.5,0.2-0.8,0.4-1.3,0.5C930.3,265.8,929.8,265.8,929.2,265.8z M928.9,258.4
			c-0.6,0-1.1,0.2-1.3,0.6c-0.4,0.4-0.6,0.8-0.6,1.6h3.9c0-0.7-0.1-1.2-0.5-1.6C929.9,258.5,929.5,258.4,928.9,258.4z"/>
		<path class="st7" d="M933.8,262.1v-1.6h4v1.6H933.8z"/>
		<path class="st7" d="M944.6,255.8c-1.1,0-1.9,0.4-2.5,1.1c-0.6,0.7-0.8,1.8-0.8,3.2c0,1.3,0.2,2.4,0.8,3.2
			c0.6,0.7,1.5,1.1,2.5,1.1c0.5,0,1,0,1.3-0.1c0.4-0.1,1-0.2,1.3-0.4v1.6c-0.8,0.4-1.9,0.5-3,0.5c-1.7,0-2.9-0.5-3.8-1.5
			c-0.8-1-1.3-2.4-1.3-4.2c0-1.2,0.2-2.2,0.6-3c0.4-0.8,1.1-1.6,1.8-2.1c0.8-0.5,1.8-0.7,2.9-0.7c1.1,0,2.2,0.2,3.2,0.7l-0.6,1.6
			c-0.4-0.1-0.7-0.4-1.2-0.5C945.6,255.8,945.1,255.8,944.6,255.8z"/>
		<path class="st7" d="M955,265.7l-0.4-1.2h-0.1c-0.4,0.5-0.8,0.8-1.2,1.1c-0.4,0.2-1,0.2-1.6,0.2c-0.8,0-1.5-0.2-1.9-0.7
			c-0.5-0.5-0.7-1.1-0.7-1.9c0-0.8,0.4-1.6,1-1.9c0.6-0.5,1.7-0.7,3-0.7h1.5V260c0-0.5-0.1-1-0.4-1.2c-0.2-0.2-0.6-0.4-1.2-0.4
			c-0.5,0-0.8,0.1-1.2,0.2c-0.4,0.1-0.7,0.2-1.2,0.5l-0.6-1.3c0.5-0.2,1-0.5,1.6-0.6c0.6-0.1,1.1-0.2,1.6-0.2c1.1,0,1.9,0.2,2.4,0.7
			c0.5,0.5,0.8,1.2,0.8,2.2v5.7H955V265.7z M952.2,264.5c0.6,0,1.2-0.2,1.6-0.6c0.4-0.4,0.6-0.8,0.6-1.6v-0.7h-1.1
			c-0.8,0-1.5,0.1-1.8,0.5c-0.4,0.2-0.6,0.6-0.6,1.2c0,0.4,0.1,0.7,0.4,0.8C951.5,264.3,951.9,264.5,952.2,264.5z"/>
		<path class="st7" d="M963.2,265.8c-1.1,0-1.9-0.4-2.5-1.2h-0.1c0.1,0.7,0.1,1.2,0.1,1.3v3.5h-1.8v-12.2h1.5c0,0.1,0.1,0.5,0.2,1.1
			h0.1c0.6-0.8,1.5-1.3,2.5-1.3c1.1,0,1.9,0.4,2.4,1.2c0.6,0.7,0.8,1.8,0.8,3.3c0,1.3-0.2,2.4-0.8,3.3
			C965,265.4,964.1,265.8,963.2,265.8z M962.7,258.5c-0.7,0-1.2,0.2-1.6,0.6c-0.4,0.4-0.5,1.1-0.5,2.1v0.2c0,1.1,0.1,1.8,0.5,2.3
			c0.4,0.5,0.8,0.7,1.6,0.7c0.6,0,1.1-0.2,1.5-0.7c0.4-0.5,0.5-1.2,0.5-2.2s-0.1-1.7-0.5-2.2C963.8,258.9,963.3,258.5,962.7,258.5z"
			/>
		<path class="st7" d="M788.6,291.9v-11.3h1.8v9.7h4.7v1.6H788.6z"/>
		<path class="st7" d="M800.6,292c-1.3,0-2.3-0.4-3.2-1.2c-0.7-0.7-1.1-1.8-1.1-3.2c0-1.3,0.4-2.4,1.1-3.3c0.7-0.8,1.7-1.2,2.9-1.2
			c1.1,0,2.1,0.4,2.7,1c0.6,0.7,1,1.6,1,2.8v1h-5.7c0,0.8,0.2,1.5,0.7,1.9c0.4,0.5,1,0.6,1.8,0.6c0.5,0,1,0,1.5-0.1
			c0.5-0.1,0.8-0.2,1.5-0.5v1.5c-0.5,0.2-0.8,0.4-1.3,0.5C801.7,292,801.2,292,800.6,292z M800.3,284.6c-0.6,0-1.1,0.2-1.3,0.6
			c-0.4,0.4-0.6,0.8-0.6,1.6h3.9c0-0.7-0.1-1.2-0.5-1.6C801.3,284.7,800.8,284.6,800.3,284.6z"/>
		<path class="st7" d="M811.3,291.9l-0.4-1.2h-0.1c-0.4,0.5-0.8,0.8-1.2,1.1c-0.4,0.2-1,0.2-1.6,0.2c-0.8,0-1.5-0.2-1.9-0.7
			c-0.5-0.5-0.7-1.1-0.7-1.9c0-0.8,0.4-1.6,1-1.9c0.6-0.5,1.7-0.7,3-0.7h1.5v-0.5c0-0.5-0.1-1-0.4-1.2c-0.2-0.2-0.6-0.4-1.2-0.4
			c-0.5,0-0.8,0.1-1.2,0.2c-0.4,0.1-0.7,0.2-1.2,0.5l-0.6-1.3c0.5-0.2,1-0.5,1.6-0.6c0.6-0.1,1.1-0.2,1.6-0.2c1.1,0,1.9,0.2,2.4,0.7
			c0.5,0.5,0.8,1.2,0.8,2.2v5.7h-1.3V291.9z M808.6,290.6c0.6,0,1.2-0.2,1.6-0.6c0.4-0.4,0.6-0.8,0.6-1.6v-0.7h-1.1
			c-0.8,0-1.5,0.1-1.8,0.5c-0.4,0.2-0.6,0.6-0.6,1.2c0,0.4,0.1,0.7,0.4,0.8C807.9,290.5,808.1,290.6,808.6,290.6z"/>
		<path class="st7" d="M818,292c-1.1,0-1.9-0.4-2.4-1.2c-0.6-0.7-0.8-1.8-0.8-3.3c0-1.5,0.2-2.4,0.8-3.3c0.6-0.7,1.5-1.2,2.5-1.2
			s1.9,0.4,2.5,1.2h0.1c-0.1-0.6-0.1-1.1-0.1-1.5v-2.9h1.8v12h-1.5l-0.4-1.1h-0.1C820,291.6,819.1,292,818,292z M818.5,290.5
			c0.7,0,1.3-0.2,1.6-0.6s0.5-1.1,0.5-2.1v-0.2c0-1.1-0.1-1.8-0.5-2.3c-0.4-0.5-0.8-0.7-1.7-0.7c-0.6,0-1.1,0.2-1.5,0.7
			c-0.4,0.5-0.5,1.2-0.5,2.2c0,1,0.1,1.7,0.5,2.2C817.3,290.3,817.8,290.5,818.5,290.5z"/>
		<path class="st7" d="M824.8,281.1c0-0.4,0.1-0.6,0.2-0.7c0.1-0.1,0.5-0.2,0.7-0.2c0.4,0,0.6,0.1,0.7,0.2c0.1,0.1,0.2,0.4,0.2,0.7
			c0,0.4-0.1,0.6-0.2,0.7c-0.1,0.1-0.5,0.2-0.7,0.2c-0.4,0-0.6-0.1-0.7-0.2C825,281.7,824.8,281.4,824.8,281.1z M826.8,291.9H825
			v-8.5h1.8V291.9z"/>
		<path class="st7" d="M836.8,291.9H835v-5.2c0-0.6-0.1-1.1-0.4-1.5c-0.2-0.4-0.7-0.5-1.2-0.5c-0.7,0-1.3,0.2-1.7,0.7
			c-0.4,0.5-0.5,1.2-0.5,2.3v4.2h-1.9v-8.5h1.5l0.2,1.1h0.1c0.2-0.4,0.6-0.7,1.1-1c0.5-0.2,1-0.4,1.6-0.4c2.1,0,3,1.1,3,3.2V291.9z"
			/>
		<path class="st7" d="M846.5,283.4v1l-1.5,0.2c0.1,0.1,0.2,0.4,0.4,0.6c0.1,0.2,0.1,0.5,0.1,0.8c0,0.8-0.4,1.6-0.8,2.1
			c-0.6,0.5-1.5,0.7-2.5,0.7c-0.2,0-0.5,0-0.7-0.1c-0.4,0.2-0.6,0.5-0.6,0.8c0,0.2,0.1,0.4,0.2,0.5c0.1,0.1,0.5,0.1,1,0.1h1.5
			c1,0,1.7,0.2,2.2,0.6c0.5,0.4,0.7,1,0.7,1.7c0,1-0.4,1.7-1.2,2.2c-0.8,0.5-1.9,0.7-3.4,0.7c-1.2,0-2.1-0.2-2.7-0.6
			c-0.6-0.4-1-1-1-1.7c0-0.5,0.1-1,0.5-1.3c0.4-0.4,0.8-0.6,1.3-0.7c-0.2-0.1-0.5-0.2-0.6-0.5s-0.2-0.5-0.2-0.7
			c0-0.4,0.1-0.6,0.2-0.8c0.1-0.2,0.5-0.5,0.8-0.6c-0.5-0.2-0.8-0.5-1.1-1c-0.2-0.5-0.4-1-0.4-1.5c0-1,0.2-1.7,0.8-2.2
			c0.6-0.5,1.5-0.7,2.5-0.7c0.2,0,0.5,0,0.7,0c0.2,0,0.5,0.1,0.6,0.1h3V283.4z M839.9,293.2c0,0.4,0.1,0.7,0.5,0.8
			c0.4,0.2,0.8,0.4,1.5,0.4c1,0,1.7-0.1,2.2-0.4c0.5-0.2,0.7-0.6,0.7-1.1c0-0.4-0.1-0.6-0.4-0.8c-0.2-0.1-0.7-0.2-1.5-0.2h-1.3
			c-0.5,0-1,0.1-1.2,0.4C840,292.5,839.9,292.7,839.9,293.2z M840.6,286c0,0.5,0.1,1,0.4,1.2c0.2,0.2,0.7,0.5,1.2,0.5
			c1.1,0,1.6-0.6,1.6-1.7c0-0.6-0.1-1-0.4-1.3c-0.2-0.2-0.6-0.5-1.2-0.5c-0.5,0-1,0.1-1.2,0.5C840.7,285.1,840.6,285.5,840.6,286z"
			/>
		<path class="st7" d="M855.4,284.8c1.1,0,2.1,0.2,2.7,0.8c0.6,0.6,1,1.5,1,2.4c0,1.2-0.4,2.2-1.1,2.8c-0.7,0.6-1.8,1-3.2,1
			c-1.2,0-2.3-0.2-2.9-0.6v-1.7c0.4,0.2,0.8,0.4,1.5,0.6c0.5,0.1,1.1,0.2,1.5,0.2c0.8,0,1.5-0.2,1.8-0.6c0.5-0.4,0.6-0.8,0.6-1.6
			c0-1.3-0.8-2.1-2.5-2.1c-0.2,0-0.5,0-0.8,0.1c-0.4,0.1-0.6,0.1-1,0.1l-0.8-0.5l0.5-5.5h5.8v1.6h-4.2l-0.2,2.8
			c0.1,0,0.4-0.1,0.6-0.1C854.8,284.8,855,284.8,855.4,284.8z"/>
		<path class="st7" d="M868.2,286.3c0,1.9-0.4,3.4-1,4.4c-0.6,1-1.6,1.5-2.9,1.5c-1.2,0-2.2-0.5-2.8-1.5c-0.6-1-1-2.4-1-4.4
			s0.4-3.4,1-4.4c0.6-1,1.6-1.5,2.9-1.5c1.2,0,2.2,0.5,2.9,1.5C868.1,282.9,868.2,284.3,868.2,286.3z M862.4,286.3
			c0,1.6,0.1,2.7,0.5,3.3c0.4,0.6,0.8,1,1.5,1c0.6,0,1.2-0.4,1.6-1c0.4-0.6,0.5-1.7,0.5-3.3c0-1.5-0.1-2.5-0.5-3.3
			c-0.4-0.7-0.8-1-1.6-1s-1.2,0.4-1.5,1C862.5,283.6,862.4,284.7,862.4,286.3z"/>
		<path class="st7" d="M874.5,291.9v-11.3h1.8v11.3H874.5z"/>
		<path class="st7" d="M886.5,291.9h-1.8v-5.2c0-0.6-0.1-1.1-0.4-1.5c-0.2-0.4-0.7-0.5-1.2-0.5c-0.7,0-1.3,0.2-1.7,0.7
			c-0.4,0.5-0.5,1.2-0.5,2.3v4.2h-1.8v-8.5h1.5l0.2,1.1h0.1c0.2-0.4,0.6-0.7,1.1-1s1-0.4,1.6-0.4c2.1,0,3,1.1,3,3.2v5.5H886.5z"/>
		<path class="st7" d="M892,292c-1.1,0-1.9-0.4-2.5-1.2c-0.6-0.7-0.8-1.8-0.8-3.3c0-1.5,0.2-2.4,0.8-3.3c0.6-0.7,1.5-1.2,2.5-1.2
			c1.1,0,1.9,0.4,2.5,1.2h0.1c-0.1-0.6-0.1-1.1-0.1-1.5v-2.9h1.8v12h-1.5l-0.4-1.1h-0.1C893.9,291.6,893.1,292,892,292z
			 M892.5,290.5c0.7,0,1.3-0.2,1.6-0.6s0.5-1.1,0.5-2.1v-0.2c0-1.1-0.1-1.8-0.5-2.3c-0.4-0.5-0.8-0.7-1.7-0.7
			c-0.6,0-1.1,0.2-1.5,0.7c-0.4,0.5-0.5,1.2-0.5,2.2c0,1,0.1,1.7,0.5,2.2C891.3,290.3,891.8,290.5,892.5,290.5z"/>
		<path class="st7" d="M902.7,292c-1.3,0-2.3-0.4-3.2-1.2c-0.7-0.7-1.1-1.8-1.1-3.2c0-1.3,0.4-2.4,1.1-3.3c0.7-0.8,1.7-1.2,2.9-1.2
			c1.1,0,2.1,0.4,2.7,1c0.6,0.7,1,1.6,1,2.8v1h-5.7c0,0.8,0.2,1.5,0.7,1.9c0.4,0.5,1,0.6,1.8,0.6c0.5,0,1,0,1.5-0.1
			c0.5-0.1,0.8-0.2,1.5-0.5v1.5c-0.5,0.2-0.8,0.4-1.3,0.5C903.8,292,903.3,292,902.7,292z M902.3,284.6c-0.6,0-1.1,0.2-1.3,0.6
			c-0.4,0.4-0.6,0.8-0.6,1.6h3.9c0-0.7-0.1-1.2-0.5-1.6C903.4,284.7,902.9,284.6,902.3,284.6z"/>
		<path class="st7" d="M909.9,287.5l-2.9-4.1h2.1l1.9,3l1.9-3h2.1l-2.9,4.1l3,4.4h-2.1l-2.1-3.2l-2.1,3.2h-2.1L909.9,287.5z"/>
	</g>
</g>
</svg>
