<?xml version="1.0" encoding="utf-8"?>
<!-- Generator: Adobe Illustrator 24.2.1, SVG Export Plug-In . SVG Version: 6.00 Build 0)  -->
<svg version="1.1" id="Layer_1" xmlns="http://www.w3.org/2000/svg" xmlns:xlink="http://www.w3.org/1999/xlink" x="0px" y="0px"
	 viewBox="0 0 1000 550" style="enable-background:new 0 0 1000 550;" xml:space="preserve">
<style type="text/css">
	.st0{fill:#FFFFFF;}
	.st1{fill:none;stroke:#00B9FF;stroke-linecap:round;stroke-linejoin:round;stroke-miterlimit:10;}
	.st2{fill:url(#SVGID_1_);}
	.st3{fill:#284D95;}
	.st4{fill:#D3D8DC;}
	.st5{fill:#314D91;}
	.st6{fill:url(#SVGID_2_);}
	.st7{fill:url(#SVGID_3_);}
	.st8{fill:url(#SVGID_4_);}
	.st9{fill:url(#SVGID_5_);}
</style>
<rect class="st0" width="1000" height="550"/>
<g>
	<line class="st1" x1="710.3" y1="295.2" x2="710.3" y2="360.5"/>
	<line class="st1" x1="408.4" y1="273.3" x2="473" y2="273.3"/>
	<line class="st1" x1="571.6" y1="273.3" x2="640.5" y2="273.3"/>
	<linearGradient id="SVGID_1_" gradientUnits="userSpaceOnUse" x1="444.0294" y1="273.315" x2="306.3775" y2="273.315">
		<stop  offset="0" style="stop-color:#5ABAF9"/>
		<stop  offset="1" style="stop-color:#2E4C99"/>
	</linearGradient>
	<path class="st2" d="M328.2,295.2h93.9c12.1,0,21.9-9.8,21.9-21.9v0c0-12.1-9.8-21.9-21.9-21.9h-93.9c-12.1,0-21.9,9.8-21.9,21.9v0
		C306.4,285.4,316.2,295.2,328.2,295.2z"/>
	<g>
		<g>
			<path class="st0" d="M343.5,269.8l-0.8-2.2h-3l-0.8,2.2h-1.4l3-8h1.4l3,8H343.5z M342.4,266.5l-0.7-2.2c-0.1-0.1-0.1-0.4-0.2-0.7
				c-0.1-0.3-0.2-0.5-0.2-0.7c-0.1,0.4-0.2,0.9-0.4,1.5l-0.7,2.1H342.4z"/>
			<path class="st0" d="M348.9,269.9c-0.8,0-1.4-0.3-1.8-0.8H347c0.1,0.5,0.1,0.8,0.1,0.9v2.5h-1.3v-8.7h1c0,0.1,0.1,0.4,0.2,0.8
				h0.1c0.4-0.6,1-0.9,1.8-0.9c0.8,0,1.3,0.3,1.8,0.8c0.4,0.5,0.6,1.3,0.6,2.3c0,1-0.2,1.8-0.6,2.3
				C350.2,269.7,349.6,269.9,348.9,269.9z M348.6,264.7c-0.5,0-0.9,0.1-1.1,0.4c-0.2,0.3-0.4,0.8-0.4,1.4v0.2c0,0.7,0.1,1.3,0.3,1.6
				c0.2,0.3,0.6,0.5,1.1,0.5c0.4,0,0.8-0.2,1-0.5c0.2-0.4,0.4-0.9,0.4-1.6c0-0.7-0.1-1.2-0.4-1.5C349.4,264.9,349,264.7,348.6,264.7
				z"/>
			<path class="st0" d="M355.8,269.9c-0.8,0-1.4-0.3-1.8-0.8H354c0.1,0.5,0.1,0.8,0.1,0.9v2.5h-1.3v-8.7h1c0,0.1,0.1,0.4,0.2,0.8
				h0.1c0.4-0.6,1-0.9,1.8-0.9c0.8,0,1.3,0.3,1.8,0.8c0.4,0.5,0.6,1.3,0.6,2.3c0,1-0.2,1.8-0.6,2.3
				C357.2,269.7,356.6,269.9,355.8,269.9z M355.5,264.7c-0.5,0-0.9,0.1-1.1,0.4c-0.2,0.3-0.4,0.8-0.4,1.4v0.2c0,0.7,0.1,1.3,0.3,1.6
				c0.2,0.3,0.6,0.5,1.1,0.5c0.4,0,0.8-0.2,1-0.5c0.2-0.4,0.4-0.9,0.4-1.6c0-0.7-0.1-1.2-0.4-1.5C356.3,264.9,356,264.7,355.5,264.7
				z"/>
			<path class="st0" d="M361,269.8h-1.3v-8.5h1.3V269.8z"/>
			<path class="st0" d="M361.9,263.8h1.4l1.2,3.4c0.2,0.5,0.3,0.9,0.4,1.4h0c0-0.2,0.1-0.4,0.2-0.7c0.1-0.3,0.5-1.6,1.4-4.1h1.4
				l-2.6,6.8c-0.5,1.3-1.2,1.9-2.3,1.9c-0.3,0-0.6,0-0.8-0.1v-1c0.2,0,0.4,0.1,0.7,0.1c0.6,0,1.1-0.4,1.3-1.1l0.2-0.6L361.9,263.8z"
				/>
			<path class="st0" d="M376.8,269.8h-1.3v-3.7c0-0.5-0.1-0.8-0.3-1c-0.2-0.2-0.4-0.3-0.8-0.3c-0.5,0-0.9,0.2-1.1,0.5
				c-0.2,0.3-0.3,0.9-0.3,1.6v3h-1.3v-6h1l0.2,0.8h0.1c0.2-0.3,0.4-0.5,0.7-0.7c0.3-0.2,0.7-0.2,1-0.2c0.9,0,1.5,0.3,1.8,0.9h0.1
				c0.2-0.3,0.4-0.5,0.8-0.7c0.3-0.2,0.7-0.3,1.1-0.3c0.7,0,1.2,0.2,1.6,0.5s0.5,0.9,0.5,1.7v3.9h-1.3v-3.7c0-0.5-0.1-0.8-0.3-1
				c-0.2-0.2-0.4-0.3-0.8-0.3c-0.5,0-0.9,0.2-1.1,0.5c-0.2,0.3-0.3,0.8-0.3,1.4V269.8z"/>
			<path class="st0" d="M386.2,269.8l-0.3-0.8h0c-0.3,0.4-0.6,0.6-0.9,0.8s-0.7,0.2-1.1,0.2c-0.6,0-1.1-0.2-1.4-0.5
				c-0.3-0.3-0.5-0.8-0.5-1.4c0-0.6,0.2-1.1,0.7-1.4c0.5-0.3,1.2-0.5,2.1-0.5l1,0v-0.3c0-0.4-0.1-0.7-0.3-0.9
				c-0.2-0.2-0.5-0.3-0.8-0.3c-0.3,0-0.6,0-0.9,0.1c-0.3,0.1-0.6,0.2-0.8,0.3l-0.4-0.9c0.3-0.2,0.7-0.3,1.1-0.4
				c0.4-0.1,0.8-0.1,1.1-0.1c0.8,0,1.3,0.2,1.7,0.5c0.4,0.3,0.6,0.9,0.6,1.6v4.1H386.2z M384.3,269c0.5,0,0.8-0.1,1.1-0.4
				s0.4-0.6,0.4-1.1V267l-0.8,0c-0.6,0-1,0.1-1.3,0.3s-0.4,0.5-0.4,0.8c0,0.3,0.1,0.5,0.2,0.6C383.7,268.9,383.9,269,384.3,269z"/>
			<path class="st0" d="M391.9,263.7c0.3,0,0.5,0,0.6,0.1l-0.1,1.2c-0.2,0-0.4-0.1-0.6-0.1c-0.5,0-0.9,0.2-1.2,0.5
				c-0.3,0.3-0.5,0.8-0.5,1.3v3.1h-1.3v-6h1l0.2,1.1h0.1c0.2-0.4,0.5-0.6,0.8-0.9C391.2,263.8,391.6,263.7,391.9,263.7z"/>
			<path class="st0" d="M394.9,266.6l0.7-0.9l1.8-1.9h1.5l-2.4,2.6l2.6,3.4h-1.5l-1.9-2.6l-0.7,0.6v2.1h-1.3v-8.5h1.3v4.1
				L394.9,266.6L394.9,266.6z"/>
			<path class="st0" d="M402.7,269.9c-0.9,0-1.7-0.3-2.2-0.8c-0.5-0.5-0.8-1.3-0.8-2.3c0-1,0.2-1.8,0.7-2.3c0.5-0.6,1.2-0.8,2-0.8
				c0.8,0,1.4,0.2,1.9,0.7c0.5,0.5,0.7,1.1,0.7,2v0.7h-4c0,0.6,0.2,1,0.5,1.3c0.3,0.3,0.7,0.5,1.3,0.5c0.4,0,0.7,0,1-0.1
				c0.3-0.1,0.6-0.2,1-0.3v1c-0.3,0.1-0.6,0.3-0.9,0.3C403.5,269.9,403.1,269.9,402.7,269.9z M402.5,264.7c-0.4,0-0.7,0.1-1,0.4
				c-0.2,0.3-0.4,0.6-0.4,1.1h2.7c0-0.5-0.1-0.9-0.4-1.1C403.2,264.8,402.9,264.7,402.5,264.7z"/>
			<path class="st0" d="M408.7,268.9c0.3,0,0.6,0,0.9-0.1v1c-0.1,0.1-0.3,0.1-0.5,0.2c-0.2,0-0.5,0.1-0.7,0.1
				c-1.2,0-1.8-0.6-1.8-1.9v-3.2h-0.8v-0.6l0.9-0.5l0.4-1.3h0.8v1.3h1.7v1h-1.7v3.2c0,0.3,0.1,0.5,0.2,0.7
				C408.3,268.8,408.5,268.9,408.7,268.9z"/>
			<path class="st0" d="M349.8,283.3c-0.9,0-1.6-0.3-2.1-0.8c-0.5-0.5-0.7-1.3-0.7-2.3c0-1,0.2-1.8,0.7-2.3c0.5-0.5,1.2-0.8,2.1-0.8
				c0.6,0,1.2,0.1,1.7,0.4l-0.4,1c-0.5-0.2-1-0.3-1.3-0.3c-1,0-1.6,0.7-1.6,2.1c0,0.7,0.1,1.2,0.4,1.5c0.3,0.3,0.6,0.5,1.1,0.5
				c0.6,0,1.1-0.1,1.6-0.4v1.1c-0.2,0.1-0.5,0.2-0.7,0.3C350.5,283.3,350.1,283.3,349.8,283.3z"/>
			<path class="st0" d="M356.6,283.2l-0.3-0.8h0c-0.3,0.4-0.6,0.6-0.9,0.8c-0.3,0.1-0.7,0.2-1.1,0.2c-0.6,0-1.1-0.2-1.4-0.5
				c-0.3-0.3-0.5-0.8-0.5-1.4c0-0.6,0.2-1.1,0.7-1.4c0.5-0.3,1.2-0.5,2.1-0.5l1,0v-0.3c0-0.4-0.1-0.7-0.3-0.9
				c-0.2-0.2-0.5-0.3-0.8-0.3c-0.3,0-0.6,0-0.9,0.1c-0.3,0.1-0.6,0.2-0.8,0.3l-0.4-0.9c0.3-0.2,0.7-0.3,1.1-0.4
				c0.4-0.1,0.8-0.1,1.1-0.1c0.8,0,1.3,0.2,1.7,0.5c0.4,0.3,0.6,0.9,0.6,1.6v4.1H356.6z M354.7,282.3c0.5,0,0.8-0.1,1.1-0.4
				s0.4-0.6,0.4-1.1v-0.5l-0.8,0c-0.6,0-1,0.1-1.3,0.3c-0.3,0.2-0.4,0.5-0.4,0.8c0,0.3,0.1,0.5,0.2,0.6
				C354.2,282.3,354.4,282.3,354.7,282.3z"/>
			<path class="st0" d="M362.4,283.3c-0.8,0-1.4-0.3-1.8-0.8h-0.1c0.1,0.5,0.1,0.8,0.1,0.9v2.5h-1.3v-8.7h1c0,0.1,0.1,0.4,0.2,0.8
				h0.1c0.4-0.6,1-0.9,1.8-0.9c0.8,0,1.3,0.3,1.8,0.8c0.4,0.5,0.6,1.3,0.6,2.3c0,1-0.2,1.8-0.6,2.3
				C363.7,283,363.1,283.3,362.4,283.3z M362.1,278.1c-0.5,0-0.9,0.1-1.1,0.4c-0.2,0.3-0.4,0.8-0.4,1.4v0.2c0,0.7,0.1,1.3,0.3,1.6
				c0.2,0.3,0.6,0.5,1.1,0.5c0.4,0,0.8-0.2,1-0.5c0.2-0.4,0.4-0.9,0.4-1.6c0-0.7-0.1-1.2-0.4-1.5
				C362.9,278.3,362.5,278.1,362.1,278.1z"/>
			<path class="st0" d="M373.2,281.5c0,0.6-0.2,1-0.6,1.4c-0.4,0.3-1,0.5-1.8,0.5c-0.8,0-1.4-0.1-1.9-0.4v-1.1
				c0.7,0.3,1.4,0.5,2,0.5c0.8,0,1.2-0.2,1.2-0.7c0-0.2,0-0.3-0.1-0.4s-0.2-0.2-0.4-0.3c-0.2-0.1-0.5-0.2-0.8-0.4
				c-0.7-0.3-1.2-0.5-1.4-0.8c-0.2-0.3-0.4-0.6-0.4-1c0-0.5,0.2-0.9,0.6-1.2c0.4-0.3,1-0.4,1.7-0.4c0.7,0,1.4,0.1,2,0.4l-0.4,1
				c-0.6-0.3-1.2-0.4-1.6-0.4c-0.7,0-1,0.2-1,0.6c0,0.2,0.1,0.3,0.3,0.5c0.2,0.1,0.6,0.3,1.2,0.5c0.5,0.2,0.9,0.4,1.1,0.5
				c0.2,0.2,0.4,0.3,0.5,0.6C373.2,281,373.2,281.2,373.2,281.5z"/>
			<path class="st0" d="M377.1,283.3c-0.9,0-1.6-0.3-2.1-0.8c-0.5-0.5-0.7-1.3-0.7-2.3c0-1,0.2-1.8,0.7-2.3c0.5-0.5,1.2-0.8,2.1-0.8
				c0.6,0,1.2,0.1,1.7,0.4l-0.4,1c-0.5-0.2-1-0.3-1.3-0.3c-1,0-1.6,0.7-1.6,2.1c0,0.7,0.1,1.2,0.4,1.5c0.3,0.3,0.6,0.5,1.1,0.5
				c0.6,0,1.1-0.1,1.6-0.4v1.1c-0.2,0.1-0.5,0.2-0.7,0.3C377.7,283.3,377.4,283.3,377.1,283.3z"/>
			<path class="st0" d="M383.2,277.1c0.3,0,0.5,0,0.6,0.1l-0.1,1.2c-0.2,0-0.4-0.1-0.6-0.1c-0.5,0-0.9,0.2-1.2,0.5
				c-0.3,0.3-0.5,0.8-0.5,1.3v3.1h-1.3v-6h1l0.2,1.1h0.1c0.2-0.4,0.5-0.6,0.8-0.9S382.8,277.1,383.2,277.1z"/>
			<path class="st0" d="M387.6,283.3c-0.9,0-1.7-0.3-2.2-0.8c-0.5-0.5-0.8-1.3-0.8-2.3c0-1,0.2-1.8,0.7-2.3c0.5-0.6,1.2-0.8,2-0.8
				c0.8,0,1.4,0.2,1.9,0.7c0.5,0.5,0.7,1.1,0.7,2v0.7h-4c0,0.6,0.2,1,0.5,1.3c0.3,0.3,0.7,0.5,1.3,0.5c0.4,0,0.7,0,1-0.1
				c0.3-0.1,0.6-0.2,1-0.3v1c-0.3,0.1-0.6,0.3-0.9,0.3C388.4,283.3,388,283.3,387.6,283.3z M387.4,278.1c-0.4,0-0.7,0.1-1,0.4
				c-0.2,0.3-0.4,0.6-0.4,1.1h2.7c0-0.5-0.1-0.9-0.4-1.1C388.1,278.2,387.8,278.1,387.4,278.1z"/>
			<path class="st0" d="M394,283.3c-0.9,0-1.7-0.3-2.2-0.8c-0.5-0.5-0.8-1.3-0.8-2.3c0-1,0.2-1.8,0.7-2.3c0.5-0.6,1.2-0.8,2-0.8
				c0.8,0,1.4,0.2,1.9,0.7c0.5,0.5,0.7,1.1,0.7,2v0.7h-4c0,0.6,0.2,1,0.5,1.3c0.3,0.3,0.7,0.5,1.3,0.5c0.4,0,0.7,0,1-0.1
				c0.3-0.1,0.6-0.2,1-0.3v1c-0.3,0.1-0.6,0.3-0.9,0.3C394.8,283.3,394.4,283.3,394,283.3z M393.8,278.1c-0.4,0-0.7,0.1-1,0.4
				c-0.2,0.3-0.4,0.6-0.4,1.1h2.7c0-0.5-0.1-0.9-0.4-1.1C394.5,278.2,394.2,278.1,393.8,278.1z"/>
			<path class="st0" d="M403.1,283.2h-1.3v-3.7c0-0.5-0.1-0.8-0.3-1c-0.2-0.2-0.5-0.3-0.9-0.3c-0.5,0-0.9,0.2-1.2,0.5
				c-0.3,0.3-0.4,0.9-0.4,1.6v3h-1.3v-6h1l0.2,0.8h0.1c0.2-0.3,0.4-0.5,0.8-0.7c0.3-0.2,0.7-0.2,1.1-0.2c1.4,0,2.2,0.7,2.2,2.2
				V283.2z"/>
		</g>
	</g>
	<line class="st1" x1="787.5" y1="273.3" x2="814.9" y2="273.3"/>
	<polygon class="st3" points="138.6,273.3 125,268.3 125,278.3 	"/>
	<g>
		<path class="st3" d="M129.5,274.4h-11.8c-0.6,0-1.1-0.5-1.1-1.1s0.5-1.1,1.1-1.1h11.8c0.6,0,1.1,0.5,1.1,1.1
			S130.1,274.4,129.5,274.4z"/>
	</g>
	<polygon class="st3" points="301.1,273.3 287.5,268.3 287.5,278.3 	"/>
	<g>
		<path class="st3" d="M292,274.4h-11.8c-0.6,0-1.1-0.5-1.1-1.1s0.5-1.1,1.1-1.1H292c0.6,0,1.1,0.5,1.1,1.1S292.6,274.4,292,274.4z"
			/>
	</g>
	<circle class="st3" cx="60.5" cy="273.3" r="48.4"/>
	<g>
		<g>
			<path class="st0" d="M36.2,254.9c0,0.7-0.2,1.2-0.7,1.6c-0.5,0.4-1.2,0.6-2,0.6c-0.9,0-1.6-0.1-2.1-0.4v-1.2
				c0.4,0.2,0.7,0.3,1.1,0.4c0.4,0.1,0.8,0.1,1.1,0.1c0.5,0,0.9-0.1,1.1-0.3c0.2-0.2,0.4-0.4,0.4-0.8c0-0.3-0.1-0.5-0.3-0.7
				c-0.2-0.2-0.7-0.4-1.3-0.7c-0.7-0.3-1.2-0.6-1.5-1c-0.3-0.4-0.4-0.8-0.4-1.3c0-0.6,0.2-1.1,0.7-1.5c0.5-0.4,1.1-0.6,1.8-0.6
				c0.7,0,1.5,0.2,2.2,0.5l-0.4,1c-0.7-0.3-1.3-0.4-1.8-0.4c-0.4,0-0.7,0.1-0.9,0.3c-0.2,0.2-0.3,0.4-0.3,0.7c0,0.2,0,0.4,0.1,0.5
				c0.1,0.1,0.2,0.3,0.4,0.4c0.2,0.1,0.5,0.3,1,0.5c0.6,0.2,1,0.5,1.2,0.7c0.3,0.2,0.5,0.4,0.6,0.7S36.2,254.6,36.2,254.9z"/>
			<path class="st0" d="M37.2,255c0-0.5,0.1-0.9,0.3-1.2c0.2-0.3,0.6-0.7,1.2-1c-0.3-0.4-0.6-0.7-0.7-1c-0.1-0.3-0.2-0.5-0.2-0.8
				c0-0.5,0.2-1,0.6-1.3c0.4-0.3,0.9-0.5,1.5-0.5c0.6,0,1.1,0.1,1.5,0.4c0.4,0.3,0.5,0.7,0.5,1.2c0,0.4-0.1,0.8-0.4,1.1
				c-0.2,0.3-0.6,0.7-1.2,1l1.8,1.8c0.3-0.4,0.5-0.9,0.7-1.7h1.3c-0.2,1-0.6,1.8-1.2,2.4l1.6,1.5H43l-0.8-0.8
				c-0.4,0.3-0.7,0.5-1.1,0.6c-0.4,0.1-0.9,0.2-1.3,0.2c-0.8,0-1.4-0.2-1.9-0.6C37.4,256.2,37.2,255.6,37.2,255z M39.8,256.1
				c0.6,0,1.2-0.2,1.6-0.6l-2-2c-0.4,0.2-0.6,0.5-0.8,0.7c-0.1,0.2-0.2,0.4-0.2,0.7c0,0.3,0.1,0.6,0.4,0.8
				C39.1,256,39.4,256.1,39.8,256.1z M39,251c0,0.2,0.1,0.4,0.2,0.6c0.1,0.2,0.3,0.4,0.5,0.6c0.4-0.2,0.7-0.4,0.8-0.6
				c0.2-0.2,0.2-0.4,0.2-0.7c0-0.2-0.1-0.4-0.2-0.5c-0.2-0.1-0.4-0.2-0.6-0.2c-0.3,0-0.5,0.1-0.7,0.2C39.1,250.6,39,250.7,39,251z"
				/>
			<path class="st0" d="M50.7,251.7c0,0.8-0.3,1.4-0.8,1.8c-0.5,0.4-1.3,0.6-2.2,0.6h-0.8v2.9h-1.3v-7.7h2.2c1,0,1.7,0.2,2.2,0.6
				C50.5,250.3,50.7,250.9,50.7,251.7z M46.9,253.1h0.7c0.6,0,1.1-0.1,1.4-0.3c0.3-0.2,0.5-0.6,0.5-1.1c0-0.4-0.1-0.8-0.4-1
				c-0.3-0.2-0.7-0.3-1.3-0.3h-0.9V253.1z"/>
			<path class="st0" d="M58.2,252.8H61v3.9c-0.5,0.2-0.9,0.3-1.3,0.3c-0.4,0.1-0.9,0.1-1.4,0.1c-1.2,0-2.1-0.3-2.7-1
				c-0.6-0.7-0.9-1.7-0.9-2.9c0-1.2,0.4-2.2,1.1-2.9c0.7-0.7,1.7-1,2.9-1c0.8,0,1.6,0.2,2.3,0.5l-0.4,1c-0.6-0.3-1.2-0.4-1.9-0.4
				c-0.8,0-1.5,0.3-1.9,0.8c-0.5,0.5-0.7,1.2-0.7,2.1c0,0.9,0.2,1.7,0.6,2.1c0.4,0.5,1,0.7,1.9,0.7c0.4,0,0.8-0.1,1.3-0.2v-2h-1.6
				V252.8z"/>
			<path class="st0" d="M64,257h-1.2v-8.2H64V257z"/>
			<path class="st0" d="M70.9,254.1c0,1-0.2,1.7-0.7,2.2c-0.5,0.5-1.2,0.8-2,0.8c-0.5,0-1-0.1-1.4-0.4c-0.4-0.2-0.7-0.6-1-1.1
				c-0.2-0.5-0.3-1-0.3-1.6c0-0.9,0.2-1.7,0.7-2.2c0.5-0.5,1.2-0.8,2-0.8c0.8,0,1.5,0.3,2,0.8S70.9,253.2,70.9,254.1z M66.7,254.1
				c0,1.3,0.5,2,1.5,2c1,0,1.5-0.7,1.5-2c0-1.3-0.5-2-1.5-2c-0.5,0-0.9,0.2-1.1,0.5C66.8,253,66.7,253.5,66.7,254.1z"/>
			<path class="st0" d="M75.3,251.1c0.7,0,1.3,0.3,1.7,0.8c0.4,0.5,0.6,1.3,0.6,2.2c0,1-0.2,1.7-0.6,2.2c-0.4,0.5-1,0.8-1.7,0.8
				c-0.7,0-1.3-0.3-1.7-0.8h-0.1l-0.2,0.7h-0.9v-8.2h1.2v1.9c0,0.1,0,0.4,0,0.6c0,0.3,0,0.5,0,0.5h0.1
				C74,251.4,74.6,251.1,75.3,251.1z M75,252.1c-0.5,0-0.9,0.1-1.1,0.4s-0.3,0.8-0.3,1.5v0.1c0,0.7,0.1,1.2,0.3,1.5
				c0.2,0.3,0.6,0.5,1.1,0.5c0.4,0,0.8-0.2,1-0.5c0.2-0.3,0.3-0.8,0.3-1.5C76.4,252.8,75.9,252.1,75,252.1z"/>
			<path class="st0" d="M82.7,257l-0.2-0.8h0c-0.3,0.4-0.6,0.6-0.8,0.7c-0.3,0.1-0.6,0.2-1.1,0.2c-0.6,0-1-0.2-1.3-0.5
				c-0.3-0.3-0.5-0.7-0.5-1.3c0-0.6,0.2-1.1,0.7-1.4s1.1-0.5,2-0.5l1,0v-0.3c0-0.4-0.1-0.6-0.3-0.8s-0.4-0.3-0.8-0.3
				c-0.3,0-0.6,0-0.9,0.1c-0.3,0.1-0.5,0.2-0.8,0.3l-0.4-0.9c0.3-0.2,0.7-0.3,1-0.4s0.7-0.1,1.1-0.1c0.7,0,1.3,0.2,1.7,0.5
				c0.4,0.3,0.6,0.8,0.6,1.5v3.9H82.7z M80.9,256.2c0.4,0,0.8-0.1,1.1-0.4c0.3-0.3,0.4-0.6,0.4-1.1v-0.5l-0.7,0
				c-0.6,0-1,0.1-1.3,0.3c-0.3,0.2-0.4,0.4-0.4,0.8c0,0.3,0.1,0.5,0.2,0.6C80.3,256.1,80.6,256.2,80.9,256.2z"/>
			<path class="st0" d="M86.5,257h-1.2v-8.2h1.2V257z"/>
			<path class="st0" d="M41.9,262.3v5c0,0.6-0.1,1.1-0.4,1.5c-0.2,0.4-0.6,0.8-1.1,1c-0.5,0.2-1,0.3-1.7,0.3c-1,0-1.7-0.3-2.2-0.8
				c-0.5-0.5-0.8-1.2-0.8-2.1v-5H37v4.9c0,0.6,0.1,1.1,0.4,1.4c0.3,0.3,0.7,0.5,1.4,0.5c1.2,0,1.8-0.6,1.8-1.9v-4.9H41.9z"/>
			<path class="st0" d="M48.3,267.9c0,0.7-0.2,1.2-0.7,1.6c-0.5,0.4-1.2,0.6-2,0.6c-0.9,0-1.6-0.1-2.1-0.4v-1.2
				c0.4,0.2,0.7,0.3,1.1,0.4c0.4,0.1,0.8,0.1,1.1,0.1c0.5,0,0.9-0.1,1.1-0.3c0.2-0.2,0.4-0.4,0.4-0.8c0-0.3-0.1-0.5-0.3-0.7
				c-0.2-0.2-0.7-0.4-1.3-0.7c-0.7-0.3-1.2-0.6-1.5-1c-0.3-0.4-0.4-0.8-0.4-1.3c0-0.6,0.2-1.1,0.7-1.5c0.5-0.4,1.1-0.6,1.8-0.6
				c0.7,0,1.5,0.2,2.2,0.5l-0.4,1c-0.7-0.3-1.3-0.4-1.8-0.4c-0.4,0-0.7,0.1-0.9,0.3c-0.2,0.2-0.3,0.4-0.3,0.7c0,0.2,0,0.4,0.1,0.5
				c0.1,0.1,0.2,0.3,0.4,0.4c0.2,0.1,0.5,0.3,1,0.5c0.6,0.2,1,0.5,1.2,0.7c0.3,0.2,0.5,0.4,0.6,0.7
				C48.2,267.2,48.3,267.5,48.3,267.9z"/>
			<path class="st0" d="M56,266c0,1.3-0.4,2.2-1.1,2.9c-0.7,0.7-1.7,1-3,1h-2.2v-7.7h2.4c1.2,0,2.2,0.3,2.9,1
				C55.7,263.9,56,264.8,56,266z M54.7,266.1c0-1.8-0.9-2.8-2.6-2.8H51v5.6h0.9C53.7,268.9,54.7,267.9,54.7,266.1z"/>
			<path class="st0" d="M66.5,269.9h-1.3v-3.5h-3.5v3.5h-1.3v-7.7h1.3v3.1h3.5v-3.1h1.3V269.9z"/>
			<path class="st0" d="M68.3,262.6c0-0.2,0.1-0.4,0.2-0.5c0.1-0.1,0.3-0.2,0.5-0.2c0.2,0,0.4,0.1,0.5,0.2c0.1,0.1,0.2,0.3,0.2,0.5
				c0,0.2-0.1,0.4-0.2,0.5c-0.1,0.1-0.3,0.2-0.5,0.2c-0.2,0-0.4-0.1-0.5-0.2C68.4,263,68.3,262.8,68.3,262.6z M69.6,269.9h-1.2v-5.8
				h1.2V269.9z"/>
			<path class="st0" d="M76.3,264.1v0.7l-1,0.2c0.1,0.1,0.2,0.3,0.2,0.5c0.1,0.2,0.1,0.4,0.1,0.6c0,0.6-0.2,1.1-0.6,1.4
				c-0.4,0.3-1,0.5-1.7,0.5c-0.2,0-0.4,0-0.5,0c-0.3,0.2-0.4,0.4-0.4,0.6c0,0.1,0.1,0.2,0.2,0.3c0.1,0.1,0.4,0.1,0.7,0.1h1
				c0.6,0,1.1,0.1,1.5,0.4c0.3,0.3,0.5,0.7,0.5,1.2c0,0.7-0.3,1.2-0.8,1.5c-0.5,0.4-1.3,0.5-2.4,0.5c-0.8,0-1.4-0.1-1.8-0.4
				c-0.4-0.3-0.6-0.7-0.6-1.2c0-0.4,0.1-0.7,0.3-0.9c0.2-0.2,0.5-0.4,0.9-0.5c-0.2-0.1-0.3-0.2-0.4-0.3c-0.1-0.2-0.2-0.3-0.2-0.5
				c0-0.2,0.1-0.4,0.2-0.6c0.1-0.2,0.3-0.3,0.5-0.4c-0.3-0.1-0.5-0.3-0.7-0.6c-0.2-0.3-0.3-0.6-0.3-1c0-0.6,0.2-1.1,0.6-1.5
				c0.4-0.3,1-0.5,1.7-0.5c0.2,0,0.3,0,0.5,0c0.2,0,0.3,0,0.4,0.1H76.3z M71.8,270.9c0,0.3,0.1,0.5,0.4,0.6c0.2,0.1,0.6,0.2,1,0.2
				c0.7,0,1.2-0.1,1.5-0.3c0.3-0.2,0.5-0.4,0.5-0.8c0-0.3-0.1-0.4-0.3-0.5c-0.2-0.1-0.5-0.2-1-0.2h-0.9c-0.4,0-0.6,0.1-0.8,0.2
				C71.9,270.3,71.8,270.6,71.8,270.9z M72.3,266c0,0.4,0.1,0.6,0.3,0.8c0.2,0.2,0.5,0.3,0.8,0.3c0.7,0,1.1-0.4,1.1-1.1
				c0-0.4-0.1-0.7-0.3-0.9c-0.2-0.2-0.4-0.3-0.8-0.3c-0.4,0-0.6,0.1-0.8,0.3S72.3,265.6,72.3,266z"/>
			<path class="st0" d="M82.5,269.9h-1.2v-3.6c0-0.4-0.1-0.8-0.3-1c-0.2-0.2-0.5-0.3-0.9-0.3c-0.5,0-0.9,0.2-1.1,0.5
				c-0.2,0.3-0.4,0.8-0.4,1.6v2.9h-1.2v-8.2h1.2v2.1c0,0.3,0,0.7-0.1,1.1h0.1c0.2-0.3,0.4-0.5,0.7-0.7c0.3-0.2,0.6-0.2,1-0.2
				c1.4,0,2.1,0.7,2.1,2.1V269.9z"/>
			<path class="st0" d="M34.6,278.7l1.8-3.5h1.4l-2.6,4.7v3H34v-2.9l-2.6-4.7h1.4L34.6,278.7z"/>
			<path class="st0" d="M38.6,275.5c0-0.2,0.1-0.4,0.2-0.5c0.1-0.1,0.3-0.2,0.5-0.2c0.2,0,0.4,0.1,0.5,0.2c0.1,0.1,0.2,0.3,0.2,0.5
				c0,0.2-0.1,0.4-0.2,0.5c-0.1,0.1-0.3,0.2-0.5,0.2c-0.2,0-0.4-0.1-0.5-0.2C38.7,275.9,38.6,275.7,38.6,275.5z M39.9,282.9h-1.2
				v-5.8h1.2V282.9z"/>
			<path class="st0" d="M44.2,283c-0.9,0-1.6-0.3-2.1-0.8c-0.5-0.5-0.8-1.3-0.8-2.2c0-0.9,0.2-1.7,0.7-2.2s1.1-0.8,2-0.8
				c0.8,0,1.4,0.2,1.8,0.7c0.4,0.5,0.7,1.1,0.7,1.9v0.7h-3.9c0,0.6,0.2,1,0.5,1.3c0.3,0.3,0.7,0.5,1.2,0.5c0.3,0,0.7,0,1-0.1
				c0.3-0.1,0.6-0.2,1-0.3v1c-0.3,0.1-0.6,0.2-0.9,0.3C45,283,44.6,283,44.2,283z M44,277.9c-0.4,0-0.7,0.1-0.9,0.4
				c-0.2,0.2-0.4,0.6-0.4,1.1h2.6c0-0.5-0.1-0.8-0.3-1.1C44.7,278,44.4,277.9,44,277.9z"/>
			<path class="st0" d="M49.1,282.9h-1.2v-8.2h1.2V282.9z"/>
			<path class="st0" d="M52.8,283c-0.7,0-1.3-0.3-1.7-0.8c-0.4-0.5-0.6-1.3-0.6-2.2c0-1,0.2-1.7,0.6-2.2c0.4-0.5,1-0.8,1.7-0.8
				c0.8,0,1.3,0.3,1.7,0.8h0.1c-0.1-0.4-0.1-0.7-0.1-1v-2.1h1.2v8.2h-1l-0.2-0.8h-0.1C54.2,282.7,53.6,283,52.8,283z M53.2,282
				c0.5,0,0.9-0.1,1.1-0.4s0.4-0.7,0.4-1.4V280c0-0.7-0.1-1.3-0.4-1.6c-0.2-0.3-0.6-0.5-1.1-0.5c-0.4,0-0.8,0.2-1,0.5
				c-0.2,0.4-0.4,0.9-0.4,1.5c0,0.6,0.1,1.1,0.3,1.5C52.4,281.8,52.7,282,53.2,282z"/>
			<path class="st0" d="M60.5,275.2h2.3c1.1,0,1.8,0.2,2.3,0.5c0.5,0.3,0.7,0.8,0.7,1.5c0,0.4-0.1,0.8-0.3,1.1s-0.6,0.5-1,0.6v0.1
				c0.5,0.1,0.9,0.3,1.2,0.6c0.3,0.3,0.4,0.7,0.4,1.2c0,0.7-0.2,1.2-0.7,1.6c-0.5,0.4-1.2,0.6-2,0.6h-2.8V275.2z M61.8,278.4H63
				c0.5,0,0.9-0.1,1.2-0.2c0.2-0.2,0.4-0.4,0.4-0.8c0-0.4-0.1-0.6-0.4-0.8s-0.7-0.2-1.2-0.2h-1.1V278.4z M61.8,279.4v2.4h1.3
				c0.5,0,0.9-0.1,1.2-0.3s0.4-0.5,0.4-1c0-0.4-0.1-0.7-0.4-0.9c-0.3-0.2-0.7-0.3-1.2-0.3H61.8z"/>
			<path class="st0" d="M72.7,280c0,1-0.2,1.7-0.7,2.2c-0.5,0.5-1.2,0.8-2,0.8c-0.5,0-1-0.1-1.4-0.4c-0.4-0.2-0.7-0.6-1-1.1
				c-0.2-0.5-0.3-1-0.3-1.6c0-0.9,0.2-1.7,0.7-2.2s1.2-0.8,2-0.8c0.8,0,1.5,0.3,2,0.8C72.4,278.3,72.7,279,72.7,280z M68.4,280
				c0,1.3,0.5,2,1.5,2c1,0,1.5-0.7,1.5-2c0-1.3-0.5-2-1.5-2c-0.5,0-0.9,0.2-1.1,0.5C68.5,278.8,68.4,279.3,68.4,280z"/>
			<path class="st0" d="M79.2,282.9H78v-3.6c0-0.4-0.1-0.8-0.3-1c-0.2-0.2-0.5-0.3-0.9-0.3c-0.5,0-0.9,0.2-1.1,0.5
				c-0.2,0.3-0.4,0.8-0.4,1.6v2.9h-1.2v-5.8h1l0.2,0.8h0.1c0.2-0.3,0.4-0.5,0.7-0.6c0.3-0.2,0.7-0.2,1.1-0.2c1.4,0,2.1,0.7,2.1,2.1
				V282.9z"/>
			<path class="st0" d="M82.9,283c-0.7,0-1.3-0.3-1.7-0.8c-0.4-0.5-0.6-1.3-0.6-2.2c0-1,0.2-1.7,0.6-2.2c0.4-0.5,1-0.8,1.7-0.8
				c0.8,0,1.3,0.3,1.7,0.8h0.1c-0.1-0.4-0.1-0.7-0.1-1v-2.1h1.2v8.2h-1l-0.2-0.8h-0.1C84.2,282.7,83.7,283,82.9,283z M83.2,282
				c0.5,0,0.9-0.1,1.1-0.4s0.4-0.7,0.4-1.4V280c0-0.7-0.1-1.3-0.4-1.6c-0.2-0.3-0.6-0.5-1.1-0.5c-0.4,0-0.8,0.2-1,0.5
				c-0.2,0.4-0.4,0.9-0.4,1.5c0,0.6,0.1,1.1,0.3,1.5C82.4,281.8,82.8,282,83.2,282z"/>
			<path class="st0" d="M47,295.8v-7.7h1.3v7.7H47z"/>
			<path class="st0" d="M55.3,295.8H54v-3.6c0-0.4-0.1-0.8-0.3-1c-0.2-0.2-0.5-0.3-0.9-0.3c-0.5,0-0.9,0.2-1.1,0.5
				c-0.2,0.3-0.4,0.8-0.4,1.6v2.9h-1.2V290h1l0.2,0.8h0.1c0.2-0.3,0.4-0.5,0.7-0.6c0.3-0.2,0.7-0.2,1.1-0.2c1.4,0,2.1,0.7,2.1,2.1
				V295.8z"/>
			<path class="st0" d="M59,295.9c-0.7,0-1.3-0.3-1.7-0.8c-0.4-0.5-0.6-1.3-0.6-2.2c0-1,0.2-1.7,0.6-2.2c0.4-0.5,1-0.8,1.7-0.8
				c0.8,0,1.3,0.3,1.7,0.8h0.1c-0.1-0.4-0.1-0.7-0.1-1v-2.1h1.2v8.2h-1l-0.2-0.8h-0.1C60.3,295.6,59.7,295.9,59,295.9z M59.3,294.9
				c0.5,0,0.9-0.1,1.1-0.4s0.4-0.7,0.4-1.4v-0.2c0-0.7-0.1-1.3-0.4-1.6c-0.2-0.3-0.6-0.5-1.1-0.5c-0.4,0-0.8,0.2-1,0.5
				c-0.2,0.4-0.4,0.9-0.4,1.5c0,0.6,0.1,1.1,0.3,1.5C58.5,294.7,58.8,294.9,59.3,294.9z"/>
			<path class="st0" d="M66.3,295.9c-0.9,0-1.6-0.3-2.1-0.8c-0.5-0.5-0.8-1.3-0.8-2.2c0-0.9,0.2-1.7,0.7-2.2c0.5-0.5,1.1-0.8,2-0.8
				c0.8,0,1.4,0.2,1.8,0.7c0.4,0.5,0.7,1.1,0.7,1.9v0.7h-3.9c0,0.6,0.2,1,0.5,1.3c0.3,0.3,0.7,0.5,1.2,0.5c0.3,0,0.7,0,1-0.1
				c0.3-0.1,0.6-0.2,1-0.3v1c-0.3,0.1-0.6,0.2-0.9,0.3C67,295.9,66.7,295.9,66.3,295.9z M66,290.8c-0.4,0-0.7,0.1-0.9,0.4
				c-0.2,0.2-0.4,0.6-0.4,1.1h2.6c0-0.5-0.1-0.8-0.3-1.1C66.7,290.9,66.4,290.8,66,290.8z"/>
			<path class="st0" d="M71.2,292.8l-2-2.8h1.4l1.3,2l1.3-2h1.4l-2,2.8l2.1,3h-1.4l-1.4-2.2l-1.4,2.2h-1.4L71.2,292.8z"/>
		</g>
	</g>
	<path class="st4" d="M966,251.5H835.7c-12.1,0-21.9,9.8-21.9,21.9v0c0,12.1,9.8,21.9,21.9,21.9H966c12.1,0,21.9-9.8,21.9-21.9v0
		C987.9,261.2,978.1,251.5,966,251.5z"/>
	<g>
		<g>
			<path class="st5" d="M840,269.9h-1.6l-3.9-6.3h0l0,0.4c0.1,0.7,0.1,1.3,0.1,1.9v4.1h-1.2v-8h1.6l3.9,6.3h0c0-0.1,0-0.4,0-0.9
				c0-0.5,0-0.9,0-1.2V262h1.2V269.9z"/>
			<path class="st5" d="M844.6,270c-0.9,0-1.7-0.3-2.2-0.8c-0.5-0.5-0.8-1.3-0.8-2.3c0-1,0.2-1.8,0.7-2.3c0.5-0.6,1.2-0.8,2-0.8
				c0.8,0,1.4,0.2,1.9,0.7c0.5,0.5,0.7,1.1,0.7,2v0.7h-4c0,0.6,0.2,1,0.5,1.3c0.3,0.3,0.7,0.5,1.3,0.5c0.4,0,0.7,0,1-0.1
				c0.3-0.1,0.6-0.2,1-0.3v1c-0.3,0.1-0.6,0.3-0.9,0.3C845.4,270,845,270,844.6,270z M844.4,264.8c-0.4,0-0.7,0.1-1,0.4
				c-0.2,0.3-0.4,0.6-0.4,1.1h2.7c0-0.5-0.1-0.9-0.4-1.1C845.1,264.9,844.8,264.8,844.4,264.8z"/>
			<path class="st5" d="M853.3,269.9l-0.8-2.8c-0.1-0.3-0.3-1-0.5-2.1H852c-0.2,1-0.4,1.7-0.5,2.1l-0.8,2.8h-1.4l-1.7-6h1.3l0.8,3
				c0.2,0.7,0.3,1.4,0.4,1.9h0c0-0.3,0.1-0.6,0.2-0.9c0.1-0.3,0.1-0.6,0.2-0.8l0.9-3.2h1.4l0.9,3.2c0.1,0.2,0.1,0.5,0.2,0.8
				c0.1,0.4,0.1,0.7,0.1,0.9h0c0.1-0.4,0.2-1.1,0.4-1.9l0.8-3h1.3l-1.7,6H853.3z"/>
			<path class="st5" d="M865.5,269.9l-0.8-2.2h-3l-0.8,2.2h-1.4l3-8h1.4l3,8H865.5z M864.3,266.6l-0.7-2.2c-0.1-0.1-0.1-0.4-0.2-0.7
				s-0.2-0.5-0.2-0.7c-0.1,0.4-0.2,0.9-0.4,1.5l-0.7,2.1H864.3z"/>
			<path class="st5" d="M872.9,263.9v0.7l-1,0.2c0.1,0.1,0.2,0.3,0.2,0.5c0.1,0.2,0.1,0.4,0.1,0.6c0,0.6-0.2,1.1-0.6,1.5
				c-0.4,0.4-1,0.5-1.8,0.5c-0.2,0-0.4,0-0.5,0c-0.3,0.2-0.4,0.4-0.4,0.6c0,0.1,0.1,0.2,0.2,0.3c0.1,0.1,0.4,0.1,0.7,0.1h1.1
				c0.7,0,1.2,0.1,1.5,0.4c0.3,0.3,0.5,0.7,0.5,1.2c0,0.7-0.3,1.2-0.8,1.6c-0.6,0.4-1.4,0.6-2.4,0.6c-0.8,0-1.4-0.1-1.9-0.4
				c-0.4-0.3-0.6-0.7-0.6-1.2c0-0.4,0.1-0.7,0.4-0.9c0.2-0.3,0.6-0.4,1-0.5c-0.2-0.1-0.3-0.2-0.4-0.4c-0.1-0.2-0.2-0.3-0.2-0.5
				c0-0.2,0.1-0.4,0.2-0.6c0.1-0.2,0.3-0.3,0.6-0.5c-0.3-0.1-0.6-0.4-0.8-0.7c-0.2-0.3-0.3-0.7-0.3-1.1c0-0.7,0.2-1.2,0.6-1.5
				c0.4-0.4,1-0.5,1.8-0.5c0.2,0,0.4,0,0.5,0c0.2,0,0.3,0,0.4,0.1H872.9z M868.1,270.9c0,0.3,0.1,0.5,0.4,0.6c0.2,0.1,0.6,0.2,1,0.2
				c0.7,0,1.2-0.1,1.6-0.3c0.3-0.2,0.5-0.5,0.5-0.8c0-0.3-0.1-0.4-0.3-0.6c-0.2-0.1-0.5-0.2-1-0.2h-1c-0.4,0-0.7,0.1-0.9,0.3
				C868.2,270.3,868.1,270.6,868.1,270.9z M868.7,265.9c0,0.4,0.1,0.7,0.3,0.9c0.2,0.2,0.5,0.3,0.8,0.3c0.7,0,1.1-0.4,1.1-1.2
				c0-0.4-0.1-0.7-0.3-0.9c-0.2-0.2-0.5-0.3-0.8-0.3c-0.4,0-0.6,0.1-0.8,0.3C868.8,265.2,868.7,265.5,868.7,265.9z"/>
			<path class="st5" d="M876.6,270c-0.9,0-1.7-0.3-2.2-0.8c-0.5-0.5-0.8-1.3-0.8-2.3c0-1,0.2-1.8,0.7-2.3c0.5-0.6,1.2-0.8,2-0.8
				c0.8,0,1.4,0.2,1.9,0.7c0.5,0.5,0.7,1.1,0.7,2v0.7h-4c0,0.6,0.2,1,0.5,1.3c0.3,0.3,0.7,0.5,1.3,0.5c0.4,0,0.7,0,1-0.1
				c0.3-0.1,0.6-0.2,1-0.3v1c-0.3,0.1-0.6,0.3-0.9,0.3C877.4,270,877,270,876.6,270z M876.4,264.8c-0.4,0-0.7,0.1-1,0.4
				c-0.2,0.3-0.4,0.6-0.4,1.1h2.7c0-0.5-0.1-0.9-0.4-1.1C877.1,264.9,876.8,264.8,876.4,264.8z"/>
			<path class="st5" d="M888.4,269.9l-0.8-2.2h-3l-0.8,2.2h-1.4l3-8h1.4l3,8H888.4z M887.2,266.6l-0.7-2.2c-0.1-0.1-0.1-0.4-0.2-0.7
				c-0.1-0.3-0.2-0.5-0.2-0.7c-0.1,0.4-0.2,0.9-0.4,1.5l-0.7,2.1H887.2z"/>
			<path class="st5" d="M892,269.9h-1.3v-8.5h1.3V269.9z"/>
			<path class="st5" d="M896.8,270c-0.8,0-1.4-0.3-1.8-0.8H895c0.1,0.5,0.1,0.8,0.1,0.9v2.5h-1.3v-8.7h1c0,0.1,0.1,0.4,0.2,0.8h0.1
				c0.4-0.6,1-0.9,1.8-0.9c0.8,0,1.3,0.3,1.8,0.8c0.4,0.5,0.6,1.3,0.6,2.3c0,1-0.2,1.8-0.6,2.3C898.2,269.8,897.6,270,896.8,270z
				 M896.5,264.8c-0.5,0-0.9,0.1-1.1,0.4c-0.2,0.3-0.4,0.8-0.4,1.4v0.2c0,0.7,0.1,1.3,0.3,1.6c0.2,0.3,0.6,0.5,1.1,0.5
				c0.4,0,0.8-0.2,1-0.5c0.2-0.4,0.4-0.9,0.4-1.6c0-0.7-0.1-1.2-0.4-1.5C897.3,265,897,264.8,896.5,264.8z"/>
			<path class="st5" d="M906,269.9h-1.3v-3.7c0-0.5-0.1-0.8-0.3-1c-0.2-0.2-0.5-0.3-0.9-0.3c-0.5,0-0.9,0.2-1.2,0.5
				c-0.3,0.3-0.4,0.9-0.4,1.6v3h-1.3v-8.5h1.3v2.2c0,0.3,0,0.7-0.1,1.1h0.1c0.2-0.3,0.4-0.5,0.7-0.7c0.3-0.2,0.7-0.2,1.1-0.2
				c1.5,0,2.2,0.7,2.2,2.2V269.9z"/>
			<path class="st5" d="M911.6,269.9l-0.3-0.8h0c-0.3,0.4-0.6,0.6-0.9,0.8c-0.3,0.1-0.7,0.2-1.1,0.2c-0.6,0-1.1-0.2-1.4-0.5
				c-0.3-0.3-0.5-0.8-0.5-1.4c0-0.6,0.2-1.1,0.7-1.4c0.5-0.3,1.2-0.5,2.1-0.5l1,0v-0.3c0-0.4-0.1-0.7-0.3-0.9
				c-0.2-0.2-0.5-0.3-0.8-0.3c-0.3,0-0.6,0-0.9,0.1c-0.3,0.1-0.6,0.2-0.8,0.3l-0.4-0.9c0.3-0.2,0.7-0.3,1.1-0.4
				c0.4-0.1,0.8-0.1,1.1-0.1c0.8,0,1.3,0.2,1.7,0.5c0.4,0.3,0.6,0.9,0.6,1.6v4.1H911.6z M909.7,269.1c0.5,0,0.8-0.1,1.1-0.4
				c0.3-0.3,0.4-0.6,0.4-1.1v-0.5l-0.8,0c-0.6,0-1,0.1-1.3,0.3c-0.3,0.2-0.4,0.5-0.4,0.8c0,0.3,0.1,0.5,0.2,0.6
				C909.1,269,909.4,269.1,909.7,269.1z"/>
			<path class="st5" d="M923.6,262v5.2c0,0.6-0.1,1.1-0.4,1.5c-0.3,0.4-0.6,0.8-1.1,1c-0.5,0.2-1,0.4-1.7,0.4c-1,0-1.8-0.3-2.3-0.8
				c-0.5-0.5-0.8-1.2-0.8-2.2V262h1.3v5c0,0.7,0.2,1.1,0.5,1.5c0.3,0.3,0.8,0.5,1.4,0.5c1.2,0,1.8-0.6,1.8-1.9v-5H923.6z"/>
			<path class="st5" d="M930.2,267.8c0,0.7-0.3,1.3-0.8,1.7c-0.5,0.4-1.2,0.6-2.1,0.6c-0.9,0-1.6-0.1-2.2-0.4v-1.2
				c0.4,0.2,0.7,0.3,1.2,0.4c0.4,0.1,0.8,0.1,1.1,0.1c0.5,0,0.9-0.1,1.1-0.3c0.2-0.2,0.4-0.5,0.4-0.8c0-0.3-0.1-0.6-0.3-0.8
				c-0.2-0.2-0.7-0.5-1.4-0.7c-0.7-0.3-1.2-0.6-1.5-1c-0.3-0.4-0.4-0.8-0.4-1.4c0-0.7,0.2-1.2,0.7-1.6c0.5-0.4,1.1-0.6,1.9-0.6
				c0.8,0,1.5,0.2,2.3,0.5l-0.4,1.1c-0.7-0.3-1.3-0.4-1.9-0.4c-0.4,0-0.7,0.1-1,0.3c-0.2,0.2-0.3,0.4-0.3,0.7c0,0.2,0,0.4,0.1,0.5
				c0.1,0.1,0.2,0.3,0.4,0.4c0.2,0.1,0.6,0.3,1.1,0.5c0.6,0.2,1,0.5,1.3,0.7c0.3,0.2,0.5,0.4,0.6,0.7
				C930.1,267.1,930.2,267.4,930.2,267.8z"/>
			<path class="st5" d="M938.2,265.9c0,1.3-0.4,2.3-1.1,3c-0.7,0.7-1.8,1-3.2,1h-2.2v-8h2.5c1.3,0,2.3,0.3,3,1
				C937.9,263.7,938.2,264.6,938.2,265.9z M936.9,265.9c0-1.9-0.9-2.9-2.7-2.9h-1.1v5.8h0.9C935.9,268.8,936.9,267.9,936.9,265.9z"
				/>
			<path class="st5" d="M949.1,269.9h-1.3v-3.6h-3.7v3.6h-1.3v-8h1.3v3.3h3.7V262h1.3V269.9z"/>
			<path class="st5" d="M951,262.3c0-0.2,0.1-0.4,0.2-0.5c0.1-0.1,0.3-0.2,0.5-0.2c0.2,0,0.4,0.1,0.5,0.2c0.1,0.1,0.2,0.3,0.2,0.5
				c0,0.2-0.1,0.4-0.2,0.5c-0.1,0.1-0.3,0.2-0.5,0.2c-0.2,0-0.4-0.1-0.5-0.2C951.1,262.7,951,262.5,951,262.3z M952.4,269.9h-1.3v-6
				h1.3V269.9z"/>
			<path class="st5" d="M959.3,263.9v0.7l-1,0.2c0.1,0.1,0.2,0.3,0.2,0.5c0.1,0.2,0.1,0.4,0.1,0.6c0,0.6-0.2,1.1-0.6,1.5
				c-0.4,0.4-1,0.5-1.8,0.5c-0.2,0-0.4,0-0.5,0c-0.3,0.2-0.4,0.4-0.4,0.6c0,0.1,0.1,0.2,0.2,0.3c0.1,0.1,0.4,0.1,0.7,0.1h1.1
				c0.7,0,1.2,0.1,1.5,0.4c0.3,0.3,0.5,0.7,0.5,1.2c0,0.7-0.3,1.2-0.8,1.6c-0.6,0.4-1.4,0.6-2.4,0.6c-0.8,0-1.4-0.1-1.9-0.4
				c-0.4-0.3-0.6-0.7-0.6-1.2c0-0.4,0.1-0.7,0.4-0.9c0.2-0.3,0.6-0.4,1-0.5c-0.2-0.1-0.3-0.2-0.4-0.4c-0.1-0.2-0.2-0.3-0.2-0.5
				c0-0.2,0.1-0.4,0.2-0.6s0.3-0.3,0.6-0.5c-0.3-0.1-0.6-0.4-0.8-0.7c-0.2-0.3-0.3-0.7-0.3-1.1c0-0.7,0.2-1.2,0.6-1.5
				c0.4-0.4,1-0.5,1.8-0.5c0.2,0,0.4,0,0.5,0c0.2,0,0.3,0,0.4,0.1H959.3z M954.5,270.9c0,0.3,0.1,0.5,0.4,0.6c0.2,0.1,0.6,0.2,1,0.2
				c0.7,0,1.2-0.1,1.6-0.3c0.3-0.2,0.5-0.5,0.5-0.8c0-0.3-0.1-0.4-0.3-0.6c-0.2-0.1-0.5-0.2-1-0.2h-1c-0.4,0-0.7,0.1-0.9,0.3
				C954.6,270.3,954.5,270.6,954.5,270.9z M955.1,265.9c0,0.4,0.1,0.7,0.3,0.9c0.2,0.2,0.5,0.3,0.8,0.3c0.7,0,1.1-0.4,1.1-1.2
				c0-0.4-0.1-0.7-0.3-0.9c-0.2-0.2-0.5-0.3-0.8-0.3c-0.4,0-0.6,0.1-0.8,0.3S955.1,265.5,955.1,265.9z"/>
			<path class="st5" d="M965.7,269.9h-1.3v-3.7c0-0.5-0.1-0.8-0.3-1c-0.2-0.2-0.5-0.3-0.9-0.3c-0.5,0-0.9,0.2-1.2,0.5
				c-0.3,0.3-0.4,0.9-0.4,1.6v3h-1.3v-8.5h1.3v2.2c0,0.3,0,0.7-0.1,1.1h0.1c0.2-0.3,0.4-0.5,0.7-0.7c0.3-0.2,0.7-0.2,1.1-0.2
				c1.5,0,2.2,0.7,2.2,2.2V269.9z"/>
			<path class="st5" d="M830.3,278.8l1.9-3.6h1.4L831,280v3.1h-1.3v-3l-2.6-4.9h1.4L830.3,278.8z"/>
			<path class="st5" d="M834.5,275.5c0-0.2,0.1-0.4,0.2-0.5c0.1-0.1,0.3-0.2,0.5-0.2c0.2,0,0.4,0.1,0.5,0.2c0.1,0.1,0.2,0.3,0.2,0.5
				c0,0.2-0.1,0.4-0.2,0.5s-0.3,0.2-0.5,0.2c-0.2,0-0.4-0.1-0.5-0.2C834.5,275.9,834.5,275.7,834.5,275.5z M835.8,283.1h-1.3v-6h1.3
				V283.1z"/>
			<path class="st5" d="M840.3,283.2c-0.9,0-1.7-0.3-2.2-0.8c-0.5-0.5-0.8-1.3-0.8-2.3c0-1,0.2-1.8,0.7-2.3c0.5-0.6,1.2-0.8,2-0.8
				c0.8,0,1.4,0.2,1.9,0.7c0.5,0.5,0.7,1.1,0.7,2v0.7h-4c0,0.6,0.2,1,0.5,1.3c0.3,0.3,0.7,0.5,1.3,0.5c0.4,0,0.7,0,1-0.1
				c0.3-0.1,0.6-0.2,1-0.3v1c-0.3,0.1-0.6,0.3-0.9,0.3C841.1,283.2,840.7,283.2,840.3,283.2z M840.1,277.9c-0.4,0-0.7,0.1-1,0.4
				c-0.2,0.3-0.4,0.6-0.4,1.1h2.7c0-0.5-0.1-0.9-0.4-1.1C840.8,278.1,840.5,277.9,840.1,277.9z"/>
			<path class="st5" d="M845.4,283.1h-1.3v-8.5h1.3V283.1z"/>
			<path class="st5" d="M849.2,283.2c-0.8,0-1.3-0.3-1.8-0.8c-0.4-0.5-0.6-1.3-0.6-2.3c0-1,0.2-1.8,0.6-2.3c0.4-0.5,1-0.8,1.8-0.8
				c0.8,0,1.4,0.3,1.8,0.9h0.1c-0.1-0.4-0.1-0.8-0.1-1v-2.2h1.3v8.5h-1l-0.2-0.8H851C850.6,282.9,850,283.2,849.2,283.2z
				 M849.6,282.2c0.5,0,0.9-0.1,1.2-0.4c0.2-0.3,0.4-0.8,0.4-1.4v-0.2c0-0.8-0.1-1.3-0.4-1.6c-0.2-0.3-0.6-0.5-1.2-0.5
				c-0.5,0-0.8,0.2-1,0.5c-0.2,0.4-0.4,0.9-0.4,1.6c0,0.7,0.1,1.2,0.4,1.5C848.8,282,849.1,282.2,849.6,282.2z"/>
			<path class="st5" d="M860.6,276.1c-0.7,0-1.3,0.3-1.8,0.8c-0.4,0.5-0.6,1.3-0.6,2.2c0,1,0.2,1.7,0.6,2.2c0.4,0.5,1,0.8,1.8,0.8
				c0.3,0,0.7,0,1-0.1c0.3-0.1,0.6-0.2,1-0.3v1.1c-0.6,0.2-1.3,0.4-2.1,0.4c-1.2,0-2.1-0.4-2.7-1.1c-0.6-0.7-0.9-1.7-0.9-3
				c0-0.8,0.2-1.6,0.5-2.2c0.3-0.6,0.7-1.1,1.3-1.4c0.6-0.3,1.2-0.5,2-0.5c0.8,0,1.6,0.2,2.3,0.5l-0.5,1.1c-0.3-0.1-0.6-0.2-0.9-0.3
				C861.2,276.2,860.9,276.1,860.6,276.1z"/>
			<path class="st5" d="M869.5,280.1c0,1-0.3,1.8-0.8,2.3c-0.5,0.6-1.2,0.8-2.1,0.8c-0.6,0-1.1-0.1-1.5-0.4c-0.4-0.3-0.8-0.6-1-1.1
				c-0.2-0.5-0.3-1-0.3-1.7c0-1,0.3-1.7,0.8-2.3c0.5-0.5,1.2-0.8,2.1-0.8c0.9,0,1.6,0.3,2.1,0.8
				C869.2,278.4,869.5,279.1,869.5,280.1z M865.1,280.1c0,1.4,0.5,2.1,1.5,2.1c1,0,1.5-0.7,1.5-2.1c0-1.4-0.5-2.1-1.5-2.1
				c-0.5,0-0.9,0.2-1.2,0.5C865.2,278.9,865.1,279.4,865.1,280.1z"/>
			<path class="st5" d="M874,277c0.3,0,0.5,0,0.6,0.1l-0.1,1.2c-0.2,0-0.4-0.1-0.6-0.1c-0.5,0-0.9,0.2-1.2,0.5
				c-0.3,0.3-0.5,0.8-0.5,1.3v3.1h-1.3v-6h1l0.2,1.1h0.1c0.2-0.4,0.5-0.6,0.8-0.9C873.3,277.1,873.6,277,874,277z"/>
			<path class="st5" d="M878.8,283.2c-0.8,0-1.4-0.3-1.8-0.8H877c0.1,0.5,0.1,0.8,0.1,0.9v2.5h-1.3v-8.7h1c0,0.1,0.1,0.4,0.2,0.8
				h0.1c0.4-0.6,1-0.9,1.8-0.9c0.8,0,1.3,0.3,1.8,0.8c0.4,0.5,0.6,1.3,0.6,2.3c0,1-0.2,1.8-0.6,2.3
				C880.2,282.9,879.6,283.2,878.8,283.2z M878.5,278c-0.5,0-0.9,0.1-1.1,0.4c-0.2,0.3-0.4,0.8-0.4,1.4v0.2c0,0.7,0.1,1.3,0.3,1.6
				c0.2,0.3,0.6,0.5,1.1,0.5c0.4,0,0.8-0.2,1-0.5c0.2-0.4,0.4-0.9,0.4-1.6c0-0.7-0.1-1.2-0.4-1.5C879.3,278.2,879,278,878.5,278z"/>
			<path class="st5" d="M888,280.1c0,1-0.3,1.8-0.8,2.3c-0.5,0.6-1.2,0.8-2.1,0.8c-0.6,0-1.1-0.1-1.5-0.4c-0.4-0.3-0.8-0.6-1-1.1
				c-0.2-0.5-0.3-1-0.3-1.7c0-1,0.3-1.7,0.8-2.3c0.5-0.5,1.2-0.8,2.1-0.8c0.9,0,1.6,0.3,2.1,0.8C887.8,278.4,888,279.1,888,280.1z
				 M883.7,280.1c0,1.4,0.5,2.1,1.5,2.1c1,0,1.5-0.7,1.5-2.1c0-1.4-0.5-2.1-1.5-2.1c-0.5,0-0.9,0.2-1.2,0.5
				C883.8,278.9,883.7,279.4,883.7,280.1z"/>
			<path class="st5" d="M892.6,277c0.3,0,0.5,0,0.6,0.1l-0.1,1.2c-0.2,0-0.4-0.1-0.6-0.1c-0.5,0-0.9,0.2-1.2,0.5
				c-0.3,0.3-0.5,0.8-0.5,1.3v3.1h-1.3v-6h1l0.2,1.1h0.1c0.2-0.4,0.5-0.6,0.8-0.9C891.9,277.1,892.2,277,892.6,277z"/>
			<path class="st5" d="M898.1,283.1l-0.3-0.8h0c-0.3,0.4-0.6,0.6-0.9,0.8c-0.3,0.1-0.7,0.2-1.1,0.2c-0.6,0-1.1-0.2-1.4-0.5
				c-0.3-0.3-0.5-0.8-0.5-1.4c0-0.6,0.2-1.1,0.7-1.4c0.5-0.3,1.2-0.5,2.1-0.5l1,0v-0.3c0-0.4-0.1-0.7-0.3-0.9
				c-0.2-0.2-0.5-0.3-0.8-0.3c-0.3,0-0.6,0-0.9,0.1c-0.3,0.1-0.6,0.2-0.8,0.3l-0.4-0.9c0.3-0.2,0.7-0.3,1.1-0.4
				c0.4-0.1,0.8-0.1,1.1-0.1c0.8,0,1.3,0.2,1.7,0.5c0.4,0.3,0.6,0.9,0.6,1.6v4.1H898.1z M896.2,282.2c0.5,0,0.8-0.1,1.1-0.4
				c0.3-0.3,0.4-0.6,0.4-1.1v-0.5l-0.8,0c-0.6,0-1,0.1-1.3,0.3c-0.3,0.2-0.4,0.5-0.4,0.8c0,0.3,0.1,0.5,0.2,0.6
				C895.6,282.2,895.9,282.2,896.2,282.2z"/>
			<path class="st5" d="M903,282.2c0.3,0,0.6,0,0.9-0.1v1c-0.1,0.1-0.3,0.1-0.5,0.2s-0.5,0.1-0.7,0.1c-1.2,0-1.8-0.6-1.8-1.9v-3.2
				h-0.8v-0.6l0.9-0.5l0.4-1.3h0.8v1.3h1.7v1h-1.7v3.2c0,0.3,0.1,0.5,0.2,0.7C902.6,282.1,902.8,282.2,903,282.2z"/>
			<path class="st5" d="M907.8,283.2c-0.9,0-1.7-0.3-2.2-0.8c-0.5-0.5-0.8-1.3-0.8-2.3c0-1,0.2-1.8,0.7-2.3c0.5-0.6,1.2-0.8,2-0.8
				c0.8,0,1.4,0.2,1.9,0.7c0.5,0.5,0.7,1.1,0.7,2v0.7h-4c0,0.6,0.2,1,0.5,1.3c0.3,0.3,0.7,0.5,1.3,0.5c0.4,0,0.7,0,1-0.1
				c0.3-0.1,0.6-0.2,1-0.3v1c-0.3,0.1-0.6,0.3-0.9,0.3C908.6,283.2,908.2,283.2,907.8,283.2z M907.6,277.9c-0.4,0-0.7,0.1-1,0.4
				c-0.2,0.3-0.4,0.6-0.4,1.1h2.7c0-0.5-0.1-0.9-0.4-1.1C908.3,278.1,908,277.9,907.6,277.9z"/>
			<path class="st5" d="M914.7,275.1h2.4c1.1,0,1.9,0.2,2.4,0.5c0.5,0.3,0.7,0.8,0.7,1.5c0,0.5-0.1,0.9-0.4,1.2
				c-0.2,0.3-0.6,0.5-1,0.6v0.1c0.6,0.1,1,0.3,1.2,0.6c0.3,0.3,0.4,0.7,0.4,1.3c0,0.7-0.2,1.3-0.7,1.7c-0.5,0.4-1.2,0.6-2.1,0.6
				h-2.9V275.1z M916,278.4h1.3c0.5,0,0.9-0.1,1.2-0.3c0.3-0.2,0.4-0.5,0.4-0.9c0-0.4-0.1-0.6-0.4-0.8c-0.3-0.2-0.7-0.3-1.3-0.3H916
				V278.4z M916,279.5v2.5h1.4c0.5,0,1-0.1,1.2-0.3c0.3-0.2,0.4-0.5,0.4-1c0-0.4-0.1-0.7-0.4-0.9c-0.3-0.2-0.7-0.3-1.3-0.3H916z"/>
			<path class="st5" d="M927.2,280.1c0,1-0.3,1.8-0.8,2.3c-0.5,0.6-1.2,0.8-2.1,0.8c-0.6,0-1.1-0.1-1.5-0.4c-0.4-0.3-0.8-0.6-1-1.1
				c-0.2-0.5-0.3-1-0.3-1.7c0-1,0.3-1.7,0.8-2.3c0.5-0.5,1.2-0.8,2.1-0.8c0.9,0,1.6,0.3,2.1,0.8C927,278.4,927.2,279.1,927.2,280.1z
				 M922.8,280.1c0,1.4,0.5,2.1,1.5,2.1c1,0,1.5-0.7,1.5-2.1c0-1.4-0.5-2.1-1.5-2.1c-0.5,0-0.9,0.2-1.2,0.5
				C923,278.9,922.8,279.4,922.8,280.1z"/>
			<path class="st5" d="M934,283.1h-1.3v-3.7c0-0.5-0.1-0.8-0.3-1c-0.2-0.2-0.5-0.3-0.9-0.3c-0.5,0-0.9,0.2-1.2,0.5
				c-0.3,0.3-0.4,0.9-0.4,1.6v3h-1.3v-6h1l0.2,0.8h0.1c0.2-0.3,0.4-0.5,0.8-0.7c0.3-0.2,0.7-0.2,1.1-0.2c1.4,0,2.2,0.7,2.2,2.2
				V283.1z"/>
			<path class="st5" d="M937.8,283.2c-0.8,0-1.3-0.3-1.8-0.8c-0.4-0.5-0.6-1.3-0.6-2.3c0-1,0.2-1.8,0.6-2.3c0.4-0.5,1-0.8,1.8-0.8
				c0.8,0,1.4,0.3,1.8,0.9h0.1c-0.1-0.4-0.1-0.8-0.1-1v-2.2h1.3v8.5h-1l-0.2-0.8h-0.1C939.2,282.9,938.6,283.2,937.8,283.2z
				 M938.2,282.2c0.5,0,0.9-0.1,1.2-0.4c0.2-0.3,0.4-0.8,0.4-1.4v-0.2c0-0.8-0.1-1.3-0.4-1.6c-0.2-0.3-0.6-0.5-1.2-0.5
				c-0.5,0-0.8,0.2-1,0.5c-0.2,0.4-0.4,0.9-0.4,1.6c0,0.7,0.1,1.2,0.4,1.5C937.3,282,937.7,282.2,938.2,282.2z"/>
			<path class="st5" d="M945.8,283.1v-8h1.3v8H945.8z"/>
			<path class="st5" d="M954.3,283.1H953v-3.7c0-0.5-0.1-0.8-0.3-1c-0.2-0.2-0.5-0.3-0.9-0.3c-0.5,0-0.9,0.2-1.2,0.5
				c-0.3,0.3-0.4,0.9-0.4,1.6v3H949v-6h1l0.2,0.8h0.1c0.2-0.3,0.4-0.5,0.8-0.7c0.3-0.2,0.7-0.2,1.1-0.2c1.4,0,2.2,0.7,2.2,2.2V283.1
				z"/>
			<path class="st5" d="M958.1,283.2c-0.8,0-1.3-0.3-1.8-0.8c-0.4-0.5-0.6-1.3-0.6-2.3c0-1,0.2-1.8,0.6-2.3c0.4-0.5,1-0.8,1.8-0.8
				c0.8,0,1.4,0.3,1.8,0.9h0.1c-0.1-0.4-0.1-0.8-0.1-1v-2.2h1.3v8.5h-1l-0.2-0.8h-0.1C959.5,282.9,958.9,283.2,958.1,283.2z
				 M958.5,282.2c0.5,0,0.9-0.1,1.2-0.4c0.2-0.3,0.4-0.8,0.4-1.4v-0.2c0-0.8-0.1-1.3-0.4-1.6c-0.2-0.3-0.6-0.5-1.2-0.5
				c-0.5,0-0.8,0.2-1,0.5c-0.2,0.4-0.4,0.9-0.4,1.6c0,0.7,0.1,1.2,0.4,1.5C957.7,282,958,282.2,958.5,282.2z"/>
			<path class="st5" d="M965.7,283.2c-0.9,0-1.7-0.3-2.2-0.8c-0.5-0.5-0.8-1.3-0.8-2.3c0-1,0.2-1.8,0.7-2.3c0.5-0.6,1.2-0.8,2-0.8
				c0.8,0,1.4,0.2,1.9,0.7c0.5,0.5,0.7,1.1,0.7,2v0.7h-4c0,0.6,0.2,1,0.5,1.3c0.3,0.3,0.7,0.5,1.3,0.5c0.4,0,0.7,0,1-0.1
				c0.3-0.1,0.6-0.2,1-0.3v1c-0.3,0.1-0.6,0.3-0.9,0.3C966.5,283.2,966.1,283.2,965.7,283.2z M965.5,277.9c-0.4,0-0.7,0.1-1,0.4
				c-0.2,0.3-0.4,0.6-0.4,1.1h2.7c0-0.5-0.1-0.9-0.4-1.1C966.2,278.1,965.9,277.9,965.5,277.9z"/>
			<path class="st5" d="M970.8,280l-2-2.9h1.5l1.4,2.1l1.4-2.1h1.5l-2,2.9l2.1,3.1h-1.4l-1.5-2.3l-1.5,2.3h-1.4L970.8,280z"/>
		</g>
	</g>
	
		<linearGradient id="SVGID_2_" gradientUnits="userSpaceOnUse" x1="-8217.1533" y1="273.315" x2="-8374.1436" y2="273.315" gradientTransform="matrix(-1 0 0 1 -7585.3359 0)">
		<stop  offset="0" style="stop-color:#A5D421"/>
		<stop  offset="1" style="stop-color:#00B850"/>
	</linearGradient>
	<path class="st6" d="M653.7,295.2h113.3c12.1,0,21.9-9.8,21.9-21.9v0c0-12.1-9.8-21.9-21.9-21.9H653.7c-12.1,0-21.9,9.8-21.9,21.9
		v0C631.8,285.4,641.6,295.2,653.7,295.2z"/>
	<g>
		<g>
			<path class="st0" d="M669.4,267.7c0,0.7-0.3,1.3-0.8,1.7c-0.5,0.4-1.2,0.6-2.1,0.6c-0.9,0-1.6-0.1-2.2-0.4v-1.2
				c0.4,0.2,0.7,0.3,1.2,0.4c0.4,0.1,0.8,0.1,1.1,0.1c0.5,0,0.9-0.1,1.1-0.3c0.2-0.2,0.4-0.5,0.4-0.8c0-0.3-0.1-0.6-0.3-0.8
				c-0.2-0.2-0.7-0.5-1.4-0.7c-0.7-0.3-1.2-0.6-1.5-1c-0.3-0.4-0.4-0.8-0.4-1.4c0-0.7,0.2-1.2,0.7-1.6c0.5-0.4,1.1-0.6,1.9-0.6
				c0.8,0,1.5,0.2,2.3,0.5l-0.4,1.1c-0.7-0.3-1.3-0.4-1.9-0.4c-0.4,0-0.7,0.1-1,0.3c-0.2,0.2-0.3,0.4-0.3,0.7c0,0.2,0,0.4,0.1,0.5
				c0.1,0.1,0.2,0.3,0.4,0.4c0.2,0.1,0.6,0.3,1.1,0.5c0.6,0.2,1,0.5,1.3,0.7c0.3,0.2,0.5,0.4,0.6,0.7
				C669.4,267,669.4,267.3,669.4,267.7z"/>
			<path class="st0" d="M673.5,269.9c-0.9,0-1.7-0.3-2.2-0.8c-0.5-0.5-0.8-1.3-0.8-2.3c0-1,0.2-1.8,0.7-2.3c0.5-0.6,1.2-0.8,2-0.8
				c0.8,0,1.4,0.2,1.9,0.7c0.5,0.5,0.7,1.1,0.7,2v0.7h-4c0,0.6,0.2,1,0.5,1.3c0.3,0.3,0.7,0.5,1.3,0.5c0.4,0,0.7,0,1-0.1
				c0.3-0.1,0.6-0.2,1-0.3v1c-0.3,0.1-0.6,0.3-0.9,0.3C674.3,269.9,673.9,269.9,673.5,269.9z M673.2,264.7c-0.4,0-0.7,0.1-1,0.4
				c-0.2,0.3-0.4,0.6-0.4,1.1h2.7c0-0.5-0.1-0.9-0.4-1.1C674,264.8,673.6,264.7,673.2,264.7z"/>
			<path class="st0" d="M678.6,269.8h-1.3v-8.5h1.3V269.8z"/>
			<path class="st0" d="M683,269.9c-0.9,0-1.7-0.3-2.2-0.8c-0.5-0.5-0.8-1.3-0.8-2.3c0-1,0.2-1.8,0.7-2.3c0.5-0.6,1.2-0.8,2-0.8
				c0.8,0,1.4,0.2,1.9,0.7c0.5,0.5,0.7,1.1,0.7,2v0.7h-4c0,0.6,0.2,1,0.5,1.3c0.3,0.3,0.7,0.5,1.3,0.5c0.4,0,0.7,0,1-0.1
				c0.3-0.1,0.6-0.2,1-0.3v1c-0.3,0.1-0.6,0.3-0.9,0.3C683.8,269.9,683.4,269.9,683,269.9z M682.8,264.7c-0.4,0-0.7,0.1-1,0.4
				c-0.2,0.3-0.4,0.6-0.4,1.1h2.7c0-0.5-0.1-0.9-0.4-1.1C683.5,264.8,683.2,264.7,682.8,264.7z"/>
			<path class="st0" d="M689.2,269.9c-0.9,0-1.6-0.3-2.1-0.8c-0.5-0.5-0.7-1.3-0.7-2.3c0-1,0.2-1.8,0.7-2.3c0.5-0.5,1.2-0.8,2.1-0.8
				c0.6,0,1.2,0.1,1.7,0.4l-0.4,1c-0.5-0.2-1-0.3-1.3-0.3c-1,0-1.6,0.7-1.6,2.1c0,0.7,0.1,1.2,0.4,1.5c0.3,0.3,0.6,0.5,1.1,0.5
				c0.6,0,1.1-0.1,1.6-0.4v1.1c-0.2,0.1-0.5,0.2-0.7,0.3C689.9,269.9,689.6,269.9,689.2,269.9z"/>
			<path class="st0" d="M694.6,268.9c0.3,0,0.6,0,0.9-0.1v1c-0.1,0.1-0.3,0.1-0.5,0.2c-0.2,0-0.5,0.1-0.7,0.1
				c-1.2,0-1.8-0.6-1.8-1.9v-3.2h-0.8v-0.6l0.9-0.5l0.4-1.3h0.8v1.3h1.7v1h-1.7v3.2c0,0.3,0.1,0.5,0.2,0.7
				C694.1,268.8,694.3,268.9,694.6,268.9z"/>
			<path class="st0" d="M703,269.8h-1.3v-5.1c0-0.6,0-1.1,0-1.5c-0.1,0.1-0.2,0.2-0.3,0.3c-0.1,0.1-0.5,0.4-1.2,1l-0.6-0.8l2.3-1.8
				h1.1V269.8z"/>
			<path class="st0" d="M711,269.8h-5.4v-1l2.1-2.1c0.6-0.6,1-1.1,1.2-1.3c0.2-0.3,0.3-0.5,0.4-0.7c0.1-0.2,0.1-0.5,0.1-0.7
				c0-0.4-0.1-0.6-0.3-0.9c-0.2-0.2-0.5-0.3-0.9-0.3c-0.3,0-0.6,0.1-0.9,0.2c-0.3,0.1-0.6,0.3-1,0.6l-0.7-0.8
				c0.4-0.4,0.9-0.6,1.3-0.8c0.4-0.2,0.9-0.2,1.3-0.2c0.7,0,1.3,0.2,1.8,0.6c0.4,0.4,0.7,0.9,0.7,1.6c0,0.4-0.1,0.7-0.2,1
				c-0.1,0.3-0.3,0.7-0.6,1c-0.3,0.3-0.7,0.8-1.3,1.4l-1.4,1.3v0.1h3.8V269.8z"/>
			<path class="st0" d="M717.3,265.8c0,1.4-0.2,2.4-0.7,3.1c-0.4,0.7-1.1,1-2,1c-0.9,0-1.6-0.3-2-1c-0.5-0.7-0.7-1.7-0.7-3
				c0-1.4,0.2-2.4,0.7-3.1c0.4-0.7,1.1-1,2-1c0.9,0,1.6,0.3,2,1C717.1,263.5,717.3,264.5,717.3,265.8z M713.2,265.8
				c0,1.1,0.1,1.9,0.3,2.3c0.2,0.5,0.6,0.7,1.1,0.7c0.5,0,0.8-0.2,1.1-0.7c0.2-0.5,0.3-1.2,0.3-2.3c0-1.1-0.1-1.8-0.3-2.3
				c-0.2-0.5-0.6-0.7-1.1-0.7c-0.5,0-0.8,0.2-1.1,0.7C713.3,264,713.2,264.8,713.2,265.8z"/>
			<path class="st0" d="M724.7,263.7c0.8,0,1.3,0.3,1.8,0.8c0.4,0.5,0.6,1.3,0.6,2.3c0,1-0.2,1.8-0.6,2.3c-0.4,0.6-1,0.8-1.8,0.8
				c-0.8,0-1.4-0.3-1.8-0.8h-0.1l-0.2,0.7h-1v-8.5h1.3v2c0,0.1,0,0.4,0,0.7c0,0.3,0,0.5,0,0.6h0.1
				C723.3,264,723.9,263.7,724.7,263.7z M724.4,264.7c-0.5,0-0.9,0.2-1.1,0.5c-0.2,0.3-0.3,0.8-0.4,1.5v0.1c0,0.7,0.1,1.3,0.3,1.6
				c0.2,0.3,0.6,0.5,1.1,0.5c0.5,0,0.8-0.2,1-0.5c0.2-0.4,0.4-0.9,0.4-1.6C725.8,265.4,725.3,264.7,724.4,264.7z"/>
			<path class="st0" d="M733.9,266.8c0,1-0.3,1.8-0.8,2.3c-0.5,0.6-1.2,0.8-2.1,0.8c-0.6,0-1.1-0.1-1.5-0.4c-0.4-0.3-0.8-0.6-1-1.1
				c-0.2-0.5-0.3-1-0.3-1.7c0-1,0.3-1.7,0.8-2.3c0.5-0.5,1.2-0.8,2.1-0.8c0.9,0,1.6,0.3,2.1,0.8
				C733.7,265.1,733.9,265.9,733.9,266.8z M729.5,266.8c0,1.4,0.5,2.1,1.5,2.1c1,0,1.5-0.7,1.5-2.1c0-1.4-0.5-2.1-1.5-2.1
				c-0.5,0-0.9,0.2-1.2,0.5C729.7,265.6,729.5,266.1,729.5,266.8z"/>
			<path class="st0" d="M740.7,269.8h-1.3v-3.7c0-0.5-0.1-0.8-0.3-1c-0.2-0.2-0.5-0.3-0.9-0.3c-0.5,0-0.9,0.2-1.2,0.5
				c-0.3,0.3-0.4,0.9-0.4,1.6v3h-1.3v-6h1l0.2,0.8h0.1c0.2-0.3,0.4-0.5,0.8-0.7c0.3-0.2,0.7-0.2,1.1-0.2c1.4,0,2.2,0.7,2.2,2.2
				V269.8z"/>
			<path class="st0" d="M744.5,269.9c-0.8,0-1.3-0.3-1.8-0.8c-0.4-0.5-0.6-1.3-0.6-2.3c0-1,0.2-1.8,0.6-2.3c0.4-0.6,1-0.8,1.8-0.8
				c0.8,0,1.4,0.3,1.8,0.9h0.1c-0.1-0.4-0.1-0.8-0.1-1v-2.2h1.3v8.5h-1l-0.2-0.8h-0.1C745.9,269.6,745.3,269.9,744.5,269.9z
				 M744.8,268.9c0.5,0,0.9-0.1,1.2-0.4c0.2-0.3,0.4-0.8,0.4-1.4v-0.2c0-0.8-0.1-1.3-0.4-1.6c-0.2-0.3-0.6-0.5-1.2-0.5
				c-0.5,0-0.8,0.2-1,0.5c-0.2,0.4-0.4,0.9-0.4,1.6c0,0.7,0.1,1.2,0.4,1.5C744,268.7,744.4,268.9,744.8,268.9z"/>
			<path class="st0" d="M753.5,268.1c0,0.6-0.2,1-0.6,1.4c-0.4,0.3-1,0.5-1.8,0.5c-0.8,0-1.4-0.1-1.9-0.4v-1.1
				c0.7,0.3,1.4,0.5,2,0.5c0.8,0,1.2-0.2,1.2-0.7c0-0.2,0-0.3-0.1-0.4c-0.1-0.1-0.2-0.2-0.4-0.3c-0.2-0.1-0.5-0.2-0.8-0.4
				c-0.7-0.3-1.2-0.5-1.4-0.8c-0.2-0.3-0.4-0.6-0.4-1c0-0.5,0.2-0.9,0.6-1.2c0.4-0.3,1-0.4,1.7-0.4c0.7,0,1.4,0.1,2,0.4l-0.4,1
				c-0.6-0.3-1.2-0.4-1.6-0.4c-0.7,0-1,0.2-1,0.6c0,0.2,0.1,0.3,0.3,0.5c0.2,0.1,0.6,0.3,1.2,0.5c0.5,0.2,0.9,0.4,1.1,0.5
				c0.2,0.2,0.4,0.3,0.5,0.6C753.4,267.6,753.5,267.8,753.5,268.1z"/>
			<path class="st0" d="M659,283.2l-0.8-2.8c-0.1-0.3-0.3-1-0.5-2.1h-0.1c-0.2,1-0.4,1.7-0.5,2.1l-0.8,2.8h-1.4l-1.7-6h1.3l0.8,3
				c0.2,0.7,0.3,1.4,0.4,1.9h0c0-0.3,0.1-0.6,0.2-0.9c0.1-0.3,0.1-0.6,0.2-0.8l0.9-3.2h1.4l0.9,3.2c0.1,0.2,0.1,0.5,0.2,0.8
				c0.1,0.4,0.1,0.7,0.1,0.9h0c0.1-0.4,0.2-1.1,0.4-1.9l0.8-3h1.3l-1.7,6H659z"/>
			<path class="st0" d="M665.8,283.3c-0.9,0-1.7-0.3-2.2-0.8c-0.5-0.5-0.8-1.3-0.8-2.3c0-1,0.2-1.8,0.7-2.3c0.5-0.6,1.2-0.8,2-0.8
				c0.8,0,1.4,0.2,1.9,0.7c0.5,0.5,0.7,1.1,0.7,2v0.7h-4c0,0.6,0.2,1,0.5,1.3c0.3,0.3,0.7,0.5,1.3,0.5c0.4,0,0.7,0,1-0.1
				c0.3-0.1,0.6-0.2,1-0.3v1c-0.3,0.1-0.6,0.3-0.9,0.3C666.6,283.3,666.2,283.3,665.8,283.3z M665.6,278.1c-0.4,0-0.7,0.1-1,0.4
				c-0.2,0.3-0.4,0.6-0.4,1.1h2.7c0-0.5-0.1-0.9-0.4-1.1C666.3,278.2,666,278.1,665.6,278.1z"/>
			<path class="st0" d="M669.5,275.6c0-0.2,0.1-0.4,0.2-0.5c0.1-0.1,0.3-0.2,0.5-0.2c0.2,0,0.4,0.1,0.5,0.2c0.1,0.1,0.2,0.3,0.2,0.5
				c0,0.2-0.1,0.4-0.2,0.5c-0.1,0.1-0.3,0.2-0.5,0.2c-0.2,0-0.4-0.1-0.5-0.2C669.6,276,669.5,275.8,669.5,275.6z M670.9,283.2h-1.3
				v-6h1.3V283.2z"/>
			<path class="st0" d="M677.8,277.2v0.7l-1,0.2c0.1,0.1,0.2,0.3,0.2,0.5c0.1,0.2,0.1,0.4,0.1,0.6c0,0.6-0.2,1.1-0.6,1.5
				c-0.4,0.4-1,0.5-1.8,0.5c-0.2,0-0.4,0-0.5,0c-0.3,0.2-0.4,0.4-0.4,0.6c0,0.1,0.1,0.2,0.2,0.3c0.1,0.1,0.4,0.1,0.7,0.1h1.1
				c0.7,0,1.2,0.1,1.5,0.4c0.3,0.3,0.5,0.7,0.5,1.2c0,0.7-0.3,1.2-0.8,1.6c-0.6,0.4-1.4,0.6-2.4,0.6c-0.8,0-1.4-0.1-1.9-0.4
				c-0.4-0.3-0.6-0.7-0.6-1.2c0-0.4,0.1-0.7,0.4-0.9c0.2-0.3,0.6-0.4,1-0.5c-0.2-0.1-0.3-0.2-0.4-0.4c-0.1-0.2-0.2-0.3-0.2-0.5
				c0-0.2,0.1-0.4,0.2-0.6c0.1-0.2,0.3-0.3,0.6-0.5c-0.3-0.1-0.6-0.4-0.8-0.7c-0.2-0.3-0.3-0.7-0.3-1.1c0-0.7,0.2-1.2,0.6-1.5
				c0.4-0.4,1-0.5,1.8-0.5c0.2,0,0.4,0,0.5,0c0.2,0,0.3,0,0.4,0.1H677.8z M673.1,284.2c0,0.3,0.1,0.5,0.4,0.6c0.2,0.1,0.6,0.2,1,0.2
				c0.7,0,1.2-0.1,1.6-0.3c0.3-0.2,0.5-0.5,0.5-0.8c0-0.3-0.1-0.4-0.3-0.6c-0.2-0.1-0.5-0.2-1-0.2h-1c-0.4,0-0.7,0.1-0.9,0.3
				C673.2,283.6,673.1,283.9,673.1,284.2z M673.6,279.1c0,0.4,0.1,0.7,0.3,0.9c0.2,0.2,0.5,0.3,0.8,0.3c0.7,0,1.1-0.4,1.1-1.2
				c0-0.4-0.1-0.7-0.3-0.9c-0.2-0.2-0.5-0.3-0.8-0.3c-0.4,0-0.6,0.1-0.8,0.3C673.7,278.4,673.6,278.7,673.6,279.1z"/>
			<path class="st0" d="M684.2,283.2h-1.3v-3.7c0-0.5-0.1-0.8-0.3-1c-0.2-0.2-0.5-0.3-0.9-0.3c-0.5,0-0.9,0.2-1.2,0.5
				c-0.3,0.3-0.4,0.9-0.4,1.6v3h-1.3v-8.5h1.3v2.2c0,0.3,0,0.7-0.1,1.1h0.1c0.2-0.3,0.4-0.5,0.7-0.7c0.3-0.2,0.7-0.2,1.1-0.2
				c1.5,0,2.2,0.7,2.2,2.2V283.2z"/>
			<path class="st0" d="M688.2,282.3c0.3,0,0.6,0,0.9-0.1v1c-0.1,0.1-0.3,0.1-0.5,0.2s-0.5,0.1-0.7,0.1c-1.2,0-1.8-0.6-1.8-1.9v-3.2
				h-0.8v-0.6l0.9-0.5l0.4-1.3h0.8v1.3h1.7v1h-1.7v3.2c0,0.3,0.1,0.5,0.2,0.7C687.8,282.2,688,282.3,688.2,282.3z"/>
			<path class="st0" d="M693,283.3c-0.9,0-1.7-0.3-2.2-0.8c-0.5-0.5-0.8-1.3-0.8-2.3c0-1,0.2-1.8,0.7-2.3c0.5-0.6,1.2-0.8,2-0.8
				c0.8,0,1.4,0.2,1.9,0.7c0.5,0.5,0.7,1.1,0.7,2v0.7h-4c0,0.6,0.2,1,0.5,1.3c0.3,0.3,0.7,0.5,1.3,0.5c0.4,0,0.7,0,1-0.1
				c0.3-0.1,0.6-0.2,1-0.3v1c-0.3,0.1-0.6,0.3-0.9,0.3C693.8,283.3,693.4,283.3,693,283.3z M692.8,278.1c-0.4,0-0.7,0.1-1,0.4
				s-0.4,0.6-0.4,1.1h2.7c0-0.5-0.1-0.9-0.4-1.1C693.5,278.2,693.2,278.1,692.8,278.1z"/>
			<path class="st0" d="M698.8,283.3c-0.8,0-1.3-0.3-1.8-0.8c-0.4-0.5-0.6-1.3-0.6-2.3c0-1,0.2-1.8,0.6-2.3c0.4-0.5,1-0.8,1.8-0.8
				c0.8,0,1.4,0.3,1.8,0.9h0.1c-0.1-0.4-0.1-0.8-0.1-1v-2.2h1.3v8.5h-1l-0.2-0.8h-0.1C700.2,283,699.6,283.3,698.8,283.3z
				 M699.2,282.3c0.5,0,0.9-0.1,1.2-0.4c0.2-0.3,0.4-0.8,0.4-1.4v-0.2c0-0.8-0.1-1.3-0.4-1.6c-0.2-0.3-0.6-0.5-1.2-0.5
				c-0.5,0-0.8,0.2-1,0.5c-0.2,0.4-0.4,0.9-0.4,1.6c0,0.7,0.1,1.2,0.4,1.5C698.4,282.1,698.7,282.3,699.2,282.3z"/>
			<path class="st0" d="M709.7,277.1c0.8,0,1.3,0.3,1.8,0.8c0.4,0.5,0.6,1.3,0.6,2.3c0,1-0.2,1.8-0.6,2.3c-0.4,0.6-1,0.8-1.8,0.8
				c-0.8,0-1.4-0.3-1.8-0.8h-0.1l-0.2,0.7h-1v-8.5h1.3v2c0,0.1,0,0.4,0,0.7c0,0.3,0,0.5,0,0.6h0.1
				C708.3,277.4,708.9,277.1,709.7,277.1z M709.4,278.1c-0.5,0-0.9,0.2-1.1,0.5c-0.2,0.3-0.3,0.8-0.4,1.5v0.1c0,0.7,0.1,1.3,0.3,1.6
				c0.2,0.3,0.6,0.5,1.1,0.5c0.5,0,0.8-0.2,1-0.5c0.2-0.4,0.4-0.9,0.4-1.6C710.8,278.8,710.3,278.1,709.4,278.1z"/>
			<path class="st0" d="M712.7,277.2h1.4l1.2,3.4c0.2,0.5,0.3,0.9,0.4,1.4h0c0-0.2,0.1-0.4,0.2-0.7c0.1-0.3,0.5-1.6,1.4-4.1h1.4
				l-2.6,6.8c-0.5,1.3-1.2,1.9-2.3,1.9c-0.3,0-0.6,0-0.8-0.1v-1c0.2,0,0.4,0.1,0.7,0.1c0.6,0,1.1-0.4,1.3-1.1l0.2-0.6L712.7,277.2z"
				/>
			<path class="st0" d="M728.9,283.2h-1.3v-3.6h-3.7v3.6h-1.3v-8h1.3v3.3h3.7v-3.3h1.3V283.2z"/>
			<path class="st0" d="M730.3,280.8v-1.1h2.8v1.1H730.3z"/>
			<path class="st0" d="M735.9,283.2h-1.3v-8h4.5v1.1h-3.2v2.5h3v1.1h-3V283.2z"/>
			<path class="st0" d="M744.2,283.2l-0.3-0.8h0c-0.3,0.4-0.6,0.6-0.9,0.8c-0.3,0.1-0.7,0.2-1.1,0.2c-0.6,0-1.1-0.2-1.4-0.5
				c-0.3-0.3-0.5-0.8-0.5-1.4c0-0.6,0.2-1.1,0.7-1.4c0.5-0.3,1.2-0.5,2.1-0.5l1,0v-0.3c0-0.4-0.1-0.7-0.3-0.9
				c-0.2-0.2-0.5-0.3-0.8-0.3c-0.3,0-0.6,0-0.9,0.1c-0.3,0.1-0.6,0.2-0.8,0.3l-0.4-0.9c0.3-0.2,0.7-0.3,1.1-0.4
				c0.4-0.1,0.8-0.1,1.1-0.1c0.8,0,1.3,0.2,1.7,0.5c0.4,0.3,0.6,0.9,0.6,1.6v4.1H744.2z M742.3,282.3c0.5,0,0.8-0.1,1.1-0.4
				c0.3-0.3,0.4-0.6,0.4-1.1v-0.5l-0.8,0c-0.6,0-1,0.1-1.3,0.3c-0.3,0.2-0.4,0.5-0.4,0.8c0,0.3,0.1,0.5,0.2,0.6
				C741.7,282.3,741.9,282.3,742.3,282.3z"/>
			<path class="st0" d="M749.3,283.3c-0.9,0-1.6-0.3-2.1-0.8c-0.5-0.5-0.7-1.3-0.7-2.3c0-1,0.2-1.8,0.7-2.3c0.5-0.5,1.2-0.8,2.1-0.8
				c0.6,0,1.2,0.1,1.7,0.4l-0.4,1c-0.5-0.2-1-0.3-1.3-0.3c-1,0-1.6,0.7-1.6,2.1c0,0.7,0.1,1.2,0.4,1.5c0.3,0.3,0.6,0.5,1.1,0.5
				c0.6,0,1.1-0.1,1.6-0.4v1.1c-0.2,0.1-0.5,0.2-0.7,0.3C750,283.3,749.7,283.3,749.3,283.3z"/>
			<path class="st0" d="M754.6,282.3c0.3,0,0.6,0,0.9-0.1v1c-0.1,0.1-0.3,0.1-0.5,0.2s-0.5,0.1-0.7,0.1c-1.2,0-1.8-0.6-1.8-1.9v-3.2
				h-0.8v-0.6l0.9-0.5l0.4-1.3h0.8v1.3h1.7v1h-1.7v3.2c0,0.3,0.1,0.5,0.2,0.7C754.2,282.2,754.4,282.3,754.6,282.3z"/>
			<path class="st0" d="M762.1,280.2c0,1-0.3,1.8-0.8,2.3c-0.5,0.6-1.2,0.8-2.1,0.8c-0.6,0-1.1-0.1-1.5-0.4c-0.4-0.3-0.8-0.6-1-1.1
				c-0.2-0.5-0.3-1-0.3-1.7c0-1,0.3-1.7,0.8-2.3c0.5-0.5,1.2-0.8,2.1-0.8c0.9,0,1.6,0.3,2.1,0.8
				C761.9,278.5,762.1,279.2,762.1,280.2z M757.7,280.2c0,1.4,0.5,2.1,1.5,2.1c1,0,1.5-0.7,1.5-2.1c0-1.4-0.5-2.1-1.5-2.1
				c-0.5,0-0.9,0.2-1.2,0.5C757.9,279,757.7,279.5,757.7,280.2z"/>
			<path class="st0" d="M766.6,277.1c0.3,0,0.5,0,0.6,0.1l-0.1,1.2c-0.2,0-0.4-0.1-0.6-0.1c-0.5,0-0.9,0.2-1.2,0.5
				c-0.3,0.3-0.5,0.8-0.5,1.3v3.1h-1.3v-6h1l0.2,1.1h0.1c0.2-0.4,0.5-0.6,0.8-0.9C765.9,277.2,766.3,277.1,766.6,277.1z"/>
		</g>
	</g>
	<linearGradient id="SVGID_3_" gradientUnits="userSpaceOnUse" x1="606.7493" y1="273.315" x2="469.0974" y2="273.315">
		<stop  offset="0" style="stop-color:#5ABAF9"/>
		<stop  offset="1" style="stop-color:#2E4C99"/>
	</linearGradient>
	<path class="st7" d="M491,295.2h93.9c12.1,0,21.9-9.8,21.9-21.9v0c0-12.1-9.8-21.9-21.9-21.9H491c-12.1,0-21.9,9.8-21.9,21.9v0
		C469.1,285.4,478.9,295.2,491,295.2z"/>
	<g>
		<g>
			<path class="st0" d="M496.8,266.6v3.2h-1.3v-8h2.2c1,0,1.8,0.2,2.3,0.6c0.5,0.4,0.7,1,0.7,1.7c0,1-0.5,1.7-1.5,2.1l2.3,3.5H500
				l-1.9-3.2H496.8z M496.8,265.6h0.9c0.6,0,1-0.1,1.3-0.3c0.3-0.2,0.4-0.6,0.4-1c0-0.5-0.1-0.8-0.4-1c-0.3-0.2-0.7-0.3-1.3-0.3
				h-0.9V265.6z"/>
			<path class="st0" d="M505.1,269.9c-0.9,0-1.7-0.3-2.2-0.8c-0.5-0.5-0.8-1.3-0.8-2.3c0-1,0.2-1.8,0.7-2.3c0.5-0.6,1.2-0.8,2-0.8
				c0.8,0,1.4,0.2,1.9,0.7c0.5,0.5,0.7,1.1,0.7,2v0.7h-4c0,0.6,0.2,1,0.5,1.3c0.3,0.3,0.7,0.5,1.3,0.5c0.4,0,0.7,0,1-0.1
				c0.3-0.1,0.6-0.2,1-0.3v1c-0.3,0.1-0.6,0.3-0.9,0.3C505.9,269.9,505.5,269.9,505.1,269.9z M504.9,264.7c-0.4,0-0.7,0.1-1,0.4
				c-0.2,0.3-0.4,0.6-0.4,1.1h2.7c0-0.5-0.1-0.9-0.4-1.1C505.6,264.8,505.3,264.7,504.9,264.7z"/>
			<path class="st0" d="M514,269.8h-1.3v-3.7c0-0.5-0.1-0.8-0.3-1c-0.2-0.2-0.4-0.3-0.8-0.3c-0.5,0-0.9,0.2-1.1,0.5
				c-0.2,0.3-0.3,0.9-0.3,1.6v3h-1.3v-6h1l0.2,0.8h0.1c0.2-0.3,0.4-0.5,0.7-0.7s0.7-0.2,1-0.2c0.9,0,1.5,0.3,1.8,0.9h0.1
				c0.2-0.3,0.4-0.5,0.8-0.7c0.3-0.2,0.7-0.3,1.1-0.3c0.7,0,1.2,0.2,1.6,0.5c0.3,0.4,0.5,0.9,0.5,1.7v3.9h-1.3v-3.7
				c0-0.5-0.1-0.8-0.3-1c-0.2-0.2-0.4-0.3-0.8-0.3c-0.5,0-0.9,0.2-1.1,0.5c-0.2,0.3-0.3,0.8-0.3,1.4V269.8z"/>
			<path class="st0" d="M524.9,266.8c0,1-0.3,1.8-0.8,2.3c-0.5,0.6-1.2,0.8-2.1,0.8c-0.6,0-1.1-0.1-1.5-0.4c-0.4-0.3-0.8-0.6-1-1.1
				c-0.2-0.5-0.3-1-0.3-1.7c0-1,0.3-1.7,0.8-2.3c0.5-0.5,1.2-0.8,2.1-0.8c0.9,0,1.6,0.3,2.1,0.8
				C524.7,265.1,524.9,265.9,524.9,266.8z M520.5,266.8c0,1.4,0.5,2.1,1.5,2.1c1,0,1.5-0.7,1.5-2.1c0-1.4-0.5-2.1-1.5-2.1
				c-0.5,0-0.9,0.2-1.2,0.5C520.7,265.6,520.5,266.1,520.5,266.8z"/>
			<path class="st0" d="M527.8,269.8l-2.3-6h1.4l1.2,3.5c0.2,0.6,0.3,1.1,0.4,1.4h0c0-0.3,0.2-0.7,0.4-1.4l1.2-3.5h1.4l-2.3,6H527.8
				z"/>
			<path class="st0" d="M535,269.9c-0.9,0-1.7-0.3-2.2-0.8c-0.5-0.5-0.8-1.3-0.8-2.3c0-1,0.2-1.8,0.7-2.3c0.5-0.6,1.2-0.8,2-0.8
				c0.8,0,1.4,0.2,1.9,0.7c0.5,0.5,0.7,1.1,0.7,2v0.7h-4c0,0.6,0.2,1,0.5,1.3c0.3,0.3,0.7,0.5,1.3,0.5c0.4,0,0.7,0,1-0.1
				c0.3-0.1,0.6-0.2,1-0.3v1c-0.3,0.1-0.6,0.3-0.9,0.3C535.8,269.9,535.4,269.9,535,269.9z M534.8,264.7c-0.4,0-0.7,0.1-1,0.4
				c-0.2,0.3-0.4,0.6-0.4,1.1h2.7c0-0.5-0.1-0.9-0.4-1.1C535.5,264.8,535.2,264.7,534.8,264.7z"/>
			<path class="st0" d="M541.6,262.2c0-0.2,0.1-0.4,0.2-0.5c0.1-0.1,0.3-0.2,0.5-0.2c0.2,0,0.4,0.1,0.5,0.2s0.2,0.3,0.2,0.5
				c0,0.2-0.1,0.4-0.2,0.5c-0.1,0.1-0.3,0.2-0.5,0.2c-0.2,0-0.4-0.1-0.5-0.2C541.7,262.6,541.6,262.4,541.6,262.2z M543,269.8h-1.3
				v-6h1.3V269.8z"/>
			<path class="st0" d="M548.9,268.1c0,0.6-0.2,1-0.6,1.4c-0.4,0.3-1,0.5-1.8,0.5c-0.8,0-1.4-0.1-1.9-0.4v-1.1
				c0.7,0.3,1.4,0.5,2,0.5c0.8,0,1.2-0.2,1.2-0.7c0-0.2,0-0.3-0.1-0.4c-0.1-0.1-0.2-0.2-0.4-0.3c-0.2-0.1-0.5-0.2-0.8-0.4
				c-0.7-0.3-1.2-0.5-1.4-0.8c-0.2-0.3-0.4-0.6-0.4-1c0-0.5,0.2-0.9,0.6-1.2c0.4-0.3,1-0.4,1.7-0.4c0.7,0,1.4,0.1,2,0.4l-0.4,1
				c-0.6-0.3-1.2-0.4-1.6-0.4c-0.7,0-1,0.2-1,0.6c0,0.2,0.1,0.3,0.3,0.5c0.2,0.1,0.6,0.3,1.2,0.5c0.5,0.2,0.9,0.4,1.1,0.5
				c0.2,0.2,0.4,0.3,0.5,0.6C548.8,267.6,548.9,267.8,548.9,268.1z"/>
			<path class="st0" d="M554.3,268.1c0,0.6-0.2,1-0.6,1.4c-0.4,0.3-1,0.5-1.8,0.5c-0.8,0-1.4-0.1-1.9-0.4v-1.1
				c0.7,0.3,1.4,0.5,2,0.5c0.8,0,1.2-0.2,1.2-0.7c0-0.2,0-0.3-0.1-0.4c-0.1-0.1-0.2-0.2-0.4-0.3c-0.2-0.1-0.5-0.2-0.8-0.4
				c-0.7-0.3-1.2-0.5-1.4-0.8c-0.2-0.3-0.4-0.6-0.4-1c0-0.5,0.2-0.9,0.6-1.2s1-0.4,1.7-0.4c0.7,0,1.4,0.1,2,0.4l-0.4,1
				c-0.6-0.3-1.2-0.4-1.6-0.4c-0.7,0-1,0.2-1,0.6c0,0.2,0.1,0.3,0.3,0.5c0.2,0.1,0.6,0.3,1.2,0.5c0.5,0.2,0.9,0.4,1.1,0.5
				c0.2,0.2,0.4,0.3,0.5,0.6C554.2,267.6,554.3,267.8,554.3,268.1z"/>
			<path class="st0" d="M559.9,269.8l-0.2-0.8h-0.1c-0.2,0.3-0.4,0.5-0.8,0.7c-0.3,0.2-0.7,0.2-1.1,0.2c-0.7,0-1.3-0.2-1.6-0.5
				c-0.4-0.4-0.5-0.9-0.5-1.6v-3.9h1.3v3.7c0,0.5,0.1,0.8,0.3,1c0.2,0.2,0.5,0.3,0.9,0.3c0.5,0,0.9-0.2,1.2-0.5
				c0.3-0.3,0.4-0.9,0.4-1.6v-3h1.3v6H559.9z"/>
			<path class="st0" d="M565.4,269.9c-0.9,0-1.7-0.3-2.2-0.8c-0.5-0.5-0.8-1.3-0.8-2.3c0-1,0.2-1.8,0.7-2.3c0.5-0.6,1.2-0.8,2-0.8
				c0.8,0,1.4,0.2,1.9,0.7c0.5,0.5,0.7,1.1,0.7,2v0.7h-4c0,0.6,0.2,1,0.5,1.3c0.3,0.3,0.7,0.5,1.3,0.5c0.4,0,0.7,0,1-0.1
				c0.3-0.1,0.6-0.2,1-0.3v1c-0.3,0.1-0.6,0.3-0.9,0.3C566.2,269.9,565.8,269.9,565.4,269.9z M565.1,264.7c-0.4,0-0.7,0.1-1,0.4
				c-0.2,0.3-0.4,0.6-0.4,1.1h2.7c0-0.5-0.1-0.9-0.4-1.1C565.9,264.8,565.6,264.7,565.1,264.7z"/>
			<path class="st0" d="M572.2,263.7c0.3,0,0.5,0,0.6,0.1l-0.1,1.2c-0.2,0-0.4-0.1-0.6-0.1c-0.5,0-0.9,0.2-1.2,0.5
				c-0.3,0.3-0.5,0.8-0.5,1.3v3.1h-1.3v-6h1l0.2,1.1h0.1c0.2-0.4,0.5-0.6,0.8-0.9C571.5,263.8,571.9,263.7,572.2,263.7z"/>
			<path class="st0" d="M578,268.1c0,0.6-0.2,1-0.6,1.4c-0.4,0.3-1,0.5-1.8,0.5c-0.8,0-1.4-0.1-1.9-0.4v-1.1c0.7,0.3,1.4,0.5,2,0.5
				c0.8,0,1.2-0.2,1.2-0.7c0-0.2,0-0.3-0.1-0.4c-0.1-0.1-0.2-0.2-0.4-0.3c-0.2-0.1-0.5-0.2-0.8-0.4c-0.7-0.3-1.2-0.5-1.4-0.8
				c-0.2-0.3-0.4-0.6-0.4-1c0-0.5,0.2-0.9,0.6-1.2c0.4-0.3,1-0.4,1.7-0.4c0.7,0,1.4,0.1,2,0.4l-0.4,1c-0.6-0.3-1.2-0.4-1.6-0.4
				c-0.7,0-1,0.2-1,0.6c0,0.2,0.1,0.3,0.3,0.5c0.2,0.1,0.6,0.3,1.2,0.5c0.5,0.2,0.9,0.4,1.1,0.5c0.2,0.2,0.4,0.3,0.5,0.6
				C578,267.6,578,267.8,578,268.1z"/>
			<path class="st0" d="M483.3,283.2l-0.8-2.8c-0.1-0.3-0.3-1-0.5-2.1h0c-0.2,1-0.4,1.7-0.5,2.1l-0.8,2.8h-1.4l-1.7-6h1.3l0.8,3
				c0.2,0.7,0.3,1.4,0.4,1.9h0c0-0.3,0.1-0.6,0.2-0.9c0.1-0.3,0.1-0.6,0.2-0.8l0.9-3.2h1.4l0.9,3.2c0.1,0.2,0.1,0.5,0.2,0.8
				c0.1,0.4,0.1,0.7,0.1,0.9h0c0.1-0.4,0.2-1.1,0.4-1.9l0.8-3h1.3l-1.7,6H483.3z"/>
			<path class="st0" d="M487.4,275.6c0-0.2,0.1-0.4,0.2-0.5c0.1-0.1,0.3-0.2,0.5-0.2c0.2,0,0.4,0.1,0.5,0.2c0.1,0.1,0.2,0.3,0.2,0.5
				c0,0.2-0.1,0.4-0.2,0.5c-0.1,0.1-0.3,0.2-0.5,0.2c-0.2,0-0.4-0.1-0.5-0.2C487.5,276,487.4,275.8,487.4,275.6z M488.8,283.2h-1.3
				v-6h1.3V283.2z"/>
			<path class="st0" d="M492.9,282.3c0.3,0,0.6,0,0.9-0.1v1c-0.1,0.1-0.3,0.1-0.5,0.2c-0.2,0-0.5,0.1-0.7,0.1
				c-1.2,0-1.8-0.6-1.8-1.9v-3.2h-0.8v-0.6l0.9-0.5l0.4-1.3h0.8v1.3h1.7v1H492v3.2c0,0.3,0.1,0.5,0.2,0.7
				C492.4,282.2,492.6,282.3,492.9,282.3z"/>
			<path class="st0" d="M500.3,283.2H499v-3.7c0-0.5-0.1-0.8-0.3-1c-0.2-0.2-0.5-0.3-0.9-0.3c-0.5,0-0.9,0.2-1.2,0.5
				c-0.3,0.3-0.4,0.9-0.4,1.6v3H495v-8.5h1.3v2.2c0,0.3,0,0.7-0.1,1.1h0.1c0.2-0.3,0.4-0.5,0.7-0.7c0.3-0.2,0.7-0.2,1.1-0.2
				c1.5,0,2.2,0.7,2.2,2.2V283.2z"/>
			<path class="st0" d="M510.3,283.2H509v-3.7c0-0.5-0.1-0.8-0.3-1c-0.2-0.2-0.5-0.3-0.9-0.3c-0.5,0-0.9,0.2-1.2,0.5
				c-0.3,0.3-0.4,0.9-0.4,1.6v3H505v-8.5h1.3v2.2c0,0.3,0,0.7-0.1,1.1h0.1c0.2-0.3,0.4-0.5,0.7-0.7c0.3-0.2,0.7-0.2,1.1-0.2
				c1.5,0,2.2,0.7,2.2,2.2V283.2z"/>
			<path class="st0" d="M512,275.6c0-0.2,0.1-0.4,0.2-0.5c0.1-0.1,0.3-0.2,0.5-0.2c0.2,0,0.4,0.1,0.5,0.2c0.1,0.1,0.2,0.3,0.2,0.5
				c0,0.2-0.1,0.4-0.2,0.5c-0.1,0.1-0.3,0.2-0.5,0.2c-0.2,0-0.4-0.1-0.5-0.2C512.1,276,512,275.8,512,275.6z M513.4,283.2h-1.3v-6
				h1.3V283.2z"/>
			<path class="st0" d="M520.3,277.2v0.7l-1,0.2c0.1,0.1,0.2,0.3,0.2,0.5c0.1,0.2,0.1,0.4,0.1,0.6c0,0.6-0.2,1.1-0.6,1.5
				s-1,0.5-1.8,0.5c-0.2,0-0.4,0-0.5,0c-0.3,0.2-0.4,0.4-0.4,0.6c0,0.1,0.1,0.2,0.2,0.3c0.1,0.1,0.4,0.1,0.7,0.1h1.1
				c0.7,0,1.2,0.1,1.5,0.4c0.3,0.3,0.5,0.7,0.5,1.2c0,0.7-0.3,1.2-0.8,1.6c-0.6,0.4-1.4,0.6-2.4,0.6c-0.8,0-1.4-0.1-1.9-0.4
				c-0.4-0.3-0.6-0.7-0.6-1.2c0-0.4,0.1-0.7,0.4-0.9c0.2-0.3,0.6-0.4,1-0.5c-0.2-0.1-0.3-0.2-0.4-0.4c-0.1-0.2-0.2-0.3-0.2-0.5
				c0-0.2,0.1-0.4,0.2-0.6s0.3-0.3,0.6-0.5c-0.3-0.1-0.6-0.4-0.8-0.7c-0.2-0.3-0.3-0.7-0.3-1.1c0-0.7,0.2-1.2,0.6-1.5
				c0.4-0.4,1-0.5,1.8-0.5c0.2,0,0.4,0,0.5,0c0.2,0,0.3,0,0.4,0.1H520.3z M515.5,284.2c0,0.3,0.1,0.5,0.4,0.6c0.2,0.1,0.6,0.2,1,0.2
				c0.7,0,1.2-0.1,1.6-0.3c0.3-0.2,0.5-0.5,0.5-0.8c0-0.3-0.1-0.4-0.3-0.6c-0.2-0.1-0.5-0.2-1-0.2h-1c-0.4,0-0.7,0.1-0.9,0.3
				C515.7,283.6,515.5,283.9,515.5,284.2z M516.1,279.1c0,0.4,0.1,0.7,0.3,0.9c0.2,0.2,0.5,0.3,0.8,0.3c0.7,0,1.1-0.4,1.1-1.2
				c0-0.4-0.1-0.7-0.3-0.9c-0.2-0.2-0.5-0.3-0.8-0.3c-0.4,0-0.6,0.1-0.8,0.3C516.2,278.4,516.1,278.7,516.1,279.1z"/>
			<path class="st0" d="M526.7,283.2h-1.3v-3.7c0-0.5-0.1-0.8-0.3-1s-0.5-0.3-0.9-0.3c-0.5,0-0.9,0.2-1.2,0.5
				c-0.3,0.3-0.4,0.9-0.4,1.6v3h-1.3v-8.5h1.3v2.2c0,0.3,0,0.7-0.1,1.1h0.1c0.2-0.3,0.4-0.5,0.7-0.7c0.3-0.2,0.7-0.2,1.1-0.2
				c1.5,0,2.2,0.7,2.2,2.2V283.2z"/>
			<path class="st0" d="M531.1,283.3c-0.9,0-1.7-0.3-2.2-0.8c-0.5-0.5-0.8-1.3-0.8-2.3c0-1,0.2-1.8,0.7-2.3c0.5-0.6,1.2-0.8,2-0.8
				c0.8,0,1.4,0.2,1.9,0.7c0.5,0.5,0.7,1.1,0.7,2v0.7h-4c0,0.6,0.2,1,0.5,1.3c0.3,0.3,0.7,0.5,1.3,0.5c0.4,0,0.7,0,1-0.1
				c0.3-0.1,0.6-0.2,1-0.3v1c-0.3,0.1-0.6,0.3-0.9,0.3C531.9,283.3,531.5,283.3,531.1,283.3z M530.9,278.1c-0.4,0-0.7,0.1-1,0.4
				c-0.2,0.3-0.4,0.6-0.4,1.1h2.7c0-0.5-0.1-0.9-0.4-1.1C531.6,278.2,531.3,278.1,530.9,278.1z"/>
			<path class="st0" d="M539,281.5c0,0.6-0.2,1-0.6,1.4c-0.4,0.3-1,0.5-1.8,0.5c-0.8,0-1.4-0.1-1.9-0.4v-1.1c0.7,0.3,1.4,0.5,2,0.5
				c0.8,0,1.2-0.2,1.2-0.7c0-0.2,0-0.3-0.1-0.4c-0.1-0.1-0.2-0.2-0.4-0.3c-0.2-0.1-0.5-0.2-0.8-0.4c-0.7-0.3-1.2-0.5-1.4-0.8
				c-0.2-0.3-0.4-0.6-0.4-1c0-0.5,0.2-0.9,0.6-1.2c0.4-0.3,1-0.4,1.7-0.4c0.7,0,1.4,0.1,2,0.4l-0.4,1c-0.6-0.3-1.2-0.4-1.6-0.4
				c-0.7,0-1,0.2-1,0.6c0,0.2,0.1,0.3,0.3,0.5c0.2,0.1,0.6,0.3,1.2,0.5c0.5,0.2,0.9,0.4,1.1,0.5c0.2,0.2,0.4,0.3,0.5,0.6
				C538.9,281,539,281.2,539,281.5z"/>
			<path class="st0" d="M542.6,282.3c0.3,0,0.6,0,0.9-0.1v1c-0.1,0.1-0.3,0.1-0.5,0.2c-0.2,0-0.5,0.1-0.7,0.1
				c-1.2,0-1.8-0.6-1.8-1.9v-3.2h-0.8v-0.6l0.9-0.5l0.4-1.3h0.8v1.3h1.7v1h-1.7v3.2c0,0.3,0.1,0.5,0.2,0.7
				C542.1,282.2,542.3,282.3,542.6,282.3z"/>
			<path class="st0" d="M554,283.2h-1.3v-3.6h-3.7v3.6h-1.3v-8h1.3v3.3h3.7v-3.3h1.3V283.2z"/>
			<path class="st0" d="M557.4,283.2h-1.3v-8h4.5v1.1h-3.2v2.5h3v1.1h-3V283.2z"/>
			<path class="st0" d="M568.9,281.5c0,0.6-0.2,1-0.6,1.4c-0.4,0.3-1,0.5-1.8,0.5c-0.8,0-1.4-0.1-1.9-0.4v-1.1
				c0.7,0.3,1.4,0.5,2,0.5c0.8,0,1.2-0.2,1.2-0.7c0-0.2,0-0.3-0.1-0.4c-0.1-0.1-0.2-0.2-0.4-0.3c-0.2-0.1-0.5-0.2-0.8-0.4
				c-0.7-0.3-1.2-0.5-1.4-0.8c-0.2-0.3-0.4-0.6-0.4-1c0-0.5,0.2-0.9,0.6-1.2c0.4-0.3,1-0.4,1.7-0.4c0.7,0,1.4,0.1,2,0.4l-0.4,1
				c-0.6-0.3-1.2-0.4-1.6-0.4c-0.7,0-1,0.2-1,0.6c0,0.2,0.1,0.3,0.3,0.5c0.2,0.1,0.6,0.3,1.2,0.5c0.5,0.2,0.9,0.4,1.1,0.5
				c0.2,0.2,0.4,0.3,0.5,0.6C568.8,281,568.9,281.2,568.9,281.5z"/>
			<path class="st0" d="M572.7,283.3c-0.9,0-1.6-0.3-2.1-0.8c-0.5-0.5-0.7-1.3-0.7-2.3c0-1,0.2-1.8,0.7-2.3c0.5-0.5,1.2-0.8,2.1-0.8
				c0.6,0,1.2,0.1,1.7,0.4l-0.4,1c-0.5-0.2-1-0.3-1.3-0.3c-1,0-1.6,0.7-1.6,2.1c0,0.7,0.1,1.2,0.4,1.5c0.3,0.3,0.6,0.5,1.1,0.5
				c0.6,0,1.1-0.1,1.6-0.4v1.1c-0.2,0.1-0.5,0.2-0.7,0.3C573.4,283.3,573.1,283.3,572.7,283.3z"/>
			<path class="st0" d="M581.1,280.2c0,1-0.3,1.8-0.8,2.3c-0.5,0.6-1.2,0.8-2.1,0.8c-0.6,0-1.1-0.1-1.5-0.4c-0.4-0.3-0.8-0.6-1-1.1
				c-0.2-0.5-0.3-1-0.3-1.7c0-1,0.3-1.7,0.8-2.3c0.5-0.5,1.2-0.8,2.1-0.8c0.9,0,1.6,0.3,2.1,0.8
				C580.9,278.5,581.1,279.2,581.1,280.2z M576.7,280.2c0,1.4,0.5,2.1,1.5,2.1c1,0,1.5-0.7,1.5-2.1c0-1.4-0.5-2.1-1.5-2.1
				c-0.5,0-0.9,0.2-1.2,0.5C576.9,279,576.7,279.5,576.7,280.2z"/>
			<path class="st0" d="M585.7,277.1c0.3,0,0.5,0,0.6,0.1l-0.1,1.2c-0.2,0-0.4-0.1-0.6-0.1c-0.5,0-0.9,0.2-1.2,0.5
				c-0.3,0.3-0.5,0.8-0.5,1.3v3.1h-1.3v-6h1l0.2,1.1h0.1c0.2-0.4,0.5-0.6,0.8-0.9C584.9,277.2,585.3,277.1,585.7,277.1z"/>
			<path class="st0" d="M590,283.3c-0.9,0-1.7-0.3-2.2-0.8s-0.8-1.3-0.8-2.3c0-1,0.2-1.8,0.7-2.3c0.5-0.6,1.2-0.8,2-0.8
				c0.8,0,1.4,0.2,1.9,0.7c0.5,0.5,0.7,1.1,0.7,2v0.7h-4c0,0.6,0.2,1,0.5,1.3c0.3,0.3,0.7,0.5,1.3,0.5c0.4,0,0.7,0,1-0.1
				c0.3-0.1,0.6-0.2,1-0.3v1c-0.3,0.1-0.6,0.3-0.9,0.3C590.8,283.3,590.5,283.3,590,283.3z M589.8,278.1c-0.4,0-0.7,0.1-1,0.4
				s-0.4,0.6-0.4,1.1h2.7c0-0.5-0.1-0.9-0.4-1.1C590.5,278.2,590.2,278.1,589.8,278.1z"/>
			<path class="st0" d="M597.9,281.5c0,0.6-0.2,1-0.6,1.4c-0.4,0.3-1,0.5-1.8,0.5c-0.8,0-1.4-0.1-1.9-0.4v-1.1
				c0.7,0.3,1.4,0.5,2,0.5c0.8,0,1.2-0.2,1.2-0.7c0-0.2,0-0.3-0.1-0.4c-0.1-0.1-0.2-0.2-0.4-0.3s-0.5-0.2-0.8-0.4
				c-0.7-0.3-1.2-0.5-1.4-0.8c-0.2-0.3-0.4-0.6-0.4-1c0-0.5,0.2-0.9,0.6-1.2c0.4-0.3,1-0.4,1.7-0.4c0.7,0,1.4,0.1,2,0.4l-0.4,1
				c-0.6-0.3-1.2-0.4-1.6-0.4c-0.7,0-1,0.2-1,0.6c0,0.2,0.1,0.3,0.3,0.5c0.2,0.1,0.6,0.3,1.2,0.5c0.5,0.2,0.9,0.4,1.1,0.5
				c0.2,0.2,0.4,0.3,0.5,0.6C597.8,281,597.9,281.2,597.9,281.5z"/>
		</g>
	</g>
	<linearGradient id="SVGID_4_" gradientUnits="userSpaceOnUse" x1="778.6495" y1="327.8156" x2="641.976" y2="327.8156">
		<stop  offset="0" style="stop-color:#5ABAF9"/>
		<stop  offset="1" style="stop-color:#2E4C99"/>
	</linearGradient>
	<path class="st8" d="M663.8,349.7h93c12.1,0,21.9-9.8,21.9-21.9v0c0-12.1-9.8-21.9-21.9-21.9h-93c-12.1,0-21.9,9.8-21.9,21.9v0
		C642,339.9,651.8,349.7,663.8,349.7z"/>
	<g>
		<g>
			<path class="st0" d="M660.7,328.7l4-1.6l-4-1.9v-1.1l5.3,2.7v0.7l-5.3,2.3V328.7z"/>
			<path class="st0" d="M672.4,326.5c0,1.6-0.3,2.7-0.9,3.5c-0.6,0.8-1.6,1.2-2.9,1.2c-0.5,0-0.8,0-1-0.1V330c0.3,0.1,0.6,0.1,1,0.1
				c0.9,0,1.5-0.2,1.9-0.7c0.4-0.5,0.7-1.2,0.7-2.2h-0.1c-0.2,0.3-0.5,0.6-0.8,0.7c-0.3,0.1-0.7,0.2-1.1,0.2c-0.7,0-1.3-0.2-1.7-0.7
				c-0.4-0.4-0.6-1-0.6-1.8c0-0.8,0.2-1.5,0.7-2c0.5-0.5,1.1-0.7,1.9-0.7c0.6,0,1.1,0.1,1.5,0.4c0.4,0.3,0.7,0.7,1,1.2
				C672.3,325.1,672.4,325.7,672.4,326.5z M669.6,324c-0.4,0-0.8,0.1-1,0.4c-0.2,0.3-0.4,0.7-0.4,1.2c0,0.5,0.1,0.8,0.3,1.1
				c0.2,0.3,0.6,0.4,1,0.4c0.4,0,0.8-0.1,1.1-0.4s0.4-0.6,0.4-0.9c0-0.3-0.1-0.6-0.2-0.9c-0.1-0.3-0.3-0.5-0.5-0.7
				C670.1,324.1,669.9,324,669.6,324z"/>
			<path class="st0" d="M678.8,327c0,1.4-0.2,2.4-0.7,3.1c-0.4,0.7-1.1,1-2,1c-0.9,0-1.6-0.3-2-1c-0.5-0.7-0.7-1.7-0.7-3.1
				c0-1.4,0.2-2.4,0.7-3.1c0.4-0.7,1.1-1,2-1c0.9,0,1.6,0.3,2,1C678.5,324.7,678.8,325.7,678.8,327z M674.6,327
				c0,1.1,0.1,1.9,0.3,2.3c0.2,0.5,0.6,0.7,1.1,0.7c0.5,0,0.8-0.2,1.1-0.7c0.2-0.5,0.3-1.2,0.3-2.3c0-1.1-0.1-1.8-0.3-2.3
				c-0.2-0.5-0.6-0.7-1.1-0.7c-0.5,0-0.8,0.2-1.1,0.7S674.6,326,674.6,327z"/>
			<path class="st0" d="M687.3,331l-0.2-0.8h-0.1c-0.2,0.3-0.4,0.5-0.8,0.7c-0.3,0.2-0.7,0.2-1.1,0.2c-0.7,0-1.3-0.2-1.6-0.5
				c-0.4-0.4-0.5-0.9-0.5-1.6V325h1.3v3.7c0,0.5,0.1,0.8,0.3,1c0.2,0.2,0.5,0.3,0.9,0.3c0.5,0,0.9-0.2,1.2-0.5
				c0.3-0.3,0.4-0.9,0.4-1.6v-3h1.3v6H687.3z"/>
			<path class="st0" d="M695.4,331h-1.3v-3.7c0-0.5-0.1-0.8-0.3-1c-0.2-0.2-0.5-0.3-0.9-0.3c-0.5,0-0.9,0.2-1.2,0.5
				c-0.3,0.3-0.4,0.9-0.4,1.6v3h-1.3v-6h1l0.2,0.8h0.1c0.2-0.3,0.4-0.5,0.8-0.7c0.3-0.2,0.7-0.2,1.1-0.2c1.4,0,2.2,0.7,2.2,2.2V331z
				"/>
			<path class="st0" d="M697.1,323.4c0-0.2,0.1-0.4,0.2-0.5c0.1-0.1,0.3-0.2,0.5-0.2c0.2,0,0.4,0.1,0.5,0.2c0.1,0.1,0.2,0.3,0.2,0.5
				c0,0.2-0.1,0.4-0.2,0.5c-0.1,0.1-0.3,0.2-0.5,0.2c-0.2,0-0.4-0.1-0.5-0.2C697.2,323.8,697.1,323.6,697.1,323.4z M698.5,331h-1.3
				v-6h1.3V331z"/>
			<path class="st0" d="M702.3,331.1c-0.7,0-1.3-0.3-1.7-0.8c-0.4-0.5-0.6-1.3-0.6-2.3c0-1,0.2-1.7,0.6-2.3c0.4-0.6,1-0.8,1.8-0.8
				c0.4,0,0.7,0.1,1,0.2c0.3,0.1,0.6,0.4,0.8,0.7h0l0.1-0.8h1.1v8.7h-1.3v-2.6c0-0.2,0-0.3,0-0.5c0-0.2,0-0.3,0-0.4h-0.1
				C703.8,330.8,703.2,331.1,702.3,331.1z M702.7,330.1c0.5,0,0.9-0.2,1.2-0.5c0.2-0.3,0.4-0.8,0.4-1.4V328c0-0.7-0.1-1.3-0.4-1.6
				c-0.2-0.3-0.6-0.5-1.2-0.5c-0.5,0-0.8,0.2-1,0.5c-0.2,0.4-0.4,0.9-0.4,1.6C701.3,329.4,701.8,330.1,702.7,330.1z"/>
			<path class="st0" d="M711.5,331l-0.2-0.8h-0.1c-0.2,0.3-0.4,0.5-0.8,0.7c-0.3,0.2-0.7,0.2-1.1,0.2c-0.7,0-1.3-0.2-1.6-0.5
				c-0.4-0.4-0.5-0.9-0.5-1.6V325h1.3v3.7c0,0.5,0.1,0.8,0.3,1c0.2,0.2,0.5,0.3,0.9,0.3c0.5,0,0.9-0.2,1.2-0.5
				c0.3-0.3,0.4-0.9,0.4-1.6v-3h1.3v6H711.5z"/>
			<path class="st0" d="M717,331.1c-0.9,0-1.7-0.3-2.2-0.8c-0.5-0.5-0.8-1.3-0.8-2.3c0-1,0.2-1.8,0.7-2.3c0.5-0.6,1.2-0.8,2-0.8
				c0.8,0,1.4,0.2,1.9,0.7c0.5,0.5,0.7,1.1,0.7,2v0.7h-4c0,0.6,0.2,1,0.5,1.3c0.3,0.3,0.7,0.5,1.3,0.5c0.4,0,0.7,0,1-0.1
				c0.3-0.1,0.6-0.2,1-0.3v1c-0.3,0.1-0.6,0.3-0.9,0.3C717.8,331.1,717.4,331.1,717,331.1z M716.8,325.9c-0.4,0-0.7,0.1-1,0.4
				c-0.2,0.3-0.4,0.6-0.4,1.1h2.7c0-0.5-0.1-0.9-0.4-1.1C717.5,326,717.2,325.9,716.8,325.9z"/>
			<path class="st0" d="M723.6,323.4c0-0.2,0.1-0.4,0.2-0.5c0.1-0.1,0.3-0.2,0.5-0.2c0.2,0,0.4,0.1,0.5,0.2c0.1,0.1,0.2,0.3,0.2,0.5
				c0,0.2-0.1,0.4-0.2,0.5c-0.1,0.1-0.3,0.2-0.5,0.2c-0.2,0-0.4-0.1-0.5-0.2S723.6,323.6,723.6,323.4z M725,331h-1.3v-6h1.3V331z"/>
			<path class="st0" d="M730.8,329.3c0,0.6-0.2,1-0.6,1.4c-0.4,0.3-1,0.5-1.8,0.5c-0.8,0-1.4-0.1-1.9-0.4v-1.1
				c0.7,0.3,1.4,0.5,2,0.5c0.8,0,1.2-0.2,1.2-0.7c0-0.2,0-0.3-0.1-0.4c-0.1-0.1-0.2-0.2-0.4-0.3c-0.2-0.1-0.5-0.2-0.8-0.4
				c-0.7-0.3-1.2-0.5-1.4-0.8c-0.2-0.3-0.4-0.6-0.4-1c0-0.5,0.2-0.9,0.6-1.2c0.4-0.3,1-0.4,1.7-0.4c0.7,0,1.4,0.1,2,0.4l-0.4,1
				c-0.6-0.3-1.2-0.4-1.6-0.4c-0.7,0-1,0.2-1,0.6c0,0.2,0.1,0.3,0.3,0.5c0.2,0.1,0.6,0.3,1.2,0.5c0.5,0.2,0.9,0.4,1.1,0.5
				c0.2,0.2,0.4,0.3,0.5,0.6C730.8,328.8,730.8,329,730.8,329.3z"/>
			<path class="st0" d="M736.3,329.3c0,0.6-0.2,1-0.6,1.4c-0.4,0.3-1,0.5-1.8,0.5c-0.8,0-1.4-0.1-1.9-0.4v-1.1
				c0.7,0.3,1.4,0.5,2,0.5c0.8,0,1.2-0.2,1.2-0.7c0-0.2,0-0.3-0.1-0.4c-0.1-0.1-0.2-0.2-0.4-0.3c-0.2-0.1-0.5-0.2-0.8-0.4
				c-0.7-0.3-1.2-0.5-1.4-0.8c-0.2-0.3-0.4-0.6-0.4-1c0-0.5,0.2-0.9,0.6-1.2c0.4-0.3,1-0.4,1.7-0.4c0.7,0,1.4,0.1,2,0.4l-0.4,1
				c-0.6-0.3-1.2-0.4-1.6-0.4c-0.7,0-1,0.2-1,0.6c0,0.2,0.1,0.3,0.3,0.5c0.2,0.1,0.6,0.3,1.2,0.5c0.5,0.2,0.9,0.4,1.1,0.5
				c0.2,0.2,0.4,0.3,0.5,0.6C736.2,328.8,736.3,329,736.3,329.3z"/>
			<path class="st0" d="M741.9,331l-0.2-0.8h-0.1c-0.2,0.3-0.4,0.5-0.8,0.7c-0.3,0.2-0.7,0.2-1.1,0.2c-0.7,0-1.3-0.2-1.6-0.5
				c-0.4-0.4-0.5-0.9-0.5-1.6V325h1.3v3.7c0,0.5,0.1,0.8,0.3,1c0.2,0.2,0.5,0.3,0.9,0.3c0.5,0,0.9-0.2,1.2-0.5
				c0.3-0.3,0.4-0.9,0.4-1.6v-3h1.3v6H741.9z"/>
			<path class="st0" d="M747.4,331.1c-0.9,0-1.7-0.3-2.2-0.8c-0.5-0.5-0.8-1.3-0.8-2.3c0-1,0.2-1.8,0.7-2.3c0.5-0.6,1.2-0.8,2-0.8
				c0.8,0,1.4,0.2,1.9,0.7c0.5,0.5,0.7,1.1,0.7,2v0.7h-4c0,0.6,0.2,1,0.5,1.3c0.3,0.3,0.7,0.5,1.3,0.5c0.4,0,0.7,0,1-0.1
				c0.3-0.1,0.6-0.2,1-0.3v1c-0.3,0.1-0.6,0.3-0.9,0.3C748.1,331.1,747.8,331.1,747.4,331.1z M747.1,325.9c-0.4,0-0.7,0.1-1,0.4
				c-0.2,0.3-0.4,0.6-0.4,1.1h2.7c0-0.5-0.1-0.9-0.4-1.1C747.9,326,747.5,325.9,747.1,325.9z"/>
			<path class="st0" d="M754.2,324.9c0.3,0,0.5,0,0.6,0.1l-0.1,1.2c-0.2,0-0.4-0.1-0.6-0.1c-0.5,0-0.9,0.2-1.2,0.5
				c-0.3,0.3-0.5,0.8-0.5,1.3v3.1h-1.3v-6h1l0.2,1.1h0.1c0.2-0.4,0.5-0.6,0.8-0.9C753.5,325,753.9,324.9,754.2,324.9z"/>
			<path class="st0" d="M760,329.3c0,0.6-0.2,1-0.6,1.4c-0.4,0.3-1,0.5-1.8,0.5c-0.8,0-1.4-0.1-1.9-0.4v-1.1c0.7,0.3,1.4,0.5,2,0.5
				c0.8,0,1.2-0.2,1.2-0.7c0-0.2,0-0.3-0.1-0.4c-0.1-0.1-0.2-0.2-0.4-0.3c-0.2-0.1-0.5-0.2-0.8-0.4c-0.7-0.3-1.2-0.5-1.4-0.8
				c-0.2-0.3-0.4-0.6-0.4-1c0-0.5,0.2-0.9,0.6-1.2c0.4-0.3,1-0.4,1.7-0.4c0.7,0,1.4,0.1,2,0.4l-0.4,1c-0.6-0.3-1.2-0.4-1.6-0.4
				c-0.7,0-1,0.2-1,0.6c0,0.2,0.1,0.3,0.3,0.5c0.2,0.1,0.6,0.3,1.2,0.5c0.5,0.2,0.9,0.4,1.1,0.5c0.2,0.2,0.4,0.3,0.5,0.6
				C760,328.8,760,329,760,329.3z"/>
		</g>
	</g>
	<linearGradient id="SVGID_5_" gradientUnits="userSpaceOnUse" x1="778.6495" y1="382.3161" x2="641.976" y2="382.3161">
		<stop  offset="0" style="stop-color:#5ABAF9"/>
		<stop  offset="1" style="stop-color:#2E4C99"/>
	</linearGradient>
	<path class="st9" d="M663.8,404.2h93c12.1,0,21.9-9.8,21.9-21.9v0c0-12.1-9.8-21.9-21.9-21.9h-93c-12.1,0-21.9,9.8-21.9,21.9v0
		C642,394.4,651.8,404.2,663.8,404.2z"/>
	<g>
		<g>
			<path class="st0" d="M657.2,385.5v-8h1.3v6.8h3.4v1.1H657.2z"/>
			<path class="st0" d="M663.1,377.9c0-0.2,0.1-0.4,0.2-0.5c0.1-0.1,0.3-0.2,0.5-0.2c0.2,0,0.4,0.1,0.5,0.2c0.1,0.1,0.2,0.3,0.2,0.5
				c0,0.2-0.1,0.4-0.2,0.5c-0.1,0.1-0.3,0.2-0.5,0.2c-0.2,0-0.4-0.1-0.5-0.2C663.1,378.3,663.1,378.1,663.1,377.9z M664.4,385.5
				h-1.3v-6h1.3V385.5z"/>
			<path class="st0" d="M671.3,385.5H670v-3.7c0-0.5-0.1-0.8-0.3-1c-0.2-0.2-0.4-0.3-0.8-0.3c-0.5,0-0.9,0.2-1.1,0.5
				c-0.2,0.3-0.3,0.9-0.3,1.6v3h-1.3v-6h1l0.2,0.8h0.1c0.2-0.3,0.4-0.5,0.7-0.7c0.3-0.2,0.7-0.2,1-0.2c0.9,0,1.5,0.3,1.8,0.9h0.1
				c0.2-0.3,0.4-0.5,0.8-0.7c0.3-0.2,0.7-0.3,1.1-0.3c0.7,0,1.2,0.2,1.6,0.5c0.3,0.4,0.5,0.9,0.5,1.7v3.9h-1.3v-3.7
				c0-0.5-0.1-0.8-0.3-1c-0.2-0.2-0.4-0.3-0.8-0.3c-0.5,0-0.9,0.2-1.1,0.5c-0.2,0.3-0.3,0.8-0.3,1.4V385.5z"/>
			<path class="st0" d="M676.8,377.9c0-0.2,0.1-0.4,0.2-0.5c0.1-0.1,0.3-0.2,0.5-0.2c0.2,0,0.4,0.1,0.5,0.2c0.1,0.1,0.2,0.3,0.2,0.5
				c0,0.2-0.1,0.4-0.2,0.5c-0.1,0.1-0.3,0.2-0.5,0.2c-0.2,0-0.4-0.1-0.5-0.2C676.9,378.3,676.8,378.1,676.8,377.9z M678.2,385.5
				h-1.3v-6h1.3V385.5z"/>
			<path class="st0" d="M682.3,384.6c0.3,0,0.6,0,0.9-0.1v1c-0.1,0.1-0.3,0.1-0.5,0.2s-0.5,0.1-0.7,0.1c-1.2,0-1.8-0.6-1.8-1.9v-3.2
				h-0.8v-0.6l0.9-0.5l0.4-1.3h0.8v1.3h1.7v1h-1.7v3.2c0,0.3,0.1,0.5,0.2,0.7C681.8,384.5,682,384.6,682.3,384.6z"/>
			<path class="st0" d="M691.4,383.8c0,0.6-0.2,1-0.6,1.4c-0.4,0.3-1,0.5-1.8,0.5c-0.8,0-1.4-0.1-1.9-0.4v-1.1
				c0.7,0.3,1.4,0.5,2,0.5c0.8,0,1.2-0.2,1.2-0.7c0-0.2,0-0.3-0.1-0.4c-0.1-0.1-0.2-0.2-0.4-0.3c-0.2-0.1-0.5-0.2-0.8-0.4
				c-0.7-0.3-1.2-0.5-1.4-0.8c-0.2-0.3-0.4-0.6-0.4-1c0-0.5,0.2-0.9,0.6-1.2c0.4-0.3,1-0.4,1.7-0.4c0.7,0,1.4,0.1,2,0.4l-0.4,1
				c-0.6-0.3-1.2-0.4-1.6-0.4c-0.7,0-1,0.2-1,0.6c0,0.2,0.1,0.3,0.3,0.5c0.2,0.1,0.6,0.3,1.2,0.5c0.5,0.2,0.9,0.4,1.1,0.5
				c0.2,0.2,0.4,0.3,0.5,0.6C691.3,383.3,691.4,383.5,691.4,383.8z"/>
			<path class="st0" d="M695.4,385.6c-0.9,0-1.7-0.3-2.2-0.8c-0.5-0.5-0.8-1.3-0.8-2.3c0-1,0.2-1.8,0.7-2.3c0.5-0.6,1.2-0.8,2-0.8
				c0.8,0,1.4,0.2,1.9,0.7c0.5,0.5,0.7,1.1,0.7,2v0.7h-4c0,0.6,0.2,1,0.5,1.3c0.3,0.3,0.7,0.5,1.3,0.5c0.4,0,0.7,0,1-0.1
				c0.3-0.1,0.6-0.2,1-0.3v1c-0.3,0.1-0.6,0.3-0.9,0.3C696.2,385.6,695.8,385.6,695.4,385.6z M695.1,380.4c-0.4,0-0.7,0.1-1,0.4
				c-0.2,0.3-0.4,0.6-0.4,1.1h2.7c0-0.5-0.1-0.9-0.4-1.1C695.9,380.5,695.5,380.4,695.1,380.4z"/>
			<path class="st0" d="M701.6,385.6c-0.9,0-1.6-0.3-2.1-0.8c-0.5-0.5-0.7-1.3-0.7-2.3c0-1,0.2-1.8,0.7-2.3c0.5-0.5,1.2-0.8,2.1-0.8
				c0.6,0,1.2,0.1,1.7,0.4l-0.4,1c-0.5-0.2-1-0.3-1.3-0.3c-1,0-1.6,0.7-1.6,2.1c0,0.7,0.1,1.2,0.4,1.5c0.3,0.3,0.6,0.5,1.1,0.5
				c0.6,0,1.1-0.1,1.6-0.4v1.1c-0.2,0.1-0.5,0.2-0.7,0.3C702.3,385.6,702,385.6,701.6,385.6z"/>
			<path class="st0" d="M706.9,384.6c0.3,0,0.6,0,0.9-0.1v1c-0.1,0.1-0.3,0.1-0.5,0.2s-0.5,0.1-0.7,0.1c-1.2,0-1.8-0.6-1.8-1.9v-3.2
				H704v-0.6l0.9-0.5l0.4-1.3h0.8v1.3h1.7v1h-1.7v3.2c0,0.3,0.1,0.5,0.2,0.7C706.5,384.5,706.7,384.6,706.9,384.6z"/>
			<path class="st0" d="M714.4,382.5c0,1-0.3,1.8-0.8,2.3c-0.5,0.6-1.2,0.8-2.1,0.8c-0.6,0-1.1-0.1-1.5-0.4c-0.4-0.3-0.8-0.6-1-1.1
				c-0.2-0.5-0.3-1-0.3-1.7c0-1,0.3-1.7,0.8-2.3c0.5-0.5,1.2-0.8,2.1-0.8c0.9,0,1.6,0.3,2.1,0.8
				C714.2,380.8,714.4,381.5,714.4,382.5z M710,382.5c0,1.4,0.5,2.1,1.5,2.1c1,0,1.5-0.7,1.5-2.1c0-1.4-0.5-2.1-1.5-2.1
				c-0.5,0-0.9,0.2-1.2,0.5C710.2,381.3,710,381.8,710,382.5z"/>
			<path class="st0" d="M719,379.4c0.3,0,0.5,0,0.6,0.1l-0.1,1.2c-0.2,0-0.4-0.1-0.6-0.1c-0.5,0-0.9,0.2-1.2,0.5
				c-0.3,0.3-0.5,0.8-0.5,1.3v3.1h-1.3v-6h1l0.2,1.1h0.1c0.2-0.4,0.5-0.6,0.8-0.9C718.2,379.5,718.6,379.4,719,379.4z"/>
			<path class="st0" d="M728.5,385.5l-0.8-2.8c-0.1-0.3-0.3-1-0.5-2.1h-0.1c-0.2,1-0.4,1.7-0.5,2.1l-0.8,2.8h-1.4l-1.7-6h1.3l0.8,3
				c0.2,0.7,0.3,1.4,0.4,1.9h0c0-0.3,0.1-0.6,0.2-0.9c0.1-0.3,0.1-0.6,0.2-0.8l0.9-3.2h1.4l0.9,3.2c0.1,0.2,0.1,0.5,0.2,0.8
				c0.1,0.4,0.1,0.7,0.1,0.9h0c0.1-0.4,0.2-1.1,0.4-1.9l0.8-3h1.3l-1.7,6H728.5z"/>
			<path class="st0" d="M735.4,385.6c-0.9,0-1.7-0.3-2.2-0.8c-0.5-0.5-0.8-1.3-0.8-2.3c0-1,0.2-1.8,0.7-2.3c0.5-0.6,1.2-0.8,2-0.8
				c0.8,0,1.4,0.2,1.9,0.7c0.5,0.5,0.7,1.1,0.7,2v0.7h-4c0,0.6,0.2,1,0.5,1.3c0.3,0.3,0.7,0.5,1.3,0.5c0.4,0,0.7,0,1-0.1
				c0.3-0.1,0.6-0.2,1-0.3v1c-0.3,0.1-0.6,0.3-0.9,0.3C736.1,385.6,735.8,385.6,735.4,385.6z M735.1,380.4c-0.4,0-0.7,0.1-1,0.4
				c-0.2,0.3-0.4,0.6-0.4,1.1h2.7c0-0.5-0.1-0.9-0.4-1.1C735.8,380.5,735.5,380.4,735.1,380.4z"/>
			<path class="st0" d="M739.1,377.9c0-0.2,0.1-0.4,0.2-0.5c0.1-0.1,0.3-0.2,0.5-0.2c0.2,0,0.4,0.1,0.5,0.2c0.1,0.1,0.2,0.3,0.2,0.5
				c0,0.2-0.1,0.4-0.2,0.5s-0.3,0.2-0.5,0.2c-0.2,0-0.4-0.1-0.5-0.2C739.1,378.3,739.1,378.1,739.1,377.9z M740.4,385.5h-1.3v-6h1.3
				V385.5z"/>
			<path class="st0" d="M747.3,379.5v0.7l-1,0.2c0.1,0.1,0.2,0.3,0.2,0.5c0.1,0.2,0.1,0.4,0.1,0.6c0,0.6-0.2,1.1-0.6,1.5
				c-0.4,0.4-1,0.5-1.8,0.5c-0.2,0-0.4,0-0.5,0c-0.3,0.2-0.4,0.4-0.4,0.6c0,0.1,0.1,0.2,0.2,0.3c0.1,0.1,0.4,0.1,0.7,0.1h1.1
				c0.7,0,1.2,0.1,1.5,0.4c0.3,0.3,0.5,0.7,0.5,1.2c0,0.7-0.3,1.2-0.8,1.6c-0.6,0.4-1.4,0.6-2.4,0.6c-0.8,0-1.4-0.1-1.9-0.4
				c-0.4-0.3-0.6-0.7-0.6-1.2c0-0.4,0.1-0.7,0.4-0.9c0.2-0.3,0.6-0.4,1-0.5c-0.2-0.1-0.3-0.2-0.4-0.4c-0.1-0.2-0.2-0.3-0.2-0.5
				c0-0.2,0.1-0.4,0.2-0.6s0.3-0.3,0.6-0.5c-0.3-0.1-0.6-0.4-0.8-0.7c-0.2-0.3-0.3-0.7-0.3-1.1c0-0.7,0.2-1.2,0.6-1.5
				c0.4-0.4,1-0.5,1.8-0.5c0.2,0,0.4,0,0.5,0s0.3,0,0.4,0.1H747.3z M742.6,386.5c0,0.3,0.1,0.5,0.4,0.6c0.2,0.1,0.6,0.2,1,0.2
				c0.7,0,1.2-0.1,1.6-0.3s0.5-0.5,0.5-0.8c0-0.3-0.1-0.4-0.3-0.6c-0.2-0.1-0.5-0.2-1-0.2h-1c-0.4,0-0.7,0.1-0.9,0.3
				C742.7,385.9,742.6,386.2,742.6,386.5z M743.2,381.4c0,0.4,0.1,0.7,0.3,0.9c0.2,0.2,0.5,0.3,0.8,0.3c0.7,0,1.1-0.4,1.1-1.2
				c0-0.4-0.1-0.7-0.3-0.9c-0.2-0.2-0.5-0.3-0.8-0.3c-0.4,0-0.6,0.1-0.8,0.3C743.3,380.7,743.2,381,743.2,381.4z"/>
			<path class="st0" d="M753.8,385.5h-1.3v-3.7c0-0.5-0.1-0.8-0.3-1c-0.2-0.2-0.5-0.3-0.9-0.3c-0.5,0-0.9,0.2-1.2,0.5
				c-0.3,0.3-0.4,0.9-0.4,1.6v3h-1.3V377h1.3v2.2c0,0.3,0,0.7-0.1,1.1h0.1c0.2-0.3,0.4-0.5,0.7-0.7c0.3-0.2,0.7-0.2,1.1-0.2
				c1.5,0,2.2,0.7,2.2,2.2V385.5z"/>
			<path class="st0" d="M757.8,384.6c0.3,0,0.6,0,0.9-0.1v1c-0.1,0.1-0.3,0.1-0.5,0.2c-0.2,0-0.5,0.1-0.7,0.1
				c-1.2,0-1.8-0.6-1.8-1.9v-3.2h-0.8v-0.6l0.9-0.5l0.4-1.3h0.8v1.3h1.7v1H757v3.2c0,0.3,0.1,0.5,0.2,0.7
				C757.3,384.5,757.5,384.6,757.8,384.6z"/>
			<path class="st0" d="M764,383.8c0,0.6-0.2,1-0.6,1.4c-0.4,0.3-1,0.5-1.8,0.5c-0.8,0-1.4-0.1-1.9-0.4v-1.1c0.7,0.3,1.4,0.5,2,0.5
				c0.8,0,1.2-0.2,1.2-0.7c0-0.2,0-0.3-0.1-0.4c-0.1-0.1-0.2-0.2-0.4-0.3c-0.2-0.1-0.5-0.2-0.8-0.4c-0.7-0.3-1.2-0.5-1.4-0.8
				c-0.2-0.3-0.4-0.6-0.4-1c0-0.5,0.2-0.9,0.6-1.2c0.4-0.3,1-0.4,1.7-0.4c0.7,0,1.4,0.1,2,0.4l-0.4,1c-0.6-0.3-1.2-0.4-1.6-0.4
				c-0.7,0-1,0.2-1,0.6c0,0.2,0.1,0.3,0.3,0.5c0.2,0.1,0.6,0.3,1.2,0.5c0.5,0.2,0.9,0.4,1.1,0.5c0.2,0.2,0.4,0.3,0.5,0.6
				C763.9,383.3,764,383.5,764,383.8z"/>
		</g>
	</g>
	<path class="st4" d="M208.9,401.1L208.9,401.1c-34.5,0-62.5-28-62.5-62.5V208.3c0-34.5,28-62.5,62.5-62.5h0
		c34.5,0,62.5,28,62.5,62.5v130.3C271.4,373.2,243.4,401.1,208.9,401.1z"/>
	<g>
		<path class="st3" d="M185.1,207.1v-8h1.3v6.8h3.4v1.1H185.1z"/>
		<path class="st3" d="M190.9,199.5c0-0.2,0.1-0.4,0.2-0.5c0.1-0.1,0.3-0.2,0.5-0.2c0.2,0,0.4,0.1,0.5,0.2c0.1,0.1,0.2,0.3,0.2,0.5
			c0,0.2-0.1,0.4-0.2,0.5c-0.1,0.1-0.3,0.2-0.5,0.2c-0.2,0-0.4-0.1-0.5-0.2C191,199.9,190.9,199.7,190.9,199.5z M192.3,207.1H191v-6
			h1.3V207.1z"/>
		<path class="st3" d="M196.1,207.2c-0.7,0-1.3-0.3-1.7-0.8c-0.4-0.5-0.6-1.3-0.6-2.3c0-1,0.2-1.7,0.6-2.3c0.4-0.6,1-0.8,1.8-0.8
			c0.4,0,0.7,0.1,1,0.2c0.3,0.1,0.6,0.4,0.8,0.7h0l0.1-0.8h1.1v8.7H198v-2.6c0-0.2,0-0.3,0-0.5c0-0.2,0-0.3,0-0.4h-0.1
			C197.6,206.9,197,207.2,196.1,207.2z M196.5,206.2c0.5,0,0.9-0.2,1.2-0.5c0.2-0.3,0.4-0.8,0.4-1.4v-0.2c0-0.7-0.1-1.3-0.4-1.6
			c-0.2-0.3-0.6-0.5-1.2-0.5c-0.5,0-0.8,0.2-1,0.5c-0.2,0.4-0.4,0.9-0.4,1.6C195.1,205.5,195.6,206.2,196.5,206.2z"/>
		<path class="st3" d="M205.3,207.1l-0.2-0.8h-0.1c-0.2,0.3-0.4,0.5-0.8,0.7c-0.3,0.2-0.7,0.2-1.1,0.2c-0.7,0-1.3-0.2-1.6-0.5
			c-0.4-0.4-0.5-0.9-0.5-1.6v-3.9h1.3v3.7c0,0.5,0.1,0.8,0.3,1c0.2,0.2,0.5,0.3,0.9,0.3c0.5,0,0.9-0.2,1.2-0.5
			c0.3-0.3,0.4-0.9,0.4-1.6v-3h1.3v6H205.3z"/>
		<path class="st3" d="M208.1,199.5c0-0.2,0.1-0.4,0.2-0.5c0.1-0.1,0.3-0.2,0.5-0.2c0.2,0,0.4,0.1,0.5,0.2c0.1,0.1,0.2,0.3,0.2,0.5
			c0,0.2-0.1,0.4-0.2,0.5c-0.1,0.1-0.3,0.2-0.5,0.2c-0.2,0-0.4-0.1-0.5-0.2C208.1,199.9,208.1,199.7,208.1,199.5z M209.4,207.1h-1.3
			v-6h1.3V207.1z"/>
		<path class="st3" d="M213.3,207.2c-0.8,0-1.3-0.3-1.8-0.8c-0.4-0.5-0.6-1.3-0.6-2.3c0-1,0.2-1.8,0.6-2.3c0.4-0.5,1-0.8,1.8-0.8
			c0.8,0,1.4,0.3,1.8,0.9h0.1c-0.1-0.4-0.1-0.8-0.1-1v-2.2h1.3v8.5h-1l-0.2-0.8h-0.1C214.7,206.9,214.1,207.2,213.3,207.2z
			 M213.6,206.2c0.5,0,0.9-0.1,1.2-0.4c0.2-0.3,0.4-0.8,0.4-1.4v-0.2c0-0.8-0.1-1.3-0.4-1.6c-0.2-0.3-0.6-0.5-1.2-0.5
			c-0.5,0-0.8,0.2-1,0.5c-0.2,0.4-0.4,0.9-0.4,1.6c0,0.7,0.1,1.2,0.4,1.5C212.8,206,213.2,206.2,213.6,206.2z"/>
		<path class="st3" d="M218.1,199.5c0-0.2,0.1-0.4,0.2-0.5c0.1-0.1,0.3-0.2,0.5-0.2c0.2,0,0.4,0.1,0.5,0.2c0.1,0.1,0.2,0.3,0.2,0.5
			c0,0.2-0.1,0.4-0.2,0.5c-0.1,0.1-0.3,0.2-0.5,0.2c-0.2,0-0.4-0.1-0.5-0.2C218.2,199.9,218.1,199.7,218.1,199.5z M219.5,207.1h-1.3
			v-6h1.3V207.1z"/>
		<path class="st3" d="M223.6,206.2c0.3,0,0.6,0,0.9-0.1v1c-0.1,0.1-0.3,0.1-0.5,0.2s-0.5,0.1-0.7,0.1c-1.2,0-1.8-0.6-1.8-1.9v-3.2
			h-0.8v-0.6l0.9-0.5l0.4-1.3h0.8v1.3h1.7v1h-1.7v3.2c0,0.3,0.1,0.5,0.2,0.7C223.1,206.1,223.3,206.2,223.6,206.2z"/>
		<path class="st3" d="M224.8,201.1h1.4l1.2,3.4c0.2,0.5,0.3,0.9,0.4,1.4h0c0-0.2,0.1-0.4,0.2-0.7c0.1-0.3,0.5-1.6,1.4-4.1h1.4
			l-2.6,6.8c-0.5,1.3-1.2,1.9-2.3,1.9c-0.3,0-0.6,0-0.8-0.1v-1c0.2,0,0.4,0.1,0.7,0.1c0.6,0,1.1-0.4,1.3-1.1l0.2-0.6L224.8,201.1z"
			/>
		<path class="st3" d="M193.3,221c0,0.6-0.2,1-0.6,1.4c-0.4,0.3-1,0.5-1.8,0.5c-0.8,0-1.4-0.1-1.9-0.4v-1.1c0.7,0.3,1.4,0.5,2,0.5
			c0.8,0,1.2-0.2,1.2-0.7c0-0.2,0-0.3-0.1-0.4c-0.1-0.1-0.2-0.2-0.4-0.3c-0.2-0.1-0.5-0.2-0.8-0.4c-0.7-0.3-1.2-0.5-1.4-0.8
			c-0.2-0.3-0.4-0.6-0.4-1c0-0.5,0.2-0.9,0.6-1.2c0.4-0.3,1-0.4,1.7-0.4c0.7,0,1.4,0.1,2,0.4l-0.4,1c-0.6-0.3-1.2-0.4-1.6-0.4
			c-0.7,0-1,0.2-1,0.6c0,0.2,0.1,0.3,0.3,0.5c0.2,0.1,0.6,0.3,1.2,0.5c0.5,0.2,0.9,0.4,1.1,0.5c0.2,0.2,0.4,0.3,0.5,0.6
			C193.2,220.5,193.3,220.7,193.3,221z"/>
		<path class="st3" d="M197.1,222.9c-0.9,0-1.6-0.3-2.1-0.8c-0.5-0.5-0.7-1.3-0.7-2.3c0-1,0.2-1.8,0.7-2.3c0.5-0.5,1.2-0.8,2.1-0.8
			c0.6,0,1.2,0.1,1.7,0.4l-0.4,1c-0.5-0.2-1-0.3-1.3-0.3c-1,0-1.6,0.7-1.6,2.1c0,0.7,0.1,1.2,0.4,1.5c0.3,0.3,0.6,0.5,1.1,0.5
			c0.6,0,1.1-0.1,1.6-0.4v1.1c-0.2,0.1-0.5,0.2-0.7,0.3C197.8,222.8,197.4,222.9,197.1,222.9z"/>
		<path class="st3" d="M203.2,216.6c0.3,0,0.5,0,0.6,0.1l-0.1,1.2c-0.2,0-0.4-0.1-0.6-0.1c-0.5,0-0.9,0.2-1.2,0.5
			c-0.3,0.3-0.5,0.8-0.5,1.3v3.1h-1.3v-6h1l0.2,1.1h0.1c0.2-0.4,0.5-0.6,0.8-0.9C202.5,216.7,202.8,216.6,203.2,216.6z"/>
		<path class="st3" d="M207.6,222.9c-0.9,0-1.7-0.3-2.2-0.8c-0.5-0.5-0.8-1.3-0.8-2.3c0-1,0.2-1.8,0.7-2.3c0.5-0.6,1.2-0.8,2-0.8
			c0.8,0,1.4,0.2,1.9,0.7c0.5,0.5,0.7,1.1,0.7,2v0.7h-4c0,0.6,0.2,1,0.5,1.3c0.3,0.3,0.7,0.5,1.3,0.5c0.4,0,0.7,0,1-0.1
			c0.3-0.1,0.6-0.2,1-0.3v1c-0.3,0.1-0.6,0.3-0.9,0.3C208.4,222.8,208,222.9,207.6,222.9z M207.4,217.6c-0.4,0-0.7,0.1-1,0.4
			c-0.2,0.3-0.4,0.6-0.4,1.1h2.7c0-0.5-0.1-0.9-0.4-1.1C208.1,217.7,207.8,217.6,207.4,217.6z"/>
		<path class="st3" d="M214,222.9c-0.9,0-1.7-0.3-2.2-0.8c-0.5-0.5-0.8-1.3-0.8-2.3c0-1,0.2-1.8,0.7-2.3c0.5-0.6,1.2-0.8,2-0.8
			c0.8,0,1.4,0.2,1.9,0.7c0.5,0.5,0.7,1.1,0.7,2v0.7h-4c0,0.6,0.2,1,0.5,1.3c0.3,0.3,0.7,0.5,1.3,0.5c0.4,0,0.7,0,1-0.1
			c0.3-0.1,0.6-0.2,1-0.3v1c-0.3,0.1-0.6,0.3-0.9,0.3C214.8,222.8,214.4,222.9,214,222.9z M213.8,217.6c-0.4,0-0.7,0.1-1,0.4
			c-0.2,0.3-0.4,0.6-0.4,1.1h2.7c0-0.5-0.1-0.9-0.4-1.1C214.5,217.7,214.2,217.6,213.8,217.6z"/>
		<path class="st3" d="M223.1,222.8h-1.3V219c0-0.5-0.1-0.8-0.3-1s-0.5-0.3-0.9-0.3c-0.5,0-0.9,0.2-1.2,0.5
			c-0.3,0.3-0.4,0.9-0.4,1.6v3h-1.3v-6h1l0.2,0.8h0.1c0.2-0.3,0.4-0.5,0.8-0.7c0.3-0.2,0.7-0.2,1.1-0.2c1.4,0,2.2,0.7,2.2,2.2V222.8
			z"/>
		<path class="st3" d="M229,221c0,0.6-0.2,1-0.6,1.4c-0.4,0.3-1,0.5-1.8,0.5c-0.8,0-1.4-0.1-1.9-0.4v-1.1c0.7,0.3,1.4,0.5,2,0.5
			c0.8,0,1.2-0.2,1.2-0.7c0-0.2,0-0.3-0.1-0.4c-0.1-0.1-0.2-0.2-0.4-0.3c-0.2-0.1-0.5-0.2-0.8-0.4c-0.7-0.3-1.2-0.5-1.4-0.8
			c-0.2-0.3-0.4-0.6-0.4-1c0-0.5,0.2-0.9,0.6-1.2c0.4-0.3,1-0.4,1.7-0.4c0.7,0,1.4,0.1,2,0.4l-0.4,1c-0.6-0.3-1.2-0.4-1.6-0.4
			c-0.7,0-1,0.2-1,0.6c0,0.2,0.1,0.3,0.3,0.5c0.2,0.1,0.6,0.3,1.2,0.5c0.5,0.2,0.9,0.4,1.1,0.5c0.2,0.2,0.4,0.3,0.5,0.6
			C228.9,220.5,229,220.7,229,221z"/>
	</g>
	<g>
		<path class="st3" d="M200.4,255.5c0,0.8-0.3,1.5-0.8,1.9c-0.5,0.4-1.3,0.7-2.3,0.7h-0.8v3h-1.3v-8h2.3c1,0,1.7,0.2,2.2,0.6
			C200.1,254.1,200.4,254.7,200.4,255.5z M196.4,257h0.7c0.7,0,1.2-0.1,1.5-0.3c0.3-0.2,0.5-0.6,0.5-1.1c0-0.5-0.1-0.8-0.4-1
			c-0.3-0.2-0.7-0.3-1.3-0.3h-0.9V257z"/>
		<path class="st3" d="M204.9,254.9c0.3,0,0.5,0,0.6,0.1l-0.1,1.2c-0.2,0-0.4-0.1-0.6-0.1c-0.5,0-0.9,0.2-1.2,0.5
			c-0.3,0.3-0.5,0.8-0.5,1.3v3.1h-1.3v-6h1l0.2,1.1h0.1c0.2-0.4,0.5-0.6,0.8-0.9C204.2,255,204.5,254.9,204.9,254.9z"/>
		<path class="st3" d="M206.6,253.4c0-0.2,0.1-0.4,0.2-0.5c0.1-0.1,0.3-0.2,0.5-0.2c0.2,0,0.4,0.1,0.5,0.2c0.1,0.1,0.2,0.3,0.2,0.5
			c0,0.2-0.1,0.4-0.2,0.5c-0.1,0.1-0.3,0.2-0.5,0.2c-0.2,0-0.4-0.1-0.5-0.2C206.6,253.8,206.6,253.6,206.6,253.4z M207.9,261h-1.3
			v-6h1.3V261z"/>
		<path class="st3" d="M212.2,261.2c-0.9,0-1.6-0.3-2.1-0.8c-0.5-0.5-0.7-1.3-0.7-2.3c0-1,0.2-1.8,0.7-2.3c0.5-0.5,1.2-0.8,2.1-0.8
			c0.6,0,1.2,0.1,1.7,0.4l-0.4,1c-0.5-0.2-1-0.3-1.3-0.3c-1,0-1.6,0.7-1.6,2.1c0,0.7,0.1,1.2,0.4,1.5c0.3,0.3,0.6,0.5,1.1,0.5
			c0.6,0,1.1-0.1,1.6-0.4v1.1c-0.2,0.1-0.5,0.2-0.7,0.3C212.9,261.1,212.5,261.2,212.2,261.2z"/>
		<path class="st3" d="M217.9,261.2c-0.9,0-1.7-0.3-2.2-0.8c-0.5-0.5-0.8-1.3-0.8-2.3c0-1,0.2-1.8,0.7-2.3c0.5-0.6,1.2-0.8,2-0.8
			c0.8,0,1.4,0.2,1.9,0.7c0.5,0.5,0.7,1.1,0.7,2v0.7h-4c0,0.6,0.2,1,0.5,1.3c0.3,0.3,0.7,0.5,1.3,0.5c0.4,0,0.7,0,1-0.1
			c0.3-0.1,0.6-0.2,1-0.3v1c-0.3,0.1-0.6,0.3-0.9,0.3C218.7,261.1,218.3,261.2,217.9,261.2z M217.7,255.9c-0.4,0-0.7,0.1-1,0.4
			c-0.2,0.3-0.4,0.6-0.4,1.1h2.7c0-0.5-0.1-0.9-0.4-1.1C218.4,256,218.1,255.9,217.7,255.9z"/>
		<path class="st3" d="M193.3,275c0,0.6-0.2,1-0.6,1.4c-0.4,0.3-1,0.5-1.8,0.5c-0.8,0-1.4-0.1-1.9-0.4v-1.1c0.7,0.3,1.4,0.5,2,0.5
			c0.8,0,1.2-0.2,1.2-0.7c0-0.2,0-0.3-0.1-0.4c-0.1-0.1-0.2-0.2-0.4-0.3c-0.2-0.1-0.5-0.2-0.8-0.4c-0.7-0.3-1.2-0.5-1.4-0.8
			c-0.2-0.3-0.4-0.6-0.4-1c0-0.5,0.2-0.9,0.6-1.2c0.4-0.3,1-0.4,1.7-0.4c0.7,0,1.4,0.1,2,0.4l-0.4,1c-0.6-0.3-1.2-0.4-1.6-0.4
			c-0.7,0-1,0.2-1,0.6c0,0.2,0.1,0.3,0.3,0.5c0.2,0.1,0.6,0.3,1.2,0.5c0.5,0.2,0.9,0.4,1.1,0.5c0.2,0.2,0.4,0.3,0.5,0.6
			C193.2,274.4,193.3,274.7,193.3,275z"/>
		<path class="st3" d="M197.1,276.8c-0.9,0-1.6-0.3-2.1-0.8c-0.5-0.5-0.7-1.3-0.7-2.3c0-1,0.2-1.8,0.7-2.3c0.5-0.5,1.2-0.8,2.1-0.8
			c0.6,0,1.2,0.1,1.7,0.4l-0.4,1c-0.5-0.2-1-0.3-1.3-0.3c-1,0-1.6,0.7-1.6,2.1c0,0.7,0.1,1.2,0.4,1.5c0.3,0.3,0.6,0.5,1.1,0.5
			c0.6,0,1.1-0.1,1.6-0.4v1.1c-0.2,0.1-0.5,0.2-0.7,0.3C197.8,276.8,197.4,276.8,197.1,276.8z"/>
		<path class="st3" d="M203.2,270.6c0.3,0,0.5,0,0.6,0.1l-0.1,1.2c-0.2,0-0.4-0.1-0.6-0.1c-0.5,0-0.9,0.2-1.2,0.5
			c-0.3,0.3-0.5,0.8-0.5,1.3v3.1h-1.3v-6h1l0.2,1.1h0.1c0.2-0.4,0.5-0.6,0.8-0.9C202.5,270.7,202.8,270.6,203.2,270.6z"/>
		<path class="st3" d="M207.6,276.8c-0.9,0-1.7-0.3-2.2-0.8c-0.5-0.5-0.8-1.3-0.8-2.3c0-1,0.2-1.8,0.7-2.3c0.5-0.6,1.2-0.8,2-0.8
			c0.8,0,1.4,0.2,1.9,0.7c0.5,0.5,0.7,1.1,0.7,2v0.7h-4c0,0.6,0.2,1,0.5,1.3c0.3,0.3,0.7,0.5,1.3,0.5c0.4,0,0.7,0,1-0.1
			c0.3-0.1,0.6-0.2,1-0.3v1c-0.3,0.1-0.6,0.3-0.9,0.3C208.4,276.8,208,276.8,207.6,276.8z M207.4,271.5c-0.4,0-0.7,0.1-1,0.4
			c-0.2,0.3-0.4,0.6-0.4,1.1h2.7c0-0.5-0.1-0.9-0.4-1.1C208.1,271.7,207.8,271.5,207.4,271.5z"/>
		<path class="st3" d="M214,276.8c-0.9,0-1.7-0.3-2.2-0.8c-0.5-0.5-0.8-1.3-0.8-2.3c0-1,0.2-1.8,0.7-2.3c0.5-0.6,1.2-0.8,2-0.8
			c0.8,0,1.4,0.2,1.9,0.7c0.5,0.5,0.7,1.1,0.7,2v0.7h-4c0,0.6,0.2,1,0.5,1.3c0.3,0.3,0.7,0.5,1.3,0.5c0.4,0,0.7,0,1-0.1
			c0.3-0.1,0.6-0.2,1-0.3v1c-0.3,0.1-0.6,0.3-0.9,0.3C214.8,276.8,214.4,276.8,214,276.8z M213.8,271.5c-0.4,0-0.7,0.1-1,0.4
			c-0.2,0.3-0.4,0.6-0.4,1.1h2.7c0-0.5-0.1-0.9-0.4-1.1C214.5,271.7,214.2,271.5,213.8,271.5z"/>
		<path class="st3" d="M223.1,276.7h-1.3V273c0-0.5-0.1-0.8-0.3-1s-0.5-0.3-0.9-0.3c-0.5,0-0.9,0.2-1.2,0.5
			c-0.3,0.3-0.4,0.9-0.4,1.6v3h-1.3v-6h1l0.2,0.8h0.1c0.2-0.3,0.4-0.5,0.8-0.7c0.3-0.2,0.7-0.2,1.1-0.2c1.4,0,2.2,0.7,2.2,2.2V276.7
			z"/>
		<path class="st3" d="M229,275c0,0.6-0.2,1-0.6,1.4c-0.4,0.3-1,0.5-1.8,0.5c-0.8,0-1.4-0.1-1.9-0.4v-1.1c0.7,0.3,1.4,0.5,2,0.5
			c0.8,0,1.2-0.2,1.2-0.7c0-0.2,0-0.3-0.1-0.4c-0.1-0.1-0.2-0.2-0.4-0.3c-0.2-0.1-0.5-0.2-0.8-0.4c-0.7-0.3-1.2-0.5-1.4-0.8
			c-0.2-0.3-0.4-0.6-0.4-1c0-0.5,0.2-0.9,0.6-1.2c0.4-0.3,1-0.4,1.7-0.4c0.7,0,1.4,0.1,2,0.4l-0.4,1c-0.6-0.3-1.2-0.4-1.6-0.4
			c-0.7,0-1,0.2-1,0.6c0,0.2,0.1,0.3,0.3,0.5c0.2,0.1,0.6,0.3,1.2,0.5c0.5,0.2,0.9,0.4,1.1,0.5c0.2,0.2,0.4,0.3,0.5,0.6
			C228.9,274.4,229,274.7,229,275z"/>
	</g>
	<g>
		<path class="st3" d="M189.9,315h-4.5v-8h4.5v1.1h-3.2v2.2h3v1.1h-3v2.5h3.2V315z"/>
		<path class="st3" d="M194.5,309.9H193v5.1h-1.3v-5.1h-1v-0.6l1-0.4v-0.4c0-0.7,0.2-1.2,0.5-1.6c0.3-0.3,0.8-0.5,1.5-0.5
			c0.5,0,0.9,0.1,1.3,0.2l-0.3,1c-0.3-0.1-0.6-0.2-0.9-0.2c-0.3,0-0.5,0.1-0.6,0.3c-0.1,0.2-0.2,0.5-0.2,0.8v0.4h1.5V309.9z
			 M198.5,309.9h-1.5v5.1h-1.3v-5.1h-1v-0.6l1-0.4v-0.4c0-0.7,0.2-1.2,0.5-1.6c0.3-0.3,0.8-0.5,1.5-0.5c0.5,0,0.9,0.1,1.3,0.2
			l-0.3,1c-0.3-0.1-0.6-0.2-0.9-0.2c-0.3,0-0.5,0.1-0.6,0.3c-0.1,0.2-0.2,0.5-0.2,0.8v0.4h1.5V309.9z"/>
		<path class="st3" d="M202.2,315.1c-0.9,0-1.7-0.3-2.2-0.8c-0.5-0.5-0.8-1.3-0.8-2.3c0-1,0.2-1.8,0.7-2.3c0.5-0.6,1.2-0.8,2-0.8
			c0.8,0,1.4,0.2,1.9,0.7c0.5,0.5,0.7,1.1,0.7,2v0.7h-4c0,0.6,0.2,1,0.5,1.3c0.3,0.3,0.7,0.5,1.3,0.5c0.4,0,0.7,0,1-0.1
			c0.3-0.1,0.6-0.2,1-0.3v1c-0.3,0.1-0.6,0.3-0.9,0.3C203,315.1,202.6,315.1,202.2,315.1z M202,309.8c-0.4,0-0.7,0.1-1,0.4
			c-0.2,0.3-0.4,0.6-0.4,1.1h2.7c0-0.5-0.1-0.9-0.4-1.1C202.7,310,202.4,309.8,202,309.8z"/>
		<path class="st3" d="M208.4,315.1c-0.9,0-1.6-0.3-2.1-0.8c-0.5-0.5-0.7-1.3-0.7-2.3c0-1,0.2-1.8,0.7-2.3c0.5-0.5,1.2-0.8,2.1-0.8
			c0.6,0,1.2,0.1,1.7,0.4l-0.4,1c-0.5-0.2-1-0.3-1.3-0.3c-1,0-1.6,0.7-1.6,2.1c0,0.7,0.1,1.2,0.4,1.5c0.3,0.3,0.6,0.5,1.1,0.5
			c0.6,0,1.1-0.1,1.6-0.4v1.1c-0.2,0.1-0.5,0.2-0.7,0.3C209.1,315.1,208.8,315.1,208.4,315.1z"/>
		<path class="st3" d="M213.8,314.1c0.3,0,0.6,0,0.9-0.1v1c-0.1,0.1-0.3,0.1-0.5,0.2c-0.2,0-0.5,0.1-0.7,0.1c-1.2,0-1.8-0.6-1.8-1.9
			v-3.2h-0.8v-0.6l0.9-0.5l0.4-1.3h0.8v1.3h1.7v1h-1.7v3.2c0,0.3,0.1,0.5,0.2,0.7C213.3,314,213.5,314.1,213.8,314.1z"/>
		<path class="st3" d="M215.8,307.4c0-0.2,0.1-0.4,0.2-0.5c0.1-0.1,0.3-0.2,0.5-0.2c0.2,0,0.4,0.1,0.5,0.2c0.1,0.1,0.2,0.3,0.2,0.5
			c0,0.2-0.1,0.4-0.2,0.5c-0.1,0.1-0.3,0.2-0.5,0.2c-0.2,0-0.4-0.1-0.5-0.2C215.9,307.8,215.8,307.6,215.8,307.4z M217.2,315h-1.3
			v-6h1.3V315z"/>
		<path class="st3" d="M220.4,315l-2.3-6h1.4l1.2,3.5c0.2,0.6,0.3,1.1,0.4,1.4h0c0-0.3,0.2-0.7,0.4-1.4l1.2-3.5h1.4l-2.3,6H220.4z"
			/>
		<path class="st3" d="M227.6,315.1c-0.9,0-1.7-0.3-2.2-0.8c-0.5-0.5-0.8-1.3-0.8-2.3c0-1,0.2-1.8,0.7-2.3c0.5-0.6,1.2-0.8,2-0.8
			c0.8,0,1.4,0.2,1.9,0.7c0.5,0.5,0.7,1.1,0.7,2v0.7h-4c0,0.6,0.2,1,0.5,1.3c0.3,0.3,0.7,0.5,1.3,0.5c0.4,0,0.7,0,1-0.1
			c0.3-0.1,0.6-0.2,1-0.3v1c-0.3,0.1-0.6,0.3-0.9,0.3C228.4,315.1,228,315.1,227.6,315.1z M227.4,309.8c-0.4,0-0.7,0.1-1,0.4
			c-0.2,0.3-0.4,0.6-0.4,1.1h2.7c0-0.5-0.1-0.9-0.4-1.1C228.1,310,227.8,309.8,227.4,309.8z"/>
		<path class="st3" d="M181.4,330.7c-0.8,0-1.3-0.3-1.8-0.8c-0.4-0.5-0.6-1.3-0.6-2.3c0-1,0.2-1.8,0.6-2.3c0.4-0.5,1-0.8,1.8-0.8
			c0.8,0,1.4,0.3,1.8,0.9h0.1c-0.1-0.4-0.1-0.8-0.1-1v-2.2h1.3v8.5h-1l-0.2-0.8h-0.1C182.8,330.4,182.2,330.7,181.4,330.7z
			 M181.8,329.7c0.5,0,0.9-0.1,1.2-0.4c0.2-0.3,0.4-0.8,0.4-1.4v-0.2c0-0.8-0.1-1.3-0.4-1.6c-0.2-0.3-0.6-0.5-1.2-0.5
			c-0.5,0-0.8,0.2-1,0.5c-0.2,0.4-0.4,0.9-0.4,1.6c0,0.7,0.1,1.2,0.4,1.5C180.9,329.5,181.3,329.7,181.8,329.7z"/>
		<path class="st3" d="M190.6,330.6l-0.2-0.8h-0.1c-0.2,0.3-0.4,0.5-0.8,0.7c-0.3,0.2-0.7,0.2-1.1,0.2c-0.7,0-1.3-0.2-1.6-0.5
			c-0.4-0.4-0.5-0.9-0.5-1.6v-3.9h1.3v3.7c0,0.5,0.1,0.8,0.3,1c0.2,0.2,0.5,0.3,0.9,0.3c0.5,0,0.9-0.2,1.2-0.5
			c0.3-0.3,0.4-0.9,0.4-1.6v-3h1.3v6H190.6z"/>
		<path class="st3" d="M196.5,324.5c0.3,0,0.5,0,0.6,0.1l-0.1,1.2c-0.2,0-0.4-0.1-0.6-0.1c-0.5,0-0.9,0.2-1.2,0.5
			c-0.3,0.3-0.5,0.8-0.5,1.3v3.1h-1.3v-6h1l0.2,1.1h0.1c0.2-0.4,0.5-0.6,0.8-0.9C195.8,324.6,196.1,324.5,196.5,324.5z"/>
		<path class="st3" d="M202,330.6l-0.3-0.8h0c-0.3,0.4-0.6,0.6-0.9,0.8c-0.3,0.1-0.7,0.2-1.1,0.2c-0.6,0-1.1-0.2-1.4-0.5
			c-0.3-0.3-0.5-0.8-0.5-1.4c0-0.6,0.2-1.1,0.7-1.4c0.5-0.3,1.2-0.5,2.1-0.5l1,0v-0.3c0-0.4-0.1-0.7-0.3-0.9
			c-0.2-0.2-0.5-0.3-0.8-0.3c-0.3,0-0.6,0-0.9,0.1c-0.3,0.1-0.6,0.2-0.8,0.3l-0.4-0.9c0.3-0.2,0.7-0.3,1.1-0.4
			c0.4-0.1,0.8-0.1,1.1-0.1c0.8,0,1.3,0.2,1.7,0.5c0.4,0.3,0.6,0.9,0.6,1.6v4.1H202z M200.1,329.8c0.5,0,0.8-0.1,1.1-0.4
			s0.4-0.6,0.4-1.1v-0.5l-0.8,0c-0.6,0-1,0.1-1.3,0.3c-0.3,0.2-0.4,0.5-0.4,0.8c0,0.3,0.1,0.5,0.2,0.6
			C199.5,329.7,199.8,329.8,200.1,329.8z"/>
		<path class="st3" d="M207,329.7c0.3,0,0.6,0,0.9-0.1v1c-0.1,0.1-0.3,0.1-0.5,0.2c-0.2,0-0.5,0.1-0.7,0.1c-1.2,0-1.8-0.6-1.8-1.9
			v-3.2H204V325l0.9-0.5l0.4-1.3h0.8v1.3h1.7v1h-1.7v3.2c0,0.3,0.1,0.5,0.2,0.7C206.5,329.6,206.7,329.7,207,329.7z"/>
		<path class="st3" d="M209,323c0-0.2,0.1-0.4,0.2-0.5c0.1-0.1,0.3-0.2,0.5-0.2c0.2,0,0.4,0.1,0.5,0.2c0.1,0.1,0.2,0.3,0.2,0.5
			c0,0.2-0.1,0.4-0.2,0.5c-0.1,0.1-0.3,0.2-0.5,0.2c-0.2,0-0.4-0.1-0.5-0.2C209.1,323.4,209,323.2,209,323z M210.4,330.6h-1.3v-6
			h1.3V330.6z"/>
		<path class="st3" d="M217.6,327.6c0,1-0.3,1.8-0.8,2.3c-0.5,0.6-1.2,0.8-2.1,0.8c-0.6,0-1.1-0.1-1.5-0.4c-0.4-0.3-0.8-0.6-1-1.1
			c-0.2-0.5-0.3-1-0.3-1.7c0-1,0.3-1.7,0.8-2.3c0.5-0.5,1.2-0.8,2.1-0.8c0.9,0,1.6,0.3,2.1,0.8C217.3,325.9,217.6,326.7,217.6,327.6
			z M213.2,327.6c0,1.4,0.5,2.1,1.5,2.1c1,0,1.5-0.7,1.5-2.1c0-1.4-0.5-2.1-1.5-2.1c-0.5,0-0.9,0.2-1.2,0.5
			C213.3,326.4,213.2,326.9,213.2,327.6z"/>
		<path class="st3" d="M224.3,330.6H223v-3.7c0-0.5-0.1-0.8-0.3-1s-0.5-0.3-0.9-0.3c-0.5,0-0.9,0.2-1.2,0.5
			c-0.3,0.3-0.4,0.9-0.4,1.6v3H219v-6h1l0.2,0.8h0.1c0.2-0.3,0.4-0.5,0.8-0.7c0.3-0.2,0.7-0.2,1.1-0.2c1.4,0,2.2,0.7,2.2,2.2V330.6z
			"/>
		<path class="st3" d="M228.6,328.5c0-0.5,0.1-0.9,0.3-1.2s0.7-0.7,1.3-1.1c-0.3-0.4-0.6-0.7-0.7-1c-0.1-0.3-0.2-0.6-0.2-0.9
			c0-0.6,0.2-1,0.6-1.3c0.4-0.3,0.9-0.5,1.6-0.5c0.6,0,1.1,0.2,1.5,0.5c0.4,0.3,0.6,0.7,0.6,1.3c0,0.4-0.1,0.8-0.4,1.1
			c-0.2,0.3-0.7,0.7-1.2,1l1.9,1.8c0.3-0.4,0.5-1,0.7-1.7h1.3c-0.3,1-0.7,1.9-1.2,2.5l1.6,1.6h-1.6l-0.8-0.8
			c-0.4,0.3-0.8,0.5-1.2,0.7c-0.4,0.2-0.9,0.2-1.4,0.2c-0.8,0-1.5-0.2-2-0.6C228.8,329.8,228.6,329.2,228.6,328.5z M231.4,329.6
			c0.7,0,1.2-0.2,1.7-0.6L231,327c-0.4,0.2-0.6,0.5-0.8,0.7c-0.1,0.2-0.2,0.5-0.2,0.7c0,0.4,0.1,0.6,0.4,0.9
			C230.6,329.5,230.9,329.6,231.4,329.6z M230.5,324.4c0,0.2,0.1,0.4,0.2,0.6c0.1,0.2,0.3,0.4,0.5,0.6c0.4-0.2,0.7-0.4,0.9-0.7
			c0.2-0.2,0.2-0.4,0.2-0.7c0-0.2-0.1-0.4-0.2-0.6c-0.2-0.1-0.4-0.2-0.6-0.2c-0.3,0-0.5,0.1-0.7,0.2
			C230.6,323.9,230.5,324.1,230.5,324.4z"/>
		<path class="st3" d="M169.4,346.3h-1.3v-3.7c0-0.5-0.1-0.8-0.3-1c-0.2-0.2-0.4-0.3-0.8-0.3c-0.5,0-0.9,0.2-1.1,0.5
			c-0.2,0.3-0.3,0.9-0.3,1.6v3h-1.3v-6h1l0.2,0.8h0.1c0.2-0.3,0.4-0.5,0.7-0.7s0.7-0.2,1-0.2c0.9,0,1.5,0.3,1.8,0.9h0.1
			c0.2-0.3,0.4-0.5,0.8-0.7c0.3-0.2,0.7-0.3,1.1-0.3c0.7,0,1.2,0.2,1.6,0.5c0.3,0.4,0.5,0.9,0.5,1.7v3.9h-1.3v-3.7
			c0-0.5-0.1-0.8-0.3-1c-0.2-0.2-0.4-0.3-0.8-0.3c-0.5,0-0.9,0.2-1.1,0.5c-0.2,0.3-0.3,0.8-0.3,1.4V346.3z"/>
		<path class="st3" d="M178.8,346.3l-0.3-0.8h0c-0.3,0.4-0.6,0.6-0.9,0.8c-0.3,0.1-0.7,0.2-1.1,0.2c-0.6,0-1.1-0.2-1.4-0.5
			c-0.3-0.3-0.5-0.8-0.5-1.4c0-0.6,0.2-1.1,0.7-1.4c0.5-0.3,1.2-0.5,2.1-0.5l1,0v-0.3c0-0.4-0.1-0.7-0.3-0.9
			c-0.2-0.2-0.5-0.3-0.8-0.3c-0.3,0-0.6,0-0.9,0.1c-0.3,0.1-0.6,0.2-0.8,0.3l-0.4-0.9c0.3-0.2,0.7-0.3,1.1-0.4
			c0.4-0.1,0.8-0.1,1.1-0.1c0.8,0,1.3,0.2,1.7,0.5c0.4,0.3,0.6,0.9,0.6,1.6v4.1H178.8z M176.8,345.4c0.5,0,0.8-0.1,1.1-0.4
			c0.3-0.3,0.4-0.6,0.4-1.1v-0.5l-0.8,0c-0.6,0-1,0.1-1.3,0.3c-0.3,0.2-0.4,0.5-0.4,0.8c0,0.3,0.1,0.5,0.2,0.6
			C176.3,345.3,176.5,345.4,176.8,345.4z"/>
		<path class="st3" d="M183.7,345.4c0.3,0,0.6,0,0.9-0.1v1c-0.1,0.1-0.3,0.1-0.5,0.2s-0.5,0.1-0.7,0.1c-1.2,0-1.8-0.6-1.8-1.9v-3.2
			h-0.8v-0.6l0.9-0.5l0.4-1.3h0.8v1.3h1.7v1h-1.7v3.2c0,0.3,0.1,0.5,0.2,0.7C183.2,345.3,183.4,345.4,183.7,345.4z"/>
		<path class="st3" d="M190.1,346.3l-0.2-0.8h-0.1c-0.2,0.3-0.4,0.5-0.8,0.7c-0.3,0.2-0.7,0.2-1.1,0.2c-0.7,0-1.3-0.2-1.6-0.5
			c-0.4-0.4-0.5-0.9-0.5-1.6v-3.9h1.3v3.7c0,0.5,0.1,0.8,0.3,1c0.2,0.2,0.5,0.3,0.9,0.3c0.5,0,0.9-0.2,1.2-0.5
			c0.3-0.3,0.4-0.9,0.4-1.6v-3h1.3v6H190.1z"/>
		<path class="st3" d="M196,340.1c0.3,0,0.5,0,0.6,0.1l-0.1,1.2c-0.2,0-0.4-0.1-0.6-0.1c-0.5,0-0.9,0.2-1.2,0.5
			c-0.3,0.3-0.5,0.8-0.5,1.3v3.1h-1.3v-6h1l0.2,1.1h0.1c0.2-0.4,0.5-0.6,0.8-0.9C195.3,340.2,195.6,340.1,196,340.1z"/>
		<path class="st3" d="M197.7,338.7c0-0.2,0.1-0.4,0.2-0.5c0.1-0.1,0.3-0.2,0.5-0.2c0.2,0,0.4,0.1,0.5,0.2c0.1,0.1,0.2,0.3,0.2,0.5
			c0,0.2-0.1,0.4-0.2,0.5c-0.1,0.1-0.3,0.2-0.5,0.2c-0.2,0-0.4-0.1-0.5-0.2C197.7,339,197.7,338.9,197.7,338.7z M199,346.3h-1.3v-6
			h1.3V346.3z"/>
		<path class="st3" d="M203.1,345.4c0.3,0,0.6,0,0.9-0.1v1c-0.1,0.1-0.3,0.1-0.5,0.2s-0.5,0.1-0.7,0.1c-1.2,0-1.8-0.6-1.8-1.9v-3.2
			h-0.8v-0.6l0.9-0.5l0.4-1.3h0.8v1.3h1.7v1h-1.7v3.2c0,0.3,0.1,0.5,0.2,0.7C202.6,345.3,202.8,345.4,203.1,345.4z"/>
		<path class="st3" d="M204.3,340.3h1.4l1.2,3.4c0.2,0.5,0.3,0.9,0.4,1.4h0c0-0.2,0.1-0.4,0.2-0.7c0.1-0.3,0.5-1.6,1.4-4.1h1.4
			l-2.6,6.8c-0.5,1.3-1.2,1.9-2.3,1.9c-0.3,0-0.6,0-0.8-0.1v-1c0.2,0,0.4,0.1,0.7,0.1c0.6,0,1.1-0.4,1.3-1.1l0.2-0.6L204.3,340.3z"
			/>
		<path class="st3" d="M218.2,344.6c0,0.6-0.2,1-0.6,1.4c-0.4,0.3-1,0.5-1.8,0.5c-0.8,0-1.4-0.1-1.9-0.4v-1.1c0.7,0.3,1.4,0.5,2,0.5
			c0.8,0,1.2-0.2,1.2-0.7c0-0.2,0-0.3-0.1-0.4c-0.1-0.1-0.2-0.2-0.4-0.3c-0.2-0.1-0.5-0.2-0.8-0.4c-0.7-0.3-1.2-0.5-1.4-0.8
			c-0.2-0.3-0.4-0.6-0.4-1c0-0.5,0.2-0.9,0.6-1.2c0.4-0.3,1-0.4,1.7-0.4c0.7,0,1.4,0.1,2,0.4l-0.4,1c-0.6-0.3-1.2-0.4-1.6-0.4
			c-0.7,0-1,0.2-1,0.6c0,0.2,0.1,0.3,0.3,0.5c0.2,0.1,0.6,0.3,1.2,0.5c0.5,0.2,0.9,0.4,1.1,0.5c0.2,0.2,0.4,0.3,0.5,0.6
			C218.1,344,218.2,344.3,218.2,344.6z"/>
		<path class="st3" d="M222,346.4c-0.9,0-1.6-0.3-2.1-0.8c-0.5-0.5-0.7-1.3-0.7-2.3c0-1,0.2-1.8,0.7-2.3c0.5-0.5,1.2-0.8,2.1-0.8
			c0.6,0,1.2,0.1,1.7,0.4l-0.4,1c-0.5-0.2-1-0.3-1.3-0.3c-1,0-1.6,0.7-1.6,2.1c0,0.7,0.1,1.2,0.4,1.5c0.3,0.3,0.6,0.5,1.1,0.5
			c0.6,0,1.1-0.1,1.6-0.4v1.1c-0.2,0.1-0.5,0.2-0.7,0.3C222.7,346.4,222.3,346.4,222,346.4z"/>
		<path class="st3" d="M228.1,340.1c0.3,0,0.5,0,0.6,0.1l-0.1,1.2c-0.2,0-0.4-0.1-0.6-0.1c-0.5,0-0.9,0.2-1.2,0.5
			c-0.3,0.3-0.5,0.8-0.5,1.3v3.1h-1.3v-6h1l0.2,1.1h0.1c0.2-0.4,0.5-0.6,0.8-0.9C227.4,340.2,227.7,340.1,228.1,340.1z"/>
		<path class="st3" d="M232.5,346.4c-0.9,0-1.7-0.3-2.2-0.8c-0.5-0.5-0.8-1.3-0.8-2.3c0-1,0.2-1.8,0.7-2.3c0.5-0.6,1.2-0.8,2-0.8
			c0.8,0,1.4,0.2,1.9,0.7c0.5,0.5,0.7,1.1,0.7,2v0.7h-4c0,0.6,0.2,1,0.5,1.3c0.3,0.3,0.7,0.5,1.3,0.5c0.4,0,0.7,0,1-0.1
			c0.3-0.1,0.6-0.2,1-0.3v1c-0.3,0.1-0.6,0.3-0.9,0.3C233.3,346.4,232.9,346.4,232.5,346.4z M232.3,341.1c-0.4,0-0.7,0.1-1,0.4
			c-0.2,0.3-0.4,0.6-0.4,1.1h2.7c0-0.5-0.1-0.9-0.4-1.1C233,341.2,232.7,341.1,232.3,341.1z"/>
		<path class="st3" d="M238.9,346.4c-0.9,0-1.7-0.3-2.2-0.8c-0.5-0.5-0.8-1.3-0.8-2.3c0-1,0.2-1.8,0.7-2.3c0.5-0.6,1.2-0.8,2-0.8
			c0.8,0,1.4,0.2,1.9,0.7c0.5,0.5,0.7,1.1,0.7,2v0.7h-4c0,0.6,0.2,1,0.5,1.3c0.3,0.3,0.7,0.5,1.3,0.5c0.4,0,0.7,0,1-0.1
			c0.3-0.1,0.6-0.2,1-0.3v1c-0.3,0.1-0.6,0.3-0.9,0.3C239.7,346.4,239.3,346.4,238.9,346.4z M238.7,341.1c-0.4,0-0.7,0.1-1,0.4
			c-0.2,0.3-0.4,0.6-0.4,1.1h2.7c0-0.5-0.1-0.9-0.4-1.1C239.4,341.2,239.1,341.1,238.7,341.1z"/>
		<path class="st3" d="M248,346.3h-1.3v-3.7c0-0.5-0.1-0.8-0.3-1c-0.2-0.2-0.5-0.3-0.9-0.3c-0.5,0-0.9,0.2-1.2,0.5
			c-0.3,0.3-0.4,0.9-0.4,1.6v3h-1.3v-6h1l0.2,0.8h0.1c0.2-0.3,0.4-0.5,0.8-0.7c0.3-0.2,0.7-0.2,1.1-0.2c1.4,0,2.2,0.7,2.2,2.2V346.3
			z"/>
		<path class="st3" d="M253.9,344.6c0,0.6-0.2,1-0.6,1.4c-0.4,0.3-1,0.5-1.8,0.5c-0.8,0-1.4-0.1-1.9-0.4v-1.1c0.7,0.3,1.4,0.5,2,0.5
			c0.8,0,1.2-0.2,1.2-0.7c0-0.2,0-0.3-0.1-0.4c-0.1-0.1-0.2-0.2-0.4-0.3c-0.2-0.1-0.5-0.2-0.8-0.4c-0.7-0.3-1.2-0.5-1.4-0.8
			c-0.2-0.3-0.4-0.6-0.4-1c0-0.5,0.2-0.9,0.6-1.2c0.4-0.3,1-0.4,1.7-0.4c0.7,0,1.4,0.1,2,0.4l-0.4,1c-0.6-0.3-1.2-0.4-1.6-0.4
			c-0.7,0-1,0.2-1,0.6c0,0.2,0.1,0.3,0.3,0.5c0.2,0.1,0.6,0.3,1.2,0.5c0.5,0.2,0.9,0.4,1.1,0.5c0.2,0.2,0.4,0.3,0.5,0.6
			C253.8,344,253.9,344.3,253.9,344.6z"/>
	</g>
</g>
</svg>
