<svg id="Layer_1" data-name="Layer 1" xmlns="http://www.w3.org/2000/svg" xmlns:xlink="http://www.w3.org/1999/xlink" viewBox="0 0 1598.6 654"><defs><style>.cls-1,.cls-15,.cls-20,.cls-4{fill:#284d95;}.cls-2{fill:#d1d8dd;}.cls-19,.cls-3{fill:none;stroke-width:2.66px;}.cls-3{stroke:#00b9ee;}.cls-19,.cls-3,.cls-8,.cls-9{stroke-miterlimit:10;}.cls-11,.cls-12,.cls-13,.cls-14,.cls-15,.cls-16,.cls-20,.cls-4,.cls-5,.cls-6{isolation:isolate;}.cls-12,.cls-13,.cls-14,.cls-4{font-size:25.7px;}.cls-11,.cls-13,.cls-15,.cls-16,.cls-20,.cls-4,.cls-5,.cls-6{font-family:OpenSans-Semibold, Open Sans;font-weight:600;}.cls-5{font-size:17.39px;}.cls-10,.cls-11,.cls-13,.cls-16,.cls-5,.cls-6{fill:#fff;}.cls-6{font-size:31.3px;}.cls-7{fill:url(#linear-gradient);}.cls-8{fill:#26ba2e;}.cls-19,.cls-8,.cls-9{stroke:#fff;}.cls-8,.cls-9{stroke-width:1.33px;}.cls-14,.cls-9{fill:#ff1b0f;}.cls-11,.cls-15{font-size:17.13px;}.cls-12{fill:#00af43;}.cls-12,.cls-14{font-family:OpenSans-Extrabold, Open Sans;font-weight:800;}.cls-16{font-size:14.56px;}.cls-17{fill:url(#linear-gradient-2);}.cls-18{fill:url(#linear-gradient-3);}.cls-20{font-size:14.28px;}</style><linearGradient id="linear-gradient" x1="724.04" y1="4.5" x2="936.99" y2="4.5" gradientTransform="translate(0 358)" gradientUnits="userSpaceOnUse"><stop offset="0" stop-color="#054ca3"/><stop offset="0.11" stop-color="#0466b5"/><stop offset="0.29" stop-color="#028ace"/><stop offset="0.45" stop-color="#01a4e0"/><stop offset="0.6" stop-color="#00b3ea"/><stop offset="0.72" stop-color="#00b9ee"/></linearGradient><linearGradient id="linear-gradient-2" x1="706.3" y1="204.6" x2="832.67" y2="204.6" xlink:href="#linear-gradient"/><linearGradient id="linear-gradient-3" x1="724.04" y1="404.5" x2="936.99" y2="404.5" xlink:href="#linear-gradient"/></defs><path class="cls-1" d="M1171.8,240.9c177.6,0,321.6,144,321.6,321.6s-144,321.6-321.6,321.6-321.6-144-321.6-321.6,144-321.6,321.6-321.6m0-5.4a327.11,327.11,0,0,0-127.3,628.3A326.56,326.56,0,0,0,1403,793.7a328,328,0,0,0,70.1-103.9,326.9,326.9,0,0,0-301.3-454.3Z" transform="translate(-220.7 -235.5)"/><path class="cls-2" d="M1785.5,494.1H1530.6a24,24,0,0,1-23.2-18.3,339,339,0,0,0-16.7-51.1,23.9,23.9,0,0,1,22.1-33h264a28.58,28.58,0,0,1,28,22.1c3.5,15.7,6.5,31.6,8.9,47.6A28.46,28.46,0,0,1,1785.5,494.1Z" transform="translate(-220.7 -235.5)"/><path class="cls-2" d="M1784,339.8q-8.55-24.6-19.1-48.5a32.36,32.36,0,0,0-29.6-19.2l-135.8-.1H1434.9c-20.6,0-31,24.8-16.7,39.7l.4.4a356.17,356.17,0,0,1,34.9,42.6,47.43,47.43,0,0,0,38.9,20.2h266.9A26.5,26.5,0,0,0,1784,339.8Z" transform="translate(-220.7 -235.5)"/><path class="cls-2" d="M1784,785.2q-8.55,24.6-19.1,48.5a32.36,32.36,0,0,1-29.6,19.2l-135.8.1H1434.9c-20.6,0-31-24.8-16.7-39.7l.4-.4a356.17,356.17,0,0,0,34.9-42.6,47.43,47.43,0,0,1,38.9-20.2h266.9A26.5,26.5,0,0,1,1784,785.2Z" transform="translate(-220.7 -235.5)"/><path class="cls-2" d="M1785.5,630.9H1530.6a24,24,0,0,0-23.2,18.3,339,339,0,0,1-16.7,51.1,23.9,23.9,0,0,0,22.1,33h264a28.58,28.58,0,0,0,28-22.1c3.5-15.7,6.5-31.6,8.9-47.6A28.46,28.46,0,0,0,1785.5,630.9Z" transform="translate(-220.7 -235.5)"/><path class="cls-2" d="M1819.3,562.4c0-7.4-.1-14.9-.4-22.4a29.72,29.72,0,0,0-29.7-28.8H1544.8a29.63,29.63,0,0,0-29.6,31.3c.4,6.6.6,13.2.6,19.9v.2c0,6.6-.2,13.2-.6,19.9a29.63,29.63,0,0,0,29.6,31.3h244.4a29.85,29.85,0,0,0,29.7-28.8c.3-7.5.4-14.9.4-22.4v-.2Z" transform="translate(-220.7 -235.5)"/><path class="cls-3" d="M931.8,523.5h55.4a8.81,8.81,0,0,0,8.8-8.8V332.2a8.81,8.81,0,0,1,8.8-8.8h479.7" transform="translate(-220.7 -235.5)"/><text class="cls-4" transform="translate(1339.35 573.05)">Cash</text><circle class="cls-1" cx="1272.7" cy="566.1" r="38.7"/><text class="cls-5" transform="translate(1250.33 569.66)">100%</text><path class="cls-3" d="M1278,562.5h113.8v-108a8.81,8.81,0,0,0-8.8-8.8H1207.2" transform="translate(-220.7 -235.5)"/><path class="cls-3" d="M945.3,585.5V744.7a8.81,8.81,0,0,0,8.8,8.8h136.2" transform="translate(-220.7 -235.5)"/><path class="cls-3" d="M1168,715.7h25.1a8.81,8.81,0,0,0,8.8-8.8V609.6" transform="translate(-220.7 -235.5)"/><path class="cls-3" d="M948,561.8h170.2a8.81,8.81,0,0,0,8.8-8.8V405.3" transform="translate(-220.7 -235.5)"/><path class="cls-3" d="M1810.1,682H1400.6a8.81,8.81,0,0,1-8.8-8.8v1a8.81,8.81,0,0,0-8.8-8.8H1262.2" transform="translate(-220.7 -235.5)"/><path class="cls-3" d="M1454.8,801.6H1347.4a8.81,8.81,0,0,1-8.8-8.8v-13a8.81,8.81,0,0,0-8.8-8.8h-155" transform="translate(-220.7 -235.5)"/><path class="cls-3" d="M1204.7,364.8h198.7a8.81,8.81,0,0,1,8.8,8.8v60.6a8.81,8.81,0,0,0,8.8,8.8h389.2" transform="translate(-220.7 -235.5)"/><line class="cls-3" x1="1347.6" y1="327" x2="1171.1" y2="327"/><polygon class="cls-1" points="284.8 327 250.4 314.5 250.4 339.5 284.8 327"/><path class="cls-1" d="M482.6,565.2H452.9a2.7,2.7,0,1,1,0-5.4h29.7a2.7,2.7,0,0,1,0,5.4Z" transform="translate(-220.7 -235.5)"/><circle class="cls-1" cx="107.7" cy="327" r="107.7"/><text class="cls-6" transform="translate(79.77 319.23)">Fed</text><text class="cls-6" transform="translate(42.77 356.83)">Decision</text><path class="cls-7" d="M931,307.3a352.43,352.43,0,0,0-45.2,55.2h.1a348.4,348.4,0,0,0-34.4,66.4,36.85,36.85,0,0,1-34.2,23.5l-71.7.1a21.48,21.48,0,0,1-20.7-27.4,464.11,464.11,0,0,1,22.9-62.6h0c.5-1,.9-2,1.4-3a469.5,469.5,0,0,1,38.3-68.1,43,43,0,0,1,35.6-18.9l93.7.1C934.7,272.6,943.8,294.5,931,307.3Z" transform="translate(-220.7 -235.5)"/><circle class="cls-8" cx="611.9" cy="68.9" r="11.6"/><circle class="cls-9" cx="652.4" cy="68.9" r="11.6"/><path class="cls-10" d="M870.5,305v-2h5.1v2Z" transform="translate(-220.7 -235.5)"/><path class="cls-10" d="M832.1,304.9h-3.9v-1.8h3.9v-4h1.8v4h3.9v1.8h-3.9v4h-1.8Z" transform="translate(-220.7 -235.5)"/><text class="cls-11" transform="translate(556.42 115.3)">Economic</text><text class="cls-11" transform="translate(556.42 135.9)">Conditions</text><text class="cls-11" transform="translate(556.42 156.4)">Leading</text><text class="cls-11" transform="translate(556.42 177)">Indicator</text><text class="cls-4" transform="translate(344.21 80.53)">Current LEI </text><text class="cls-12" transform="translate(344.21 111.33)">&gt;</text><text class="cls-13" transform="translate(358.71 111.33)"> </text><text class="cls-4" transform="translate(365.41 111.33)">(</text><text class="cls-14" transform="translate(373.61 111.33)">&lt;</text><text class="cls-4" transform="translate(388.11 111.33)">) 6 month</text><text class="cls-4" transform="translate(344.21 142.23)">moving</text><text class="cls-4" transform="translate(344.21 173.03)">average</text><text class="cls-13" transform="translate(442.71 173.03)"> </text><text class="cls-12" transform="translate(449.41 173.03)">+</text><text class="cls-13" transform="translate(464.01 173.03)"> </text><text class="cls-4" transform="translate(470.61 173.03)">(</text><text class="cls-14" transform="translate(478.81 173.03)">-</text><text class="cls-4" transform="translate(487.01 173.03)">)</text><text class="cls-15" transform="translate(800.72 77.68)">≥ 2 (+) primary indicators</text><text class="cls-15" transform="translate(988.57 483.83)"><tspan xml:space="preserve">LEI not decreasing  </tspan><tspan x="0" y="20.56">consecutive months</tspan></text><text class="cls-15" transform="translate(1059.82 398.84)">Currently &lt; 200 day </text><text class="cls-15" transform="translate(1059.82 419.44)">moving average</text><text class="cls-15" transform="translate(1071.88 345.56)">Currently &gt; 200 day </text><text class="cls-15" transform="translate(1071.88 366.16)">moving average</text><text class="cls-15" transform="translate(1002.35 230.63)">Currently &lt; 200 day </text><text class="cls-15" transform="translate(1002.35 251.23)">moving average</text><text class="cls-15" transform="translate(1002.35 149.97)">Currently &gt; 200 day </text><text class="cls-15" transform="translate(1002.35 170.57)">moving average</text><text class="cls-15" transform="translate(693.16 472.93) rotate(-90)">0 (+) primary </text><text class="cls-15" transform="translate(713.76 472.93) rotate(-90)">indicators</text><text class="cls-15" transform="translate(789.53 298.73)">1 (+) primary </text><text class="cls-15" transform="translate(789.53 319.34)">indicators</text><circle class="cls-1" cx="906.3" cy="169.8" r="67.3"/><text class="cls-16" transform="translate(859.23 145.83)"><tspan xml:space="preserve"> New Age </tspan><tspan x="0" y="17.47">Alpha U.S. </tspan><tspan x="0" y="34.94">Large-Cap </tspan><tspan x="0" y="52.42">ESG 50 Index</tspan></text><circle class="cls-1" cx="981.1" cy="374.2" r="67.3"/><text class="cls-16" transform="translate(935.99 347.74)">New Age <tspan x="0" y="17.47">Alpha U.S. </tspan><tspan x="0" y="34.94">Large-Cap ESG </tspan><tspan x="0" y="52.42">Defensive 50 </tspan><tspan x="0" y="69.89">Index</tspan></text><circle class="cls-1" cx="1090.33" cy="753.5" r="67.3" transform="translate(-190.01 1314.08) rotate(-71.56)"/><text class="cls-5" transform="translate(829.96 494.63)">Leading</text><text class="cls-5" transform="translate(829.96 515.53)">Economic</text><text class="cls-5" transform="translate(829.96 536.33)">Indicator</text><text class="cls-5" transform="translate(829.96 557.23)">(LEI)</text><circle class="cls-8" cx="984" cy="129.3" r="11.6"/><circle class="cls-9" cx="984" cy="210.2" r="11.6"/><path class="cls-10" d="M1202.2,446.3v-2h5.1v2Z" transform="translate(-220.7 -235.5)"/><path class="cls-10" d="M1204.2,365.3h-3.9v-1.8h3.9v-4h1.8v4h3.9v1.8H1206v4h-1.8Z" transform="translate(-220.7 -235.5)"/><circle class="cls-8" cx="1052.1" cy="327" r="11.6"/><circle class="cls-9" cx="1044.9" cy="430" r="11.6"/><path class="cls-10" d="M1263.1,666.1v-2h5.1v2Z" transform="translate(-220.7 -235.5)"/><path class="cls-10" d="M1272.3,563h-3.9v-1.8h3.9v-4h1.8v4h3.9V563h-3.9v4h-1.8Z" transform="translate(-220.7 -235.5)"/><circle class="cls-8" cx="947.3" cy="480.2" r="11.6"/><circle class="cls-9" cx="955.8" cy="534.8" r="11.6"/><path class="cls-10" d="M1174,770.9v-2h5.1v2Z" transform="translate(-220.7 -235.5)"/><path class="cls-10" d="M1167.5,716.2h-3.9v-1.8h3.9v-4h1.8v4h3.9v1.8h-3.9v4h-1.8Z" transform="translate(-220.7 -235.5)"/><path class="cls-1" d="M950.4,585.3H899.7a20,20,0,0,1-20-20V478.1a20,20,0,0,1,20-20h50.7a20,20,0,0,1,20,20v87.2A19.93,19.93,0,0,1,950.4,585.3Z" transform="translate(-220.7 -235.5)"/><circle class="cls-8" cx="684.2" cy="247.8" r="11.6"/><circle class="cls-9" cx="724.6" cy="247.8" r="11.6"/><path class="cls-10" d="M942.8,483.9v-2h5.1v2Z" transform="translate(-220.7 -235.5)"/><path class="cls-10" d="M904.3,483.8h-3.9V482h3.9v-4h1.8v4H910v1.8h-3.9v4h-1.8Z" transform="translate(-220.7 -235.5)"/><circle class="cls-8" cx="684.2" cy="286.5" r="11.6"/><circle class="cls-9" cx="724.6" cy="286.5" r="11.6"/><path class="cls-10" d="M942.8,522.6v-2h5.1v2Z" transform="translate(-220.7 -235.5)"/><path class="cls-10" d="M904.3,522.5h-3.9v-1.8h3.9v-4h1.8v4H910v1.8h-3.9v4h-1.8Z" transform="translate(-220.7 -235.5)"/><circle class="cls-8" cx="684.2" cy="324.7" r="11.6"/><circle class="cls-9" cx="724.6" cy="324.7" r="11.6"/><path class="cls-10" d="M942.8,560.8v-2h5.1v2Z" transform="translate(-220.7 -235.5)"/><path class="cls-10" d="M904.3,560.7h-3.9V559h3.9v-4h1.8v4H910v1.8h-3.9v4h-1.8Z" transform="translate(-220.7 -235.5)"/><path class="cls-17" d="M827.8,562.5a353.63,353.63,0,0,1,4.5-56.4,28.91,28.91,0,0,0-28.6-33.4H739.4a29.06,29.06,0,0,0-28.7,25,480.84,480.84,0,0,0,0,129.8,29,29,0,0,0,28.7,25h64.3a28.91,28.91,0,0,0,28.6-33.4A358,358,0,0,1,827.8,562.5Z" transform="translate(-220.7 -235.5)"/><text class="cls-11" transform="translate(506.51 316.19)">Market</text><text class="cls-11" transform="translate(506.51 336.79)">Sentiment</text><text class="cls-11" transform="translate(506.51 357.29)">VIX</text><circle class="cls-8" cx="528.7" cy="269.4" r="11.6"/><circle class="cls-9" cx="569.2" cy="269.4" r="11.6"/><path class="cls-10" d="M787.4,505.5v-2h5.1v2Z" transform="translate(-220.7 -235.5)"/><path class="cls-10" d="M748.9,505.4H745v-1.8h3.9v-4h1.8v4h3.9v1.8h-3.9v4h-1.8Z" transform="translate(-220.7 -235.5)"/><text class="cls-4" transform="translate(313.7 290.99)">Current VIX</text><text class="cls-12" transform="translate(313.7 321.79)">&lt;</text><text class="cls-13" transform="translate(328.2 321.79)"> </text><text class="cls-4" transform="translate(334.9 321.79)">(</text><text class="cls-14" transform="translate(343.1 321.79)">&gt;</text><text class="cls-4" transform="translate(357.6 321.79)">) 200 day</text><text class="cls-4" transform="translate(313.7 352.69)">moving</text><text class="cls-4" transform="translate(313.7 383.49)">average</text><text class="cls-13" transform="translate(412.2 383.49)"> </text><text class="cls-12" transform="translate(418.9 383.49)">+</text><text class="cls-13" transform="translate(433.5 383.49)"> </text><text class="cls-4" transform="translate(440.1 383.49)">(</text><text class="cls-14" transform="translate(448.3 383.49)">-</text><text class="cls-4" transform="translate(456.5 383.49)">)</text><path class="cls-18" d="M931,817.7a352.43,352.43,0,0,1-45.2-55.2h.1a348.4,348.4,0,0,1-34.4-66.4,36.85,36.85,0,0,0-34.2-23.5l-71.7-.1a21.48,21.48,0,0,0-20.7,27.4,464.11,464.11,0,0,0,22.9,62.6h0c.5,1,.9,2,1.4,3a469.5,469.5,0,0,0,38.3,68.1,43,43,0,0,0,35.6,18.9l93.7-.1C934.7,852.4,943.8,830.5,931,817.7Z" transform="translate(-220.7 -235.5)"/><text class="cls-11" transform="translate(556.42 530.83)">Market</text><text class="cls-11" transform="translate(556.42 551.43)">Momentum<tspan x="0" y="20.56">S&amp;P 500</tspan></text><circle class="cls-8" cx="548.9" cy="470" r="11.6"/><circle class="cls-9" cx="589.3" cy="470" r="11.6"/><path class="cls-10" d="M807.5,706v-2h5.1v2Z" transform="translate(-220.7 -235.5)"/><path class="cls-10" d="M769,705.9h-3.9v-1.8H769v-4h1.8v4h3.9v1.8h-3.9v4H769Z" transform="translate(-220.7 -235.5)"/><text class="cls-4" transform="translate(333.77 501.44)">Current SPTR</text><text class="cls-12" transform="translate(333.77 532.24)">&gt;</text><text class="cls-13" transform="translate(348.27 532.24)"> </text><text class="cls-4" transform="translate(354.97 532.24)">(</text><text class="cls-14" transform="translate(363.17 532.24)">&lt;</text><text class="cls-4" transform="translate(377.67 532.24)">) 200 day</text><text class="cls-4" transform="translate(333.77 563.14)">moving</text><text class="cls-4" transform="translate(333.77 593.94)">average</text><text class="cls-13" transform="translate(432.27 593.94)"> </text><text class="cls-12" transform="translate(438.97 593.94)">+</text><text class="cls-13" transform="translate(453.57 593.94)"> </text><text class="cls-4" transform="translate(460.17 593.94)">(</text><text class="cls-14" transform="translate(468.37 593.94)">-</text><text class="cls-4" transform="translate(476.57 593.94)">)</text><path class="cls-19" d="M1532.1,801.6" transform="translate(-220.7 -235.5)"/><path class="cls-19" d="M1454.8,801.6" transform="translate(-220.7 -235.5)"/><text class="cls-20" transform="translate(1378.51 420.54)">New Age Alpha U.S. Large-Cap <tspan x="0" y="17.13">ESG Defensive 50 Index</tspan></text><text class="cls-15" transform="translate(1378.51 477.52)">Cash</text><circle class="cls-1" cx="1333.2" cy="446.5" r="38.7"/><text class="cls-5" transform="translate(1315.76 435.45)">50%</text><text class="cls-5" transform="translate(1315.76 468.56)">50%</text><line class="cls-19" x1="1294.5" y1="446.5" x2="1371.9" y2="446.5"/><text class="cls-15" transform="translate(957.27 561.28)"><tspan xml:space="preserve">LEI decreasing  </tspan><tspan x="0" y="20.56">consecutive months</tspan></text><text class="cls-15" transform="translate(1399.31 311.91)">New Age Alpha U.S. <tspan x="0" y="20.56">Large-Cap ESG </tspan><tspan x="0" y="41.12">Defensive 50 Index</tspan></text><circle class="cls-1" cx="1350.1" cy="327" r="38.7"/><text class="cls-5" transform="translate(1328.17 331.41)">100%</text><text class="cls-15" transform="translate(1325.3 85.19)">New Age Alpha U.S. <tspan x="0" y="20.56">Large-Cap ESG 50 Index </tspan></text><circle class="cls-1" cx="1272.7" cy="87.9" r="38.7"/><text class="cls-5" transform="translate(1250.88 93.4)">100%</text><text class="cls-20" transform="translate(1377.82 229.41)">New Age Alpha U.S. Large-Cap <tspan x="0" y="17.13">ESG Defensive 50 Index </tspan></text><text class="cls-20" transform="translate(1378.51 178.23)">New Age Alpha U.S. <tspan x="0" y="17.13">Large-Cap ESG 50 Index </tspan></text><circle class="cls-1" cx="1333.2" cy="207.5" r="38.7"/><text class="cls-5" transform="translate(1316.27 196.98)">50%</text><text class="cls-5" transform="translate(1316.27 229.41)">50%</text><line class="cls-19" x1="1294.5" y1="207.5" x2="1371.9" y2="207.5"/></svg>